<svg width="480" height="462" viewBox="0 0 480 462" fill="none" xmlns="http://www.w3.org/2000/svg">
<path fill-rule="evenodd" clip-rule="evenodd" d="M134.987 48.1347L178.93 124.114C179.587 125.251 179.932 126.541 179.931 127.853C179.931 129.166 179.584 130.455 178.927 131.592C178.27 132.728 177.324 133.673 176.186 134.331C175.047 134.988 173.756 135.336 172.44 135.338L84.5071 135.345C83.1903 135.343 81.8972 134.996 80.7574 134.338C79.6177 133.681 78.6714 132.735 78.0138 131.597C77.3562 130.459 77.0102 129.169 77.0107 127.855C77.0113 126.542 77.3582 125.251 78.0168 124.114L121.969 48.1347C122.629 46.9961 123.579 46.0508 124.721 45.3937C125.863 44.7365 127.159 44.3906 128.478 44.3906C129.797 44.3906 131.092 44.7365 132.235 45.3937C133.377 46.0508 134.326 46.9961 134.987 48.1347ZM128.472 115.964C129.21 115.964 129.918 115.672 130.44 115.151C130.962 114.63 131.255 113.924 131.255 113.188C131.255 112.451 130.962 111.745 130.44 111.224C129.918 110.704 129.21 110.411 128.472 110.411C127.733 110.411 127.025 110.704 126.503 111.224C125.981 111.745 125.688 112.451 125.688 113.188C125.688 113.924 125.981 114.63 126.503 115.151C127.025 115.672 127.733 115.964 128.472 115.964Z" fill="#F7F7FF"/>
<path d="M364.891 114.918C349.028 111.92 333.894 121.228 331.153 135.701C330.221 140.771 330.879 146.002 333.038 150.685L326.188 161.876L339.168 159.238C343.527 163.407 349.013 166.214 354.951 167.311C370.814 170.309 385.948 161.001 388.689 146.53C391.451 132.062 380.796 117.915 364.891 114.918Z" fill="#F7F7FF"/>
<path d="M165.509 211.391C166.211 211.391 166.883 211.113 167.379 210.618C167.875 210.124 168.154 209.453 168.154 208.753C168.154 208.054 167.875 207.383 167.379 206.888C166.883 206.393 166.211 206.115 165.509 206.115C164.808 206.115 164.136 206.393 163.64 206.888C163.144 207.383 162.865 208.054 162.865 208.753C162.865 209.453 163.144 210.124 163.64 210.618C164.136 211.113 164.808 211.391 165.509 211.391Z" fill="#F7F7FF"/>
<path d="M189.307 231.535C189.307 232.057 189.152 232.567 188.861 233.001C188.571 233.435 188.158 233.773 187.675 233.972C187.191 234.172 186.66 234.224 186.147 234.123C185.634 234.021 185.163 233.77 184.793 233.401C184.423 233.032 184.171 232.562 184.069 232.05C183.967 231.538 184.02 231.008 184.22 230.526C184.42 230.044 184.759 229.632 185.194 229.342C185.629 229.052 186.14 228.897 186.663 228.897C187.362 228.903 188.032 229.183 188.526 229.676C189.021 230.17 189.301 230.837 189.307 231.535Z" fill="#F7F7FF"/>
<path d="M214.024 212.35C214.024 212.872 213.869 213.382 213.578 213.815C213.288 214.249 212.875 214.587 212.391 214.787C211.908 214.987 211.377 215.039 210.864 214.937C210.351 214.835 209.88 214.584 209.51 214.215C209.14 213.846 208.888 213.376 208.786 212.864C208.684 212.353 208.736 211.822 208.937 211.34C209.137 210.858 209.476 210.446 209.911 210.156C210.345 209.867 210.857 209.712 211.38 209.712C212.079 209.718 212.748 209.999 213.242 210.492C213.736 210.985 214.017 211.652 214.024 212.35Z" fill="#F7F7FF"/>
<path d="M241.185 234.89C241.185 235.411 241.03 235.92 240.739 236.354C240.449 236.787 240.037 237.125 239.554 237.325C239.071 237.524 238.54 237.577 238.028 237.475C237.515 237.373 237.045 237.123 236.675 236.754C236.305 236.386 236.054 235.916 235.951 235.405C235.849 234.894 235.901 234.364 236.101 233.882C236.301 233.401 236.639 232.989 237.073 232.699C237.507 232.409 238.018 232.254 238.54 232.254C239.24 232.259 239.909 232.539 240.403 233.032C240.898 233.525 241.179 234.192 241.185 234.89Z" fill="#F7F7FF"/>
<path d="M264.259 212.35C264.258 212.871 264.102 213.381 263.812 213.814C263.522 214.248 263.11 214.587 262.627 214.788C262.266 214.939 261.875 215.007 261.483 214.989C261.092 214.971 260.709 214.866 260.363 214.682C260.017 214.498 259.717 214.24 259.483 213.926C259.249 213.612 259.088 213.25 259.012 212.867C258.935 212.483 258.945 212.088 259.041 211.709C259.136 211.329 259.315 210.976 259.564 210.674C259.813 210.372 260.126 210.129 260.481 209.963C260.836 209.796 261.223 209.711 261.615 209.712C262.314 209.719 262.983 209.999 263.477 210.492C263.971 210.986 264.252 211.652 264.259 212.35Z" fill="#F7F7FF"/>
<path d="M293.103 213.868C293.102 214.39 292.946 214.899 292.656 215.333C292.365 215.767 291.953 216.105 291.471 216.306C291.109 216.457 290.719 216.526 290.327 216.508C289.936 216.489 289.553 216.384 289.207 216.201C288.861 216.017 288.56 215.759 288.327 215.445C288.093 215.131 287.932 214.769 287.856 214.386C287.779 214.002 287.789 213.606 287.884 213.227C287.98 212.848 288.159 212.494 288.408 212.193C288.657 211.891 288.97 211.648 289.325 211.481C289.68 211.315 290.067 211.229 290.459 211.23C291.158 211.237 291.827 211.517 292.321 212.01C292.816 212.504 293.097 213.171 293.103 213.868Z" fill="#F7F7FF"/>
<path d="M322.388 212.35C322.741 212.36 323.093 212.299 323.422 212.171C323.752 212.043 324.052 211.85 324.306 211.605C324.559 211.359 324.761 211.065 324.898 210.74C325.036 210.415 325.107 210.066 325.107 209.713C325.107 209.36 325.036 209.011 324.898 208.686C324.761 208.362 324.559 208.068 324.306 207.822C324.052 207.576 323.752 207.383 323.422 207.255C323.093 207.127 322.741 207.066 322.388 207.076C321.7 207.096 321.046 207.382 320.567 207.874C320.087 208.367 319.818 209.026 319.818 209.713C319.818 210.4 320.087 211.059 320.567 211.552C321.046 212.044 321.7 212.331 322.388 212.35Z" fill="#F7F7FF"/>
<path d="M310.889 238.127C310.888 238.649 310.732 239.158 310.442 239.592C310.152 240.026 309.74 240.364 309.257 240.565C308.896 240.716 308.505 240.785 308.113 240.766C307.722 240.748 307.339 240.643 306.993 240.459C306.647 240.276 306.347 240.017 306.113 239.704C305.879 239.39 305.718 239.028 305.642 238.644C305.565 238.261 305.575 237.865 305.671 237.486C305.766 237.107 305.945 236.753 306.194 236.451C306.443 236.15 306.756 235.907 307.111 235.74C307.466 235.574 307.853 235.488 308.245 235.489C308.593 235.486 308.938 235.552 309.261 235.684C309.583 235.815 309.876 236.01 310.122 236.255C310.368 236.501 310.563 236.793 310.694 237.114C310.826 237.436 310.892 237.78 310.889 238.127Z" fill="#F7F7FF"/>
<path d="M125.53 199.682V212.629C127.373 211.87 129.326 211.07 131.38 210.231V203.617C129.199 202.684 127.214 201.349 125.53 199.682Z" fill="#4F56B2"/>
<path d="M125.53 227.858V444.028H131.38V224.221C129.537 225.38 127.415 226.739 125.53 227.858Z" fill="#4F56B2"/>
<path d="M247.312 183.455L244.109 188.011L244.19 184.135L247.312 183.455Z" fill="#4F56B2"/>
<path d="M328.237 196.476L329.198 195.876C329.409 195.767 337.707 192.889 337.844 192.839C332.401 190.129 327.636 191.328 328.237 196.476Z" fill="#4F56B2"/>
<path d="M345.622 208.273L340.14 210.192C343.825 211.711 347.52 211.505 348.515 208.427L345.622 208.273Z" fill="#4F56B2"/>
<path d="M229.487 438.072C229.023 433.409 228.001 428.818 226.442 424.398C217.893 426.836 208.831 426.836 200.282 424.398C188.947 427.676 176.006 437.706 169.235 444.021C191.989 444.021 207.053 443.821 224.359 443.781C225.452 443.786 226.519 443.442 227.403 442.799C228.287 442.157 228.942 441.249 229.272 440.209C229.494 439.52 229.568 438.791 229.487 438.072Z" fill="#4F56B2"/>
<path d="M356.48 403.941L349.028 399.944C346.063 409.657 342.537 412.534 333.363 418.529C337.97 425.404 336.888 428.801 336.368 430.798C331.518 435.354 329.078 435.335 325.713 444.05H342.582C344.847 444.1 347.079 443.504 349.017 442.332C350.954 441.16 352.516 439.461 353.519 437.434C356.049 431.965 358.158 420.89 360.528 414.375C361.264 412.444 361.258 410.31 360.511 408.383C359.763 406.456 358.327 404.874 356.48 403.941Z" fill="#4F56B2"/>
<path d="M361.646 150.443C361.628 150.809 361.467 151.152 361.197 151.399C360.927 151.646 360.57 151.777 360.204 151.762C359.976 151.754 359.754 151.689 359.557 151.573C359.361 151.458 359.196 151.296 359.078 151.101C358.96 150.907 358.892 150.686 358.88 150.459C358.868 150.232 358.913 150.005 359.01 149.8C359.147 149.512 359.379 149.281 359.667 149.145C359.955 149.008 360.281 148.975 360.591 149.05C360.901 149.126 361.175 149.306 361.367 149.56C361.559 149.813 361.658 150.126 361.646 150.443Z" fill="#4F56B2"/>
<path d="M125.57 198.764V135.345L131.42 135.339V199.124C127.856 198.484 126.131 198.444 125.57 198.764Z" fill="#4F56B2"/>
<path d="M286.493 155.246C287.748 154.888 288.833 154.095 289.555 153.011C290.276 151.927 290.587 150.621 290.432 149.329C290.279 148.036 289.67 146.84 288.713 145.955C287.756 145.069 286.515 144.552 285.211 144.497C286.128 143.672 286.741 142.564 286.951 141.35C287.161 140.136 286.957 138.888 286.371 137.803C285.784 136.72 284.849 135.864 283.716 135.374C282.582 134.885 281.317 134.79 280.123 135.105C280.51 134.286 280.688 133.386 280.643 132.482C280.597 131.579 280.329 130.701 279.862 129.925C279.395 129.15 278.743 128.502 277.965 128.037C277.187 127.573 276.306 127.308 275.4 127.264C274.189 127.204 272.991 127.544 271.992 128.23C272.135 126.974 271.839 125.707 271.155 124.642C270.471 123.578 269.44 122.781 268.236 122.386C267.032 121.991 265.729 122.022 264.545 122.473C263.361 122.924 262.369 123.769 261.736 124.864C261.493 123.555 260.8 122.372 259.775 121.52C258.751 120.667 257.459 120.198 256.125 120.194C254.791 120.19 253.497 120.65 252.466 121.495C251.435 122.34 250.732 123.518 250.478 124.824C249.853 123.726 248.868 122.876 247.688 122.416C246.509 121.957 245.207 121.916 244.001 122.3C242.795 122.685 241.758 123.472 241.064 124.527C240.369 125.583 240.059 126.845 240.184 128.102C239.192 127.404 237.997 127.051 236.783 127.098C235.57 127.146 234.406 127.59 233.471 128.363C232.536 129.137 231.883 130.196 231.612 131.376C231.341 132.557 231.467 133.794 231.971 134.896C230.781 134.581 229.52 134.671 228.387 135.152C227.254 135.632 226.315 136.476 225.717 137.55C225.119 138.623 224.897 139.865 225.087 141.078C225.276 142.292 225.866 143.407 226.763 144.249C225.46 144.295 224.215 144.801 223.251 145.677C222.287 146.552 221.665 147.741 221.497 149.031C221.329 150.321 221.625 151.628 222.332 152.721C223.04 153.814 224.113 154.621 225.361 154.998C224.111 155.366 223.032 156.164 222.317 157.251C221.602 158.338 221.296 159.642 221.455 160.933C221.614 162.223 222.226 163.415 223.183 164.297C224.141 165.179 225.381 165.694 226.683 165.749C225.778 166.584 225.18 167.697 224.983 168.91C224.787 170.123 225.003 171.367 225.598 172.443C226.193 173.52 227.132 174.366 228.265 174.848C229.398 175.33 230.661 175.419 231.851 175.102C231.443 175.967 231.269 176.923 231.347 177.876C231.425 178.828 231.752 179.744 232.295 180.531C232.838 181.319 233.578 181.95 234.442 182.363C235.307 182.776 236.264 182.956 237.219 182.885C234.776 180.927 233.894 176.574 237.9 167.34C245.032 150.915 251.56 162.384 251.48 169.058C251.6 170.257 252.281 170.497 254.084 169.018C257.85 165.901 261.135 172.456 253.964 176.211C252.602 176.932 251.68 178.524 252.842 187.359C252.914 187.991 253.019 188.619 253.163 189.238C253.944 189.636 254.809 189.846 255.686 189.849C256.564 189.852 257.43 189.648 258.214 189.255C258.998 188.862 259.679 188.29 260.2 187.586C260.722 186.881 261.069 186.065 261.215 185.201C261.833 186.305 262.813 187.164 263.99 187.633C265.167 188.102 266.47 188.154 267.68 187.78C268.891 187.405 269.936 186.627 270.64 185.575C271.344 184.524 271.664 183.263 271.548 182.004C272.532 182.709 273.722 183.071 274.933 183.034C276.145 182.997 277.31 182.563 278.249 181.799C279.189 181.035 279.849 179.984 280.129 178.807C280.409 177.631 280.293 176.395 279.799 175.291C280.985 175.61 282.244 175.526 283.376 175.051C284.509 174.577 285.451 173.739 286.053 172.671C286.655 171.603 286.883 170.365 286.701 169.153C286.518 167.941 285.936 166.824 285.047 165.979C286.336 165.917 287.563 165.406 288.514 164.536C289.464 163.665 290.079 162.49 290.251 161.214C290.423 159.938 290.141 158.642 289.455 157.551C288.768 156.461 287.72 155.646 286.493 155.246Z" fill="#4F56B2"/>
<path d="M165.509 211.391C166.211 211.391 166.883 211.113 167.379 210.618C167.875 210.124 168.154 209.453 168.154 208.753C168.154 208.054 167.875 207.383 167.379 206.888C166.883 206.393 166.211 206.115 165.509 206.115C164.808 206.115 164.136 206.393 163.64 206.888C163.144 207.383 162.865 208.054 162.865 208.753C162.865 209.453 163.144 210.124 163.64 210.618C164.136 211.113 164.808 211.391 165.509 211.391Z" stroke="#252B4A"/>
<path d="M189.307 231.535C189.307 232.057 189.152 232.567 188.861 233.001C188.571 233.435 188.158 233.773 187.675 233.972C187.191 234.172 186.66 234.224 186.147 234.123C185.634 234.021 185.163 233.77 184.793 233.401C184.423 233.032 184.171 232.562 184.069 232.05C183.967 231.538 184.02 231.008 184.22 230.526C184.42 230.044 184.759 229.632 185.194 229.342C185.629 229.052 186.14 228.897 186.663 228.897C187.362 228.903 188.032 229.183 188.526 229.676C189.021 230.17 189.301 230.837 189.307 231.535Z" stroke="#252B4A"/>
<path d="M214.024 212.35C214.024 212.872 213.869 213.382 213.578 213.815C213.288 214.249 212.875 214.587 212.391 214.787C211.908 214.987 211.377 215.039 210.864 214.937C210.351 214.835 209.88 214.584 209.51 214.215C209.14 213.846 208.888 213.376 208.786 212.864C208.684 212.353 208.736 211.822 208.937 211.34C209.137 210.858 209.476 210.446 209.911 210.156C210.345 209.867 210.857 209.712 211.38 209.712C212.079 209.718 212.748 209.999 213.242 210.492C213.736 210.985 214.017 211.652 214.024 212.35Z" stroke="#252B4A"/>
<path d="M241.186 234.89C241.186 235.411 241.031 235.92 240.74 236.354C240.45 236.787 240.038 237.125 239.555 237.325C239.072 237.524 238.541 237.577 238.029 237.475C237.516 237.373 237.046 237.123 236.676 236.754C236.306 236.386 236.055 235.916 235.952 235.405C235.85 234.894 235.902 234.364 236.102 233.882C236.302 233.401 236.64 232.989 237.074 232.699C237.508 232.409 238.019 232.254 238.541 232.254C239.241 232.259 239.91 232.539 240.404 233.032C240.899 233.525 241.179 234.192 241.186 234.89Z" stroke="#252B4A"/>
<path d="M264.259 212.35C264.258 212.871 264.102 213.381 263.812 213.814C263.522 214.248 263.11 214.587 262.627 214.788C262.266 214.939 261.875 215.007 261.483 214.989C261.092 214.971 260.709 214.866 260.363 214.682C260.017 214.498 259.717 214.24 259.483 213.926C259.249 213.612 259.088 213.25 259.012 212.867C258.935 212.483 258.945 212.088 259.041 211.709C259.136 211.329 259.315 210.976 259.564 210.674C259.813 210.372 260.126 210.129 260.481 209.963C260.836 209.796 261.223 209.711 261.615 209.712C262.314 209.719 262.983 209.999 263.477 210.492C263.971 210.986 264.252 211.652 264.259 212.35Z" stroke="#252B4A"/>
<path d="M293.103 213.868C293.102 214.39 292.946 214.899 292.656 215.333C292.365 215.767 291.953 216.105 291.471 216.306C291.109 216.457 290.719 216.526 290.327 216.508C289.936 216.489 289.553 216.384 289.207 216.201C288.861 216.017 288.56 215.759 288.327 215.445C288.093 215.131 287.932 214.769 287.856 214.386C287.779 214.002 287.789 213.606 287.884 213.227C287.98 212.848 288.159 212.494 288.408 212.193C288.657 211.891 288.97 211.648 289.325 211.481C289.68 211.315 290.067 211.229 290.459 211.23C291.158 211.237 291.827 211.517 292.321 212.01C292.816 212.504 293.097 213.171 293.103 213.868Z" stroke="#252B4A"/>
<path d="M322.388 212.35C322.741 212.36 323.093 212.299 323.422 212.171C323.752 212.043 324.052 211.85 324.306 211.605C324.559 211.359 324.761 211.065 324.898 210.74C325.036 210.415 325.107 210.066 325.107 209.713C325.107 209.36 325.036 209.011 324.898 208.686C324.761 208.362 324.559 208.068 324.306 207.822C324.052 207.576 323.752 207.383 323.422 207.255C323.093 207.127 322.741 207.066 322.388 207.076C321.7 207.096 321.046 207.382 320.567 207.874C320.087 208.367 319.818 209.026 319.818 209.713C319.818 210.4 320.087 211.059 320.567 211.552C321.046 212.044 321.7 212.331 322.388 212.35Z" stroke="#252B4A"/>
<path d="M310.889 238.127C310.888 238.649 310.732 239.158 310.442 239.592C310.152 240.026 309.74 240.364 309.257 240.565C308.896 240.716 308.505 240.785 308.113 240.766C307.722 240.748 307.339 240.643 306.993 240.459C306.647 240.276 306.347 240.017 306.113 239.704C305.879 239.39 305.718 239.028 305.642 238.644C305.565 238.261 305.575 237.865 305.671 237.486C305.766 237.107 305.945 236.753 306.194 236.451C306.443 236.15 306.756 235.907 307.111 235.74C307.466 235.574 307.853 235.488 308.245 235.489C308.593 235.486 308.938 235.552 309.261 235.684C309.583 235.815 309.876 236.01 310.122 236.255C310.368 236.501 310.563 236.793 310.694 237.114C310.826 237.436 310.892 237.78 310.889 238.127Z" stroke="#252B4A"/>
<path d="M361.646 150.443C361.628 150.809 361.467 151.152 361.197 151.399C360.927 151.646 360.57 151.777 360.204 151.762C359.976 151.754 359.754 151.689 359.557 151.573C359.361 151.458 359.196 151.296 359.078 151.101C358.96 150.907 358.892 150.686 358.88 150.459C358.868 150.232 358.913 150.005 359.01 149.8C359.147 149.512 359.379 149.281 359.667 149.145C359.955 149.008 360.281 148.975 360.591 149.05C360.901 149.126 361.175 149.306 361.367 149.56C361.559 149.813 361.658 150.126 361.646 150.443Z" stroke="#252B4A"/>
<path d="M125.53 198.764V135.339" stroke="#252B4A" stroke-linecap="round" stroke-linejoin="round"/>
<path d="M125.53 212.63V199.723" stroke="#252B4A" stroke-linecap="round" stroke-linejoin="round"/>
<path d="M125.53 444.067V227.978" stroke="#252B4A" stroke-linecap="round" stroke-linejoin="round"/>
<path d="M131.419 224.382V444.069" stroke="#252B4A" stroke-linecap="round" stroke-linejoin="round"/>
<path d="M131.419 203.64V210.272" stroke="#252B4A" stroke-linecap="round" stroke-linejoin="round"/>
<path d="M131.419 135.339V199.124" stroke="#252B4A" stroke-linecap="round" stroke-linejoin="round"/>
<path d="M344.14 213.469C354.167 236.169 355.401 261.773 347.602 285.328C339.803 308.883 323.525 328.716 301.917 340.992" stroke="#252B4A" stroke-linecap="round" stroke-linejoin="round"/>
<path d="M166.671 201.562C179.213 181.169 198.655 165.927 221.482 158.592M330.931 191.662C320.22 178.202 306.218 167.717 290.271 161.215" stroke="#252B4A" stroke-linecap="round" stroke-linejoin="round"/>
<path d="M213.464 346.312C195.213 338.678 179.63 325.836 168.67 309.397C157.709 292.959 151.86 273.658 151.856 253.915C151.856 244.062 153.299 234.259 156.137 224.82" stroke="#252B4A" stroke-linecap="round" stroke-linejoin="round"/>
<path d="M269.147 352.667C263.604 353.831 257.938 354.301 252.278 354.065C249.537 354.065 246.781 353.956 244.067 353.739" stroke="#252B4A" stroke-linecap="round" stroke-linejoin="round"/>
<path d="M347.705 209.873C339.853 217.707 329.468 229.049 318.741 241.965C316.067 245.199 312.257 247.293 308.088 247.82C303.92 248.347 299.706 247.268 296.308 244.803C286.893 237.971 280.523 233.054 270.188 225.501" stroke="#252B4A" stroke-linecap="round" stroke-linejoin="round"/>
<path d="M244.062 188.08L247.313 183.456" stroke="#252B4A" stroke-linecap="round" stroke-linejoin="round"/>
<path d="M329.126 192.781C320.302 200.42 312.394 209.052 305.561 218.505C305.561 218.505 285.569 201.805 271.871 193.488C257.727 184.899 254.4 199.083 252.841 187.293C251.675 178.458 252.601 176.859 253.963 176.144C261.132 172.374 257.837 165.815 254.083 168.949C251.85 170.815 251.599 170.001 251.504 168.257C251.133 161.526 244.814 151.429 237.94 167.271C228.24 189.611 247.313 183.456 247.313 183.456" stroke="#252B4A" stroke-linecap="round" stroke-linejoin="round"/>
<path d="M244.188 184.106C244.426 187.531 243.865 193.049 240.464 192.247C231.735 190.19 227.998 191.557 223.037 195.403C213.168 203.055 193.111 214.385 193.111 214.385C181.215 207.233 172.601 204.156 161.505 199.399C155.628 205.879 152.213 214.209 151.856 222.941C167.671 229.695 173.731 233.568 186.109 239.605C188.881 240.966 191.952 241.609 195.039 241.477C198.126 241.344 201.13 240.439 203.775 238.846C211.553 234.142 218.876 229.815 226.849 225.618" stroke="#252B4A" stroke-linecap="round" stroke-linejoin="round"/>
<path d="M337.85 192.847C333.074 190.464 328.821 191.093 328.25 194.757C327.758 197.913 329.905 201.636 331.946 204.078C334.795 207.652 338.808 210.12 343.288 211.054C344.33 211.344 345.443 211.236 346.409 210.75C347.375 210.264 348.124 209.435 348.509 208.427" stroke="#252B4A" stroke-linecap="round" stroke-linejoin="round"/>
<path d="M224.358 208.873C225.226 222.073 228.612 234.987 234.334 246.92C246.564 250.158 256.487 249.398 268.867 245.641C267.893 236.392 269.115 227.045 272.433 218.354" stroke="#252B4A" stroke-linecap="round" stroke-linejoin="round"/>
<path d="M340.134 210.192C345.815 208.007 351.654 206.258 357.602 204.958C362.931 204.048 368.351 203.78 373.745 204.159C381.68 204.626 382.947 202.836 374.747 200.042C371.738 199.016 356.36 196.845 352.954 196.365C347.506 195.602 339.459 194.808 334.124 194.646C333.72 194.647 333.316 194.673 332.914 194.722" stroke="#252B4A" stroke-linecap="round" stroke-linejoin="round"/>
<path d="M328.236 196.477C328.35 196.405 346.838 189.535 354.195 186.169C362.733 182.257 360.435 185.282 358.242 187.888C356.631 189.802 348.667 195.082 352.953 196.361" stroke="#252B4A" stroke-linecap="round" stroke-linejoin="round"/>
<path d="M345.582 208.257C350.432 207.098 360.005 208.103 364.25 208.345C367.695 208.543 372.703 209.67 376.549 210.028C377.43 210.11 378.392 208.829 373.264 206.751C371.339 205.974 367.946 204.571 366.343 204.079" stroke="#252B4A" stroke-linecap="round" stroke-linejoin="round"/>
<path d="M345.378 208.344C349.367 208.358 353.342 208.79 357.241 209.631C360.404 210.351 365.705 212.347 369.098 213.268C369.941 213.498 371.101 212.389 366.413 209.471C365.82 209.094 365.219 208.729 364.611 208.377" stroke="#252B4A" stroke-linecap="round" stroke-linejoin="round"/>
<path d="M152.21 219.386C145.741 218.429 139.199 218.041 132.661 218.227C127.263 218.639 121.926 219.657 116.756 221.265C109.146 223.625 107.478 222.131 114.793 217.478C127.145 211.604 139.92 206.662 153.012 202.692C154.869 202.186 156.835 202.242 158.66 202.852" stroke="#252B4A" stroke-linecap="round" stroke-linejoin="round"/>
<path d="M135.262 208.753C139.11 206.475 130.02 203.284 128.014 201.811C125.292 199.808 122.289 197.436 131.54 199.173C139.288 200.747 147.131 201.814 155.019 202.366" stroke="#252B4A" stroke-linecap="round" stroke-linejoin="round"/>
<path d="M123.887 219.465C122.2 220.504 118.843 222.948 117.878 223.672C113.45 226.939 114.635 227.955 115.474 227.669C118.806 226.533 123.927 224.112 127.012 223.152C132.02 221.594 141.633 218.276 146.201 218.756" stroke="#252B4A" stroke-linecap="round" stroke-linejoin="round"/>
<path d="M126.732 223.222C126.051 223.902 125.53 224.461 125.209 224.741C121.363 228.658 122.719 229.487 123.487 229.057C126.548 227.339 131.221 224.19 134.144 222.747C137.715 221.065 141.428 219.7 145.239 218.67" stroke="#252B4A" stroke-linecap="round" stroke-linejoin="round"/>
<path d="M229.487 438.072C229.023 433.409 228.001 428.818 226.442 424.398C217.893 426.836 208.831 426.836 200.282 424.398C188.947 427.676 176.006 437.706 169.235 444.021C191.987 444.021 207.053 443.821 224.359 443.781C225.084 443.783 225.801 443.631 226.463 443.335C227.127 443.042 227.72 442.612 228.205 442.073C228.689 441.534 229.054 440.899 229.274 440.209C229.495 439.519 229.571 438.791 229.487 438.072Z" stroke="#252B4A" stroke-linecap="round" stroke-linejoin="round"/>
<path d="M240.143 361.851C240.407 373.01 231.486 395.138 226.438 424.445" stroke="#252B4A" stroke-linecap="round" stroke-linejoin="round"/>
<path d="M200.282 424.406L213.305 357.291" stroke="#252B4A" stroke-linecap="round" stroke-linejoin="round"/>
<path d="M257.287 312.464L241.544 361.62C231.17 363.442 220.485 361.545 211.378 356.265L234.334 246.963" stroke="#252B4A" stroke-linecap="round" stroke-linejoin="round"/>
<path d="M356.52 403.982L349.068 399.985C346.103 409.695 342.531 412.573 333.363 418.568C337.97 425.443 336.888 428.84 336.368 430.836C331.518 435.393 329.078 435.334 325.713 444.047H342.582C344.847 444.097 347.079 443.501 349.017 442.329C350.954 441.157 352.516 439.458 353.519 437.431C356.049 431.962 358.158 420.886 360.528 414.372C361.266 412.452 361.264 410.328 360.524 408.409C359.784 406.49 358.357 404.913 356.52 403.982Z" stroke="#252B4A" stroke-linecap="round" stroke-linejoin="round"/>
<path d="M333.403 418.57L285.131 366.656" stroke="#252B4A" stroke-linecap="round" stroke-linejoin="round"/>
<path d="M306.121 350.229C312.91 355.801 319.052 362.115 324.43 369.053C331.795 379.127 349.067 399.976 349.067 399.976" stroke="#252B4A" stroke-linecap="round" stroke-linejoin="round"/>
<path d="M247.312 274.577L265.742 344.716C267.141 350.039 269.999 354.869 273.995 358.663L283.178 367.384C292.964 364.238 301.336 357.773 306.843 349.111L298.552 335.437L293.303 282.124C291.376 262.267 279.494 248.574 268.867 245.636" stroke="#252B4A" stroke-linecap="round" stroke-linejoin="round"/>
<path d="M261.615 190.608C254.863 199.079 249.495 208.561 245.712 218.704C240.384 209.951 235.169 191.357 235.169 191.357" stroke="#252B4A" stroke-linecap="round" stroke-linejoin="round"/>
<path d="M84.3467 444.067H402.989" stroke="#252B4A" stroke-linecap="round" stroke-linejoin="round"/>
<path d="M364.891 114.918C349.028 111.92 333.894 121.228 331.153 135.701C330.221 140.771 330.879 146.002 333.038 150.685L326.188 161.876L339.168 159.238C343.527 163.407 349.013 166.214 354.951 167.311C370.814 170.309 385.948 161.001 388.689 146.53C391.451 132.062 380.796 117.915 364.891 114.918Z" stroke="#252B4A" stroke-linecap="round" stroke-linejoin="round"/>
<path d="M360.244 144.369C360.284 142.571 360.975 141.258 363.208 138.294C368.027 131.901 365.106 127.497 361.005 127.303C360.271 127.27 359.539 127.398 358.861 127.679C358.183 127.961 357.576 128.388 357.082 128.93C356.589 129.473 356.222 130.117 356.007 130.818C355.792 131.518 355.734 132.258 355.839 132.983" stroke="#252B4A" stroke-linecap="round" stroke-linejoin="round"/>
<path d="M342.857 338.081H351.511" stroke="#252B4A" stroke-linecap="round" stroke-linejoin="round"/>
<path d="M366.854 338.041H375.507" stroke="#252B4A" stroke-linecap="round" stroke-linejoin="round"/>
<path d="M359.183 321.773V330.407" stroke="#252B4A" stroke-linecap="round" stroke-linejoin="round"/>
<path d="M359.223 345.715V354.346" stroke="#252B4A" stroke-linecap="round" stroke-linejoin="round"/>
<path d="M347.625 326.569L353.755 332.644" stroke="#252B4A" stroke-linecap="round" stroke-linejoin="round"/>
<path d="M364.65 343.477L370.78 349.55" stroke="#252B4A" stroke-linecap="round" stroke-linejoin="round"/>
<path d="M370.74 326.53L364.61 332.645" stroke="#252B4A" stroke-linecap="round" stroke-linejoin="round"/>
<path d="M353.795 343.477L347.665 349.59" stroke="#252B4A" stroke-linecap="round" stroke-linejoin="round"/>
<path d="M84.5068 135.338C83.1912 135.336 81.8995 134.988 80.761 134.331C79.6225 133.673 78.6772 132.728 78.0199 131.592C77.3625 130.455 77.0162 129.166 77.0156 127.853C77.015 126.541 77.3602 125.251 78.0165 124.114L121.964 48.1347C122.625 46.9961 123.574 46.0508 124.716 45.3937C125.859 44.7365 127.155 44.3906 128.473 44.3906C129.792 44.3906 131.088 44.7365 132.23 45.3937C133.373 46.0508 134.322 46.9961 134.983 48.1347L178.93 124.114C179.589 125.251 179.936 126.542 179.936 127.855C179.937 129.169 179.591 130.459 178.933 131.597C178.276 132.735 177.329 133.681 176.19 134.338C175.05 134.996 173.757 135.343 172.44 135.345L84.5068 135.338Z" stroke="#252B4A" stroke-linecap="round" stroke-linejoin="round"/>
<path d="M190.988 91.4177C191.035 91.9423 190.978 92.4711 190.82 92.9737C190.663 93.4764 190.407 93.9432 190.069 94.3475C189.385 95.1639 188.405 95.676 187.343 95.7711C186.817 95.8182 186.287 95.7615 185.783 95.6043C185.279 95.447 184.811 95.1923 184.406 94.8547C183.588 94.1728 183.074 93.1945 182.979 92.1351C182.884 91.0756 183.214 90.0217 183.898 89.2053C184.581 88.3889 185.562 87.8768 186.624 87.7817C187.686 87.6866 188.742 88.0162 189.56 88.6981C190.379 89.38 190.892 90.3583 190.988 91.4177Z" stroke="#252B4A" stroke-linecap="round" stroke-linejoin="round"/>
<path d="M158.399 382.441V398.588" stroke="#252B4A" stroke-linecap="round" stroke-linejoin="round"/>
<path d="M166.511 390.515H150.287" stroke="#252B4A" stroke-linecap="round" stroke-linejoin="round"/>
<path d="M253.162 189.17C253.935 189.585 254.797 189.81 255.675 189.825C256.553 189.841 257.422 189.647 258.21 189.26C258.997 188.873 259.681 188.304 260.204 187.6C260.726 186.896 261.073 186.078 261.215 185.214C261.833 186.318 262.812 187.176 263.989 187.645C265.166 188.115 266.469 188.167 267.68 187.792C268.89 187.417 269.935 186.639 270.639 185.588C271.343 184.536 271.664 183.275 271.547 182.016C272.531 182.722 273.721 183.084 274.933 183.047C276.144 183.01 277.31 182.576 278.249 181.812C279.188 181.047 279.849 179.996 280.129 178.819C280.409 177.643 280.293 176.407 279.798 175.304C281.044 175.65 282.372 175.547 283.55 175.013C284.727 174.479 285.678 173.548 286.236 172.384C286.737 171.329 286.891 170.143 286.678 168.995C286.464 167.848 285.893 166.796 285.046 165.991C286.489 165.951 287.857 165.345 288.854 164.305C289.852 163.265 290.398 161.875 290.375 160.436C290.354 159.273 289.968 158.145 289.271 157.213C288.573 156.281 287.6 155.591 286.489 155.24C287.648 154.9 288.665 154.195 289.388 153.229C290.11 152.263 290.499 151.089 290.495 149.884C290.476 148.479 289.917 147.136 288.932 146.132C287.948 145.128 286.614 144.54 285.207 144.49C286.038 143.741 286.621 142.756 286.877 141.668C287.134 140.579 287.051 139.439 286.64 138.398C286.232 137.357 285.516 136.465 284.588 135.839C283.659 135.214 282.561 134.886 281.441 134.898C280.993 134.908 280.549 134.975 280.119 135.098C280.636 134.002 280.777 132.767 280.52 131.584C280.262 130.4 279.621 129.334 278.695 128.551C277.769 127.768 276.609 127.312 275.397 127.252C274.184 127.193 272.986 127.534 271.988 128.223C272.128 126.968 271.831 125.703 271.146 124.64C270.462 123.577 269.432 122.782 268.229 122.387C267.026 121.992 265.724 122.023 264.541 122.472C263.358 122.922 262.366 123.765 261.731 124.858C260.837 118.713 251.437 118.57 250.474 124.818C250.007 123.997 249.336 123.31 248.526 122.822C247.716 122.334 246.794 122.062 245.849 122.033C244.903 122.003 243.966 122.216 243.126 122.652C242.287 123.088 241.575 123.731 241.057 124.521C240.363 125.577 240.053 126.839 240.179 128.095C239.187 127.399 237.992 127.048 236.78 127.096C235.567 127.144 234.404 127.589 233.47 128.361C232.536 129.134 231.883 130.192 231.611 131.372C231.339 132.551 231.464 133.788 231.966 134.89C230.775 134.568 229.511 134.654 228.374 135.133C227.237 135.612 226.294 136.457 225.695 137.533C225.096 138.609 224.875 139.855 225.068 141.071C225.26 142.286 225.855 143.403 226.758 144.242C225.451 144.282 224.202 144.785 223.233 145.661C222.264 146.537 221.639 147.728 221.471 149.021C221.302 150.315 221.6 151.626 222.312 152.72C223.024 153.814 224.103 154.619 225.356 154.991C224.101 155.354 223.017 156.151 222.297 157.239C221.577 158.327 221.27 159.635 221.429 160.929C221.588 162.222 222.203 163.417 223.165 164.3C224.127 165.182 225.372 165.693 226.678 165.743C225.772 166.577 225.172 167.69 224.974 168.904C224.776 170.118 224.992 171.363 225.587 172.44C226.183 173.517 227.123 174.364 228.257 174.846C229.392 175.327 230.656 175.415 231.846 175.095C231.429 175.972 231.254 176.944 231.338 177.911C231.422 178.878 231.763 179.805 232.325 180.598C232.887 181.39 233.65 182.019 234.536 182.42C235.422 182.82 236.399 182.979 237.367 182.879" stroke="#252B4A" stroke-linecap="round" stroke-linejoin="round"/>
<path d="M298.311 358.982L287.854 346.552" stroke="#252B4A" stroke-linecap="round" stroke-linejoin="round"/>
<path d="M230.047 361.819L234.334 346.312" stroke="#252B4A" stroke-linecap="round" stroke-linejoin="round"/>
<path d="M261.615 259.549C267.344 266.461 273.714 269.379 280.563 269.299" stroke="#252B4A" stroke-linecap="round" stroke-linejoin="round"/>
<path d="M125.688 113.19C125.688 113.926 125.982 114.633 126.504 115.153C127.026 115.674 127.734 115.967 128.472 115.967C129.21 115.967 129.918 115.674 130.44 115.153C130.962 114.633 131.255 113.926 131.255 113.19C131.255 112.453 130.962 111.747 130.44 111.226C129.918 110.706 129.21 110.413 128.472 110.413C127.734 110.413 127.026 110.706 126.504 111.226C125.982 111.747 125.688 112.453 125.688 113.19Z" stroke="#252B4A"/>
<path d="M128.432 73.6152V100.512" stroke="#252B4A" stroke-linecap="round"/>
<mask id="path-84-outside-1_800_42199" maskUnits="userSpaceOnUse" x="214" y="42" width="160" height="63" fill="black">
<rect fill="white" x="214" y="42" width="160" height="63"/>
<path d="M215.835 91.7727V82.0852L240.125 43.8182H248.477V57.2273H243.534L228.222 81.4602V81.9148H262.739V91.7727H215.835ZM243.761 102V88.8182L243.989 84.5284V43.8182H255.523V102H243.761ZM293.747 103.278C288.861 103.259 284.656 102.057 281.134 99.6705C277.63 97.2841 274.931 93.8277 273.037 89.3011C271.162 84.7746 270.234 79.3295 270.253 72.9659C270.253 66.6212 271.19 61.214 273.065 56.7443C274.959 52.2746 277.658 48.875 281.162 46.5455C284.685 44.197 288.88 43.0227 293.747 43.0227C298.615 43.0227 302.8 44.197 306.304 46.5455C309.827 48.8939 312.535 52.303 314.429 56.7727C316.323 61.2235 317.26 66.6212 317.241 72.9659C317.241 79.3485 316.295 84.803 314.401 89.3295C312.526 93.8561 309.836 97.3125 306.332 99.6989C302.829 102.085 298.634 103.278 293.747 103.278ZM293.747 93.0795C297.08 93.0795 299.741 91.4034 301.73 88.0511C303.719 84.6989 304.704 79.6705 304.685 72.9659C304.685 68.553 304.23 64.8788 303.321 61.9432C302.431 59.0076 301.162 56.8011 299.514 55.3239C297.885 53.8466 295.963 53.108 293.747 53.108C290.433 53.108 287.781 54.7652 285.793 58.0795C283.804 61.3939 282.8 66.3561 282.781 72.9659C282.781 77.4356 283.226 81.1667 284.116 84.1591C285.026 87.1326 286.304 89.3674 287.952 90.8636C289.599 92.3409 291.531 93.0795 293.747 93.0795ZM325.132 91.7727V82.0852L349.422 43.8182H357.774V57.2273H352.831L337.518 81.4602V81.9148H372.036V91.7727H325.132ZM353.058 102V88.8182L353.286 84.5284V43.8182H364.82V102H353.058Z"/>
</mask>
<path d="M215.835 91.7727V82.0852L240.125 43.8182H248.477V57.2273H243.534L228.222 81.4602V81.9148H262.739V91.7727H215.835ZM243.761 102V88.8182L243.989 84.5284V43.8182H255.523V102H243.761ZM293.747 103.278C288.861 103.259 284.656 102.057 281.134 99.6705C277.63 97.2841 274.931 93.8277 273.037 89.3011C271.162 84.7746 270.234 79.3295 270.253 72.9659C270.253 66.6212 271.19 61.214 273.065 56.7443C274.959 52.2746 277.658 48.875 281.162 46.5455C284.685 44.197 288.88 43.0227 293.747 43.0227C298.615 43.0227 302.8 44.197 306.304 46.5455C309.827 48.8939 312.535 52.303 314.429 56.7727C316.323 61.2235 317.26 66.6212 317.241 72.9659C317.241 79.3485 316.295 84.803 314.401 89.3295C312.526 93.8561 309.836 97.3125 306.332 99.6989C302.829 102.085 298.634 103.278 293.747 103.278ZM293.747 93.0795C297.08 93.0795 299.741 91.4034 301.73 88.0511C303.719 84.6989 304.704 79.6705 304.685 72.9659C304.685 68.553 304.23 64.8788 303.321 61.9432C302.431 59.0076 301.162 56.8011 299.514 55.3239C297.885 53.8466 295.963 53.108 293.747 53.108C290.433 53.108 287.781 54.7652 285.793 58.0795C283.804 61.3939 282.8 66.3561 282.781 72.9659C282.781 77.4356 283.226 81.1667 284.116 84.1591C285.026 87.1326 286.304 89.3674 287.952 90.8636C289.599 92.3409 291.531 93.0795 293.747 93.0795ZM325.132 91.7727V82.0852L349.422 43.8182H357.774V57.2273H352.831L337.518 81.4602V81.9148H372.036V91.7727H325.132ZM353.058 102V88.8182L353.286 84.5284V43.8182H364.82V102H353.058Z" fill="#4F56B2"/>
<path d="M215.835 91.7727H214.835V92.7727H215.835V91.7727ZM215.835 82.0852L214.991 81.5493L214.835 81.7947V82.0852H215.835ZM240.125 43.8182V42.8182H239.575L239.281 43.2823L240.125 43.8182ZM248.477 43.8182H249.477V42.8182H248.477V43.8182ZM248.477 57.2273V58.2273H249.477V57.2273H248.477ZM243.534 57.2273V56.2273H242.983L242.689 56.6931L243.534 57.2273ZM228.222 81.4602L227.376 80.926L227.222 81.1708V81.4602H228.222ZM228.222 81.9148H227.222V82.9148H228.222V81.9148ZM262.739 81.9148H263.739V80.9148H262.739V81.9148ZM262.739 91.7727V92.7727H263.739V91.7727H262.739ZM243.761 102H242.761V103H243.761V102ZM243.761 88.8182L242.763 88.7653L242.761 88.7917V88.8182H243.761ZM243.989 84.5284L244.987 84.5813L244.989 84.5549V84.5284H243.989ZM243.989 43.8182V42.8182H242.989V43.8182H243.989ZM255.523 43.8182H256.523V42.8182H255.523V43.8182ZM255.523 102V103H256.523V102H255.523ZM216.835 91.7727V82.0852H214.835V91.7727H216.835ZM216.68 82.6211L240.969 44.3541L239.281 43.2823L214.991 81.5493L216.68 82.6211ZM240.125 44.8182H248.477V42.8182H240.125V44.8182ZM247.477 43.8182V57.2273H249.477V43.8182H247.477ZM248.477 56.2273H243.534V58.2273H248.477V56.2273ZM242.689 56.6931L227.376 80.926L229.067 81.9944L244.379 57.7614L242.689 56.6931ZM227.222 81.4602V81.9148H229.222V81.4602H227.222ZM228.222 82.9148H262.739V80.9148H228.222V82.9148ZM261.739 81.9148V91.7727H263.739V81.9148H261.739ZM262.739 90.7727H215.835V92.7727H262.739V90.7727ZM244.761 102V88.8182H242.761V102H244.761ZM244.76 88.8711L244.987 84.5813L242.99 84.4755L242.763 88.7653L244.76 88.8711ZM244.989 84.5284V43.8182H242.989V84.5284H244.989ZM243.989 44.8182H255.523V42.8182H243.989V44.8182ZM254.523 43.8182V102H256.523V43.8182H254.523ZM255.523 101H243.761V103H255.523V101ZM293.747 103.278L293.743 104.278H293.747V103.278ZM281.134 99.6705L280.571 100.497L280.573 100.498L281.134 99.6705ZM273.037 89.3011L272.113 89.6838L272.114 89.6871L273.037 89.3011ZM270.253 72.9659L271.253 72.9689V72.9659H270.253ZM273.065 56.7443L272.145 56.3542L272.143 56.3575L273.065 56.7443ZM281.162 46.5455L281.716 47.3782L281.717 47.3775L281.162 46.5455ZM306.304 46.5455L305.747 47.3761L305.749 47.3775L306.304 46.5455ZM314.429 56.7727L313.508 57.1629L313.509 57.1643L314.429 56.7727ZM317.241 72.9659L316.241 72.9629V72.9659H317.241ZM314.401 89.3295L313.478 88.9436L313.477 88.9469L314.401 89.3295ZM306.332 99.6989L306.895 100.525L306.332 99.6989ZM301.73 88.0511L302.59 88.5613L301.73 88.0511ZM304.685 72.9659H303.685L303.685 72.9687L304.685 72.9659ZM303.321 61.9432L302.364 62.2334L302.366 62.239L303.321 61.9432ZM299.514 55.3239L298.842 56.0646L298.847 56.0684L299.514 55.3239ZM285.793 58.0795L284.935 57.565L285.793 58.0795ZM282.781 72.9659L281.781 72.963V72.9659H282.781ZM284.116 84.1591L283.158 84.4442L283.16 84.4515L284.116 84.1591ZM287.952 90.8636L287.279 91.604L287.284 91.6082L287.952 90.8636ZM293.751 102.278C289.033 102.26 285.029 101.102 281.694 98.8425L280.573 100.498C284.283 103.012 288.689 104.259 293.743 104.278L293.751 102.278ZM281.696 98.8439C278.377 96.5829 275.791 93.2919 273.959 88.9151L272.114 89.6871C274.071 94.3634 276.883 97.9853 280.571 100.497L281.696 98.8439ZM273.961 88.9184C272.149 84.5448 271.234 79.2379 271.253 72.9689L269.253 72.9629C269.234 79.4212 270.175 85.0045 272.113 89.6838L273.961 88.9184ZM271.253 72.9659C271.253 66.715 272.177 61.4468 273.987 57.1311L272.143 56.3575C270.204 60.9812 269.253 66.5274 269.253 72.9659H271.253ZM273.986 57.1345C275.816 52.8166 278.399 49.5834 281.716 47.3782L280.608 45.7127C276.917 48.1666 274.103 51.7326 272.145 56.3542L273.986 57.1345ZM281.717 47.3775C285.052 45.1542 289.047 44.0227 293.747 44.0227V42.0227C288.713 42.0227 284.318 43.2397 280.607 45.7134L281.717 47.3775ZM293.747 44.0227C298.448 44.0227 302.432 45.1543 305.747 47.3761L306.861 45.7148C303.168 43.2396 298.781 42.0227 293.747 42.0227V44.0227ZM305.749 47.3775C309.087 49.6024 311.679 52.846 313.508 57.1629L315.35 56.3826C313.391 51.7601 310.567 48.1855 306.859 45.7134L305.749 47.3775ZM313.509 57.1643C315.336 61.4579 316.26 66.7136 316.241 72.9629L318.241 72.9689C318.261 66.5289 317.31 60.989 315.349 56.3812L313.509 57.1643ZM316.241 72.9659C316.241 79.254 315.308 84.5701 313.478 88.9436L315.323 89.7155C317.281 85.036 318.241 79.443 318.241 72.9659H316.241ZM313.477 88.9469C311.664 93.3222 309.088 96.6119 305.769 98.8724L306.895 100.525C310.584 98.0131 313.387 94.39 315.324 89.7122L313.477 88.9469ZM305.769 98.8724C302.456 101.129 298.464 102.278 293.747 102.278V104.278C298.803 104.278 303.201 103.041 306.895 100.525L305.769 98.8724ZM293.747 94.0795C297.499 94.0795 300.458 92.1564 302.59 88.5613L300.87 87.5409C299.025 90.6505 296.662 92.0795 293.747 92.0795V94.0795ZM302.59 88.5613C304.715 84.9786 305.704 79.7341 305.685 72.9631L303.685 72.9687C303.703 79.6068 302.722 84.4191 300.87 87.5409L302.59 88.5613ZM305.685 72.9659C305.685 68.4925 305.225 64.7105 304.276 61.6474L302.366 62.239C303.235 65.0471 303.685 68.6136 303.685 72.9659H305.685ZM304.278 61.653C303.354 58.6071 302.009 56.2171 300.182 54.5793L298.847 56.0684C300.315 57.3852 301.507 59.4081 302.364 62.2334L304.278 61.653ZM300.186 54.5831C298.372 52.9376 296.209 52.108 293.747 52.108V54.108C295.717 54.108 297.399 54.7556 298.842 56.0646L300.186 54.5831ZM293.747 52.108C290.018 52.108 287.069 54.0087 284.935 57.565L286.65 58.594C288.494 55.5216 290.848 54.108 293.747 54.108V52.108ZM284.935 57.565C282.809 61.1082 281.8 66.2855 281.781 72.963L283.781 72.9688C283.8 66.4266 284.799 61.6797 286.65 58.594L284.935 57.565ZM281.781 72.9659C281.781 77.4943 282.231 81.3288 283.158 84.4442L285.075 83.874C284.221 81.0045 283.781 77.377 283.781 72.9659H281.781ZM283.16 84.4515C284.102 87.5319 285.456 89.9479 287.279 91.604L288.624 90.1233C287.152 88.7869 285.949 86.7332 285.073 83.8667L283.16 84.4515ZM287.284 91.6082C289.116 93.2502 291.285 94.0795 293.747 94.0795V92.0795C291.777 92.0795 290.083 91.4316 288.619 90.1191L287.284 91.6082ZM325.132 91.7727H324.132V92.7727H325.132V91.7727ZM325.132 82.0852L324.288 81.5493L324.132 81.7947V82.0852H325.132ZM349.422 43.8182V42.8182H348.872L348.578 43.2823L349.422 43.8182ZM357.774 43.8182H358.774V42.8182H357.774V43.8182ZM357.774 57.2273V58.2273H358.774V57.2273H357.774ZM352.831 57.2273V56.2273H352.28L351.986 56.6931L352.831 57.2273ZM337.518 81.4602L336.673 80.926L336.518 81.1708V81.4602H337.518ZM337.518 81.9148H336.518V82.9148H337.518V81.9148ZM372.036 81.9148H373.036V80.9148H372.036V81.9148ZM372.036 91.7727V92.7727H373.036V91.7727H372.036ZM353.058 102H352.058V103H353.058V102ZM353.058 88.8182L352.06 88.7653L352.058 88.7917V88.8182H353.058ZM353.286 84.5284L354.284 84.5813L354.286 84.5549V84.5284H353.286ZM353.286 43.8182V42.8182H352.286V43.8182H353.286ZM364.82 43.8182H365.82V42.8182H364.82V43.8182ZM364.82 102V103H365.82V102H364.82ZM326.132 91.7727V82.0852H324.132V91.7727H326.132ZM325.976 82.6211L350.266 44.3541L348.578 43.2823L324.288 81.5493L325.976 82.6211ZM349.422 44.8182H357.774V42.8182H349.422V44.8182ZM356.774 43.8182V57.2273H358.774V43.8182H356.774ZM357.774 56.2273H352.831V58.2273H357.774V56.2273ZM351.986 56.6931L336.673 80.926L338.364 81.9944L353.676 57.7614L351.986 56.6931ZM336.518 81.4602V81.9148H338.518V81.4602H336.518ZM337.518 82.9148H372.036V80.9148H337.518V82.9148ZM371.036 81.9148V91.7727H373.036V81.9148H371.036ZM372.036 90.7727H325.132V92.7727H372.036V90.7727ZM354.058 102V88.8182H352.058V102H354.058ZM354.057 88.8711L354.284 84.5813L352.287 84.4755L352.06 88.7653L354.057 88.8711ZM354.286 84.5284V43.8182H352.286V84.5284H354.286ZM353.286 44.8182H364.82V42.8182H353.286V44.8182ZM363.82 43.8182V102H365.82V43.8182H363.82ZM364.82 101H353.058V103H364.82V101Z" fill="#252B4A" mask="url(#path-84-outside-1_800_42199)"/>
</svg>
