<svg width="480" height="462" viewBox="0 0 480 462" fill="none" xmlns="http://www.w3.org/2000/svg">
<path d="M306.623 246.33C299.81 250.536 278.206 253.32 269.026 253.832H310.429C309.339 251.244 308.067 248.737 306.623 246.33Z" fill="#F7F7FF"/>
<path d="M313.408 263.297H177.665L127.753 367.129C130.121 369.226 132.638 371.149 135.283 372.882L127.807 388.653C138.547 391.608 149.861 391.777 160.684 389.142L163.437 382.707C166.182 382.977 168.94 383.093 171.698 383.053L191.246 347.207L185.369 376.962C188.01 378.267 190.727 379.414 193.504 380.395L191.337 389.136C201.122 391.937 211.496 391.937 221.284 389.136L222.204 385.019C224.848 385.006 227.492 384.893 230.128 384.678L251.666 297.375L258.176 298.354L303.477 294.712C312.791 287.081 316.849 277.597 313.408 263.297Z" fill="#F7F7FF"/>
<path d="M141.37 176.701C141.207 178.695 140.467 180.598 139.242 182.177C138.016 183.757 136.358 184.945 134.47 185.596C132.582 186.247 130.545 186.333 128.609 185.843C126.673 185.353 124.921 184.309 123.568 182.838C122.214 181.367 121.318 179.533 120.988 177.56C120.657 175.587 120.908 173.56 121.708 171.727C122.509 169.894 123.825 168.334 125.496 167.239C127.167 166.143 129.12 165.558 131.117 165.557C133.951 165.673 136.623 166.912 138.546 169.001C140.469 171.091 141.485 173.861 141.37 176.701Z" fill="#F7F7FF"/>
<path d="M137.301 160.883C135.656 162.099 133.646 162.714 131.604 162.622C131.804 160.585 132.707 158.682 134.154 157.24C135.798 156.024 137.809 155.41 139.851 155.501C139.651 157.537 138.749 159.44 137.301 160.883Z" fill="#F7F7FF"/>
<path d="M256.603 149.91C256.511 151.338 256.223 152.747 255.746 154.096L260.954 149.203C259.539 149.62 258.077 149.857 256.603 149.91Z" fill="#4F56B2"/>
<path d="M277.326 195.996V221.328C278.737 221.111 280.147 220.893 281.558 220.621C280.804 212.313 279.389 204.079 277.326 195.996Z" fill="#4F56B2"/>
<path d="M245.698 233.56L239.08 231.113C238.312 230.453 237.57 229.764 236.855 229.048C238.597 221.492 243.257 224.318 245.698 233.56Z" fill="#4F56B2"/>
<path d="M195.134 140.058V208.77C195.133 211.278 194.138 213.683 192.368 215.457C190.598 217.23 188.197 218.227 185.694 218.229H182.114C184.617 218.227 187.017 217.23 188.787 215.457C190.557 213.683 191.552 211.278 191.554 208.77V140.058C191.552 137.55 190.557 135.145 188.787 133.372C187.017 131.598 184.617 130.601 182.114 130.6H185.694C188.197 130.601 190.598 131.598 192.368 133.372C194.138 135.145 195.133 137.55 195.134 140.058Z" fill="#4F56B2"/>
<path d="M160.901 251.445H153.848C152.717 251.455 151.623 251.043 150.779 250.29C149.934 249.536 149.4 248.495 149.279 247.368L146.307 218.291H142.726L146.687 254.495H163.885C163.893 254.097 163.822 253.702 163.676 253.332C163.529 252.962 163.311 252.625 163.033 252.341C162.755 252.057 162.423 251.832 162.057 251.678C161.691 251.524 161.298 251.445 160.901 251.445Z" fill="#4F56B2"/>
<path d="M281.396 130.275C282.036 129.504 282.38 128.529 282.367 127.525C282.353 126.522 281.983 125.557 281.322 124.803C280.661 124.049 279.754 123.557 278.763 123.414C277.772 123.271 276.762 123.487 275.916 124.024C276.377 123.197 276.546 122.239 276.395 121.304C276.244 120.369 275.783 119.513 275.085 118.874C274.39 118.234 273.5 117.847 272.558 117.776C271.617 117.704 270.678 117.952 269.894 118.479C272.424 113.915 265.171 110.016 262.47 114.402C260.8 119.354 258.713 124.155 256.231 128.753C263.176 119.025 267.841 129.351 267.407 135.439C267.461 136.635 268.058 136.961 270.011 135.548C274.026 132.613 276.901 139.462 269.415 142.832C267.107 147.279 266.435 152.398 267.516 157.292C267.462 156.531 266.593 141.365 283.683 138.212C284.568 138.024 285.362 137.539 285.933 136.837C286.504 136.135 286.819 135.258 286.824 134.352C286.831 133.69 286.682 133.037 286.389 132.443C286.096 131.85 285.668 131.335 285.139 130.939C284.611 130.541 283.997 130.274 283.347 130.159C282.696 130.044 282.028 130.083 281.396 130.275Z" fill="#4F56B2"/>
<path d="M264.252 174.958C264.252 175.478 264.046 175.976 263.679 176.344C263.312 176.711 262.815 176.918 262.296 176.918C261.777 176.918 261.28 176.711 260.913 176.344C260.546 175.976 260.34 175.478 260.34 174.958C260.34 174.438 260.546 173.94 260.913 173.572C261.28 173.205 261.777 172.998 262.296 172.998C262.815 172.998 263.312 173.205 263.679 173.572C264.046 173.94 264.252 174.438 264.252 174.958Z" fill="#4F56B2"/>
<path d="M245.48 193.059C245.48 193.579 245.274 194.078 244.907 194.445C244.541 194.813 244.043 195.019 243.524 195.019C243.006 195.019 242.508 194.813 242.141 194.445C241.775 194.078 241.568 193.579 241.568 193.059C241.568 192.54 241.775 192.041 242.141 191.674C242.508 191.306 243.006 191.1 243.524 191.1C244.043 191.1 244.541 191.306 244.907 191.674C245.274 192.041 245.48 192.54 245.48 193.059Z" fill="#4F56B2"/>
<path d="M260.074 213.556C260.074 214.075 259.868 214.574 259.501 214.941C259.134 215.309 258.637 215.515 258.118 215.515C257.599 215.515 257.102 215.309 256.735 214.941C256.368 214.574 256.162 214.075 256.162 213.556C256.162 213.036 256.368 212.537 256.735 212.17C257.102 211.802 257.599 211.596 258.118 211.596C258.637 211.596 259.134 211.802 259.501 212.17C259.868 212.537 260.074 213.036 260.074 213.556Z" fill="#4F56B2"/>
<path d="M367.375 219.699H347.844C347.153 219.699 346.491 219.974 346.002 220.463C345.514 220.953 345.24 221.617 345.24 222.309V251.228C345.24 251.92 345.514 252.584 346.002 253.073C346.491 253.563 347.153 253.838 347.844 253.838H367.375C368.063 253.829 368.72 253.551 369.206 253.064C369.693 252.576 369.97 251.918 369.979 251.228V222.297C369.974 221.608 369.697 220.948 369.21 220.462C368.722 219.976 368.063 219.701 367.375 219.699Z" fill="#4F56B2"/>
<path d="M364.519 82.1016L338.098 89.3315C337.627 89.4605 337.197 89.7111 336.853 90.0582C336.508 90.4053 336.26 90.8369 336.134 91.3099C336.008 91.7829 336.007 92.2808 336.133 92.754C336.259 93.2271 336.506 93.659 336.85 94.0065L360.613 117.599C360.871 117.859 361.179 118.065 361.517 118.206C361.855 118.347 362.218 118.419 362.584 118.419C362.951 118.419 363.314 118.347 363.652 118.206C363.99 118.065 364.298 117.859 364.556 117.599C364.902 117.252 365.151 116.821 365.279 116.349L372.331 89.3859L364.519 82.1016Z" fill="#4F56B2"/>
<path d="M382.825 71.0418C381.867 70.0989 380.575 69.5754 379.233 69.5861C377.89 69.5968 376.607 70.1409 375.664 71.099L364.651 82.2401L372.075 89.1439L382.871 78.2174C383.802 77.2531 384.318 75.9617 384.31 74.6203C384.301 73.2788 383.768 71.9941 382.825 71.0418Z" fill="#4F56B2"/>
<path d="M149.834 34.6077C149.833 35.065 149.742 35.5175 149.566 35.9396C149.39 36.3616 149.133 36.7448 148.81 37.0673C148.486 37.3898 148.103 37.6454 147.681 37.8193C147.259 37.9933 146.807 38.0822 146.35 38.0811C145.894 38.08 145.442 37.9888 145.021 37.8128C144.6 37.6367 144.217 37.3793 143.896 37.0552C143.574 36.7311 143.319 36.3466 143.145 35.9237C142.971 35.5008 142.883 35.0478 142.884 34.5906C142.886 33.6671 143.254 32.7824 143.908 32.131C144.561 31.4796 145.446 31.1149 146.367 31.1172C147.289 31.1195 148.172 31.4885 148.822 32.1431C149.472 32.7977 149.836 33.6843 149.834 34.6077Z" fill="#4F56B2"/>
<path d="M221.284 389.141C211.496 391.942 201.125 391.942 191.337 389.141C182.168 391.804 164.156 404.633 164.156 404.633H224.756C224.183 399.355 223.018 394.158 221.284 389.141Z" fill="#4F56B2"/>
<path d="M160.684 389.14C149.862 391.775 138.546 391.606 127.807 388.65C117.974 391.88 109.023 397.351 101.657 404.632H164.102C163.341 399.392 162.199 394.214 160.684 389.14Z" fill="#4F56B2"/>
<path d="M268.918 297.486L258.176 298.356L251.665 297.377L253.022 291.887L268.918 297.486Z" fill="#4F56B2"/>
<path d="M456.795 253.834H35.0359C33.7841 253.834 32.5835 254.332 31.6984 255.219C30.8132 256.106 30.3159 257.309 30.3159 258.563C30.3159 259.818 30.8132 261.021 31.6984 261.908C32.5835 262.794 33.7841 263.293 35.0359 263.293H92.8376L66.231 410.882C66.1854 411.151 66.1682 411.426 66.1768 411.697H75.7252L102.463 263.293H389.467L416.214 411.752H425.762C425.708 411.48 425.708 411.208 425.654 410.893L399.05 263.304H456.795C458.018 263.262 459.177 262.745 460.027 261.862C460.878 260.98 461.353 259.801 461.353 258.575C461.353 257.348 460.878 256.17 460.027 255.287C459.177 254.405 458.018 253.888 456.795 253.845V253.834Z" fill="#4F56B2"/>
<path d="M149.833 34.6077C149.832 35.065 149.741 35.5175 149.565 35.9396C149.39 36.3616 149.133 36.7448 148.809 37.0673C148.486 37.3898 148.102 37.6454 147.68 37.8193C147.258 37.9933 146.806 38.0822 146.35 38.0811C145.893 38.08 145.442 37.9888 145.02 37.8128C144.599 37.6367 144.217 37.3793 143.895 37.0552C143.573 36.7311 143.318 36.3466 143.144 35.9237C142.971 35.5008 142.882 35.0478 142.883 34.5906C142.885 33.6671 143.254 32.7824 143.907 32.131C144.56 31.4796 145.445 31.1149 146.367 31.1172C147.288 31.1195 148.171 31.4885 148.821 32.1431C149.472 32.7977 149.836 33.6843 149.833 34.6077Z" stroke="#252B4A"/>
<path d="M382.825 71.0418C381.867 70.0989 380.575 69.5754 379.233 69.5861C377.89 69.5968 376.607 70.1409 375.664 71.099L364.651 82.2401L372.075 89.1439L382.871 78.2174C383.802 77.2531 384.318 75.9617 384.31 74.6203C384.301 73.2788 383.768 71.9941 382.825 71.0418Z" stroke="#252B4A" stroke-linejoin="round"/>
<path d="M456.795 253.834H35.0359C33.7841 253.834 32.5835 254.332 31.6984 255.219C30.8132 256.106 30.3159 257.309 30.3159 258.563C30.3159 259.818 30.8132 261.021 31.6984 261.908C32.5835 262.794 33.7841 263.293 35.0359 263.293H92.8376L66.231 410.882C66.1854 411.151 66.1682 411.426 66.1768 411.697H75.7252L102.463 263.293H389.467L416.214 411.752H425.762C425.708 411.48 425.708 411.208 425.654 410.893L399.05 263.304H456.795C458.018 263.262 459.177 262.745 460.027 261.862C460.878 260.98 461.353 259.801 461.353 258.575C461.353 257.348 460.878 256.17 460.027 255.287C459.177 254.405 458.018 253.888 456.795 253.845V253.834Z" stroke="#252B4A" stroke-linejoin="round"/>
<path d="M233.383 246.445C231.131 249.501 228.035 251.83 224.478 253.144C220.92 254.458 217.057 254.699 213.364 253.838" stroke="#252B4A" stroke-linecap="round" stroke-linejoin="round"/>
<path d="M110.675 237.31C110.675 237.31 84.2938 234.866 80.6589 253.835" stroke="#252B4A" stroke-linecap="round" stroke-linejoin="round"/>
<path d="M120.05 241.549C119.236 241.114 118.579 240.691 117.934 240.299C114.867 238.442 113.756 237.2 111.044 235.406C108.435 233.673 106.016 231.669 103.828 229.427C97.8032 223.232 99.8134 222.142 106.595 226.219C106.636 226.225 106.674 226.244 106.703 226.274C111.206 229.007 115.903 231.406 120.755 233.452" stroke="#252B4A" stroke-linecap="round" stroke-linejoin="round"/>
<path d="M117.933 240.301C112.006 237.674 105.899 235.475 99.6589 233.72C94.3992 232.238 95.3187 231.051 96.1867 230.894C99.3915 230.65 102.614 230.777 105.789 231.274" stroke="#252B4A" stroke-linecap="round" stroke-linejoin="round"/>
<path d="M119.072 251.444C117.974 251.298 116.87 251.207 115.763 251.172C106.383 250.829 109.69 248.737 112.942 247.802C114.627 247.318 117.391 246.769 119.615 246.008" stroke="#252B4A" stroke-linecap="round" stroke-linejoin="round"/>
<path d="M321.977 303.033L337.439 411.755" stroke="#252B4A" stroke-linecap="round" stroke-linejoin="round"/>
<path d="M338.74 224.1L313.35 222.252" stroke="#252B4A" stroke-linecap="round" stroke-linejoin="round"/>
<path d="M222.204 385.021L221.284 389.139" stroke="#252B4A" stroke-linecap="round" stroke-linejoin="round"/>
<path d="M191.283 389.139L193.505 380.398" stroke="#252B4A" stroke-linecap="round" stroke-linejoin="round"/>
<path d="M163.451 382.67L160.684 389.139" stroke="#252B4A" stroke-linecap="round" stroke-linejoin="round"/>
<path d="M127.753 388.706L135.283 372.881" stroke="#252B4A" stroke-linecap="round" stroke-linejoin="round"/>
<path d="M191.283 347.065L171.698 383.051C155.55 383.607 139.81 377.904 127.753 367.127L177.665 263.295" stroke="#252B4A" stroke-linecap="round" stroke-linejoin="round"/>
<path d="M214.557 384.804L234.576 289.713C234.867 288.324 235.431 287.007 236.234 285.838C237.037 284.669 238.064 283.671 239.255 282.902C240.446 282.134 241.778 281.61 243.172 281.36C244.567 281.111 245.997 281.142 247.379 281.45C264.223 285.224 295.89 288.692 299.076 263.42" stroke="#252B4A" stroke-linecap="round" stroke-linejoin="round"/>
<path d="M144.003 229.607L205.497 219.593C215.642 204.143 227.692 168.357 245.155 163.384C248.018 162.652 250.627 161.148 252.696 159.035" stroke="#252B4A" stroke-linecap="round" stroke-linejoin="round"/>
<path d="M256.603 149.909C258.041 149.857 259.469 149.646 260.86 149.279L255.72 154.095" stroke="#252B4A" stroke-linecap="round" stroke-linejoin="round"/>
<path d="M268.376 159.465C269.215 161.01 270.612 162.177 272.282 162.727C280.96 165.972 289.002 170.717 296.045 176.746C304.08 184.133 311.178 211.202 314.273 229.041C315.022 233.234 314.164 237.556 311.871 241.144C309.578 244.731 306.018 247.32 301.904 248.393C291.171 251.38 280.149 253.203 269.027 253.829" stroke="#252B4A" stroke-linecap="round" stroke-linejoin="round"/>
<path d="M287.743 219.371C271.996 222.414 256.031 224.196 240.001 224.698" stroke="#252B4A" stroke-linecap="round" stroke-linejoin="round"/>
<path d="M281.504 220.577C280.799 212.262 279.383 204.023 277.273 195.951V221.338" stroke="#252B4A" stroke-linecap="round" stroke-linejoin="round"/>
<path d="M153.36 228.066C158.302 235.659 160.057 244.898 158.242 253.779" stroke="#252B4A" stroke-linecap="round" stroke-linejoin="round"/>
<path d="M220.416 232.092C216.239 233.94 205.551 236.987 199.8 238.833C197.088 239.691 201.916 242.801 218.3 238.071" stroke="#252B4A" stroke-linecap="round" stroke-linejoin="round"/>
<path d="M221.229 236.33C217.269 238.831 211.521 241.709 206.31 244.484C203.869 245.786 206.093 248.616 220.524 242.636" stroke="#252B4A" stroke-linecap="round" stroke-linejoin="round"/>
<path d="M222.369 240.299C220.085 243.126 218.106 245.866 214.286 249.975C212.507 251.889 215.773 253.051 227.849 244.539C230.076 242.968 231.275 244.691 234.196 247.148C238.06 250.396 240.653 254.161 243.474 253.78" stroke="#252B4A" stroke-linecap="round" stroke-linejoin="round"/>
<path d="M229.422 227.635C225.082 217.621 227.903 217.049 229.422 219.589C231.997 223.754 235.115 227.555 238.694 230.893" stroke="#252B4A" stroke-linecap="round" stroke-linejoin="round"/>
<path d="M236.855 229.047C238.209 223.154 241.347 223.577 243.82 228.435C246.675 234.054 249.279 253.836 243.311 253.836" stroke="#252B4A" stroke-linecap="round" stroke-linejoin="round"/>
<path d="M245.498 233.485C239.116 231.099 228.876 226.928 226.112 226.928C225.082 226.928 213.309 230.361 207.612 231.929C203.869 232.965 202.081 234.696 208.155 234.484C210.705 234.395 213.526 234.049 216.076 233.723" stroke="#252B4A" stroke-linecap="round" stroke-linejoin="round"/>
<path d="M233.601 191.109C231.246 202.621 231.394 214.505 234.035 225.955" stroke="#252B4A" stroke-linecap="round" stroke-linejoin="round"/>
<path d="M146.687 253.781H118.801L122.274 218.283H142.781L146.687 253.781Z" stroke="#252B4A" stroke-linecap="round" stroke-linejoin="round"/>
<path d="M141.37 176.699C141.207 178.693 140.467 180.596 139.241 182.176C138.016 183.755 136.358 184.943 134.47 185.594C132.582 186.245 130.545 186.331 128.609 185.841C126.673 185.351 124.921 184.307 123.568 182.836C122.214 181.365 121.318 179.531 120.987 177.558C120.657 175.585 120.908 173.558 121.708 171.725C122.509 169.892 123.825 168.332 125.496 167.237C127.167 166.141 129.12 165.556 131.116 165.555C133.951 165.671 136.623 166.91 138.546 169C140.469 171.089 141.485 173.859 141.37 176.699Z" stroke="#252B4A" stroke-linecap="round" stroke-linejoin="round"/>
<path d="M137.301 160.879C135.657 162.095 133.647 162.71 131.605 162.618C131.805 160.581 132.707 158.679 134.155 157.237C135.799 156.02 137.81 155.406 139.851 155.497C139.651 157.533 138.75 159.436 137.301 160.879Z" stroke="#252B4A" stroke-linecap="round" stroke-linejoin="round"/>
<path d="M256.223 128.806C258.699 124.205 260.786 119.405 262.462 114.455C262.848 113.888 263.364 113.421 263.967 113.093C264.569 112.766 265.241 112.587 265.926 112.571C266.612 112.556 267.291 112.705 267.907 113.005C268.524 113.305 269.06 113.748 269.472 114.298C270.02 115.033 270.32 115.929 270.328 116.847C270.323 117.436 270.174 118.014 269.894 118.532C270.679 118.007 271.616 117.762 272.556 117.835C273.496 117.908 274.385 118.295 275.079 118.934C275.773 119.574 276.233 120.428 276.385 121.361C276.537 122.293 276.372 123.25 275.916 124.077C276.762 123.54 277.772 123.324 278.763 123.467C279.754 123.61 280.661 124.103 281.322 124.856C281.983 125.61 282.353 126.576 282.367 127.579C282.38 128.582 282.036 129.557 281.396 130.328C281.918 130.161 282.468 130.1 283.013 130.15C283.559 130.199 284.089 130.357 284.573 130.614C285.056 130.872 285.484 131.224 285.83 131.649C286.176 132.075 286.433 132.565 286.587 133.092C286.814 133.887 286.798 134.732 286.54 135.518C286.283 136.303 285.796 136.993 285.142 137.498C284.707 137.832 284.21 138.074 283.68 138.211C279.06 138.712 274.807 140.971 271.799 144.521C268.791 148.07 267.257 152.641 267.513 157.291" stroke="#252B4A" stroke-linecap="round" stroke-linejoin="round"/>
<path d="M268.376 159.466L267.345 167.62L259.044 161.043L249.659 165.772L252.697 159.031" stroke="#252B4A" stroke-linecap="round" stroke-linejoin="round"/>
<path d="M259.044 161.041C252.209 178.328 249.767 200.018 249.659 224.154" stroke="#252B4A" stroke-linecap="round" stroke-linejoin="round"/>
<path d="M369.99 228.992C372.049 228.992 374.022 229.81 375.476 231.27C376.197 231.991 376.77 232.847 377.16 233.79C377.551 234.734 377.752 235.745 377.752 236.766C377.752 237.787 377.551 238.798 377.16 239.741C376.77 240.684 376.197 241.541 375.476 242.262C374.022 243.721 372.049 244.539 369.99 244.539" stroke="#252B4A" stroke-linecap="round" stroke-linejoin="round"/>
<path d="M441.116 156.855C441.117 157.562 440.961 158.262 440.659 158.901C440.358 159.541 439.918 160.106 439.372 160.555C438.827 161.004 438.188 161.326 437.503 161.498C436.818 161.669 436.103 161.686 435.41 161.547C434.717 161.41 434.063 161.121 433.495 160.7C432.928 160.278 432.46 159.736 432.127 159.112C431.794 158.488 431.604 157.797 431.569 157.09C431.535 156.383 431.658 155.677 431.93 155.024C432.293 154.151 432.906 153.404 433.691 152.88C434.476 152.355 435.399 152.075 436.343 152.074C437.287 152.074 438.21 152.354 438.996 152.878C439.782 153.402 440.395 154.148 440.759 155.021C440.998 155.602 441.118 156.225 441.116 156.855Z" stroke="#252B4A" stroke-linecap="round" stroke-linejoin="round"/>
<path d="M402.759 240.027L436.341 161.639" stroke="#252B4A" stroke-linecap="round" stroke-linejoin="round"/>
<path d="M436.341 152.07L387.405 97.0566" stroke="#252B4A" stroke-linecap="round" stroke-linejoin="round"/>
<path d="M381.546 93.3098L373.245 87.9824" stroke="#252B4A" stroke-linecap="round" stroke-linejoin="round"/>
<path d="M353.715 110.757C352.834 111.447 351.793 111.9 350.689 112.074C349.585 112.247 348.455 112.135 347.407 111.749C346.358 111.362 345.425 110.714 344.697 109.865C343.968 109.016 343.468 107.995 343.244 106.898C343.054 105.972 343.067 105.016 343.283 104.096C343.498 103.177 343.911 102.315 344.492 101.57" stroke="#252B4A" stroke-linecap="round" stroke-linejoin="round"/>
<path d="M388.218 94.8304C388.22 95.3533 388.105 95.87 387.883 96.343C387.66 96.816 387.335 97.2335 386.932 97.5652C386.528 97.8969 386.056 98.1345 385.55 98.2607C385.043 98.387 384.515 98.3988 384.004 98.2952C383.14 98.1297 382.37 97.6467 381.843 96.941C381.317 96.2354 381.073 95.358 381.159 94.4813C381.245 93.6045 381.655 92.7918 382.309 92.2026C382.963 91.6134 383.813 91.2904 384.692 91.297C385.623 91.3103 386.512 91.6868 387.171 92.3466C387.829 93.0064 388.205 93.8974 388.218 94.8304Z" stroke="#252B4A" stroke-linecap="round" stroke-linejoin="round"/>
<path d="M406.231 243.561C406.232 244.084 406.117 244.601 405.895 245.074C405.672 245.547 405.348 245.964 404.944 246.296C404.541 246.628 404.069 246.865 403.562 246.991C403.056 247.118 402.528 247.129 402.016 247.026C401.332 246.891 400.703 246.554 400.211 246.059C399.844 245.689 399.562 245.242 399.387 244.75C399.212 244.259 399.148 243.734 399.199 243.215C399.25 242.695 399.415 242.193 399.682 241.745C399.95 241.297 400.313 240.914 400.745 240.623C401.423 240.166 402.238 239.96 403.051 240.04C403.864 240.12 404.623 240.481 405.2 241.061C405.527 241.389 405.787 241.779 405.964 242.208C406.141 242.637 406.231 243.097 406.231 243.561Z" stroke="#252B4A" stroke-linecap="round" stroke-linejoin="round"/>
<path d="M258.176 310.48L251.665 411.754" stroke="#252B4A" stroke-linecap="round" stroke-linejoin="round"/>
<path d="M151.895 82.6548H119.561V50.2559H151.895V82.6548Z" stroke="#252B4A" stroke-linecap="round" stroke-linejoin="round"/>
<path d="M135.728 57.6476L145.168 37.6973" stroke="#252B4A" stroke-linecap="round" stroke-linejoin="round"/>
<path d="M42.6849 316.104H18" stroke="#252B4A" stroke-linecap="round" stroke-linejoin="round"/>
<path d="M30.3159 328.474V303.74" stroke="#252B4A" stroke-linecap="round" stroke-linejoin="round"/>
<path d="M442.091 300.424C442.189 301.485 442.05 302.555 441.684 303.555C441.319 304.556 440.737 305.463 439.979 306.211C439.222 306.959 438.308 307.529 437.304 307.88C436.3 308.231 435.231 308.354 434.173 308.241C432.759 308.089 431.422 307.522 430.329 306.61C429.237 305.698 428.438 304.482 428.034 303.116C427.734 302.095 427.664 301.019 427.828 299.967C427.992 298.914 428.387 297.912 428.984 297.03C429.581 296.149 430.366 295.412 431.281 294.871C432.197 294.329 433.221 293.998 434.279 293.901C435.699 293.754 437.13 294.04 438.385 294.72C439.641 295.4 440.663 296.444 441.318 297.715C441.752 298.556 442.014 299.477 442.091 300.424Z" stroke="#252B4A" stroke-linecap="round" stroke-linejoin="round"/>
<path d="M164.156 404.633H224.756" stroke="#252B4A" stroke-linecap="round" stroke-linejoin="round"/>
<path d="M101.603 404.633H164.047" stroke="#252B4A" stroke-linecap="round" stroke-linejoin="round"/>
<path d="M164.153 404.546C163.579 399.295 162.415 394.125 160.684 389.136C149.862 391.771 138.546 391.602 127.807 388.646C114.936 393.026 103.597 401.029 95.1472 411.698C120.212 411.698 136.867 411.753 155.747 411.698" stroke="#252B4A" stroke-linecap="round" stroke-linejoin="round"/>
<path d="M221.284 389.141C211.496 391.942 201.125 391.942 191.336 389.141C177.825 393.066 160.535 406.902 155.747 411.7C184.392 411.7 202.404 411.428 224.919 411.428C225.117 403.836 223.884 396.275 221.284 389.141Z" stroke="#252B4A" stroke-linecap="round" stroke-linejoin="round"/>
<path d="M251.665 297.377L253.022 291.887L268.918 297.486" stroke="#252B4A" stroke-linecap="round" stroke-linejoin="round"/>
<path d="M251.665 297.379L258.176 298.358L316.76 293.562" stroke="#252B4A" stroke-linecap="round" stroke-linejoin="round"/>
<path d="M324.31 294.115L305.864 292.756" stroke="#252B4A" stroke-linecap="round" stroke-linejoin="round"/>
<path d="M153.902 381.04L199.8 303.902" stroke="#252B4A" stroke-linecap="round" stroke-linejoin="round"/>
<path d="M254.053 223.828C258.935 231.058 260.183 241.06 257.688 253.835" stroke="#252B4A" stroke-linecap="round" stroke-linejoin="round"/>
<path d="M248.681 309.391L258.175 310.478L317.567 305.531C318.814 305.434 319.999 304.946 320.953 304.136C321.908 303.326 322.583 302.236 322.884 301.019L348.546 176.37C348.971 174.353 348.724 172.252 347.842 170.39C346.959 168.528 345.491 167.007 343.663 166.062C342.452 165.432 341.12 165.073 339.757 165.009L270.219 161.639" stroke="#252B4A" stroke-linecap="round" stroke-linejoin="round"/>
<path d="M226.167 261.664C220.61 262.737 215.5 265.446 211.489 269.446C207.478 273.445 204.749 278.553 203.652 284.115L185.378 376.963C199.317 383.573 214.793 386.244 230.136 384.688C230.136 384.419 246.751 317.278 251.674 297.385" stroke="#252B4A" stroke-linecap="round" stroke-linejoin="round"/>
<path d="M182.114 130.6C184.617 130.601 187.018 131.598 188.788 133.372C190.558 135.145 191.553 137.55 191.554 140.058V208.825C191.554 211.334 190.56 213.74 188.79 215.515C187.019 217.29 184.618 218.288 182.114 218.289H88.3117C85.8062 218.288 83.4033 217.291 81.6292 215.519C79.8552 213.746 78.8544 211.341 78.8461 208.83V140.058C78.8438 138.817 79.0859 137.587 79.5584 136.44C80.031 135.292 80.7247 134.25 81.5999 133.371C82.4751 132.492 83.5146 131.796 84.659 131.32C85.8033 130.844 87.03 130.6 88.2689 130.6H182.114Z" stroke="#252B4A" stroke-linecap="round" stroke-linejoin="round"/>
<path d="M195.134 140.058V208.77C195.133 211.278 194.138 213.683 192.368 215.457C190.598 217.23 188.197 218.227 185.694 218.229H182.114C184.617 218.227 187.017 217.23 188.787 215.457C190.557 213.683 191.552 211.278 191.554 208.77V140.058C191.552 137.55 190.557 135.145 188.787 133.372C187.017 131.598 184.617 130.601 182.114 130.6H185.694C188.197 130.601 190.598 131.598 192.368 133.372C194.138 135.145 195.133 137.55 195.134 140.058Z" stroke="#252B4A" stroke-linecap="round" stroke-linejoin="round"/>
<path d="M270.006 135.603C274.003 132.651 276.859 139.474 269.409 142.888C268.372 143.363 265.177 153.814 268.378 159.482C263.267 161.167 257.094 162.171 252.699 159.047C255.02 156.548 256.4 153.317 256.602 149.909C242.497 150.126 255.951 128.762 256.223 128.762C263.118 119.101 267.767 129.266 267.407 135.32C267.302 137.108 268.552 136.671 270.006 135.603Z" stroke="#252B4A" stroke-linecap="round" stroke-linejoin="round"/>
<path d="M303.767 294.537C307.371 291.831 310.249 288.271 312.142 284.177C314.036 280.082 314.887 275.581 314.618 271.076C314.421 268.503 314.046 265.947 313.496 263.426" stroke="#252B4A" stroke-linecap="round" stroke-linejoin="round"/>
<path d="M306.624 246.328C308.093 248.728 309.377 251.237 310.464 253.833" stroke="#252B4A" stroke-linecap="round" stroke-linejoin="round"/>
<path d="M369.99 251.226C369.99 251.918 369.715 252.582 369.227 253.071C368.739 253.561 368.076 253.835 367.386 253.835H347.855C347.164 253.835 346.502 253.561 346.013 253.071C345.525 252.582 345.251 251.918 345.251 251.226V222.295C345.251 221.603 345.525 220.939 346.013 220.45C346.502 219.96 347.164 219.686 347.855 219.686H367.374C368.065 219.686 368.727 219.961 369.215 220.451C369.703 220.94 369.978 221.603 369.978 222.295L369.99 251.226Z" stroke="#252B4A" stroke-linecap="round" stroke-linejoin="round"/>
<path d="M427.281 247.039C427.495 247.045 427.698 247.125 427.852 247.262C427.925 247.328 427.985 247.408 428.027 247.498C428.068 247.587 428.092 247.684 428.095 247.783V253.085C428.092 253.183 428.068 253.28 428.027 253.37C427.985 253.459 427.925 253.54 427.852 253.605C427.694 253.745 427.491 253.824 427.281 253.828H378.182C377.972 253.824 377.77 253.745 377.611 253.605C377.538 253.54 377.478 253.459 377.436 253.37C377.395 253.28 377.371 253.183 377.368 253.085V247.783C377.371 247.684 377.395 247.587 377.436 247.498C377.478 247.408 377.538 247.328 377.611 247.262C377.77 247.123 377.972 247.044 378.182 247.039H427.281Z" stroke="#252B4A" stroke-linecap="round" stroke-linejoin="round"/>
<path d="M258.176 310.48V298.357" stroke="#252B4A" stroke-linecap="round" stroke-linejoin="round"/>
<path d="M364.519 82.1016L338.098 89.3315C337.627 89.4605 337.197 89.7111 336.853 90.0582C336.508 90.4053 336.26 90.8369 336.134 91.3099C336.008 91.7829 336.007 92.2808 336.133 92.754C336.259 93.2271 336.506 93.659 336.85 94.0065L360.613 117.599C360.871 117.859 361.179 118.065 361.517 118.206C361.855 118.347 362.218 118.419 362.584 118.419C362.951 118.419 363.314 118.347 363.652 118.206C363.99 118.065 364.298 117.859 364.556 117.599C364.902 117.252 365.151 116.821 365.279 116.349L372.331 89.3859L364.519 82.1016Z" stroke="#252B4A" stroke-linejoin="round"/>
</svg>
