<svg width="480" height="462" viewBox="0 0 480 462" fill="none" xmlns="http://www.w3.org/2000/svg">
<g clip-path="url(#clip0_6317_26995)">
<path d="M152.877 127.225C154.173 118.797 161.305 110.092 167.973 105.878C168.668 105.416 169.361 104.998 170.056 104.582C185.152 115.038 212.752 131.949 245.168 137.09C247.667 137.506 250.724 136.903 252.623 138.617C258.595 143.942 259.799 162.558 274.57 162.974C276.61 168.163 278.461 173.162 280.452 177.422C278.038 174.04 260.392 177.247 255.91 178.256C251.514 179.229 232.55 184.396 233.358 188.445C230.024 181.264 231.32 173.996 233.496 166.4C207.055 161.308 170.426 142.6 152.877 127.225Z" fill="#F7F7FF"/>
<path d="M384.133 205.342C388.836 209.863 394.773 212.887 401.195 214.033C407.617 215.179 414.235 214.395 420.211 211.779C426.187 209.164 431.253 204.836 434.769 199.341C438.285 193.846 440.093 187.433 439.964 180.911C439.835 174.389 437.774 168.051 434.043 162.7C430.312 157.349 425.078 153.225 419.003 150.848C412.928 148.472 406.285 147.95 399.914 149.35C393.542 150.749 387.729 154.006 383.209 158.71C380.204 161.831 377.845 165.513 376.266 169.547C374.686 173.581 373.917 177.886 374.003 182.217C374.089 186.549 375.028 190.82 376.766 194.788C378.504 198.756 381.007 202.343 384.133 205.342Z" fill="#F7F7FF"/>
<path d="M29.7019 334.967C26.3682 323.436 15.2535 326.955 9.14048 320.008C8.02925 330.614 13.865 341.265 24.4229 341.773L29.7019 334.967Z" fill="#F7F7FF"/>
<path d="M281.006 357.783C285.22 360.238 293.091 355.144 301.704 345.418C301.553 348.775 300.601 352.046 298.927 354.959C293.091 365.887 293.368 392.839 286.886 390.947C285.079 390.39 282.949 381.221 281.05 370.711C280.067 365.633 278.768 360.622 277.16 355.706C277.964 356.117 280.199 357.245 281.006 357.783Z" fill="#4F56B2"/>
<path d="M254.049 125.562C253.199 128.035 251.947 130.35 250.343 132.415C246.271 131.814 241.743 130.579 240.899 128.711C240.753 128.395 240.627 128.072 240.527 127.739C241.592 131.119 247.751 128.85 254.049 125.562Z" fill="#4F56B2"/>
<path d="M248.587 100.687C256.784 92.0741 283.502 98.8339 301.608 111.94C319.806 125.09 314.573 137.408 291.004 131.76C292.392 132.176 307.49 136.713 317.352 148.051C331.847 164.722 319.251 171.112 303.006 167.779C283.605 163.796 266.934 147.867 261.285 136.844C258.691 130.35 256.931 123.553 256.048 116.616C262.807 111.106 258.686 106.104 254.982 109.902C252.991 111.94 250.769 110.967 253.222 104.31C250.749 102.776 247.78 102.284 248.587 100.687Z" fill="#4F56B2"/>
<path d="M186.768 369.915C187.624 358.919 187.5 347.87 186.398 336.896C195.184 339.377 204.504 339.232 213.209 336.48C213.024 344.169 215.431 348.057 213.44 352.828C212.244 355.502 210.547 357.922 208.441 359.957C199.733 368.757 192.278 394.687 186.583 390.984C185.008 389.961 185.611 380.565 186.768 369.915Z" fill="#4F56B2"/>
<path d="M273.869 175.941C274.285 178.091 274.939 180.187 275.814 182.193C283.362 178.441 281.601 175.988 273.869 175.941Z" fill="#4F56B2"/>
<path d="M233.302 188.386C233.489 189.266 234.739 189.823 236.823 190.088C236.035 188.653 235.339 187.355 234.739 186.059C233.674 186.958 233.166 187.746 233.302 188.386Z" fill="#4F56B2"/>
<path d="M212.557 259.428L217.421 273.366C217.605 267.949 217.79 262.623 217.885 257.391L212.557 259.428Z" fill="#4F56B2"/>
<path d="M378.862 357.829C391.297 336.543 407.798 318.414 415.594 321.417C426.144 325.482 411.83 358.085 403.621 372.324C389.821 396.219 373.151 412.426 366.196 408.686C356.088 403.054 372.601 368.545 378.862 357.829Z" fill="#4F56B2"/>
<path d="M293.364 307.677C307.071 283.967 323.695 267.945 330.55 271.933C337.448 275.914 331.892 298.328 318.232 322.036C304.571 345.744 287.9 361.721 281.048 357.78C274.147 353.799 279.703 331.385 293.364 307.677Z" fill="#4F56B2"/>
<path d="M277.16 355.702C278.763 360.619 280.063 365.63 281.05 370.707C282.927 381.221 285.074 390.403 286.886 390.943C293.356 392.888 293.113 365.898 298.927 354.956C300.605 352.044 301.557 348.771 301.704 345.414" stroke="#252B4A" stroke-linecap="round" stroke-linejoin="round"/>
<path d="M116.889 181.449C117.812 179.953 119.053 178.679 120.524 177.717C121.995 176.755 123.659 176.127 125.399 175.88C127.139 175.632 128.913 175.77 130.593 176.284C132.274 176.798 133.821 177.676 135.125 178.854C135.643 177.096 136.558 175.48 137.8 174.132C139.042 172.784 140.578 171.74 142.289 171.08C144.753 170.13 147.462 170.024 149.993 170.78C152.523 171.535 154.731 173.11 156.27 175.255C157.201 176.543 157.868 178.001 158.233 179.547C159.67 178.464 161.333 177.72 163.098 177.37C164.863 177.02 166.685 177.073 168.427 177.525C170.169 177.977 171.786 178.816 173.158 179.981C174.53 181.145 175.621 182.605 176.35 184.25C177.324 186.451 177.611 188.896 177.172 191.263C178.735 190.853 180.364 190.762 181.962 190.992C183.561 191.223 185.097 191.772 186.48 192.607C188.041 193.565 189.361 194.869 190.338 196.418C191.315 197.967 191.923 199.719 192.116 201.541C192.308 203.362 192.08 205.203 191.448 206.922C190.816 208.641 189.798 210.191 188.472 211.454C190.92 212.418 192.983 214.162 194.34 216.416C195.697 218.67 196.272 221.309 195.978 223.923C195.786 225.657 195.214 227.328 194.307 228.818C193.04 230.913 191.147 232.558 188.896 233.522C186.645 234.485 184.149 234.719 181.758 234.19L117.115 194.555C115.488 193.575 113.511 186.903 116.889 181.449Z" stroke="#252B4A" stroke-linecap="round" stroke-linejoin="round"/>
<path d="M165.929 199.824C164.789 200.9 163.946 202.25 163.479 203.745C163.012 205.241 162.938 206.831 163.263 208.364C163.588 209.896 164.302 211.319 165.336 212.496C166.37 213.673 167.69 214.565 169.167 215.085C171.148 215.78 173.308 215.771 175.283 215.06" stroke="#252B4A" stroke-linecap="round" stroke-linejoin="round"/>
<path d="M137.127 191.688C137.385 193.56 138.215 195.307 139.503 196.69C140.791 198.073 142.475 199.025 144.325 199.415C146.174 199.805 148.099 199.614 149.836 198.869C151.573 198.124 153.037 196.861 154.029 195.252C154.449 194.557 154.776 193.81 155.002 193.03" stroke="#252B4A" stroke-linecap="round" stroke-linejoin="round"/>
<path d="M135.135 178.859C136.379 180.034 137.413 181.413 138.191 182.937" stroke="#252B4A" stroke-linecap="round" stroke-linejoin="round"/>
<path d="M184.261 210.676C185.697 210.748 187.118 211.011 188.484 211.459" stroke="#252B4A" stroke-linecap="round" stroke-linejoin="round"/>
<path d="M158.244 179.559C158.547 181.068 158.597 182.617 158.392 184.142" stroke="#252B4A" stroke-linecap="round" stroke-linejoin="round"/>
<path d="M172.598 193.409C173.987 192.425 175.541 191.698 177.186 191.262" stroke="#252B4A" stroke-linecap="round" stroke-linejoin="round"/>
<path d="M100.407 208.207C103.843 202.549 110.933 201.54 112.168 202.467L176.86 242.152C178.711 243.263 181.252 249.987 177.738 255.672C176.823 257.157 175.595 258.424 174.139 259.385C172.684 260.346 171.036 260.978 169.31 261.235C167.584 261.491 165.823 261.365 164.151 260.866C162.479 260.367 160.936 259.507 159.633 258.347C158.89 260.897 157.316 263.127 155.161 264.681C153.006 266.235 150.394 267.024 147.739 266.922C145.084 266.821 142.54 265.836 140.509 264.122C138.479 262.409 137.079 260.066 136.533 257.466C134.621 258.93 132.311 259.782 129.907 259.91C127.502 260.039 125.115 259.438 123.058 258.187C121 256.935 119.369 255.092 118.377 252.898C117.386 250.703 117.08 248.261 117.501 245.89C114.935 246.538 112.227 246.316 109.8 245.259C107.374 244.203 105.367 242.371 104.093 240.051C102.821 237.73 102.357 235.052 102.772 232.437C103.188 229.823 104.46 227.421 106.389 225.608C104.747 224.984 103.262 224.007 102.04 222.746C100.817 221.485 99.8872 219.971 99.3151 218.311C98.7451 216.65 98.5475 214.883 98.7362 213.138C98.9249 211.392 99.4952 209.708 100.407 208.207Z" stroke="#252B4A" stroke-linecap="round" stroke-linejoin="round"/>
<path d="M139.074 243.637C139.431 242.432 140.031 241.314 140.838 240.351C141.646 239.388 142.642 238.602 143.767 238.041C144.891 237.48 146.119 237.157 147.373 237.091C148.628 237.025 149.883 237.218 151.06 237.658C152.633 238.247 154.013 239.259 155.05 240.581C156.063 241.887 156.718 243.435 156.949 245.072" stroke="#252B4A" stroke-linecap="round" stroke-linejoin="round"/>
<path d="M118.744 221.694C120.725 221.013 122.88 221.03 124.849 221.742C126.819 222.454 128.486 223.819 129.574 225.609C130.661 227.399 131.103 229.508 130.826 231.584C130.549 233.661 129.571 235.58 128.053 237.023" stroke="#252B4A" stroke-linecap="round" stroke-linejoin="round"/>
<path d="M106.382 225.625C108.013 226.228 109.737 226.541 111.476 226.551" stroke="#252B4A" stroke-linecap="round" stroke-linejoin="round"/>
<path d="M157.069 255.016C157.762 256.251 158.625 257.382 159.632 258.378" stroke="#252B4A" stroke-linecap="round" stroke-linejoin="round"/>
<path d="M117.492 245.905C118.982 245.477 120.393 244.809 121.667 243.926" stroke="#252B4A" stroke-linecap="round" stroke-linejoin="round"/>
<path d="M136.394 252.523C136.174 254.173 136.218 255.848 136.526 257.484" stroke="#252B4A" stroke-linecap="round" stroke-linejoin="round"/>
<path d="M176.861 242.152L183.759 246.318" stroke="#252B4A" stroke-linecap="round" stroke-linejoin="round"/>
<path d="M181.769 234.191L188.577 238.313" stroke="#252B4A" stroke-linecap="round" stroke-linejoin="round"/>
<path d="M217.655 266.926L291.19 311.565" stroke="#252B4A" stroke-linecap="round" stroke-linejoin="round"/>
<path d="M219.137 256.887L295.868 303.519" stroke="#252B4A" stroke-linecap="round" stroke-linejoin="round"/>
<path d="M153.845 128.057C137.376 126.533 120.818 129.8 106.162 137.464C91.5057 145.129 79.3762 156.865 71.2327 171.261C46.6349 213.534 59.5198 268.13 99.9909 293.187C125.306 308.861 132.331 300.574 181.49 314.585" stroke="#252B4A" stroke-linecap="round" stroke-linejoin="round"/>
<path d="M280.521 357.418C258.033 345.69 237.937 335.439 217.239 326.984" stroke="#252B4A" stroke-linecap="round" stroke-linejoin="round"/>
<path d="M277.947 232.484C293.551 244.988 310.64 257.167 330.598 271.893" stroke="#252B4A" stroke-linecap="round" stroke-linejoin="round"/>
<path d="M210.894 159.773C220.599 174.363 231.487 188.133 243.448 200.94" stroke="#252B4A" stroke-linecap="round" stroke-linejoin="round"/>
<path d="M170.097 104.628C162.272 109.027 154.307 118.058 152.872 127.225C170.423 142.6 207.05 161.308 233.491 166.4C231.314 173.996 230.018 181.267 233.352 188.445C232.545 184.401 251.232 179.299 255.905 178.256C260.467 177.238 278.052 174.072 280.447 177.422C278.455 173.162 276.603 168.16 274.565 162.974C259.793 162.558 258.614 143.915 252.618 138.617C250.728 136.949 247.754 137.508 245.162 137.09C212.766 131.821 185.146 115.048 170.051 104.582L170.097 104.628Z" stroke="#252B4A" stroke-linecap="round" stroke-linejoin="round"/>
<path d="M277.8 185.658C264.543 185.447 251.487 188.914 240.081 195.676" stroke="#252B4A" stroke-linecap="round" stroke-linejoin="round"/>
<path d="M240.744 128.222C242.254 130.862 248.09 128.664 254.052 125.547C253.202 128.019 251.95 130.335 250.346 132.399" stroke="#252B4A" stroke-linecap="round" stroke-linejoin="round"/>
<path d="M246.882 137.258C250.109 136.466 249.246 134.895 250.35 132.407C241.645 131.121 240.137 129.519 240.494 125.156C241.017 118.82 244.738 105.013 248.592 100.688" stroke="#252B4A" stroke-linecap="round" stroke-linejoin="round"/>
<path d="M233.489 166.398C236.176 166.909 238.768 167.279 241.178 167.512" stroke="#252B4A" stroke-linecap="round" stroke-linejoin="round"/>
<path d="M253.221 104.297C250.768 110.965 252.978 111.937 254.982 109.89C258.687 106.094 262.806 111.106 256.047 116.603C256.928 123.543 258.686 130.342 261.279 136.839C266.928 147.861 283.599 163.791 303 167.773C319.255 171.107 331.851 164.717 317.347 148.046C307.484 136.7 292.386 132.163 290.998 131.755C314.567 137.403 319.795 125.092 301.602 111.935C283.492 98.8359 256.778 92.0688 248.582 100.681C247.799 102.267 250.841 102.826 253.221 104.297Z" stroke="#252B4A" stroke-linecap="round" stroke-linejoin="round"/>
<path d="M274.565 162.98C272.12 156.363 268.968 150.028 265.165 144.086C263.661 141.837 262.375 139.45 261.323 136.957" stroke="#252B4A" stroke-linecap="round" stroke-linejoin="round"/>
<path d="M243.379 200.865C240.168 196.136 237.276 191.199 234.721 186.086" stroke="#252B4A" stroke-linecap="round" stroke-linejoin="round"/>
<path d="M142.774 102.356C135.783 100.688 130.028 103.839 130.504 106.524C130.612 107.062 130.832 107.572 131.151 108.018C131.47 108.465 131.88 108.839 132.355 109.116" stroke="#252B4A" stroke-linecap="round" stroke-linejoin="round"/>
<path d="M143.425 98.0988C136.062 96.3383 128.745 100.044 131.894 103.935" stroke="#252B4A" stroke-linecap="round" stroke-linejoin="round"/>
<path d="M153.662 123.894C149.305 118.92 143.714 115.183 137.453 113.059" stroke="#252B4A" stroke-linecap="round" stroke-linejoin="round"/>
<path d="M143.055 107.367C136.247 105.978 131.763 108.663 132.033 111.304C132.366 114.545 138.841 119.454 144.305 116.305" stroke="#252B4A" stroke-linecap="round" stroke-linejoin="round"/>
<path d="M148.8 95.6393C148.708 95.5469 145.882 91.6126 147.132 90.3603C148.197 89.2953 163.572 101.937 167.878 105.966" stroke="#252B4A" stroke-linecap="round" stroke-linejoin="round"/>
<path d="M139.951 97.6284C127.725 91.7488 124.443 84.6559 126.753 85.9568C134.462 89.8156 142.377 93.2477 150.463 96.2375C156.721 98.6185 162.601 101.895 167.919 105.964" stroke="#252B4A" stroke-linecap="round" stroke-linejoin="round"/>
<path d="M186.401 336.9C187.493 347.874 187.616 358.923 186.77 369.918C185.591 380.566 185.012 389.967 186.586 390.988C192.285 394.686 199.753 368.778 208.443 359.961C210.553 357.929 212.25 355.508 213.442 352.832C215.439 348.054 213.019 344.158 213.214 336.445" stroke="#252B4A" stroke-linecap="round" stroke-linejoin="round"/>
<path d="M293.366 307.683C279.689 331.381 274.145 353.812 281.05 357.773C287.898 361.717 304.573 345.735 318.234 322.029C331.894 298.324 337.446 275.924 330.552 271.934C323.659 267.944 307.056 283.963 293.366 307.683Z" stroke="#252B4A" stroke-linecap="round" stroke-linejoin="round"/>
<path d="M363.65 395.631C367.113 374.08 387.927 338.224 404.826 325.276C413.556 318.514 419.807 319.71 419.092 331.051C417.736 352.57 393.772 394.087 375.886 406.269C365.955 413.029 361.685 407.864 363.65 395.631Z" stroke="#252B4A" stroke-linecap="round" stroke-linejoin="round"/>
<path d="M365.741 408.442L351.993 400.488C350.669 399.45 349.769 397.965 349.462 396.311C349.155 394.657 349.462 392.948 350.325 391.503C344.854 399.744 334.118 391.236 338.424 384.094C334.429 390.903 321.868 386.507 327.032 376.177C325.863 377.695 324.195 378.751 322.322 379.157C320.45 379.564 318.494 379.296 316.8 378.4C311.208 374.83 313.282 367.888 316.752 356.588C323.242 337.181 333.538 319.264 347.037 303.884C350.281 300.02 353.995 296.576 358.093 293.632C364.574 289.613 371.863 292.626 369.356 303.561C371.418 300.125 373.838 297.878 377.925 298.975C378.957 299.263 379.908 299.785 380.704 300.501C381.501 301.217 382.121 302.108 382.516 303.103C382.911 304.099 383.07 305.173 382.98 306.24C382.89 307.308 382.554 308.34 381.998 309.255C381.998 309.255 386.796 303.191 392.233 307.497C393.582 308.55 394.491 310.067 394.782 311.753C395.074 313.44 394.726 315.174 393.808 316.618C394.467 315.454 395.458 314.514 396.654 313.917C397.851 313.321 399.199 313.095 400.524 313.27C401.405 313.385 402.254 313.673 403.022 314.119L415.962 321.564" stroke="#252B4A" stroke-linecap="round" stroke-linejoin="round"/>
<path d="M29.6956 334.957C35.4066 338.111 40.8843 341.67 46.0868 345.607C61.3717 357.413 76.2797 372.233 74.2931 374.828C72.3065 377.422 54.2374 366.777 38.9161 354.962C33.7803 350.925 28.951 346.514 24.4676 341.763" stroke="#252B4A" stroke-linecap="round" stroke-linejoin="round"/>
<path d="M29.6943 334.955C26.3606 323.425 15.2459 326.943 9.13291 319.996C8.02168 330.603 13.8575 341.253 24.4154 341.761L29.6943 334.955Z" stroke="#252B4A" stroke-linecap="round" stroke-linejoin="round"/>
<path d="M44.1695 344.156L37.0158 353.433" stroke="#252B4A" stroke-linecap="round" stroke-linejoin="round"/>
<path d="M18.8091 113.145L24.8759 126.735H13.7636L19.8765 140.327" stroke="#252B4A" stroke-linecap="round" stroke-linejoin="round"/>
<path d="M234.744 448.828L259.379 449.567" stroke="#252B4A" stroke-linecap="round" stroke-linejoin="round"/>
<path d="M246.69 461.52L247.432 436.883" stroke="#252B4A" stroke-linecap="round" stroke-linejoin="round"/>
<path d="M273.874 175.938C274.29 178.087 274.944 180.183 275.819 182.189C283.367 178.437 281.606 175.984 273.874 175.938Z" stroke="#252B4A" stroke-width="2.90909" stroke-linecap="round" stroke-linejoin="round"/>
<path d="M233.355 188.438C233.579 189.276 234.768 189.823 236.779 190.096" stroke="#252B4A" stroke-linecap="round" stroke-linejoin="round"/>
<path d="M273.872 175.938C274.631 181.198 277.301 185.995 281.373 189.411C299.571 203.859 299.853 224.095 286.56 239.239" stroke="#252B4A" stroke-linecap="round" stroke-linejoin="round"/>
<path d="M416.772 322.074L437.29 333.707" stroke="#252B4A" stroke-linecap="round" stroke-linejoin="round"/>
<path d="M366.683 408.949L385.102 419.694" stroke="#252B4A" stroke-linecap="round" stroke-linejoin="round"/>
<path d="M393.992 425.301L407.652 433.267" stroke="#252B4A" stroke-linecap="round" stroke-linejoin="round"/>
<path d="M446.825 339.684L460.763 347.603" stroke="#252B4A" stroke-linecap="round" stroke-linejoin="round"/>
<path d="M403.577 372.332L448.45 398.865" stroke="#252B4A" stroke-linecap="round" stroke-linejoin="round"/>
<path d="M457.386 404.465L471 412.382" stroke="#252B4A" stroke-linecap="round" stroke-linejoin="round"/>
<path d="M384.127 205.342C388.83 209.863 394.768 212.887 401.19 214.033C407.612 215.179 414.229 214.395 420.205 211.779C426.181 209.164 431.248 204.836 434.764 199.341C438.28 193.846 440.088 187.433 439.958 180.911C439.829 174.389 437.769 168.051 434.038 162.7C430.307 157.349 425.073 153.225 418.998 150.848C412.923 148.472 406.28 147.95 399.908 149.35C393.537 150.749 387.723 154.006 383.203 158.71C380.199 161.831 377.84 165.513 376.26 169.547C374.681 173.581 373.912 177.886 373.997 182.217C374.083 186.549 375.022 190.82 376.76 194.788C378.498 198.756 381.002 202.343 384.127 205.342Z" stroke="#252B4A" stroke-linecap="round" stroke-linejoin="round"/>
<path d="M374.035 183.528C363.8 188.392 357.743 193.012 358.614 195.929C360.172 201.199 383.204 199.171 410.107 191.39C437.01 183.609 457.579 173.024 456.044 167.748C455.169 164.735 447.386 164.088 435.862 165.525" stroke="#252B4A" stroke-linecap="round" stroke-linejoin="round"/>
<path d="M284.74 217.941C283.398 226.369 278.661 234.096 272.283 236.095C252.366 242.325 217.874 257.442 217.874 257.442C217.444 281.291 215.284 307.532 217.594 334.96C206.551 339.609 194.153 339.89 182.911 335.746C180.965 309.862 179.718 285.04 180.18 262.118C180.284 256.414 181.607 250.799 184.058 245.648C186.51 240.496 190.034 235.929 194.395 232.251C212.392 217.373 232.456 205.19 253.959 196.086" stroke="#252B4A" stroke-linecap="round" stroke-linejoin="round"/>
<path d="M217.887 257.445L212.562 259.437L217.422 273.375" stroke="#252B4A" stroke-linecap="round" stroke-linejoin="round"/>
<path d="M216.638 316.66C205.38 320.523 193.258 321.118 181.676 318.374" stroke="#252B4A" stroke-linecap="round" stroke-linejoin="round"/>
<path d="M226.826 2.79688V10.5317" stroke="#252B4A" stroke-linecap="round" stroke-linejoin="round"/>
<path d="M211.777 17.8477H219.511" stroke="#252B4A" stroke-linecap="round" stroke-linejoin="round"/>
<path d="M226.826 32.8989V25.1641" stroke="#252B4A" stroke-linecap="round" stroke-linejoin="round"/>
<path d="M241.87 17.8477H234.133" stroke="#252B4A" stroke-linecap="round" stroke-linejoin="round"/>
<path d="M219.506 17.8454C220.467 17.8483 221.42 17.6611 222.309 17.2946C223.197 16.928 224.005 16.3894 224.684 15.7096C225.364 15.0298 225.903 14.2224 226.269 13.3337C226.636 12.445 226.823 11.4926 226.82 10.5312C226.816 11.9786 227.242 13.3946 228.045 14.5985C228.849 15.8025 229.993 16.7398 231.331 17.291C232.219 17.6586 233.171 17.847 234.132 17.8454C233.171 17.8432 232.219 18.0309 231.33 18.3979C230.442 18.7648 229.635 19.3038 228.955 19.9837C228.276 20.6636 227.737 21.4711 227.371 22.3598C227.005 23.2485 226.817 24.2008 226.82 25.162C226.823 24.2006 226.636 23.2481 226.269 22.3592C225.903 21.4704 225.364 20.6628 224.685 19.9828C224.005 19.3029 223.197 18.764 222.309 18.3972C221.42 18.0304 220.468 17.8429 219.506 17.8454Z" stroke="#252B4A" stroke-linecap="round" stroke-linejoin="round"/>
</g>
<defs>
<clipPath id="clip0_6317_26995">
<rect width="480" height="462" fill="white" transform="matrix(-1 0 0 1 480 0)"/>
</clipPath>
</defs>
</svg>
