<svg width="50" height="46" viewBox="0 0 50 46" fill="none" xmlns="http://www.w3.org/2000/svg">
<g id="Group">
<path id="Rectangle" d="M15.0309 31.279C15.7521 29.6593 17.7367 29.048 19.2443 29.9811C20.6521 30.8523 21.0574 32.7168 20.1385 34.0939L14.129 43.0994C13.5419 43.9792 12.3726 44.2522 11.4566 43.7234C10.5671 43.2098 10.209 42.1075 10.6268 41.1693L15.0309 31.279Z" fill="#4F56B2"/>
<path id="Rectangle_2" d="M35.4223 31.279C34.701 29.6593 32.7165 29.048 31.2088 29.9811C29.8011 30.8523 29.3957 32.7168 30.3146 34.0939L36.3241 43.0994C36.9112 43.9792 38.0805 44.2522 38.9966 43.7234C39.886 43.2098 40.2442 42.1075 39.8264 41.1693L35.4223 31.279Z" fill="#4F56B2"/>
<path id="Rectangle_3" d="M22.6445 6.26211C22.6445 4.93674 23.719 3.8623 25.0443 3.8623C26.3697 3.8623 27.4441 4.93674 27.4441 6.26211V6.72201C27.4441 8.04739 26.3697 9.12182 25.0443 9.12182C23.719 9.12182 22.6445 8.04739 22.6445 6.72201V6.26211Z" fill="white"/>
<path id="Rectangle_4" fill-rule="evenodd" clip-rule="evenodd" d="M28.3985 6.26174V6.72164C28.3985 8.57428 26.8966 10.0761 25.044 10.0761C23.1913 10.0761 21.6895 8.57428 21.6895 6.72164V6.26174C21.6895 4.40909 23.1913 2.90723 25.044 2.90723C26.8966 2.90723 28.3985 4.40909 28.3985 6.26174ZM25.044 3.86193C23.7186 3.86193 22.6442 4.93636 22.6442 6.26174V6.72164C22.6442 8.04701 23.7186 9.12144 25.044 9.12144C26.3693 9.12144 27.4438 8.04701 27.4438 6.72164V6.26174C27.4438 4.93636 26.3693 3.86193 25.044 3.86193Z" fill="#4F56B2"/>
<g id="Group_2">
<path id="Ellipse" d="M5.81014 5.80998C2.99324 8.62688 2.59744 12.9481 4.62276 16.1877C5.18177 17.0819 6.41462 17.074 7.16029 16.3283L16.3285 7.16012C17.0742 6.41446 17.082 5.1816 16.1879 4.62259C12.9482 2.59728 8.62704 2.99307 5.81014 5.80998Z" fill="#4F56B2"/>
<path id="Ellipse_2" d="M44.1899 5.81095C47.0068 8.62786 47.4026 12.949 45.3772 16.1887C44.8182 17.0829 43.5854 17.075 42.8397 16.3293L33.6715 7.1611C32.9258 6.41544 32.918 5.18258 33.8121 4.62357C37.0518 2.59826 41.373 2.99405 44.1899 5.81095Z" fill="#4F56B2"/>
</g>
<path id="Ellipse_3" d="M43.1005 24.2026C43.1005 34.3026 34.9129 42.4902 24.813 42.4902C14.713 42.4902 6.52539 34.3026 6.52539 24.2026C6.52539 14.1027 14.713 5.91504 24.813 5.91504C34.9129 5.91504 43.1005 14.1027 43.1005 24.2026Z" fill="white"/>
<path id="Ellipse_4" fill-rule="evenodd" clip-rule="evenodd" d="M44.0549 24.2032C44.0549 34.8304 35.4398 43.4455 24.8126 43.4455C14.1854 43.4455 5.57031 34.8304 5.57031 24.2032C5.57031 13.576 14.1854 4.96094 24.8126 4.96094C35.4398 4.96094 44.0549 13.576 44.0549 24.2032ZM24.8126 42.4908C34.9125 42.4908 43.1002 34.3032 43.1002 24.2032C43.1002 14.1033 34.9125 5.91564 24.8126 5.91564C14.7126 5.91564 6.52501 14.1033 6.52501 24.2032C6.52501 34.3032 14.7126 42.4908 24.8126 42.4908Z" fill="#4F56B2"/>
<path id="Ellipse_5" fill-rule="evenodd" clip-rule="evenodd" d="M24.9125 7.60802C15.8015 7.60802 8.41564 14.9939 8.41564 24.1048C8.41564 33.2158 15.8015 40.6017 24.9125 40.6017C34.0234 40.6017 41.4093 33.2158 41.4093 24.1048C41.4093 14.9939 34.0234 7.60802 24.9125 7.60802ZM7.46094 24.1048C7.46094 14.4666 15.2743 6.65332 24.9125 6.65332C34.5507 6.65332 42.364 14.4666 42.364 24.1048C42.364 33.7431 34.5507 41.5564 24.9125 41.5564C15.2743 41.5564 7.46094 33.7431 7.46094 24.1048Z" fill="#4F56B2"/>
<path id="Rectangle_5" d="M25.6992 14.0844C25.6992 13.595 25.3025 13.1982 24.8131 13.1982C24.3237 13.1982 23.9269 13.595 23.9269 14.0844V23.3405C23.9269 23.8299 24.3237 24.2266 24.8131 24.2266C25.3025 24.2266 25.6992 23.8299 25.6992 23.3405V14.0844Z" fill="#4F56B2"/>
<path id="Rectangle_6" d="M25.4389 25.4067C25.8761 24.9108 25.8285 24.1544 25.3326 23.7172C24.8367 23.28 24.0803 23.3276 23.6431 23.8235L19.1931 28.871C18.7559 29.3668 18.8035 30.1233 19.2993 30.5604C19.7952 30.9976 20.5516 30.9501 20.9888 30.4542L25.4389 25.4067Z" fill="#4F56B2"/>
<path id="Ellipse_6" d="M26.5833 24.2028C26.5833 25.181 25.7904 25.974 24.8122 25.974C23.834 25.974 23.041 25.181 23.041 24.2028C23.041 23.2246 23.834 22.4316 24.8122 22.4316C25.7904 22.4316 26.5833 23.2246 26.5833 24.2028Z" fill="white"/>
<path id="Ellipse_7" fill-rule="evenodd" clip-rule="evenodd" d="M27.5377 24.2024C27.5377 25.7079 26.3172 26.9283 24.8118 26.9283C23.3063 26.9283 22.0859 25.7079 22.0859 24.2024C22.0859 22.697 23.3063 21.4766 24.8118 21.4766C26.3172 21.4766 27.5377 22.697 27.5377 24.2024ZM24.8118 25.9736C25.79 25.9736 26.583 25.1806 26.583 24.2024C26.583 23.2242 25.79 22.4313 24.8118 22.4313C23.8336 22.4313 23.0406 23.2242 23.0406 24.2024C23.0406 25.1806 23.8336 25.9736 24.8118 25.9736Z" fill="#4F56B2"/>
<g id="Vector">
<path d="M32.9056 35.8725C33.1566 36.3072 33.0076 36.8631 32.5729 37.1141C32.1381 37.3651 31.5822 37.2162 31.3312 36.7814C31.0802 36.3467 31.2291 35.7908 31.6639 35.5398C32.0986 35.2888 32.6546 35.4377 32.9056 35.8725Z" fill="#4F56B2"/>
<path d="M18.6709 11.2178C18.9219 11.6526 18.7729 12.2085 18.3382 12.4595C17.9034 12.7105 17.3475 12.5615 17.0965 12.1268C16.8455 11.692 16.9945 11.1361 17.4292 10.8851C17.8639 10.6341 18.4199 10.7831 18.6709 11.2178Z" fill="#4F56B2"/>
<path d="M13.1277 31.904C12.6929 32.155 12.137 32.006 11.886 31.5713C11.635 31.1365 11.784 30.5806 12.2187 30.3296C12.6535 30.0786 13.2094 30.2276 13.4604 30.6623C13.7114 31.097 13.5624 31.653 13.1277 31.904Z" fill="#4F56B2"/>
<path d="M37.7827 17.6695C37.3479 17.9205 36.792 17.7715 36.541 17.3368C36.29 16.902 36.439 16.3461 36.8737 16.0951C37.3085 15.8441 37.8644 15.9931 38.1154 16.4278C38.3664 16.8625 38.2174 17.4185 37.7827 17.6695Z" fill="#4F56B2"/>
<path d="M37.7828 30.3295C38.2176 30.5805 38.3665 31.1364 38.1155 31.5711C37.8645 32.0059 37.3086 32.1548 36.8739 31.9038C36.4391 31.6528 36.2902 31.0969 36.5412 30.6622C36.7922 30.2274 37.3481 30.0785 37.7828 30.3295Z" fill="#4F56B2"/>
<path d="M13.1282 16.0952C13.5629 16.3462 13.7119 16.9021 13.4609 17.3369C13.2099 17.7716 12.654 17.9206 12.2192 17.6696C11.7845 17.4186 11.6355 16.8627 11.8865 16.4279C12.1375 15.9932 12.6934 15.8442 13.1282 16.0952Z" fill="#4F56B2"/>
<path d="M18.6706 36.7815C18.4196 37.2162 17.8637 37.3652 17.429 37.1142C16.9942 36.8632 16.8453 36.3072 17.0963 35.8725C17.3473 35.4377 17.9032 35.2888 18.3379 35.5398C18.7727 35.7908 18.9216 36.3467 18.6706 36.7815Z" fill="#4F56B2"/>
<path d="M32.9049 12.1268C32.6539 12.5616 32.098 12.7105 31.6633 12.4595C31.2285 12.2085 31.0796 11.6526 31.3306 11.2179C31.5816 10.7831 32.1375 10.6341 32.5722 10.8851C33.007 11.1362 33.1559 11.6921 32.9049 12.1268Z" fill="#4F56B2"/>
<path d="M38.9961 22.9248C39.7146 22.9248 40.297 23.5073 40.297 24.2257C40.297 24.9442 39.7146 25.5267 38.9961 25.5267C38.2776 25.5267 37.6952 24.9442 37.6952 24.2257C37.6952 23.5073 38.2776 22.9248 38.9961 22.9248Z" fill="#4F56B2"/>
<path d="M11.0331 22.8242C11.6824 22.8242 12.2088 23.3506 12.2088 23.9999C12.2088 24.6492 11.6824 25.1756 11.0331 25.1756C10.3838 25.1756 9.85742 24.6492 9.85742 23.9999C9.85742 23.3506 10.3838 22.8242 11.0331 22.8242Z" fill="#4F56B2"/>
<path d="M26.2306 37.9642C26.2306 38.6434 25.68 39.1939 25.0009 39.1939C24.3217 39.1939 23.7711 38.6434 23.7711 37.9642C23.7711 37.285 24.3217 36.7345 25.0009 36.7345C25.68 36.7345 26.2306 37.285 26.2306 37.9642Z" fill="#4F56B2"/>
<path d="M26.0113 9.92487C26.0113 10.5996 25.4643 11.1466 24.7895 11.1466C24.1148 11.1466 23.5678 10.5996 23.5678 9.92487C23.5678 9.25012 24.1148 8.70312 24.7895 8.70312C25.4643 8.70312 26.0113 9.25012 26.0113 9.92487Z" fill="#4F56B2"/>
</g>
</g>
</svg>
