<svg width="50" height="50" viewBox="0 0 50 50" fill="none" xmlns="http://www.w3.org/2000/svg">
<g id="Group">
<path id="Vector" d="M8.63068 1.02549L2.2393 8.13847C1.5514 8.90404 2.10922 10.1215 3.13824 10.1003L46.0372 9.21951C47.0672 9.19837 47.5741 7.95714 46.8535 7.22099L39.9613 0.180584C39.8477 0.0645224 39.6911 0.000622638 39.5287 0.00403634L9.48075 0.635729C9.1557 0.642562 8.84798 0.783652 8.63068 1.02549Z" fill="#4F56B2"/>
<path id="Vector_2" d="M19.5091 43.6304L1.17578 10.2341L9.3413 1.81641L27.7685 35.9447L19.5091 43.6304Z" fill="white"/>
<path id="Vector_3" fill-rule="evenodd" clip-rule="evenodd" d="M0.145152 10.8003C-0.103288 10.3478 -0.0275285 9.78611 0.331938 9.41554L8.49746 0.997839C8.75834 0.728907 9.13174 0.600371 9.50287 0.651746C9.87401 0.703121 10.1985 0.928259 10.3765 1.25794L28.8036 35.3862C29.0581 35.8575 28.962 36.4411 28.57 36.806L20.3106 44.4917C20.0451 44.7387 19.6805 44.8495 19.3224 44.7918C18.9644 44.7342 18.653 44.5146 18.4785 44.1967L0.145152 10.8003ZM19.5094 43.6307L27.7688 35.945L9.34161 1.8167L1.17609 10.2344L19.5094 43.6307Z" fill="#4F56B2"/>
<path id="Vector_4" fill-rule="evenodd" clip-rule="evenodd" d="M8.46209 17.0598C8.74579 16.9017 9.10391 17.0036 9.26198 17.2873L15.9571 29.3039C16.1151 29.5876 16.0133 29.9457 15.7296 30.1038C15.4459 30.2618 15.0878 30.16 14.9297 29.8763L8.23461 17.8597C8.07655 17.576 8.17839 17.2179 8.46209 17.0598Z" fill="#4F56B2"/>
<path id="Vector_5" d="M31.8979 40.7024L47.8535 9.1665L39.5941 1.17578L22.5748 34.6026L31.8979 40.7024Z" fill="white"/>
<path id="Vector_6" fill-rule="evenodd" clip-rule="evenodd" d="M48.9026 9.69774C49.1353 9.23781 49.0414 8.67996 48.6709 8.32156L40.4116 0.330841C40.1434 0.0714169 39.7681 -0.0453824 39.4001 0.0160819C39.0321 0.077546 38.7151 0.309981 38.5458 0.642466L21.5264 34.0693C21.2541 34.6042 21.4283 35.2584 21.9306 35.587L31.2537 41.6868C31.5337 41.87 31.8784 41.9253 32.2016 41.8388C32.5249 41.7523 32.7959 41.5322 32.947 41.2336L48.9026 9.69774ZM31.8976 40.7027L22.5745 34.6029L39.5938 1.17608L47.8532 9.1668L31.8976 40.7027Z" fill="#4F56B2"/>
<path id="Vector_7" fill-rule="evenodd" clip-rule="evenodd" d="M38.4138 9.06547C38.7058 9.2078 38.827 9.55982 38.6847 9.85173L33.8667 19.7334C33.7244 20.0253 33.3724 20.1466 33.0805 20.0042C32.7885 19.8619 32.6673 19.5099 32.8096 19.218L37.6276 9.33632C37.7699 9.04441 38.1219 8.92314 38.4138 9.06547Z" fill="#4F56B2"/>
<path id="Ellipse" d="M37.1918 36.6223C37.1918 43.3609 31.729 48.8236 24.9904 48.8236C18.2518 48.8236 12.7891 43.3609 12.7891 36.6223C12.7891 29.8836 18.2518 24.4209 24.9904 24.4209C31.729 24.4209 37.1918 29.8836 37.1918 36.6223Z" fill="white"/>
<path id="Ellipse_2" fill-rule="evenodd" clip-rule="evenodd" d="M38.3681 36.6225C38.3681 44.0107 32.3788 50 24.9907 50C17.6026 50 11.6133 44.0107 11.6133 36.6225C11.6133 29.2344 17.6026 23.2451 24.9907 23.2451C32.3788 23.2451 38.3681 29.2344 38.3681 36.6225ZM24.9907 48.8239C31.7293 48.8239 37.1921 43.3612 37.1921 36.6225C37.1921 29.8839 31.7293 24.4212 24.9907 24.4212C18.2521 24.4212 12.7893 29.8839 12.7893 36.6225C12.7893 43.3612 18.2521 48.8239 24.9907 48.8239Z" fill="#4F56B2"/>
<path id="Ellipse_3" fill-rule="evenodd" clip-rule="evenodd" d="M32.7892 36.6221C32.7892 40.9293 29.2975 44.421 24.9903 44.421C20.6831 44.421 17.1914 40.9293 17.1914 36.6221C17.1914 32.3149 20.6831 28.8232 24.9903 28.8232C29.2975 28.8232 32.7892 32.3149 32.7892 36.6221ZM24.9903 43.2449C28.648 43.2449 31.6131 40.2798 31.6131 36.6221C31.6131 32.9644 28.648 29.9993 24.9903 29.9993C21.3326 29.9993 18.3675 32.9644 18.3675 36.6221C18.3675 40.2798 21.3326 43.2449 24.9903 43.2449Z" fill="#4F56B2"/>
</g>
</svg>
