<svg width="38" height="50" viewBox="0 0 38 50" fill="none" xmlns="http://www.w3.org/2000/svg">
<g id="Group">
<path id="Vector" d="M11.5 30.5L14.5 26L18.5 28L14.5 33L15.5 34.5L7.5 48L3.5 49L1 46.5V43.5L10 30.5H11.5Z" fill="white"/>
<path id="Vector_2" d="M16.5 3L10 10L9 16.5L10.5 22L19 28H28L34.5 23.5L37 16L35.5 8.5L29.5 2.5L23 0.5L16.5 3Z" fill="white"/>
<path id="Vector_3" d="M13 16.5L14 11.5L17.5 6L23 4.5L29.5 6.5L33 11.5L32.5 18.5L29.5 22.5L24.5 25.5L19 24.5L14.5 21.5L13 16.5Z" fill="white"/>
<path id="Vector_4" d="M25.0575 47.5663C25.0575 48.9103 19.6006 50.0006 12.8696 50.0006C2.74265 50.0006 2.41767 49.1528 2.41767 47.8089C2.41767 47.5055 2.15628 47.8781 2.52669 47.5915C3.92657 48.5693 5.03641 48.3722 6.23221 48.0744C7.80192 47.5915 7.47693 45.455 8.6916 45.3299C9.91746 45.2041 11.3131 45.1328 12.8696 45.1328C19.6006 45.1328 25.0575 46.2217 25.0575 47.5663Z" fill="#4F56B2"/>
<path id="Vector_5" fill-rule="evenodd" clip-rule="evenodd" d="M22.276 29.1108C25.7334 29.2925 28.3857 28.0003 29.0846 27.6467C31.9361 26.2076 33.4331 24.1683 34.0048 23.3506C34.009 23.3436 34.0153 23.3352 34.023 23.324C34.348 22.8474 37.4357 18.3263 37.0045 13.1328C37.6642 15.653 38.0248 19.4193 35.9219 23.048C33.5645 27.0973 29.5962 28.5489 28.2173 28.976C22.0873 30.842 13.86 28.5825 10.729 22.1953C9.20749 19.1419 9.3305 16.0528 9.82881 13.7374C9.53248 15.8019 9.53946 18.5171 10.5871 21.3042C12.3923 25.977 17.5026 28.8935 22.276 29.1108Z" fill="#4F56B2"/>
<path id="Vector_6" d="M17.3726 14.6494C17.9515 14.6494 18.4209 14.18 18.4209 13.6011C18.4209 13.0221 17.9515 12.5527 17.3726 12.5527C16.7936 12.5527 16.3242 13.0221 16.3242 13.6011C16.3242 14.18 16.7936 14.6494 17.3726 14.6494Z" fill="#4F56B2"/>
<path id="Vector_7" d="M25.4079 11.1556C25.7939 11.1556 26.1068 10.8427 26.1068 10.4567C26.1068 10.0707 25.7939 9.75781 25.4079 9.75781C25.0219 9.75781 24.709 10.0707 24.709 10.4567C24.709 10.8427 25.0219 11.1556 25.4079 11.1556Z" fill="#4F56B2"/>
<path id="Vector_8" d="M29.2534 20.2412C29.8324 20.2412 30.3017 19.7718 30.3017 19.1929C30.3017 18.6139 29.8324 18.1445 29.2534 18.1445C28.6744 18.1445 28.2051 18.6139 28.2051 19.1929C28.2051 19.7718 28.6744 20.2412 29.2534 20.2412Z" fill="#4F56B2"/>
<path id="Vector_9" d="M5.74891 49.805C5.12061 49.805 4.45247 49.6855 3.77734 49.4457L4.2449 48.1283C5.19329 48.4645 6.12701 48.4959 6.80424 48.2157C7.13202 48.0801 7.41716 47.8208 7.60866 47.486L14.8638 34.4469C14.9778 34.2421 14.9114 33.9954 14.7024 33.8493L15.5033 32.7031C16.2945 33.2559 16.5454 34.2973 16.0869 35.1255L8.82682 48.1724C8.47878 48.7818 7.95181 49.2528 7.33959 49.5065C6.85875 49.7057 6.3206 49.805 5.74891 49.805Z" fill="#4F56B2"/>
<path id="Vector_10" d="M13.6867 25.5354L10.6172 29.9854L11.7678 30.779L14.8373 26.3291L13.6867 25.5354Z" fill="#4F56B2"/>
<path id="Vector_11" d="M17.2474 27.4547L14.0078 32.4775L15.1825 33.2352L18.422 28.2124L17.2474 27.4547Z" fill="#4F56B2"/>
<path id="Vector_12" d="M17.2488 27.0878L14.0117 32.1113L15.1861 32.8681L18.4232 27.8445L17.2488 27.0878Z" fill="#4F56B2"/>
<path id="Vector_13" d="M23.4441 29.4394C18.1814 29.4394 12.4876 26.7962 9.78427 21.2225C7.05091 15.6775 9.37682 9.99208 10.1547 8.38184C12.2353 4.38069 15.5872 2.49998 16.6886 1.88216C17.6125 1.37337 20.3186 -0.11457 23.7956 0.00703721C29.5328 0.202028 34.1294 4.57079 36.1387 8.81375C36.4966 9.52312 39.5961 16.0563 36.0877 22.2331C33.4026 26.9632 28.2706 28.6462 27.6905 28.8237C26.3592 29.2318 24.9187 29.4394 23.4441 29.4394ZM23.3847 1.39713C20.4696 1.39713 18.1717 2.66142 17.3959 3.08774C16.3615 3.66852 13.2829 5.39548 11.4225 8.971C10.7054 10.4561 8.58497 15.6272 11.0402 20.6082C14.1342 26.987 21.8772 29.1445 27.2803 27.4867C27.4886 27.4231 32.4101 25.8778 34.8723 21.5426C38.0215 15.9976 35.2134 10.0829 34.8828 9.42668C33.0475 5.55203 28.8975 1.57884 23.746 1.40342C23.6244 1.39923 23.5042 1.39713 23.3847 1.39713Z" fill="#4F56B2"/>
<path id="Vector_14" d="M22.9038 25.9776C22.7012 25.9776 22.4999 25.9714 22.2986 25.9595C18.1821 25.7219 14.3508 23.0794 12.9831 19.5332C11.9103 16.8152 12.4974 14.1119 12.8482 12.4968L12.909 12.2263C13.0921 11.4358 13.3437 10.3533 14.0342 9.13649C15.2363 6.97972 17.0304 5.52673 18.3079 4.88794C20.5304 3.72289 23.5929 3.60338 26.4905 4.57414C29.4979 5.58264 31.8266 7.56189 33.0461 10.1478C35.2036 14.7982 32.8267 19.4829 31.7043 21.2811L31.4513 21.6229C30.8887 22.3211 29.7194 23.7733 27.6856 24.8119H27.6842C26.1718 25.5793 24.5315 25.9776 22.9052 25.9776H22.9038ZM22.5719 5.31706C21.2328 5.31706 19.9783 5.59032 18.9439 6.13266C17.8411 6.68409 16.3014 7.9379 15.2517 9.8221C14.659 10.8676 14.4431 11.7965 14.2697 12.5429L14.2131 12.7938C13.8756 14.3488 13.3661 16.6971 14.2844 19.0258C15.6598 22.5915 19.445 24.3954 22.3804 24.5645C23.4804 24.6337 25.1808 24.5135 27.0497 23.5665C28.8157 22.6642 29.8201 21.4167 30.3596 20.7465L30.5161 20.5417C31.5184 18.9363 33.6465 14.7668 31.7783 10.7404C30.7244 8.50679 28.6879 6.78613 26.0446 5.89993C24.8831 5.51065 23.6978 5.31706 22.5719 5.31706Z" fill="#4F56B2"/>
<path id="Vector_15" d="M4.61756 49.4781C4.12065 49.4781 3.5867 49.4019 3.03318 49.2056C1.31042 48.5388 0.156547 46.9195 0.00349051 44.9731C-0.0293573 44.1994 0.170525 43.4942 0.565398 42.9624C1.96388 40.9684 3.27849 39.0549 4.58472 37.1532C6.02303 35.0593 7.51027 32.8942 9.08207 30.6675C9.64538 29.8666 10.7566 29.6457 11.6114 30.1664L11.6274 30.1769L14.8109 32.2386C15.6223 32.8054 15.8732 33.846 15.4147 34.6742L8.15465 47.7211C7.8066 48.3305 7.28033 48.8016 6.66741 49.0553C6.13765 49.2747 5.42828 49.4781 4.61756 49.4781ZM10.6112 31.2825C10.4589 31.2825 10.3121 31.3489 10.2255 31.4719C8.65785 33.6923 7.1734 35.854 5.73788 37.9443C4.42886 39.8502 3.11215 41.7673 1.699 43.7808C1.48304 44.0715 1.381 44.4594 1.39917 44.8885C1.5082 46.2695 2.32171 47.4311 3.52031 47.8951C4.53859 48.2565 5.50585 48.0244 6.13416 47.7637C6.46193 47.6282 6.74778 47.3689 6.93858 47.0348L14.1945 33.9956C14.3084 33.7908 14.242 33.5441 14.033 33.3981L10.8796 31.3559C10.7965 31.307 10.7035 31.2832 10.6126 31.2832L10.6112 31.2825Z" fill="#4F56B2"/>
</g>
</svg>
