<svg width="177" height="31" viewBox="0 0 177 31" fill="none" xmlns="http://www.w3.org/2000/svg">
<g id="logo5" opacity="0.6" clip-path="url(#clip0_6304_18210)">
<path id="Vector" d="M31.6624 15.5C31.6624 6.17357 25.05 0.5 15.9187 0.5C6.8267 0.5 0.214355 6.17357 0.214355 15.5C0.214355 24.8265 6.8267 30.5 15.958 30.5C25.05 30.5 31.6624 24.8265 31.6624 15.5ZM18.7132 19.1917C18.7132 21.601 17.926 23.4275 15.958 23.4275C13.9507 23.4275 13.2029 21.601 13.2029 19.1917V11.8472C13.2029 9.39896 13.9114 7.57254 15.9187 7.57254C17.8866 7.61139 18.6738 9.43783 18.7132 11.8472V19.1917Z" fill="#4F56B2"/>
<path id="Vector_2" d="M59.3872 29.8V8.66016H48.8783V20.1627C48.1699 22.8053 47.0284 23.5824 46.0051 23.5824C44.8243 23.5824 44.7456 21.9503 44.7456 20.085V8.66016H34.1973V23.2716C34.1973 27.2741 36.9524 30.2664 40.6522 30.2664C44.5488 30.2664 47.4613 27.8182 48.8783 25.2923V29.8H59.3872Z" fill="#4F56B2"/>
<path id="Vector_3" d="M80.0448 28.1664V22.6483C78.6279 23.7364 74.9674 23.6587 74.9674 20.7053V14.682H80.0448V8.65869H74.9674V2.75195H67.0562L64.8522 8.65869H61.1523V14.682H64.4586V22.9204C64.4586 27.6225 68.0402 30.2649 72.5666 30.2649C74.692 30.2649 78.7853 29.5266 80.0448 28.1664Z" fill="#4F56B2"/>
<path id="Vector_4" d="M92.526 29.7984V1.23633H82.0171V29.7984H92.526Z" fill="#4F56B2"/>
<path id="Vector_5" d="M120.537 19.3852C120.498 12.5848 115.066 8.23242 107.588 8.23242C100.11 8.23242 94.6782 12.5848 94.6782 19.3852C94.6782 26.2247 100.11 30.2661 107.588 30.2272C115.106 30.2272 120.537 26.1858 120.537 19.3852ZM109.399 22.222C109.399 23.5821 108.886 24.6314 107.588 24.6314C106.289 24.6314 105.777 23.5821 105.777 22.222V16.3542C105.777 14.9552 106.289 13.906 107.588 13.906C108.886 13.9448 109.399 14.9941 109.399 16.3542V22.222Z" fill="#4F56B2"/>
<path id="Vector_6" d="M147.52 19.3852C147.48 12.5848 142.049 8.23242 134.571 8.23242C127.092 8.23242 121.661 12.5848 121.661 19.3852C121.661 26.2247 127.092 30.2661 134.571 30.2272C142.088 30.2272 147.52 26.1858 147.52 19.3852ZM136.381 22.222C136.381 23.5821 135.869 24.6314 134.571 24.6314C133.272 24.6314 132.76 23.5821 132.76 22.222V16.3542C132.76 14.9552 133.272 13.906 134.571 13.906C135.869 13.9448 136.381 14.9941 136.381 16.3542V22.222Z" fill="#4F56B2"/>
<path id="Vector_7" d="M176.077 29.7984L167.732 18.257L175.526 8.65861H164.466L159.585 15.8477V1.23633H149.627V29.7984H159.585V21.91L164.899 29.7984H176.077Z" fill="#4F56B2"/>
</g>
<defs>
<clipPath id="clip0_6304_18210">
<rect width="176.786" height="30" fill="white" transform="translate(0.214355 0.5)"/>
</clipPath>
</defs>
</svg>
