<svg width="261" height="81" viewBox="0 0 261 81" fill="none" xmlns="http://www.w3.org/2000/svg">
<path d="M113.957 58.3699C117.44 61.7178 121.838 63.9577 126.594 64.8063C131.35 65.6548 136.251 65.074 140.677 63.1372C145.102 61.2004 148.855 57.9947 151.459 53.9253C154.063 49.856 155.401 45.1058 155.306 40.2756C155.21 35.4454 153.684 30.752 150.921 26.789C148.158 22.826 144.282 19.7714 139.782 18.0115C135.283 16.2515 130.363 15.8653 125.644 16.9016C120.926 17.9379 116.62 20.3502 113.273 23.8335C111.048 26.145 109.3 28.8725 108.131 31.8598C106.961 34.8472 106.391 38.0359 106.455 41.2436C106.518 44.4512 107.214 47.6148 108.501 50.5535C109.788 53.4922 111.642 56.1483 113.957 58.3699Z" stroke="#4F56B2" stroke-width="2.07369" stroke-linecap="round" stroke-linejoin="round"/>
<path d="M106.482 42.2095C98.9022 45.8112 94.4164 49.2328 95.0611 51.3938C96.2154 55.2962 113.273 53.7943 133.197 48.0316C153.122 42.269 168.355 34.4299 167.219 30.5221C166.57 28.2909 160.806 27.8119 152.272 28.8762" stroke="#4F56B2" stroke-width="2.07369" stroke-linecap="round" stroke-linejoin="round"/>
<path fill-rule="evenodd" clip-rule="evenodd" d="M81.2467 11.5686C81.6787 11.9138 81.8257 12.4543 81.9337 12.9716L82.5907 16.218C82.682 16.6695 82.4814 17.3683 82.0056 17.2104C81.3281 15.9091 80.9676 14.4734 80.9572 13.0347C80.6987 12.8098 80.314 13.1444 80.1532 13.4345L78.5464 16.3342C78.2635 16.8448 77.4188 16.7321 76.8612 16.4652L76.5624 16.3219C76.0787 16.0946 75.5518 15.8934 75.0932 16.1174C74.8593 16.7524 75.8999 17.069 76.4398 17.5261C77.0563 18.048 77.0201 18.9851 76.589 19.6422C76.1579 20.2992 75.4294 20.7421 74.7248 21.1628C75.7371 21.3141 76.8165 21.0462 77.6023 20.4487C77.9573 20.1788 78.2824 19.8325 78.7361 19.7465C79.4379 19.6136 80.0684 20.1648 80.4327 20.7242C80.797 21.2836 81.0855 21.9385 81.7078 22.2612C82.0194 21.8166 81.8529 21.2584 81.6567 20.7442L81.5633 20.5046C81.3381 19.9299 81.2369 19.1685 81.7891 18.8197C81.9968 18.6886 82.2547 18.6502 82.5085 18.6252L85.2243 18.379L83.6597 17.3464C83.3961 17.1724 83.1004 16.8832 83.2614 16.6263C83.4319 16.3542 83.887 16.4671 84.192 16.6141L88 18.4494C86.7044 19.2916 85.1759 19.8374 83.5943 20.0223C82.8145 20.1135 82.6885 21.0808 82.7714 21.7889L82.9969 23.7154C83.0672 24.3156 82.0247 24.5195 81.5039 24.143C80.9831 23.7664 80.7855 23.1359 80.3751 22.6603C79.7123 21.892 78.5405 21.6055 77.4685 21.6945C76.3965 21.7835 75.3924 22.1906 74.4114 22.592C73.7789 22.8508 73.0832 22.1653 73.1326 21.5382C73.1762 20.985 73.5669 20.5211 73.9653 20.0893L74.1243 19.9182C74.5714 19.4374 75.0185 18.8675 74.9429 18.2426C74.88 17.7222 74.4698 17.3032 74.0584 16.9289L73.8175 16.7102C73.4361 16.357 73.0739 15.9644 73.0071 15.4815C72.9306 14.9296 73.4869 14.2943 74.0712 14.4653C76.3217 15.1243 79.0315 13.8396 79.7163 11.7891C79.8942 11.2564 80.7859 11.2004 81.2467 11.5686Z" fill="#4F56B2"/>
<path fill-rule="evenodd" clip-rule="evenodd" d="M187.247 62.5686C187.679 62.9138 187.826 63.4543 187.934 63.9716L188.591 67.218C188.682 67.6695 188.481 68.3683 188.006 68.2104C187.328 66.9091 186.968 65.4734 186.957 64.0347C186.699 63.8098 186.314 64.1444 186.153 64.4345L184.546 67.3342C184.263 67.8448 183.419 67.7321 182.861 67.4652L182.562 67.3219C182.079 67.0946 181.552 66.8934 181.093 67.1174C180.859 67.7524 181.9 68.069 182.44 68.5261C183.056 69.048 183.02 69.9851 182.589 70.6422C182.158 71.2992 181.429 71.7421 180.725 72.1628C181.737 72.3141 182.816 72.0462 183.602 71.4487C183.957 71.1788 184.282 70.8325 184.736 70.7465C185.438 70.6136 186.068 71.1648 186.433 71.7242C186.797 72.2836 187.085 72.9385 187.708 73.2612C188.019 72.8166 187.853 72.2584 187.657 71.7442L187.563 71.5046C187.338 70.9299 187.237 70.1685 187.789 69.8197C187.997 69.6886 188.255 69.6502 188.508 69.6252L191.224 69.379L189.66 68.3464C189.396 68.1724 189.1 67.8832 189.261 67.6263C189.432 67.3542 189.887 67.4671 190.192 67.6141L194 69.4494C192.704 70.2916 191.176 70.8374 189.594 71.0223C188.815 71.1135 188.688 72.0808 188.771 72.7889L188.997 74.7154C189.067 75.3156 188.025 75.5195 187.504 75.143C186.983 74.7664 186.785 74.1359 186.375 73.6603C185.712 72.892 184.541 72.6055 183.468 72.6945C182.396 72.7835 181.392 73.1906 180.411 73.592C179.779 73.8508 179.083 73.1653 179.133 72.5382C179.176 71.985 179.567 71.5211 179.965 71.0893L180.124 70.9182C180.571 70.4374 181.018 69.8675 180.943 69.2426C180.88 68.7222 180.47 68.3032 180.058 67.9289L179.818 67.7102C179.436 67.357 179.074 66.9644 179.007 66.4815C178.931 65.9296 179.487 65.2943 180.071 65.4653C182.322 66.1243 185.032 64.8396 185.716 62.7891C185.894 62.2564 186.786 62.2004 187.247 62.5686Z" fill="#4F56B2"/>
<path fill-rule="evenodd" clip-rule="evenodd" d="M196.597 0.550475C196.943 0.869129 197.061 1.36806 197.147 1.84558L197.673 4.84227C197.746 5.25903 197.585 5.90409 197.204 5.7583C196.662 4.55713 196.374 3.23183 196.366 1.90382C196.159 1.6962 195.851 2.00506 195.723 2.27289L194.437 4.94954C194.211 5.42086 193.535 5.31681 193.089 5.07037L192.85 4.93812C192.463 4.72834 192.041 4.54261 191.675 4.7494C191.487 5.33548 192.32 5.6278 192.752 6.04971C193.245 6.53149 193.216 7.39647 192.871 8.003C192.526 8.60954 191.943 9.01837 191.38 9.40669C192.19 9.54628 193.053 9.29902 193.682 8.74752C193.966 8.49838 194.226 8.17866 194.589 8.09933C195.15 7.9766 195.655 8.48543 195.946 9.00178C196.238 9.51812 196.468 10.1227 196.966 10.4205C197.216 10.0102 197.082 9.49488 196.925 9.02026L196.851 8.79905C196.67 8.26857 196.589 7.56578 197.031 7.24382C197.197 7.12275 197.404 7.08732 197.607 7.0643L199.779 6.83697L198.528 5.88379C198.317 5.72321 198.08 5.45629 198.209 5.21914C198.346 4.96797 198.71 5.07219 198.954 5.20786L202 6.90202C200.964 7.67943 199.741 8.18317 198.475 8.35391C197.852 8.43809 197.751 9.33093 197.817 9.98459L197.998 11.7629C198.054 12.3169 197.22 12.5052 196.803 12.1576C196.386 11.81 196.228 11.228 195.9 10.7889C195.37 10.0798 194.432 9.81533 193.575 9.89746C192.717 9.97959 191.914 10.3554 191.129 10.7259C190.623 10.9648 190.067 10.332 190.106 9.7532C190.141 9.24249 190.453 8.81434 190.772 8.41577L190.899 8.25779C191.257 7.81396 191.615 7.28794 191.554 6.71111C191.504 6.23074 191.176 5.84392 190.847 5.49845L190.654 5.29653C190.349 4.97053 190.059 4.60815 190.006 4.16238C189.945 3.65293 190.389 3.06647 190.857 3.2244C192.657 3.83264 194.825 2.64679 195.373 0.754013C195.515 0.26225 196.229 0.210579 196.597 0.550475Z" fill="#4F56B2"/>
<path fill-rule="evenodd" clip-rule="evenodd" d="M67.4978 71.4961C67.7858 71.7351 67.8838 72.1093 67.9558 72.4674L68.3938 74.715C68.4547 75.0275 68.3209 75.5113 68.0037 75.402C67.5521 74.5011 67.3118 73.5071 67.3048 72.5111C67.1325 72.3554 66.876 72.587 66.7688 72.7879L65.6976 74.7954C65.509 75.1489 64.9459 75.0709 64.5741 74.886L64.3749 74.7868C64.0525 74.6295 63.7012 74.4902 63.3955 74.6453C63.2395 75.0849 63.9332 75.3041 64.2932 75.6205C64.7042 75.9819 64.68 76.6306 64.3926 77.0855C64.1052 77.5404 63.6196 77.847 63.1499 78.1383C63.8247 78.243 64.5443 78.0575 65.0682 77.6439C65.3049 77.457 65.5216 77.2172 65.824 77.1577C66.2919 77.0657 66.7122 77.4473 66.9551 77.8346C67.198 78.2218 67.3903 78.6753 67.8052 78.8987C68.013 78.5909 67.9019 78.2044 67.7711 77.8484L67.7088 77.6825C67.5587 77.2847 67.4912 76.7576 67.8594 76.5161C67.9978 76.4253 68.1698 76.3987 68.339 76.3815L70.1495 76.211L69.1065 75.4961C68.9307 75.3757 68.7336 75.1755 68.8409 74.9976C68.9546 74.8092 69.258 74.8874 69.4613 74.9891L72 76.2598C71.1363 76.8428 70.1172 77.2206 69.0628 77.3487C68.543 77.4118 68.459 78.0814 68.5143 78.5717L68.6646 79.9054C68.7115 80.3209 68.0164 80.4621 67.6692 80.2015C67.322 79.9408 67.1903 79.5042 66.9168 79.175C66.4748 78.6431 65.6937 78.4447 64.979 78.5063C64.2643 78.5679 63.595 78.8498 62.9409 79.1277C62.5193 79.3069 62.0554 78.8323 62.0884 78.3982C62.1175 78.0151 62.3779 77.694 62.6435 77.3951L62.7495 77.2766C63.0476 76.9437 63.3456 76.5492 63.2953 76.1166C63.2534 75.7563 62.9799 75.4662 62.7056 75.2071L62.545 75.0556C62.2907 74.8112 62.0493 74.5394 62.0047 74.205C61.9538 73.8229 62.3246 73.3831 62.7141 73.5015C64.2145 73.9577 66.021 73.0683 66.4775 71.6488C66.5962 71.2799 67.1906 71.2412 67.4978 71.4961Z" fill="#4F56B2"/>
<path fill-rule="evenodd" clip-rule="evenodd" d="M25.2467 36.5686C25.6787 36.9138 25.8257 37.4543 25.9337 37.9716L26.5907 41.218C26.682 41.6695 26.4814 42.3683 26.0056 42.2104C25.3281 40.9091 24.9676 39.4734 24.9572 38.0347C24.6987 37.8098 24.314 38.1444 24.1532 38.4345L22.5464 41.3342C22.2635 41.8448 21.4188 41.7321 20.8612 41.4652L20.5624 41.3219C20.0787 41.0946 19.5518 40.8934 19.0932 41.1174C18.8593 41.7524 19.8999 42.069 20.4398 42.5261C21.0563 43.048 21.0201 43.9851 20.589 44.6422C20.1579 45.2992 19.4294 45.7421 18.7248 46.1628C19.7371 46.3141 20.8165 46.0462 21.6023 45.4487C21.9573 45.1788 22.2824 44.8325 22.7361 44.7465C23.4379 44.6136 24.0684 45.1648 24.4327 45.7242C24.797 46.2836 25.0855 46.9385 25.7078 47.2612C26.0194 46.8166 25.8529 46.2584 25.6567 45.7442L25.5633 45.5046C25.3381 44.9299 25.2369 44.1685 25.7891 43.8197C25.9968 43.6886 26.2547 43.6502 26.5085 43.6252L29.2243 43.379L27.6597 42.3464C27.3961 42.1724 27.1004 41.8832 27.2614 41.6263C27.4319 41.3542 27.887 41.4671 28.192 41.6141L32 43.4494C30.7044 44.2916 29.1759 44.8374 27.5943 45.0223C26.8145 45.1135 26.6885 46.0808 26.7714 46.7889L26.9969 48.7154C27.0672 49.3156 26.0247 49.5195 25.5039 49.143C24.9831 48.7664 24.7855 48.1359 24.3751 47.6603C23.7123 46.892 22.5405 46.6055 21.4685 46.6945C20.3965 46.7835 19.3924 47.1906 18.4114 47.592C17.7789 47.8508 17.0832 47.1653 17.1326 46.5382C17.1762 45.985 17.5669 45.5211 17.9653 45.0893L18.1243 44.9182C18.5714 44.4374 19.0185 43.8675 18.9429 43.2426C18.88 42.7222 18.4698 42.3032 18.0584 41.9289L17.8175 41.7102C17.4361 41.357 17.0739 40.9644 17.0071 40.4815C16.9306 39.9296 17.4869 39.2943 18.0712 39.4653C20.3217 40.1243 23.0315 38.8396 23.7163 36.7891C23.8942 36.2564 24.7859 36.2004 25.2467 36.5686Z" fill="#4F56B2"/>
<path fill-rule="evenodd" clip-rule="evenodd" d="M239.247 34.5686C239.679 34.9138 239.826 35.4543 239.934 35.9716L240.591 39.218C240.682 39.6695 240.481 40.3683 240.006 40.2104C239.328 38.9091 238.968 37.4734 238.957 36.0347C238.699 35.8098 238.314 36.1444 238.153 36.4345L236.546 39.3342C236.263 39.8448 235.419 39.7321 234.861 39.4652L234.562 39.3219C234.079 39.0946 233.552 38.8934 233.093 39.1174C232.859 39.7524 233.9 40.069 234.44 40.5261C235.056 41.048 235.02 41.9851 234.589 42.6422C234.158 43.2992 233.429 43.7421 232.725 44.1628C233.737 44.3141 234.816 44.0462 235.602 43.4487C235.957 43.1788 236.282 42.8325 236.736 42.7465C237.438 42.6136 238.068 43.1648 238.433 43.7242C238.797 44.2836 239.085 44.9385 239.708 45.2612C240.019 44.8166 239.853 44.2584 239.657 43.7442L239.563 43.5046C239.338 42.9299 239.237 42.1685 239.789 41.8197C239.997 41.6886 240.255 41.6502 240.508 41.6252L243.224 41.379L241.66 40.3464C241.396 40.1724 241.1 39.8832 241.261 39.6263C241.432 39.3542 241.887 39.4671 242.192 39.6141L246 41.4494C244.704 42.2916 243.176 42.8374 241.594 43.0223C240.815 43.1135 240.688 44.0808 240.771 44.7889L240.997 46.7154C241.067 47.3156 240.025 47.5195 239.504 47.143C238.983 46.7664 238.785 46.1359 238.375 45.6603C237.712 44.892 236.541 44.6055 235.468 44.6945C234.396 44.7835 233.392 45.1906 232.411 45.592C231.779 45.8508 231.083 45.1653 231.133 44.5382C231.176 43.985 231.567 43.5211 231.965 43.0893L232.124 42.9182C232.571 42.4374 233.018 41.8675 232.943 41.2426C232.88 40.7222 232.47 40.3032 232.058 39.9289L231.818 39.7102C231.436 39.357 231.074 38.9644 231.007 38.4815C230.931 37.9296 231.487 37.2943 232.071 37.4653C234.322 38.1243 237.032 36.8396 237.716 34.7891C237.894 34.2564 238.786 34.2004 239.247 34.5686Z" fill="#4F56B2"/>
</svg>
