<svg width="40" height="40" viewBox="0 0 40 40" fill="none" xmlns="http://www.w3.org/2000/svg">
<path d="M29.8868 31.0531L29.8869 31.0533C30.3199 32.9154 28.3047 34.3912 26.6576 33.3944L19.9994 29.3673L13.3421 33.3777L29.8868 31.0531ZM29.8868 31.0531L28.122 23.4803L34.0105 18.378C34.0105 18.3779 34.0106 18.3779 34.0106 18.3778C35.46 17.1229 34.6849 14.7381 32.7742 14.585C32.7738 14.5849 32.7733 14.5849 32.7729 14.5848L25.0259 13.9272L21.9942 6.77308C21.9941 6.77278 21.994 6.77247 21.9939 6.77217C21.2553 5.01475 18.7445 5.01475 18.0059 6.77215C18.0058 6.77246 18.0056 6.77277 18.0055 6.77308L14.9741 13.9105L7.2269 14.5682C7.22644 14.5682 7.22598 14.5682 7.22552 14.5683C5.31477 14.7214 4.53971 17.1064 5.98929 18.3613L11.8778 23.4636L10.1129 31.0365L10.1129 31.0367M29.8868 31.0531L10.1129 31.0367M10.1129 31.0367C9.67991 32.8984 11.6943 34.374 13.3412 33.3782L10.1129 31.0367Z" fill="#FAFAFA" stroke="#CCCFD3"/>
</svg>
