<svg width="480" height="462" viewBox="0 0 480 462" fill="none" xmlns="http://www.w3.org/2000/svg">
<path d="M461.347 324.31C449.397 304.855 427.588 279.297 404.965 273.466L398.63 288.03C398.216 288.927 397.512 289.671 396.623 290.15C395.734 290.629 394.708 290.819 393.698 290.69L376.367 288.335C375.312 288.191 374.338 287.707 373.605 286.961C372.872 286.216 372.422 285.253 372.33 284.229C372.267 283.551 372.363 282.868 372.611 282.23L376.367 271.503C364.318 274.45 346.275 265.789 335.506 259.73L354.33 217.225C350.72 213.191 346.225 209.979 341.17 207.823C336.115 205.666 330.627 204.618 325.1 204.754L303.063 251.456C300.308 257.311 299.839 263.927 301.743 270.088C303.647 276.249 307.796 281.541 313.426 284.989C326.655 293.309 341.25 299.413 356.592 303.042C356.313 315.401 359.106 327.646 364.737 338.753C378.6 342.37 393.206 342.415 407.092 338.884C406.244 330.996 409.893 320.881 412.839 313.464L430.125 331.122L394.162 361.079C395.353 372.733 404.98 382.653 416.154 386.022L456.165 353.535C460.472 350.039 463.355 345.186 464.303 339.836C465.252 334.487 464.205 328.987 461.347 324.31Z" fill="#F7F7FF"/>
<path d="M68.4408 163.794C66.0048 165.142 63.385 166.155 60.6576 166.803C35.7246 172.864 22.2851 204.304 15.8715 227.023C14.2049 232.914 14.9465 239.197 17.9435 244.577C20.9405 249.957 25.9646 254.024 31.9807 255.941C49.6292 261.413 67.9886 264.466 86.5196 265.011C91.6826 256.672 93.2425 246.713 90.8636 237.277C76.8095 236.105 62.8923 233.724 49.2783 230.163C51.8583 223.232 55.0926 216.544 58.9405 210.182C62.3272 221.173 61.0316 216.939 64.6564 228.898C79.5891 231.253 97.1916 232.299 113.799 228.244C116.465 218.683 118.058 208.873 118.55 198.984C126.635 205.159 135.693 210.047 145.381 213.462C149.111 214.866 153.095 215.535 157.097 215.43C161.1 215.325 165.04 214.448 168.685 212.851C185.03 205.677 195.247 200.293 215.112 185.946C215.248 174.565 209.999 166.629 199.229 162.225C186.559 171.338 171.536 180.67 157.735 185.946C148.169 179.054 138.064 172.887 127.509 167.501C115.882 162.041 99.5446 160.262 97.1463 159.957C89.7157 168.357 82.678 167.822 68.4408 163.794Z" fill="#F7F7FF"/>
<path d="M81.7466 240.673C81.2452 240.672 80.7548 240.815 80.3377 241.083C79.9205 241.351 79.5954 241.733 79.4036 242.179C79.2117 242.626 79.1618 243.117 79.2601 243.591C79.3583 244.065 79.6004 244.5 79.9557 244.841C80.2199 245.097 80.5402 245.294 80.8931 245.416C81.246 245.539 81.6228 245.584 81.9961 245.548C82.3694 245.513 82.7298 245.398 83.0512 245.212C83.3726 245.025 83.647 244.772 83.8544 244.471C84.133 244.07 84.2807 243.597 84.2807 243.115C84.269 242.471 83.9983 241.856 83.5256 241.4C83.0529 240.945 82.4151 240.684 81.7466 240.673Z" fill="#F7F7FF"/>
<path d="M44.9559 254.016C45.628 254.016 46.2725 253.758 46.7477 253.3C47.223 252.843 47.4899 252.221 47.4899 251.574C47.4899 250.926 47.223 250.305 46.7477 249.847C46.2725 249.389 45.628 249.132 44.9559 249.132C44.2838 249.132 43.6393 249.389 43.1641 249.847C42.6889 250.305 42.4219 250.926 42.4219 251.574C42.4219 252.221 42.6889 252.843 43.1641 253.3C43.6393 253.758 44.2838 254.016 44.9559 254.016Z" fill="#F7F7FF"/>
<path d="M27.0379 221.355C27.71 221.355 28.3545 221.097 28.8298 220.639C29.305 220.181 29.572 219.56 29.572 218.913C29.572 218.265 29.305 217.644 28.8298 217.186C28.3545 216.728 27.71 216.471 27.0379 216.471C26.3659 216.471 25.7213 216.728 25.2461 217.186C24.7709 217.644 24.5039 218.265 24.5039 218.913C24.5039 219.56 24.7709 220.181 25.2461 220.639C25.7213 221.097 26.3659 221.355 27.0379 221.355Z" fill="#F7F7FF"/>
<path d="M57.5799 200.642C58.252 200.642 58.8965 200.384 59.3718 199.926C59.847 199.469 60.114 198.847 60.114 198.2C60.114 197.552 59.847 196.931 59.3718 196.473C58.8965 196.015 58.252 195.758 57.5799 195.758C56.9079 195.758 56.2633 196.015 55.7881 196.473C55.3129 196.931 55.0459 197.552 55.0459 198.2C55.0459 198.847 55.3129 199.469 55.7881 199.926C56.2633 200.384 56.9079 200.642 57.5799 200.642Z" fill="#F7F7FF"/>
<path d="M69.2547 167.371C68.7536 167.371 68.2636 167.514 67.8469 167.783C67.4302 168.051 67.1054 168.432 66.9136 168.879C66.7218 169.325 66.6716 169.816 66.7694 170.289C66.8672 170.763 67.1085 171.198 67.4629 171.54C67.8173 171.881 68.2688 172.114 68.7604 172.208C69.2519 172.302 69.7614 172.254 70.2245 172.069C70.6875 171.884 71.0833 171.571 71.3617 171.17C71.6402 170.768 71.7888 170.296 71.7888 169.813C71.7783 169.169 71.508 168.553 71.035 168.097C70.562 167.642 69.9236 167.381 69.2547 167.371Z" fill="#F7F7FF"/>
<path d="M94.6424 191.877C94.1412 191.877 93.6513 192.02 93.2346 192.288C92.8179 192.557 92.4931 192.938 92.3013 193.384C92.1095 193.831 92.0593 194.322 92.1571 194.795C92.2549 195.269 92.4962 195.704 92.8506 196.046C93.205 196.387 93.6565 196.62 94.1481 196.714C94.6396 196.808 95.1491 196.76 95.6122 196.575C96.0752 196.39 96.471 196.077 96.7494 195.676C97.0279 195.274 97.1765 194.802 97.1765 194.319C97.166 193.674 96.8957 193.059 96.4227 192.603C95.9497 192.148 95.3112 191.887 94.6424 191.877Z" fill="#F7F7FF"/>
<path d="M74.0531 214.029C73.714 214.019 73.3762 214.075 73.0598 214.193C72.7434 214.311 72.4549 214.49 72.2113 214.717C71.9677 214.945 71.774 215.217 71.6418 215.519C71.5095 215.82 71.4414 216.143 71.4414 216.47C71.4414 216.797 71.5095 217.121 71.6418 217.422C71.774 217.723 71.9677 217.996 72.2113 218.223C72.4549 218.451 72.7434 218.629 73.0598 218.747C73.3762 218.865 73.714 218.921 74.0531 218.911C74.7114 218.892 75.336 218.626 75.7945 218.17C76.253 217.715 76.5095 217.105 76.5095 216.47C76.5095 215.836 76.253 215.226 75.7945 214.77C75.336 214.315 74.7114 214.049 74.0531 214.029Z" fill="#F7F7FF"/>
<path d="M131.698 200.642C132.37 200.642 133.015 200.384 133.49 199.926C133.965 199.469 134.232 198.847 134.232 198.2C134.232 197.552 133.965 196.931 133.49 196.473C133.015 196.015 132.37 195.758 131.698 195.758C131.026 195.758 130.381 196.015 129.906 196.473C129.431 196.931 129.164 197.552 129.164 198.2C129.164 198.847 129.431 199.469 129.906 199.926C130.381 200.384 131.026 200.642 131.698 200.642Z" fill="#F7F7FF"/>
<path d="M156.089 188.996C155.588 188.996 155.098 189.139 154.681 189.408C154.264 189.676 153.939 190.057 153.748 190.504C153.556 190.95 153.506 191.441 153.603 191.914C153.701 192.388 153.942 192.823 154.297 193.165C154.651 193.506 155.103 193.739 155.594 193.833C156.086 193.927 156.595 193.879 157.058 193.694C157.521 193.509 157.917 193.196 158.196 192.795C158.474 192.393 158.623 191.921 158.623 191.438C158.612 190.794 158.342 190.178 157.869 189.722C157.396 189.267 156.758 189.006 156.089 188.996Z" fill="#F7F7FF"/>
<path d="M186.815 199.203C187.487 199.203 188.132 198.946 188.607 198.488C189.082 198.03 189.349 197.409 189.349 196.761C189.349 196.114 189.082 195.493 188.607 195.035C188.132 194.577 187.487 194.319 186.815 194.319C186.143 194.319 185.499 194.577 185.023 195.035C184.548 195.493 184.281 196.114 184.281 196.761C184.281 197.409 184.548 198.03 185.023 198.488C185.499 198.946 186.143 199.203 186.815 199.203Z" fill="#F7F7FF"/>
<path d="M200.254 172.909C200.926 172.909 201.57 172.652 202.046 172.194C202.521 171.736 202.788 171.115 202.788 170.467C202.788 169.82 202.521 169.199 202.046 168.741C201.57 168.283 200.926 168.025 200.254 168.025C199.582 168.025 198.937 168.283 198.462 168.741C197.987 169.199 197.72 169.82 197.72 170.467C197.72 171.115 197.987 171.736 198.462 172.194C198.937 172.652 199.582 172.909 200.254 172.909Z" fill="#F7F7FF"/>
<path d="M107.04 218.87C106.539 218.87 106.049 219.013 105.632 219.282C105.215 219.55 104.891 219.931 104.699 220.378C104.507 220.824 104.457 221.315 104.555 221.788C104.652 222.262 104.894 222.697 105.248 223.039C105.602 223.38 106.054 223.613 106.546 223.707C107.037 223.801 107.547 223.753 108.01 223.568C108.473 223.383 108.868 223.07 109.147 222.669C109.425 222.267 109.574 221.795 109.574 221.312C109.563 220.668 109.293 220.052 108.82 219.596C108.347 219.141 107.709 218.88 107.04 218.87Z" fill="#F7F7FF"/>
<path d="M112.063 171.384C112.735 171.384 113.38 171.127 113.855 170.669C114.33 170.211 114.597 169.59 114.597 168.942C114.597 168.294 114.33 167.673 113.855 167.215C113.38 166.757 112.735 166.5 112.063 166.5C111.391 166.5 110.747 166.757 110.272 167.215C109.796 167.673 109.529 168.294 109.529 168.942C109.529 169.59 109.796 170.211 110.272 170.669C110.747 171.127 111.391 171.384 112.063 171.384Z" fill="#F7F7FF"/>
<path fill-rule="evenodd" clip-rule="evenodd" d="M213.421 60.9305L217.765 49.8982C214.964 46.1171 213.446 41.5929 213.421 36.9472C213.421 23.6909 225.639 12.9639 240.707 12.9639C255.775 12.9639 267.948 23.6909 267.948 36.9472C267.948 50.2034 255.73 60.9305 240.662 60.9305C235.04 60.9597 229.533 59.398 224.824 56.4391L213.421 60.9305ZM231.252 38.377C231.447 38.0959 231.582 37.7807 231.651 37.4492C231.719 37.1177 231.719 36.7764 231.651 36.4449C231.582 36.1134 231.447 35.7981 231.252 35.5171C231.057 35.2361 230.807 34.9948 230.515 34.807C230.223 34.6193 229.896 34.4887 229.552 34.4228C229.208 34.3569 228.854 34.3569 228.51 34.4228C228.166 34.4888 227.839 34.6194 227.547 34.8072C227.256 34.995 227.005 35.2363 226.81 35.5174C226.417 36.085 226.273 36.7799 226.412 37.4494C226.55 38.1189 226.958 38.7081 227.547 39.0873C228.136 39.4665 228.858 39.6047 229.552 39.4715C230.247 39.3383 230.859 38.9446 231.252 38.377ZM243.332 36.9472C243.331 37.4557 243.174 37.9527 242.88 38.3754C242.587 38.798 242.17 39.1275 241.682 39.3221C241.195 39.5168 240.658 39.568 240.14 39.4692C239.623 39.3704 239.147 39.1261 238.773 38.7672C238.463 38.4679 238.234 38.0996 238.107 37.6948C237.979 37.29 237.958 36.8612 238.043 36.4464C238.129 36.0315 238.32 35.6434 238.598 35.3165C238.877 34.9895 239.234 34.7338 239.64 34.5719C240.045 34.41 240.486 34.3469 240.923 34.3883C241.36 34.4297 241.779 34.5742 242.144 34.809C242.509 35.0439 242.809 35.3619 243.016 35.7349C243.223 36.1078 243.331 36.5242 243.332 36.9472ZM254.556 38.377C254.824 37.9895 254.978 37.5392 255.001 37.0741C255.025 36.609 254.917 36.1465 254.689 35.7358C254.461 35.3251 254.122 34.9816 253.708 34.7419C253.294 34.5022 252.82 34.3752 252.336 34.3744C251.808 34.3749 251.292 34.5259 250.853 34.8086C250.414 35.0912 250.072 35.4927 249.869 35.9626C249.72 36.3141 249.652 36.6931 249.673 37.0725C249.693 37.4519 249.799 37.8224 249.985 38.1574C250.171 38.4924 250.432 38.7838 250.748 39.0106C251.064 39.2374 251.428 39.3941 251.815 39.4694C252.333 39.5684 252.869 39.5174 253.357 39.323C253.845 39.1286 254.262 38.7994 254.556 38.377Z" fill="#F7F7FF"/>
<path d="M391.797 163.797C391.796 164.48 391.638 165.154 391.335 165.772C391.031 166.389 390.59 166.934 390.042 167.367C389.494 167.8 388.853 168.111 388.165 168.278C387.478 168.444 386.76 168.462 386.065 168.329C385.174 168.158 384.353 167.747 383.696 167.143C383.038 166.539 382.573 165.768 382.352 164.92C382.132 164.071 382.166 163.179 382.451 162.348C382.736 161.518 383.26 160.782 383.962 160.227C384.664 159.672 385.515 159.321 386.416 159.213C387.317 159.106 388.231 159.248 389.052 159.622C389.873 159.996 390.567 160.587 391.053 161.326C391.539 162.065 391.797 162.922 391.797 163.797Z" fill="#F7F7FF"/>
<path d="M210.028 421.373L168.081 420.335C167.525 420.287 166.97 420.432 166.516 420.744C166.061 421.056 165.738 421.514 165.604 422.036C165.514 422.381 165.51 422.742 165.592 423.089L167.497 430.59C176.125 430.783 184.756 430.433 193.336 429.543C185.474 432.643 177.3 434.951 168.945 436.428L172.837 447.33C172.922 447.675 173.091 447.996 173.331 448.265C173.571 448.534 173.874 448.743 174.216 448.876C174.557 449.008 174.927 449.06 175.293 449.026C175.659 448.992 176.012 448.874 176.321 448.682C189.009 442.632 200.703 434.815 211.029 425.483C211.439 425.237 211.76 424.873 211.944 424.443C212.129 424.012 212.169 423.536 212.057 423.083C211.947 422.629 211.692 422.22 211.328 421.914C210.964 421.607 210.509 421.418 210.028 421.373Z" fill="#F7F7FF"/>
<path d="M293.696 91.627H177.493C173.879 91.6251 170.301 92.3097 166.962 93.6416C163.623 94.9735 160.589 96.9265 158.034 99.389C155.478 101.852 153.452 104.775 152.07 107.993C150.688 111.211 149.978 114.659 149.98 118.142V136.149H162.193V120.712C162.207 118.274 162.728 115.864 163.724 113.624C164.721 111.383 166.174 109.358 167.997 107.668C169.819 105.977 171.975 104.656 174.337 103.783C176.699 102.909 179.218 102.501 181.746 102.581H290.257C292.784 102.505 295.302 102.916 297.661 103.791C300.021 104.666 302.175 105.988 303.996 107.677C305.818 109.367 307.27 111.39 308.268 113.629C309.266 115.868 309.788 118.276 309.806 120.712V237.14L321.209 212.982V118.142C321.211 114.659 320.5 111.211 319.118 107.993C317.736 104.776 315.71 101.852 313.155 99.3897C310.6 96.9273 307.566 94.9742 304.227 93.6422C300.889 92.3103 297.31 91.6254 293.696 91.627Z" fill="#4F56B2"/>
<path d="M309.763 356.357V371.275C309.763 373.749 309.258 376.199 308.276 378.485C307.293 380.77 305.853 382.847 304.038 384.596C302.223 386.346 300.068 387.733 297.696 388.68C295.324 389.626 292.782 390.113 290.215 390.113H181.701C176.517 390.112 171.545 388.128 167.879 384.595C164.214 381.062 162.154 376.271 162.153 371.275V253.769H149.936V374.555C149.934 379.798 151.547 384.924 154.57 389.283C157.593 393.642 161.891 397.039 166.919 399.043C170.258 400.374 173.835 401.06 177.448 401.058H293.697C299.138 401.06 304.458 399.506 308.984 396.593C313.509 393.68 317.036 389.539 319.118 384.694C320.5 381.477 321.211 378.028 321.209 374.546V356.362L309.763 356.357Z" fill="#4F56B2"/>
<path d="M390.848 256.413L386.549 261.253C386.867 259.806 387.019 258.329 387.001 256.849C388.295 256.803 389.581 256.656 390.848 256.413Z" fill="#4F56B2"/>
<path d="M90.8404 156.731C89.4943 155.315 88.7511 153.462 88.7588 151.542C89.7472 152.162 90.7785 152.712 91.8454 153.192C91.1361 154.242 90.7848 155.479 90.8404 156.731Z" fill="#4F56B2"/>
<path d="M62.3773 204.697L61.5985 218.869L58.9287 210.061C59.9314 208.404 61.065 206.666 62.3773 204.697Z" fill="#4F56B2"/>
<path d="M118.534 198.984C118.784 193.866 118.649 188.734 118.127 183.635L124.319 203.083C122.341 201.783 120.411 200.416 118.534 198.984Z" fill="#4F56B2"/>
<path d="M101.61 117.618C101.537 116.882 101.21 116.19 100.682 115.653C100.154 115.116 99.4547 114.765 98.6955 114.654C97.9363 114.544 97.1607 114.682 96.4918 115.045C95.823 115.408 95.2992 115.976 95.0038 116.659H94.5513C94.3193 115.95 93.8482 115.337 93.2129 114.916C92.5775 114.495 91.8144 114.29 91.0447 114.335C90.275 114.38 89.543 114.671 88.9649 115.163C88.3868 115.655 87.9959 116.319 87.8542 117.049H87.6732C87.4403 116.229 86.8902 115.525 86.1358 115.083C85.3815 114.641 84.4801 114.495 83.617 114.673C82.7539 114.852 81.9946 115.342 81.495 116.044C80.9954 116.745 80.7935 117.604 80.9308 118.445C80.6608 117.6 80.0538 116.894 79.2434 116.481C78.433 116.068 77.4855 115.982 76.6094 116.242C75.7333 116.503 75.0004 117.088 74.5718 117.869C74.1433 118.649 74.0542 119.563 74.3242 120.407C76.1064 125.577 77.6166 130.831 78.8493 136.149C80.3426 143.126 81.1118 150.626 78.8493 154.509C83.3291 148.186 84.4604 141.82 83.7364 141.122C76.7678 134.496 82.9219 128.302 86.1347 133.055C87.6732 135.322 88.5782 135.322 89.0759 134.016C91.1575 127.212 101.067 117.795 104.556 132.139L101.61 117.618Z" fill="#4F56B2"/>
<path d="M396.912 155.946C396.894 156.357 396.713 156.746 396.406 157.032C396.098 157.318 395.688 157.478 395.261 157.479C394.833 157.48 394.422 157.32 394.114 157.034C393.806 156.748 393.624 156.358 393.608 155.946C393.626 155.535 393.807 155.145 394.115 154.86C394.423 154.574 394.834 154.414 395.261 154.413C395.689 154.413 396.099 154.573 396.407 154.859C396.715 155.145 396.896 155.535 396.912 155.946Z" fill="#4F56B2"/>
<path d="M414.648 246.253C415.427 243.804 415.884 241.268 416.006 238.709C416.549 222.873 399.851 219.217 388.177 228.505C394.557 224.581 398.222 234.174 397.589 240.061C397.589 241.098 397.956 242.067 400.711 240.29C405.553 237.063 408.766 245.043 399.716 248.619C397.996 249.273 396.143 257.471 398.268 267.588C399.082 271.597 401.028 272.178 404.965 273.387C415.792 276.43 426.609 283.779 434.423 290.917C455.102 251.922 414.603 246.253 414.648 246.253Z" fill="#4F56B2"/>
<path d="M396.911 155.947C396.894 156.358 396.712 156.747 396.405 157.033C396.097 157.319 395.687 157.479 395.26 157.48C394.832 157.481 394.421 157.321 394.113 157.035C393.805 156.749 393.623 156.359 393.607 155.947C393.625 155.536 393.806 155.146 394.114 154.861C394.422 154.575 394.833 154.415 395.26 154.414C395.688 154.414 396.098 154.574 396.406 154.86C396.714 155.146 396.895 155.536 396.911 155.947Z" stroke="#252B4A"/>
<path d="M364.738 338.739L357.271 356.356" stroke="#252B4A" stroke-linecap="round" stroke-linejoin="round"/>
<path d="M162.194 136.148V120.67C162.206 118.231 162.726 115.82 163.722 113.578C164.718 111.336 166.17 109.309 167.993 107.618C169.816 105.926 171.973 104.604 174.335 103.73C176.698 102.856 179.218 102.447 181.747 102.528H290.258C292.786 102.451 295.305 102.863 297.665 103.739C300.025 104.614 302.18 105.937 304.001 107.627C305.823 109.318 307.275 111.343 308.272 113.583C309.269 115.823 309.791 118.233 309.807 120.67V237.139" stroke="#252B4A" stroke-linecap="round" stroke-linejoin="round"/>
<path d="M321.195 212.94V118.099C321.192 114.617 320.48 111.168 319.097 107.955C317.009 103.112 313.478 98.9749 308.951 96.0656C304.423 93.1563 299.103 91.6055 293.661 91.6094H177.448C173.833 91.6103 170.254 92.2974 166.916 93.6313C163.577 94.9653 160.543 96.9201 157.988 99.384C155.433 101.848 153.407 104.773 152.026 107.991C150.644 111.21 149.934 114.659 149.936 118.142V136.149" stroke="#252B4A" stroke-linecap="round" stroke-linejoin="round"/>
<path d="M380.258 238.753H344.781" stroke="#252B4A" stroke-linecap="round" stroke-linejoin="round"/>
<path d="M415.963 238.73H438.724C440.095 238.728 441.453 238.987 442.72 239.492C443.989 239.996 445.141 240.736 446.112 241.67C447.084 242.603 447.855 243.711 448.381 244.932C448.907 246.152 449.178 247.461 449.177 248.783V306.561" stroke="#252B4A" stroke-linecap="round" stroke-linejoin="round"/>
<path d="M309.047 238.753H302.021L271.894 229.813L281.487 258.157V346.287C281.489 348.958 282.591 351.519 284.551 353.407C286.511 355.296 289.168 356.358 291.94 356.36H399.715" stroke="#252B4A" stroke-linecap="round" stroke-linejoin="round"/>
<path d="M190.752 168.109V146.221C190.751 143.55 189.65 140.988 187.689 139.099C185.729 137.21 183.071 136.149 180.299 136.148H105.23" stroke="#252B4A" stroke-linecap="round" stroke-linejoin="round"/>
<path d="M309.805 356.356V371.274C309.805 373.748 309.3 376.198 308.318 378.484C307.335 380.769 305.895 382.846 304.08 384.595C302.265 386.345 300.11 387.732 297.738 388.679C295.366 389.625 292.824 390.112 290.257 390.112H181.701C176.516 390.111 171.544 388.127 167.879 384.594C164.213 381.061 162.153 376.27 162.152 371.274V253.768" stroke="#252B4A" stroke-linecap="round" stroke-linejoin="round"/>
<path d="M149.936 253.754V374.54C149.934 378.023 150.644 381.471 152.026 384.689C153.408 387.907 155.434 390.83 157.989 393.293C160.544 395.756 163.578 397.709 166.917 399.041C170.256 400.373 173.834 401.059 177.448 401.057H293.697C299.138 401.059 304.458 399.505 308.984 396.592C313.509 393.679 317.036 389.538 319.118 384.694C320.5 381.476 321.211 378.027 321.209 374.545V356.361" stroke="#252B4A" stroke-linecap="round" stroke-linejoin="round"/>
<path d="M78.7582 136.148H33.4624C30.6917 136.151 28.0355 137.214 26.077 139.103C24.1186 140.991 23.0179 143.551 23.0166 146.221V206.581" stroke="#252B4A" stroke-linecap="round" stroke-linejoin="round"/>
<path d="M136.905 253.754H170.207L200.299 262.649L190.751 234.349V201.993" stroke="#252B4A" stroke-linecap="round" stroke-linejoin="round"/>
<path d="M241.567 401.059C232.325 410.862 221.117 418.758 208.618 424.268C196.12 429.779 182.592 432.789 168.852 433.118C155.112 433.447 141.446 431.088 128.679 426.182C115.912 421.277 104.31 413.927 94.5749 404.578C84.8394 395.229 77.1726 384.074 72.0378 371.789C66.9031 359.503 64.4072 346.341 64.701 333.1C64.9947 319.858 68.0721 306.811 73.747 294.748C79.422 282.685 87.5765 271.857 97.7178 262.917" stroke="#252B4A" stroke-linecap="round" stroke-linejoin="round"/>
<path d="M210.028 421.373L168.081 420.335C167.525 420.287 166.97 420.432 166.516 420.744C166.061 421.056 165.738 421.514 165.604 422.036C165.514 422.381 165.51 422.742 165.592 423.089L167.497 430.59C176.125 430.783 184.756 430.433 193.336 429.543C185.474 432.643 177.3 434.951 168.945 436.428L172.837 447.33C172.922 447.675 173.091 447.996 173.331 448.265C173.571 448.534 173.874 448.743 174.216 448.876C174.557 449.008 174.927 449.06 175.293 449.026C175.659 448.992 176.012 448.874 176.321 448.682C189.009 442.632 200.703 434.815 211.029 425.483C211.439 425.237 211.76 424.873 211.944 424.443C212.129 424.012 212.169 423.536 212.057 423.083C211.947 422.629 211.692 422.22 211.328 421.914C210.964 421.607 210.509 421.418 210.028 421.373Z" stroke="#252B4A" stroke-linecap="round" stroke-linejoin="round"/>
<path d="M386.999 256.807C388.291 256.783 389.578 256.651 390.846 256.414L386.547 261.211" stroke="#252B4A" stroke-linecap="round" stroke-linejoin="round"/>
<path d="M356.592 302.941C341.207 299.48 326.588 293.396 313.426 284.976C307.799 281.524 303.654 276.233 301.75 270.073C299.846 263.913 300.313 257.298 303.063 251.443L325.098 204.699C336.563 205.445 345.842 207.605 354.33 217.168L335.515 259.728C343.977 264.481 354.43 269.5 364.114 271.327C377.393 273.831 387.01 269.831 387.01 256.806C380.992 256.981 371.037 254.844 381.445 236.573C391.852 218.302 398.776 232.442 397.916 240.149C397.961 241.5 398.685 241.849 401.038 240.279C405.88 237.05 409.116 245.099 400.043 248.608C398.328 249.274 396.47 257.463 398.595 267.577C400.216 275.251 405.794 270.407 422.215 281.347C440.456 293.511 453.636 311.119 461.674 324.21C464.549 328.885 465.609 334.393 464.664 339.751C463.72 345.11 460.832 349.971 456.515 353.469L416.197 385.999C410.442 384.293 405.311 381.04 401.408 376.622C397.504 372.203 394.99 366.804 394.16 361.057L430.122 331.099L408.945 309.429" stroke="#252B4A" stroke-linecap="round" stroke-linejoin="round"/>
<path d="M90.8413 156.73C89.4952 155.314 88.7521 153.461 88.7598 151.541C89.7482 152.161 90.7794 152.711 91.8464 153.191" stroke="#252B4A" stroke-linecap="round" stroke-linejoin="round"/>
<path d="M89.0316 134.013C91.1132 127.21 101.068 117.791 104.512 132.138L105.281 136.76C107.68 157.874 97.272 155.641 91.8419 153.199C91.8419 153.199 88.0457 158.609 94.9976 159.731C96.1122 159.91 96.8695 159.926 97.141 159.961C91.711 167.635 81.6606 168.115 68.4521 163.798C80.7341 157.092 85.1544 142.608 83.6564 141.166C76.7497 134.529 82.8371 128.349 86.0546 133.099C87.5908 135.369 88.4077 135.323 88.9959 134.102L89.0316 134.013Z" stroke="#252B4A" stroke-linecap="round" stroke-linejoin="round"/>
<path d="M58.916 210.184C60.0471 208.343 61.2007 206.514 62.3765 204.699L61.5977 218.915" stroke="#252B4A" stroke-linecap="round" stroke-linejoin="round"/>
<path d="M118.534 198.984C118.784 193.866 118.649 188.734 118.127 183.635L124.319 203.083" stroke="#252B4A" stroke-linecap="round" stroke-linejoin="round"/>
<path d="M68.4408 163.794C66.0048 165.142 63.385 166.155 60.6576 166.803C35.7246 172.864 22.2851 204.304 15.8715 227.023C14.2049 232.914 14.9465 239.197 17.9435 244.577C20.9405 249.957 25.9646 254.024 31.9807 255.941C49.6292 261.413 67.9886 264.466 86.5196 265.011C91.6826 256.672 93.2425 246.713 90.8636 237.277C76.8095 236.105 62.8923 233.724 49.2783 230.163C51.8583 223.232 55.0926 216.544 58.9405 210.182C62.3272 221.173 61.0316 216.939 64.6564 228.898C79.5891 231.253 97.1916 232.299 113.799 228.244C116.465 218.683 118.058 208.873 118.55 198.984C126.635 205.159 135.693 210.047 145.381 213.462C149.111 214.866 153.095 215.535 157.097 215.43C161.1 215.325 165.04 214.448 168.685 212.851C185.03 205.677 195.247 200.293 215.112 185.946C215.248 174.565 209.999 166.629 199.229 162.225C186.559 171.338 171.536 180.67 157.735 185.946C148.169 179.054 138.064 172.887 127.509 167.501C115.882 162.041 99.5446 160.262 97.1463 159.957" stroke="#252B4A" stroke-linecap="round" stroke-linejoin="round"/>
<path d="M339.399 184.35C339.59 183.827 339.907 183.356 340.324 182.974C340.741 182.592 341.246 182.311 341.798 182.154C344.194 181.543 347.723 186.383 346.592 192.619C346.008 196.004 343.539 197.533 342.133 192.429" stroke="#252B4A" stroke-linecap="round" stroke-linejoin="round"/>
<path d="M344.283 183.199C344.683 182.819 345.183 182.545 345.731 182.415C348.134 181.82 351.795 185.336 350.935 191.659C350.487 194.943 348.439 195.744 346.729 191.684" stroke="#252B4A" stroke-linecap="round" stroke-linejoin="round"/>
<path d="M327.543 204.832C332.928 195.5 332.516 192.884 333.923 188.436C334.6 186.299 335.548 184.415 337.496 183.944C339.877 183.366 342.909 187.256 342.021 193.354C341.654 195.879 338.132 195.36 337.496 188.95" stroke="#252B4A" stroke-linecap="round" stroke-linejoin="round"/>
<path d="M352.7 215.468C354.419 211.849 366.415 190.737 365.053 190.133C363.565 189.472 355.46 196.413 355.46 196.413C355.46 196.413 345.957 197.677 346.591 203.527" stroke="#252B4A" stroke-linecap="round" stroke-linejoin="round"/>
<path d="M355.416 196.412C359.398 181.194 356.369 168.413 355.552 170.685C354.009 174.999 352.113 186.521 350.937 191.616" stroke="#252B4A" stroke-linecap="round" stroke-linejoin="round"/>
<path d="M335.326 191.615C336.23 191.381 337.188 191.437 338.055 191.773" stroke="#252B4A" stroke-linecap="round" stroke-linejoin="round"/>
<path d="M204.733 164.973C213.422 162.836 257.405 168.461 255.505 172.604C244.599 174.21 228.23 172.622 218.806 177.836C218.173 178.188 215.948 179.673 214.734 180.496" stroke="#252B4A" stroke-linecap="round" stroke-linejoin="round"/>
<path d="M205.956 164.754C222.88 160.917 241.614 139.55 225.866 161.178C224.373 163.577 223.649 164.928 225.776 165.408" stroke="#252B4A" stroke-linecap="round" stroke-linejoin="round"/>
<path d="M219.44 177.488C228.038 174.218 273.153 185.163 241.839 173.563" stroke="#252B4A" stroke-linecap="round" stroke-linejoin="round"/>
<path d="M219.485 177.443C223.058 175.607 257.27 188.918 239.169 177.922" stroke="#252B4A" stroke-linecap="round" stroke-linejoin="round"/>
<path d="M114.471 253.754C121.439 257.426 123.888 264.008 121.53 265.789C120.334 266.39 118.97 266.604 117.638 266.4" stroke="#252B4A" stroke-linecap="round" stroke-linejoin="round"/>
<path d="M117.089 249.873C124.057 253.545 126.494 260.111 124.148 261.908C123.585 262.258 122.954 262.493 122.293 262.597" stroke="#252B4A" stroke-linecap="round" stroke-linejoin="round"/>
<path d="M87.4453 263.436C95.3812 262.06 103.561 262.955 110.976 266.009" stroke="#252B4A" stroke-linecap="round" stroke-linejoin="round"/>
<path d="M110.526 257.548C117.132 261.298 118.887 266.565 116.68 268.493C114.091 270.749 105.412 269.583 102.969 263.609" stroke="#252B4A" stroke-linecap="round" stroke-linejoin="round"/>
<path d="M91.0674 238.667C96.95 238.493 119.671 239.496 119.756 241.153C119.854 243.071 114.462 244.161 114.462 244.161" stroke="#252B4A" stroke-linecap="round" stroke-linejoin="round"/>
<path d="M91.1113 238.71C98.5015 239.224 105.765 240.828 112.651 243.463C112.651 243.463 131.303 250.348 139.753 252.141C142.564 252.735 134.514 255.934 120.615 252.315" stroke="#252B4A" stroke-linecap="round" stroke-linejoin="round"/>
<path d="M64.6413 228.898C62.9021 229.9 61.3683 231.201 60.1162 232.736" stroke="#252B4A" stroke-linecap="round" stroke-linejoin="round"/>
<path d="M113.782 228.246L115.456 239.932" stroke="#252B4A" stroke-linecap="round" stroke-linejoin="round"/>
<path d="M412.568 313.187C409.536 320.688 405.916 331.633 407.09 338.871C393.204 342.403 378.598 342.358 364.735 338.741C352.744 313.144 355.278 294.744 362.971 282.282" stroke="#252B4A" stroke-linecap="round" stroke-linejoin="round"/>
<path d="M387.929 228.699C401.292 217.871 421.424 224.084 414.603 246.265C414.603 246.265 455.09 251.934 434.423 290.918" stroke="#252B4A" stroke-linecap="round" stroke-linejoin="round"/>
<path d="M407.093 338.861C409.865 340.17 412.352 341.976 414.423 344.181" stroke="#252B4A" stroke-linecap="round" stroke-linejoin="round"/>
<path d="M405.236 273.464L398.63 287.985C398.216 288.882 397.512 289.626 396.623 290.106C395.734 290.585 394.707 290.775 393.697 290.645L376.366 288.334C375.311 288.19 374.337 287.706 373.604 286.96C372.871 286.214 372.422 285.251 372.33 284.228C372.266 283.55 372.362 282.866 372.611 282.229L376.909 271.371" stroke="#252B4A" stroke-linecap="round" stroke-linejoin="round"/>
<path d="M104.552 132.138L101.521 117.574C101.409 116.832 101.051 116.144 100.499 115.615C99.9477 115.087 99.2328 114.745 98.4621 114.641C97.6915 114.538 96.9068 114.678 96.2261 115.041C95.5455 115.405 95.0056 115.971 94.6879 116.656C94.419 115.94 93.9177 115.328 93.2585 114.909C92.5992 114.49 91.8173 114.288 91.0291 114.332C90.2409 114.376 89.4886 114.664 88.8841 115.154C88.2795 115.643 87.8551 116.308 87.674 117.048C87.4372 116.22 86.8812 115.51 86.1195 115.063C85.3578 114.617 84.448 114.467 83.5758 114.645C82.7036 114.823 81.9348 115.316 81.4266 116.022C80.9184 116.728 80.709 117.594 80.8412 118.443C80.5513 117.623 79.9409 116.943 79.1394 116.549C78.338 116.155 77.4087 116.077 76.5489 116.332C75.6891 116.588 74.9664 117.156 74.5343 117.917C74.1022 118.677 73.9947 119.57 74.2346 120.406C76.0167 125.576 77.527 130.83 78.7597 136.147C80.2315 143.033 81.0008 150.418 78.8525 154.343" stroke="#252B4A" stroke-linecap="round" stroke-linejoin="round"/>
<path d="M231.703 36.9469C231.703 37.6296 231.422 38.2843 230.921 38.767C230.42 39.2497 229.741 39.5209 229.032 39.5209C228.324 39.5209 227.645 39.2497 227.144 38.767C226.643 38.2843 226.361 37.6296 226.361 36.9469C226.361 36.2643 226.643 35.6096 227.144 35.1269C227.645 34.6442 228.324 34.373 229.032 34.373C229.741 34.373 230.42 34.6442 230.921 35.1269C231.422 35.6096 231.703 36.2643 231.703 36.9469Z" stroke="#252B4A" stroke-linecap="round" stroke-linejoin="round"/>
<path d="M243.333 36.9482C243.332 37.4568 243.175 37.9537 242.881 38.3764C242.588 38.799 242.171 39.1285 241.683 39.3231C241.196 39.5178 240.659 39.569 240.142 39.4702C239.624 39.3714 239.148 39.1272 238.774 38.7682C238.464 38.4689 238.235 38.1006 238.108 37.6958C237.981 37.291 237.959 36.8622 238.045 36.4474C238.13 36.0325 238.321 35.6444 238.599 35.3175C238.878 34.9905 239.236 34.7348 239.641 34.5729C240.047 34.411 240.487 34.3479 240.924 34.3893C241.361 34.4307 241.78 34.5752 242.145 34.8101C242.51 35.0449 242.81 35.3629 243.017 35.7359C243.224 36.1088 243.332 36.5252 243.333 36.9482Z" stroke="#252B4A" stroke-linecap="round" stroke-linejoin="round"/>
<path d="M255.006 36.9473C255.006 37.4558 254.849 37.9528 254.555 38.3754C254.262 38.7981 253.845 39.1275 253.357 39.3222C252.87 39.5169 252.333 39.568 251.815 39.4693C251.298 39.3705 250.822 39.1262 250.448 38.7672C250.17 38.4976 249.957 38.1721 249.825 37.814C249.693 37.456 249.644 37.0741 249.683 36.6958C249.722 36.3176 249.846 35.9522 250.049 35.6259C250.251 35.2996 250.526 35.0204 250.853 34.8083C251.367 34.4789 251.983 34.3309 252.597 34.3895C253.212 34.448 253.786 34.7095 254.223 35.1296C254.723 35.6115 255.004 36.2656 255.006 36.9473Z" stroke="#252B4A" stroke-linecap="round" stroke-linejoin="round"/>
<path d="M395.826 150.626H378.133C376.86 150.626 375.64 151.113 374.741 151.98C373.841 152.847 373.336 154.022 373.336 155.248V172.298C373.336 174.85 375.484 176.92 378.133 176.92H395.826C397.098 176.92 398.318 176.433 399.217 175.567C400.117 174.7 400.622 173.524 400.622 172.298V155.248C400.622 154.022 400.117 152.847 399.217 151.98C398.318 151.113 397.098 150.626 395.826 150.626Z" stroke="#252B4A" stroke-linecap="round" stroke-linejoin="round"/>
<path d="M391.797 163.797C391.796 164.48 391.638 165.154 391.335 165.772C391.031 166.389 390.59 166.934 390.042 167.367C389.494 167.8 388.853 168.111 388.165 168.278C387.478 168.444 386.76 168.462 386.065 168.329C385.174 168.158 384.353 167.747 383.696 167.143C383.038 166.539 382.573 165.768 382.352 164.92C382.132 164.071 382.166 163.179 382.451 162.348C382.736 161.518 383.26 160.782 383.962 160.227C384.664 159.672 385.515 159.321 386.416 159.213C387.317 159.106 388.231 159.248 389.052 159.622C389.873 159.996 390.567 160.587 391.053 161.326C391.539 162.065 391.797 162.922 391.797 163.797Z" stroke="#252B4A" stroke-linecap="round" stroke-linejoin="round"/>
<path d="M348.219 378.727C348.219 379.478 347.988 380.212 347.555 380.834C347.124 381.459 346.51 381.947 345.79 382.234C345.071 382.521 344.279 382.596 343.516 382.448C342.752 382.301 342.051 381.939 341.5 381.409C340.95 380.878 340.574 380.202 340.422 379.466C340.318 378.949 340.328 378.415 340.45 377.901C340.572 377.387 340.804 376.903 341.132 376.48C341.459 376.057 341.874 375.705 342.351 375.446C342.828 375.187 343.355 375.026 343.9 374.974C344.445 374.923 344.995 374.981 345.515 375.146C346.035 375.311 346.513 375.578 346.92 375.932C347.326 376.285 347.652 376.716 347.876 377.197C348.099 377.679 348.216 378.2 348.219 378.727Z" stroke="#252B4A" stroke-linecap="round" stroke-linejoin="round"/>
<path d="M124.257 93.5488V112.387" stroke="#252B4A" stroke-linecap="round" stroke-linejoin="round"/>
<path d="M134.01 102.967H114.462" stroke="#252B4A" stroke-linecap="round" stroke-linejoin="round"/>
<path d="M396.865 378.944C392.54 383.877 388.848 389.294 385.869 395.079C384.075 397.928 382.604 400.954 381.48 404.105C378.295 412.996 380.972 412.776 385.824 405.806C398.153 388.088 403.969 386.357 408.449 382.52" stroke="#252B4A" stroke-linecap="round" stroke-linejoin="round"/>
<path d="M382.476 401.489C379.58 403.419 376.432 404.972 373.114 406.107C372.161 406.354 370.673 405.629 375.286 401.79C376.281 400.961 380.397 397.381 381.802 396.034C384.74 393.44 387.523 390.689 390.138 387.792" stroke="#252B4A" stroke-linecap="round" stroke-linejoin="round"/>
<path d="M393.56 383C395.506 379.076 386.094 381.683 381.976 382.312C378.266 382.872 373.879 382.188 383.198 377.777C388.064 375.526 392.5 372.5 396.321 368.826" stroke="#252B4A" stroke-linecap="round" stroke-linejoin="round"/>
<path d="M217.765 49.8982L213.421 60.9305L224.824 56.4391C229.533 59.398 235.04 60.9597 240.662 60.9305C255.73 60.9305 267.948 50.2034 267.948 36.9472C267.948 23.6909 255.775 12.9639 240.707 12.9639C225.639 12.9639 213.421 23.6909 213.421 36.9472C213.446 41.5929 214.964 46.1171 217.765 49.8982Z" stroke="#252B4A" stroke-linecap="round" stroke-linejoin="round"/>
<path d="M430.126 331.109L433.565 328.536" stroke="#252B4A" stroke-linecap="round" stroke-linejoin="round"/>
<path d="M157.718 185.947L161.338 188.433" stroke="#252B4A" stroke-linecap="round" stroke-linejoin="round"/>
<path d="M49.2088 230.121L47.4893 234.089" stroke="#252B4A" stroke-linecap="round" stroke-linejoin="round"/>
<path d="M81.7466 240.673C81.2452 240.672 80.7548 240.815 80.3377 241.083C79.9205 241.351 79.5954 241.733 79.4036 242.179C79.2117 242.626 79.1618 243.117 79.2601 243.591C79.3583 244.065 79.6004 244.5 79.9557 244.841C80.2199 245.097 80.5402 245.294 80.8931 245.416C81.246 245.539 81.6228 245.584 81.9961 245.548C82.3694 245.513 82.7298 245.398 83.0512 245.212C83.3726 245.025 83.647 244.772 83.8544 244.471C84.133 244.07 84.2807 243.597 84.2807 243.115C84.269 242.471 83.9983 241.856 83.5256 241.4C83.0529 240.945 82.4151 240.684 81.7466 240.673Z" stroke="#252B4A"/>
<path d="M44.9559 254.016C45.628 254.016 46.2725 253.758 46.7477 253.3C47.223 252.843 47.4899 252.221 47.4899 251.574C47.4899 250.926 47.223 250.305 46.7477 249.847C46.2725 249.389 45.628 249.132 44.9559 249.132C44.2838 249.132 43.6393 249.389 43.1641 249.847C42.6889 250.305 42.4219 250.926 42.4219 251.574C42.4219 252.221 42.6889 252.843 43.1641 253.3C43.6393 253.758 44.2838 254.016 44.9559 254.016Z" stroke="#252B4A"/>
<path d="M27.0379 221.355C27.71 221.355 28.3545 221.097 28.8298 220.639C29.305 220.181 29.572 219.56 29.572 218.913C29.572 218.265 29.305 217.644 28.8298 217.186C28.3545 216.728 27.71 216.471 27.0379 216.471C26.3659 216.471 25.7213 216.728 25.2461 217.186C24.7709 217.644 24.5039 218.265 24.5039 218.913C24.5039 219.56 24.7709 220.181 25.2461 220.639C25.7213 221.097 26.3659 221.355 27.0379 221.355Z" stroke="#252B4A"/>
<path d="M57.5799 200.642C58.252 200.642 58.8965 200.384 59.3718 199.926C59.847 199.469 60.114 198.847 60.114 198.2C60.114 197.552 59.847 196.931 59.3718 196.473C58.8965 196.015 58.252 195.758 57.5799 195.758C56.9079 195.758 56.2633 196.015 55.7881 196.473C55.3129 196.931 55.0459 197.552 55.0459 198.2C55.0459 198.847 55.3129 199.469 55.7881 199.926C56.2633 200.384 56.9079 200.642 57.5799 200.642Z" stroke="#252B4A"/>
<path d="M69.2547 167.371C68.7536 167.371 68.2636 167.514 67.8469 167.783C67.4302 168.051 67.1054 168.432 66.9136 168.879C66.7218 169.325 66.6716 169.816 66.7694 170.289C66.8672 170.763 67.1085 171.198 67.4629 171.54C67.8173 171.881 68.2688 172.114 68.7604 172.208C69.2519 172.302 69.7614 172.254 70.2245 172.069C70.6875 171.884 71.0833 171.571 71.3617 171.17C71.6402 170.768 71.7888 170.296 71.7888 169.813C71.7783 169.169 71.508 168.553 71.035 168.097C70.562 167.642 69.9236 167.381 69.2547 167.371Z" stroke="#252B4A"/>
<path d="M94.6424 191.877C94.1412 191.877 93.6513 192.02 93.2346 192.288C92.8179 192.557 92.4931 192.938 92.3013 193.384C92.1095 193.831 92.0593 194.322 92.1571 194.795C92.2549 195.269 92.4962 195.704 92.8506 196.046C93.205 196.387 93.6565 196.62 94.1481 196.714C94.6396 196.808 95.1491 196.76 95.6122 196.575C96.0752 196.39 96.471 196.077 96.7494 195.676C97.0279 195.274 97.1765 194.802 97.1765 194.319C97.166 193.674 96.8957 193.059 96.4227 192.603C95.9497 192.148 95.3112 191.887 94.6424 191.877Z" stroke="#252B4A"/>
<path d="M74.0531 214.029C73.714 214.019 73.3762 214.075 73.0598 214.193C72.7434 214.311 72.4549 214.49 72.2113 214.717C71.9677 214.945 71.774 215.217 71.6418 215.519C71.5095 215.82 71.4414 216.143 71.4414 216.47C71.4414 216.797 71.5095 217.121 71.6418 217.422C71.774 217.723 71.9677 217.996 72.2113 218.223C72.4549 218.451 72.7434 218.629 73.0598 218.747C73.3762 218.865 73.714 218.921 74.0531 218.911C74.7114 218.892 75.336 218.626 75.7945 218.17C76.253 217.715 76.5095 217.105 76.5095 216.47C76.5095 215.836 76.253 215.226 75.7945 214.77C75.336 214.315 74.7114 214.049 74.0531 214.029Z" stroke="#252B4A"/>
<path d="M131.698 200.642C132.37 200.642 133.015 200.384 133.49 199.926C133.965 199.469 134.232 198.847 134.232 198.2C134.232 197.552 133.965 196.931 133.49 196.473C133.015 196.015 132.37 195.758 131.698 195.758C131.026 195.758 130.381 196.015 129.906 196.473C129.431 196.931 129.164 197.552 129.164 198.2C129.164 198.847 129.431 199.469 129.906 199.926C130.381 200.384 131.026 200.642 131.698 200.642Z" stroke="#252B4A"/>
<path d="M156.089 188.996C155.588 188.996 155.098 189.139 154.681 189.408C154.264 189.676 153.939 190.057 153.748 190.504C153.556 190.95 153.506 191.441 153.603 191.914C153.701 192.388 153.942 192.823 154.297 193.165C154.651 193.506 155.103 193.739 155.594 193.833C156.086 193.927 156.595 193.879 157.058 193.694C157.521 193.509 157.917 193.196 158.196 192.795C158.474 192.393 158.623 191.921 158.623 191.438C158.612 190.794 158.342 190.178 157.869 189.722C157.396 189.267 156.758 189.006 156.089 188.996Z" stroke="#252B4A"/>
<path d="M186.815 199.203C187.487 199.203 188.132 198.946 188.607 198.488C189.082 198.03 189.349 197.409 189.349 196.761C189.349 196.114 189.082 195.493 188.607 195.035C188.132 194.577 187.487 194.319 186.815 194.319C186.143 194.319 185.499 194.577 185.023 195.035C184.548 195.493 184.281 196.114 184.281 196.761C184.281 197.409 184.548 198.03 185.023 198.488C185.499 198.946 186.143 199.203 186.815 199.203Z" stroke="#252B4A"/>
<path d="M200.254 172.909C200.926 172.909 201.57 172.652 202.046 172.194C202.521 171.736 202.788 171.115 202.788 170.467C202.788 169.82 202.521 169.199 202.046 168.741C201.57 168.283 200.926 168.025 200.254 168.025C199.582 168.025 198.937 168.283 198.462 168.741C197.987 169.199 197.72 169.82 197.72 170.467C197.72 171.115 197.987 171.736 198.462 172.194C198.937 172.652 199.582 172.909 200.254 172.909Z" stroke="#252B4A"/>
<path d="M107.04 218.87C106.539 218.87 106.049 219.013 105.632 219.282C105.215 219.55 104.891 219.931 104.699 220.378C104.507 220.824 104.457 221.315 104.555 221.788C104.652 222.262 104.894 222.697 105.248 223.039C105.602 223.38 106.054 223.613 106.546 223.707C107.037 223.801 107.547 223.753 108.01 223.568C108.473 223.383 108.868 223.07 109.147 222.669C109.425 222.267 109.574 221.795 109.574 221.312C109.563 220.668 109.293 220.052 108.82 219.596C108.347 219.141 107.709 218.88 107.04 218.87Z" stroke="#252B4A"/>
<path d="M112.063 171.384C112.735 171.384 113.38 171.127 113.855 170.669C114.33 170.211 114.597 169.59 114.597 168.942C114.597 168.294 114.33 167.673 113.855 167.215C113.38 166.757 112.735 166.5 112.063 166.5C111.391 166.5 110.747 166.757 110.272 167.215C109.796 167.673 109.529 168.294 109.529 168.942C109.529 169.59 109.796 170.211 110.272 170.669C110.747 171.127 111.391 171.384 112.063 171.384Z" stroke="#252B4A"/>
</svg>
