<svg width="42" height="42" viewBox="0 0 42 42" fill="none" xmlns="http://www.w3.org/2000/svg">
<g id="solar:document-bold">
<path id="Vector" fill-rule="evenodd" clip-rule="evenodd" d="M7.301 7.0959C5.25 8.94023 5.25 11.9107 5.25 17.85V24.15C5.25 30.0893 5.25 33.0598 7.301 34.9041C9.35025 36.75 12.6508 36.75 19.25 36.75H22.75C29.3493 36.75 32.6497 36.75 34.699 34.9041C36.75 33.0598 36.75 30.0893 36.75 24.15V17.85C36.75 11.9107 36.75 8.94023 34.699 7.0959C32.6497 5.25 29.3493 5.25 22.75 5.25H19.25C12.6508 5.25 9.35025 5.25 7.301 7.0959ZM14 16.6688C13.6519 16.6688 13.3181 16.7932 13.0719 17.0147C12.8258 17.2363 12.6875 17.5367 12.6875 17.85C12.6875 18.1633 12.8258 18.4637 13.0719 18.6853C13.3181 18.9068 13.6519 19.0312 14 19.0312H28C28.3481 19.0312 28.6819 18.9068 28.9281 18.6853C29.1742 18.4637 29.3125 18.1633 29.3125 17.85C29.3125 17.5367 29.1742 17.2363 28.9281 17.0147C28.6819 16.7932 28.3481 16.6688 28 16.6688H14ZM14 22.9688C13.6519 22.9688 13.3181 23.0932 13.0719 23.3147C12.8258 23.5363 12.6875 23.8367 12.6875 24.15C12.6875 24.4633 12.8258 24.7637 13.0719 24.9853C13.3181 25.2068 13.6519 25.3313 14 25.3313H22.75C23.0981 25.3313 23.4319 25.2068 23.6781 24.9853C23.9242 24.7637 24.0625 24.4633 24.0625 24.15C24.0625 23.8367 23.9242 23.5363 23.6781 23.3147C23.4319 23.0932 23.0981 22.9688 22.75 22.9688H14Z" fill="#4F56B2"/>
</g>
</svg>
