<svg width="42" height="42" viewBox="0 0 42 42" fill="none" xmlns="http://www.w3.org/2000/svg">
<g id="mdi:edit-box">
<path id="Vector" d="M33.25 5.25C34.1783 5.25 35.0685 5.61875 35.7249 6.27513C36.3813 6.9315 36.75 7.82174 36.75 8.75V33.25C36.75 34.1783 36.3813 35.0685 35.7249 35.7249C35.0685 36.3813 34.1783 36.75 33.25 36.75H8.75C7.82174 36.75 6.9315 36.3813 6.27513 35.7249C5.61875 35.0685 5.25 34.1783 5.25 33.25V8.75C5.25 7.82174 5.61875 6.9315 6.27513 6.27513C6.9315 5.61875 7.82174 5.25 8.75 5.25H33.25ZM29.225 16.3625C29.61 15.995 29.61 15.3825 29.225 15.015L26.985 12.775C26.8981 12.6838 26.7935 12.6113 26.6777 12.5617C26.5619 12.5121 26.4372 12.4865 26.3112 12.4865C26.1853 12.4865 26.0606 12.5121 25.9448 12.5617C25.829 12.6113 25.7244 12.6838 25.6375 12.775L23.8875 14.525L27.475 18.1125L29.225 16.3625ZM12.25 26.145V29.75H15.855L26.46 19.145L22.855 15.54L12.25 26.145Z" fill="#4F56B2"/>
</g>
</svg>
