<svg width="60" height="60" viewBox="0 0 60 60" fill="none" xmlns="http://www.w3.org/2000/svg">
<g clip-path="url(#clip0_392_21392)">
<rect width="60" height="60" rx="30" fill="white"/>
<circle cx="30" cy="30" r="30" fill="#FFE6DE"/>
<path d="M53.8728 52.6801C48.9048 51.0061 36.4908 44.5801 36.4908 44.5801H24.1488C24.1488 44.5801 11.7408 51.0061 6.76683 52.6801C1.79883 54.3541 1.79883 62.8381 1.79883 62.8381H58.8468C58.8468 62.8381 58.8468 54.3541 53.8788 52.6801H53.8728Z" fill="#424777"/>
<path fill-rule="evenodd" clip-rule="evenodd" d="M24.041 45.5159L24.851 38.7119H35.729L36.569 45.1559L35.4165 45.189L32.5486 47.1364L31.1686 60.7204L28.8886 47.3044L26.6957 45.4396L24.041 45.5159Z" fill="#C1735C"/>
<path d="M24.3828 42.6358C24.3828 42.6358 32.8128 43.4098 35.7828 39.7138V35.4658L25.0968 36.4918L24.3828 42.6358Z" fill="#A5503C"/>
<path d="M24.2925 43.3926L20.2305 46.5666L25.7085 51.9126L28.8885 47.3046L24.2925 43.3926Z" fill="#515882"/>
<path d="M32.5488 47.1363L36.3468 43.4463L40.0488 46.3743L35.1468 51.7383L32.5488 47.1363Z" fill="#515882"/>
<path d="M27.8202 3.87614C27.0342 1.93214 23.3262 0.744141 23.3262 0.744141C24.2442 6.82214 27.7362 5.51414 27.7362 5.51414C27.8082 5.37014 27.8562 5.22614 27.8982 5.08814C30.6342 6.61214 32.9142 1.02014 32.9142 1.02014C29.1042 1.29614 28.0602 2.78414 27.8202 3.87614Z" fill="#FF7C59"/>
<path fill-rule="evenodd" clip-rule="evenodd" d="M30.8255 40.4161C36.336 40.4161 41.0005 35.7859 42.5684 29.4028C43.0842 29.301 43.3118 29.1897 43.3118 29.1897C44.5718 28.5177 45.2498 26.9637 45.0578 24.9417C44.9137 23.4239 43.681 23.1908 43.0752 23.1689C42.4788 15.1912 37.2221 8.95215 30.8255 8.95215C24.4294 8.95215 19.173 15.1904 18.576 23.1673C18.0505 23.1599 16.6068 23.2914 16.4501 24.9417C16.2581 26.9637 16.9361 28.5177 18.1961 29.1897C18.1961 29.1897 18.4661 29.3217 19.0841 29.4297L19.0828 29.4034C20.6508 35.7862 25.3152 40.4161 30.8255 40.4161Z" fill="#C1735C"/>
<path d="M30.8265 8.02804C17.6265 7.84204 18.5205 23.268 18.5205 23.268L30.8265 24.168L43.1325 23.268C43.1325 23.268 44.0265 7.84204 30.8265 8.02804Z" fill="#C1735C"/>
<path d="M22.3907 21.5282C24.4187 21.1622 26.2127 21.4502 27.1247 21.6242C27.4007 21.6782 27.6767 21.5462 27.7607 21.3182C27.8567 21.0602 27.6767 20.7962 27.3647 20.7362C26.3267 20.5382 24.4607 20.2382 22.5047 20.9222C22.2047 21.0302 21.6707 21.3242 21.8327 21.5582C21.9227 21.6422 22.1207 21.5702 22.3907 21.5222V21.5282Z" fill="#441D39"/>
<path d="M39.388 21.535C37.36 21.169 35.566 21.457 34.654 21.631C34.378 21.685 34.102 21.547 34.018 21.319C33.922 21.061 34.102 20.791 34.414 20.731C35.452 20.527 37.318 20.227 39.274 20.923C39.574 21.031 40.108 21.325 39.946 21.565C39.856 21.649 39.658 21.577 39.388 21.529V21.535Z" fill="#441D39"/>
<path d="M36.6401 25.9438C37.041 25.9438 37.3661 25.3797 37.3661 24.6838C37.3661 23.9879 37.041 23.4238 36.6401 23.4238C36.2391 23.4238 35.9141 23.9879 35.9141 24.6838C35.9141 25.3797 36.2391 25.9438 36.6401 25.9438Z" fill="#441D39"/>
<path d="M25.7514 25.686C26.1523 25.686 26.4774 25.1219 26.4774 24.426C26.4774 23.7301 26.1523 23.166 25.7514 23.166C25.3504 23.166 25.0254 23.7301 25.0254 24.426C25.0254 25.1219 25.3504 25.686 25.7514 25.686Z" fill="#441D39"/>
<path d="M31.6786 30.3479H30.5326C30.0226 30.3479 29.5726 30.1499 29.3326 29.8259C29.1586 29.5919 29.1106 29.3159 29.1946 29.0459C29.4586 28.1819 29.6806 27.3659 29.6806 27.3599C29.7226 27.1979 29.8846 27.1079 30.0466 27.1499C30.2086 27.1919 30.3046 27.3599 30.2566 27.5159C30.2566 27.5159 30.0346 28.3499 29.7646 29.2199C29.7406 29.3039 29.7526 29.3879 29.8126 29.4719C29.9386 29.6459 30.2206 29.7539 30.5326 29.7539H31.6786C31.8466 29.7539 31.9786 29.8859 31.9786 30.0539C31.9786 30.2219 31.8466 30.3539 31.6786 30.3539V30.3479Z" fill="#A5503C"/>
<path d="M29.0631 34.2592C28.5051 34.2592 28.1391 34.2292 28.0971 34.2232C27.9291 34.2112 27.8091 34.0612 27.8211 33.8992C27.8331 33.7372 27.9771 33.6112 28.1451 33.6232C28.1811 33.6232 31.5651 33.8992 34.0731 32.6632C34.2231 32.5912 34.4031 32.6512 34.4751 32.8012C34.5471 32.9512 34.4871 33.1312 34.3371 33.2032C32.5011 34.1092 30.2991 34.2532 29.0571 34.2532L29.0631 34.2592Z" fill="#A5503C"/>
<path d="M37.2405 27.918C38.397 27.918 39.3345 27.7031 39.3345 27.438C39.3345 27.1729 38.397 26.958 37.2405 26.958C36.084 26.958 35.1465 27.1729 35.1465 27.438C35.1465 27.7031 36.084 27.918 37.2405 27.918Z" fill="#AF5D4E"/>
<path d="M25.0256 27.918C26.1821 27.918 27.1196 27.7031 27.1196 27.438C27.1196 27.1729 26.1821 26.958 25.0256 26.958C23.8692 26.958 22.9316 27.1729 22.9316 27.438C22.9316 27.7031 23.8692 27.918 25.0256 27.918Z" fill="#AF5D4E"/>
<path d="M38.8555 13.8059C38.8555 13.8059 42.4915 20.3639 43.1275 23.2679C43.1275 23.2679 45.0955 14.5259 40.4575 9.79785L38.8555 13.7999V13.8059Z" fill="#FF7C59"/>
<path d="M18.5204 23.2684L19.8284 18.2764H18.2324L18.5204 23.2684Z" fill="#FF7C59"/>
<path d="M38.4415 7.21238C38.4415 7.21238 38.4415 7.18238 38.4415 7.17038C38.4415 5.77238 37.3075 4.64438 35.9155 4.64438C35.6095 4.64438 35.3275 4.70438 35.0575 4.80638C34.3135 4.02038 33.1495 3.51038 31.8295 3.51038C30.6115 3.51038 29.5195 3.94838 28.7695 4.63838C27.9835 4.16438 27.0115 3.87638 25.9615 3.87638C25.5175 3.87638 25.0915 3.93038 24.6835 4.02038C24.0895 3.50438 23.3215 3.19238 22.4755 3.19238C21.1435 3.19238 19.9975 3.96638 19.4515 5.08838C19.1215 4.81238 18.7015 4.64438 18.2395 4.64438C17.1835 4.64438 16.3315 5.50238 16.3315 6.55238C16.3315 6.66638 16.3435 6.77438 16.3675 6.88238C14.2855 6.91238 12.6055 8.61038 12.6055 10.6984C12.6055 11.9644 13.2235 13.0864 14.1775 13.7824C13.8235 14.3584 13.6195 15.0364 13.6195 15.7684C13.6195 17.8804 15.3295 19.5904 17.4415 19.5904C19.5535 19.5904 21.2635 17.8804 21.2635 15.7684C21.2635 15.7264 21.2635 15.6844 21.2575 15.6424C21.7675 15.8944 22.3375 16.0384 22.9435 16.0384C24.9655 16.0384 26.6155 14.4664 26.7535 12.4864C27.4435 13.1884 28.4035 13.6204 29.4655 13.6204C31.0435 13.6204 32.3995 12.6604 32.9815 11.2924C33.2995 13.0864 34.8595 14.4484 36.7435 14.4484C38.8555 14.4484 40.5655 12.7384 40.5655 10.6264C40.5655 9.13238 39.7075 7.84238 38.4535 7.21238H38.4415Z" fill="#441D39"/>
</g>
<defs>
<clipPath id="clip0_392_21392">
<rect width="60" height="60" rx="30" fill="white"/>
</clipPath>
</defs>
</svg>
