<svg width="157" height="60" viewBox="0 0 157 60" fill="none" xmlns="http://www.w3.org/2000/svg">
<g clip-path="url(#clip0_3711_87229)">
<rect x="96.5" width="60" height="60" rx="30" fill="white"/>
<circle cx="126.5" cy="30" r="30" fill="#E1DEFF"/>
<path d="M149.437 41.693C151.501 36.653 148.147 36.137 144.655 33.533C141.163 30.929 146.851 29.813 148.015 27.137C149.179 24.461 147.109 22.577 144.529 21.155C141.943 19.733 138.187 14.201 138.187 14.201L138.019 14.123C139.969 18.035 139.885 22.505 139.855 23.171C140.479 23.207 141.643 23.465 141.787 24.941C141.979 26.963 141.301 28.517 140.041 29.189C140.041 29.189 139.801 29.297 139.291 29.399C137.725 35.783 133.063 40.421 127.549 40.421C122.035 40.421 117.367 35.783 115.807 29.387V29.429C115.189 29.321 114.919 29.189 114.919 29.189C113.659 28.517 112.981 26.963 113.173 24.941C113.323 23.345 114.679 23.171 115.243 23.165C115.231 22.793 115.201 21.287 115.489 19.367C114.535 19.835 111.673 21.383 111.727 23.165C111.799 25.307 112.411 28.247 109.657 29.045C106.903 29.843 106.807 34.973 107.965 37.577C109.123 40.181 109.903 41.819 106.267 43.409C102.631 44.999 106.675 48.023 106.285 53.831C105.895 59.639 111.193 57.065 121.741 55.127C132.289 53.189 139.867 55.775 145.555 55.127C151.237 54.479 150.595 52.679 148.525 50.003C146.455 47.327 147.361 46.733 149.431 41.693H149.437Z" fill="#441D39"/>
<path d="M129.308 10.0491L138.026 14.1231C136.388 10.8411 133.316 7.94909 127.556 8.02709C118.688 7.90109 116.186 14.8191 115.496 19.3671C115.688 19.2711 115.808 19.2171 115.808 19.2171L129.308 10.0431V10.0491Z" fill="#C1735C"/>
<path d="M150.601 52.6801C145.633 51.0061 133.219 44.5801 133.219 44.5801H120.877C120.877 44.5801 108.469 51.0061 103.495 52.6801C98.5273 54.3541 98.5273 62.8381 98.5273 62.8381H155.575C155.575 62.8381 155.575 54.3541 150.607 52.6801H150.601Z" fill="#4598C4"/>
<path d="M132.458 38.7109H121.58L120.77 45.5149L127.166 59.2249L133.298 45.1549L132.458 38.7109Z" fill="#FFC7A4"/>
<path d="M121.597 38.4473L121.111 42.6353C121.111 42.6353 129.541 43.4093 132.511 39.7133V39.0833C130.993 39.9413 129.319 40.4213 127.549 40.4213C125.389 40.4213 123.361 39.7013 121.597 38.4473Z" fill="#F2B594"/>
<path d="M141.793 24.9418C141.655 23.4658 140.485 23.2078 139.861 23.1718C139.885 22.5058 139.975 18.0358 138.025 14.1238L129.307 10.0498L115.807 19.2238C115.807 19.2238 115.687 19.2778 115.495 19.3738C115.201 21.2938 115.231 22.7998 115.249 23.1718C114.685 23.1718 113.329 23.3518 113.179 24.9478C112.987 26.9698 113.665 28.5238 114.925 29.1958C114.925 29.1958 115.195 29.3278 115.813 29.4358V29.3938C116.761 33.2818 118.861 36.5158 121.603 38.4538C123.367 39.7078 125.395 40.4278 127.555 40.4278C129.319 40.4278 130.999 39.9478 132.517 39.0898C135.739 37.2718 138.235 33.7438 139.297 29.4058C139.813 29.3038 140.047 29.1958 140.047 29.1958C141.307 28.5238 141.985 26.9698 141.793 24.9478V24.9418Z" fill="#FFC7A4"/>
<path d="M119.084 21.2639C121.142 21.1199 122.894 21.5999 123.782 21.8699C124.052 21.9539 124.334 21.8459 124.448 21.6359C124.568 21.3899 124.418 21.1079 124.118 21.0119C123.11 20.6999 121.286 20.2019 119.264 20.6759C118.952 20.7479 118.394 20.9819 118.526 21.2399C118.604 21.3299 118.814 21.2879 119.084 21.2699V21.2639Z" fill="#441D39"/>
<path d="M136.141 21.3657C134.089 21.1377 132.325 21.5517 131.425 21.7917C131.155 21.8637 130.873 21.7497 130.771 21.5277C130.657 21.2757 130.819 20.9937 131.125 20.9157C132.145 20.6397 133.987 20.2137 135.991 20.7657C136.297 20.8497 136.849 21.1077 136.705 21.3597C136.621 21.4497 136.417 21.3957 136.147 21.3597L136.141 21.3657Z" fill="#441D39"/>
<path d="M133.371 25.9429C133.771 25.9429 134.097 25.3787 134.097 24.6829C134.097 23.987 133.771 23.4229 133.371 23.4229C132.97 23.4229 132.645 23.987 132.645 24.6829C132.645 25.3787 132.97 25.9429 133.371 25.9429Z" fill="#441D39"/>
<path d="M122.48 25.685C122.881 25.685 123.206 25.1209 123.206 24.425C123.206 23.7292 122.881 23.165 122.48 23.165C122.079 23.165 121.754 23.7292 121.754 24.425C121.754 25.1209 122.079 25.685 122.48 25.685Z" fill="#441D39"/>
<path d="M128.407 30.3471H127.261C126.751 30.3471 126.301 30.1491 126.061 29.8191C125.887 29.5851 125.839 29.3091 125.923 29.0391C126.187 28.1811 126.409 27.3591 126.409 27.3531C126.451 27.1911 126.613 27.1011 126.775 27.1431C126.937 27.1851 127.033 27.3531 126.985 27.5091C126.985 27.5091 126.763 28.3431 126.493 29.2131C126.469 29.3031 126.481 29.3811 126.541 29.4651C126.667 29.6391 126.949 29.7471 127.261 29.7471H128.407C128.575 29.7471 128.707 29.8791 128.707 30.0471C128.707 30.2151 128.575 30.3471 128.407 30.3471Z" fill="#A5503C"/>
<path d="M127.31 34.1216C125.912 34.1216 124.85 33.9296 124.772 33.9116C124.61 33.8816 124.502 33.7256 124.532 33.5636C124.562 33.4016 124.718 33.2936 124.88 33.3236C124.91 33.3236 128.258 33.9416 130.874 32.9636C131.03 32.9036 131.204 32.9816 131.258 33.1376C131.318 33.2936 131.234 33.4676 131.084 33.5216C129.83 33.9896 128.456 34.1216 127.304 34.1216H127.31Z" fill="#A5503C"/>
<path d="M133.969 27.917C135.125 27.917 136.063 27.7021 136.063 27.437C136.063 27.1719 135.125 26.957 133.969 26.957C132.813 26.957 131.875 27.1719 131.875 27.437C131.875 27.7021 132.813 27.917 133.969 27.917Z" fill="#EAA281"/>
<path d="M121.754 27.917C122.911 27.917 123.848 27.7021 123.848 27.437C123.848 27.1719 122.911 26.957 121.754 26.957C120.598 26.957 119.66 27.1719 119.66 27.437C119.66 27.7021 120.598 27.917 121.754 27.917Z" fill="#EAA281"/>
<path d="M114.812 19.7634L114.848 20.0454L113.144 21.8154L111.836 25.6854C111.836 25.6854 113.366 30.6474 115.544 33.7254C117.716 36.8094 116.726 32.1534 115.808 29.3814C114.89 26.6094 116.606 26.5734 117.008 24.6834C117.26 23.4894 116.816 22.3914 116.456 21.7494C116.138 20.6514 116.42 19.3314 117.926 18.9234C121.454 17.9574 119.144 12.1074 119.144 12.1074C117.116 13.4094 115.352 18.6654 114.818 19.7574L114.812 19.7634Z" fill="#441D39"/>
<path d="M141.824 21.8155L140.576 21.9115C140.066 19.2775 138.944 14.0815 137.93 13.5415C136.562 12.8155 135.008 13.9975 135.008 13.9975C135.008 13.9975 135.788 18.2515 137.498 19.2115C138.512 19.7815 138.506 21.0655 138.53 22.0135C137.942 25.0795 136.418 28.4875 139.856 31.5655C143.606 34.9195 144.416 25.9435 144.416 25.9435L141.824 21.8155Z" fill="#441D39"/>
<path d="M139.952 8.98816C138.014 5.76616 130.562 4.17016 124.358 5.43616L123.944 4.03816C123.866 3.78016 123.596 3.63016 123.332 3.70816C123.074 3.78616 122.924 4.05616 123.002 4.32016L123.398 5.67016C118.604 6.92416 113.612 10.4942 111.422 14.9822C109.166 19.6022 114.854 19.7042 114.854 19.7042C119.696 12.4022 138.188 14.2022 138.188 14.2022C139.262 13.9742 141.944 12.3122 139.946 8.99416L139.952 8.98816Z" fill="#FF7C59"/>
<path d="M118.022 49.6559C117.908 49.6559 117.8 49.5959 117.752 49.4879C117.68 49.3379 117.746 49.1579 117.89 49.0859L120.152 47.9999C120.302 47.9279 120.482 47.9939 120.554 48.1439C120.626 48.2939 120.56 48.4739 120.416 48.5459L118.154 49.6319C118.112 49.6499 118.07 49.6619 118.022 49.6619V49.6559Z" fill="#2A5E70"/>
<path d="M119.053 53.2254C118.939 53.2254 118.831 53.1654 118.783 53.0574C118.711 52.9074 118.777 52.7274 118.921 52.6554L121.183 51.5694C121.333 51.4974 121.513 51.5634 121.585 51.7074C121.657 51.8514 121.591 52.0374 121.447 52.1094L119.185 53.1954C119.143 53.2134 119.101 53.2254 119.053 53.2254Z" fill="#2A5E70"/>
<path d="M120.368 57.4441C120.254 57.4441 120.146 57.3841 120.098 57.2761C120.026 57.1261 120.092 56.9461 120.236 56.8741L122.498 55.7881C122.648 55.7161 122.828 55.7821 122.9 55.9261C122.972 56.0761 122.906 56.2561 122.762 56.3281L120.5 57.4141C120.458 57.4321 120.416 57.4441 120.368 57.4441Z" fill="#2A5E70"/>
<path d="M135.674 49.6561C135.632 49.6561 135.584 49.6441 135.542 49.6261L133.28 48.5401C133.13 48.4681 133.07 48.2881 133.142 48.1381C133.214 47.9881 133.394 47.9221 133.544 47.9941L135.806 49.0801C135.956 49.1521 136.016 49.3321 135.944 49.4821C135.89 49.5901 135.788 49.6501 135.674 49.6501V49.6561Z" fill="#2A5E70"/>
<path d="M134.642 53.2254C134.6 53.2254 134.552 53.2134 134.51 53.1954L132.248 52.1094C132.098 52.0374 132.038 51.8574 132.11 51.7074C132.182 51.5574 132.362 51.4974 132.512 51.5694L134.774 52.6554C134.924 52.7274 134.984 52.9074 134.912 53.0574C134.858 53.1654 134.756 53.2254 134.642 53.2254Z" fill="#2A5E70"/>
<path d="M133.328 57.4442C133.286 57.4442 133.238 57.4322 133.196 57.4142L130.934 56.3282C130.784 56.2562 130.724 56.0762 130.796 55.9262C130.868 55.7762 131.048 55.7162 131.198 55.7882L133.46 56.8742C133.61 56.9462 133.67 57.1262 133.598 57.2762C133.544 57.3842 133.442 57.4442 133.328 57.4442Z" fill="#2A5E70"/>
</g>
<g clip-path="url(#clip1_3711_87229)">
<rect x="48.5" width="60" height="60" rx="30" fill="white"/>
<circle cx="78.5" cy="30" r="30" fill="#DEF4FF"/>
<path d="M91.2965 23.1777C91.2965 23.1777 93.4205 22.9197 93.6125 24.9417C93.8045 26.9637 93.1265 28.5177 91.8665 29.1897C91.8665 29.1897 91.5965 29.3217 90.9785 29.4297L91.2965 23.1837V23.1777Z" fill="#FFB69F"/>
<path d="M67.2661 23.1777C67.2661 23.1777 65.1421 22.9197 64.9501 24.9417C64.7581 26.9637 65.4361 28.5177 66.6961 29.1897C66.6961 29.1897 66.9661 29.3217 67.5841 29.4297L67.2661 23.1837V23.1777Z" fill="#FFB69F"/>
<path d="M50.2988 62.8381C50.2988 62.8381 50.2988 54.3541 55.2668 52.6801C60.2348 51.0061 71.4608 44.5801 71.4608 44.5801H79.0568V62.8381H50.2988Z" fill="#F49037"/>
<path d="M107.346 62.8381C107.346 62.8381 107.346 54.3541 102.378 52.6801C97.4099 51.0061 86.3039 44.5801 86.3039 44.5801H78.5879V62.8381H107.346Z" fill="#F49037"/>
<path d="M73.3504 38.7119L72.6484 44.5799H84.9964L84.2284 38.7119H73.3504Z" fill="#FFB69F"/>
<path d="M78.8224 48.0906C82.2322 48.0906 84.9964 46.8898 84.9964 45.4086C84.9964 43.9273 82.2322 42.7266 78.8224 42.7266C75.4126 42.7266 72.6484 43.9273 72.6484 45.4086C72.6484 46.8898 75.4126 48.0906 78.8224 48.0906Z" fill="#FFB69F"/>
<path d="M72.8828 42.6358C72.8828 42.6358 81.3128 43.4098 84.2828 39.7138V35.4658L73.5968 36.4918L72.8828 42.6358Z" fill="#FF9988"/>
<path d="M79.3275 40.4161C86.1239 40.4161 91.6335 33.3727 91.6335 24.6841C91.6335 15.9956 86.1239 8.95215 79.3275 8.95215C72.5311 8.95215 67.0215 15.9956 67.0215 24.6841C67.0215 33.3727 72.5311 40.4161 79.3275 40.4161Z" fill="#FFB69F"/>
<path d="M90.0733 12.1205C90.0733 12.1205 90.0853 12.0905 90.0733 12.0725C89.6653 11.0945 89.1673 6.18047 81.1633 5.43647C79.1113 5.24447 76.1773 5.58647 74.3173 6.47447C71.7673 7.68647 68.9173 8.38247 66.3973 8.37647C66.2893 8.37647 66.2473 8.52047 66.3433 8.57447L68.3113 10.1405C68.3893 10.1825 68.3833 10.2965 68.2993 10.3325L65.8273 11.0825C65.7373 11.1185 65.7373 11.2505 65.8273 11.2805C66.2293 11.4125 67.2493 11.8625 68.1733 12.1805C66.6613 14.8565 67.0093 18.7025 67.0093 23.3225C67.0093 23.3225 66.9613 28.1105 68.5753 33.6005C70.3393 39.6005 74.2093 42.1745 79.6633 42.1925C85.4713 42.2165 88.5013 37.2365 89.3113 35.4665C90.5473 32.7545 91.6093 27.7145 91.6153 24.6845C91.6153 24.6845 93.8473 17.0285 90.0613 12.1205H90.0733ZM85.1413 34.3505C83.9413 34.9625 84.5473 31.7765 82.1593 31.6445C81.3613 31.5965 78.6493 31.4105 76.3693 31.6025C74.6353 31.7525 74.2153 33.3125 74.1373 34.1045C74.1013 34.4465 73.9813 34.6025 73.6573 34.4825C72.9373 34.2185 71.4073 33.3665 70.6873 32.5745C69.9433 31.7585 68.5993 29.5565 68.4733 24.9065L68.6053 18.2645C68.6053 18.2645 71.2753 16.0265 71.7373 14.4365C71.7373 14.4365 83.6653 16.3445 87.1213 14.4365C87.1213 14.4365 88.5673 17.2025 90.1453 18.0365C90.6313 18.2885 90.5473 21.4445 90.5053 23.6225C90.4633 23.9165 90.4273 24.2525 90.4093 24.6485C90.0913 30.8705 86.3293 33.7445 85.1353 34.3565L85.1413 34.3505Z" fill="#B54D4D"/>
<path d="M85.1401 25.9438C85.541 25.9438 85.8661 25.3797 85.8661 24.6838C85.8661 23.9879 85.541 23.4238 85.1401 23.4238C84.7391 23.4238 84.4141 23.9879 84.4141 24.6838C84.4141 25.3797 84.7391 25.9438 85.1401 25.9438Z" fill="#441D39"/>
<path d="M74.2514 25.686C74.6523 25.686 74.9774 25.1219 74.9774 24.426C74.9774 23.7301 74.6523 23.166 74.2514 23.166C73.8504 23.166 73.5254 23.7301 73.5254 24.426C73.5254 25.1219 73.8504 25.686 74.2514 25.686Z" fill="#441D39"/>
<path d="M80.1727 30.348H79.0267C78.5167 30.348 78.0667 30.15 77.8267 29.82C77.6527 29.586 77.6047 29.31 77.6887 29.04C77.9467 28.212 78.2827 25.122 78.2827 25.092C78.3007 24.924 78.4447 24.81 78.6127 24.828C78.7747 24.846 78.8947 24.996 78.8767 25.158C78.8647 25.29 78.5287 28.332 78.2587 29.22C78.2347 29.31 78.2467 29.388 78.3067 29.472C78.4327 29.64 78.7147 29.754 79.0267 29.754H80.1727C80.3407 29.754 80.4727 29.886 80.4727 30.054C80.4727 30.222 80.3407 30.354 80.1727 30.354V30.348Z" fill="#FF9988"/>
<path d="M85.7776 27.918C86.9341 27.918 87.8716 27.7031 87.8716 27.438C87.8716 27.1729 86.9341 26.958 85.7776 26.958C84.6211 26.958 83.6836 27.1729 83.6836 27.438C83.6836 27.7031 84.6211 27.918 85.7776 27.918Z" fill="#FF9988"/>
<path d="M73.5549 27.918C74.7114 27.918 75.6489 27.7031 75.6489 27.438C75.6489 27.1729 74.7114 26.958 73.5549 26.958C72.3985 26.958 71.4609 27.1729 71.4609 27.438C71.4609 27.7031 72.3985 27.918 73.5549 27.918Z" fill="#FF9988"/>
<path d="M87.6853 21.7551C85.6873 21.1671 84.1573 21.5391 83.2273 21.6591C82.8313 21.7071 82.7473 21.2211 82.7473 21.2211C82.6693 20.8911 83.1133 20.6631 83.4253 20.6031C84.4753 20.4111 85.8193 20.3151 87.8113 21.0051C88.1953 21.1371 88.2193 21.4611 88.2193 21.4611C88.1773 21.8211 87.9493 21.8271 87.6853 21.7491V21.7551Z" fill="#B54D4D"/>
<path d="M71.5986 21.7921C73.5846 21.1681 75.1206 21.5161 76.0506 21.6181C76.4466 21.6601 76.5246 21.1741 76.5246 21.1741C76.5966 20.8441 76.1466 20.6221 75.8346 20.5681C74.7786 20.3941 73.4346 20.3161 71.4606 21.0421C71.0766 21.1801 71.0586 21.5041 71.0586 21.5041C71.1066 21.8641 71.3346 21.8641 71.5926 21.7861L71.5986 21.7921Z" fill="#B54D4D"/>
<path d="M79.2621 35.2201C77.8461 35.2201 76.7181 34.9201 76.6461 34.9021C76.4841 34.8601 76.3941 34.6921 76.4361 34.5361C76.4781 34.3801 76.6461 34.2841 76.8021 34.3261C76.8321 34.3321 79.5921 35.0641 81.8181 34.1941C81.9741 34.1341 82.1481 34.2121 82.2081 34.3621C82.2681 34.5181 82.1901 34.6921 82.0401 34.7521C81.1221 35.1121 80.1381 35.2261 79.2681 35.2261L79.2621 35.2201Z" fill="#9B3D3D"/>
<path d="M72.9132 42.666L77.6892 46.074L75.3792 51.606L69.1992 45.852L72.9132 42.666Z" fill="#FFA242"/>
<path d="M77.6886 46.0742L77.9766 48.1202L76.8906 47.9822L77.6886 46.0742Z" fill="#F49037"/>
<path d="M80.4122 45.9658L79.9922 48.1198L81.1682 47.9218L80.4122 45.9658Z" fill="#F49037"/>
<path d="M80.4121 45.9659L84.7861 42.7559L88.8841 46.0439L82.7881 52.1339L80.4121 45.9659Z" fill="#FFA242"/>
<path d="M79.9866 48.9062H77.9766V62.8323H79.9866V48.9062Z" fill="white"/>
<path d="M77.9357 47.8322L77.9777 49.0562C77.9777 49.0562 78.9137 49.4642 79.9877 49.0562L80.0177 47.9462L77.9297 47.8262L77.9357 47.8322Z" fill="#FFB69F"/>
<path d="M79.9866 51.8457H77.9766V52.4457H79.9866V51.8457Z" fill="#D6D6D6"/>
<path d="M79.9866 54.5518H77.9766V55.1518H79.9866V54.5518Z" fill="#D6D6D6"/>
<path d="M79.9866 57.2578H77.9766V57.8578H79.9866V57.2578Z" fill="#D6D6D6"/>
<path d="M79.9866 59.9639H77.9766V60.5639H79.9866V59.9639Z" fill="#D6D6D6"/>
<path d="M81.696 55.1341C81.9876 55.1341 82.224 54.8977 82.224 54.6061C82.224 54.3145 81.9876 54.0781 81.696 54.0781C81.4044 54.0781 81.168 54.3145 81.168 54.6061C81.168 54.8977 81.4044 55.1341 81.696 55.1341Z" fill="#FFA242"/>
<path d="M81.696 61.0257C81.9876 61.0257 82.224 60.7893 82.224 60.4977C82.224 60.2061 81.9876 59.9697 81.696 59.9697C81.4044 59.9697 81.168 60.2061 81.168 60.4977C81.168 60.7893 81.4044 61.0257 81.696 61.0257Z" fill="#FFA242"/>
</g>
<g clip-path="url(#clip2_3711_87229)">
<rect x="0.5" width="60" height="60" rx="30" fill="white"/>
<circle cx="30.5" cy="30" r="30" fill="#FFDEF6"/>
<path d="M24.6496 8.04004C24.6496 8.04004 17.4076 9.60604 17.9356 19.116C18.4636 28.626 16.7656 31.308 16.7656 31.308L18.6256 30.792L24.6436 34.914L40.8676 31.668L43.4116 32.424L44.1976 30.648C44.1976 30.648 45.0916 31.608 45.9796 31.662C45.9796 31.662 45.1516 27.39 45.3076 25.482C45.6376 21.486 43.7176 15.672 43.7176 15.672L24.6376 8.04004H24.6496Z" fill="#441D39"/>
<path d="M54.3726 52.6799C50.2806 51.3059 41.1546 46.7099 38.0526 45.1259C37.8126 45.0059 37.6146 44.8979 37.4526 44.8199C37.1646 44.6699 36.9966 44.5859 36.9966 44.5859H24.6546C24.6546 44.5859 24.4925 44.6699 24.1985 44.8199C24.0366 44.9039 23.8326 45.0059 23.5985 45.1259C23.1425 45.3599 22.5606 45.6539 21.8826 45.9959C17.9286 47.9879 10.7705 51.5099 7.27855 52.6799C2.31055 54.3539 2.31055 62.8379 2.31055 62.8379H59.3406C59.3406 62.8379 59.3406 54.3539 54.3726 52.6799Z" fill="#FDEBD9"/>
<path d="M36.2224 38.7109H25.3504L24.6484 44.5789C24.6484 45.7309 27.4144 46.6669 30.8224 46.6669C34.2304 46.6669 36.9964 45.7309 36.9964 44.5789L36.2284 38.7109H36.2224Z" fill="#C1735C"/>
<path d="M20.6038 18.3589C20.6038 18.3589 20.9998 15.1309 23.7358 14.5309C23.7358 14.5309 42.9778 14.5309 39.1198 14.5309C39.1198 14.5309 41.6218 14.5309 42.1438 18.1309C42.2218 18.6709 43.0198 24.2089 42.9718 26.3869C42.9418 27.7849 43.4878 27.0469 43.4878 27.0469C43.4878 27.0469 44.0758 24.8149 44.1718 21.8869C44.3518 16.3069 43.6258 6.71289 31.8598 6.71289C20.0938 6.71289 19.0078 13.7749 19.0078 22.8829L19.4398 27.3649C19.4578 27.5449 19.6078 27.6769 19.7878 27.6769C20.1298 27.6769 20.5978 18.3589 20.5978 18.3589H20.6038Z" fill="#C1735C"/>
<path d="M41.7363 17.1952C41.9649 17.1952 42.1503 17.0098 42.1503 16.7812C42.1503 16.5525 41.9649 16.3672 41.7363 16.3672C41.5076 16.3672 41.3223 16.5525 41.3223 16.7812C41.3223 17.0098 41.5076 17.1952 41.7363 17.1952Z" fill="#FF9988"/>
<path d="M24.8828 42.6348C24.8828 42.6348 33.3128 43.4088 36.2828 39.7128V35.4648L25.5968 36.4908L24.8828 42.6348Z" fill="#A5503C"/>
<path fill-rule="evenodd" clip-rule="evenodd" d="M31.7103 40.416C37.4161 40.416 42.2149 35.4593 43.6081 28.7353C43.8673 28.665 43.9857 28.6072 43.9857 28.6072C45.2457 27.9362 45.9237 26.3846 45.7317 24.3657C45.5992 22.9726 44.5467 22.6634 43.907 22.6056C43.1021 14.9244 37.9482 9 31.7103 9C25.3436 9 20.1062 15.1715 19.4693 23.0835C19.1695 23.078 17.3694 23.1225 17.3034 24.984C17.2314 27.0149 18.0055 28.5186 19.3015 29.1117C19.3015 29.1117 19.4964 29.1921 19.929 29.2604C21.458 35.7158 26.1541 40.416 31.7103 40.416Z" fill="#C1735C"/>
<path d="M37.1342 25.9429C37.5352 25.9429 37.8602 25.3787 37.8602 24.6829C37.8602 23.987 37.5352 23.4229 37.1342 23.4229C36.7332 23.4229 36.4082 23.987 36.4082 24.6829C36.4082 25.3787 36.7332 25.9429 37.1342 25.9429Z" fill="#441D39"/>
<path d="M26.2455 25.685C26.6465 25.685 26.9715 25.1209 26.9715 24.425C26.9715 23.7292 26.6465 23.165 26.2455 23.165C25.8446 23.165 25.5195 23.7292 25.5195 24.425C25.5195 25.1209 25.8446 25.685 26.2455 25.685Z" fill="#441D39"/>
<path d="M32.1727 30.3474H31.0267C30.5167 30.3474 30.0667 30.1494 29.8267 29.8254C29.6527 29.5914 29.6047 29.3154 29.6887 29.0454C29.9467 28.2054 30.3007 25.9254 30.3067 25.9014C30.3307 25.7394 30.4867 25.6314 30.6487 25.6494C30.8107 25.6734 30.9247 25.8294 30.9007 25.9914C30.8887 26.0874 30.5347 28.3434 30.2647 29.2194C30.2407 29.3034 30.2527 29.3874 30.3127 29.4714C30.4387 29.6454 30.7207 29.7534 31.0327 29.7534H32.1787C32.3467 29.7534 32.4787 29.8854 32.4787 30.0534C32.4787 30.2214 32.3467 30.3534 32.1787 30.3534L32.1727 30.3474Z" fill="#A5503C"/>
<path d="M37.7776 27.917C38.9341 27.917 39.8716 27.7021 39.8716 27.437C39.8716 27.1719 38.9341 26.957 37.7776 26.957C36.6211 26.957 35.6836 27.1719 35.6836 27.437C35.6836 27.7021 36.6211 27.917 37.7776 27.917Z" fill="#AF5D4E"/>
<path d="M25.5549 27.917C26.7114 27.917 27.6489 27.7021 27.6489 27.437C27.6489 27.1719 26.7114 26.957 25.5549 26.957C24.3985 26.957 23.4609 27.1719 23.4609 27.437C23.4609 27.7021 24.3985 27.917 25.5549 27.917Z" fill="#AF5D4E"/>
<path d="M39.7141 21.618C37.6861 21.156 36.1801 21.618 35.2621 21.798C34.8721 21.876 34.7521 21.39 34.7521 21.39C34.6561 21.066 35.0821 20.808 35.3941 20.736C36.4321 20.478 37.7641 20.298 39.7921 20.868C40.1821 20.976 40.2241 21.3 40.2241 21.3C40.2001 21.66 39.9781 21.684 39.7141 21.618Z" fill="#441D39"/>
<path d="M23.539 21.5333C25.585 21.1493 27.073 21.6773 27.985 21.8873C28.375 21.9773 28.507 21.5033 28.507 21.5033C28.615 21.1853 28.201 20.9093 27.895 20.8193C26.869 20.5253 25.543 20.2913 23.491 20.7773C23.095 20.8733 23.041 21.1913 23.041 21.1913C23.047 21.5513 23.269 21.5813 23.539 21.5333Z" fill="#441D39"/>
<path d="M31.2602 34.9076C29.8382 34.9076 28.7162 34.6076 28.6382 34.5896C28.4762 34.5476 28.3862 34.3796 28.4282 34.2236C28.4702 34.0616 28.6382 33.9716 28.7942 34.0136C28.8242 34.0196 31.5842 34.7516 33.8102 33.8816C33.9662 33.8216 34.1402 33.8996 34.2002 34.0496C34.2602 34.2056 34.1822 34.3796 34.0322 34.4396C33.1142 34.7996 32.1302 34.9136 31.2602 34.9136V34.9076Z" fill="#A5503C"/>
<path d="M40.1771 7.73405C31.9451 1.22405 24.6491 8.04005 24.6491 8.04005C17.4311 9.36005 18.4571 20.016 18.6311 21.156C18.8051 22.29 19.0271 23.076 19.0271 23.076C19.1831 23.082 19.3271 23.076 19.4651 23.046L20.0771 27.438C20.1191 27.594 20.3531 27.606 20.4071 27.438C20.4611 27.378 20.6291 24.81 20.7911 22.128C22.1591 20.106 22.0991 15.372 24.6491 13.254C25.8971 12.216 27.6491 13.032 27.6491 13.032C27.6491 13.032 28.9571 10.722 32.0711 12.066C34.8731 13.272 38.3171 20.874 42.1151 22.68C42.2651 25.152 42.4151 27.384 42.4631 27.444C42.5171 27.612 42.7511 27.6 42.7931 27.444L43.4051 23.058L45.1451 22.152C45.1451 22.152 45.9311 11.328 40.1651 7.74005L40.1771 7.73405Z" fill="#441D39"/>
<path d="M54.3732 52.6806C52.2132 51.9546 48.6492 50.3286 45.3072 48.7266L35.9832 52.0326V60.9546H35.3832V52.2426L33.4512 52.9266V62.8326H59.3412C59.3412 62.8326 59.3412 54.3486 54.3732 52.6746V52.6806Z" fill="#4598C4"/>
<path d="M40.8432 45.2404C37.8912 44.2264 33.4512 52.9264 33.4512 52.9264L35.3832 52.2424V60.9544H35.9832V52.0324L45.3072 48.7264L45.3432 48.7144C45.3432 48.7144 43.8012 46.2544 40.8492 45.2404H40.8432Z" fill="#2B7FA5"/>
<path d="M26.4248 52.2829L25.0388 60.7129L24.4448 60.6169L25.8488 52.0789L16.3568 48.7129C13.0088 50.3209 9.43283 51.9529 7.26683 52.6789C2.29883 54.3529 2.29883 62.8369 2.29883 62.8369H28.1168L28.2488 52.9309L26.4248 52.2829Z" fill="#4598C4"/>
<path d="M20.8573 45.2403C17.9113 46.2483 16.3693 48.7023 16.3633 48.7143L25.8553 52.0803L24.4513 60.6183L25.0453 60.7143L26.4313 52.2843L28.2553 52.9323C28.2553 52.9323 23.8093 44.2323 20.8633 45.2463L20.8573 45.2403Z" fill="#2B7FA5"/>
</g>
<defs>
<clipPath id="clip0_3711_87229">
<rect x="96.5" width="60" height="60" rx="30" fill="white"/>
</clipPath>
<clipPath id="clip1_3711_87229">
<rect x="48.5" width="60" height="60" rx="30" fill="white"/>
</clipPath>
<clipPath id="clip2_3711_87229">
<rect x="0.5" width="60" height="60" rx="30" fill="white"/>
</clipPath>
</defs>
</svg>
