<svg width="60" height="60" viewBox="0 0 60 60" fill="none" xmlns="http://www.w3.org/2000/svg">
<g clip-path="url(#clip0_649_32153)">
<rect width="60" height="60" rx="30" fill="white"/>
<circle cx="30" cy="30" r="30" fill="#DEF4FF"/>
<path d="M42.7965 23.1777C42.7965 23.1777 44.9205 22.9197 45.1125 24.9417C45.3045 26.9637 44.6265 28.5177 43.3665 29.1897C43.3665 29.1897 43.0965 29.3217 42.4785 29.4297L42.7965 23.1837V23.1777Z" fill="#FFB69F"/>
<path d="M18.7661 23.1777C18.7661 23.1777 16.6421 22.9197 16.4501 24.9417C16.2581 26.9637 16.9361 28.5177 18.1961 29.1897C18.1961 29.1897 18.4661 29.3217 19.0841 29.4297L18.7661 23.1837V23.1777Z" fill="#FFB69F"/>
<path d="M1.79883 62.8381C1.79883 62.8381 1.79883 54.3541 6.76683 52.6801C11.7348 51.0061 22.9608 44.5801 22.9608 44.5801H30.5568V62.8381H1.79883Z" fill="#F49037"/>
<path d="M58.8459 62.8381C58.8459 62.8381 58.8459 54.3541 53.8779 52.6801C48.9099 51.0061 37.8039 44.5801 37.8039 44.5801H30.0879V62.8381H58.8459Z" fill="#F49037"/>
<path d="M24.8504 38.7119L24.1484 44.5799H36.4964L35.7284 38.7119H24.8504Z" fill="#FFB69F"/>
<path d="M30.3224 48.0906C33.7322 48.0906 36.4964 46.8898 36.4964 45.4086C36.4964 43.9273 33.7322 42.7266 30.3224 42.7266C26.9126 42.7266 24.1484 43.9273 24.1484 45.4086C24.1484 46.8898 26.9126 48.0906 30.3224 48.0906Z" fill="#FFB69F"/>
<path d="M24.3828 42.6358C24.3828 42.6358 32.8128 43.4098 35.7828 39.7138V35.4658L25.0968 36.4918L24.3828 42.6358Z" fill="#FF9988"/>
<path d="M30.8275 40.4161C37.6239 40.4161 43.1335 33.3727 43.1335 24.6841C43.1335 15.9956 37.6239 8.95215 30.8275 8.95215C24.0311 8.95215 18.5215 15.9956 18.5215 24.6841C18.5215 33.3727 24.0311 40.4161 30.8275 40.4161Z" fill="#FFB69F"/>
<path d="M41.5733 12.1205C41.5733 12.1205 41.5853 12.0905 41.5733 12.0725C41.1653 11.0945 40.6673 6.18047 32.6633 5.43647C30.6113 5.24447 27.6773 5.58647 25.8173 6.47447C23.2673 7.68647 20.4173 8.38247 17.8973 8.37647C17.7893 8.37647 17.7473 8.52047 17.8433 8.57447L19.8113 10.1405C19.8893 10.1825 19.8833 10.2965 19.7993 10.3325L17.3273 11.0825C17.2373 11.1185 17.2373 11.2505 17.3273 11.2805C17.7293 11.4125 18.7493 11.8625 19.6733 12.1805C18.1613 14.8565 18.5093 18.7025 18.5093 23.3225C18.5093 23.3225 18.4613 28.1105 20.0753 33.6005C21.8393 39.6005 25.7093 42.1745 31.1633 42.1925C36.9713 42.2165 40.0013 37.2365 40.8113 35.4665C42.0473 32.7545 43.1093 27.7145 43.1153 24.6845C43.1153 24.6845 45.3473 17.0285 41.5613 12.1205H41.5733ZM36.6413 34.3505C35.4413 34.9625 36.0473 31.7765 33.6593 31.6445C32.8613 31.5965 30.1493 31.4105 27.8693 31.6025C26.1353 31.7525 25.7153 33.3125 25.6373 34.1045C25.6013 34.4465 25.4813 34.6025 25.1573 34.4825C24.4373 34.2185 22.9073 33.3665 22.1873 32.5745C21.4433 31.7585 20.0993 29.5565 19.9733 24.9065L20.1053 18.2645C20.1053 18.2645 22.7753 16.0265 23.2373 14.4365C23.2373 14.4365 35.1653 16.3445 38.6213 14.4365C38.6213 14.4365 40.0673 17.2025 41.6453 18.0365C42.1313 18.2885 42.0473 21.4445 42.0053 23.6225C41.9633 23.9165 41.9273 24.2525 41.9093 24.6485C41.5913 30.8705 37.8293 33.7445 36.6353 34.3565L36.6413 34.3505Z" fill="#B54D4D"/>
<path d="M36.6401 25.9438C37.041 25.9438 37.3661 25.3797 37.3661 24.6838C37.3661 23.9879 37.041 23.4238 36.6401 23.4238C36.2391 23.4238 35.9141 23.9879 35.9141 24.6838C35.9141 25.3797 36.2391 25.9438 36.6401 25.9438Z" fill="#441D39"/>
<path d="M25.7514 25.686C26.1523 25.686 26.4774 25.1219 26.4774 24.426C26.4774 23.7301 26.1523 23.166 25.7514 23.166C25.3504 23.166 25.0254 23.7301 25.0254 24.426C25.0254 25.1219 25.3504 25.686 25.7514 25.686Z" fill="#441D39"/>
<path d="M31.6727 30.348H30.5267C30.0167 30.348 29.5667 30.15 29.3267 29.82C29.1527 29.586 29.1047 29.31 29.1887 29.04C29.4467 28.212 29.7827 25.122 29.7827 25.092C29.8007 24.924 29.9447 24.81 30.1127 24.828C30.2747 24.846 30.3947 24.996 30.3767 25.158C30.3647 25.29 30.0287 28.332 29.7587 29.22C29.7347 29.31 29.7467 29.388 29.8067 29.472C29.9327 29.64 30.2147 29.754 30.5267 29.754H31.6727C31.8407 29.754 31.9727 29.886 31.9727 30.054C31.9727 30.222 31.8407 30.354 31.6727 30.354V30.348Z" fill="#FF9988"/>
<path d="M37.2776 27.918C38.4341 27.918 39.3716 27.7031 39.3716 27.438C39.3716 27.1729 38.4341 26.958 37.2776 26.958C36.1211 26.958 35.1836 27.1729 35.1836 27.438C35.1836 27.7031 36.1211 27.918 37.2776 27.918Z" fill="#FF9988"/>
<path d="M25.0549 27.918C26.2114 27.918 27.1489 27.7031 27.1489 27.438C27.1489 27.1729 26.2114 26.958 25.0549 26.958C23.8985 26.958 22.9609 27.1729 22.9609 27.438C22.9609 27.7031 23.8985 27.918 25.0549 27.918Z" fill="#FF9988"/>
<path d="M39.1853 21.7551C37.1873 21.1671 35.6573 21.5391 34.7273 21.6591C34.3313 21.7071 34.2473 21.2211 34.2473 21.2211C34.1693 20.8911 34.6133 20.6631 34.9253 20.6031C35.9753 20.4111 37.3193 20.3151 39.3113 21.0051C39.6953 21.1371 39.7193 21.4611 39.7193 21.4611C39.6773 21.8211 39.4493 21.8271 39.1853 21.7491V21.7551Z" fill="#B54D4D"/>
<path d="M23.0986 21.7921C25.0846 21.1681 26.6206 21.5161 27.5506 21.6181C27.9466 21.6601 28.0246 21.1741 28.0246 21.1741C28.0966 20.8441 27.6466 20.6221 27.3346 20.5681C26.2786 20.3941 24.9346 20.3161 22.9606 21.0421C22.5766 21.1801 22.5586 21.5041 22.5586 21.5041C22.6066 21.8641 22.8346 21.8641 23.0926 21.7861L23.0986 21.7921Z" fill="#B54D4D"/>
<path d="M30.7621 35.2201C29.3461 35.2201 28.2181 34.9201 28.1461 34.9021C27.9841 34.8601 27.8941 34.6921 27.9361 34.5361C27.9781 34.3801 28.1461 34.2841 28.3021 34.3261C28.3321 34.3321 31.0921 35.0641 33.3181 34.1941C33.4741 34.1341 33.6481 34.2121 33.7081 34.3621C33.7681 34.5181 33.6901 34.6921 33.5401 34.7521C32.6221 35.1121 31.6381 35.2261 30.7681 35.2261L30.7621 35.2201Z" fill="#9B3D3D"/>
<path d="M24.4132 42.666L29.1892 46.074L26.8792 51.606L20.6992 45.852L24.4132 42.666Z" fill="#FFA242"/>
<path d="M29.1886 46.0742L29.4766 48.1202L28.3906 47.9822L29.1886 46.0742Z" fill="#F49037"/>
<path d="M31.9122 45.9658L31.4922 48.1198L32.6682 47.9218L31.9122 45.9658Z" fill="#F49037"/>
<path d="M31.9121 45.9659L36.2861 42.7559L40.3841 46.0439L34.2881 52.1339L31.9121 45.9659Z" fill="#FFA242"/>
<path d="M31.4866 48.9062H29.4766V62.8323H31.4866V48.9062Z" fill="white"/>
<path d="M29.4357 47.8322L29.4777 49.0562C29.4777 49.0562 30.4137 49.4642 31.4877 49.0562L31.5177 47.9462L29.4297 47.8262L29.4357 47.8322Z" fill="#FFB69F"/>
<path d="M31.4866 51.8457H29.4766V52.4457H31.4866V51.8457Z" fill="#D6D6D6"/>
<path d="M31.4866 54.5518H29.4766V55.1518H31.4866V54.5518Z" fill="#D6D6D6"/>
<path d="M31.4866 57.2578H29.4766V57.8578H31.4866V57.2578Z" fill="#D6D6D6"/>
<path d="M31.4866 59.9639H29.4766V60.5639H31.4866V59.9639Z" fill="#D6D6D6"/>
<path d="M33.196 55.1341C33.4876 55.1341 33.724 54.8977 33.724 54.6061C33.724 54.3145 33.4876 54.0781 33.196 54.0781C32.9044 54.0781 32.668 54.3145 32.668 54.6061C32.668 54.8977 32.9044 55.1341 33.196 55.1341Z" fill="#FFA242"/>
<path d="M33.196 61.0257C33.4876 61.0257 33.724 60.7893 33.724 60.4977C33.724 60.2061 33.4876 59.9697 33.196 59.9697C32.9044 59.9697 32.668 60.2061 32.668 60.4977C32.668 60.7893 32.9044 61.0257 33.196 61.0257Z" fill="#FFA242"/>
</g>
<defs>
<clipPath id="clip0_649_32153">
<rect width="60" height="60" rx="30" fill="white"/>
</clipPath>
</defs>
</svg>
