<svg width="60" height="60" viewBox="0 0 60 60" fill="none" xmlns="http://www.w3.org/2000/svg">
<g clip-path="url(#clip0_1316_42440)">
<rect width="60" height="60" rx="30" fill="white"/>
<circle cx="30" cy="30" r="30" fill="#DEFDFF"/>
<path d="M53.8728 52.6801C48.9048 51.0061 36.4908 44.5801 36.4908 44.5801H24.1488C24.1488 44.5801 11.7408 51.0061 6.76683 52.6801C1.79883 54.3541 1.79883 62.8381 1.79883 62.8381H58.8468C58.8468 62.8381 58.8468 54.3541 53.8788 52.6801H53.8728Z" fill="#42774A"/>
<path fill-rule="evenodd" clip-rule="evenodd" d="M24.041 45.5149L24.851 38.7109H35.729L36.569 45.1549L35.4165 45.1881L32.5486 47.1355L31.1686 60.7195L28.8886 47.3035L26.6957 45.4387L24.041 45.5149Z" fill="#F6C6B8"/>
<path d="M24.3828 42.6348C24.3828 42.6348 32.8128 43.4088 35.7828 39.7128V35.4648L25.0968 36.4908L24.3828 42.6348Z" fill="#D39587"/>
<path d="M24.2925 43.3916L20.2305 46.5656L25.7085 51.9116L28.8885 47.3036L24.2925 43.3916Z" fill="#74B37D"/>
<path d="M32.5488 47.1353L36.3468 43.4453L40.0488 46.3733L35.1468 51.7373L32.5488 47.1353Z" fill="#74B37D"/>
<path fill-rule="evenodd" clip-rule="evenodd" d="M30.8255 40.4152C36.336 40.4152 41.0005 35.7849 42.5684 29.4018C43.0842 29.3 43.3118 29.1887 43.3118 29.1887C44.5718 28.5167 45.2498 26.9627 45.0578 24.9407C44.9137 23.4229 43.681 23.1898 43.0752 23.1679C42.4788 15.1903 37.2221 8.95117 30.8255 8.95117C24.4294 8.95117 19.173 15.1894 18.576 23.1663C18.0505 23.1589 16.6068 23.2904 16.4501 24.9407C16.2581 26.9627 16.9361 28.5167 18.1961 29.1887C18.1961 29.1887 18.4661 29.3207 19.0841 29.4287L19.0828 29.4024C20.6508 35.7852 25.3152 40.4152 30.8255 40.4152Z" fill="#F6C6B8"/>
<path d="M30.8265 8.02706C17.6265 7.84106 18.5205 23.2671 18.5205 23.2671L30.8265 24.1671L43.1325 23.2671C43.1325 23.2671 44.0265 7.84106 30.8265 8.02706Z" fill="#F6C6B8"/>
<path d="M22.3907 21.5272C24.4187 21.1612 26.2127 21.4492 27.1247 21.6232C27.4007 21.6772 27.6767 21.5452 27.7607 21.3172C27.8567 21.0592 27.6767 20.7952 27.3647 20.7352C26.3267 20.5372 24.4607 20.2372 22.5047 20.9212C22.2047 21.0292 21.6707 21.3232 21.8327 21.5572C21.9227 21.6412 22.1207 21.5692 22.3907 21.5212V21.5272Z" fill="#534A3D"/>
<path d="M39.388 21.534C37.36 21.168 35.566 21.456 34.654 21.63C34.378 21.684 34.102 21.546 34.018 21.318C33.922 21.06 34.102 20.79 34.414 20.73C35.452 20.526 37.318 20.226 39.274 20.922C39.574 21.03 40.108 21.324 39.946 21.564C39.856 21.648 39.658 21.576 39.388 21.528V21.534Z" fill="#534A3D"/>
<path d="M36.6401 25.9429C37.041 25.9429 37.3661 25.3787 37.3661 24.6829C37.3661 23.987 37.041 23.4229 36.6401 23.4229C36.2391 23.4229 35.9141 23.987 35.9141 24.6829C35.9141 25.3787 36.2391 25.9429 36.6401 25.9429Z" fill="#534A3D"/>
<path d="M25.7514 25.685C26.1523 25.685 26.4774 25.1209 26.4774 24.425C26.4774 23.7292 26.1523 23.165 25.7514 23.165C25.3504 23.165 25.0254 23.7292 25.0254 24.425C25.0254 25.1209 25.3504 25.685 25.7514 25.685Z" fill="#534A3D"/>
<path d="M31.6786 30.347H30.5326C30.0226 30.347 29.5726 30.149 29.3326 29.825C29.1586 29.591 29.1106 29.315 29.1946 29.045C29.4586 28.181 29.6806 27.3649 29.6806 27.3589C29.7226 27.1969 29.8846 27.107 30.0466 27.149C30.2086 27.191 30.3046 27.359 30.2566 27.515C30.2566 27.515 30.0346 28.349 29.7646 29.219C29.7406 29.303 29.7526 29.387 29.8126 29.471C29.9386 29.645 30.2206 29.753 30.5326 29.753H31.6786C31.8466 29.753 31.9786 29.885 31.9786 30.053C31.9786 30.221 31.8466 30.353 31.6786 30.353V30.347Z" fill="#D39587"/>
<path d="M29.0631 34.2592C28.5051 34.2592 28.1391 34.2292 28.0971 34.2232C27.9291 34.2112 27.8091 34.0612 27.8211 33.8992C27.8331 33.7372 27.9771 33.6112 28.1451 33.6232C28.1811 33.6232 31.5651 33.8992 34.0731 32.6632C34.2231 32.5912 34.4031 32.6512 34.4751 32.8012C34.5471 32.9512 34.4871 33.1312 34.3371 33.2032C32.5011 34.1092 30.2991 34.2532 29.0571 34.2532L29.0631 34.2592Z" fill="#D39587"/>
<path d="M37.2405 27.917C38.397 27.917 39.3345 27.7021 39.3345 27.437C39.3345 27.1719 38.397 26.957 37.2405 26.957C36.084 26.957 35.1465 27.1719 35.1465 27.437C35.1465 27.7021 36.084 27.917 37.2405 27.917Z" fill="#DEA59B"/>
<path d="M25.0256 27.917C26.1821 27.917 27.1196 27.7021 27.1196 27.437C27.1196 27.1719 26.1821 26.957 25.0256 26.957C23.8692 26.957 22.9316 27.1719 22.9316 27.437C22.9316 27.7021 23.8692 27.917 25.0256 27.917Z" fill="#DEA59B"/>
<path d="M38.4415 7.21141C38.4415 7.21141 38.4415 7.18141 38.4415 7.16941C38.4415 5.77141 37.3075 4.64341 35.9155 4.64341C35.6095 4.64341 35.3275 4.70341 35.0575 4.80541C34.3135 4.01941 33.1495 3.50941 31.8295 3.50941C30.6115 3.50941 29.5195 3.94741 28.7695 4.63741C27.9835 4.16341 27.0115 3.87541 25.9615 3.87541C25.5175 3.87541 25.0915 3.92941 24.6835 4.01941C24.0895 3.50341 23.3215 3.19141 22.4755 3.19141C21.1435 3.19141 19.9975 3.96541 19.4515 5.08741C19.1215 4.81141 18.7015 4.64341 18.2395 4.64341C17.1835 4.64341 16.3315 5.50141 16.3315 6.55141C16.3315 6.66541 16.3435 6.77341 16.3675 6.88141C14.2855 6.91141 12.6055 8.60941 12.6055 10.6974C12.6055 11.9634 13.2235 13.0854 14.1775 13.7814C13.8235 14.3574 13.6195 15.0354 13.6195 15.7674C13.6195 17.8794 15.3295 19.5894 17.4415 19.5894C19.5535 19.5894 21.2635 17.8794 21.2635 15.7674C21.2635 15.7254 21.2635 15.6834 21.2575 15.6414C21.7675 15.8934 22.3375 16.0374 22.9435 16.0374C24.9655 16.0374 26.6155 14.4654 26.7535 12.4854C27.4435 13.1874 28.4035 13.6194 29.4655 13.6194C31.0435 13.6194 32.3995 12.6594 32.9815 11.2914C33.2995 13.0854 34.8595 14.4474 36.7435 14.4474C38.8555 14.4474 40.5655 12.7374 40.5655 10.6254C40.5655 9.13141 39.7075 7.84141 38.4535 7.21141H38.4415Z" fill="#F4DE8E"/>
</g>
<defs>
<clipPath id="clip0_1316_42440">
<rect width="60" height="60" rx="30" fill="white"/>
</clipPath>
</defs>
</svg>
