<svg width="60" height="60" viewBox="0 0 60 60" fill="none" xmlns="http://www.w3.org/2000/svg">
<g clip-path="url(#clip0_392_21390)">
<rect width="60" height="60" rx="30" fill="white"/>
<circle cx="30" cy="30" r="30" fill="#FCFFDE"/>
<path d="M15.9118 23.3938C14.9638 33.1078 13.4758 36.6598 12.6718 37.9198C12.4678 38.2318 12.6658 38.6518 13.0318 38.6998L29.4658 40.8538L30.4618 7.36179C30.4618 7.36179 17.6578 5.42379 15.9118 23.3938Z" fill="#441D39"/>
<path d="M48.8219 37.9201C48.0119 36.6601 46.5239 33.1081 45.5819 23.3941C43.8359 5.42405 30.6719 7.35005 30.6719 7.35005L32.0339 40.8481L48.4679 38.6941C48.8399 38.6461 49.0319 38.2321 48.8279 37.9141L48.8219 37.9201Z" fill="#441D39"/>
<path d="M24.851 38.7119L24.041 45.5159L36.569 45.1559L35.729 38.7119H24.851Z" fill="#FFC7A4"/>
<path d="M24.3828 42.6358C24.3828 42.6358 32.8128 43.4098 35.7828 39.7138V35.4658L25.0968 36.4918L24.3828 42.6358Z" fill="#F2B594"/>
<path d="M45.066 24.9412C44.922 23.4172 43.68 23.1892 43.074 23.1712C42.48 15.1912 36.858 7.36719 30.468 7.36719C24.078 7.36719 19.182 15.1912 18.588 23.1712C18.066 23.1652 16.614 23.2912 16.458 24.9472C16.266 26.9692 16.944 28.5232 18.204 29.1952C18.204 29.1952 18.474 29.3272 19.092 29.4352V29.3932C20.652 35.7892 25.32 40.4272 30.834 40.4272C36.348 40.4272 41.01 35.7952 42.576 29.4052C43.092 29.3032 43.326 29.1952 43.326 29.1952C44.586 28.5232 45.264 26.9692 45.072 24.9472L45.066 24.9412Z" fill="#FFC7A4"/>
<path d="M22.3907 21.5282C24.4187 21.1622 26.2127 21.4502 27.1247 21.6242C27.4007 21.6782 27.6767 21.5462 27.7607 21.3182C27.8567 21.0602 27.6767 20.7962 27.3647 20.7362C26.3267 20.5382 24.4607 20.2382 22.5047 20.9222C22.2047 21.0302 21.6707 21.3242 21.8327 21.5582C21.9227 21.6422 22.1207 21.5702 22.3907 21.5222V21.5282Z" fill="#441D39"/>
<path d="M39.3763 21.5282C37.3483 21.1622 35.5543 21.4502 34.6423 21.6242C34.3663 21.6782 34.0903 21.5462 34.0063 21.3182C33.9103 21.0602 34.0903 20.7962 34.4023 20.7362C35.4403 20.5382 37.3063 20.2382 39.2623 20.9222C39.5623 21.0302 40.0963 21.3242 39.9343 21.5582C39.8443 21.6422 39.6463 21.5702 39.3763 21.5222V21.5282Z" fill="#441D39"/>
<path d="M36.6401 25.685C37.041 25.685 37.3661 25.1209 37.3661 24.425C37.3661 23.7292 37.041 23.165 36.6401 23.165C36.2391 23.165 35.9141 23.7292 35.9141 24.425C35.9141 25.1209 36.2391 25.685 36.6401 25.685Z" fill="#441D39"/>
<path d="M25.7514 25.685C26.1523 25.685 26.4774 25.1209 26.4774 24.425C26.4774 23.7292 26.1523 23.165 25.7514 23.165C25.3504 23.165 25.0254 23.7292 25.0254 24.425C25.0254 25.1209 25.3504 25.685 25.7514 25.685Z" fill="#441D39"/>
<path d="M31.6795 30.3477H30.5335C29.9275 30.3477 29.4355 30.1617 29.2435 29.8557C29.1355 29.6877 29.1235 29.4957 29.2075 29.3157C29.4715 28.7577 29.6875 28.2177 29.6875 28.2177C29.7475 28.0617 29.9275 27.9897 30.0775 28.0557C30.2335 28.1157 30.3055 28.2957 30.2395 28.4457C30.2395 28.4457 30.0175 28.9977 29.7475 29.5737C29.7775 29.5917 30.0235 29.7477 30.5335 29.7477H31.6795C31.8475 29.7477 31.9795 29.8797 31.9795 30.0477C31.9795 30.2157 31.8475 30.3477 31.6795 30.3477Z" fill="#EDA07E"/>
<path d="M30.5818 34.1216C29.1838 34.1216 28.1218 33.9296 28.0438 33.9116C27.8818 33.8816 27.7738 33.7256 27.8038 33.5636C27.8338 33.4016 27.9958 33.2936 28.1518 33.3236C28.1878 33.3236 31.5298 33.9416 34.1458 32.9636C34.3018 32.9036 34.4758 32.9816 34.5298 33.1376C34.5898 33.2936 34.5118 33.4676 34.3558 33.5216C33.1018 33.9896 31.7278 34.1216 30.5758 34.1216H30.5818Z" fill="#EDA07E"/>
<path d="M37.2405 27.918C38.397 27.918 39.3345 27.7031 39.3345 27.438C39.3345 27.1729 38.397 26.958 37.2405 26.958C36.084 26.958 35.1465 27.1729 35.1465 27.438C35.1465 27.7031 36.084 27.918 37.2405 27.918Z" fill="#EAA281"/>
<path d="M25.0237 27.918C26.1802 27.918 27.1177 27.7031 27.1177 27.438C27.1177 27.1729 26.1802 26.958 25.0237 26.958C23.8672 26.958 22.9297 27.1729 22.9297 27.438C22.9297 27.7031 23.8672 27.918 25.0237 27.918Z" fill="#EAA281"/>
<path d="M19.0727 19.3371L18.4727 19.3011C19.0607 9.30509 28.3787 7.88309 28.4747 7.87109L28.5587 8.46509C28.5587 8.46509 26.2907 8.80109 24.0107 10.3071C20.9687 12.3171 19.3127 15.3531 19.0727 19.3371Z" fill="#30132B"/>
<path d="M30.6719 7.35547V12.5575C30.6719 12.5575 39.5219 11.2555 43.1339 23.1715C43.1339 23.1715 45.5879 7.13947 30.6719 7.36147V7.35547Z" fill="#441D39"/>
<path d="M30.4605 7.36151V12.5635C30.4605 12.5635 22.1385 11.4775 18.5265 23.3935C18.5265 23.3935 15.5445 7.14551 30.4605 7.36151Z" fill="#441D39"/>
<path d="M53.8728 52.6799C49.8108 51.3119 40.7868 46.7759 37.6188 45.1559C37.6188 45.1379 37.6188 45.1199 37.6068 45.1019L36.9108 42.8639C36.8148 42.5519 36.5268 42.3359 36.1968 42.3359H24.1668C23.8068 42.3359 23.5008 42.5879 23.4348 42.9419L22.5588 45.0719C22.5348 45.1859 22.5408 45.2939 22.5648 45.3959C19.0608 47.1779 10.6488 51.3779 6.76683 52.6859C1.79883 54.3599 1.79883 62.8439 1.79883 62.8439H58.8468C58.8468 62.8439 58.8468 54.3599 53.8788 52.6859L53.8728 52.6799Z" fill="#4598C4"/>
<path d="M18.724 31.7757C18.55 31.7757 18.472 31.7757 18.442 31.4517H18.43C18.43 31.4517 18.43 31.3797 18.43 31.2957C18.418 31.0197 18.418 30.5937 18.418 29.9157C18.418 29.2377 18.418 28.8117 18.43 28.5357C18.43 28.4517 18.43 28.3977 18.43 28.3797H18.442C18.478 28.0557 18.55 28.0557 18.724 28.0557C18.898 28.0557 18.976 28.0557 19.006 28.3797H19.018C19.018 28.3797 19.018 28.4517 19.018 28.5357C19.03 28.8117 19.03 29.2377 19.03 29.9157C19.03 30.5937 19.03 31.0197 19.018 31.2957C19.018 31.3797 19.018 31.4337 19.018 31.4517H19.006C18.97 31.7757 18.898 31.7757 18.724 31.7757Z" fill="#FFA33A"/>
<path d="M43.3373 31.7757C43.1633 31.7757 43.0853 31.7757 43.0553 31.4517H43.0433C43.0433 31.4517 43.0433 31.3797 43.0433 31.2957C43.0313 31.0197 43.0312 30.5937 43.0312 29.9157C43.0312 29.2377 43.0313 28.8117 43.0433 28.5357C43.0433 28.4517 43.0433 28.3977 43.0433 28.3797H43.0553C43.0913 28.0557 43.1633 28.0557 43.3373 28.0557C43.5113 28.0557 43.5893 28.0557 43.6193 28.3797H43.6313C43.6313 28.3797 43.6313 28.4517 43.6313 28.5357C43.6433 28.8117 43.6433 29.2377 43.6433 29.9157C43.6433 30.5937 43.6433 31.0197 43.6313 31.2957C43.6313 31.3797 43.6313 31.4337 43.6313 31.4517H43.6193C43.5833 31.7757 43.5113 31.7757 43.3373 31.7757Z" fill="#FFA33A"/>
<path d="M24.9824 46.8785C24.9824 46.8785 24.9464 46.8785 24.9344 46.8785C24.7724 46.8485 24.6584 46.6985 24.6884 46.5305L25.1444 43.8665C25.1744 43.7045 25.3304 43.5965 25.4924 43.6205C25.6544 43.6505 25.7684 43.8005 25.7384 43.9685L25.2824 46.6325C25.2584 46.7765 25.1324 46.8845 24.9884 46.8845L24.9824 46.8785Z" fill="#2579AD"/>
<path d="M35.1474 46.8777C35.0034 46.8777 34.8774 46.7757 34.8534 46.6257L34.3974 43.9617C34.3674 43.7997 34.4814 43.6437 34.6434 43.6137C34.8054 43.5897 34.9614 43.6977 34.9914 43.8597L35.4474 46.5237C35.4774 46.6857 35.3634 46.8417 35.2014 46.8717C35.1834 46.8717 35.1654 46.8717 35.1534 46.8717L35.1474 46.8777Z" fill="#2579AD"/>
<path d="M30.3293 47.1301C30.1613 47.1301 30.0293 46.9981 30.0293 46.8301V44.1301C30.0293 43.9621 30.1613 43.8301 30.3293 43.8301C30.4973 43.8301 30.6293 43.9621 30.6293 44.1301V46.8301C30.6293 46.9981 30.4973 47.1301 30.3293 47.1301Z" fill="#2579AD"/>
</g>
<defs>
<clipPath id="clip0_392_21390">
<rect width="60" height="60" rx="30" fill="white"/>
</clipPath>
</defs>
</svg>
