<svg width="60" height="60" viewBox="0 0 60 60" fill="none" xmlns="http://www.w3.org/2000/svg">
<g clip-path="url(#clip0_649_32128)">
<rect width="60" height="60" rx="30" fill="white"/>
<circle cx="30" cy="30" r="30" fill="#FFDEF6"/>
<path d="M24.1496 8.04004C24.1496 8.04004 16.9076 9.60604 17.4356 19.116C17.9636 28.626 16.2656 31.308 16.2656 31.308L18.1256 30.792L24.1436 34.914L40.3676 31.668L42.9116 32.424L43.6976 30.648C43.6976 30.648 44.5916 31.608 45.4796 31.662C45.4796 31.662 44.6516 27.39 44.8076 25.482C45.1376 21.486 43.2176 15.672 43.2176 15.672L24.1376 8.04004H24.1496Z" fill="#441D39"/>
<path d="M53.8726 52.6799C49.7806 51.3059 40.6546 46.7099 37.5526 45.1259C37.3126 45.0059 37.1146 44.8979 36.9526 44.8199C36.6646 44.6699 36.4966 44.5859 36.4966 44.5859H24.1546C24.1546 44.5859 23.9925 44.6699 23.6985 44.8199C23.5366 44.9039 23.3326 45.0059 23.0985 45.1259C22.6425 45.3599 22.0606 45.6539 21.3826 45.9959C17.4286 47.9879 10.2705 51.5099 6.77855 52.6799C1.81055 54.3539 1.81055 62.8379 1.81055 62.8379H58.8406C58.8406 62.8379 58.8406 54.3539 53.8726 52.6799Z" fill="#FDEBD9"/>
<path d="M35.7224 38.7109H24.8504L24.1484 44.5789C24.1484 45.7309 26.9144 46.6669 30.3224 46.6669C33.7304 46.6669 36.4964 45.7309 36.4964 44.5789L35.7284 38.7109H35.7224Z" fill="#C1735C"/>
<path d="M20.1038 18.3589C20.1038 18.3589 20.4998 15.1309 23.2358 14.5309C23.2358 14.5309 42.4778 14.5309 38.6198 14.5309C38.6198 14.5309 41.1218 14.5309 41.6438 18.1309C41.7218 18.6709 42.5198 24.2089 42.4718 26.3869C42.4418 27.7849 42.9878 27.0469 42.9878 27.0469C42.9878 27.0469 43.5758 24.8149 43.6718 21.8869C43.8518 16.3069 43.1258 6.71289 31.3598 6.71289C19.5938 6.71289 18.5078 13.7749 18.5078 22.8829L18.9398 27.3649C18.9578 27.5449 19.1078 27.6769 19.2878 27.6769C19.6298 27.6769 20.0978 18.3589 20.0978 18.3589H20.1038Z" fill="#C1735C"/>
<path d="M41.2363 17.1952C41.4649 17.1952 41.6503 17.0098 41.6503 16.7812C41.6503 16.5525 41.4649 16.3672 41.2363 16.3672C41.0076 16.3672 40.8223 16.5525 40.8223 16.7812C40.8223 17.0098 41.0076 17.1952 41.2363 17.1952Z" fill="#FF9988"/>
<path d="M24.3828 42.6348C24.3828 42.6348 32.8128 43.4088 35.7828 39.7128V35.4648L25.0968 36.4908L24.3828 42.6348Z" fill="#A5503C"/>
<path fill-rule="evenodd" clip-rule="evenodd" d="M31.2103 40.416C36.9161 40.416 41.7149 35.4593 43.1081 28.7353C43.3673 28.665 43.4857 28.6072 43.4857 28.6072C44.7457 27.9362 45.4237 26.3846 45.2317 24.3657C45.0992 22.9726 44.0467 22.6634 43.407 22.6056C42.6021 14.9244 37.4482 9 31.2103 9C24.8436 9 19.6062 15.1715 18.9693 23.0835C18.6695 23.078 16.8694 23.1225 16.8034 24.984C16.7314 27.0149 17.5055 28.5186 18.8015 29.1117C18.8015 29.1117 18.9964 29.1921 19.429 29.2604C20.958 35.7158 25.6541 40.416 31.2103 40.416Z" fill="#C1735C"/>
<path d="M36.6342 25.9429C37.0352 25.9429 37.3602 25.3787 37.3602 24.6829C37.3602 23.987 37.0352 23.4229 36.6342 23.4229C36.2332 23.4229 35.9082 23.987 35.9082 24.6829C35.9082 25.3787 36.2332 25.9429 36.6342 25.9429Z" fill="#441D39"/>
<path d="M25.7455 25.685C26.1465 25.685 26.4715 25.1209 26.4715 24.425C26.4715 23.7292 26.1465 23.165 25.7455 23.165C25.3446 23.165 25.0195 23.7292 25.0195 24.425C25.0195 25.1209 25.3446 25.685 25.7455 25.685Z" fill="#441D39"/>
<path d="M31.6727 30.3474H30.5267C30.0167 30.3474 29.5667 30.1494 29.3267 29.8254C29.1527 29.5914 29.1047 29.3154 29.1887 29.0454C29.4467 28.2054 29.8007 25.9254 29.8067 25.9014C29.8307 25.7394 29.9867 25.6314 30.1487 25.6494C30.3107 25.6734 30.4247 25.8294 30.4007 25.9914C30.3887 26.0874 30.0347 28.3434 29.7647 29.2194C29.7407 29.3034 29.7527 29.3874 29.8127 29.4714C29.9387 29.6454 30.2207 29.7534 30.5327 29.7534H31.6787C31.8467 29.7534 31.9787 29.8854 31.9787 30.0534C31.9787 30.2214 31.8467 30.3534 31.6787 30.3534L31.6727 30.3474Z" fill="#A5503C"/>
<path d="M37.2776 27.917C38.4341 27.917 39.3716 27.7021 39.3716 27.437C39.3716 27.1719 38.4341 26.957 37.2776 26.957C36.1211 26.957 35.1836 27.1719 35.1836 27.437C35.1836 27.7021 36.1211 27.917 37.2776 27.917Z" fill="#AF5D4E"/>
<path d="M25.0549 27.917C26.2114 27.917 27.1489 27.7021 27.1489 27.437C27.1489 27.1719 26.2114 26.957 25.0549 26.957C23.8985 26.957 22.9609 27.1719 22.9609 27.437C22.9609 27.7021 23.8985 27.917 25.0549 27.917Z" fill="#AF5D4E"/>
<path d="M39.2141 21.618C37.1861 21.156 35.6801 21.618 34.7621 21.798C34.3721 21.876 34.2521 21.39 34.2521 21.39C34.1561 21.066 34.5821 20.808 34.8941 20.736C35.9321 20.478 37.2641 20.298 39.2921 20.868C39.6821 20.976 39.7241 21.3 39.7241 21.3C39.7001 21.66 39.4781 21.684 39.2141 21.618Z" fill="#441D39"/>
<path d="M23.039 21.5333C25.085 21.1493 26.573 21.6773 27.485 21.8873C27.875 21.9773 28.007 21.5033 28.007 21.5033C28.115 21.1853 27.701 20.9093 27.395 20.8193C26.369 20.5253 25.043 20.2913 22.991 20.7773C22.595 20.8733 22.541 21.1913 22.541 21.1913C22.547 21.5513 22.769 21.5813 23.039 21.5333Z" fill="#441D39"/>
<path d="M30.7602 34.9076C29.3382 34.9076 28.2162 34.6076 28.1382 34.5896C27.9762 34.5476 27.8862 34.3796 27.9282 34.2236C27.9702 34.0616 28.1382 33.9716 28.2942 34.0136C28.3242 34.0196 31.0842 34.7516 33.3102 33.8816C33.4662 33.8216 33.6402 33.8996 33.7002 34.0496C33.7602 34.2056 33.6822 34.3796 33.5322 34.4396C32.6142 34.7996 31.6302 34.9136 30.7602 34.9136V34.9076Z" fill="#A5503C"/>
<path d="M39.6771 7.73405C31.4451 1.22405 24.1491 8.04005 24.1491 8.04005C16.9311 9.36005 17.9571 20.016 18.1311 21.156C18.3051 22.29 18.5271 23.076 18.5271 23.076C18.6831 23.082 18.8271 23.076 18.9651 23.046L19.5771 27.438C19.6191 27.594 19.8531 27.606 19.9071 27.438C19.9611 27.378 20.1291 24.81 20.2911 22.128C21.6591 20.106 21.5991 15.372 24.1491 13.254C25.3971 12.216 27.1491 13.032 27.1491 13.032C27.1491 13.032 28.4571 10.722 31.5711 12.066C34.3731 13.272 37.8171 20.874 41.6151 22.68C41.7651 25.152 41.9151 27.384 41.9631 27.444C42.0171 27.612 42.2511 27.6 42.2931 27.444L42.9051 23.058L44.6451 22.152C44.6451 22.152 45.4311 11.328 39.6651 7.74005L39.6771 7.73405Z" fill="#441D39"/>
<path d="M53.8732 52.6806C51.7132 51.9546 48.1492 50.3286 44.8072 48.7266L35.4832 52.0326V60.9546H34.8832V52.2426L32.9512 52.9266V62.8326H58.8412C58.8412 62.8326 58.8412 54.3486 53.8732 52.6746V52.6806Z" fill="#4598C4"/>
<path d="M40.3432 45.2404C37.3912 44.2264 32.9512 52.9264 32.9512 52.9264L34.8832 52.2424V60.9544H35.4832V52.0324L44.8072 48.7264L44.8432 48.7144C44.8432 48.7144 43.3012 46.2544 40.3492 45.2404H40.3432Z" fill="#2B7FA5"/>
<path d="M25.9248 52.2829L24.5388 60.7129L23.9448 60.6169L25.3488 52.0789L15.8568 48.7129C12.5088 50.3209 8.93283 51.9529 6.76683 52.6789C1.79883 54.3529 1.79883 62.8369 1.79883 62.8369H27.6168L27.7488 52.9309L25.9248 52.2829Z" fill="#4598C4"/>
<path d="M20.3573 45.2403C17.4113 46.2483 15.8693 48.7023 15.8633 48.7143L25.3553 52.0803L23.9513 60.6183L24.5453 60.7143L25.9313 52.2843L27.7553 52.9323C27.7553 52.9323 23.3093 44.2323 20.3633 45.2463L20.3573 45.2403Z" fill="#2B7FA5"/>
</g>
<defs>
<clipPath id="clip0_649_32128">
<rect width="60" height="60" rx="30" fill="white"/>
</clipPath>
</defs>
</svg>
