<svg width="60" height="60" viewBox="0 0 60 60" fill="none" xmlns="http://www.w3.org/2000/svg">
<g clip-path="url(#clip0_1316_42500)">
<rect width="60" height="60" rx="30" fill="white"/>
<circle cx="30" cy="30" r="30" fill="#FFDEDE"/>
<path d="M30.0776 7.54691C30.4556 7.63691 30.8336 7.67891 31.2176 7.64291C33.1136 7.48091 39.5636 7.40891 42.3476 13.5529C45.6236 20.8009 47.4056 22.7629 45.1196 31.1869C42.8336 39.6109 44.6576 39.2929 45.8396 43.5829L45.8756 43.7089C46.5116 46.0189 44.6396 48.2509 42.2456 48.0529L37.6676 47.6629C37.3376 47.6329 37.0016 47.6569 36.6776 47.7229C34.0736 48.2629 21.6356 50.7289 16.8656 49.4809C15.2336 49.0549 13.8356 48.5389 12.6716 48.0229C10.6796 47.1409 10.0556 44.6569 11.2916 42.8629C11.8136 42.1129 12.2216 41.2909 12.3056 40.5049C12.5576 38.0809 10.8716 35.8969 11.5376 31.7869C12.6476 24.9049 14.7536 25.5409 15.1256 21.2449C15.3416 18.7849 19.0436 4.91291 30.0716 7.54691H30.0776Z" fill="#2F2928"/>
<path d="M30.0776 7.54691C30.4556 7.63691 30.8336 7.67891 31.2176 7.64291C33.1136 7.48091 39.5636 7.40891 42.3476 13.5529C45.6236 20.8009 47.4056 22.7629 45.1196 31.1869C42.8336 39.6109 44.6576 39.2929 45.8396 43.5829L45.8756 43.7089C46.5116 46.0189 44.6396 48.2509 42.2456 48.0529L37.6676 47.6629C37.3376 47.6329 37.0016 47.6569 36.6776 47.7229C34.0736 48.2629 21.6356 50.7289 16.8656 49.4809C15.2336 49.0549 13.8356 48.5389 12.6716 48.0229C10.6796 47.1409 10.0556 44.6569 11.2916 42.8629C11.8136 42.1129 12.2216 41.2909 12.3056 40.5049C12.5576 38.0809 10.8716 35.8969 11.5376 31.7869C12.6476 24.9049 14.7536 25.5409 15.1256 21.2449C15.3416 18.7849 19.0436 4.91291 30.0716 7.54691H30.0776Z" fill="#2F2928"/>
<path d="M53.8728 52.6789C48.9048 51.0049 36.4908 44.5789 36.4908 44.5789L35.7228 38.7109H24.8508L24.1488 44.5789C24.1488 44.5789 11.7408 51.0049 6.76683 52.6789C1.79283 54.3529 1.79883 62.8369 1.79883 62.8369H58.8468C58.8468 62.8369 58.8468 54.3529 53.8788 52.6789H53.8728Z" fill="#EFE3CB"/>
<path d="M30.3224 46.4336C33.7322 46.4336 36.4964 45.6035 36.4964 44.5796C36.4964 43.5557 33.7322 42.7256 30.3224 42.7256C26.9126 42.7256 24.1484 43.5557 24.1484 44.5796C24.1484 45.6035 26.9126 46.4336 30.3224 46.4336Z" fill="#EFE3CB"/>
<path d="M24.3828 42.6348C24.3828 42.6348 32.8128 43.4088 35.7828 39.7128V35.4648L25.0968 36.4908L24.3828 42.6348Z" fill="#EB9A6C"/>
<path d="M30.8275 40.4152C37.6239 40.4152 43.1335 33.3717 43.1335 24.6832C43.1335 15.9946 37.6239 8.95117 30.8275 8.95117C24.0311 8.95117 18.5215 15.9946 18.5215 24.6832C18.5215 33.3717 24.0311 40.4152 30.8275 40.4152Z" fill="#EFE3CB"/>
<path d="M42.7438 23.1767C42.7438 23.1767 44.8678 22.9187 45.0598 24.9407C45.2518 26.9627 44.5738 28.5167 43.3138 29.1887C43.3138 29.1887 43.0438 29.3207 42.4258 29.4287L42.7438 23.1827V23.1767Z" fill="#EFE3CB"/>
<path d="M18.7661 23.1767C18.7661 23.1767 16.6421 22.9187 16.4501 24.9407C16.2581 26.9627 16.9361 28.5167 18.1961 29.1887C18.1961 29.1887 18.4661 29.3207 19.0841 29.4287L18.7661 23.1827V23.1767Z" fill="#EFE3CB"/>
<path d="M18.5205 23.3213C18.5205 23.3213 17.6265 8.83732 30.8265 9.01132V24.1673L18.5205 23.3213Z" fill="#EFE3CB"/>
<path d="M43.1263 23.3213C43.1263 23.3213 44.0203 8.83732 30.8203 9.01132V24.1673L43.1263 23.3213Z" fill="#EFE3CB"/>
<path d="M22.3907 21.5282C24.4187 21.1622 26.2127 21.4502 27.1247 21.6242C27.4007 21.6782 27.6767 21.5462 27.7607 21.3182C27.8567 21.0602 27.6767 20.7962 27.3647 20.7362C26.3267 20.5382 24.4607 20.2382 22.5047 20.9222C22.2047 21.0302 21.6707 21.3242 21.8327 21.5582C21.9227 21.6422 22.1207 21.5702 22.3907 21.5222V21.5282Z" fill="#2F2928"/>
<path d="M39.388 21.534C37.36 21.168 35.566 21.456 34.654 21.63C34.378 21.684 34.102 21.546 34.018 21.318C33.922 21.06 34.102 20.79 34.414 20.73C35.452 20.526 37.318 20.226 39.274 20.922C39.574 21.03 40.108 21.324 39.946 21.564C39.856 21.648 39.658 21.576 39.388 21.528V21.534Z" fill="#2F2928"/>
<path d="M36.6401 25.9429C37.041 25.9429 37.3661 25.3787 37.3661 24.6829C37.3661 23.987 37.041 23.4229 36.6401 23.4229C36.2391 23.4229 35.9141 23.987 35.9141 24.6829C35.9141 25.3787 36.2391 25.9429 36.6401 25.9429Z" fill="#441D39"/>
<path d="M25.7514 25.685C26.1523 25.685 26.4774 25.1209 26.4774 24.425C26.4774 23.7292 26.1523 23.165 25.7514 23.165C25.3504 23.165 25.0254 23.7292 25.0254 24.425C25.0254 25.1209 25.3504 25.685 25.7514 25.685Z" fill="#441D39"/>
<path d="M31.6727 30.3471H30.5267C30.0167 30.3471 29.5667 30.1491 29.3267 29.8191C29.1527 29.5851 29.1047 29.3091 29.1887 29.0391C29.4527 28.1751 29.6747 27.3531 29.6747 27.3531C29.7167 27.1911 29.8847 27.1011 30.0407 27.1431C30.2027 27.1851 30.2987 27.3531 30.2507 27.5091C30.2507 27.5091 30.0287 28.3431 29.7587 29.2131C29.7347 29.3031 29.7467 29.3811 29.8067 29.4651C29.9327 29.6331 30.2147 29.7471 30.5267 29.7471H31.6727C31.8407 29.7471 31.9727 29.8791 31.9727 30.0471C31.9727 30.2151 31.8407 30.3471 31.6727 30.3471Z" fill="#EB9A6C"/>
<path d="M29.0678 34.2533C28.5098 34.2533 28.1438 34.2233 28.1018 34.2173C27.9398 34.2053 27.8138 34.0553 27.8318 33.8933C27.8438 33.7253 27.9938 33.6113 28.1558 33.6173C28.1918 33.6173 31.5758 33.8933 34.0838 32.6573C34.2338 32.5853 34.4138 32.6453 34.4858 32.7953C34.5578 32.9453 34.4978 33.1253 34.3478 33.1973C32.5118 34.1033 30.3098 34.2473 29.0738 34.2473L29.0678 34.2533Z" fill="#EB9A6C"/>
<path d="M36.4971 44.5804C36.4971 44.5804 36.3231 42.5644 36.2151 42.4384C33.5091 43.2964 28.4031 43.2004 24.4251 42.2764C24.4251 42.2764 24.0831 43.6204 19.0851 47.1424L11.7171 50.6524L11.0391 62.8384H48.9231L47.6631 50.1244L36.5031 44.5804H36.4971Z" fill="#84B1CA"/>
<path d="M34.9258 8.49028C34.9078 8.46028 34.8958 8.42428 34.8778 8.40028C34.4878 7.75228 28.4818 7.48828 27.9838 7.64428C27.5818 7.77028 22.4038 10.7523 20.4358 11.8923C19.9498 12.1743 19.5778 12.6123 19.3858 13.1403L15.3898 23.9763C15.2938 24.2343 15.2458 24.5103 15.2398 24.7923L15.0838 46.6443C15.0778 47.8803 14.4118 48.6963 15.6418 48.8223L21.0538 49.4403C22.2358 49.5603 23.3218 48.8043 23.6218 47.6583L24.0418 45.2763C24.1858 44.7243 24.0178 44.2923 24.0838 43.6203C24.3118 41.3763 20.6518 36.1983 21.1738 34.6263C21.8218 32.6703 22.7098 30.5763 22.8658 27.9243C23.0218 25.2723 21.3058 20.5923 23.7238 14.9043C25.6678 10.3323 30.1798 11.2443 31.8718 11.7783C31.9978 11.8203 32.1298 11.8443 32.2618 11.8623C32.2618 11.8623 41.9818 14.8743 42.2338 25.6863C42.2338 25.6863 42.6298 26.2983 42.8818 25.5783C44.6158 20.5803 42.3658 9.56428 34.9198 8.49628L34.9258 8.49028Z" fill="#2F2928"/>
</g>
<defs>
<clipPath id="clip0_1316_42500">
<rect width="60" height="60" rx="30" fill="white"/>
</clipPath>
</defs>
</svg>
