<svg width="60" height="60" viewBox="0 0 60 60" fill="none" xmlns="http://www.w3.org/2000/svg">
<g clip-path="url(#clip0_649_32178)">
<rect width="60" height="60" rx="30" fill="white"/>
<circle cx="30" cy="30" r="30" fill="#E1DEFF"/>
<path d="M52.9368 41.693C55.0008 36.653 51.6468 36.137 48.1548 33.533C44.6628 30.929 50.3508 29.813 51.5148 27.137C52.6788 24.461 50.6088 22.577 48.0288 21.155C45.4428 19.733 41.6868 14.201 41.6868 14.201L41.5188 14.123C43.4688 18.035 43.3848 22.505 43.3548 23.171C43.9788 23.207 45.1428 23.465 45.2868 24.941C45.4788 26.963 44.8008 28.517 43.5408 29.189C43.5408 29.189 43.3008 29.297 42.7908 29.399C41.2248 35.783 36.5628 40.421 31.0488 40.421C25.5348 40.421 20.8668 35.783 19.3068 29.387V29.429C18.6888 29.321 18.4188 29.189 18.4188 29.189C17.1588 28.517 16.4808 26.963 16.6728 24.941C16.8228 23.345 18.1788 23.171 18.7428 23.165C18.7308 22.793 18.7008 21.287 18.9888 19.367C18.0348 19.835 15.1728 21.383 15.2268 23.165C15.2988 25.307 15.9108 28.247 13.1568 29.045C10.4028 29.843 10.3068 34.973 11.4648 37.577C12.6228 40.181 13.4028 41.819 9.76679 43.409C6.13079 44.999 10.1748 48.023 9.78479 53.831C9.39479 59.639 14.6928 57.065 25.2408 55.127C35.7888 53.189 43.3668 55.775 49.0548 55.127C54.7368 54.479 54.0948 52.679 52.0248 50.003C49.9548 47.327 50.8608 46.733 52.9308 41.693H52.9368Z" fill="#441D39"/>
<path d="M32.8081 10.0491L41.5261 14.1231C39.8881 10.8411 36.8161 7.94909 31.0561 8.02709C22.1881 7.90109 19.6861 14.8191 18.9961 19.3671C19.1881 19.2711 19.3081 19.2171 19.3081 19.2171L32.8081 10.0431V10.0491Z" fill="#C1735C"/>
<path d="M54.1013 52.6801C49.1333 51.0061 36.7193 44.5801 36.7193 44.5801H24.3773C24.3773 44.5801 11.9693 51.0061 6.99534 52.6801C2.02734 54.3541 2.02734 62.8381 2.02734 62.8381H59.0753C59.0753 62.8381 59.0753 54.3541 54.1073 52.6801H54.1013Z" fill="#4598C4"/>
<path d="M35.9575 38.7109H25.0795L24.2695 45.5149L30.6655 59.2249L36.7975 45.1549L35.9575 38.7109Z" fill="#FFC7A4"/>
<path d="M25.0973 38.4473L24.6113 42.6353C24.6113 42.6353 33.0413 43.4093 36.0113 39.7133V39.0833C34.4933 39.9413 32.8193 40.4213 31.0493 40.4213C28.8893 40.4213 26.8613 39.7013 25.0973 38.4473Z" fill="#F2B594"/>
<path d="M45.2927 24.9418C45.1547 23.4658 43.9847 23.2078 43.3607 23.1718C43.3847 22.5058 43.4747 18.0358 41.5247 14.1238L32.8067 10.0498L19.3067 19.2238C19.3067 19.2238 19.1867 19.2778 18.9947 19.3738C18.7007 21.2938 18.7307 22.7998 18.7487 23.1718C18.1847 23.1718 16.8287 23.3518 16.6787 24.9478C16.4867 26.9698 17.1647 28.5238 18.4247 29.1958C18.4247 29.1958 18.6947 29.3278 19.3127 29.4358V29.3938C20.2607 33.2818 22.3607 36.5158 25.1027 38.4538C26.8667 39.7078 28.8947 40.4278 31.0547 40.4278C32.8187 40.4278 34.4987 39.9478 36.0167 39.0898C39.2387 37.2718 41.7347 33.7438 42.7967 29.4058C43.3127 29.3038 43.5467 29.1958 43.5467 29.1958C44.8067 28.5238 45.4847 26.9698 45.2927 24.9478V24.9418Z" fill="#FFC7A4"/>
<path d="M22.5837 21.2639C24.6417 21.1199 26.3937 21.5999 27.2817 21.8699C27.5517 21.9539 27.8337 21.8459 27.9477 21.6359C28.0677 21.3899 27.9177 21.1079 27.6177 21.0119C26.6097 20.6999 24.7857 20.2019 22.7637 20.6759C22.4517 20.7479 21.8937 20.9819 22.0257 21.2399C22.1037 21.3299 22.3137 21.2879 22.5837 21.2699V21.2639Z" fill="#441D39"/>
<path d="M39.6409 21.3657C37.5889 21.1377 35.8249 21.5517 34.9249 21.7917C34.6549 21.8637 34.3729 21.7497 34.2709 21.5277C34.1569 21.2757 34.3189 20.9937 34.6249 20.9157C35.6449 20.6397 37.4869 20.2137 39.4909 20.7657C39.7969 20.8497 40.3489 21.1077 40.2049 21.3597C40.1209 21.4497 39.9169 21.3957 39.6469 21.3597L39.6409 21.3657Z" fill="#441D39"/>
<path d="M36.8705 25.9429C37.2715 25.9429 37.5965 25.3787 37.5965 24.6829C37.5965 23.987 37.2715 23.4229 36.8705 23.4229C36.4696 23.4229 36.1445 23.987 36.1445 24.6829C36.1445 25.3787 36.4696 25.9429 36.8705 25.9429Z" fill="#441D39"/>
<path d="M25.9799 25.685C26.3809 25.685 26.7059 25.1209 26.7059 24.425C26.7059 23.7292 26.3809 23.165 25.9799 23.165C25.5789 23.165 25.2539 23.7292 25.2539 24.425C25.2539 25.1209 25.5789 25.685 25.9799 25.685Z" fill="#441D39"/>
<path d="M31.9071 30.3471H30.7611C30.2511 30.3471 29.8011 30.1491 29.5611 29.8191C29.3871 29.5851 29.3391 29.3091 29.4231 29.0391C29.6871 28.1811 29.9091 27.3591 29.9091 27.3531C29.9511 27.1911 30.1131 27.1011 30.2751 27.1431C30.4371 27.1851 30.5331 27.3531 30.4851 27.5091C30.4851 27.5091 30.2631 28.3431 29.9931 29.2131C29.9691 29.3031 29.9811 29.3811 30.0411 29.4651C30.1671 29.6391 30.4491 29.7471 30.7611 29.7471H31.9071C32.0751 29.7471 32.2071 29.8791 32.2071 30.0471C32.2071 30.2151 32.0751 30.3471 31.9071 30.3471Z" fill="#A5503C"/>
<path d="M30.8103 34.1216C29.4123 34.1216 28.3503 33.9296 28.2723 33.9116C28.1103 33.8816 28.0023 33.7256 28.0323 33.5636C28.0623 33.4016 28.2183 33.2936 28.3803 33.3236C28.4103 33.3236 31.7583 33.9416 34.3743 32.9636C34.5303 32.9036 34.7043 32.9816 34.7583 33.1376C34.8183 33.2936 34.7343 33.4676 34.5843 33.5216C33.3303 33.9896 31.9563 34.1216 30.8043 34.1216H30.8103Z" fill="#A5503C"/>
<path d="M37.469 27.917C38.6255 27.917 39.563 27.7021 39.563 27.437C39.563 27.1719 38.6255 26.957 37.469 26.957C36.3125 26.957 35.375 27.1719 35.375 27.437C35.375 27.7021 36.3125 27.917 37.469 27.917Z" fill="#EAA281"/>
<path d="M25.2542 27.917C26.4106 27.917 27.3482 27.7021 27.3482 27.437C27.3482 27.1719 26.4106 26.957 25.2542 26.957C24.0977 26.957 23.1602 27.1719 23.1602 27.437C23.1602 27.7021 24.0977 27.917 25.2542 27.917Z" fill="#EAA281"/>
<path d="M18.3119 19.7634L18.3479 20.0454L16.6439 21.8154L15.3359 25.6854C15.3359 25.6854 16.8659 30.6474 19.0439 33.7254C21.2159 36.8094 20.2259 32.1534 19.3079 29.3814C18.3899 26.6094 20.1059 26.5734 20.5079 24.6834C20.7599 23.4894 20.3159 22.3914 19.9559 21.7494C19.6379 20.6514 19.9199 19.3314 21.4259 18.9234C24.9539 17.9574 22.6439 12.1074 22.6439 12.1074C20.6159 13.4094 18.8519 18.6654 18.3179 19.7574L18.3119 19.7634Z" fill="#441D39"/>
<path d="M45.3238 21.8155L44.0758 21.9115C43.5658 19.2775 42.4438 14.0815 41.4298 13.5415C40.0618 12.8155 38.5078 13.9975 38.5078 13.9975C38.5078 13.9975 39.2878 18.2515 40.9978 19.2115C42.0118 19.7815 42.0058 21.0655 42.0298 22.0135C41.4418 25.0795 39.9178 28.4875 43.3558 31.5655C47.1058 34.9195 47.9158 25.9435 47.9158 25.9435L45.3238 21.8155Z" fill="#441D39"/>
<path d="M43.4517 8.98816C41.5137 5.76616 34.0617 4.17016 27.8577 5.43616L27.4437 4.03816C27.3657 3.78016 27.0957 3.63016 26.8317 3.70816C26.5737 3.78616 26.4237 4.05616 26.5017 4.32016L26.8977 5.67016C22.1037 6.92416 17.1117 10.4942 14.9217 14.9822C12.6657 19.6022 18.3537 19.7042 18.3537 19.7042C23.1957 12.4022 41.6877 14.2022 41.6877 14.2022C42.7617 13.9742 45.4437 12.3122 43.4457 8.99416L43.4517 8.98816Z" fill="#FF7C59"/>
<path d="M21.522 49.6559C21.408 49.6559 21.3 49.5959 21.252 49.4879C21.18 49.3379 21.246 49.1579 21.39 49.0859L23.652 47.9999C23.802 47.9279 23.982 47.9939 24.054 48.1439C24.126 48.2939 24.06 48.4739 23.916 48.5459L21.654 49.6319C21.612 49.6499 21.57 49.6619 21.522 49.6619V49.6559Z" fill="#2A5E70"/>
<path d="M22.5532 53.2254C22.4392 53.2254 22.3312 53.1654 22.2832 53.0574C22.2112 52.9074 22.2772 52.7274 22.4212 52.6554L24.6832 51.5694C24.8332 51.4974 25.0133 51.5634 25.0853 51.7074C25.1573 51.8514 25.0913 52.0374 24.9473 52.1094L22.6852 53.1954C22.6432 53.2134 22.6012 53.2254 22.5532 53.2254Z" fill="#2A5E70"/>
<path d="M23.8677 57.4441C23.7537 57.4441 23.6457 57.3841 23.5977 57.2761C23.5257 57.1261 23.5917 56.9461 23.7357 56.8741L25.9977 55.7881C26.1477 55.7161 26.3277 55.7821 26.3997 55.9261C26.4717 56.0761 26.4057 56.2561 26.2617 56.3281L23.9997 57.4141C23.9577 57.4321 23.9157 57.4441 23.8677 57.4441Z" fill="#2A5E70"/>
<path d="M39.1737 49.6561C39.1317 49.6561 39.0837 49.6441 39.0417 49.6261L36.7797 48.5401C36.6297 48.4681 36.5697 48.2881 36.6417 48.1381C36.7137 47.9881 36.8937 47.9221 37.0437 47.9941L39.3057 49.0801C39.4557 49.1521 39.5157 49.3321 39.4437 49.4821C39.3897 49.5901 39.2877 49.6501 39.1737 49.6501V49.6561Z" fill="#2A5E70"/>
<path d="M38.1424 53.2254C38.1004 53.2254 38.0524 53.2134 38.0104 53.1954L35.7484 52.1094C35.5984 52.0374 35.5384 51.8574 35.6104 51.7074C35.6824 51.5574 35.8624 51.4974 36.0124 51.5694L38.2744 52.6554C38.4244 52.7274 38.4844 52.9074 38.4124 53.0574C38.3584 53.1654 38.2564 53.2254 38.1424 53.2254Z" fill="#2A5E70"/>
<path d="M36.828 57.4442C36.786 57.4442 36.738 57.4322 36.696 57.4142L34.434 56.3282C34.284 56.2562 34.224 56.0762 34.296 55.9262C34.368 55.7762 34.548 55.7162 34.698 55.7882L36.96 56.8742C37.11 56.9462 37.17 57.1262 37.098 57.2762C37.044 57.3842 36.942 57.4442 36.828 57.4442Z" fill="#2A5E70"/>
</g>
<defs>
<clipPath id="clip0_649_32178">
<rect width="60" height="60" rx="30" fill="white"/>
</clipPath>
</defs>
</svg>
