<svg width="42" height="43" viewBox="0 0 42 43" fill="none" xmlns="http://www.w3.org/2000/svg">
<g id="ic:round-fact-check">
<path id="Vector" fill-rule="evenodd" clip-rule="evenodd" d="M35 5.75H7C5.075 5.75 3.5 7.325 3.5 9.25V33.75C3.5 35.675 5.075 37.25 7 37.25H35C36.925 37.25 38.5 35.675 38.5 33.75V9.25C38.5 7.325 36.925 5.75 35 5.75ZM15.75 30.25H10.5C9.5375 30.25 8.75 29.4625 8.75 28.5C8.75 27.5375 9.5375 26.75 10.5 26.75H15.75C16.7125 26.75 17.5 27.5375 17.5 28.5C17.5 29.4625 16.7125 30.25 15.75 30.25ZM15.75 23.25H10.5C9.5375 23.25 8.75 22.4625 8.75 21.5C8.75 20.5375 9.5375 19.75 10.5 19.75H15.75C16.7125 19.75 17.5 20.5375 17.5 21.5C17.5 22.4625 16.7125 23.25 15.75 23.25ZM15.75 16.25H10.5C9.5375 16.25 8.75 15.4625 8.75 14.5C8.75 13.5375 9.5375 12.75 10.5 12.75H15.75C16.7125 12.75 17.5 13.5375 17.5 14.5C17.5 15.4625 16.7125 16.25 15.75 16.25ZM32.725 19.96L27.1775 25.5075C26.495 26.19 25.375 26.19 24.6925 25.5075L22.225 23.0225C22.063 22.8605 21.9345 22.6681 21.8468 22.4565C21.7591 22.2448 21.714 22.0179 21.714 21.7887C21.714 21.5596 21.7591 21.3327 21.8468 21.121C21.9345 20.9094 22.063 20.717 22.225 20.555C22.387 20.393 22.5794 20.2645 22.791 20.1768C23.0027 20.0891 23.2296 20.044 23.4587 20.044C23.6879 20.044 23.9148 20.0891 24.1264 20.1768C24.3381 20.2645 24.5305 20.393 24.6925 20.555L25.935 21.7975L30.2575 17.475C30.4194 17.3128 30.6117 17.1841 30.8234 17.0962C31.0351 17.0084 31.2621 16.9632 31.4913 16.9632C31.7204 16.9632 31.9474 17.0084 32.1591 17.0962C32.3708 17.1841 32.5631 17.3128 32.725 17.475L32.7425 17.4925C33.4075 18.175 33.4075 19.295 32.725 19.96Z" fill="#4F56B2"/>
</g>
</svg>
