<svg width="20" height="20" viewBox="0 0 20 20" fill="none" xmlns="http://www.w3.org/2000/svg">
<g clip-path="url(#clip0_1320_42824)">
<path d="M20 10C20 15.5228 15.5228 20 10 20C4.47719 20 0 15.5228 0 10C0 10.0023 10 0.00113281 10 0C15.5228 0 20 4.47719 20 10Z" fill="#0052B4"/>
<path d="M9.97266 10.0004H9.99941C9.99941 9.99133 9.99941 9.98266 9.99941 9.97363C9.99051 9.98258 9.9816 9.99148 9.97266 10.0004Z" fill="#F0F0F0"/>
<path d="M10 5.21738C10 3.45781 10 2.3048 10 0H9.99832C4.47625 0.000898437 0 4.47766 0 9.99996H5.21738V7.06199L8.15535 9.99996H9.97328C9.98223 9.99105 9.99113 9.98215 10 9.9732C10 9.29949 10 8.69836 10 8.15539L7.06203 5.21738H10Z" fill="#F0F0F0"/>
<path d="M5.05953 1.30469C3.49551 2.19527 2.19527 3.49551 1.30469 5.05953V10.0004H3.9134V3.91344V3.9134H10.0004C10.0004 3.09063 10.0004 2.3068 10.0004 1.30469H5.05953Z" fill="#D80027"/>
<path d="M10.0013 8.7706L6.44848 5.21779H5.21875C5.21875 5.21775 5.21875 5.21779 5.21875 5.21779L10.0013 10.0003H10.0013C10.0013 10.0003 10.0013 9.15248 10.0013 8.7706Z" fill="#D80027"/>
<path d="M6.03059 11.7393L6.57941 12.8868L7.81875 12.6004L7.26375 13.745L8.26039 14.5354L7.01949 14.815L7.02297 16.0871L6.03059 15.2912L5.03824 16.0871L5.04172 14.815L3.80078 14.5354L4.79746 13.745L4.24238 12.6004L5.4818 12.8868L6.03059 11.7393Z" fill="#F0F0F0"/>
<path d="M14.9723 13.9131L15.2467 14.4869L15.8664 14.3436L15.5889 14.9159L16.0872 15.3111L15.4668 15.451L15.4685 16.087L14.9723 15.6891L14.4761 16.087L14.4779 15.451L13.8574 15.3111L14.3557 14.9159L14.0782 14.3436L14.6979 14.4869L14.9723 13.9131Z" fill="#F0F0F0"/>
<path d="M12.4196 7.82617L12.694 8.4L13.3137 8.25672L13.0362 8.82902L13.5345 9.22422L12.9141 9.36406L12.9157 10.0001L12.4196 9.60215L11.9234 10.0001L11.9251 9.36406L11.3047 9.22422L11.803 8.82902L11.5255 8.25672L12.1452 8.4L12.4196 7.82617Z" fill="#F0F0F0"/>
<path d="M14.9723 4.34766L15.2467 4.92148L15.8664 4.77824L15.5889 5.35055L16.0872 5.7457L15.4668 5.88559L15.4685 6.5216L14.9723 6.12367L14.4761 6.5216L14.4779 5.88559L13.8574 5.7457L14.3557 5.35055L14.0782 4.77824L14.6979 4.92148L14.9723 4.34766Z" fill="#F0F0F0"/>
<path d="M17.2009 6.95605L17.4752 7.52988L18.0949 7.3866L17.8174 7.95891L18.3157 8.3541L17.6953 8.49398L17.697 9.12996L17.2009 8.73207L16.7047 9.12996L16.7064 8.49398L16.0859 8.3541L16.5843 7.95891L16.3068 7.3866L16.9264 7.52988L17.2009 6.95605Z" fill="#F0F0F0"/>
<path d="M15.6077 10L15.8235 10.6643H16.522L15.9569 11.0749L16.1728 11.7391L15.6077 11.3286L15.0426 11.7391L15.2584 11.0749L14.6934 10.6643H15.3918L15.6077 10Z" fill="#F0F0F0"/>
</g>
<defs>
<clipPath id="clip0_1320_42824">
<rect width="20" height="20" fill="white"/>
</clipPath>
</defs>
</svg>
