<svg width="20" height="20" viewBox="0 0 20 20" fill="none" xmlns="http://www.w3.org/2000/svg">
<g clip-path="url(#clip0_88_3812)">
<path d="M10 20C15.5228 20 20 15.5228 20 10C20 4.47715 15.5228 0 10 0C4.47715 0 0 4.47715 0 10C0 15.5228 4.47715 20 10 20Z" fill="#F0F0F0"/>
<path d="M19.9998 9.99992C19.9998 6.03531 17.6926 2.60969 14.3477 0.992188V19.0076C17.6926 17.3902 19.9998 13.9645 19.9998 9.99992Z" fill="#D80027"/>
<path d="M0 9.99992C0 13.9645 2.30723 17.3902 5.65219 19.0077V0.992188C2.30723 2.60969 0 6.03531 0 9.99992Z" fill="#D80027"/>
<path d="M11.7389 11.3039L13.478 10.4343L12.6084 9.99953V9.12996L10.8693 9.99953L11.7389 8.26039H10.8693L9.99973 6.95605L9.13016 8.26039H8.26059L9.13016 9.99953L7.39102 9.12996V9.99953L6.52148 10.4343L8.26059 11.3039L7.82582 12.1734H9.56496V13.4778H10.4345V12.1734H12.1736L11.7389 11.3039Z" fill="#D80027"/>
</g>
<defs>
<clipPath id="clip0_88_3812">
<rect width="20" height="20" fill="white"/>
</clipPath>
</defs>
</svg>
