<svg width="28" height="12" viewBox="0 0 28 12" fill="none" xmlns="http://www.w3.org/2000/svg">
<g id="google-pay">
<g id="Vector">
<path fill-rule="evenodd" clip-rule="evenodd" d="M12.9465 9.35771V6.03467H14.6393C15.3329 6.03467 15.9184 5.79918 16.3957 5.33474L16.5103 5.217C17.3821 4.25541 17.3249 2.75742 16.3957 1.86779C15.9312 1.39681 15.2948 1.14169 14.6393 1.15478H11.9219V9.35771H12.9465ZM12.9465 5.02725V2.1621H14.665C15.0342 2.1621 15.3843 2.30602 15.6452 2.56767C16.199 3.11715 16.2117 4.03295 15.6771 4.60205C15.4161 4.88333 15.0469 5.04033 14.665 5.02725H12.9465Z" fill="#CCCFD3"/>
<path fill-rule="evenodd" clip-rule="evenodd" d="M21.2897 4.18342C20.8506 3.77131 20.2524 3.56199 19.4951 3.56199C18.5214 3.56199 17.7895 3.92831 17.3059 4.6544L18.2096 5.23659C18.5405 4.73944 18.9923 4.49087 19.5651 4.49087C19.9278 4.49087 20.2778 4.62824 20.5515 4.87681C20.8188 5.1123 20.9715 5.45246 20.9715 5.81224V6.05427C20.577 5.83186 20.0806 5.71411 19.4696 5.71411C18.7569 5.71411 18.1841 5.88419 17.7577 6.23089C17.3313 6.57758 17.115 7.03548 17.115 7.61767C17.1022 8.14752 17.325 8.65121 17.7195 8.99137C18.1205 9.35768 18.6296 9.54084 19.2278 9.54084C19.9342 9.54084 20.4942 9.22031 20.9206 8.57926H20.9652V9.35768H21.9452V5.89727C21.9452 5.17118 21.7288 4.59553 21.2897 4.18342ZM18.5089 8.32416C18.2988 8.16716 18.1715 7.91205 18.1715 7.63731C18.1715 7.32986 18.3116 7.07475 18.5853 6.87196C18.8653 6.66918 19.2154 6.56452 19.6291 6.56452C20.202 6.55798 20.6475 6.6888 20.9658 6.95046C20.9658 7.39528 20.7939 7.78122 20.4566 8.10829C20.151 8.42228 19.7373 8.5989 19.3045 8.5989C19.0181 8.60544 18.738 8.50732 18.5089 8.32416Z" fill="#CCCFD3"/>
<path d="M24.1472 11.8238L27.571 3.74514H26.4573L24.8727 7.77465H24.8536L23.2308 3.74514H22.1171L24.3636 8.99789L23.0908 11.8238H24.1472Z" fill="#CCCFD3"/>
</g>
<g id="Vector_2">
<path d="M9.40972 5.31476C9.40972 4.99423 9.38427 4.6737 9.33335 4.35971H5.01224V6.17169H7.48781C7.38599 6.75387 7.05506 7.27719 6.5714 7.60426V8.78172H8.04784C8.91333 7.96404 9.40972 6.75387 9.40972 5.31476Z" fill="#4285F4"/>
<path d="M5.01242 9.91994C6.24703 9.91994 7.29053 9.50127 8.04784 8.78172L6.5714 7.60426C6.15775 7.89208 5.62972 8.05564 5.01242 8.05564C3.816 8.05564 2.80413 7.22488 2.44139 6.11283H0.920407V7.32954C1.69681 8.9191 3.28143 9.91994 5.01242 9.91994Z" fill="#34A853"/>
<path d="M2.44139 6.11283C2.25044 5.53065 2.25068 4.89612 2.44163 4.30739V3.09723H0.920404C0.264813 4.42514 0.264813 5.99508 0.920404 7.32299L2.44139 6.11283Z" fill="#FBBC04"/>
<path d="M5.01242 2.36459C5.66791 2.35151 6.29794 2.60662 6.76887 3.07106L8.07984 1.72353C7.24616 0.925477 6.15157 0.487202 5.01242 0.500285C3.28143 0.500285 1.6968 1.50766 0.920404 3.09723L2.44139 4.31393C2.80413 3.19535 3.816 2.36459 5.01242 2.36459Z" fill="#CCCFD3"/>
</g>
</g>
</svg>
