<svg width="38" height="14" viewBox="0 0 38 14" fill="none" xmlns="http://www.w3.org/2000/svg">
<g id="amex">
<path id="Vector" d="M27.6738 2.18472L26.9685 3.79339H28.3829L27.6738 2.18472ZM19.5357 3.18158C19.6686 3.1163 19.7469 2.9743 19.7469 2.79795C19.7469 2.62515 19.6646 2.49999 19.5317 2.44118C19.4107 2.37599 19.2244 2.36846 19.0458 2.36846H17.7841V3.26478H19.0289C19.2282 3.26482 19.3948 3.26207 19.5357 3.18158ZM3.36832 2.18472L2.67106 3.79339H4.0698L3.36832 2.18472ZM35.832 12.4903H33.8532V11.6248H35.824C36.0194 11.6248 36.1562 11.6007 36.2386 11.5248C36.3165 11.4572 36.3605 11.3616 36.3597 11.2617C36.3597 11.144 36.3101 11.0506 36.2345 10.9948C36.1603 10.9332 36.0519 10.9051 35.8734 10.9051C34.9114 10.8744 33.7111 10.9331 33.7111 9.65583C33.7111 9.07047 34.106 8.45426 35.1813 8.45426H37.2223V7.65119H35.326C34.7537 7.65119 34.3379 7.78019 34.0436 7.98087V7.65119H31.2387C30.7902 7.65119 30.2638 7.75582 30.0148 7.98087V7.65119H25.0058V7.98087C24.6072 7.71013 23.9345 7.65119 23.6242 7.65119H20.3202V7.98087C20.0049 7.69338 19.3035 7.65119 18.8762 7.65119H15.1785L14.3325 8.51316L13.54 7.65119H8.01647V13.2835H13.4358L14.3076 12.4077L15.1288 13.2835L18.4693 13.2863V11.9613H18.7978C19.241 11.968 19.7638 11.9511 20.2251 11.7634V13.2833H22.9804V11.8153H23.1133C23.2829 11.8153 23.2997 11.822 23.2997 11.9815V13.283H31.67C32.2015 13.283 32.757 13.1551 33.0645 12.9225V13.283H35.7196C36.2721 13.283 36.8117 13.2101 37.2222 13.0235V11.9743C36.9734 12.3169 36.4883 12.4903 35.832 12.4903ZM18.8417 11.1604H17.5632V12.5142H15.5716L14.3099 11.1781L12.9987 12.5142H8.94V8.47804H13.0612L14.3218 9.8011L15.6251 8.47804H18.8992C19.7124 8.47804 20.626 8.69001 20.626 9.80775C20.626 10.929 19.7374 11.1604 18.8417 11.1604ZM24.9896 10.9774C25.1343 11.1744 25.1552 11.3583 25.1594 11.7142V12.5143H24.1306V12.0094C24.1306 11.7665 24.1555 11.407 23.965 11.2193C23.8154 11.0748 23.5871 11.0402 23.2132 11.0402H22.1182V12.5143H21.0887V8.47808H23.4542C23.9731 8.47808 24.3508 8.4998 24.6871 8.66852C25.0105 8.85244 25.214 9.1044 25.214 9.56484C25.2139 10.209 24.7575 10.5376 24.4877 10.6386C24.7157 10.7178 24.9021 10.8598 24.9896 10.9774ZM29.2222 9.31279H26.8228V10.0465H29.1636V10.8701H26.8228V11.6732L29.2222 11.6767V12.5142H25.8024V8.47804H29.2222V9.31279ZM31.8552 12.5142H29.8596V11.6487H31.8472C32.0416 11.6487 32.1794 11.6245 32.2658 11.5487C32.3362 11.4863 32.3869 11.3955 32.3869 11.2856C32.3869 11.1679 32.332 11.0745 32.2618 11.0185C32.1834 10.957 32.0752 10.9291 31.8969 10.9291C30.9387 10.8982 29.7386 10.9569 29.7386 9.67975C29.7386 9.0943 30.1294 8.47808 31.2036 8.47808H33.2579V9.33703H31.3782C31.1918 9.33703 31.0707 9.34373 30.9677 9.41012C30.8553 9.4755 30.8137 9.57241 30.8137 9.70037C30.8137 9.85261 30.9091 9.95627 31.0379 10.001C31.146 10.0364 31.2621 10.0468 31.4367 10.0468L31.9883 10.0609C32.5444 10.0735 32.9263 10.1642 33.1584 10.3854C33.3578 10.5797 33.465 10.8252 33.465 11.2405C33.4649 12.1088 32.8885 12.5142 31.8552 12.5142ZM23.9082 9.37789C23.7844 9.30865 23.6017 9.30498 23.4193 9.30498H22.1576V10.2114H23.4025C23.6018 10.2114 23.7713 10.2048 23.9082 10.1283C24.041 10.0527 24.1205 9.91348 24.1205 9.74086C24.1205 9.56823 24.041 9.44327 23.9082 9.37789ZM35.3567 9.30489C35.1703 9.30489 35.0464 9.31155 34.9421 9.3778C34.8339 9.44327 34.7924 9.54018 34.7924 9.66823C34.7924 9.82038 34.8837 9.92404 35.0164 9.9689C35.1246 10.0043 35.2406 10.0146 35.4112 10.0146L35.9667 10.0285C36.527 10.0416 36.9012 10.1324 37.1293 10.3536C37.1709 10.3843 37.1958 10.4188 37.2244 10.4534V9.30498L35.3567 9.30489ZM18.8772 9.30489H17.5412V10.3329H18.8653C19.259 10.3329 19.5038 10.149 19.504 9.79981C19.5038 9.44685 19.2471 9.30489 18.8772 9.30489ZM9.96055 9.30489V10.0387H12.21V10.8623H9.96055V11.6653H12.4797L13.6502 10.4812L12.5295 9.30489H9.96055ZM16.5388 12.1274V8.89156L14.9657 10.4835L16.5388 12.1274ZM10.0465 5.64713V6.34259H18.6071L18.6031 4.87133H18.7688C18.8848 4.87514 18.9185 4.8852 18.9185 5.06549V6.34263H23.3462V6.00009C23.7033 6.18025 24.2587 6.34263 24.9896 6.34263H26.8523L27.2509 5.44636H28.1347L28.5246 6.34263H32.114V5.49126L32.6574 6.34259H35.5339V0.714844H32.6873V1.37949L32.2887 0.714844H29.3677V1.37949L29.0017 0.714844H25.056C24.3955 0.714844 23.8151 0.801615 23.3461 1.04347V0.714844H20.6232V1.04347C20.3248 0.794177 19.9181 0.714844 19.4661 0.714844H9.51857L8.85116 2.16847L8.16572 0.714844H5.03258V1.37949L4.68832 0.714844H2.01627L0.775437 3.39071V5.53112L2.61026 1.49583H4.1327L5.87528 5.31639V1.49583H7.54771L8.88864 4.23326L10.1206 1.49583H11.8265V5.53112H10.7763L10.7724 2.37075L9.2866 5.53112H8.38695L6.89732 2.36795V5.53112H4.81314L4.41943 4.63103H2.286L1.88823 5.53112H0.775437L0.775391 6.34291H2.5262L2.92093 5.44659H3.80479L4.19849 6.34291H7.64314V5.6576L7.95058 6.34576H9.73876L10.0465 5.64713ZM23.5362 1.96619C23.8673 1.64412 24.3862 1.4956 25.0923 1.4956H26.0842V2.36024H25.113C24.7393 2.36024 24.5279 2.41258 24.3247 2.59934C24.1499 2.76921 24.0301 3.09041 24.0301 3.51334C24.0301 3.94568 24.1214 4.25737 24.3118 4.46098C24.4695 4.62066 24.7563 4.66909 25.0259 4.66909H25.4863L26.9303 1.49574H28.4656L30.2004 5.31249V1.49579H31.7606L33.5617 4.30612V1.49579H34.6113V5.53093H33.1592L31.217 2.50229V5.53093H29.1302L28.7315 4.63085H26.603L26.2161 5.53093H25.017C24.519 5.53093 23.8884 5.42727 23.5313 5.08459C23.1712 4.742 22.984 4.27789 22.984 3.54414C22.9838 2.9456 23.0956 2.39853 23.5362 1.96619ZM21.4286 1.49565H22.4741V5.53093H21.4286V1.49565ZM16.7149 1.49565H19.0716C19.5952 1.49565 19.9812 1.50873 20.3125 1.68893C20.6366 1.86918 20.8309 2.13234 20.8309 2.58236C20.8309 3.2258 20.3747 3.55814 20.1091 3.658C20.3332 3.73834 20.5248 3.88025 20.616 3.99779C20.7607 4.19851 20.7856 4.37779 20.7856 4.73814V5.53089H19.7522L19.7483 5.02201C19.7483 4.77914 19.773 4.42994 19.5866 4.23593C19.4369 4.09406 19.2086 4.06316 18.8397 4.06316H17.7397V5.53093H16.7151L16.7149 1.49565ZM12.5843 1.49565H16.0072V2.33595H13.609V3.06332H15.9497V3.89049H13.609V4.69637H16.0072V5.53089H12.5843V1.49565Z" fill="#CCCFD3"/>
</g>
</svg>
