<svg width="22" height="14" viewBox="0 0 22 14" fill="none" xmlns="http://www.w3.org/2000/svg">
<g id="mastercard">
<path id="Vector" d="M11.0111 11.7094C9.93182 12.6311 8.53181 13.1875 7.00198 13.1875C3.58848 13.1875 0.821289 10.4173 0.821289 7C0.821289 3.58274 3.58848 0.8125 7.00198 0.8125C8.53181 0.8125 9.93182 1.36892 11.0111 2.29063C12.0904 1.36892 13.4904 0.8125 15.0202 0.8125C18.4337 0.8125 21.2009 3.58274 21.2009 7C21.2009 10.4173 18.4337 13.1875 15.0202 13.1875C13.4904 13.1875 12.0904 12.6311 11.0111 11.7094Z" fill="#B8B9BA"/>
<path id="Vector_2" d="M11.0107 11.7093C12.3396 10.5744 13.1823 8.88573 13.1823 7C13.1823 5.11427 12.3396 3.42556 11.0107 2.29066C12.09 1.36893 13.4901 0.8125 15.0199 0.8125C18.4334 0.8125 21.2006 3.58274 21.2006 7C21.2006 10.4173 18.4334 13.1875 15.0199 13.1875C13.4901 13.1875 12.09 12.6311 11.0107 11.7093Z" fill="#CCCFD3"/>
<path id="Vector_3" d="M11.0114 11.7097C12.3403 10.5748 13.183 8.88613 13.183 7.00038C13.183 5.11463 12.3403 3.42592 11.0114 2.29102C9.6825 3.42592 8.83984 5.11463 8.83984 7.00038C8.83984 8.88613 9.6825 10.5748 11.0114 11.7097Z" fill="#B8B9BA"/>
</g>
</svg>
