<svg width="28" height="13" viewBox="0 0 28 13" fill="none" xmlns="http://www.w3.org/2000/svg">
<g id="apple-pay">
<path id="Vector" fill-rule="evenodd" clip-rule="evenodd" d="M5.38835 2.01693C5.07024 2.41435 4.56125 2.72781 4.05226 2.68303C3.98864 2.14567 4.23783 1.57472 4.52944 1.22208C4.84755 0.813461 5.40426 0.52239 5.85493 0.5C5.90794 1.05975 5.70117 1.60831 5.38835 2.01693ZM5.8495 2.78937C5.40109 2.76212 4.99193 2.93174 4.66145 3.06874C4.44877 3.15691 4.26868 3.23157 4.13166 3.23157C3.97791 3.23157 3.79037 3.15292 3.57982 3.06461C3.30392 2.94889 2.9885 2.8166 2.65772 2.82295C1.89954 2.83415 1.19438 3.28754 0.807341 4.00962C0.0120491 5.45378 0.600565 7.59203 1.36935 8.7675C1.74579 9.34965 2.19645 9.98776 2.79027 9.96537C3.05151 9.95496 3.23944 9.87078 3.43392 9.78365C3.65783 9.68335 3.89042 9.57914 4.25361 9.57914C4.6042 9.57914 4.82663 9.68063 5.04014 9.77805C5.24316 9.87068 5.43812 9.95963 5.72755 9.95418C6.34258 9.94298 6.72962 9.37204 7.10606 8.7899C7.5123 8.1651 7.69082 7.55532 7.71791 7.46279L7.72108 7.45209C7.72108 7.45209 7.71542 7.44898 7.70656 7.4447C7.57076 7.37906 6.5328 6.8774 6.52284 5.53215C6.51285 4.403 7.34613 3.83091 7.4773 3.74085C7.48528 3.73537 7.49067 3.73167 7.4931 3.72975C6.9629 2.90132 6.1358 2.81176 5.8495 2.78937ZM10.1071 9.8926V1.16609H13.2087C14.8099 1.16609 15.9286 2.33037 15.9286 4.03201C15.9286 5.73365 14.7887 6.90913 13.1663 6.90913H11.3901V9.8926H10.1071ZM11.3899 2.308H12.8691C13.9825 2.308 14.6188 2.93492 14.6188 4.03763C14.6188 5.14034 13.9825 5.77286 12.8638 5.77286H11.3899V2.308ZM20.1647 8.84588C19.8254 9.52878 19.0778 9.95979 18.2719 9.95979C17.079 9.95979 16.2466 9.20972 16.2466 8.07902C16.2466 6.95952 17.0525 6.31581 18.5423 6.22065L20.1435 6.1199V5.63851C20.1435 4.92763 19.7035 4.5414 18.9188 4.5414C18.2719 4.5414 17.8001 4.89404 17.7046 5.4314H16.5488C16.5859 4.30071 17.5933 3.47787 18.9559 3.47787C20.4245 3.47787 21.3789 4.28951 21.3789 5.54895V9.89262H20.1912V8.84588H20.1647ZM18.6166 8.92425C17.9327 8.92425 17.4979 8.5772 17.4979 8.04544C17.4979 7.49688 17.9168 7.17782 18.7174 7.12745L20.1436 7.03229V7.52487C20.1436 8.3421 19.4861 8.92425 18.6166 8.92425ZM25.3182 10.2341C24.8039 11.7622 24.2154 12.266 22.9642 12.266C22.8687 12.266 22.5506 12.2548 22.4764 12.2324V11.1856C22.5559 11.1968 22.7521 11.208 22.8528 11.208C23.4201 11.208 23.7383 10.9561 23.9344 10.3012L24.0511 9.915L21.8773 3.56183H23.2187L24.7297 8.71714H24.7562L26.2673 3.56183H27.5716L25.3182 10.2341Z" fill="#CCCFD3"/>
</g>
</svg>
