<svg width="30" height="10" viewBox="0 0 30 10" fill="none" xmlns="http://www.w3.org/2000/svg">
<g id="visa">
<g id="Vector">
<path d="M19.3986 0.1875C20.2917 0.1875 21.014 0.395651 21.4694 0.584172L21.1554 2.59612L20.9466 2.49718C20.5288 2.30879 19.9774 2.12054 19.2268 2.14043C18.3153 2.14043 17.9065 2.54659 17.897 2.94313C17.897 3.37932 18.3916 3.66678 19.199 4.09309C20.5292 4.7572 21.1462 5.56991 21.137 6.63056C21.1183 8.56346 19.5412 9.8125 17.1187 9.8125C16.083 9.80249 15.0854 9.57405 14.5439 9.31663L14.867 7.22511L15.171 7.37397C15.9215 7.72124 16.4154 7.86958 17.3371 7.86958C18.0018 7.86958 18.7145 7.58186 18.7236 6.95767C18.7236 6.55125 18.42 6.25365 17.5268 5.79769C16.6529 5.35148 15.4844 4.6082 15.5034 3.26998C15.5132 1.45617 17.1187 0.1875 19.3986 0.1875Z" fill="#CCCFD3"/>
<path d="M10.7914 9.67364H13.1001L14.544 0.356396H12.2354L10.7914 9.67364Z" fill="#CCCFD3"/>
<path fill-rule="evenodd" clip-rule="evenodd" d="M27.3876 0.356396H25.6018C25.0511 0.356396 24.6327 0.524761 24.3951 1.12945L20.9659 9.67351H23.3883C23.3883 9.67351 23.7871 8.52354 23.8729 8.27587H26.837C26.9033 8.60298 27.1125 9.67351 27.1125 9.67351H29.2501L27.3876 0.356396ZM24.5378 6.37287C24.7279 5.83761 25.4595 3.76598 25.4595 3.76598C25.4557 3.77402 25.4859 3.68663 25.5308 3.55674C25.597 3.36504 25.6953 3.08072 25.7633 2.87397L25.9246 3.67679C25.9246 3.67679 26.3618 5.90704 26.4568 6.37287H24.5378Z" fill="#CCCFD3"/>
<path d="M6.60209 6.70987L8.86307 0.356396H11.3043L7.67545 9.66377H5.23406L3.16309 1.51585C4.62605 2.31907 5.93701 3.93448 6.35502 5.42131L6.60209 6.70987Z" fill="#CCCFD3"/>
</g>
<path id="Vector_2" d="M4.50247 0.355469H0.788001L0.75 0.543727C3.64752 1.31691 5.56649 3.18066 6.35491 5.42078L5.54743 1.13867C5.41449 0.543595 5.00595 0.375098 4.50247 0.355469Z" fill="#CCCFD3"/>
</g>
</svg>
