<svg width="100" height="100" viewBox="0 0 100 100" fill="none" xmlns="http://www.w3.org/2000/svg">
<g id="Icon_Search">
<rect width="100" height="100" rx="12" fill="#F7F7FF"/>
<g id="Group">
<path id="Rectangle" d="M22.9975 44.1206C22.877 41.8019 24.8064 39.8651 27.122 40.0359C32.7943 40.4542 42.7637 41.1034 49.9999 41.1034C57.236 41.1034 67.2054 40.4542 72.8777 40.0359C75.1933 39.8651 77.1227 41.8019 77.0022 44.1206C76.9381 45.3523 76.8892 46.6493 76.8892 47.7367C76.8892 48.8242 76.9381 50.1211 77.0022 51.3528C77.1227 53.6715 75.1933 55.6083 72.8777 55.4375C67.2054 55.0192 57.236 54.37 49.9999 54.37C42.7637 54.37 32.7943 55.0192 27.122 55.4375C24.8064 55.6083 22.877 53.6715 22.9975 51.3528C23.0616 50.1211 23.1105 48.8242 23.1105 47.7367C23.1105 46.6493 23.0616 45.3523 22.9975 44.1206Z" fill="white"/>
<path id="Rectangle_2" fill-rule="evenodd" clip-rule="evenodd" d="M27.191 39.101C32.8636 39.5193 42.802 40.166 49.9999 40.166C57.1977 40.166 67.1361 39.5193 72.8088 39.101C75.7025 38.8876 78.0874 41.3025 77.9384 44.1694C77.8747 45.3948 77.8267 46.6732 77.8267 47.7368C77.8267 48.8005 77.8747 50.0789 77.9384 51.3042C78.0874 54.1711 75.7025 56.586 72.8088 56.3726C67.1361 55.9543 57.1977 55.3077 49.9999 55.3077C42.802 55.3077 32.8636 55.9543 27.191 56.3726C24.2972 56.586 21.9123 54.1711 22.0613 51.3042C22.125 50.0789 22.173 48.8005 22.173 47.7368C22.173 46.6732 22.125 45.3948 22.0613 44.1694C21.9123 41.3025 24.2972 38.8876 27.191 39.101ZM27.122 40.036C24.8064 39.8652 22.877 41.802 22.9975 44.1208C23.0616 45.3525 23.1105 46.6494 23.1105 47.7368C23.1105 48.8243 23.0616 50.1212 22.9975 51.3529C22.877 53.6716 24.8064 55.6084 27.122 55.4376C32.7943 55.0194 42.7637 54.3702 49.9999 54.3702C57.236 54.3702 67.2054 55.0194 72.8777 55.4376C75.1933 55.6084 77.1227 53.6716 77.0022 51.3529C76.9381 50.1212 76.8892 48.8243 76.8892 47.7368C76.8892 46.6494 76.9381 45.3525 77.0022 44.1208C77.1227 41.802 75.1933 39.8652 72.8777 40.036C67.2054 40.4543 57.236 41.1035 49.9999 41.1035C42.7637 41.1035 32.7943 40.4543 27.122 40.036Z" fill="#4F56B2"/>
<path id="Rectangle_3" d="M45.5633 40.2567C45.5986 39.7693 46.0049 39.3945 46.4936 39.3945H55.1275C55.6161 39.3945 56.0224 39.7693 56.0577 40.2567C56.1732 41.8516 56.4023 45.323 56.4023 47.7734C56.4023 50.2239 56.1732 53.6953 56.0577 55.2902C56.0224 55.7776 55.6161 56.1523 55.1275 56.1523H46.4936C46.0049 56.1523 45.5986 55.7776 45.5633 55.2902C45.4478 53.6953 45.2188 50.2239 45.2188 47.7734C45.2188 45.323 45.4478 41.8516 45.5633 40.2567Z" fill="#4F56B2"/>
<g id="Group_2">
<path id="Rectangle_4" d="M48.5548 52.0742H52.7936V59.5804L50.6742 57.461L48.5548 59.5804V52.0742Z" fill="white"/>
<path id="Rectangle_5" fill-rule="evenodd" clip-rule="evenodd" d="M47.6173 52.0742C47.6173 51.5565 48.037 51.1367 48.5548 51.1367H52.7936C53.3113 51.1367 53.7311 51.5565 53.7311 52.0742V59.5804C53.7311 59.9595 53.5027 60.3014 53.1523 60.4465C52.802 60.5916 52.3988 60.5114 52.1307 60.2433L50.6742 58.7868L49.2177 60.2433C48.9496 60.5114 48.5464 60.5916 48.196 60.4465C47.8457 60.3014 47.6173 59.9595 47.6173 59.5804V52.0742ZM50.6742 57.461L52.7936 59.5804V52.0742H48.5548V59.5804L50.6742 57.461Z" fill="#4F56B2"/>
<path id="Ellipse" d="M55.6398 50.3114C55.6398 50.9194 54.928 51.2468 54.7231 51.7828C54.5149 52.327 54.8106 53.0783 54.4318 53.5075C53.9726 54.0278 53.1487 53.849 52.5055 54.1334C51.9085 54.3973 51.5025 55.1433 50.8079 55.1433C50.1132 55.1433 49.7072 54.3973 49.1103 54.1334C48.467 53.849 47.6432 54.0278 47.1839 53.5075C46.8051 53.0783 47.1008 52.327 46.8927 51.7828C46.6877 51.2468 45.976 50.9194 45.976 50.3114C45.976 49.7034 46.6877 49.376 46.8927 48.84C47.0774 48.357 46.738 47.6569 47.0589 47.2627C47.4859 46.7383 48.0207 46.9047 48.6295 46.5966C49.2841 46.2655 50.0242 45.4795 50.8079 45.4795C51.5915 45.4795 52.3316 46.2655 52.9862 46.5966C53.595 46.9047 54.1298 46.7383 54.5568 47.2627C54.8777 47.6569 54.5383 48.357 54.7231 48.84C54.928 49.376 55.6398 49.7034 55.6398 50.3114Z" fill="white"/>
<path id="Ellipse_2" fill-rule="evenodd" clip-rule="evenodd" d="M49.4027 46.6678C49.2268 46.7896 49.0355 46.9166 48.8412 47.0149C48.5414 47.1666 48.2355 47.2303 48.0197 47.2753C47.9693 47.2858 47.9237 47.2953 47.8843 47.3046C47.6673 47.3561 47.5427 47.411 47.4224 47.5587C47.3963 47.5908 47.3685 47.6718 47.3921 47.9825C47.3941 48.0082 47.3964 48.036 47.3988 48.0654C47.4082 48.1782 47.4194 48.3144 47.4202 48.4425C47.4212 48.6091 47.4063 48.8093 47.3305 49.0075C47.2533 49.2092 47.1349 49.3753 47.0242 49.5092C46.9509 49.5979 46.8635 49.692 46.789 49.7722C46.7581 49.8054 46.7294 49.8362 46.7049 49.8633C46.5031 50.0863 46.4447 50.2017 46.4447 50.3114C46.4447 50.4211 46.5031 50.5365 46.7049 50.7595C46.7294 50.7866 46.7581 50.8174 46.789 50.8506C46.8635 50.9308 46.9509 51.0249 47.0242 51.1136C47.1349 51.2475 47.2533 51.4136 47.3305 51.6153C47.4077 51.8172 47.4323 52.022 47.4409 52.1988C47.447 52.3232 47.4454 52.4581 47.4441 52.5737C47.4436 52.6151 47.4431 52.654 47.4431 52.6891C47.4425 53.0101 47.4765 53.1306 47.5354 53.1973C47.6486 53.3256 47.822 53.3924 48.1533 53.4462C48.2068 53.4549 48.2668 53.4633 48.3316 53.4724C48.611 53.5115 48.9797 53.5632 49.2998 53.7047C49.5033 53.7947 49.6774 53.9196 49.8238 54.0375C49.9008 54.0996 49.9962 54.1823 50.081 54.2558C50.1351 54.3026 50.1848 54.3457 50.2228 54.3775C50.4756 54.5884 50.6386 54.6746 50.8079 54.6746C50.9771 54.6746 51.1401 54.5884 51.3929 54.3775C51.4309 54.3457 51.4807 54.3026 51.5347 54.2558C51.6195 54.1823 51.7149 54.0996 51.792 54.0375C51.9383 53.9196 52.1124 53.7947 52.3159 53.7047C52.636 53.5632 53.0047 53.5115 53.2841 53.4724C53.3489 53.4633 53.4089 53.4549 53.4624 53.4462C53.7938 53.3924 53.9671 53.3256 54.0804 53.1973C54.1392 53.1306 54.1732 53.0101 54.1727 52.6891C54.1726 52.654 54.1721 52.6151 54.1717 52.5737C54.1703 52.4581 54.1687 52.3233 54.1748 52.1988C54.1834 52.022 54.208 51.8172 54.2852 51.6153C54.3624 51.4136 54.4808 51.2475 54.5915 51.1136C54.6648 51.0249 54.7523 50.9308 54.8268 50.8506C54.8576 50.8174 54.8863 50.7866 54.9108 50.7595C55.1127 50.5365 55.171 50.4211 55.171 50.3114C55.171 50.2017 55.1127 50.0863 54.9108 49.8633C54.8863 49.8362 54.8576 49.8054 54.8268 49.7722C54.7523 49.692 54.6648 49.5979 54.5915 49.5092C54.4808 49.3753 54.3624 49.2092 54.2852 49.0075C54.2094 48.8093 54.1945 48.6091 54.1955 48.4425C54.1963 48.3143 54.2076 48.1782 54.2169 48.0654C54.2193 48.036 54.2216 48.0082 54.2236 47.9825C54.2472 47.6718 54.2194 47.5908 54.1933 47.5587C54.073 47.411 53.9484 47.3561 53.7314 47.3046C53.692 47.2953 53.6465 47.2858 53.596 47.2753C53.3802 47.2303 53.0743 47.1666 52.7746 47.0149C52.5803 46.9166 52.389 46.7896 52.213 46.6678C52.1546 46.6273 52.0984 46.5878 52.0433 46.5491C51.9238 46.4651 51.8095 46.3848 51.6894 46.3065C51.3335 46.0745 51.0526 45.9482 50.8079 45.9482C50.5631 45.9482 50.2822 46.0745 49.9263 46.3065C49.8062 46.3848 49.692 46.4651 49.5724 46.5491C49.5173 46.5878 49.4611 46.6273 49.4027 46.6678ZM49.4142 45.5213C49.788 45.2775 50.2689 45.0107 50.8079 45.0107C51.3468 45.0107 51.8278 45.2775 52.2015 45.5213C52.3356 45.6087 52.4719 45.7044 52.5976 45.7927C52.6494 45.8291 52.6994 45.8642 52.7467 45.897C52.9182 46.0157 53.0648 46.1111 53.1978 46.1784C53.3769 46.269 53.5299 46.3016 53.7295 46.344C53.7962 46.3582 53.8681 46.3735 53.9479 46.3925C54.2573 46.4659 54.6136 46.59 54.9203 46.9668C55.2137 47.3271 55.1784 47.7905 55.1587 48.0499L55.1584 48.0536C55.1554 48.0934 55.1523 48.1305 55.1495 48.1655C55.1407 48.2718 55.1335 48.3593 55.133 48.448C55.1323 48.5609 55.1443 48.6292 55.1609 48.6726C55.1862 48.7389 55.2336 48.8146 55.314 48.9118C55.3702 48.9797 55.425 49.0387 55.4889 49.1073C55.5245 49.1455 55.5628 49.1867 55.6058 49.2341C55.811 49.4608 56.1085 49.8131 56.1085 50.3114C56.1085 50.8097 55.811 51.162 55.6058 51.3887C55.5628 51.4361 55.5245 51.4773 55.4889 51.5155C55.425 51.5841 55.3702 51.6431 55.314 51.711C55.2336 51.8082 55.1862 51.884 55.1609 51.9502C55.134 52.0205 55.1175 52.1137 55.1112 52.2443C55.1066 52.3389 55.1077 52.4289 55.1089 52.5329C55.1095 52.5808 55.1101 52.6317 55.1102 52.6874C55.1107 52.9855 55.1032 53.4552 54.7832 53.8177C54.4372 54.2097 53.969 54.3137 53.6128 54.3716C53.516 54.3873 53.4272 54.4001 53.3446 54.4121C53.0829 54.4498 52.8842 54.4785 52.695 54.5621C52.6001 54.6041 52.4996 54.6713 52.3802 54.7675C52.3037 54.8291 52.2447 54.8807 52.1797 54.9375C52.1261 54.9844 52.0685 55.0348 51.9937 55.0972C51.7205 55.3252 51.3332 55.6121 50.8079 55.6121C50.2825 55.6121 49.8952 55.3252 49.622 55.0972C49.5473 55.0348 49.4896 54.9844 49.436 54.9375C49.3711 54.8807 49.312 54.8291 49.2356 54.7675C49.1161 54.6713 49.0157 54.6041 48.9207 54.5621C48.7315 54.4785 48.5328 54.4498 48.2712 54.4121C48.1886 54.4001 48.0997 54.3873 48.0029 54.3716C47.6467 54.3137 47.1785 54.2097 46.8325 53.8177C46.5125 53.4552 46.505 52.9855 46.5056 52.6874C46.5057 52.6317 46.5063 52.5808 46.5068 52.5329C46.5081 52.4289 46.5091 52.3389 46.5045 52.2443C46.4982 52.1137 46.4817 52.0205 46.4548 51.9502C46.4295 51.884 46.3821 51.8082 46.3017 51.711C46.2456 51.6431 46.1907 51.5841 46.1268 51.5155C46.0912 51.4773 46.0529 51.4361 46.0099 51.3887C45.8047 51.162 45.5072 50.8097 45.5072 50.3114C45.5072 49.8131 45.8047 49.4608 46.0099 49.2341C46.0529 49.1867 46.0912 49.1455 46.1268 49.1073C46.1907 49.0387 46.2456 48.9797 46.3017 48.9118C46.3821 48.8146 46.4295 48.7389 46.4548 48.6726C46.4714 48.6292 46.4834 48.5609 46.4827 48.448C46.4822 48.3593 46.475 48.2718 46.4663 48.1655C46.4634 48.1305 46.4604 48.0934 46.4573 48.0536L46.457 48.0499C46.4373 47.7905 46.4021 47.3271 46.6954 46.9668C47.0022 46.59 47.3585 46.4659 47.6678 46.3925C47.7476 46.3735 47.8195 46.3582 47.8862 46.344C48.0858 46.3016 48.2388 46.269 48.4179 46.1784C48.5509 46.1111 48.6976 46.0157 48.869 45.897C48.9163 45.8642 48.9663 45.8291 49.0181 45.7927C49.1438 45.7044 49.2801 45.6087 49.4142 45.5213Z" fill="#4F56B2"/>
<path id="Ellipse_3" fill-rule="evenodd" clip-rule="evenodd" d="M53.6351 50.3113C53.6351 51.8731 52.3819 53.1597 50.8109 53.1597C49.2399 53.1597 47.9867 51.8731 47.9867 50.3113C47.9867 48.7495 49.2399 47.4629 50.8109 47.4629C52.3819 47.4629 53.6351 48.7495 53.6351 50.3113ZM50.8109 52.2222C51.8529 52.2222 52.6976 51.3667 52.6976 50.3113C52.6976 49.2559 51.8529 48.4004 50.8109 48.4004C49.7689 48.4004 48.9242 49.2559 48.9242 50.3113C48.9242 51.3667 49.7689 52.2222 50.8109 52.2222Z" fill="#4F56B2"/>
</g>
<g id="Group_3">
<path id="Vector" fill-rule="evenodd" clip-rule="evenodd" d="M69.6012 48.4531C69.3423 48.4531 69.1324 48.2433 69.1324 47.9844C69.1324 45.7935 68.9792 42.1009 68.7515 40.1023C68.7222 39.8451 68.907 39.6128 69.1642 39.5835C69.4214 39.5542 69.6537 39.739 69.683 39.9962C69.916 42.042 70.0699 45.7725 70.0699 47.9844C70.0699 48.2433 69.8601 48.4531 69.6012 48.4531Z" fill="#4F56B2"/>
<path id="Vector_2" fill-rule="evenodd" clip-rule="evenodd" d="M66.2992 45.4326C66.0403 45.4326 65.8304 45.2228 65.8304 44.9639C65.8304 43.0231 65.6798 41.7438 65.4529 40.3823C65.4103 40.1269 65.5828 39.8854 65.8382 39.8428C66.0935 39.8003 66.335 39.9728 66.3776 40.2281C66.6114 41.6311 66.7679 42.9627 66.7679 44.9639C66.7679 45.2228 66.5581 45.4326 66.2992 45.4326Z" fill="#4F56B2"/>
<path id="Vector_3" fill-rule="evenodd" clip-rule="evenodd" d="M58.1593 45.6885C57.9004 45.6885 57.6906 45.4786 57.6906 45.2197C57.6906 43.279 57.5399 41.9996 57.313 40.6381C57.2704 40.3828 57.4429 40.1412 57.6983 40.0987C57.9536 40.0561 58.1952 40.2286 58.2377 40.484C58.4715 41.887 58.6281 43.2185 58.6281 45.2197C58.6281 45.4786 58.4182 45.6885 58.1593 45.6885Z" fill="#4F56B2"/>
<path id="Vector_4" fill-rule="evenodd" clip-rule="evenodd" d="M43.3914 49.6934C43.6502 49.6934 43.8601 49.9032 43.8601 50.1621C43.8601 52.1029 44.0108 53.3822 44.2377 54.7437C44.2802 54.9991 44.1077 55.2406 43.8524 55.2832C43.597 55.3257 43.3555 55.1532 43.3129 54.8978C43.0791 53.4949 42.9226 52.1633 42.9226 50.1621C42.9226 49.9032 43.1325 49.6934 43.3914 49.6934Z" fill="#4F56B2"/>
<path id="Vector_5" fill-rule="evenodd" clip-rule="evenodd" d="M32.9557 45.2803C33.2146 45.2803 33.4244 45.0704 33.4244 44.8115C33.4244 42.8707 33.5751 41.5914 33.802 40.2299C33.8446 39.9746 33.6721 39.733 33.4167 39.6905C33.1613 39.6479 32.9198 39.8204 32.8773 40.0758C32.6434 41.4788 32.4869 42.8103 32.4869 44.8115C32.4869 45.0704 32.6968 45.2803 32.9557 45.2803Z" fill="#4F56B2"/>
<path id="Vector_6" fill-rule="evenodd" clip-rule="evenodd" d="M29.7721 48.667C30.031 48.667 30.2408 48.8769 30.2408 49.1357C30.2408 51.2412 30.3677 53.2333 30.745 55.2705C30.7921 55.525 30.6239 55.7696 30.3694 55.8168C30.1148 55.8639 29.8703 55.6957 29.8231 55.4412C29.4325 53.3317 29.3033 51.2794 29.3033 49.1357C29.3033 48.8769 29.5132 48.667 29.7721 48.667Z" fill="#4F56B2"/>
</g>
</g>
</g>
</svg>
