<svg width="100" height="100" viewBox="0 0 100 100" fill="none" xmlns="http://www.w3.org/2000/svg">
<g id="Icon_Alarm clock">
<rect width="100" height="100" rx="12" fill="#F7F7FF"/>
<g id="Group">
<path id="Vector" d="M51.3683 36.6976L69.3603 34.0842C70.9015 33.8604 72.2951 35.0262 72.3468 36.5828L73.3277 66.1192C73.3747 67.5356 72.284 68.7311 70.8693 68.8139L51.8964 69.924C50.3962 70.0118 49.1314 68.8189 49.1314 67.316V39.2829C49.1314 37.9851 50.084 36.8841 51.3683 36.6976Z" fill="#4F56B2"/>
<path id="Vector_2" d="M48.9609 36.6976L30.9689 34.0842C29.4276 33.8604 28.0341 35.0262 27.9824 36.5828L27.0015 66.1192C26.9544 67.5356 28.0452 68.7311 29.4599 68.8139L48.4327 69.924C49.933 70.0118 51.1978 68.8189 51.1978 67.316V39.2829C51.1978 37.9851 50.2451 36.8841 48.9609 36.6976Z" fill="#4F56B2"/>
<path id="Vector_3" d="M50.9553 35.7735L68.6108 32.7975C69.1321 32.7096 69.6107 33.1026 69.626 33.631L70.5466 65.4302C70.5602 65.8981 70.2014 66.293 69.7344 66.3243L51.1583 67.5696C50.6555 67.6033 50.2292 67.2046 50.2292 66.7007V36.6322C50.2292 36.2071 50.5361 35.8442 50.9553 35.7735Z" fill="white"/>
<path id="Vector_4" fill-rule="evenodd" clip-rule="evenodd" d="M68.4661 31.9387L50.8106 34.9147C49.9722 35.056 49.3584 35.782 49.3584 36.6321V66.7006C49.3584 67.7084 50.2111 68.5058 51.2165 68.4384L69.7927 67.1931C70.7267 67.1304 71.4442 66.3407 71.4171 65.4049L70.4965 33.6057C70.4659 32.549 69.5086 31.763 68.4661 31.9387ZM68.6109 32.7974L50.9553 35.7734C50.5361 35.8441 50.2292 36.2071 50.2292 36.6321V66.7006C50.2292 67.2045 50.6556 67.6032 51.1583 67.5695L69.7344 66.3242C70.2015 66.2929 70.5602 65.898 70.5467 65.4301L69.6261 33.6309C69.6108 33.1025 69.1321 32.7095 68.6109 32.7974Z" fill="#4F56B2"/>
<path id="Vector_5" d="M51.2729 35.7034L66.4311 30.9122C66.9823 30.7379 67.5472 31.1394 67.564 31.7173L68.483 63.4611C68.4953 63.888 68.1963 64.2608 67.7769 64.3414L51.6998 67.4326C51.1628 67.5359 50.6646 67.1244 50.6646 66.5775V36.5338C50.6646 36.1539 50.9108 35.8179 51.2729 35.7034Z" fill="white"/>
<path id="Vector_6" fill-rule="evenodd" clip-rule="evenodd" d="M66.1686 30.0821L51.0105 34.8734C50.2861 35.1024 49.7937 35.7744 49.7937 36.534V66.5778C49.7937 67.6715 50.7901 68.4946 51.8642 68.2881L67.9413 65.1969C68.7801 65.0356 69.3781 64.2899 69.3534 63.4362L68.4344 31.6924C68.4009 30.5365 67.2711 29.7336 66.1686 30.0821ZM66.431 30.9124L51.2729 35.7037C50.9107 35.8182 50.6645 36.1542 50.6645 36.534V66.5778C50.6645 67.1247 51.1627 67.5362 51.6998 67.4329L67.7769 64.3417C68.1963 64.2611 68.4953 63.8882 68.4829 63.4614L67.5639 31.7176C67.5472 31.1397 66.9823 30.7382 66.431 30.9124Z" fill="#4F56B2"/>
<path id="Rectangle" d="M54.6409 34.0162L57.3143 33.1436V40.3002L55.9776 39.4801L54.6409 40.8168V34.0162Z" fill="#4F56B2"/>
<path id="Rectangle_2" fill-rule="evenodd" clip-rule="evenodd" d="M53.7701 34.0159C53.7701 33.6391 54.0125 33.305 54.3707 33.1881L57.0441 32.3155C57.3093 32.2289 57.5999 32.2746 57.8257 32.4384C58.0515 32.6022 58.1852 32.8643 58.1852 33.1433V40.2999C58.1852 40.6152 58.0148 40.9059 57.7397 41.0598C57.4646 41.2138 57.1277 41.2071 56.859 41.0422L56.1077 40.5813L55.2567 41.4323C55.0077 41.6814 54.6331 41.7559 54.3077 41.6211C53.9823 41.4863 53.7701 41.1688 53.7701 40.8166V34.0159ZM57.3144 40.2999L55.9777 39.4799L54.641 40.8166V34.0159L57.3144 33.1433V40.2999Z" fill="#4F56B2"/>
<path id="Vector_7" d="M48.9872 35.7728L31.4548 32.7986C30.9332 32.7101 30.4539 33.1033 30.4387 33.6321L29.5239 65.4306C29.5105 65.8983 29.869 66.293 30.3358 66.3245L48.7829 67.569C49.2858 67.603 49.7124 67.2042 49.7124 66.7002V36.6313C49.7124 36.2066 49.4059 35.8438 48.9872 35.7728Z" fill="white"/>
<path id="Vector_8" fill-rule="evenodd" clip-rule="evenodd" d="M31.6004 31.94L49.1328 34.9141C49.9703 35.0562 50.5832 35.7818 50.5832 36.6312V66.7001C50.5832 67.7081 49.73 68.5057 48.7243 68.4378L30.2771 67.1932C29.3435 67.1303 28.6265 66.3408 28.6534 65.4055L29.5682 33.607C29.5986 32.5494 30.5572 31.763 31.6004 31.94ZM31.4547 32.7985L48.9872 35.7727C49.4059 35.8437 49.7123 36.2065 49.7123 36.6312V66.7001C49.7123 67.2041 49.2858 67.6029 48.7829 67.569L30.3357 66.3244C29.8689 66.2929 29.5104 65.8982 29.5239 65.4305L30.4386 33.632C30.4538 33.1032 30.9332 32.7101 31.4547 32.7985Z" fill="#4F56B2"/>
<path id="Vector_9" fill-rule="evenodd" clip-rule="evenodd" d="M44.8662 44.4114C45.4408 44.1566 46.0975 44.1812 46.5989 44.4179C46.8163 44.5206 46.9094 44.7801 46.8067 44.9976C46.7041 45.215 46.4446 45.3081 46.2271 45.2054C45.9532 45.0761 45.5611 45.0558 45.2193 45.2074C44.8987 45.3496 44.5982 45.6537 44.4992 46.2341C44.4009 46.8106 44.5313 47.3627 44.8191 47.7291C45.092 48.0764 45.5359 48.2976 46.1912 48.1867C46.4283 48.1466 46.653 48.3063 46.6931 48.5434C46.7333 48.7805 46.5736 49.0052 46.3365 49.0453C45.3819 49.2069 44.6136 48.8771 44.1343 48.2671C43.67 47.6761 43.5084 46.8644 43.6408 46.0877C43.7872 45.2292 44.2705 44.6756 44.8662 44.4114Z" fill="#4F56B2"/>
<g id="Vector_10">
<path fill-rule="evenodd" clip-rule="evenodd" d="M66.6418 42.2338C66.5957 41.9978 66.367 41.8439 66.131 41.89L52.247 44.6022C52.011 44.6483 51.857 44.877 51.9031 45.113C51.9493 45.349 52.1779 45.503 52.414 45.4569L66.298 42.7447C66.534 42.6986 66.6879 42.4699 66.6418 42.2338Z" fill="#4F56B2"/>
<path fill-rule="evenodd" clip-rule="evenodd" d="M66.6418 44.2358C66.5957 43.9998 66.367 43.8458 66.131 43.8919L52.247 46.6041C52.011 46.6502 51.857 46.8789 51.9031 47.1149C51.9493 47.351 52.1779 47.5049 52.414 47.4588L66.298 44.7466C66.534 44.7005 66.6879 44.4718 66.6418 44.2358Z" fill="#4F56B2"/>
<path fill-rule="evenodd" clip-rule="evenodd" d="M66.6418 52.2756C66.5957 52.0396 66.367 51.8857 66.131 51.9318L52.247 54.644C52.011 54.6901 51.857 54.9188 51.9031 55.1548C51.9493 55.3908 52.1779 55.5448 52.414 55.4987L66.298 52.7864C66.534 52.7403 66.6879 52.5116 66.6418 52.2756Z" fill="#4F56B2"/>
<path fill-rule="evenodd" clip-rule="evenodd" d="M66.6418 46.3023C66.5957 46.0663 66.367 45.9123 66.131 45.9584L52.247 48.6707C52.011 48.7168 51.857 48.9455 51.9031 49.1815C51.9493 49.4175 52.1779 49.5714 52.414 49.5253L66.298 46.8131C66.534 46.767 66.6879 46.5383 66.6418 46.3023Z" fill="#4F56B2"/>
<path fill-rule="evenodd" clip-rule="evenodd" d="M66.6418 54.3422C66.5957 54.1061 66.367 53.9522 66.131 53.9983L52.247 56.7105C52.011 56.7566 51.857 56.9853 51.9031 57.2213C51.9493 57.4573 52.1779 57.6113 52.414 57.5652L66.298 54.853C66.534 54.8069 66.6879 54.5782 66.6418 54.3422Z" fill="#4F56B2"/>
<path fill-rule="evenodd" clip-rule="evenodd" d="M66.6418 48.4495C66.5957 48.2135 66.367 48.0596 66.131 48.1057L52.247 50.8179C52.011 50.864 51.857 51.0927 51.9031 51.3287C51.9493 51.5647 52.1779 51.7187 52.414 51.6726L66.298 48.9603C66.534 48.9142 66.6879 48.6855 66.6418 48.4495Z" fill="#4F56B2"/>
<path fill-rule="evenodd" clip-rule="evenodd" d="M66.6418 56.4895C66.5957 56.2535 66.367 56.0995 66.131 56.1456L52.247 58.8578C52.011 58.9039 51.857 59.1326 51.9031 59.3686C51.9493 59.6047 52.1779 59.7586 52.414 59.7125L66.298 57.0003C66.534 56.9542 66.6879 56.7255 66.6418 56.4895Z" fill="#4F56B2"/>
<path fill-rule="evenodd" clip-rule="evenodd" d="M60.3472 59.9697C60.3063 59.7328 60.0811 59.5738 59.8441 59.6146L52.2564 60.9224C52.0194 60.9633 51.8604 61.1885 51.9012 61.4255C51.9421 61.6624 52.1673 61.8214 52.4043 61.7806L59.992 60.4728C60.229 60.4319 60.388 60.2067 60.3472 59.9697Z" fill="#4F56B2"/>
</g>
<g id="Vector_11">
<path fill-rule="evenodd" clip-rule="evenodd" d="M32.3921 51.5851C32.4141 51.3456 32.626 51.1693 32.8655 51.1913L46.9432 52.4828C47.1827 52.5048 47.359 52.7167 47.337 52.9562C47.3151 53.1957 47.1031 53.372 46.8637 53.35L32.7859 52.0585C32.5465 52.0365 32.3701 51.8246 32.3921 51.5851Z" fill="#4F56B2"/>
<path fill-rule="evenodd" clip-rule="evenodd" d="M32.3921 57.3954C32.4141 57.156 32.626 56.9797 32.8655 57.0016L46.9432 58.2932C47.1827 58.3151 47.359 58.5271 47.337 58.7665C47.3151 59.006 47.1031 59.1823 46.8637 59.1603L32.7859 57.8688C32.5465 57.8468 32.3701 57.6349 32.3921 57.3954Z" fill="#4F56B2"/>
<path fill-rule="evenodd" clip-rule="evenodd" d="M32.3913 53.6586C32.4074 53.4187 32.615 53.2372 32.8549 53.2534L40.5395 53.77C40.7795 53.7861 40.9609 53.9937 40.9448 54.2336C40.9286 54.4735 40.7211 54.655 40.4811 54.6388L32.7965 54.1222C32.5566 54.1061 32.3751 53.8985 32.3913 53.6586Z" fill="#4F56B2"/>
<path fill-rule="evenodd" clip-rule="evenodd" d="M32.3914 59.4678C32.4081 59.2279 32.6162 59.047 32.8561 59.0638L43.8846 59.8359C44.1245 59.8527 44.3053 60.0607 44.2885 60.3006C44.2718 60.5405 44.0637 60.7213 43.8238 60.7046L32.7953 59.9325C32.5554 59.9157 32.3746 59.7077 32.3914 59.4678Z" fill="#4F56B2"/>
<path fill-rule="evenodd" clip-rule="evenodd" d="M32.3913 61.3228C32.4074 61.0828 32.615 60.9014 32.8549 60.9175L40.5395 61.4341C40.7795 61.4503 40.9609 61.6578 40.9448 61.8978C40.9286 62.1377 40.7211 62.3191 40.4811 62.303L32.7965 61.7864C32.5566 61.7703 32.3751 61.5627 32.3913 61.3228Z" fill="#4F56B2"/>
</g>
<path id="Vector_12" fill-rule="evenodd" clip-rule="evenodd" d="M35.2538 38.9126C35.4396 38.9215 35.5992 39.0473 35.6511 39.2259L38.2342 48.1052C38.3014 48.3361 38.1686 48.5777 37.9377 48.6449C37.7068 48.7121 37.4652 48.5793 37.398 48.3485L35.1691 40.6865L32.2473 48.0326C32.1585 48.256 31.9053 48.3651 31.6818 48.2762C31.4584 48.1874 31.3493 47.9342 31.4382 47.7107L34.8284 39.1866C34.8972 39.0138 35.0681 38.9037 35.2538 38.9126Z" fill="#4F56B2"/>
<path id="Vector_13" fill-rule="evenodd" clip-rule="evenodd" d="M37.1378 44.8523C37.1378 45.0928 36.9429 45.2877 36.7024 45.2877L33.0699 45.2877C32.8295 45.2877 32.6345 45.0928 32.6345 44.8523C32.6345 44.6118 32.8295 44.4169 33.0699 44.4169L36.7024 44.4169C36.9429 44.4169 37.1378 44.6118 37.1378 44.8523Z" fill="#4F56B2"/>
<path id="Vector_14" fill-rule="evenodd" clip-rule="evenodd" d="M40.1242 42.4795V44.2584C40.2386 44.2629 40.3612 44.2756 40.4848 44.2945C40.6546 44.2808 40.8402 44.2509 41.0155 44.1959C41.2217 44.1311 41.381 44.0416 41.4845 43.9341C41.5783 43.8365 41.6428 43.7087 41.6428 43.5127C41.6428 43.1318 41.4179 42.8764 41.0068 42.6955C40.7327 42.5749 40.4128 42.5085 40.1242 42.4795ZM41.8518 44.7559C41.944 44.6933 42.0318 44.6211 42.1119 44.538C42.36 44.2801 42.5136 43.9366 42.5136 43.5127C42.5136 42.6536 41.942 42.1556 41.3575 41.8985C40.7825 41.6454 40.116 41.5803 39.6771 41.5921C39.4413 41.5985 39.2534 41.7915 39.2534 42.0274V48.2914C39.2534 48.484 39.3801 48.6538 39.5647 48.7087C40.0364 48.8489 40.8072 48.9002 41.5042 48.6783C41.8592 48.5654 42.2135 48.3756 42.4952 48.0716C42.7811 47.7633 42.9725 47.3583 43.0276 46.8533C43.1426 45.7994 42.517 45.1328 41.8518 44.7559ZM40.1242 45.1724C40.222 45.176 40.3286 45.1757 40.4408 45.17C40.7026 45.2176 41.0063 45.3057 41.2863 45.4419C41.8579 45.72 42.2301 46.1342 42.1619 46.7589C42.126 47.0885 42.0083 47.316 41.8566 47.4796C41.7009 47.6476 41.4894 47.7692 41.2401 47.8485C40.8657 47.9677 40.4484 47.9778 40.1242 47.9367V45.1724Z" fill="#4F56B2"/>
</g>
</g>
</svg>
