<svg width="100" height="100" viewBox="0 0 100 100" fill="none" xmlns="http://www.w3.org/2000/svg">
<g id="Icon_Medal">
<rect width="100" height="100" rx="12" fill="#F7F7FF"/>
<g id="Group">
<path id="Vector" fill-rule="evenodd" clip-rule="evenodd" d="M50.0145 61.4443C50.5323 61.4443 50.952 61.8641 50.952 62.3818V70.561C50.952 71.0788 50.5323 71.4985 50.0145 71.4985C49.4968 71.4985 49.077 71.0788 49.077 70.561V62.3818C49.077 61.8641 49.4968 61.4443 50.0145 61.4443Z" fill="#4F56B2"/>
<path id="Ellipse" fill-rule="evenodd" clip-rule="evenodd" d="M50.5957 27.575C50.659 28.0889 50.2937 28.5567 49.7799 28.62C48.3869 28.7915 46.9924 29.1465 45.6273 29.6991C37.2456 33.092 33.2013 42.6372 36.5941 51.0189C39.987 59.4007 49.5322 63.445 57.914 60.0521C59.4107 59.4462 60.7678 58.645 61.9686 57.6903C62.3739 57.3681 62.9636 57.4354 63.2859 57.8407C63.6081 58.246 63.5408 58.8357 63.1355 59.158C61.7955 60.2234 60.2826 61.1161 58.6175 61.7901C49.2759 65.5715 38.6375 61.0641 34.8561 51.7225C31.0747 42.3808 35.5822 31.7425 44.9238 27.9611C46.4423 27.3464 47.9964 26.9505 49.5507 26.7591C50.0646 26.6958 50.5325 27.0611 50.5957 27.575Z" fill="#4F56B2"/>
<path id="Vector_2" fill-rule="evenodd" clip-rule="evenodd" d="M43.8946 27.201C44.3565 26.967 44.9206 27.1518 45.1545 27.6137L61.9125 60.6972C62.1464 61.159 61.9616 61.7231 61.4998 61.9571C61.0379 62.1911 60.4738 62.0063 60.2398 61.5444L43.4819 28.4609C43.2479 27.999 43.4327 27.4349 43.8946 27.201Z" fill="#4F56B2"/>
<path id="Ellipse_2" d="M65.544 45.2473C65.544 52.8888 59.3493 59.0834 51.7079 59.0834C44.0664 59.0834 37.8717 52.8888 37.8717 45.2473C37.8717 37.6058 44.0664 31.4111 51.7079 31.4111C59.3493 31.4111 65.544 37.6058 65.544 45.2473Z" fill="white"/>
<path id="Ellipse_3" fill-rule="evenodd" clip-rule="evenodd" d="M66.4815 45.2473C66.4815 53.4065 59.8671 60.0209 51.7079 60.0209C43.5486 60.0209 36.9342 53.4065 36.9342 45.2473C36.9342 37.088 43.5486 30.4736 51.7079 30.4736C59.8671 30.4736 66.4815 37.088 66.4815 45.2473ZM51.7079 59.0834C59.3493 59.0834 65.544 52.8888 65.544 45.2473C65.544 37.6058 59.3493 31.4111 51.7079 31.4111C44.0664 31.4111 37.8717 37.6058 37.8717 45.2473C37.8717 52.8888 44.0664 59.0834 51.7079 59.0834Z" fill="#4F56B2"/>
<path id="Vector_3" fill-rule="evenodd" clip-rule="evenodd" d="M47.3209 36.8481C47.4565 36.6944 47.6762 36.6466 47.8634 36.7301L51.7582 38.4678C51.7644 38.4706 51.7706 38.4735 51.7768 38.4766L53.8141 39.4952C54.0181 39.5973 54.1191 39.8314 54.0532 40.0499L52.9147 43.8248C52.855 44.0227 52.6727 44.1582 52.466 44.1582H50.386L50.5513 45.1168L52.6799 46.2084C52.8085 46.2743 52.8995 46.396 52.9265 46.538C52.9534 46.6801 52.9134 46.8266 52.8179 46.9351L50.2983 49.7983V51.4789C50.2983 51.6154 50.2388 51.7451 50.1354 51.8341L47.9783 53.6916C47.8139 53.8332 47.5738 53.8435 47.398 53.7164L45.2557 52.1692L42.8146 50.6808C42.7149 50.62 42.6415 50.5242 42.6088 50.4122L41.8897 47.9555C41.8574 47.8451 41.8668 47.7267 41.9162 47.6227L42.9645 45.4158L41.9078 42.913C41.8535 42.7845 41.8593 42.6385 41.9236 42.5147L43.5414 39.3989C43.5513 39.3798 43.5625 39.3615 43.5749 39.344L44.5935 37.9059C44.6814 37.7818 44.824 37.7081 44.976 37.7081H46.5621L47.3209 36.8481ZM47.796 37.7266L47.1251 38.487C47.0361 38.5878 46.9081 38.6456 46.7736 38.6456H45.2184L44.3586 39.8595L42.8571 42.7513L43.9099 45.2448C43.9619 45.3679 43.9588 45.5074 43.9015 45.6282L42.8397 47.8636L43.4576 49.9748L45.7594 51.3783C45.7698 51.3846 45.7799 51.3914 45.7898 51.3985L47.6469 52.7398L49.3608 51.264V49.6214C49.3608 49.5074 49.4023 49.3973 49.4776 49.3118L51.7163 46.7678L49.9152 45.8442C49.7841 45.7769 49.6922 45.6519 49.6672 45.5067L49.3676 43.7691C49.3441 43.6328 49.3819 43.4932 49.471 43.3874C49.5601 43.2817 49.6913 43.2207 49.8295 43.2207H52.1177L53.0416 40.1572L51.3668 39.3198L47.796 37.7266Z" fill="#4F56B2"/>
<path id="Vector_4" fill-rule="evenodd" clip-rule="evenodd" d="M62.3937 42.3922C62.5375 42.4763 62.6258 42.6303 62.6258 42.7969V46.1118C62.6258 46.179 62.6113 46.2455 62.5834 46.3067L61.4728 48.7361V51.0842C61.4728 51.2617 61.3725 51.424 61.2137 51.5034L57.8988 53.1609C57.7677 53.2264 57.6135 53.2269 57.4821 53.1621C57.3506 53.0974 57.257 52.9749 57.229 52.8311L56.7246 50.2368C56.7075 50.1492 56.7159 50.0586 56.7486 49.9755L57.6354 47.7244L57.2289 45.6244C57.2079 45.5156 57.226 45.4029 57.2801 45.3062L58.289 43.5047C58.3618 43.3747 58.4921 43.287 58.6399 43.2686L60.8545 42.9917L61.9272 42.3883C62.0724 42.3067 62.25 42.3082 62.3937 42.3922ZM61.6883 43.5984L61.2339 43.854C61.1808 43.8838 61.1225 43.903 61.0622 43.9106L58.9912 44.1694L58.1819 45.6146L58.5817 47.6802C58.5987 47.7676 58.5903 47.8581 58.5576 47.941L57.6709 50.192L58.0315 52.0464L60.5353 50.7944V48.634C60.5353 48.5667 60.5498 48.5003 60.5777 48.4391L61.6883 46.0097V43.5984Z" fill="#4F56B2"/>
<g id="Group_2">
<path id="Ellipse_4" d="M49.8785 67.6719C45.4598 67.6719 41.8778 69.4507 41.8778 71.645H57.8792C57.8792 69.4507 54.2972 67.6719 49.8785 67.6719Z" fill="white"/>
<path id="Ellipse_5" fill-rule="evenodd" clip-rule="evenodd" d="M41.8778 72.5825C41.36 72.5825 40.9403 72.1628 40.9403 71.645C40.9403 69.9981 42.2591 68.7632 43.8042 67.9959C45.4072 67.1999 47.5561 66.7344 49.8785 66.7344C52.2009 66.7344 54.3498 67.1999 55.9528 67.9959C57.4979 68.7632 58.8167 69.9981 58.8167 71.645C58.8167 72.1628 58.397 72.5825 57.8792 72.5825H41.8778ZM57.6552 70.7075C56.8067 68.9656 53.6469 67.6719 49.8785 67.6719C46.1102 67.6719 42.9503 68.9656 42.1018 70.7075C41.9554 71.0081 41.8778 71.3221 41.8778 71.645H57.8792C57.8792 71.3221 57.8016 71.0081 57.6552 70.7075Z" fill="#4F56B2"/>
<path id="Rectangle" d="M39.6735 72.5633C39.6735 72.3153 39.8745 72.1143 40.1225 72.1143H59.9065C60.1545 72.1143 60.3556 72.3153 60.3556 72.5633C60.3556 72.8113 60.1545 73.0123 59.9065 73.0123H40.1225C39.8745 73.0123 39.6735 72.8113 39.6735 72.5633Z" fill="#4F56B2"/>
<path id="Rectangle_2" fill-rule="evenodd" clip-rule="evenodd" d="M59.9065 73.0123C60.1545 73.0123 60.3556 72.8113 60.3556 72.5633C60.3556 72.3153 60.1545 72.1143 59.9065 72.1143H40.1225C39.8745 72.1143 39.6735 72.3153 39.6735 72.5633C39.6735 72.8113 39.8745 73.0123 40.1225 73.0123H59.9065ZM40.1225 71.1768H59.9065C60.6723 71.1768 61.2931 71.7975 61.2931 72.5633C61.2931 73.329 60.6723 73.9498 59.9065 73.9498H40.1225C39.3567 73.9498 38.736 73.329 38.736 72.5633C38.736 71.7975 39.3567 71.1768 40.1225 71.1768Z" fill="#4F56B2"/>
</g>
</g>
</g>
</svg>
