<svg width="100" height="100" viewBox="0 0 100 100" fill="none" xmlns="http://www.w3.org/2000/svg">
<g id="Diploma">
<rect width="100" height="100" rx="12" fill="#F7F7FF"/>
<g id="Group">
<path id="Rectangle" d="M27.5088 36.6098C27.5088 36.0508 27.962 35.5977 28.521 35.5977H77.1371C77.6961 35.5977 78.1493 36.0508 78.1493 36.6098V67.9673C78.1493 68.5263 77.6961 68.9795 77.1371 68.9795H28.521C27.962 68.9795 27.5088 68.5263 27.5088 67.9673V36.6098Z" fill="#4F56B2"/>
<path id="Rectangle_2" d="M25.0117 34.0239C25.0117 33.4649 25.4649 33.0117 26.0239 33.0117H74.64C75.199 33.0117 75.6522 33.4649 75.6522 34.0239V65.3814C75.6522 65.9404 75.199 66.3935 74.64 66.3935H26.0239C25.4649 66.3935 25.0117 65.9404 25.0117 65.3814V34.0239Z" fill="white"/>
<path id="Rectangle_3" fill-rule="evenodd" clip-rule="evenodd" d="M26.0244 32H74.6405C75.7585 32 76.6648 32.9063 76.6648 34.0244V65.3818C76.6648 66.4999 75.7585 67.4062 74.6405 67.4062H26.0244C24.9063 67.4062 24 66.4999 24 65.3818V34.0244C24 32.9063 24.9063 32 26.0244 32ZM26.0244 33.0122C25.4654 33.0122 25.0122 33.4654 25.0122 34.0244V65.3818C25.0122 65.9408 25.4654 66.394 26.0244 66.394H74.6405C75.1995 66.394 75.6527 65.9408 75.6527 65.3818V34.0244C75.6527 33.4654 75.1995 33.0122 74.6405 33.0122H26.0244Z" fill="#4F56B2"/>
<g id="Vector">
<path fill-rule="evenodd" clip-rule="evenodd" d="M32.793 45.0679C32.793 44.7884 33.0196 44.5619 33.2991 44.5619H67.3622C67.6417 44.5619 67.8683 44.7884 67.8683 45.0679C67.8683 45.3475 67.6417 45.574 67.3622 45.574H33.2991C33.0196 45.574 32.793 45.3475 32.793 45.0679Z" fill="#4F56B2"/>
<path fill-rule="evenodd" clip-rule="evenodd" d="M43.2389 39.3713C43.2389 39.0918 43.4655 38.8652 43.745 38.8652H56.0077C56.2872 38.8652 56.5138 39.0918 56.5138 39.3713C56.5138 39.6508 56.2872 39.8774 56.0077 39.8774H43.745C43.4655 39.8774 43.2389 39.6508 43.2389 39.3713Z" fill="#4F56B2"/>
<path fill-rule="evenodd" clip-rule="evenodd" d="M32.793 47.6795C32.793 47.4 33.0196 47.1734 33.2991 47.1734H67.3622C67.6417 47.1734 67.8683 47.4 67.8683 47.6795C67.8683 47.959 67.6417 48.1856 67.3622 48.1856H33.2991C33.0196 48.1856 32.793 47.959 32.793 47.6795Z" fill="#4F56B2"/>
<path fill-rule="evenodd" clip-rule="evenodd" d="M32.793 50.7548C32.793 50.4753 33.0196 50.2487 33.2991 50.2487H67.3622C67.6417 50.2487 67.8683 50.4753 67.8683 50.7548C67.8683 51.0343 67.6417 51.2609 67.3622 51.2609H33.2991C33.0196 51.2609 32.793 51.0343 32.793 50.7548Z" fill="#4F56B2"/>
<path fill-rule="evenodd" clip-rule="evenodd" d="M32.793 53.8206C32.793 53.5411 33.0196 53.3145 33.2991 53.3145H67.3622C67.6417 53.3145 67.8683 53.5411 67.8683 53.8206C67.8683 54.1001 67.6417 54.3267 67.3622 54.3267H33.2991C33.0196 54.3267 32.793 54.1001 32.793 53.8206Z" fill="#4F56B2"/>
<path fill-rule="evenodd" clip-rule="evenodd" d="M32.793 56.6589C32.793 56.3794 33.0196 56.1528 33.2991 56.1528H49.1952C49.4747 56.1528 49.7013 56.3794 49.7013 56.6589C49.7013 56.9384 49.4747 57.165 49.1952 57.165H33.2991C33.0196 57.165 32.793 56.9384 32.793 56.6589Z" fill="#4F56B2"/>
</g>
<g id="Group_2">
<path id="Rectangle_4" d="M64.4629 60.5781H69.913V70.2293L67.1879 67.5043L64.4629 70.2293V60.5781Z" fill="white"/>
<path id="Rectangle_5" fill-rule="evenodd" clip-rule="evenodd" d="M63.4512 60.5766C63.4512 60.0176 63.9043 59.5645 64.4634 59.5645H69.9135C70.4725 59.5645 70.9256 60.0176 70.9256 60.5766V70.2278C70.9256 70.6372 70.679 71.0063 70.3008 71.163C69.9226 71.3197 69.4872 71.2331 69.1977 70.9436L67.1884 68.9343L65.1791 70.9436C64.8896 71.2331 64.4542 71.3197 64.076 71.163C63.6978 71.0063 63.4512 70.6372 63.4512 70.2278V60.5766ZM67.1884 67.5028L69.9135 70.2278V60.5766H64.4634V70.2278L67.1884 67.5028Z" fill="#4F56B2"/>
<path id="Ellipse" d="M71.791 60.8873C71.791 63.3643 69.8084 65.3723 67.3628 65.3723C64.9171 65.3723 62.9346 63.3643 62.9346 60.8873C62.9346 58.4103 64.9171 56.4023 67.3628 56.4023C69.8084 56.4023 71.791 58.4103 71.791 60.8873Z" fill="white"/>
<path id="Ellipse_2" fill-rule="evenodd" clip-rule="evenodd" d="M72.8036 60.8878C72.8036 63.9116 70.38 66.3849 67.3632 66.3849C64.3465 66.3849 61.9229 63.9116 61.9229 60.8878C61.9229 57.864 64.3465 55.3906 67.3632 55.3906C70.38 55.3906 72.8036 57.864 72.8036 60.8878ZM67.3632 65.3728C69.8089 65.3728 71.7914 63.3648 71.7914 60.8878C71.7914 58.4108 69.8089 56.4028 67.3632 56.4028C64.9176 56.4028 62.935 58.4108 62.935 60.8878C62.935 63.3648 64.9176 65.3728 67.3632 65.3728Z" fill="#4F56B2"/>
<path id="Ellipse_3" fill-rule="evenodd" clip-rule="evenodd" d="M70.7401 60.8877C70.7401 62.7572 69.2403 64.2948 67.3632 64.2948C65.4861 64.2948 63.9863 62.7572 63.9863 60.8877C63.9863 59.0181 65.4861 57.4805 67.3632 57.4805C69.2403 57.4805 70.7401 59.0181 70.7401 60.8877ZM67.3632 63.2826C68.6692 63.2826 69.7279 62.2104 69.7279 60.8877C69.7279 59.5649 68.6692 58.4927 67.3632 58.4927C66.0572 58.4927 64.9985 59.5649 64.9985 60.8877C64.9985 62.2104 66.0572 63.2826 67.3632 63.2826Z" fill="#4F56B2"/>
</g>
</g>
</g>
</svg>
