<svg width="100" height="100" viewBox="0 0 100 100" fill="none" xmlns="http://www.w3.org/2000/svg">
<rect width="100" height="100" rx="12" fill="#F7F7FF"/>
<g clip-path="url(#clip0_3742_135795)">
<path d="M30 72.5V41L70 40.5L70.5 72.5H30Z" fill="white"/>
<path d="M39.5 28L37 29.5V39H42.5L42 29.5L39.5 28Z" fill="white"/>
<path d="M61.5 28L59 29.5V39H64.5L64 29.5L61.5 28Z" fill="white"/>
<path d="M45.793 73.6255C38.6659 73.6255 30.7921 73.4917 30.0748 72.9132C29.5172 72.4643 29.0927 71.1081 29.1215 58.3699C29.1438 56.2079 29.2078 54.6884 29.2819 52.9293C29.3344 51.6724 29.3927 50.2895 29.4452 48.457C29.5359 45.9173 29.3646 42.4905 29.1826 38.8629C29.1207 37.6341 29.0574 36.3721 29.002 35.0929C28.9761 34.5001 29.1999 33.9173 29.6157 33.4935C30.033 33.0683 30.6129 32.823 31.2079 32.8489L37.2687 33.0007L37.2327 34.4389L31.1719 34.2871C30.977 34.2871 30.7827 34.3583 30.6424 34.5015C30.5028 34.644 30.4309 34.831 30.4395 35.0296C30.4956 36.3052 30.559 37.565 30.6194 38.7903C30.8021 42.4495 30.9755 45.9058 30.8827 48.5024C30.8302 50.3385 30.7719 51.727 30.7187 52.989C30.6453 54.7359 30.582 56.2453 30.5597 58.3785C30.5381 67.9201 30.7892 70.9771 31.0259 71.765C32.7339 72.1089 42.9374 72.2391 51.8667 72.1578C59.5744 72.0427 68.008 71.7693 69.6801 71.4944C69.7441 70.9764 69.6513 69.7663 69.593 69.0036C69.5542 68.495 69.5168 68.0029 69.5016 67.592C69.2434 62.0075 69.2764 54.3646 69.3059 47.621C69.3311 41.8682 69.357 35.9333 69.1369 34.5447C68.685 34.4655 67.4051 34.3346 63.7999 34.2662L63.8272 32.8273C69.7132 32.9395 69.9664 33.2057 70.2341 33.4871C70.7291 34.0072 70.796 35.857 70.7449 47.6275C70.7154 54.3538 70.683 61.9773 70.9399 67.5323C70.955 67.9338 70.9909 68.4058 71.0284 68.8936C71.201 71.1505 71.2219 72.1182 70.7211 72.6017C70.4959 72.819 69.9693 73.3269 51.884 73.5967C50.0724 73.6126 47.9679 73.6255 45.793 73.6255ZM42.2187 34.3562L42.1964 32.9172C48.8594 32.8144 54.4691 32.7712 58.87 32.7805L58.8657 34.2195C54.4763 34.208 48.873 34.2533 42.2187 34.3562Z" fill="#4F56B2"/>
<path d="M40.5371 39.5254L39.0197 39.5239C38.3816 39.5498 37.7707 39.3095 37.311 38.852C36.8484 38.3908 36.6052 37.7684 36.6268 37.0979L36.5296 30.4853C36.5174 29.6428 36.834 28.847 37.4225 28.2434C38.0103 27.6405 38.7981 27.3023 39.6406 27.293H39.6766C41.3897 27.293 42.7977 28.6765 42.8228 30.3939L42.92 37.0562C42.8761 38.4224 41.8336 39.4916 40.5472 39.5254H40.5371ZM38.9938 38.0857L40.5169 38.0872C41.0306 38.0692 41.4623 37.6022 41.481 37.0432L41.3839 30.4155C41.3702 29.4766 40.5975 28.7377 39.6572 28.7326C39.2003 28.7377 38.7729 28.9211 38.4535 29.2485C38.1341 29.5758 37.9621 30.0082 37.9693 30.4651L38.0657 37.1116C38.0564 37.4123 38.1492 37.6569 38.3269 37.8332C38.5003 38.0059 38.7398 38.1073 38.9938 38.0864V38.0857Z" fill="#4F56B2"/>
<path d="M60.6301 39.3484C59.3164 39.3484 58.2026 38.249 58.1393 36.8569L58.0501 30.2147C58.0386 29.3665 58.3588 28.565 58.9509 27.9578C59.543 27.3505 60.338 27.0102 61.1863 27.0002C62.9173 26.9829 64.3577 28.3743 64.3937 30.1068L64.5311 36.7418C64.4865 38.1303 63.3655 39.2685 62.0324 39.3182L60.7165 39.347C60.6877 39.3484 60.6589 39.3484 60.6301 39.3484ZM61.2222 28.4391H61.2028C60.7388 28.4441 60.3056 28.6305 59.9819 28.9621C59.6581 29.2938 59.4833 29.7313 59.4898 30.1946L59.5783 36.8137C59.6063 37.4166 60.1078 37.9368 60.6754 37.908L61.9849 37.8792C62.5669 37.8548 63.0742 37.331 63.0936 36.7324L62.9554 30.1356C62.936 29.196 62.1611 28.4384 61.223 28.4384L61.2222 28.4391Z" fill="#4F56B2"/>
<path fill-rule="evenodd" clip-rule="evenodd" d="M40.5275 38.8084L39.0202 38.8069C38.0676 38.8422 37.3151 38.0882 37.346 37.1234L37.2992 33.9254C37.2906 33.9254 37.2827 33.9254 37.274 33.9261L30.2283 34.1419C30.293 34.8024 30.2894 35.3787 30.2686 35.8629C30.2312 36.2536 30.2117 36.4492 30.1391 36.9421C30.1391 36.9421 30.0369 37.8724 29.9865 38.7933C29.947 39.4725 29.9578 40.4308 30.1837 41.6855C32.3831 41.2884 35.7078 40.8322 39.7368 40.6812C43.7867 40.5466 46.4926 40.8128 48.9647 41.0567C49.6755 41.1265 50.3676 41.1949 51.0663 41.251C55.3442 41.5827 61.7245 41.7287 69.6667 40.4869C69.6415 40.3473 69.6271 40.1919 69.6134 40.0365C69.599 39.8811 69.5854 39.7257 69.5602 39.5861C69.4458 38.8566 69.2717 38.2249 69.1091 37.6321C68.7609 36.3658 68.4616 35.2765 68.8932 33.793C67.1471 33.8498 65.4376 33.8829 63.7519 33.8995L63.8109 36.7565C63.7793 37.727 62.9648 38.563 62.0058 38.599L60.7007 38.6278C59.7416 38.6631 58.9049 37.8493 58.8574 36.8241L58.8185 33.9102C56.8947 33.9016 54.9888 33.8807 53.0836 33.8599C49.4813 33.8203 45.8789 33.7807 42.1528 33.8225L42.2002 37.0687C42.1686 38.0328 41.4139 38.7854 40.5275 38.8084Z" fill="#4F56B2"/>
<path d="M39.021 38.8066V38.0872C39.0124 38.0872 39.0037 38.0872 38.9944 38.0872L39.021 38.8066ZM40.5283 38.8081V39.5276C40.534 39.5276 40.5405 39.5276 40.547 39.5276L40.5283 38.8081ZM37.3468 37.1231L38.0663 37.1468C38.0663 37.1353 38.0663 37.1245 38.0663 37.113L37.3468 37.1231ZM37.3 33.9251L38.0195 33.9143C38.0166 33.7214 37.9368 33.5373 37.7965 33.4042C37.6569 33.2711 37.4698 33.1991 37.2763 33.2056L37.2993 33.9251H37.3ZM37.2748 33.9258L37.2971 34.6452H37.2986L37.2748 33.9258ZM30.2291 34.1416L30.2068 33.4221C30.0075 33.4286 29.8197 33.5164 29.688 33.666C29.5564 33.8157 29.4931 34.0135 29.5125 34.2114L30.2284 34.1409L30.2291 34.1416ZM30.2694 35.8626L30.9852 35.9317C30.9867 35.9187 30.9874 35.9065 30.9881 35.8935L30.2694 35.8626ZM30.1399 36.9418L29.4283 36.836C29.4269 36.8447 29.4262 36.854 29.4247 36.8626L30.1399 36.9411V36.9418ZM29.9873 38.793L30.7054 38.8347V38.8318L29.9873 38.793ZM30.1845 41.6852L29.4765 41.8133C29.5103 42.0011 29.6175 42.168 29.7744 42.2766C29.9312 42.3853 30.1248 42.4277 30.3125 42.3939L30.1845 41.6852ZM39.7376 40.6809L39.7138 39.9614H39.711L39.7376 40.6809ZM51.0671 41.2507L51.0095 41.968H51.0117L51.0671 41.2507ZM69.6675 40.4866L69.7783 41.1974C69.9697 41.1672 70.1409 41.0615 70.2531 40.9039C70.3654 40.7463 70.4093 40.5492 70.3747 40.3593L69.6668 40.4873L69.6675 40.4866ZM69.561 39.5866L68.8502 39.6981C68.8509 39.7038 68.8523 39.7089 68.853 39.7146L69.561 39.5866ZM68.8941 33.7934L69.5847 33.9948C69.6495 33.7732 69.6035 33.5344 69.4624 33.3524C69.3214 33.1703 69.1013 33.0667 68.8703 33.0746L68.8941 33.7941V33.7934ZM63.7527 33.8999L63.7455 33.1804C63.5534 33.1826 63.37 33.261 63.2362 33.3991C63.1023 33.5373 63.0297 33.7229 63.0333 33.915L63.7527 33.8999ZM63.8117 36.7569L64.5305 36.7806C64.5305 36.7677 64.5305 36.7547 64.5305 36.7425L63.811 36.7576L63.8117 36.7569ZM62.0066 38.5994L62.0224 39.3189C62.0224 39.3189 62.0296 39.3189 62.0332 39.3189L62.0066 38.5994ZM60.7015 38.6282L60.6856 37.9088C60.6856 37.9088 60.6784 37.9088 60.6748 37.9088L60.7015 38.6282ZM58.8582 36.8245L58.1387 36.8339C58.1387 36.8418 58.1387 36.8497 58.1387 36.8576L58.8582 36.8245ZM58.8193 33.9107L59.5388 33.9013C59.5338 33.5092 59.215 33.1934 58.8229 33.1912L58.8193 33.9107ZM42.1536 33.8229L42.1456 33.1034C41.9543 33.1056 41.7715 33.184 41.6384 33.3207C41.5046 33.4574 41.4312 33.6423 41.4341 33.8337L42.1536 33.8229ZM42.201 37.0691L42.9205 37.0929C42.9205 37.0814 42.9205 37.0706 42.9205 37.0591L42.201 37.0691ZM39.0203 39.5261L40.5276 39.5276L40.529 38.0886L39.021 38.0872L39.0203 39.5261ZM36.628 37.1001C36.5834 38.475 37.672 39.5765 39.0476 39.5254L38.9944 38.0872C38.4641 38.1066 38.0483 37.7001 38.0663 37.1461L36.628 37.1001ZM36.5813 33.9358L36.628 37.1339L38.067 37.113L38.0202 33.915L36.5813 33.9358ZM37.2777 33.2063C37.2691 33.2063 37.2605 33.2063 37.2525 33.207L37.2986 34.6452C37.3072 34.6452 37.3159 34.6452 37.3245 34.6445L37.2777 33.2063ZM37.254 33.207L30.2082 33.4229L30.2521 34.8611L37.2979 34.6452L37.254 33.207ZM29.5139 34.2121C29.5744 34.828 29.5715 35.369 29.5513 35.8309L30.9888 35.8928C31.0104 35.3877 31.0155 34.7747 30.9457 34.0704L29.5139 34.2121ZM29.5542 35.7935C29.5168 36.1784 29.4988 36.3597 29.4283 36.836L30.8521 37.0475C30.9277 36.5374 30.9478 36.3281 30.9867 35.9317L29.5542 35.7935ZM30.1406 36.9418C29.6638 36.8895 29.4254 36.8634 29.4254 36.8634C29.4254 36.8634 29.4254 36.8655 29.4254 36.8662C29.4254 36.8684 29.4254 36.8713 29.4247 36.8749C29.424 36.8821 29.4226 36.8929 29.4211 36.9073C29.4182 36.9353 29.4139 36.9763 29.4089 37.0281C29.3981 37.1317 29.3837 37.2792 29.3672 37.4562C29.3348 37.8087 29.2959 38.2814 29.27 38.7541L30.7068 38.8325C30.7313 38.3843 30.7687 37.9311 30.7996 37.5879C30.8155 37.4166 30.8291 37.2742 30.8399 37.1749C30.8449 37.1252 30.8493 37.0864 30.8521 37.0598C30.8536 37.0468 30.8543 37.0368 30.855 37.0303C30.855 37.0267 30.855 37.0245 30.8557 37.0231C30.8557 37.0224 30.8557 37.0216 30.8557 37.0216L30.1406 36.9432V36.9418ZM29.27 38.7512C29.2276 39.4808 29.2398 40.4967 29.478 41.8133L30.8939 41.5579C30.6788 40.3643 30.6701 39.4635 30.7068 38.8354L29.27 38.7512ZM30.314 42.3932C32.4853 42.0011 35.7762 41.5493 39.7664 41.3996L39.7124 39.9614C35.6452 40.1139 32.2868 40.5744 30.0586 40.9766L30.314 42.3932ZM39.7628 41.3996C43.7637 41.2665 46.4322 41.5291 48.8964 41.7723L49.0374 40.3406C46.5574 40.0959 43.8134 39.8254 39.7153 39.9621L39.7628 41.3996ZM48.8964 41.7723C49.6065 41.8421 50.3051 41.9112 51.0117 41.968L51.1261 40.5341C50.4346 40.4787 49.7497 40.4111 49.0374 40.3406L48.8964 41.7723ZM51.0117 41.968C55.3314 42.3025 61.7699 42.45 69.7797 41.1974L69.5574 39.7758C61.6835 41.0068 55.3608 40.8614 51.1239 40.5334L51.0117 41.968ZM70.3762 40.3593C70.3575 40.2571 70.3459 40.1348 70.3316 39.9715L68.8984 40.1017C68.912 40.2499 68.9286 40.4384 68.9602 40.6147L70.3762 40.3593ZM70.3316 39.9715C70.3179 39.8233 70.3013 39.6355 70.2697 39.4585L68.8538 39.7139C68.8725 39.8161 68.884 39.9384 68.8984 40.1017L70.3316 39.9715ZM70.2726 39.475C70.151 38.7002 69.9668 38.0325 69.8042 37.4418L68.4163 37.8231C68.5804 38.4181 68.7437 39.0139 68.8509 39.6973L70.2726 39.475ZM69.8042 37.4418C69.456 36.1756 69.2149 35.2647 69.5847 33.9948L68.2041 33.5927C67.7098 35.2899 68.0688 36.5569 68.417 37.8239L69.8042 37.4418ZM68.8703 33.0746C67.1306 33.1308 65.4269 33.1639 63.7463 33.1811L63.7606 34.6201C65.45 34.6028 67.1652 34.5697 68.9178 34.5129L68.8703 33.0746ZM64.5319 36.7425L64.4729 33.8855L63.0333 33.915L63.093 36.772L64.5319 36.7425ZM62.0332 39.3189C63.3815 39.2693 64.4873 38.1181 64.5312 36.7813L63.093 36.7346C63.0728 37.3389 62.5498 37.8605 61.98 37.8814L62.0332 39.3189ZM60.7173 39.3484L62.0224 39.3189L61.9908 37.8807L60.6856 37.9088L60.7173 39.3484ZM58.1394 36.8583C58.2027 38.2375 59.3345 39.3995 60.7274 39.3484L60.6741 37.9102C60.1489 37.9296 59.6072 37.4641 59.5762 36.7921L58.1394 36.8583ZM58.0999 33.9207L58.1387 36.8346L59.5777 36.8152L59.5388 33.9013L58.0999 33.9207ZM58.8222 33.1919C56.9012 33.1833 54.9975 33.1624 53.0916 33.1416L53.0758 34.5805C54.981 34.6014 56.889 34.6222 58.8157 34.6309L58.8222 33.1919ZM53.0916 33.1416C49.49 33.102 45.8804 33.0624 42.1449 33.1041L42.1608 34.5431C45.8782 34.5021 49.4727 34.5416 53.0758 34.5805L53.0916 33.1416ZM42.9191 37.0591L42.8716 33.8128L41.4327 33.8337L41.4801 37.0799L42.9191 37.0591ZM40.5455 39.5283C41.8341 39.4945 42.8752 38.416 42.9184 37.0929L41.4801 37.0461C41.46 37.6512 40.9923 38.0771 40.5081 38.0901L40.5455 39.5283Z" fill="#4F56B2"/>
<path d="M30.4365 43.1548L30.3135 41.7209C35.1756 41.3043 39.9515 41.0576 44.5086 40.9871C46.7699 40.9389 48.393 40.941 49.96 40.9396C51.7551 40.9396 53.4458 40.941 55.7726 40.8568C56.9993 40.8108 58.2353 40.7532 59.4944 40.695C62.7227 40.5453 66.0603 40.3906 69.8145 40.3906V41.8296C66.0941 41.8296 62.773 41.9835 59.5613 42.1317C58.2986 42.1907 57.0583 42.2476 55.8265 42.2943C53.4717 42.3785 51.7652 42.3756 49.96 42.3778C48.4016 42.3778 46.7857 42.3771 44.5359 42.4253C40.0076 42.4951 35.2656 42.7411 30.4365 43.1548Z" fill="#4F56B2"/>
<path d="M42.5808 69.6549L41.1426 69.6196C41.1426 69.6196 41.1821 67.9756 41.3174 64.0639C41.3663 62.6444 41.444 61.7256 41.5124 60.9155C41.6318 59.4974 41.711 58.5614 41.5354 56.0288C41.2563 52.0077 41.344 47.2103 41.3447 47.1621L42.7837 47.1894C42.783 47.2369 42.6959 51.9725 42.9707 55.9288C43.1542 58.5714 43.0672 59.6053 42.9463 61.0371C42.8794 61.8306 42.8031 62.73 42.7556 64.1142C42.6204 68.0116 42.5808 69.6513 42.5808 69.6549Z" fill="#4F56B2"/>
<path d="M48.9567 69.534C48.9488 69.4642 48.766 67.7842 48.9013 63.8696C48.9531 62.3731 49.038 61.4349 49.1128 60.6075C49.233 59.2844 49.3193 58.329 49.1819 55.8641C48.956 51.8264 49.2078 46.9916 49.2106 46.9434L50.6474 47.0196C50.6453 47.0671 50.3978 51.825 50.6186 55.7835C50.7618 58.3527 50.6669 59.4046 50.546 60.7363C50.4726 61.5457 50.3899 62.4623 50.3395 63.9185C50.2086 67.7051 50.3841 69.357 50.3863 69.3728L48.9567 69.534Z" fill="#4F56B2"/>
<path d="M57.0905 69.2898C57.0826 69.22 56.8998 67.5408 57.0351 63.6254C57.0869 62.1289 57.1718 61.1908 57.2466 60.3634C57.3667 59.0403 57.4531 58.0848 57.3157 55.6199C57.0897 51.5823 57.3416 46.7474 57.3444 46.6992L58.7812 46.7755C58.7791 46.823 58.5316 51.5808 58.7524 55.5393C58.8956 58.1086 58.8006 59.1604 58.6798 60.4922C58.6064 61.3016 58.5236 62.2182 58.4733 63.6744C58.3423 67.4609 58.5179 69.1121 58.52 69.1287L57.0905 69.2898Z" fill="#4F56B2"/>
<path d="M34.9593 55.2156L34.7852 53.7874C34.8585 53.7788 36.6306 53.568 40.9352 53.5558C42.6094 53.5442 43.6368 53.6047 44.5519 53.6514C45.9995 53.7263 47.0456 53.7795 49.7228 53.545C54.1777 53.1989 65.4921 53.0874 65.6058 53.0859L65.6201 54.5249C65.5065 54.5256 54.241 54.6371 49.8422 54.9789C47.0701 55.2213 45.9261 55.1623 44.4786 55.0889C43.5821 55.0429 42.5597 54.9861 40.9402 54.9947C36.7407 55.0062 34.9765 55.2134 34.96 55.2156H34.9593Z" fill="#4F56B2"/>
<path d="M34.9153 62.7312L34.7412 61.303C34.8146 61.2944 36.5866 61.0836 40.8912 61.0714C42.5568 61.0606 43.5842 61.1145 44.4907 61.1563C45.9282 61.2225 46.9657 61.2714 49.686 61.0599C54.1338 60.7138 65.4481 60.603 65.5618 60.6016L65.5755 62.0405C65.4625 62.0412 54.1971 62.152 49.7975 62.4945C46.9873 62.7125 45.8556 62.66 44.4238 62.5938C43.5338 62.552 42.5309 62.5031 40.8955 62.5103C36.6967 62.5218 34.9319 62.729 34.9153 62.7312Z" fill="#4F56B2"/>
</g>
<defs>
<clipPath id="clip0_3742_135795">
<rect width="42.14" height="46.6259" fill="white" transform="translate(29 27)"/>
</clipPath>
</defs>
</svg>
