<svg width="100" height="100" viewBox="0 0 100 100" fill="none" xmlns="http://www.w3.org/2000/svg">
<g id="Diploma">
<rect width="100" height="100" rx="12" fill="#F7F7FF"/>
<g id="Group">
<path id="Rectangle" d="M29 72.9826C29 72.2328 29.6078 71.625 30.3576 71.625H70.1224C70.8722 71.625 71.48 72.2328 71.48 72.9826C71.48 73.7324 70.8722 74.3403 70.1224 74.3403H30.3576C29.6078 74.3403 29 73.7324 29 72.9826Z" fill="#4F56B2"/>
<path id="Rectangle_2" d="M29 29.5393C29 28.7895 29.6078 28.1816 30.3576 28.1816H70.1224C70.8722 28.1816 71.48 28.7895 71.48 29.5393C71.48 30.2891 70.8722 30.8969 70.1224 30.8969H30.3576C29.6078 30.8969 29 30.2891 29 29.5393Z" fill="#4F56B2"/>
<path id="Rectangle_3" d="M34.0566 33.2672C34.0566 31.1964 35.7354 29.5176 37.8063 29.5176H62.6039C64.6748 29.5176 66.3536 31.1964 66.3536 33.2672V69.3861C66.3536 71.457 64.6748 73.1357 62.6039 73.1357H37.8063C35.7354 73.1357 34.0566 71.457 34.0566 69.3861V33.2672Z" fill="white"/>
<path id="Rectangle_4" fill-rule="evenodd" clip-rule="evenodd" d="M37.8062 28.5801H62.6038C65.1924 28.5801 67.2909 30.6786 67.2909 33.2672V69.386C67.2909 71.9746 65.1924 74.0731 62.6038 74.0731H37.8062C35.2176 74.0731 33.1191 71.9746 33.1191 69.386V33.2672C33.1191 30.6786 35.2176 28.5801 37.8062 28.5801ZM37.8062 29.5175C35.7353 29.5175 34.0566 31.1963 34.0566 33.2672V69.386C34.0566 71.4569 35.7353 73.1357 37.8062 73.1357H62.6038C64.6747 73.1357 66.3535 71.4569 66.3535 69.386V33.2672C66.3535 31.1963 64.6747 29.5175 62.6038 29.5175H37.8062Z" fill="#4F56B2"/>
<path id="Rectangle_5" d="M34.0566 67.8438H66.3536V69.4817H34.0566V67.8438Z" fill="#4F56B2"/>
<path id="Rectangle_6" d="M31.0127 29.7498C31.0127 28.1966 32.2718 26.9375 33.8249 26.9375H66.5877C68.1409 26.9375 69.4 28.1966 69.4 29.7498V30.0126C69.4 31.5657 68.1409 32.8248 66.5877 32.8248H33.8249C32.2718 32.8248 31.0127 31.5657 31.0127 30.0126V29.7498Z" fill="white"/>
<path id="Rectangle_7" fill-rule="evenodd" clip-rule="evenodd" d="M33.8239 26H66.5867C68.6575 26 70.3363 27.6788 70.3363 29.7497V30.0125C70.3363 32.0834 68.6575 33.7621 66.5867 33.7621H33.8239C31.753 33.7621 30.0742 32.0834 30.0742 30.0125V29.7497C30.0742 27.6788 31.753 26 33.8239 26ZM33.8239 26.9374C32.2707 26.9374 31.0116 28.1965 31.0116 29.7497V30.0125C31.0116 31.5656 32.2707 32.8247 33.8239 32.8247H66.5867C68.1398 32.8247 69.3989 31.5656 69.3989 30.0125V29.7497C69.3989 28.1965 68.1398 26.9374 66.5867 26.9374H33.8239Z" fill="#4F56B2"/>
<path id="Vector" fill-rule="evenodd" clip-rule="evenodd" d="M58.9336 28.4101C58.9336 28.1513 59.1434 27.9414 59.4023 27.9414H67.6242C67.8831 27.9414 68.0929 28.1513 68.0929 28.4101C68.0929 28.669 67.8831 28.8788 67.6242 28.8788H59.4023C59.1434 28.8788 58.9336 28.669 58.9336 28.4101Z" fill="#4F56B2"/>
<path id="Rectangle_8" d="M33.4469 32.8245H66.9619C67.8535 32.8245 68.6333 32.3455 69.0578 31.6309L31.376 31.672C31.8057 32.3639 32.5725 32.8245 33.4469 32.8245Z" fill="#4F56B2"/>
<path id="Rectangle_9" d="M31.0127 72.7888C31.0127 71.2357 32.2718 69.9766 33.8249 69.9766H66.5877C68.1409 69.9766 69.4 71.2357 69.4 72.7888V73.37C69.4 74.9232 68.1409 76.1823 66.5877 76.1823H33.8249C32.2718 76.1823 31.0127 74.9232 31.0127 73.37V72.7888Z" fill="white"/>
<path id="Rectangle_10" fill-rule="evenodd" clip-rule="evenodd" d="M33.8239 69.0371H66.5867C68.6575 69.0371 70.3363 70.7159 70.3363 72.7868V73.368C70.3363 75.4389 68.6575 77.1176 66.5867 77.1176H33.8239C31.753 77.1176 30.0742 75.4389 30.0742 73.368V72.7868C30.0742 70.7159 31.753 69.0371 33.8239 69.0371ZM33.8239 69.9745C32.2707 69.9745 31.0116 71.2336 31.0116 72.7868V73.368C31.0116 74.9211 32.2707 76.1802 33.8239 76.1802H66.5867C68.1398 76.1802 69.3989 74.9211 69.3989 73.368V72.7868C69.3989 71.2336 68.1398 69.9745 66.5867 69.9745H33.8239Z" fill="#4F56B2"/>
<path id="Vector_2" fill-rule="evenodd" clip-rule="evenodd" d="M32.1357 71.8535C32.1357 71.5946 32.3456 71.3848 32.6045 71.3848H44.0746C44.3334 71.3848 44.5433 71.5946 44.5433 71.8535C44.5433 72.1123 44.3334 72.3222 44.0746 72.3222H32.6045C32.3456 72.3222 32.1357 72.1123 32.1357 71.8535Z" fill="#4F56B2"/>
<path id="Vector_3" fill-rule="evenodd" clip-rule="evenodd" d="M63.957 74.1367C63.957 73.8778 64.1669 73.668 64.4257 73.668H69.3995C69.6584 73.668 69.8682 73.8778 69.8682 74.1367C69.8682 74.3955 69.6584 74.6054 69.3995 74.6054H64.4257C64.1669 74.6054 63.957 74.3955 63.957 74.1367Z" fill="#4F56B2"/>
<path id="Rectangle_11" d="M33.4469 76.2679H66.9619C67.8535 76.2679 68.6333 75.7889 69.0578 75.0742L31.376 75.1153C31.8057 75.8072 32.5725 76.2679 33.4469 76.2679Z" fill="#4F56B2"/>
<g id="Vector_4">
<path fill-rule="evenodd" clip-rule="evenodd" d="M37.7178 37.9492C37.7178 37.6903 37.9276 37.4805 38.1865 37.4805H62.497C62.7559 37.4805 62.9657 37.6903 62.9657 37.9492C62.9657 38.208 62.7559 38.4179 62.497 38.4179H38.1865C37.9276 38.4179 37.7178 38.208 37.7178 37.9492Z" fill="#4F56B2"/>
<path fill-rule="evenodd" clip-rule="evenodd" d="M37.7178 46.0188C37.7178 45.76 37.9276 45.5501 38.1865 45.5501H62.497C62.7559 45.5501 62.9657 45.76 62.9657 46.0188C62.9657 46.2777 62.7559 46.4875 62.497 46.4875H38.1865C37.9276 46.4875 37.7178 46.2777 37.7178 46.0188Z" fill="#4F56B2"/>
<path fill-rule="evenodd" clip-rule="evenodd" d="M37.7178 48.5057C37.7178 48.2468 37.9276 48.037 38.1865 48.037H62.497C62.7559 48.037 62.9657 48.2468 62.9657 48.5057C62.9657 48.7646 62.7559 48.9744 62.497 48.9744H38.1865C37.9276 48.9744 37.7178 48.7646 37.7178 48.5057Z" fill="#4F56B2"/>
<path fill-rule="evenodd" clip-rule="evenodd" d="M37.7178 50.9926C37.7178 50.7338 37.9276 50.5239 38.1865 50.5239H62.497C62.7559 50.5239 62.9657 50.7338 62.9657 50.9926C62.9657 51.2515 62.7559 51.4613 62.497 51.4613H38.1865C37.9276 51.4613 37.7178 51.2515 37.7178 50.9926Z" fill="#4F56B2"/>
<path fill-rule="evenodd" clip-rule="evenodd" d="M37.7178 53.4288C37.7178 53.1699 37.9276 52.96 38.1865 52.96H52.7525C53.0114 52.96 53.2212 53.1699 53.2212 53.4288C53.2212 53.6876 53.0114 53.8975 52.7525 53.8975H38.1865C37.9276 53.8975 37.7178 53.6876 37.7178 53.4288Z" fill="#4F56B2"/>
<path fill-rule="evenodd" clip-rule="evenodd" d="M37.7178 40.3797C37.7178 40.1209 37.9276 39.911 38.1865 39.911H51.4569C51.7158 39.911 51.9256 40.1209 51.9256 40.3797C51.9256 40.6386 51.7158 40.8485 51.4569 40.8485H38.1865C37.9276 40.8485 37.7178 40.6386 37.7178 40.3797Z" fill="#4F56B2"/>
<path fill-rule="evenodd" clip-rule="evenodd" d="M37.7178 62.6602C37.7178 62.4013 37.9276 62.1915 38.1865 62.1915H44.9606C45.2194 62.1915 45.4293 62.4013 45.4293 62.6602C45.4293 62.919 45.2194 63.1289 44.9606 63.1289H38.1865C37.9276 63.1289 37.7178 62.919 37.7178 62.6602Z" fill="#4F56B2"/>
</g>
<g id="Group_2">
<path id="Rectangle_12" fill-rule="evenodd" clip-rule="evenodd" d="M56.7033 60.1281C56.8791 59.9523 57.1175 59.8535 57.3661 59.8535H60.4977C61.0154 59.8535 61.4351 60.2732 61.4351 60.7909V65.5243C61.4351 65.8784 61.2356 66.2022 60.9194 66.3615C60.6032 66.5208 60.2242 66.4883 59.9397 66.2776L58.9319 65.5311L57.9241 66.2776C57.6396 66.4883 57.2606 66.5208 56.9444 66.3615C56.6282 66.2022 56.4287 65.8784 56.4287 65.5243V60.7909C56.4287 60.5423 56.5275 60.3039 56.7033 60.1281ZM58.9319 64.3646L60.4977 65.5243V60.7909H57.3661V65.5243L58.9319 64.3646Z" fill="#4F56B2"/>
<path id="Ellipse" d="M62.5985 59.4877C62.5985 59.9369 62.0726 60.1788 61.9212 60.5747C61.7674 60.9768 61.9859 61.5319 61.706 61.8489C61.3668 62.2333 60.7581 62.1012 60.2829 62.3113C59.8419 62.5063 59.5419 63.0574 59.0287 63.0574C58.5156 63.0574 58.2156 62.5063 57.7746 62.3113C57.2993 62.1012 56.6907 62.2333 56.3514 61.8489C56.0716 61.5319 56.29 60.9768 56.1362 60.5747C55.9848 60.1788 55.459 59.9369 55.459 59.4877C55.459 59.0385 55.9848 58.7966 56.1362 58.4007C56.2727 58.0438 56.022 57.5266 56.2591 57.2354C56.5745 56.848 56.9696 56.9709 57.4194 56.7433C57.903 56.4987 58.4498 55.918 59.0287 55.918C59.6077 55.918 60.1545 56.4987 60.638 56.7433C61.0878 56.9709 61.4829 56.848 61.7984 57.2354C62.0355 57.5266 61.7847 58.0438 61.9212 58.4007C62.0726 58.7966 62.5985 59.0385 62.5985 59.4877Z" fill="white"/>
<path id="Ellipse_2" fill-rule="evenodd" clip-rule="evenodd" d="M58.0612 56.8964C57.9307 56.9868 57.7835 57.0848 57.6319 57.1615C57.3939 57.2819 57.1464 57.3332 56.9883 57.3659C56.9536 57.3731 56.9231 57.3794 56.898 57.3854C56.7535 57.4197 56.6911 57.4505 56.6283 57.5254C56.6275 57.5317 56.6148 57.582 56.6282 57.7579C56.6295 57.7753 56.6312 57.7947 56.6329 57.8156C56.6398 57.899 56.6487 58.0063 56.6493 58.1062C56.6501 58.2363 56.6387 58.4014 56.575 58.5681C56.5112 58.7348 56.4144 58.8693 56.3287 58.973C56.2721 59.0414 56.2027 59.1162 56.1469 59.1762C56.125 59.1998 56.1053 59.221 56.0892 59.2388C55.9405 59.403 55.9286 59.4573 55.9286 59.4877C55.9286 59.518 55.9405 59.5723 56.0892 59.7366C56.1053 59.7543 56.125 59.7756 56.1469 59.7991C56.2027 59.8591 56.2721 59.9339 56.3287 60.0023C56.4144 60.106 56.5112 60.2406 56.575 60.4073C56.6386 60.5736 56.6578 60.7394 56.6645 60.8761C56.6691 60.9721 56.6679 61.0781 56.6669 61.1642C56.6666 61.1937 56.6662 61.2209 56.6662 61.2445C56.6658 61.4846 56.6944 61.5281 56.7038 61.5387C56.757 61.5991 56.8466 61.6435 57.0882 61.6828C57.1233 61.6885 57.1642 61.6942 57.2095 61.7005C57.415 61.7291 57.7108 61.7702 57.965 61.8826C58.1296 61.9554 58.2678 62.0552 58.3794 62.1451C58.4366 62.1912 58.5135 62.2578 58.5786 62.3141C58.6175 62.3478 58.6522 62.3779 58.6759 62.3976C58.8599 62.5513 58.9511 62.5887 59.0297 62.5887C59.1082 62.5887 59.1994 62.5513 59.3835 62.3976C59.4071 62.3779 59.4418 62.3478 59.4807 62.3141C59.5458 62.2578 59.6227 62.1912 59.6799 62.1451C59.7915 62.0552 59.9297 61.9554 60.0943 61.8826C60.3485 61.7702 60.6443 61.7291 60.8498 61.7005C60.8951 61.6942 60.936 61.6885 60.9712 61.6828C61.2127 61.6435 61.3023 61.5991 61.3556 61.5387C61.3649 61.5281 61.3935 61.4846 61.3931 61.2445C61.3931 61.2209 61.3928 61.1937 61.3924 61.1642C61.3914 61.0781 61.3902 60.9721 61.3948 60.8761C61.4015 60.7394 61.4207 60.5736 61.4844 60.4073C61.5481 60.2406 61.6449 60.106 61.7306 60.0023C61.7872 59.9339 61.8566 59.8591 61.9124 59.7991C61.9343 59.7756 61.954 59.7543 61.9701 59.7366C62.1188 59.5723 62.1307 59.518 62.1307 59.4877C62.1307 59.4573 62.1188 59.403 61.9701 59.2388C61.954 59.221 61.9343 59.1998 61.9124 59.1762C61.8566 59.1162 61.7872 59.0414 61.7306 58.973C61.6449 58.8693 61.5481 58.7348 61.4844 58.5681C61.4206 58.4014 61.4092 58.2363 61.41 58.1062C61.4106 58.0063 61.4195 57.8991 61.4264 57.8156C61.4282 57.7947 61.4298 57.7753 61.4311 57.7579C61.4445 57.582 61.4318 57.5317 61.431 57.5254C61.3682 57.4505 61.3058 57.4197 61.1613 57.3854C61.1362 57.3794 61.1058 57.3731 61.071 57.3659C60.9129 57.3332 60.6654 57.2819 60.4274 57.1615C60.2758 57.0848 60.1287 56.9868 59.9981 56.8964C59.9534 56.8655 59.9111 56.8358 59.87 56.8069C59.7827 56.7455 59.701 56.6882 59.6141 56.6315C59.3535 56.4615 59.172 56.3866 59.0297 56.3866C58.8873 56.3866 58.7058 56.4615 58.4453 56.6315C58.3583 56.6882 58.2767 56.7455 58.1893 56.8069C58.1482 56.8358 58.1059 56.8655 58.0612 56.8964ZM57.9332 55.8462C58.2116 55.6647 58.5931 55.4492 59.0297 55.4492C59.4662 55.4492 59.8477 55.6647 60.1261 55.8462C60.2271 55.9121 60.3308 55.9849 60.4243 56.0506C60.462 56.0771 60.4982 56.1025 60.5317 56.1257C60.6578 56.213 60.7603 56.2794 60.8506 56.325C60.9678 56.3843 61.0626 56.4045 61.2038 56.4347C61.2547 56.4455 61.3116 56.4576 61.3778 56.4733C61.6184 56.5304 61.9118 56.6312 62.1628 56.9394C62.4106 57.2439 62.3811 57.6292 62.3667 57.8178C62.3664 57.8216 62.3661 57.8253 62.3658 57.8289C62.3634 57.8606 62.3611 57.8893 62.3589 57.9158C62.3526 57.9926 62.3478 58.0512 62.3474 58.1117C62.347 58.1881 62.3554 58.2214 62.3599 58.2332C62.3719 58.2645 62.3976 58.3086 62.4531 58.3757C62.4924 58.4233 62.5293 58.4628 62.5745 58.5114C62.6011 58.5399 62.6305 58.5715 62.665 58.6096C62.8171 58.7776 63.0681 59.0688 63.0681 59.4877C63.0681 59.9065 62.8171 60.1977 62.665 60.3657C62.6305 60.4038 62.6011 60.4354 62.5745 60.4639C62.5293 60.5125 62.4924 60.552 62.4531 60.5996C62.3976 60.6667 62.3719 60.7108 62.3599 60.7421C62.3467 60.7768 62.3355 60.8312 62.3311 60.9216C62.3279 60.9877 62.3287 61.0489 62.3296 61.1234C62.33 61.1594 62.3305 61.1985 62.3305 61.2428C62.3309 61.46 62.3288 61.8526 62.0584 62.159C61.7724 62.4831 61.388 62.5648 61.1216 62.6081C61.0424 62.621 60.9724 62.6311 60.9093 62.6402C60.7226 62.6672 60.5966 62.6855 60.4733 62.74C60.4174 62.7647 60.3528 62.8068 60.268 62.8751C60.2115 62.9206 60.1715 62.9557 60.1262 62.9954C60.0873 63.0294 60.0446 63.0669 59.9842 63.1173C59.7797 63.2879 59.4643 63.5261 59.0297 63.5261C58.5951 63.5261 58.2796 63.2879 58.0752 63.1173C58.0148 63.0669 57.972 63.0294 57.9332 62.9954C57.8878 62.9557 57.8478 62.9206 57.7913 62.8751C57.7066 62.8068 57.6419 62.7647 57.586 62.74C57.4627 62.6855 57.3368 62.6672 57.15 62.6402C57.0869 62.6311 57.0169 62.621 56.9377 62.6081C56.6713 62.5648 56.287 62.4831 56.0009 62.159C55.7305 61.8526 55.7284 61.46 55.7288 61.2428C55.7289 61.1985 55.7293 61.1594 55.7298 61.1234C55.7307 61.0489 55.7314 60.9877 55.7282 60.9216C55.7238 60.8312 55.7127 60.7768 55.6994 60.7421C55.6874 60.7108 55.6617 60.6667 55.6062 60.5996C55.5669 60.552 55.53 60.5125 55.4848 60.4639C55.4582 60.4354 55.4288 60.4038 55.3943 60.3657C55.2422 60.1977 54.9912 59.9065 54.9912 59.4877C54.9912 59.0688 55.2422 58.7776 55.3943 58.6096C55.4288 58.5715 55.4582 58.5399 55.4848 58.5114C55.53 58.4628 55.5669 58.4233 55.6062 58.3757C55.6617 58.3086 55.6874 58.2645 55.6994 58.2332C55.7039 58.2214 55.7124 58.1881 55.7119 58.1117C55.7115 58.0512 55.7067 57.9926 55.7004 57.9158C55.6983 57.8893 55.6959 57.8606 55.6935 57.8289C55.6932 57.8253 55.6929 57.8216 55.6926 57.8178C55.6782 57.6292 55.6487 57.2439 55.8966 56.9394C56.1475 56.6312 56.441 56.5304 56.6816 56.4733C56.7477 56.4576 56.8046 56.4455 56.8555 56.4347C56.9967 56.4045 57.0915 56.3843 57.2088 56.325C57.299 56.2794 57.4015 56.213 57.5276 56.1257C57.5612 56.1025 57.5973 56.0771 57.635 56.0506C57.7286 55.9849 57.8323 55.9121 57.9332 55.8462Z" fill="#4F56B2"/>
<path id="Ellipse_3" fill-rule="evenodd" clip-rule="evenodd" d="M60.7918 59.4332C60.7918 60.4328 59.9893 61.259 58.9799 61.259C57.9705 61.259 57.168 60.4328 57.168 59.4332C57.168 58.4336 57.9705 57.6074 58.9799 57.6074C59.9893 57.6074 60.7918 58.4336 60.7918 59.4332ZM58.9799 60.5305C59.5782 60.5305 60.0632 60.0392 60.0632 59.4332C60.0632 58.8272 59.5782 58.336 58.9799 58.336C58.3816 58.336 57.8965 58.8272 57.8965 59.4332C57.8965 60.0392 58.3816 60.5305 58.9799 60.5305Z" fill="#4F56B2"/>
</g>
</g>
</g>
</svg>
