<svg width="499" height="649" viewBox="0 0 499 649" fill="none" xmlns="http://www.w3.org/2000/svg">
<path d="M32.2037 335.504C27.5356 335.495 23.7586 331.704 23.7676 327.036C23.7765 322.369 27.568 318.592 32.2361 318.601C36.9042 318.61 40.6812 322.401 40.6723 327.069C40.6633 331.736 36.8718 335.513 32.2037 335.504Z" fill="white"/>
<path d="M32.2537 336.371C34.0892 336.37 35.8833 335.825 37.4091 334.804C38.9349 333.784 40.1239 332.333 40.8258 330.637C41.5277 328.94 41.711 327.073 41.3524 325.273C40.9939 323.472 40.1096 321.818 38.8115 320.52C37.5133 319.222 35.8595 318.338 34.0592 317.98C32.2589 317.622 30.3929 317.806 28.6972 318.509C27.0015 319.212 25.5522 320.402 24.5325 321.928C23.5129 323.455 22.9686 325.25 22.9686 327.086C22.9726 329.548 23.9523 331.908 25.6928 333.648C27.4333 335.389 29.7927 336.368 32.2537 336.371ZM32.2537 319.468C33.7598 319.469 35.2319 319.916 36.4838 320.754C37.7357 321.591 38.7113 322.781 39.2871 324.174C39.863 325.566 40.0133 327.097 39.719 328.575C39.4247 330.053 38.6991 331.41 37.6338 332.475C36.5686 333.54 35.2115 334.265 33.7343 334.559C32.2571 334.852 30.726 334.701 29.3346 334.125C27.9432 333.548 26.754 332.571 25.9173 331.319C25.0807 330.066 24.6341 328.593 24.6341 327.086C24.6371 325.066 25.4409 323.129 26.8694 321.701C28.2978 320.273 30.2341 319.47 32.2537 319.468Z" fill="#3A3B41"/>
<path d="M55.215 400.166C54.2232 400.866 53.2163 401.552 52.2095 402.23C28.3248 367.658 13.0061 334.799 13.0061 334.799C-6.04864 324.92 2.95635 316.941 2.95635 316.941C-1.32851 306.597 7.24123 304.351 7.24123 304.351C7.88472 291.015 24.2481 299.126 24.2481 299.126C12.7714 286.679 0.749588 260.261 32.3523 284.513C50.8355 298.702 75.8822 326.245 98.4912 350.975C88.6535 370.741 73.1758 387.47 55.215 400.166Z" fill="white"/>
<path d="M52.209 403.068C52.3745 403.067 52.5364 403.019 52.6745 402.927C53.6852 402.246 54.6959 401.557 55.7027 400.849C74.7612 387.376 89.8188 370.257 99.2326 351.351C99.3083 351.2 99.3365 351.03 99.3135 350.863C99.2905 350.696 99.2174 350.54 99.1039 350.416L97.5255 348.693C75.7037 324.837 50.9674 297.76 32.8552 283.859C21.3709 275.044 14.5916 272.068 12.1312 274.772C9.06896 278.13 15.1594 289.418 21.3823 297.112C18.2292 296.056 13.4333 295.033 10.0947 297.003C7.94097 298.267 6.7146 300.547 6.44206 303.777C4.42981 304.525 2.76492 305.991 1.7673 307.893C0.567383 310.312 0.631752 313.3 1.97929 316.783C1.24615 317.604 0.695305 318.57 0.363182 319.619C0.0310593 320.668 -0.0747681 321.776 0.0526276 322.868C0.590126 327.212 4.7349 331.441 12.3697 335.444C13.8838 338.601 28.9754 370.106 51.5201 402.738C51.6001 402.844 51.7045 402.93 51.8244 402.987C51.9442 403.044 52.0762 403.072 52.209 403.068ZM97.4914 351.116C88.1722 369.575 73.3948 386.293 54.7186 399.489C53.9615 400.029 53.1919 400.561 52.4096 401.083C29.1041 367.209 13.8989 334.777 13.7475 334.44C13.6669 334.275 13.5337 334.142 13.369 334.061C6.17707 330.339 2.15719 326.386 1.69161 322.63C1.5899 321.704 1.69883 320.768 2.0102 319.891C2.32157 319.013 2.82731 318.218 3.48959 317.563C3.61884 317.449 3.7091 317.297 3.74778 317.128C3.78646 316.96 3.77161 316.784 3.70532 316.624C2.36536 313.383 2.19125 310.683 3.24354 308.601C4.56458 305.95 7.40729 305.166 7.43378 305.159C7.60366 305.114 7.75503 305.016 7.86646 304.88C7.97789 304.744 8.04368 304.577 8.05452 304.401C8.19457 301.463 9.15983 299.449 10.9199 298.415C15.4206 295.764 23.7896 299.839 23.8578 299.88C24.0321 299.967 24.2314 299.991 24.421 299.946C24.6106 299.901 24.7786 299.791 24.8956 299.635C25.0127 299.48 25.0714 299.288 25.0616 299.093C25.0518 298.898 24.9741 298.713 24.8419 298.57C17.2715 290.368 11.1584 278.286 13.3463 275.889C13.9595 275.215 17.1315 273.893 31.8256 285.185C49.8205 298.998 74.5039 326 96.284 349.821L97.4914 351.116Z" fill="#3A3B41"/>
<path d="M48.6506 338.352C49.4108 338.35 50.1654 338.222 50.8839 337.973C51.0927 337.903 51.265 337.752 51.363 337.555C51.461 337.358 51.4765 337.129 51.4062 336.92C51.336 336.712 51.1856 336.539 50.9883 336.441C50.791 336.343 50.5628 336.328 50.3539 336.398C47.4848 337.367 44.4944 335.641 42.7835 333.857C41.0726 332.074 40.0355 330.021 38.8621 327.799C38.5668 327.238 38.2754 326.663 37.9725 326.133C36.5909 323.599 34.5961 320.494 31.4431 318.938C29.929 318.204 28.3316 317.886 26.7721 317.575C26.0832 317.443 25.3754 317.302 24.6978 317.128C22.9529 316.681 20.6969 315.746 19.8679 313.819C18.8118 311.365 20.7726 308.328 23.233 307.253C25.9129 306.083 29.0698 306.439 32.0866 307.003C40.4443 308.563 47.6059 311.282 53.3784 315.087C53.5631 315.209 53.7885 315.252 54.005 315.207C54.2215 315.162 54.4114 315.034 54.5328 314.849C54.6543 314.664 54.6974 314.438 54.6527 314.222C54.608 314.005 54.4791 313.815 54.2944 313.694C48.3402 309.767 40.9704 306.965 32.3894 305.363C29.1152 304.754 25.6593 304.375 22.5478 305.742C19.3645 307.136 16.8473 311.07 18.3197 314.493C19.4174 317.041 22.158 318.219 24.2701 318.756C24.9893 318.942 25.7198 319.086 26.4277 319.226C27.9417 319.525 29.3915 319.809 30.6898 320.449C33.4227 321.793 35.232 324.614 36.4963 326.939C36.7915 327.481 37.0792 328.03 37.3669 328.579C38.5403 330.82 39.7554 333.123 41.5609 335.016C43.2037 336.708 45.8344 338.352 48.6506 338.352Z" fill="#3A3B41"/>
<path d="M26.956 325.281C27.5093 325.282 28.0603 325.211 28.595 325.069C30.6806 324.504 32.5543 322.361 32.0016 320.066C31.9811 319.956 31.9384 319.85 31.876 319.756C31.8136 319.663 31.7328 319.583 31.6386 319.521C31.5443 319.459 31.4385 319.417 31.3276 319.398C31.2167 319.378 31.103 319.381 30.9934 319.407C30.8837 319.433 30.7804 319.48 30.6897 319.547C30.5989 319.614 30.5227 319.698 30.4655 319.795C30.4083 319.892 30.3714 320 30.3569 320.112C30.3425 320.223 30.3509 320.337 30.3816 320.445C30.6844 321.74 29.4542 323.096 28.1483 323.474C26.8424 323.853 25.3813 323.592 23.4206 322.766C19.9968 321.294 16.9726 319.028 14.5983 316.154C12.2241 313.281 10.5681 309.883 9.76734 306.242C9.72166 306.025 9.59193 305.836 9.40666 305.715C9.22138 305.595 8.99575 305.552 8.77941 305.598C8.56307 305.644 8.37375 305.774 8.25307 305.959C8.1324 306.144 8.09027 306.37 8.13594 306.586C8.99912 310.488 10.7786 314.129 13.3272 317.206C15.8758 320.284 19.1203 322.71 22.7923 324.285C24.1014 324.887 25.5162 325.225 26.956 325.281Z" fill="#3A3B41"/>
<path d="M18.7347 328.045C19.4032 328.052 20.0687 327.953 20.7067 327.753C22.5577 327.166 23.8901 325.565 23.9507 323.861C23.9544 323.751 23.9366 323.642 23.8982 323.54C23.8597 323.437 23.8015 323.343 23.7268 323.263C23.6521 323.183 23.5625 323.119 23.4628 323.074C23.3632 323.028 23.2557 323.003 23.1463 322.999C23.037 322.996 22.9279 323.013 22.8255 323.052C22.723 323.09 22.6291 323.149 22.5492 323.223C22.4692 323.298 22.4047 323.388 22.3594 323.487C22.3141 323.587 22.2889 323.695 22.2852 323.804C22.2473 324.94 21.2064 325.849 20.1995 326.167C19.1927 326.485 17.9511 326.447 16.3424 326.023C11.8022 324.811 7.91074 321.881 5.49022 317.851C5.43678 317.752 5.3638 317.665 5.27573 317.595C5.18767 317.525 5.08635 317.474 4.97784 317.444C4.86933 317.414 4.7559 317.406 4.64442 317.422C4.53293 317.437 4.42571 317.475 4.3292 317.533C4.23269 317.59 4.14887 317.667 4.08287 317.758C4.01688 317.85 3.97004 317.953 3.94518 318.063C3.92032 318.173 3.91797 318.287 3.93825 318.397C3.95853 318.508 4.00104 318.613 4.06319 318.707C6.70712 323.109 10.9585 326.309 15.9184 327.632C16.8355 327.891 17.7821 328.029 18.7347 328.045Z" fill="#3A3B41"/>
<path d="M13.328 333.281C14.0775 333.293 14.8187 333.123 15.4887 332.787C16.1586 332.45 16.7374 331.957 17.1759 331.349C17.6144 330.741 17.8997 330.036 18.0074 329.294C18.1151 328.552 18.0421 327.794 17.7945 327.087C17.7152 326.887 17.5617 326.726 17.3664 326.637C17.171 326.548 16.9488 326.537 16.7461 326.608C16.5434 326.679 16.3759 326.825 16.2785 327.017C16.1812 327.208 16.1615 327.43 16.2237 327.636C16.4055 328.16 16.439 328.724 16.3206 329.265C16.2023 329.807 15.9365 330.306 15.5528 330.706C15.1691 331.107 14.6823 331.393 14.146 331.534C13.6098 331.675 13.0451 331.665 12.5141 331.506C12.4095 331.474 12.2996 331.463 12.1908 331.473C12.0819 331.484 11.9763 331.516 11.8798 331.568C11.7833 331.619 11.6979 331.689 11.6285 331.774C11.559 331.858 11.5069 331.956 11.4751 332.06C11.4433 332.165 11.4324 332.275 11.443 332.384C11.4537 332.493 11.4857 332.598 11.5372 332.695C11.5887 332.791 11.6586 332.877 11.7431 332.946C11.8276 333.016 11.925 333.068 12.0296 333.1C12.4512 333.223 12.8886 333.284 13.328 333.281Z" fill="#3A3B41"/>
<path d="M374.229 602.975C352.37 603.917 305.717 610.998 271.692 610.415C250.014 610.036 235.876 604.243 233.083 582.751C228.384 547.512 219.967 512.87 207.975 479.404C185.927 484.599 134.467 486.599 99.6012 458.128C76.9846 439.668 51.1694 410.001 32.7544 371.628C50.9612 368.262 68.3922 356.315 85.1038 336.345C85.1038 336.345 119.492 370.166 140.251 388.557C144.07 391.94 148.536 394.511 153.378 396.116C158.22 397.721 163.337 398.327 168.42 397.895C193.474 395.786 240.384 391.867 249.707 391.303C274.69 389.788 318.647 388.607 357.328 395.12C363.906 396.231 370.112 398.936 375.404 402.999C380.696 407.063 384.912 412.36 387.686 418.43C398.008 440.994 415.393 479.847 427.165 510.643C435.058 531.299 430.084 550.97 400.362 566.306C400.362 566.306 388.677 572.065 387.341 590.161C386.406 602.918 386.974 602.426 374.229 602.975Z" fill="#F7F7FF"/>
<path d="M275.721 611.282C296.778 611.282 322.113 608.685 342.719 606.575C355.426 605.273 366.403 604.148 374.269 603.807L375.579 603.754C386.912 603.281 387.264 602.944 388.07 591.732L388.176 590.263C389.463 572.879 400.625 567.123 400.739 567.07C427.833 553.06 436.986 533.991 427.947 510.348C415.978 479.033 398.044 439.1 388.448 418.081C385.618 411.884 381.312 406.475 375.908 402.329C370.503 398.182 364.165 395.425 357.448 394.298C318.112 387.675 273.018 389.057 249.637 390.473C240.439 391.03 194.752 394.843 168.331 397.066C163.361 397.478 158.359 396.881 153.625 395.312C148.892 393.744 144.523 391.235 140.782 387.936C120.281 369.761 86.014 336.087 85.6696 335.75C85.5877 335.669 85.4901 335.606 85.3828 335.565C85.2754 335.524 85.1607 335.505 85.0458 335.511C84.931 335.516 84.8185 335.545 84.7154 335.596C84.6123 335.647 84.5209 335.719 84.4469 335.807C67.7617 355.754 50.3119 367.531 32.5896 370.81C32.4637 370.833 32.3449 370.884 32.2424 370.961C32.1398 371.037 32.0563 371.136 31.9984 371.25C31.9405 371.364 31.9097 371.49 31.9085 371.618C31.9073 371.746 31.9358 371.872 31.9915 371.987C53.9874 417.805 83.4703 446.033 99.0616 458.771C114.365 471.267 134.911 479.366 158.489 482.214C182.715 485.137 201.304 481.759 207.436 480.381C219.259 513.58 227.576 547.925 232.252 582.856C233.63 593.383 237.755 600.695 244.872 605.197C251.042 609.112 259.562 611.032 271.69 611.256C273.007 611.273 274.351 611.282 275.721 611.282ZM288.25 390.962C309.572 390.962 334.35 392.098 357.167 395.941C363.617 397.022 369.702 399.669 374.891 403.65C380.08 407.631 384.214 412.824 386.93 418.774C396.537 439.774 414.438 479.673 426.387 510.942C435.196 533.983 426.558 551.837 399.982 565.582C399.501 565.821 387.869 571.758 386.514 590.138L386.404 591.611C386.026 596.787 385.844 599.389 384.614 600.574C383.384 601.759 380.745 601.869 375.507 602.088L374.193 602.145C366.278 602.486 355.267 603.611 342.545 604.917C320.648 607.162 293.387 609.957 271.705 609.582C247.294 609.165 236.336 601.358 233.887 582.641C229.163 547.347 220.735 512.65 208.742 479.124C208.671 478.932 208.533 478.772 208.354 478.674C208.174 478.577 207.965 478.548 207.765 478.594C182.253 484.603 132.523 483.944 100.106 457.48C84.7157 444.92 55.7588 417.206 33.956 372.237C51.4967 368.663 68.708 357.008 85.1396 337.568C89.9582 342.293 120.698 372.362 139.677 389.182C143.586 392.63 148.151 395.252 153.099 396.892C158.046 398.532 163.273 399.155 168.467 398.724C194.877 396.501 240.556 392.688 249.736 392.136C259.464 391.545 272.973 390.962 288.25 390.962Z" fill="#3A3B41"/>
<path d="M241.399 427.649L243.56 400.144L308.507 386.164L426.56 648.655L312.14 648.47L241.399 427.649Z" fill="#F7F7FF"/>
<path d="M320.591 386.156C371.067 386.156 417.178 397.77 443.039 444.469C461.208 477.268 482.261 517.727 498.151 549.5V648.185H411.092L303.951 387.11C305.011 386.819 319.508 386.156 320.591 386.156Z" fill="#F7F7FF"/>
<path d="M411.1 649C411.234 648.998 411.366 648.963 411.484 648.899C411.602 648.834 411.702 648.742 411.777 648.631C411.851 648.519 411.898 648.391 411.912 648.257C411.926 648.124 411.907 647.989 411.857 647.864L305.133 387.8C308.566 387.508 319.426 387.009 320.581 387.009C381.753 387.009 420.431 405.4 442.302 444.886C458.975 474.993 479.582 514.263 497.418 549.932C497.468 550.03 497.536 550.118 497.62 550.189C497.703 550.26 497.8 550.315 497.904 550.349C498.009 550.383 498.119 550.396 498.228 550.388C498.338 550.379 498.444 550.349 498.542 550.3C498.64 550.25 498.727 550.181 498.799 550.098C498.87 550.015 498.925 549.918 498.959 549.813C498.993 549.709 499.006 549.599 498.998 549.489C498.989 549.38 498.959 549.273 498.909 549.175C481.058 513.487 460.444 474.201 443.759 444.068C431.521 421.973 414.378 406.581 391.353 397.039C372.362 389.159 349.212 385.331 320.569 385.331C319.744 385.331 304.929 385.971 303.725 386.289C303.61 386.318 303.503 386.372 303.411 386.447C303.319 386.521 303.244 386.615 303.191 386.721C303.139 386.827 303.109 386.944 303.104 387.062C303.1 387.181 303.12 387.3 303.165 387.41L410.328 648.485C410.391 648.638 410.498 648.768 410.636 648.86C410.773 648.952 410.935 649 411.1 649Z" fill="#3A3B41"/>
<path d="M283.884 558.195L256.119 566.018C255.597 554.406 255.257 542.501 255.101 530.304C254.802 505.365 255.37 481.491 256.592 458.772C253.42 453.723 250.251 448.674 247.084 443.626L263.152 418.778L283.906 438.597L273.081 459.544C275.01 492.59 278.616 525.516 283.884 558.195Z" fill="#4F56B2"/>
<path d="M451.079 497.679L477.114 564.174C487.47 590.623 468.117 619.25 439.743 619.458C398.363 619.742 346.895 620.049 307.798 620.007C303.634 592.365 291.34 565.738 283.909 551.292C340.964 550.467 395.266 548.71 395.266 548.71L363.092 469.874L451.079 497.679Z" fill="#F7F7FF"/>
<path d="M315.072 620.832C354.692 620.832 404.729 620.522 439.75 620.279C446.451 620.23 453.04 618.549 458.948 615.383C464.855 612.218 469.904 607.661 473.658 602.108C477.412 596.554 479.759 590.17 480.496 583.507C481.234 576.843 480.339 570.1 477.889 563.86L451.851 497.364C451.816 497.256 451.759 497.156 451.684 497.071C451.61 496.985 451.518 496.916 451.415 496.867C451.313 496.818 451.201 496.791 451.088 496.787C450.974 496.783 450.861 496.803 450.755 496.844C450.649 496.885 450.553 496.948 450.472 497.028C450.391 497.108 450.328 497.204 450.286 497.309C450.243 497.415 450.223 497.528 450.226 497.641C450.229 497.755 450.255 497.867 450.303 497.97L476.341 564.469C478.692 570.458 479.55 576.93 478.842 583.325C478.135 589.72 475.882 595.846 472.28 601.176C468.677 606.506 463.832 610.879 458.162 613.917C452.493 616.956 446.17 618.569 439.738 618.617C402.761 618.871 349.03 619.204 308.513 619.17C304.584 593.872 293.853 568.975 285.26 552.099C341.187 551.273 394.751 549.55 395.292 549.535C395.426 549.53 395.557 549.493 395.673 549.427C395.79 549.361 395.889 549.269 395.962 549.157C396.035 549.046 396.079 548.919 396.092 548.787C396.104 548.655 396.084 548.522 396.034 548.399L363.86 469.563C363.822 469.457 363.763 469.36 363.687 469.277C363.611 469.195 363.518 469.128 363.416 469.082C363.313 469.036 363.202 469.012 363.089 469.01C362.977 469.008 362.865 469.029 362.761 469.071C362.657 469.114 362.562 469.177 362.483 469.257C362.404 469.337 362.342 469.433 362.301 469.537C362.259 469.642 362.24 469.754 362.243 469.866C362.246 469.979 362.272 470.09 362.319 470.192L394.028 547.918C385.723 548.18 335.641 549.717 283.879 550.463C283.737 550.465 283.598 550.504 283.475 550.575C283.352 550.645 283.25 550.747 283.177 550.868C283.104 550.99 283.064 551.128 283.059 551.27C283.055 551.412 283.087 551.552 283.152 551.678C291.858 568.604 303.066 594.22 306.961 620.135C306.99 620.332 307.089 620.512 307.24 620.642C307.39 620.773 307.583 620.844 307.782 620.844L315.072 620.832Z" fill="#3A3B41"/>
<path d="M414.969 550.825C415.18 550.816 415.38 550.726 415.527 550.574C415.675 550.422 415.759 550.22 415.763 550.009C415.766 549.797 415.69 549.592 415.548 549.435C415.406 549.278 415.21 549.181 414.999 549.163L400.994 548.618C400.881 548.607 400.767 548.62 400.66 548.655C400.552 548.689 400.452 548.746 400.367 548.82C400.282 548.895 400.213 548.986 400.164 549.089C400.115 549.191 400.088 549.302 400.084 549.415C400.079 549.528 400.098 549.641 400.139 549.747C400.179 549.853 400.241 549.949 400.32 550.03C400.4 550.111 400.494 550.175 400.599 550.218C400.704 550.261 400.816 550.282 400.929 550.28L414.935 550.825H414.969Z" fill="#3A3B41"/>
<path d="M315 619.9C315 619.9 320 599.5 316.5 585C312.517 568.5 299.868 551.25 299.868 551.25H285.246C278.259 551.25 271.342 552.639 264.896 555.335C258.449 558.031 252.603 561.981 247.695 566.956C242.787 571.931 238.916 577.831 236.306 584.314C233.696 590.798 232.399 597.735 232.491 604.724L233.593 619.9H315Z" fill="white"/>
<path d="M314.021 620.832C314.242 620.832 314.453 620.744 314.61 620.588C314.766 620.432 314.854 620.22 314.854 619.999C314.854 619.778 314.766 619.566 314.61 619.41C314.453 619.253 314.242 619.166 314.021 619.166L234.376 619.067L233.331 604.678C233.25 597.805 234.533 590.984 237.106 584.61C239.679 578.236 243.491 572.437 248.321 567.547C253.151 562.658 258.902 558.776 265.242 556.126C271.583 553.476 278.386 552.111 285.257 552.11L301.628 551.841C301.849 551.841 302.061 551.753 302.217 551.597C302.373 551.441 302.461 551.229 302.461 551.008C302.461 550.787 302.373 550.575 302.217 550.419C302.061 550.263 301.849 550.175 301.628 550.175L285.272 550.444C278.177 550.446 271.154 551.858 264.608 554.596C258.063 557.335 252.126 561.346 247.143 566.397C242.159 571.449 238.227 577.44 235.576 584.023C232.924 590.606 231.606 597.65 231.696 604.747L232.802 619.972C232.82 620.179 232.915 620.372 233.068 620.513C233.222 620.653 233.423 620.73 233.631 620.73L314.021 620.832Z" fill="#3A3B41"/>
<path d="M272.031 613.142C272.071 613.146 272.112 613.146 272.152 613.142C272.37 613.11 272.567 612.993 272.699 612.816C272.831 612.64 272.888 612.418 272.856 612.199C272.304 608.413 273.193 604.21 275.358 600.351C277.183 597.106 279.901 594.039 283.621 590.983C284.307 590.378 285.071 589.869 285.892 589.469C285.993 589.425 286.083 589.361 286.159 589.282C286.235 589.203 286.294 589.11 286.334 589.008C286.374 588.906 286.393 588.797 286.39 588.688C286.388 588.579 286.364 588.471 286.32 588.37C286.277 588.27 286.214 588.179 286.136 588.103C286.057 588.027 285.964 587.968 285.863 587.928C285.761 587.888 285.652 587.869 285.543 587.871C285.434 587.874 285.326 587.898 285.226 587.943C284.256 588.403 283.356 588.997 282.55 589.707C278.651 592.899 275.82 596.118 273.893 599.552C271.547 603.717 270.589 608.31 271.195 612.453C271.229 612.649 271.332 612.826 271.485 612.952C271.639 613.079 271.832 613.146 272.031 613.142Z" fill="#3A3B41"/>
<path d="M254.763 612.15C254.963 612.15 255.157 612.078 255.309 611.946C255.461 611.815 255.56 611.633 255.588 611.434C256.231 606.89 257.162 601.555 259.142 596.587C261.19 591.464 264.188 587.284 267.814 584.497C267.989 584.362 268.104 584.164 268.133 583.944C268.161 583.725 268.102 583.504 267.967 583.329C267.833 583.153 267.634 583.039 267.415 583.01C267.196 582.981 266.975 583.041 266.8 583.175C262.935 586.144 259.752 590.567 257.598 595.97C255.55 601.101 254.596 606.55 253.937 611.2C253.907 611.418 253.965 611.64 254.097 611.817C254.23 611.993 254.427 612.111 254.645 612.142L254.763 612.15Z" fill="#3A3B41"/>
<path d="M240.929 612.149H241.027C241.247 612.122 241.447 612.01 241.584 611.836C241.721 611.662 241.783 611.441 241.758 611.221C239.445 591.845 252.118 579.793 252.247 579.679C252.408 579.529 252.503 579.32 252.511 579.099C252.519 578.878 252.439 578.663 252.288 578.502C252.138 578.34 251.929 578.245 251.708 578.237C251.487 578.229 251.273 578.309 251.111 578.46C250.979 578.585 237.692 591.209 240.104 611.403C240.124 611.607 240.22 611.797 240.373 611.935C240.525 612.073 240.723 612.149 240.929 612.149Z" fill="#3A3B41"/>
<path d="M316.02 616.417C316.211 616.416 316.396 616.35 316.544 616.23C316.692 616.109 316.795 615.941 316.834 615.754C319.033 605.201 318.92 594.297 316.502 583.792C314.084 573.288 309.419 563.432 302.828 554.904C302.693 554.729 302.494 554.614 302.275 554.586C302.056 554.558 301.834 554.618 301.659 554.753C301.484 554.888 301.369 555.087 301.341 555.306C301.313 555.526 301.372 555.747 301.507 555.923C307.951 564.26 312.512 573.896 314.875 584.166C317.239 594.436 317.349 605.096 315.199 615.413C315.176 615.52 315.175 615.631 315.195 615.739C315.215 615.846 315.257 615.949 315.317 616.04C315.377 616.132 315.455 616.211 315.546 616.272C315.636 616.333 315.738 616.376 315.846 616.398C315.903 616.41 315.961 616.416 316.02 616.417Z" fill="#3A3B41"/>
<path d="M86.0047 632.233H302.257C303.542 632.254 304.804 631.886 305.876 631.177C307.037 630.392 307.9 629.24 308.326 627.905C308.752 626.571 308.717 625.132 308.227 623.819C305.679 618.473 300.406 616.591 292.616 616.591H71.8329L74.6982 624.38C75.5634 626.682 77.1084 628.666 79.1279 630.069C81.1475 631.472 83.546 632.227 86.0047 632.233Z" fill="#3A3B41"/>
<path d="M84.7948 632.233C82.6818 632.233 80.6175 631.599 78.8685 630.413C77.1196 629.227 75.7663 627.544 74.9835 625.58L36.7037 529.512C36.2034 528.256 36.0182 526.897 36.1644 525.553C36.3106 524.21 36.7836 522.922 37.5421 521.804C38.3006 520.685 39.3215 519.77 40.5155 519.137C41.7095 518.504 43.0403 518.174 44.3914 518.175H177.286C181.194 518.174 185.006 519.384 188.197 521.639C191.388 523.895 193.802 527.084 195.107 530.769L231.04 632.248L84.7948 632.233Z" fill="#3A3B41"/>
<path d="M81.6881 618.366H213.444C213.664 618.366 213.876 618.279 214.032 618.122C214.189 617.966 214.276 617.754 214.276 617.533C214.276 617.312 214.189 617.1 214.032 616.944C213.876 616.788 213.664 616.7 213.444 616.7H81.6881C81.4672 616.7 81.2554 616.788 81.0992 616.944C80.9431 617.1 80.8554 617.312 80.8554 617.533C80.8554 617.754 80.9431 617.966 81.0992 618.122C81.2554 618.279 81.4672 618.366 81.6881 618.366Z" fill="white"/>
<path d="M245.997 455.019L263.871 426.578L282.017 457.506L322.121 405.532L303.96 387.092L254.366 390.928L239.248 410.546L245.997 455.019Z" fill="#F7F7FF"/>
<path d="M282.016 458.34C282.143 458.34 282.269 458.311 282.383 458.255C282.497 458.199 282.597 458.118 282.675 458.018L322.779 406.044C322.902 405.884 322.963 405.685 322.951 405.484C322.938 405.282 322.853 405.093 322.711 404.949L304.542 386.509C304.458 386.422 304.356 386.354 304.242 386.312C304.129 386.269 304.008 386.252 303.887 386.263L254.301 390.098C254.185 390.108 254.072 390.141 253.97 390.197C253.868 390.252 253.778 390.328 253.707 390.42L238.566 410.038C238.498 410.128 238.449 410.23 238.421 410.338C238.393 410.447 238.387 410.56 238.403 410.671L245.156 455.144C245.185 455.308 245.262 455.46 245.377 455.58C245.493 455.7 245.642 455.782 245.805 455.816C245.968 455.85 246.138 455.835 246.292 455.772C246.446 455.709 246.578 455.601 246.67 455.462L250.796 448.9C250.913 448.712 250.952 448.486 250.902 448.271C250.853 448.055 250.72 447.868 250.533 447.751C250.346 447.633 250.119 447.595 249.904 447.644C249.689 447.693 249.502 447.826 249.384 448.014L246.454 452.679L240.122 410.769L254.797 391.727L303.626 387.94L321.004 405.585L282.1 456.007L278.534 449.949C278.423 449.758 278.24 449.619 278.026 449.563C277.813 449.507 277.585 449.538 277.395 449.65C277.204 449.761 277.065 449.944 277.009 450.157C276.953 450.371 276.984 450.598 277.096 450.789L281.286 457.935C281.355 458.052 281.452 458.15 281.568 458.222C281.684 458.293 281.816 458.335 281.952 458.343L282.016 458.34Z" fill="#3A3B41"/>
<path d="M243.251 374.948L263.15 418.778L296.555 387.671L277.723 347.674C277.723 347.674 254.035 358.227 243.251 374.948Z" fill="white"/>
<path d="M263.152 419.611C263.363 419.611 263.565 419.531 263.72 419.387L297.12 388.277C297.25 388.157 297.337 387.998 297.371 387.825C297.404 387.651 297.381 387.471 297.306 387.312L278.475 347.318C278.382 347.12 278.216 346.966 278.011 346.89C277.807 346.813 277.58 346.82 277.381 346.909C277.142 347.019 253.345 357.761 242.557 374.494C242.481 374.612 242.436 374.747 242.426 374.886C242.415 375.025 242.439 375.165 242.496 375.293L262.395 419.122C262.45 419.242 262.532 419.348 262.636 419.43C262.739 419.512 262.86 419.569 262.989 419.596C263.043 419.605 263.097 419.61 263.152 419.611ZM295.538 387.471L263.432 417.384L244.196 375.024C253.757 360.552 273.285 350.707 277.32 348.78L295.538 387.471Z" fill="#3A3B41"/>
<path d="M297.938 331.252C301.375 325.485 304.46 319.135 304.252 312.417C304.044 305.7 299.516 298.706 292.866 297.82C294.694 290.092 291.609 281.417 285.295 276.585C278.982 271.754 269.821 271.023 262.834 274.798C255.192 266.028 241.546 263.609 230.898 268.281C220.25 272.954 212.953 283.927 211.654 295.488C211.098 300.452 211.597 305.689 214.065 310.036C217.521 316.117 224.399 319.627 231.311 320.714C235.247 321.331 239.722 321.471 242.394 324.432C244.056 326.269 244.623 328.806 245.422 331.149C246.848 335.298 249.112 339.11 252.073 342.346C255.034 345.583 258.629 348.176 262.633 349.965C269.155 352.831 280.424 354.535 286.859 350.4C289.357 348.799 289.823 345.747 291.041 343.176C293.017 339.033 295.587 335.201 297.938 331.252Z" fill="#4F56B2"/>
<path d="M221.136 335.814C217.964 346.795 216.843 359.291 222.831 368.999C228.044 377.459 238.502 382.347 248.336 380.923C258.17 379.5 266.812 371.836 269.412 362.252C278.728 362.161 287.611 355.527 290.352 346.621C291.382 343.274 291.329 339.048 288.509 336.958C285.287 334.58 280.813 336.465 277.123 338.018C273.432 339.57 270.658 342.331 268.697 338.836C270.09 330.009 276.861 314.981 263.897 310.626C259.071 308.994 232.075 304.355 232.075 304.355C232.075 304.355 222.843 329.907 221.136 335.814Z" fill="white"/>
<path d="M244.93 381.991C246.108 381.992 247.284 381.907 248.45 381.738C258.379 380.303 267.168 372.65 270.026 363.059C279.519 362.68 288.327 355.955 291.128 346.856C292.219 343.312 292.23 338.669 288.986 336.276C285.382 333.626 280.617 335.625 276.786 337.238C275.923 337.617 275.136 338.014 274.375 338.412C271.604 339.862 270.541 340.233 269.553 338.662C269.806 337.147 270.219 335.409 270.654 333.595C272.672 325.17 275.435 313.633 264.144 309.824C259.314 308.195 233.302 303.712 232.196 303.523C232.004 303.491 231.807 303.528 231.638 303.626C231.47 303.724 231.341 303.878 231.273 304.06C230.894 305.105 222.014 329.703 220.319 335.572C216.272 349.548 216.874 360.942 222.101 369.424C226.871 377.148 235.898 381.991 244.93 381.991ZM284.83 336.659C285.968 336.625 287.086 336.966 288.013 337.628C290.557 339.521 290.432 343.516 289.554 346.375C286.904 355.005 278.421 361.328 269.401 361.419C269.22 361.422 269.044 361.483 268.901 361.595C268.757 361.706 268.654 361.861 268.606 362.036C266.093 371.298 257.709 378.727 248.212 380.102C238.715 381.476 228.57 376.728 223.536 368.56C218.562 360.495 218.025 349.552 221.931 336.045C223.445 330.744 231.163 309.335 232.617 305.295C236.856 306.052 259.344 309.967 263.629 311.414C273.47 314.738 271.124 324.557 269.053 333.217C268.58 335.186 268.133 337.041 267.872 338.707C267.843 338.893 267.878 339.082 267.97 339.245C269.886 342.653 272.687 341.195 275.162 339.9C275.893 339.521 276.65 339.143 277.434 338.787C279.864 337.768 282.498 336.659 284.83 336.659Z" fill="#3A3B41"/>
<path d="M273.076 351.226C273.196 351.226 273.314 351.201 273.423 351.152C273.532 351.103 273.629 351.031 273.708 350.942C274.724 349.789 275.994 348.888 277.418 348.31C278.841 347.733 280.379 347.494 281.911 347.613C282.021 347.626 282.132 347.616 282.237 347.584C282.343 347.552 282.441 347.5 282.526 347.429C282.61 347.358 282.68 347.271 282.729 347.172C282.779 347.074 282.809 346.966 282.816 346.856C282.833 346.636 282.764 346.418 282.622 346.25C282.481 346.081 282.278 345.975 282.059 345.955C280.265 345.813 278.462 346.092 276.794 346.767C275.126 347.443 273.638 348.497 272.448 349.847C272.304 350.015 272.233 350.233 272.248 350.453C272.264 350.674 272.365 350.879 272.531 351.025C272.683 351.155 272.876 351.226 273.076 351.226Z" fill="#3A3B41"/>
<path d="M231.637 334.156C230.611 339.347 226.224 342.865 221.841 341.99C217.457 341.115 214.736 336.212 215.762 331.009C216.787 325.806 221.171 322.3 225.554 323.175C229.937 324.049 232.659 328.98 231.637 334.156Z" fill="white"/>
<path d="M223.173 342.956C227.465 342.956 231.455 339.37 232.45 334.319C233.563 328.681 230.558 323.338 225.716 322.369C224.514 322.146 223.277 322.193 222.095 322.506C220.913 322.819 219.815 323.39 218.88 324.179C216.822 325.872 215.428 328.237 214.944 330.858C213.831 336.493 216.836 341.839 221.681 342.809C222.172 342.907 222.672 342.956 223.173 342.956ZM224.21 323.887C224.607 323.887 225.004 323.925 225.395 324.001C229.32 324.777 231.754 329.26 230.819 333.994C229.884 338.727 225.936 341.945 222.003 341.188C218.07 340.431 215.644 335.932 216.579 331.195C216.99 328.969 218.172 326.958 219.917 325.515C221.119 324.496 222.635 323.922 224.21 323.887Z" fill="#3A3B41"/>
<path d="M248.037 347.84C252.625 347.84 256.804 344.33 257.791 339.324C258.904 333.69 255.554 328.264 250.327 327.23C245.1 326.196 239.94 329.941 238.828 335.561C238.28 338.219 238.755 340.986 240.16 343.308C240.821 344.421 241.709 345.383 242.765 346.132C243.821 346.881 245.023 347.4 246.292 347.655C246.866 347.774 247.451 347.837 248.037 347.84ZM248.578 328.726C249.057 328.726 249.535 328.773 250.005 328.866C254.332 329.737 257.095 334.281 256.156 339.003C255.218 343.724 250.944 346.89 246.614 346.038C245.571 345.826 244.584 345.397 243.716 344.779C242.849 344.161 242.121 343.369 241.579 342.452C240.389 340.49 239.984 338.15 240.444 335.901C241.292 331.687 244.774 328.726 248.578 328.726Z" fill="#3A3B41"/>
<path d="M239.645 336.573C239.796 336.572 239.944 336.53 240.073 336.451C240.26 336.337 240.394 336.154 240.447 335.941C240.5 335.729 240.468 335.504 240.357 335.315C239.1 333.237 237.579 332.067 235.815 331.839C233.192 331.502 231.121 333.483 231.034 333.566C230.875 333.72 230.784 333.931 230.781 334.152C230.778 334.373 230.863 334.587 231.017 334.745C231.171 334.904 231.382 334.995 231.603 334.998C231.824 335.001 232.037 334.917 232.196 334.763C232.23 334.732 233.797 333.248 235.603 333.494C236.814 333.657 237.923 334.558 238.9 336.179C238.978 336.305 239.088 336.408 239.219 336.477C239.35 336.546 239.497 336.579 239.645 336.573Z" fill="#3A3B41"/>
<path d="M256.974 339.995H257.065L273.152 338.249C273.364 338.216 273.555 338.103 273.685 337.933C273.816 337.763 273.876 337.55 273.853 337.337C273.83 337.124 273.726 336.928 273.562 336.79C273.399 336.651 273.188 336.581 272.974 336.594L256.883 338.34C256.676 338.368 256.486 338.473 256.352 338.634C256.219 338.796 256.151 339.002 256.162 339.211C256.174 339.421 256.264 339.618 256.414 339.764C256.565 339.91 256.765 339.993 256.974 339.998V339.995Z" fill="#3A3B41"/>
<path d="M322.334 198.174L315.269 198.627L310.915 193.079L309.156 199.909L302.504 202.332L308.475 206.125L308.727 213.174L314.184 208.673L320.99 210.603L318.39 204.046L322.334 198.174Z" stroke="#252B4A" stroke-linecap="round" stroke-linejoin="round"/>
<path d="M154.966 135.041C154.864 135.08 154.754 135.091 154.646 135.073L150.403 134.468C129.848 131.487 118.852 116.557 108.673 95.0535C108.604 94.9058 108.592 94.7374 108.642 94.5818C108.691 94.4263 108.797 94.295 108.938 94.2141L110.17 93.5176C121.226 88.4661 126.558 84.462 131.086 72.6731C131.116 72.5931 131.163 72.5199 131.222 72.458C131.281 72.396 131.352 72.3464 131.43 72.312C131.508 72.2777 131.593 72.2593 131.679 72.2579C131.764 72.2565 131.849 72.2722 131.929 72.3039C143.186 76.7931 153.207 77.2714 162.574 73.7619C162.612 73.7427 162.653 73.7275 162.695 73.7166L162.787 73.7039C162.942 73.679 163.101 73.7117 163.234 73.796C163.367 73.8804 163.464 74.0104 163.507 74.1615C170.117 97.1778 171.701 115.772 157.946 131.714L155.235 134.855C155.163 134.939 155.071 135.003 154.966 135.041ZM110.091 95.0302C120.023 115.867 130.766 130.306 150.585 133.18L154.481 133.746L156.96 130.873C170.208 115.52 168.781 97.4842 162.443 75.1715C153.102 78.508 143.138 78.037 132.047 73.7331C127.409 85.4787 121.904 89.5635 110.751 94.6575L110.091 95.0302Z" fill="#252B4A"/>
<path d="M148.407 117.313C148.314 117.348 148.214 117.36 148.115 117.35C148.016 117.34 147.921 117.307 147.836 117.254L133.023 107.918C132.878 107.826 132.776 107.681 132.738 107.513C132.7 107.346 132.731 107.171 132.822 107.026C132.914 106.881 133.059 106.778 133.227 106.741C133.394 106.703 133.569 106.733 133.714 106.825L147.744 115.677L153.752 86.7327C153.769 86.6497 153.803 86.5709 153.85 86.5007C153.898 86.4306 153.959 86.3706 154.03 86.3241C154.101 86.2775 154.18 86.2455 154.264 86.2296C154.347 86.2138 154.433 86.2146 154.516 86.2318C154.599 86.2491 154.678 86.2825 154.748 86.3303C154.818 86.378 154.878 86.4391 154.924 86.51C154.971 86.5809 155.003 86.6603 155.019 86.7437C155.035 86.827 155.034 86.9126 155.017 86.9957L148.817 116.849C148.794 116.95 148.748 117.045 148.682 117.124C148.616 117.204 148.531 117.266 148.436 117.306L148.407 117.313Z" fill="#252B4A"/>
<path d="M399.382 239.304L395 237.993M404.701 236.383L405.974 232M400.992 248.968L402.303 244.623M407.622 241.701L411.967 242.974M407.63 241.702C406.539 241.381 405.618 240.641 405.071 239.643C404.523 238.646 404.393 237.472 404.709 236.379C404.388 237.47 403.648 238.391 402.651 238.938C401.653 239.486 400.48 239.616 399.387 239.3C400.478 239.621 401.398 240.361 401.946 241.359C402.493 242.356 402.624 243.53 402.308 244.623C402.629 243.532 403.369 242.611 404.366 242.064C405.363 241.516 406.537 241.386 407.63 241.702Z" stroke="#252B4A" stroke-linecap="round" stroke-linejoin="round"/>
<path d="M290.035 109.922L304.907 111.929" stroke="#252B4A" stroke-linecap="round" stroke-linejoin="round"/>
<path d="M296.467 118.363L298.476 103.489" stroke="#252B4A" stroke-linecap="round" stroke-linejoin="round"/>
<path d="M279.596 119.854L277.65 112.534L269.303 111.633L265.785 118.363L264.358 118.208L274.327 99.1118L275.605 99.2498L281.064 120.013L279.596 119.854ZM277.337 111.222L275.396 103.476C275.344 103.278 275.28 103.024 275.204 102.713C275.136 102.403 275.062 102.074 274.98 101.726C274.908 101.379 274.833 101.05 274.757 100.74C274.632 101.047 274.498 101.353 274.355 101.659C274.212 101.964 274.074 102.261 273.942 102.549C273.811 102.829 273.688 103.081 273.572 103.307L269.916 110.42L277.337 111.222Z" fill="#252B4A"/>
</svg>
