<svg width="605" height="582" viewBox="0 0 605 582" fill="none" xmlns="http://www.w3.org/2000/svg">
<path d="M371.36 317.417C364.13 321.88 341.203 324.835 331.461 325.378H375.4C374.243 322.632 372.893 319.972 371.36 317.417Z" fill="#F7F7FF"/>
<path d="M378.561 335.422H234.506L181.537 445.612C184.05 447.838 186.721 449.878 189.528 451.718L181.595 468.454C192.992 471.591 204.999 471.769 216.485 468.973L219.406 462.145C222.319 462.431 225.246 462.554 228.173 462.512L248.918 424.47L242.681 456.048C245.484 457.433 248.367 458.65 251.315 459.691L249.015 468.967C259.399 471.94 270.408 471.94 280.796 468.967L281.772 464.598C284.578 464.584 287.383 464.464 290.181 464.237L313.038 371.587L319.947 372.626L368.022 368.76C377.906 360.663 382.212 350.597 378.561 335.422Z" fill="#F7F7FF"/>
<path d="M195.988 243.523C195.814 245.639 195.029 247.658 193.729 249.335C192.429 251.011 190.669 252.272 188.665 252.963C186.661 253.654 184.5 253.745 182.446 253.225C180.391 252.705 178.532 251.597 177.096 250.036C175.659 248.475 174.708 246.529 174.357 244.434C174.007 242.34 174.273 240.189 175.122 238.244C175.972 236.299 177.369 234.644 179.142 233.481C180.915 232.318 182.987 231.698 185.107 231.696C188.114 231.819 190.95 233.134 192.991 235.352C195.031 237.57 196.11 240.509 195.988 243.523Z" fill="#F7F7FF"/>
<path d="M191.67 226.735C189.925 228.026 187.792 228.678 185.625 228.581C185.837 226.419 186.795 224.4 188.331 222.87C190.076 221.579 192.21 220.928 194.376 221.024C194.164 223.185 193.207 225.204 191.67 226.735Z" fill="#F7F7FF"/>
<path d="M318.276 215.095C318.179 216.61 317.873 218.105 317.367 219.537L322.894 214.345C321.392 214.787 319.841 215.039 318.276 215.095Z" fill="#4F56B2"/>
<path d="M340.27 264.003V290.886C341.766 290.655 343.263 290.425 344.76 290.136C343.96 281.319 342.458 272.58 340.27 264.003Z" fill="#4F56B2"/>
<path d="M306.705 303.866L299.681 301.27C298.867 300.57 298.079 299.838 297.32 299.078C299.169 291.059 304.114 294.059 306.705 303.866Z" fill="#4F56B2"/>
<path d="M253.044 204.641V277.56C253.043 280.222 251.987 282.774 250.109 284.656C248.23 286.538 245.683 287.596 243.026 287.598H239.227C241.883 287.596 244.43 286.538 246.309 284.656C248.187 282.774 249.243 280.222 249.245 277.56V204.641C249.243 201.979 248.187 199.427 246.309 197.544C244.43 195.662 241.883 194.604 239.227 194.603H243.026C245.683 194.604 248.23 195.662 250.109 197.544C251.987 199.427 253.043 201.979 253.044 204.641Z" fill="#4F56B2"/>
<path d="M216.713 322.847H209.229C208.029 322.857 206.868 322.42 205.971 321.62C205.075 320.821 204.508 319.716 204.38 318.52L201.226 287.662H197.426L201.629 326.083H219.88C219.889 325.661 219.813 325.242 219.658 324.849C219.503 324.457 219.271 324.099 218.976 323.798C218.681 323.496 218.329 323.257 217.941 323.093C217.552 322.93 217.135 322.846 216.713 322.847Z" fill="#4F56B2"/>
<path d="M344.588 194.256C345.268 193.437 345.633 192.403 345.619 191.338C345.605 190.274 345.211 189.249 344.51 188.449C343.809 187.649 342.846 187.126 341.794 186.975C340.742 186.823 339.671 187.052 338.773 187.622C339.262 186.744 339.441 185.727 339.281 184.735C339.121 183.744 338.631 182.835 337.892 182.156C337.153 181.478 336.209 181.067 335.209 180.991C334.21 180.915 333.215 181.178 332.383 181.737C335.067 176.895 327.371 172.756 324.504 177.411C322.731 182.666 320.516 187.761 317.883 192.641C325.252 182.317 330.204 193.275 329.743 199.737C329.801 201.006 330.434 201.352 332.507 199.852C336.767 196.737 339.819 204.006 331.873 207.582C329.424 212.302 328.711 217.734 329.858 222.928C329.801 222.12 328.88 206.025 347.016 202.679C347.954 202.48 348.797 201.965 349.403 201.22C350.01 200.475 350.343 199.544 350.349 198.583C350.356 197.881 350.198 197.187 349.888 196.557C349.577 195.928 349.122 195.381 348.561 194.961C348.001 194.539 347.349 194.255 346.659 194.133C345.969 194.011 345.259 194.053 344.588 194.256Z" fill="#4F56B2"/>
<path d="M326.394 241.677C326.394 242.228 326.175 242.757 325.786 243.147C325.396 243.537 324.868 243.756 324.318 243.756C323.767 243.756 323.239 243.537 322.85 243.147C322.461 242.757 322.242 242.228 322.242 241.677C322.242 241.125 322.461 240.596 322.85 240.206C323.239 239.816 323.767 239.597 324.318 239.597C324.868 239.597 325.396 239.816 325.786 240.206C326.175 240.596 326.394 241.125 326.394 241.677Z" fill="#4F56B2"/>
<path d="M306.474 260.887C306.474 261.439 306.255 261.968 305.866 262.358C305.476 262.748 304.948 262.967 304.398 262.967C303.847 262.967 303.319 262.748 302.93 262.358C302.541 261.968 302.322 261.439 302.322 260.887C302.322 260.336 302.541 259.807 302.93 259.417C303.319 259.027 303.847 258.808 304.398 258.808C304.948 258.808 305.476 259.027 305.866 259.417C306.255 259.807 306.474 260.336 306.474 260.887Z" fill="#4F56B2"/>
<path d="M321.96 282.637C321.96 283.188 321.741 283.717 321.352 284.107C320.963 284.497 320.435 284.716 319.884 284.716C319.334 284.716 318.806 284.497 318.417 284.107C318.027 283.717 317.809 283.188 317.809 282.637C317.809 282.085 318.027 281.556 318.417 281.166C318.806 280.776 319.334 280.557 319.884 280.557C320.435 280.557 320.963 280.776 321.352 281.166C321.741 281.556 321.96 282.085 321.96 282.637Z" fill="#4F56B2"/>
<path d="M435.832 289.155H415.105C414.372 289.155 413.67 289.447 413.151 289.966C412.633 290.486 412.342 291.19 412.342 291.924V322.615C412.342 323.35 412.633 324.054 413.151 324.573C413.67 325.093 414.372 325.384 415.105 325.384H435.832C436.562 325.375 437.26 325.08 437.776 324.563C438.292 324.046 438.586 323.347 438.596 322.615V291.912C438.59 291.181 438.297 290.481 437.78 289.965C437.262 289.448 436.562 289.158 435.832 289.155Z" fill="#4F56B2"/>
<path d="M432.802 143.134L404.763 150.806C404.263 150.943 403.807 151.209 403.441 151.578C403.076 151.946 402.813 152.404 402.679 152.906C402.545 153.408 402.545 153.936 402.678 154.439C402.811 154.941 403.074 155.399 403.439 155.768L428.657 180.805C428.931 181.081 429.257 181.3 429.616 181.449C429.975 181.599 430.36 181.675 430.749 181.675C431.138 181.675 431.523 181.599 431.882 181.449C432.241 181.3 432.567 181.081 432.841 180.805C433.208 180.437 433.472 179.98 433.608 179.478L441.093 150.864L432.802 143.134Z" fill="#4F56B2"/>
<path d="M452.229 131.396C451.212 130.395 449.841 129.839 448.416 129.851C446.992 129.862 445.629 130.44 444.629 131.456L432.941 143.28L440.82 150.606L452.277 139.011C453.265 137.987 453.813 136.617 453.804 135.193C453.795 133.77 453.23 132.406 452.229 131.396Z" fill="#4F56B2"/>
<path d="M204.969 92.7316C204.968 93.2169 204.872 93.6972 204.685 94.145C204.499 94.5929 204.226 94.9996 203.883 95.3418C203.54 95.6841 203.132 95.9553 202.684 96.1399C202.237 96.3245 201.757 96.4189 201.272 96.4177C200.788 96.4165 200.309 96.3197 199.862 96.1329C199.415 95.9461 199.009 95.6729 198.667 95.329C198.326 94.985 198.055 94.577 197.871 94.1282C197.687 93.6794 197.593 93.1987 197.594 92.7134C197.596 91.7334 197.987 90.7945 198.68 90.1032C199.374 89.4119 200.313 89.0249 201.291 89.0274C202.269 89.0298 203.206 89.4214 203.896 90.1161C204.586 90.8108 204.972 91.7516 204.969 92.7316Z" fill="#4F56B2"/>
<path d="M280.796 468.974C270.408 471.946 259.403 471.946 249.015 468.974C239.285 471.8 220.17 485.415 220.17 485.415H284.481C283.872 479.813 282.636 474.298 280.796 468.974Z" fill="#4F56B2"/>
<path d="M216.485 468.973C205 471.77 192.992 471.591 181.595 468.454C171.16 471.882 161.661 477.687 153.844 485.415H220.112C219.305 479.853 218.092 474.358 216.485 468.973Z" fill="#4F56B2"/>
<path d="M331.346 371.709L319.946 372.632L313.037 371.593L314.476 365.767L331.346 371.709Z" fill="#4F56B2"/>
<path d="M530.728 325.385H83.1418C81.8133 325.385 80.5393 325.914 79.5999 326.855C78.6605 327.796 78.1328 329.073 78.1328 330.404C78.1328 331.735 78.6605 333.011 79.5999 333.953C80.5393 334.894 81.8133 335.423 83.1418 335.423H144.483L116.247 492.05C116.199 492.335 116.181 492.627 116.19 492.915H126.323L154.698 335.423H459.277L487.662 492.973H497.795C497.737 492.684 497.737 492.396 497.68 492.062L469.447 335.435H530.728C532.026 335.39 533.256 334.841 534.159 333.905C535.061 332.968 535.565 331.718 535.565 330.416C535.565 329.114 535.061 327.863 534.159 326.927C533.256 325.991 532.026 325.442 530.728 325.397V325.385Z" fill="#4F56B2"/>
<path d="M204.969 92.7316C204.968 93.2169 204.872 93.6972 204.685 94.145C204.499 94.5929 204.226 94.9996 203.883 95.3418C203.54 95.6841 203.132 95.9553 202.684 96.1399C202.237 96.3245 201.757 96.4189 201.272 96.4177C200.788 96.4165 200.309 96.3197 199.862 96.1329C199.415 95.9461 199.009 95.6729 198.667 95.329C198.326 94.985 198.055 94.577 197.871 94.1282C197.687 93.6794 197.593 93.1987 197.594 92.7134C197.596 91.7334 197.987 90.7945 198.68 90.1032C199.374 89.4119 200.313 89.0249 201.291 89.0274C202.269 89.0298 203.206 89.4214 203.896 90.1161C204.586 90.8108 204.972 91.7516 204.969 92.7316Z" stroke="#252B4A"/>
<path d="M452.229 131.396C451.212 130.395 449.841 129.839 448.416 129.851C446.992 129.862 445.629 130.44 444.629 131.456L432.941 143.28L440.82 150.606L452.277 139.011C453.265 137.987 453.813 136.617 453.804 135.193C453.795 133.77 453.23 132.406 452.229 131.396Z" stroke="#252B4A" stroke-linejoin="round"/>
<path d="M530.728 325.385H83.1418C81.8133 325.385 80.5393 325.914 79.5999 326.855C78.6605 327.796 78.1328 329.073 78.1328 330.404C78.1328 331.735 78.6605 333.011 79.5999 333.953C80.5393 334.894 81.8133 335.423 83.1418 335.423H144.483L116.247 492.05C116.199 492.335 116.181 492.627 116.19 492.915H126.323L154.698 335.423H459.277L487.662 492.973H497.795C497.737 492.684 497.737 492.396 497.68 492.062L469.447 335.435H530.728C532.026 335.39 533.256 334.841 534.159 333.905C535.061 332.968 535.565 331.718 535.565 330.416C535.565 329.114 535.061 327.863 534.159 326.927C533.256 325.991 532.026 325.442 530.728 325.397V325.385Z" stroke="#252B4A" stroke-linejoin="round"/>
<path d="M293.634 317.539C291.244 320.782 287.958 323.254 284.183 324.648C280.408 326.042 276.308 326.298 272.389 325.385" stroke="#252B4A" stroke-linecap="round" stroke-linejoin="round"/>
<path d="M163.413 307.847C163.413 307.847 135.416 305.254 131.559 325.385" stroke="#252B4A" stroke-linecap="round" stroke-linejoin="round"/>
<path d="M173.362 312.347C172.498 311.885 171.801 311.436 171.116 311.02C167.862 309.049 166.683 307.732 163.804 305.828C161.036 303.989 158.469 301.862 156.147 299.482C149.753 292.908 151.886 291.752 159.083 296.078C159.127 296.085 159.167 296.105 159.198 296.136C163.977 299.036 168.961 301.582 174.11 303.754" stroke="#252B4A" stroke-linecap="round" stroke-linejoin="round"/>
<path d="M171.116 311.02C164.825 308.232 158.344 305.899 151.722 304.037C146.14 302.464 147.116 301.204 148.037 301.037C151.438 300.778 154.858 300.913 158.228 301.441" stroke="#252B4A" stroke-linecap="round" stroke-linejoin="round"/>
<path d="M172.323 322.846C171.158 322.691 169.986 322.595 168.811 322.558C158.857 322.193 162.366 319.974 165.817 318.981C167.605 318.468 170.538 317.885 172.899 317.077" stroke="#252B4A" stroke-linecap="round" stroke-linejoin="round"/>
<path d="M387.654 377.594L404.063 492.973" stroke="#252B4A" stroke-linecap="round" stroke-linejoin="round"/>
<path d="M405.443 293.829L378.498 291.867" stroke="#252B4A" stroke-linecap="round" stroke-linejoin="round"/>
<path d="M281.771 464.604L280.795 468.974" stroke="#252B4A" stroke-linecap="round" stroke-linejoin="round"/>
<path d="M248.957 468.974L251.315 459.698" stroke="#252B4A" stroke-linecap="round" stroke-linejoin="round"/>
<path d="M219.421 462.108L216.484 468.973" stroke="#252B4A" stroke-linecap="round" stroke-linejoin="round"/>
<path d="M181.537 468.512L189.528 451.719" stroke="#252B4A" stroke-linecap="round" stroke-linejoin="round"/>
<path d="M248.957 424.321L228.173 462.512C211.036 463.102 194.333 457.049 181.537 445.612L234.506 335.422" stroke="#252B4A" stroke-linecap="round" stroke-linejoin="round"/>
<path d="M273.656 464.373L294.901 363.459C295.211 361.985 295.809 360.587 296.661 359.346C297.514 358.106 298.603 357.047 299.867 356.231C301.131 355.415 302.544 354.859 304.024 354.595C305.504 354.33 307.022 354.363 308.489 354.69C326.364 358.695 359.97 362.375 363.352 335.556" stroke="#252B4A" stroke-linecap="round" stroke-linejoin="round"/>
<path d="M198.781 299.673L264.041 289.046C274.807 272.65 287.595 234.673 306.128 229.395C309.166 228.619 311.934 227.023 314.131 224.78" stroke="#252B4A" stroke-linecap="round" stroke-linejoin="round"/>
<path d="M318.276 215.094C319.802 215.039 321.318 214.815 322.794 214.426L317.34 219.536" stroke="#252B4A" stroke-linecap="round" stroke-linejoin="round"/>
<path d="M330.77 225.235C331.66 226.875 333.142 228.114 334.915 228.697C344.124 232.141 352.659 237.176 360.133 243.575C368.66 251.414 376.193 280.141 379.478 299.072C380.272 303.522 379.361 308.109 376.928 311.916C374.494 315.723 370.717 318.471 366.351 319.609C354.96 322.779 343.263 324.713 331.46 325.378" stroke="#252B4A" stroke-linecap="round" stroke-linejoin="round"/>
<path d="M351.324 288.81C334.612 292.039 317.67 293.93 300.658 294.463" stroke="#252B4A" stroke-linecap="round" stroke-linejoin="round"/>
<path d="M344.702 290.09C343.953 281.267 342.451 272.524 340.211 263.957V290.898" stroke="#252B4A" stroke-linecap="round" stroke-linejoin="round"/>
<path d="M208.711 298.039C213.956 306.096 215.818 315.902 213.893 325.326" stroke="#252B4A" stroke-linecap="round" stroke-linejoin="round"/>
<path d="M279.874 302.309C275.441 304.27 264.099 307.504 257.996 309.462C255.117 310.373 260.241 313.673 277.629 308.654" stroke="#252B4A" stroke-linecap="round" stroke-linejoin="round"/>
<path d="M280.737 306.809C276.534 309.462 270.434 312.517 264.904 315.462C262.313 316.844 264.674 319.846 279.988 313.501" stroke="#252B4A" stroke-linecap="round" stroke-linejoin="round"/>
<path d="M281.947 311.02C279.522 314.019 277.422 316.928 273.368 321.288C271.48 323.32 274.947 324.552 287.762 315.519C290.125 313.852 291.398 315.68 294.498 318.288C298.598 321.735 301.349 325.73 304.343 325.327" stroke="#252B4A" stroke-linecap="round" stroke-linejoin="round"/>
<path d="M289.431 297.579C284.825 286.952 287.819 286.344 289.431 289.041C292.163 293.46 295.472 297.495 299.27 301.037" stroke="#252B4A" stroke-linecap="round" stroke-linejoin="round"/>
<path d="M297.32 299.078C298.757 292.823 302.087 293.272 304.711 298.428C307.741 304.391 310.505 325.384 304.172 325.384" stroke="#252B4A" stroke-linecap="round" stroke-linejoin="round"/>
<path d="M306.492 303.787C299.719 301.255 288.853 296.828 285.92 296.828C284.826 296.828 272.332 300.472 266.287 302.136C262.314 303.235 260.417 305.072 266.862 304.847C269.568 304.753 272.562 304.385 275.268 304.039" stroke="#252B4A" stroke-linecap="round" stroke-linejoin="round"/>
<path d="M293.866 258.816C291.367 271.033 291.524 283.645 294.326 295.795" stroke="#252B4A" stroke-linecap="round" stroke-linejoin="round"/>
<path d="M201.631 325.327H172.037L175.722 287.655H197.485L201.631 325.327Z" stroke="#252B4A" stroke-linecap="round" stroke-linejoin="round"/>
<path d="M195.988 243.523C195.814 245.639 195.029 247.658 193.729 249.335C192.429 251.011 190.669 252.272 188.665 252.963C186.661 253.654 184.5 253.745 182.446 253.225C180.391 252.705 178.532 251.597 177.096 250.036C175.659 248.475 174.708 246.529 174.357 244.434C174.007 242.34 174.273 240.189 175.122 238.244C175.972 236.299 177.369 234.644 179.142 233.481C180.915 232.318 182.987 231.698 185.107 231.696C188.114 231.819 190.95 233.134 192.991 235.352C195.031 237.57 196.11 240.509 195.988 243.523Z" stroke="#252B4A" stroke-linecap="round" stroke-linejoin="round"/>
<path d="M191.668 226.735C189.923 228.026 187.79 228.678 185.623 228.581C185.835 226.419 186.793 224.4 188.329 222.87C190.074 221.579 192.208 220.928 194.374 221.024C194.162 223.185 193.205 225.204 191.668 226.735Z" stroke="#252B4A" stroke-linecap="round" stroke-linejoin="round"/>
<path d="M317.873 192.699C320.501 187.816 322.715 182.722 324.494 177.469C324.904 176.867 325.452 176.371 326.091 176.024C326.731 175.676 327.444 175.486 328.171 175.47C328.898 175.454 329.619 175.611 330.273 175.93C330.928 176.248 331.497 176.719 331.933 177.302C332.515 178.082 332.833 179.033 332.842 180.007C332.837 180.632 332.679 181.246 332.382 181.796C333.214 181.239 334.209 180.978 335.207 181.056C336.204 181.133 337.147 181.544 337.884 182.222C338.621 182.901 339.109 183.808 339.27 184.797C339.431 185.787 339.256 186.802 338.773 187.68C339.671 187.111 340.742 186.881 341.793 187.033C342.845 187.184 343.808 187.707 344.51 188.507C345.211 189.307 345.604 190.332 345.618 191.396C345.633 192.461 345.267 193.496 344.588 194.314C345.141 194.137 345.725 194.072 346.304 194.124C346.883 194.177 347.446 194.344 347.959 194.617C348.473 194.891 348.926 195.264 349.293 195.716C349.66 196.168 349.934 196.688 350.097 197.247C350.338 198.091 350.321 198.988 350.047 199.821C349.774 200.655 349.257 201.387 348.563 201.923C348.102 202.277 347.574 202.534 347.012 202.679C342.108 203.211 337.595 205.608 334.403 209.375C331.211 213.143 329.583 217.994 329.855 222.928" stroke="#252B4A" stroke-linecap="round" stroke-linejoin="round"/>
<path d="M330.77 225.235L329.676 233.888L320.867 226.908L310.906 231.927L314.13 224.773" stroke="#252B4A" stroke-linecap="round" stroke-linejoin="round"/>
<path d="M320.867 226.908C313.612 245.253 311.021 268.272 310.906 293.886" stroke="#252B4A" stroke-linecap="round" stroke-linejoin="round"/>
<path d="M438.607 299.021C440.792 299.021 442.886 299.889 444.429 301.437C445.194 302.203 445.802 303.112 446.216 304.113C446.631 305.113 446.844 306.186 446.844 307.27C446.844 308.354 446.631 309.427 446.216 310.428C445.802 311.429 445.194 312.338 444.429 313.103C442.886 314.651 440.792 315.52 438.607 315.52" stroke="#252B4A" stroke-linecap="round" stroke-linejoin="round"/>
<path d="M514.088 222.466C514.089 223.217 513.924 223.959 513.604 224.638C513.284 225.317 512.817 225.916 512.238 226.393C511.659 226.869 510.981 227.211 510.254 227.393C509.527 227.575 508.768 227.593 508.033 227.445C507.298 227.3 506.604 226.993 506.001 226.546C505.398 226.099 504.902 225.524 504.549 224.861C504.196 224.199 503.993 223.466 503.957 222.716C503.921 221.965 504.051 221.216 504.339 220.523C504.725 219.596 505.375 218.804 506.209 218.247C507.042 217.69 508.021 217.393 509.023 217.393C510.025 217.392 511.005 217.689 511.838 218.245C512.672 218.802 513.323 219.593 513.709 220.52C513.963 221.136 514.091 221.798 514.088 222.466Z" stroke="#252B4A" stroke-linecap="round" stroke-linejoin="round"/>
<path d="M473.383 310.731L509.022 227.543" stroke="#252B4A" stroke-linecap="round" stroke-linejoin="round"/>
<path d="M509.022 217.39L457.09 159.008" stroke="#252B4A" stroke-linecap="round" stroke-linejoin="round"/>
<path d="M450.869 155.028L442.061 149.374" stroke="#252B4A" stroke-linecap="round" stroke-linejoin="round"/>
<path d="M421.335 173.545C420.401 174.277 419.296 174.758 418.125 174.943C416.953 175.127 415.754 175.008 414.641 174.598C413.528 174.188 412.538 173.499 411.765 172.598C410.992 171.697 410.461 170.614 410.223 169.449C410.022 168.467 410.036 167.453 410.265 166.477C410.493 165.5 410.931 164.586 411.548 163.796" stroke="#252B4A" stroke-linecap="round" stroke-linejoin="round"/>
<path d="M457.951 156.643C457.953 157.197 457.831 157.746 457.595 158.248C457.359 158.75 457.014 159.193 456.586 159.545C456.158 159.897 455.657 160.149 455.119 160.283C454.582 160.417 454.021 160.429 453.478 160.319C452.562 160.144 451.744 159.631 451.186 158.882C450.627 158.133 450.368 157.202 450.459 156.272C450.551 155.342 450.986 154.479 451.68 153.854C452.374 153.229 453.276 152.886 454.209 152.893C455.197 152.907 456.141 153.306 456.839 154.007C457.538 154.707 457.937 155.652 457.951 156.643Z" stroke="#252B4A" stroke-linecap="round" stroke-linejoin="round"/>
<path d="M477.066 314.481C477.068 315.036 476.946 315.584 476.71 316.086C476.474 316.588 476.129 317.031 475.701 317.383C475.273 317.735 474.772 317.987 474.234 318.121C473.697 318.255 473.137 318.268 472.594 318.158C471.868 318.014 471.201 317.657 470.679 317.132C470.288 316.739 469.99 316.265 469.804 315.743C469.618 315.221 469.55 314.665 469.604 314.113C469.658 313.562 469.833 313.029 470.117 312.554C470.401 312.078 470.786 311.671 471.245 311.363C471.964 310.878 472.83 310.66 473.692 310.744C474.555 310.829 475.361 311.212 475.972 311.827C476.32 312.176 476.596 312.589 476.783 313.045C476.971 313.5 477.067 313.988 477.066 314.481Z" stroke="#252B4A" stroke-linecap="round" stroke-linejoin="round"/>
<path d="M319.946 385.497L313.037 492.973" stroke="#252B4A" stroke-linecap="round" stroke-linejoin="round"/>
<path d="M207.156 143.72H172.842V109.337H207.156V143.72Z" stroke="#252B4A" stroke-linecap="round" stroke-linejoin="round"/>
<path d="M190 117.183L200.018 96.0107" stroke="#252B4A" stroke-linecap="round" stroke-linejoin="round"/>
<path d="M91.259 391.467H65.0625" stroke="#252B4A" stroke-linecap="round" stroke-linejoin="round"/>
<path d="M78.1328 404.592V378.344" stroke="#252B4A" stroke-linecap="round" stroke-linejoin="round"/>
<path d="M515.123 374.825C515.226 375.951 515.079 377.086 514.691 378.148C514.304 379.21 513.686 380.172 512.882 380.966C512.078 381.76 511.108 382.364 510.043 382.737C508.977 383.109 507.842 383.24 506.72 383.12C505.22 382.959 503.8 382.357 502.641 381.389C501.482 380.422 500.634 379.132 500.205 377.682C499.887 376.598 499.812 375.456 499.986 374.339C500.16 373.223 500.58 372.159 501.213 371.223C501.847 370.288 502.679 369.506 503.651 368.931C504.623 368.357 505.709 368.006 506.832 367.902C508.339 367.746 509.858 368.049 511.19 368.771C512.523 369.493 513.607 370.601 514.302 371.95C514.763 372.842 515.041 373.82 515.123 374.825Z" stroke="#252B4A" stroke-linecap="round" stroke-linejoin="round"/>
<path d="M14.627 492.973H590.374" stroke="#252B4A" stroke-linecap="round" stroke-linejoin="round"/>
<path d="M220.168 485.415H284.479" stroke="#252B4A" stroke-linecap="round" stroke-linejoin="round"/>
<path d="M153.785 485.415H220.054" stroke="#252B4A" stroke-linecap="round" stroke-linejoin="round"/>
<path d="M220.166 485.324C219.555 479.751 218.32 474.266 216.484 468.97C204.999 471.767 192.99 471.588 181.594 468.451C167.934 473.099 155.901 481.592 146.934 492.915C173.533 492.915 191.209 492.972 211.245 492.915" stroke="#252B4A" stroke-linecap="round" stroke-linejoin="round"/>
<path d="M280.794 468.974C270.407 471.946 259.401 471.946 249.013 468.974C234.674 473.139 216.326 487.823 211.244 492.915C241.644 492.915 260.758 492.626 284.652 492.626C284.863 484.569 283.554 476.544 280.794 468.974Z" stroke="#252B4A" stroke-linecap="round" stroke-linejoin="round"/>
<path d="M313.037 371.594L314.476 365.768L331.346 371.71" stroke="#252B4A" stroke-linecap="round" stroke-linejoin="round"/>
<path d="M313.037 371.593L319.946 372.632L382.118 367.543" stroke="#252B4A" stroke-linecap="round" stroke-linejoin="round"/>
<path d="M390.13 368.133L370.555 366.69" stroke="#252B4A" stroke-linecap="round" stroke-linejoin="round"/>
<path d="M209.287 460.378L257.995 378.517" stroke="#252B4A" stroke-linecap="round" stroke-linejoin="round"/>
<path d="M315.57 293.54C320.752 301.213 322.076 311.828 319.428 325.385" stroke="#252B4A" stroke-linecap="round" stroke-linejoin="round"/>
<path d="M309.869 384.343L319.945 385.497L382.974 380.247C384.297 380.144 385.554 379.626 386.567 378.766C387.58 377.907 388.297 376.75 388.616 375.459L415.849 243.177C416.301 241.036 416.038 238.807 415.102 236.83C414.166 234.854 412.608 233.24 410.667 232.237C409.382 231.569 407.968 231.187 406.522 231.12L332.726 227.543" stroke="#252B4A" stroke-linecap="round" stroke-linejoin="round"/>
<path d="M285.977 333.691C280.08 334.83 274.656 337.705 270.4 341.95C266.143 346.194 263.248 351.614 262.083 357.517L242.689 456.051C257.482 463.065 273.906 465.9 290.189 464.249C290.189 463.964 307.822 392.711 313.046 371.6" stroke="#252B4A" stroke-linecap="round" stroke-linejoin="round"/>
<path d="M239.227 194.603C241.883 194.604 244.43 195.662 246.309 197.544C248.187 199.427 249.243 201.979 249.245 204.641V277.618C249.245 280.281 248.189 282.834 246.311 284.718C244.432 286.601 241.884 287.66 239.227 287.662H139.68C137.021 287.66 134.471 286.603 132.588 284.722C130.706 282.84 129.644 280.288 129.635 277.624V204.641C129.632 203.323 129.889 202.018 130.391 200.801C130.892 199.583 131.628 198.476 132.557 197.544C133.486 196.611 134.589 195.872 135.804 195.367C137.018 194.862 138.32 194.603 139.635 194.603H239.227Z" stroke="#252B4A" stroke-linecap="round" stroke-linejoin="round"/>
<path d="M253.044 204.641V277.56C253.043 280.222 251.987 282.774 250.109 284.656C248.23 286.538 245.683 287.596 243.026 287.598H239.227C241.883 287.596 244.43 286.538 246.309 284.656C248.187 282.774 249.243 280.222 249.245 277.56V204.641C249.243 201.979 248.187 199.427 246.309 197.544C244.43 195.662 241.883 194.604 239.227 194.603H243.026C245.683 194.604 248.23 195.662 250.109 197.544C251.987 199.427 253.043 201.979 253.044 204.641Z" stroke="#252B4A" stroke-linecap="round" stroke-linejoin="round"/>
<path d="M332.501 199.913C336.743 196.78 339.773 204.021 331.867 207.643C330.767 208.147 327.376 219.239 330.773 225.254C325.349 227.042 318.798 228.108 314.134 224.792C316.597 222.14 318.062 218.711 318.277 215.094C303.307 215.325 317.586 192.653 317.874 192.653C325.192 182.4 330.125 193.188 329.743 199.612C329.631 201.51 330.958 201.046 332.501 199.913Z" stroke="#252B4A" stroke-linecap="round" stroke-linejoin="round"/>
<path d="M368.328 368.579C372.153 365.707 375.207 361.929 377.216 357.584C379.226 353.239 380.128 348.462 379.843 343.682C379.634 340.951 379.236 338.238 378.652 335.562" stroke="#252B4A" stroke-linecap="round" stroke-linejoin="round"/>
<path d="M371.359 317.417C372.918 319.964 374.281 322.626 375.435 325.381" stroke="#252B4A" stroke-linecap="round" stroke-linejoin="round"/>
<path d="M438.608 322.616C438.608 323.35 438.316 324.054 437.798 324.574C437.28 325.093 436.577 325.385 435.844 325.385H415.117C414.384 325.385 413.681 325.093 413.163 324.574C412.645 324.054 412.354 323.35 412.354 322.616V291.913C412.354 291.178 412.645 290.474 413.163 289.955C413.681 289.435 414.384 289.144 415.117 289.144H435.832C436.565 289.144 437.267 289.436 437.785 289.955C438.303 290.475 438.595 291.178 438.595 291.913L438.608 322.616Z" stroke="#252B4A" stroke-linecap="round" stroke-linejoin="round"/>
<path d="M499.406 318.174C499.633 318.18 499.849 318.265 500.012 318.411C500.09 318.48 500.154 318.565 500.198 318.66C500.242 318.755 500.267 318.858 500.27 318.963V324.59C500.267 324.694 500.242 324.797 500.198 324.892C500.154 324.987 500.09 325.072 500.012 325.142C499.844 325.29 499.63 325.374 499.406 325.379H447.301C447.078 325.374 446.863 325.29 446.695 325.142C446.617 325.072 446.554 324.987 446.509 324.892C446.465 324.797 446.441 324.694 446.438 324.59V318.963C446.441 318.858 446.465 318.755 446.509 318.66C446.554 318.565 446.617 318.48 446.695 318.411C446.863 318.263 447.078 318.179 447.301 318.174H499.406Z" stroke="#252B4A" stroke-linecap="round" stroke-linejoin="round"/>
<path d="M319.945 385.497V372.632" stroke="#252B4A" stroke-linecap="round" stroke-linejoin="round"/>
<path d="M432.8 143.134L404.761 150.806C404.261 150.943 403.805 151.209 403.44 151.578C403.074 151.946 402.811 152.404 402.677 152.906C402.543 153.408 402.543 153.936 402.676 154.439C402.809 154.941 403.072 155.399 403.437 155.768L428.655 180.805C428.929 181.081 429.255 181.3 429.614 181.449C429.973 181.599 430.358 181.675 430.747 181.675C431.136 181.675 431.521 181.599 431.88 181.449C432.239 181.3 432.565 181.081 432.84 180.805C433.206 180.437 433.47 179.98 433.606 179.478L441.091 150.864L432.8 143.134Z" stroke="#252B4A" stroke-linejoin="round"/>
</svg>
