<svg width="177" height="30" viewBox="0 0 177 30" fill="none" xmlns="http://www.w3.org/2000/svg">
<g id="Outlook">
<path id="Vector" d="M31.448 15C31.448 5.67357 24.8356 0 15.7044 0C6.61234 0 0 5.67357 0 15C0 24.3265 6.61234 30 15.7437 30C24.8356 30 31.448 24.3265 31.448 15ZM18.4989 18.6917C18.4989 21.101 17.7117 22.9275 15.7437 22.9275C13.7364 22.9275 12.9885 21.101 12.9885 18.6917V11.3472C12.9885 8.89896 13.697 7.07254 15.7044 7.07254C17.6722 7.11139 18.4594 8.93783 18.4989 11.3472V18.6917Z" fill="#ED1C24"/>
<path id="Vector_2" d="M59.1726 29.3V8.16016H48.6637V19.6627C47.9553 22.3053 46.8138 23.0824 45.7905 23.0824C44.6097 23.0824 44.531 21.4503 44.531 19.585V8.16016H33.9827V22.7716C33.9827 26.7741 36.7378 29.7664 40.4376 29.7664C44.3342 29.7664 47.2467 27.3182 48.6637 24.7923V29.3H59.1726Z" fill="#ED1C24"/>
<path id="Vector_3" d="M79.83 27.6684V22.1503C78.413 23.2383 74.7526 23.1607 74.7526 20.2073V14.1839H79.83V8.16064H74.7526V2.25391H66.8414L64.6374 8.16064H60.9375V14.1839H64.2437V22.4223C64.2437 27.1244 67.8254 29.7669 72.3517 29.7669C74.4771 29.7669 78.5704 29.0286 79.83 27.6684Z" fill="#ED1C24"/>
<path id="Vector_4" d="M92.3114 29.3004V0.738281H81.8025V29.3004H92.3114Z" fill="#ED1C24"/>
<path id="Vector_5" d="M120.322 18.8852C120.283 12.0848 114.852 7.73242 107.373 7.73242C99.8952 7.73242 94.4636 12.0848 94.4636 18.8852C94.4636 25.7247 99.8952 29.7661 107.373 29.7272C114.891 29.7272 120.322 25.6858 120.322 18.8852ZM109.184 21.722C109.184 23.0821 108.672 24.1314 107.373 24.1314C106.075 24.1314 105.563 23.0821 105.563 21.722V15.8542C105.563 14.4552 106.075 13.406 107.373 13.406C108.672 13.4448 109.184 14.4941 109.184 15.8542V21.722Z" fill="#ED1C24"/>
<path id="Vector_6" d="M147.305 18.8852C147.266 12.0848 141.835 7.73242 134.356 7.73242C126.877 7.73242 121.446 12.0848 121.446 18.8852C121.446 25.7247 126.877 29.7661 134.356 29.7272C141.873 29.7272 147.305 25.6858 147.305 18.8852ZM136.167 21.722C136.167 23.0821 135.655 24.1314 134.356 24.1314C133.057 24.1314 132.545 23.0821 132.545 21.722V15.8542C132.545 14.4552 133.057 13.406 134.356 13.406C135.655 13.4448 136.167 14.4941 136.167 15.8542V21.722Z" fill="#ED1C24"/>
<path id="Vector_7" d="M175.862 29.3004L167.518 17.759L175.311 8.16056H164.251L159.371 15.3497V0.738281H149.413V29.3004H159.371V21.4119L164.684 29.3004H175.862Z" fill="#ED1C24"/>
</g>
</svg>
