<svg width="42" height="43" viewBox="0 0 42 43" fill="none" xmlns="http://www.w3.org/2000/svg">
<g id="material-symbols:list-alt">
<path id="Vector" d="M14 30.25C14.4958 30.25 14.9118 30.082 15.2478 29.746C15.5838 29.41 15.7512 28.9947 15.75 28.5C15.75 28.0042 15.582 27.5883 15.246 27.2523C14.91 26.9163 14.4947 26.7488 14 26.75C13.5042 26.75 13.0883 26.918 12.7523 27.254C12.4163 27.59 12.2488 28.0053 12.25 28.5C12.25 28.9958 12.418 29.4118 12.754 29.7478C13.09 30.0838 13.5053 30.2512 14 30.25ZM14 23.25C14.4958 23.25 14.9118 23.082 15.2478 22.746C15.5838 22.41 15.7512 21.9947 15.75 21.5C15.75 21.0042 15.582 20.5883 15.246 20.2523C14.91 19.9163 14.4947 19.7488 14 19.75C13.5042 19.75 13.0883 19.918 12.7523 20.254C12.4163 20.59 12.2488 21.0053 12.25 21.5C12.25 21.9958 12.418 22.4118 12.754 22.7478C13.09 23.0838 13.5053 23.2512 14 23.25ZM14 16.25C14.4958 16.25 14.9118 16.082 15.2478 15.746C15.5838 15.41 15.7512 14.9947 15.75 14.5C15.75 14.0042 15.582 13.5883 15.246 13.2523C14.91 12.9163 14.4947 12.7488 14 12.75C13.5042 12.75 13.0883 12.918 12.7523 13.254C12.4163 13.59 12.2488 14.0053 12.25 14.5C12.25 14.9958 12.418 15.4118 12.754 15.7478C13.09 16.0838 13.5053 16.2512 14 16.25ZM19.25 30.25H29.75V26.75H19.25V30.25ZM19.25 23.25H29.75V19.75H19.25V23.25ZM19.25 16.25H29.75V12.75H19.25V16.25ZM8.75 37.25C7.7875 37.25 6.96325 36.907 6.27725 36.221C5.59125 35.535 5.24884 34.7113 5.25 33.75V9.25C5.25 8.2875 5.593 7.46325 6.279 6.77725C6.965 6.09125 7.78867 5.74884 8.75 5.75H33.25C34.2125 5.75 35.0368 6.093 35.7228 6.779C36.4088 7.465 36.7512 8.28867 36.75 9.25V33.75C36.75 34.7125 36.407 35.5368 35.721 36.2228C35.035 36.9088 34.2113 37.2512 33.25 37.25H8.75Z" fill="#4F56B2"/>
</g>
</svg>
