<svg width="28" height="29" viewBox="0 0 28 29" fill="none" xmlns="http://www.w3.org/2000/svg">
<g id="logo icon">
<g id="Group">
<path id="Vector" d="M7.28462 28.4995C7.01424 28.4995 6.76601 28.4085 6.58576 28.2265C6.38258 28.0444 6.26953 27.7946 6.26953 27.4984C6.26953 27.2246 6.36045 26.974 6.54069 26.7696L10.3275 22.7638C10.5315 22.5587 10.7789 22.4453 11.0722 22.4453C11.3426 22.4453 11.5908 22.5363 11.7711 22.7183C11.9742 22.9003 12.0873 23.1734 12.0873 23.4464C12.0873 23.7194 11.9964 23.9708 11.8161 24.1752L8.02854 28.181C7.82536 28.3861 7.57792 28.4995 7.28462 28.4995Z" fill="url(#paint0_linear_3864_9107)"/>
<path id="Vector_2" d="M1.01429 22.4941C0.743921 22.4941 0.495683 22.3808 0.292509 22.1988C0.0901244 22.0168 0 21.7437 0 21.47C0 21.1969 0.11226 20.9463 0.292509 20.7419L3.85479 17.1225C4.03504 16.9182 4.30542 16.8271 4.57658 16.8271C4.84695 16.8271 5.0944 16.9405 5.29757 17.1225C5.50075 17.3045 5.59008 17.5776 5.59008 17.8513C5.59008 18.1244 5.47782 18.3742 5.29757 18.5794L1.73529 22.1995C1.55504 22.3815 1.28467 22.4941 1.01429 22.4941Z" fill="url(#paint1_linear_3864_9107)"/>
<path id="Vector_3" d="M1.37041 28.443C1.09846 28.443 0.849428 28.3288 0.645463 28.146C0.441497 27.9633 0.350586 27.6895 0.350586 27.4157C0.350586 27.1419 0.441497 26.8913 0.645463 26.6853L7.80641 19.3587C8.01037 19.1535 8.2594 19.0625 8.53136 19.0625C8.80331 19.0625 9.05313 19.1766 9.2563 19.3587C9.66424 19.7466 9.66424 20.4083 9.27923 20.8194L2.11829 28.146C1.91876 28.3372 1.65004 28.4439 1.37041 28.443Z" fill="url(#paint2_linear_3864_9107)"/>
<path id="Vector_4" d="M5.69883 13.4932C8.00966 11.4618 15.1477 5.73309 22.9426 4.9341C22.9946 4.92927 23.047 4.93629 23.0958 4.95463C23.1445 4.97295 23.1881 5.00208 23.2233 5.0397C23.2585 5.07733 23.2842 5.12242 23.2985 5.17141C23.3128 5.22042 23.3152 5.27197 23.3055 5.32203C23.0336 7.2393 21.5149 14.9994 14.7856 21.915C14.7124 21.9903 14.6208 22.0462 14.5193 22.0774C14.4179 22.1086 14.31 22.1143 14.2058 22.0937C14.1015 22.0731 14.0044 22.0269 13.9234 21.9597C13.8424 21.8924 13.7803 21.8062 13.7428 21.7091L12.2012 18.1491L10.2762 18.6504C10.1876 18.6716 10.0948 18.6693 10.0073 18.6439C9.9199 18.6185 9.841 18.5708 9.77871 18.5058C9.71641 18.4408 9.67301 18.3608 9.65285 18.274C9.63277 18.1871 9.63672 18.0967 9.66431 18.0118L10.1853 16.2087L5.87987 14.566C5.44901 14.4056 5.33596 13.8125 5.69804 13.4932H5.69883Z" fill="url(#paint3_linear_3864_9107)"/>
<path id="Vector_5" d="M27.2257 20.2262L19.5216 20.3635C19.2497 20.3635 18.9999 20.5 18.8418 20.7514C18.071 22.0062 15.4882 26.1145 13.4707 27.9177C12.9955 28.3519 12.2698 28.2377 11.9298 27.6894C11.875 27.5994 11.8223 27.5081 11.7717 27.4156C11.2958 26.3436 10.9337 25.7035 10.2989 24.6083C9.755 23.6728 8.66718 22.3486 8.03236 21.5504C7.26236 20.6141 5.63063 19.1534 4.79184 18.5603C3.2289 17.4189 1.77821 16.7572 0.736246 16.3924C-0.011629 16.1178 -0.215595 15.1368 0.373377 14.5893C2.07309 12.9681 4.97367 10.2981 6.78644 9.385C7.05839 9.24849 7.21651 8.95157 7.21651 8.65465L7.08053 1.32796C7.08053 0.734885 7.67028 0.323819 8.21419 0.57524C9.84513 1.28246 12.9046 2.78867 14.6494 4.75222C14.8534 4.98051 15.1712 5.07151 15.4653 4.98051C16.7792 4.59181 20.5185 3.54216 24.1441 3.33702C24.6421 3.31388 25.0501 3.72494 24.9821 4.22702C24.801 5.96228 24.3259 9.70429 23.5092 12.1699C23.4191 12.4206 23.4642 12.6944 23.6452 12.9226C24.4382 13.9268 26.7727 16.9855 27.8827 19.0393C28.2005 19.5645 27.8376 20.227 27.2265 20.227L27.2257 20.2262Z" fill="url(#paint4_linear_3864_9107)"/>
<path id="Vector_6" d="M11.2728 18.3992L10.2751 18.6498C10.1864 18.6711 10.0935 18.6688 10.006 18.6434C9.91851 18.6179 9.83946 18.5702 9.77716 18.5051C9.71486 18.4399 9.67146 18.3598 9.65138 18.2729C9.63138 18.1859 9.63549 18.0954 9.66324 18.0105L10.185 16.2081L5.87961 14.5646C5.42582 14.3819 5.31277 13.7888 5.67564 13.4695C7.98566 11.4373 15.1245 5.7086 22.9194 4.90961C22.9714 4.90491 23.0237 4.91203 23.0722 4.93042C23.1209 4.9488 23.1644 4.97795 23.1995 5.01555C23.2346 5.05316 23.2603 5.0982 23.2746 5.14714C23.2888 5.19607 23.2912 5.24755 23.2815 5.29754C23.0096 7.21481 21.4917 14.9742 14.7616 21.8898C14.6885 21.9651 14.5968 22.021 14.4955 22.0523C14.3941 22.0835 14.2862 22.0892 14.182 22.0687C14.0778 22.0482 13.9806 22.0021 13.8996 21.935C13.8186 21.8678 13.7564 21.7817 13.7188 21.6846L12.178 18.1239L11.272 18.3984L11.2728 18.3992Z" fill="#FFFFFC"/>
<path id="Vector_7" d="M17.2093 13.0133C18.486 13.0133 19.5209 11.9714 19.5209 10.6858C19.5209 9.39935 18.486 8.35742 17.2093 8.35742C15.9333 8.35742 14.8984 9.39935 14.8984 10.6858C14.8984 11.9714 15.9333 13.0133 17.2093 13.0133Z" fill="url(#paint5_linear_3864_9107)"/>
</g>
</g>
<defs>
<linearGradient id="paint0_linear_3864_9107" x1="5.77306" y1="29.2931" x2="10.4465" y2="24.489" gradientUnits="userSpaceOnUse">
<stop offset="0.188" stop-color="#25E2EA"/>
<stop offset="1" stop-color="#19A6D1"/>
</linearGradient>
<linearGradient id="paint1_linear_3864_9107" x1="-0.790565" y1="23.5222" x2="4.91993" y2="17.6259" gradientUnits="userSpaceOnUse">
<stop offset="0.396" stop-color="#E55EC4"/>
<stop offset="1" stop-color="#8225D0"/>
</linearGradient>
<linearGradient id="paint2_linear_3864_9107" x1="6.50829" y1="22.4775" x2="2.3398" y2="25.7298" gradientUnits="userSpaceOnUse">
<stop stop-color="#A443FD"/>
<stop offset="1" stop-color="#A959F3"/>
</linearGradient>
<linearGradient id="paint3_linear_3864_9107" x1="4.94147" y1="24.2226" x2="47.4051" y2="-26.5979" gradientUnits="userSpaceOnUse">
<stop offset="0.102" stop-color="white" stop-opacity="0.7"/>
<stop offset="0.481" stop-color="white" stop-opacity="0"/>
</linearGradient>
<linearGradient id="paint4_linear_3864_9107" x1="27.1791" y1="2.17169" x2="6.70225" y2="19.3512" gradientUnits="userSpaceOnUse">
<stop offset="0.174" stop-color="#52BFCA"/>
<stop offset="0.916" stop-color="#7238DF"/>
</linearGradient>
<linearGradient id="paint5_linear_3864_9107" x1="24.8651" y1="1.56597" x2="8.41807" y2="20.8216" gradientUnits="userSpaceOnUse">
<stop stop-color="#52BFCA"/>
<stop offset="1" stop-color="#7238DF"/>
</linearGradient>
</defs>
</svg>
