<svg width="28" height="45" viewBox="0 0 28 45" fill="none" xmlns="http://www.w3.org/2000/svg">
<g id="logo icon">
<g id="Group">
<rect id="Rectangle" x="1.5" y="9.35742" width="25.7619" height="25.7619" rx="12.881" fill="#FFEBE3" stroke="#EE8253"/>
<g id="Mask group">
<mask id="mask0_3864_8553" style="mask-type:alpha" maskUnits="userSpaceOnUse" x="2" y="9" width="25" height="26">
<rect id="Rectangle_2" x="2.13265" y="9.99007" width="24.4966" height="24.4966" rx="12.2483" fill="#FFEBE3" stroke="#EE8253" stroke-width="0.265306"/>
</mask>
<g mask="url(#mask0_3864_8553)">
<g id="Group_2">
<path id="Vector" d="M-1.35518 58.9488C1.95049 59.0913 9.00543 60.1617 14.1508 60.0736C17.429 60.0163 19.567 59.1406 19.9894 55.8916C20.7 50.5646 21.9727 45.3278 23.7862 40.2688C27.1205 41.0541 34.9024 41.3564 40.1749 37.0524C43.595 34.2619 47.4988 29.7771 50.2836 23.9763C47.5303 23.4674 44.8944 21.6615 42.3672 18.6426C42.3672 18.6426 37.1668 23.7553 34.0277 26.5355C33.4502 27.0468 32.7748 27.4356 32.0426 27.6782C31.3104 27.9209 30.5365 28.0123 29.7679 27.9471C25.9791 27.6283 18.8852 27.0358 17.4754 26.9505C13.6975 26.7216 7.05008 26.543 1.20063 27.5275C0.205906 27.6955 -0.732565 28.1044 -1.5328 28.7187C-2.33304 29.3329 -2.97071 30.1338 -3.3901 31.0513C-4.95106 34.4623 -7.58013 40.3358 -9.36033 44.9912C-10.5538 48.1137 -9.80166 51.0873 -5.3071 53.4056C-5.3071 53.4056 -3.54007 54.2762 -3.33801 57.0118C-3.19662 58.9402 -3.28248 58.8658 -1.35518 58.9488Z" fill="#F7F7FF"/>
<path id="Vector_2" d="M13.5417 60.2039C10.3574 60.2039 6.52626 59.8112 3.41006 59.4924C1.48849 59.2955 -0.1715 59.1255 -1.36097 59.074L-1.55902 59.066C-3.27282 58.9944 -3.32605 58.9435 -3.44797 57.2486L-3.464 57.0265C-3.65862 54.3985 -5.34665 53.5285 -5.36383 53.5205C-9.46113 51.4025 -10.8452 48.5199 -9.47831 44.9458C-7.66835 40.2119 -4.95627 34.1753 -3.50521 30.9979C-3.07723 30.061 -2.42607 29.2434 -1.60877 28.6166C-0.791474 27.9898 0.167039 27.5729 1.18282 27.4025C7.1313 26.4014 13.9504 26.6103 17.4862 26.8244C18.8771 26.9086 25.7861 27.485 29.7815 27.821C30.5331 27.8832 31.2895 27.7931 32.0053 27.556C32.7212 27.3188 33.3818 26.9395 33.9475 26.4409C37.0477 23.6933 42.2297 18.6029 42.2818 18.5519C42.2942 18.5397 42.309 18.5302 42.3252 18.524C42.3414 18.5177 42.3588 18.515 42.3762 18.5158C42.3935 18.5166 42.4105 18.521 42.4261 18.5287C42.4417 18.5364 42.4555 18.5472 42.4667 18.5605C44.9899 21.576 47.6287 23.3562 50.3087 23.8519C50.3278 23.8553 50.3457 23.8631 50.3612 23.8747C50.3767 23.8862 50.3894 23.9012 50.3981 23.9185C50.4069 23.9357 50.4115 23.9547 50.4117 23.9741C50.4119 23.9934 50.4076 24.0125 50.3992 24.0299C47.0729 30.9561 42.6144 35.2234 40.2566 37.149C37.9424 39.0379 34.8354 40.2623 31.2698 40.6928C27.6064 41.1347 24.7953 40.6241 23.868 40.4157C22.0801 45.4344 20.8223 50.6263 20.1153 55.9068C19.9069 57.4981 19.283 58.6034 18.2069 59.284C17.2738 59.8759 15.9853 60.1661 14.1513 60.1999C13.9521 60.2026 13.7489 60.2039 13.5417 60.2039ZM11.647 26.8982C8.42266 26.8982 4.67566 27.07 1.22518 27.651C0.249922 27.8144 -0.670365 28.2146 -1.45505 28.8163C-2.23973 29.4181 -2.86487 30.2031 -3.27568 31.1026C-4.72845 34.2772 -7.43538 40.3087 -9.24247 45.0356C-10.5745 48.5187 -9.26823 51.2176 -5.24934 53.2955C-5.17665 53.3316 -3.41763 54.2291 -3.21271 57.0076L-3.19611 57.2302C-3.13887 58.0127 -3.1114 58.406 -2.92536 58.5851C-2.73933 58.7643 -2.34036 58.7809 -1.54815 58.8141L-1.34952 58.8227C-0.15261 58.8742 1.51253 59.0442 3.4364 59.2417C6.74779 59.5811 10.8703 60.0036 14.149 59.9469C17.8405 59.8839 19.4976 58.7036 19.868 55.8742C20.5823 50.5389 21.8568 45.2938 23.6705 40.2257C23.6811 40.1966 23.702 40.1725 23.7292 40.1577C23.7564 40.143 23.788 40.1386 23.8182 40.1455C27.6762 41.0539 35.1965 40.9543 40.0987 36.9538C42.4261 35.0551 46.805 30.8656 50.1021 24.0677C47.4495 23.5273 44.8468 21.7655 42.362 18.8267C41.6333 19.5411 36.9847 24.0866 34.1147 26.6292C33.5235 27.1504 32.8331 27.5469 32.085 27.7947C31.3369 28.0426 30.5464 28.1368 29.7609 28.0717C25.7672 27.7357 18.8594 27.1593 17.4713 27.0757C16.0002 26.9864 13.9573 26.8982 11.647 26.8982Z" fill="#252B4A"/>
<path id="Vector_3" d="M18.7369 32.4442L18.41 28.2862L8.58864 26.1729L-9.26367 65.8534L8.03913 65.8254L18.7369 32.4442Z" fill="#F7F7FF"/>
<path id="Vector_4" d="M6.75643 26.1719C-0.876648 26.1719 -7.84974 27.9275 -11.7604 34.987C-14.508 39.9452 -17.6918 46.0614 -20.0947 50.8645V65.7826H-6.92931L9.27275 26.3161C9.11248 26.272 6.92014 26.1719 6.75643 26.1719Z" fill="#F7F7FF"/>
<path id="Vector_5" d="M-5.69094 65.9055C-5.71124 65.9051 -5.73116 65.8999 -5.74899 65.8902C-5.76681 65.8805 -5.782 65.8666 -5.79327 65.8497C-5.80453 65.8328 -5.81152 65.8134 -5.81364 65.7932C-5.81576 65.773 -5.81294 65.7526 -5.80542 65.7337L10.3337 26.4201C9.81449 26.376 8.17225 26.3005 7.99766 26.3005C-1.25305 26.3005 -7.10193 29.0806 -10.4093 35.0497C-12.9308 39.601 -16.047 45.5374 -18.7442 50.9295C-18.7517 50.9443 -18.7621 50.9575 -18.7747 50.9683C-18.7873 50.9791 -18.8019 50.9873 -18.8177 50.9925C-18.8335 50.9976 -18.8501 50.9996 -18.8667 50.9984C-18.8832 50.9971 -18.8994 50.9926 -18.9142 50.985C-18.929 50.9775 -18.9422 50.9672 -18.953 50.9546C-18.9638 50.9419 -18.972 50.9273 -18.9771 50.9115C-18.9823 50.8958 -18.9843 50.8791 -18.983 50.8625C-18.9817 50.846 -18.9772 50.8298 -18.9697 50.815C-16.2702 45.4201 -13.1529 39.4813 -10.6297 34.9261C-8.77909 31.5861 -6.18665 29.2592 -2.70468 27.8168C0.167099 26.6256 3.66796 26.0469 7.99938 26.0469C8.12416 26.0469 10.3646 26.1436 10.5466 26.1917C10.5639 26.1961 10.5801 26.2043 10.5941 26.2155C10.608 26.2268 10.6193 26.2409 10.6273 26.257C10.6353 26.273 10.6398 26.2907 10.6405 26.3086C10.6412 26.3266 10.6381 26.3445 10.6313 26.3611L-5.57417 65.8276C-5.58371 65.8507 -5.59991 65.8705 -5.62071 65.8843C-5.6415 65.8982 -5.66595 65.9055 -5.69094 65.9055Z" fill="#252B4A"/>
<path id="Vector_6" d="M12.413 43.7469L14.1141 47.0004L15.909 44.7399C15.9748 43.266 16.0175 41.7548 16.0372 40.2065C16.0749 37.041 16.0034 38.2846 15.8494 35.4007C16.2488 34.7599 16.6479 34.119 17.0467 33.4782L15.0234 30.3242L12.4102 32.8399L13.7733 35.4988C13.5303 39.6934 13.0763 39.5988 12.413 43.7469Z" fill="#EE8253"/>
<path id="Vector_7" d="M17.2205 34.9325L14.9489 31.3258L12.6427 35.2479L7.5459 28.6569L9.85403 26.3184L16.1569 26.8048L18.0782 29.2926L17.2205 34.9325Z" fill="#F7F7FF"/>
<path id="Vector_8" d="M12.6404 35.3622C12.6242 35.3622 12.6082 35.3585 12.5937 35.3514C12.5792 35.3443 12.5665 35.334 12.5565 35.3213L7.45267 28.7177C7.43702 28.6974 7.42927 28.6722 7.43087 28.6466C7.43246 28.621 7.44329 28.5969 7.46134 28.5787L9.77362 26.2357C9.78431 26.2247 9.79734 26.2161 9.81175 26.2107C9.82617 26.2053 9.84161 26.2032 9.85696 26.2045L16.1676 26.6918C16.1823 26.693 16.1967 26.6973 16.2097 26.7043C16.2227 26.7113 16.2341 26.721 16.2432 26.7327L18.1701 29.2253C18.1787 29.2366 18.185 29.2496 18.1886 29.2634C18.1921 29.2772 18.1929 29.2915 18.1908 29.3056L17.3314 34.9561C17.3278 34.977 17.318 34.9963 17.3032 35.0115C17.2885 35.0267 17.2695 35.0372 17.2488 35.0416C17.228 35.0459 17.2065 35.0439 17.1868 35.0359C17.1672 35.0279 17.1505 35.0142 17.1387 34.9965L16.6136 34.1628C16.5987 34.139 16.5938 34.1102 16.6001 34.0829C16.6064 34.0555 16.6233 34.0317 16.6471 34.0168C16.671 34.0019 16.6997 33.997 16.7272 34.0033C16.7546 34.0095 16.7784 34.0264 16.7933 34.0502L17.1662 34.6429L17.9721 29.3181L16.1045 26.8987L9.8902 26.4176L7.67859 28.6595L12.6298 35.0658L13.0836 34.2961C13.0977 34.2718 13.121 34.2542 13.1482 34.2471C13.1754 34.2399 13.2043 34.2439 13.2286 34.2581C13.2528 34.2722 13.2705 34.2954 13.2776 34.3226C13.2848 34.3497 13.2808 34.3786 13.2666 34.4029L12.7333 35.3107C12.7245 35.3256 12.7122 35.3381 12.6974 35.3472C12.6826 35.3562 12.6659 35.3615 12.6486 35.3627L12.6404 35.3622Z" fill="#252B4A"/>
<path id="Vector_9" d="M18.4532 24.4785L15.4441 31.1042L10.3926 26.4018L13.2403 20.3555C13.2403 20.3555 16.8225 21.9508 18.4532 24.4785Z" fill="#F7F7FF"/>
<path id="Vector_10" d="M15.4425 31.2297C15.4107 31.2296 15.38 31.2176 15.3567 31.1959L10.3057 26.493C10.2862 26.4748 10.2729 26.4508 10.2679 26.4246C10.2628 26.3984 10.2663 26.3712 10.2777 26.347L13.1254 20.3013C13.1394 20.2713 13.1645 20.248 13.1955 20.2365C13.2264 20.2249 13.2607 20.226 13.2909 20.2394C13.3269 20.256 16.9257 21.88 18.557 24.4094C18.5684 24.4272 18.5752 24.4476 18.5768 24.4687C18.5784 24.4898 18.5748 24.5109 18.5662 24.5302L15.557 31.1559C15.5487 31.174 15.5363 31.1899 15.5206 31.2024C15.505 31.2148 15.4867 31.2234 15.4672 31.2274C15.459 31.2287 15.4508 31.2295 15.4425 31.2297ZM10.545 26.3711L15.4002 30.8931L18.3092 24.4896C16.8633 22.3018 13.9102 20.8136 13.3 20.5222L10.545 26.3711Z" fill="#252B4A"/>
<path id="Vector_11" d="M10.1828 17.8723C9.6631 17.0005 9.19659 16.0406 9.22807 15.0252C9.25955 14.0097 9.94415 12.9525 10.9499 12.8185C10.6734 11.6502 11.1399 10.3388 12.0947 9.60844C13.0495 8.87805 14.4347 8.76757 15.4914 9.33827C16.6471 8.01257 18.7106 7.64679 20.3208 8.35315C21.931 9.0595 23.0346 10.7183 23.2309 12.4659C23.3151 13.2163 23.2395 14.008 22.8663 14.6651C22.3437 15.5844 21.3036 16.115 20.2584 16.2793C19.6631 16.3726 18.9865 16.3938 18.5824 16.8414C18.3311 17.119 18.2452 17.5025 18.1245 17.8569C17.9088 18.484 17.5664 19.0602 17.1187 19.5495C16.6709 20.0388 16.1273 20.4308 15.5217 20.7012C14.5355 21.1345 12.8314 21.3921 11.8583 20.767C11.4805 20.5249 11.4101 20.0635 11.2258 19.6748C10.927 19.0486 10.5383 18.4693 10.1828 17.8723Z" fill="#252B4A"/>
<path id="Vector_12" d="M21.7971 18.5632C22.2768 20.2232 22.4462 22.1121 21.5406 23.5798C20.7524 24.8586 19.1709 25.5975 17.6837 25.3823C16.1966 25.1671 14.8898 24.0085 14.4966 22.5598C13.0879 22.546 11.7444 21.5432 11.33 20.1969C11.1743 19.6908 11.1823 19.052 11.6088 18.7361C12.0959 18.3766 12.7725 18.6617 13.3306 18.8963C13.8887 19.131 14.3082 19.5483 14.6047 19.02C14.3941 17.6857 13.3701 15.4138 15.3306 14.7555C16.0604 14.5088 20.1428 13.8076 20.1428 13.8076C20.1428 13.8076 21.5389 17.6702 21.7971 18.5632Z" fill="#F7F7FF"/>
<path id="Vector_13" d="M18.1998 25.5414C18.0217 25.5415 17.8438 25.5287 17.6675 25.5031C16.1661 25.2861 14.8369 24.1293 14.4048 22.6794C12.9692 22.6222 11.6372 21.6056 11.2136 20.2301C11.0487 19.6943 11.047 18.9925 11.5376 18.6307C12.0825 18.2301 12.8032 18.5323 13.3824 18.7761C13.5129 18.8334 13.632 18.8935 13.7471 18.9536C14.1661 19.1728 14.3269 19.2289 14.4763 18.9914C14.438 18.7624 14.3756 18.4997 14.3097 18.2255C14.0046 16.9519 13.5868 15.2077 15.2943 14.6319C16.0247 14.3858 19.9583 13.708 20.1254 13.6794C20.1545 13.6746 20.1844 13.6802 20.2098 13.695C20.2353 13.7098 20.2548 13.733 20.2651 13.7607C20.3223 13.9187 21.6652 17.637 21.9216 18.5243C22.5335 20.637 22.4425 22.3594 21.652 23.6416C20.9308 24.8093 19.5656 25.5414 18.1998 25.5414ZM12.1661 18.6886C11.9939 18.6835 11.8248 18.735 11.6847 18.8351C11.3 19.1213 11.3189 19.7252 11.4517 20.1574C11.8524 21.4619 13.1352 22.4178 14.4992 22.4315C14.5267 22.4319 14.5532 22.4413 14.5749 22.4581C14.5966 22.4749 14.6122 22.4984 14.6194 22.5248C14.9995 23.925 16.2674 25.048 17.7036 25.2558C19.1397 25.4636 20.6738 24.7458 21.4351 23.5111C22.1872 22.2919 22.2685 20.6376 21.6778 18.5958C21.4488 17.7945 20.2817 14.558 20.0619 13.9473C19.4208 14.0618 16.0201 14.6536 15.3721 14.8723C13.8839 15.3749 14.2388 16.8591 14.5519 18.1682C14.6234 18.4659 14.691 18.7464 14.7305 18.9982C14.7348 19.0262 14.7296 19.0549 14.7156 19.0795C14.4259 19.5947 14.0024 19.3743 13.628 19.1785C13.5175 19.1213 13.403 19.0641 13.2846 19.0103C12.9171 18.8563 12.5187 18.6886 12.1661 18.6886Z" fill="#252B4A"/>
<path id="Vector_14" d="M13.943 20.892C13.9249 20.8921 13.907 20.8884 13.8905 20.8809C13.874 20.8735 13.8593 20.8627 13.8474 20.8491C13.6938 20.6748 13.5017 20.5387 13.2865 20.4514C13.0712 20.364 12.8386 20.328 12.607 20.346C12.5904 20.3479 12.5736 20.3464 12.5576 20.3416C12.5416 20.3368 12.5268 20.3288 12.514 20.3181C12.5012 20.3074 12.4907 20.2942 12.4832 20.2793C12.4756 20.2644 12.4712 20.2481 12.4701 20.2315C12.4674 20.1983 12.4779 20.1653 12.4994 20.1398C12.5208 20.1143 12.5514 20.0983 12.5846 20.0953C12.8559 20.0739 13.1285 20.116 13.3807 20.2181C13.6329 20.3202 13.858 20.4796 14.038 20.6837C14.0597 20.7091 14.0705 20.742 14.0682 20.7753C14.0658 20.8086 14.0505 20.8396 14.0254 20.8617C14.0024 20.8814 13.9732 20.8922 13.943 20.892Z" fill="#252B4A"/>
<path id="Vector_15" d="M20.2073 18.312C20.3624 19.0968 21.0258 19.6286 21.6887 19.4964C22.3515 19.3641 22.7631 18.6229 22.608 17.8364C22.4529 17.0499 21.79 16.5198 21.1272 16.6521C20.4643 16.7843 20.0527 17.5296 20.2073 18.312Z" fill="#F7F7FF"/>
<path id="Vector_16" d="M21.4907 19.6409C20.8416 19.6409 20.2383 19.0989 20.0877 18.3353C19.9195 17.4829 20.374 16.6753 21.1061 16.5287C21.2879 16.495 21.4749 16.5021 21.6537 16.5494C21.8324 16.5967 21.9985 16.6831 22.1398 16.8023C22.451 17.0583 22.6619 17.4159 22.7351 17.8121C22.9034 18.6638 22.4489 19.4721 21.7163 19.6186C21.642 19.6334 21.5664 19.6409 21.4907 19.6409ZM21.3339 16.7583C21.2737 16.7583 21.2138 16.764 21.1547 16.7754C20.5611 16.8928 20.1931 17.5705 20.3345 18.286C20.4758 19.0015 21.0729 19.4881 21.6676 19.3736C22.2623 19.2591 22.6292 18.5791 22.4879 17.863C22.4256 17.5264 22.2469 17.2224 21.983 17.0044C21.8012 16.8504 21.5721 16.7635 21.3339 16.7583Z" fill="#252B4A"/>
<path id="Vector_17" d="M17.7281 20.3818C17.0343 20.3818 16.4024 19.8512 16.253 19.0944C16.0847 18.2427 16.5913 17.4224 17.3818 17.2662C18.1723 17.1099 18.9525 17.676 19.1208 18.5255C19.2036 18.9273 19.1317 19.3456 18.9193 19.6966C18.8193 19.8649 18.685 20.0104 18.5253 20.1236C18.3656 20.2367 18.1839 20.3152 17.992 20.3537C17.9051 20.3718 17.8168 20.3812 17.7281 20.3818ZM17.6462 17.4923C17.5738 17.4923 17.5015 17.4994 17.4304 17.5135C16.7762 17.6451 16.3583 18.332 16.5003 19.0458C16.6422 19.7596 17.2885 20.2381 17.9433 20.1093C18.1011 20.0772 18.2503 20.0124 18.3814 19.919C18.5126 19.8257 18.6227 19.7058 18.7046 19.5673C18.8846 19.2706 18.9459 18.9169 18.8763 18.577C18.7481 17.9399 18.2215 17.4923 17.6462 17.4923Z" fill="#252B4A"/>
<path id="Vector_18" d="M18.9961 18.6764C18.9732 18.6764 18.9508 18.6701 18.9314 18.6581C18.9032 18.6408 18.8829 18.6131 18.8749 18.581C18.8668 18.5489 18.8717 18.5149 18.8884 18.4864C19.0785 18.1721 19.3086 17.9953 19.5753 17.9609C19.972 17.91 20.2851 18.2093 20.2983 18.2219C20.3223 18.2452 20.336 18.2771 20.3365 18.3105C20.337 18.344 20.3242 18.3762 20.3009 18.4002C20.2776 18.4242 20.2457 18.438 20.2122 18.4384C20.1788 18.4389 20.1465 18.4261 20.1226 18.4028C20.1174 18.3982 19.8804 18.1738 19.6074 18.2111C19.4242 18.2357 19.2565 18.3719 19.1088 18.6169C19.097 18.6359 19.0804 18.6515 19.0605 18.662C19.0407 18.6724 19.0184 18.6774 18.9961 18.6764Z" fill="#252B4A"/>
<path id="Vector_19" d="M16.3793 19.1939H16.3655L13.9328 18.9301C13.9008 18.9251 13.8719 18.908 13.8522 18.8823C13.8325 18.8566 13.8234 18.8243 13.8269 18.7921C13.8304 18.76 13.8461 18.7303 13.8708 18.7094C13.8956 18.6885 13.9274 18.678 13.9597 18.6799L16.393 18.9438C16.4244 18.948 16.4531 18.9639 16.4733 18.9883C16.4935 19.0127 16.5038 19.0439 16.5021 19.0755C16.5003 19.1072 16.4867 19.137 16.464 19.1591C16.4412 19.1811 16.411 19.1938 16.3793 19.1945V19.1939Z" fill="#252B4A"/>
</g>
</g>
</g>
<g id="Group_3">
<path id="Vector_20" d="M12.413 41.7469L14.1141 45.0004L15.909 42.7399C15.9748 41.266 16 40.5489 16 39.0005C16 38.0005 15.909 36.5992 15.8494 35.4007C16.2488 34.7599 16.6479 34.119 17.0467 33.4782L15.0234 30.3242L12.4102 32.8399L13.7733 35.4988C13.7733 36.7641 13.0763 37.5988 12.413 41.7469Z" fill="#4F56B2"/>
<path id="Vector_21" d="M17.2215 34.9325L14.9499 31.3258L12.6437 35.2479L7.54688 28.6569L9.855 26.3184L16.1579 26.8048L18.0792 29.2926L17.2215 34.9325Z" fill="#F7F7FF"/>
<path id="Vector_22" d="M12.6413 35.3622C12.6252 35.3622 12.6092 35.3585 12.5947 35.3514C12.5802 35.3443 12.5674 35.334 12.5575 35.3213L7.45364 28.7177C7.43799 28.6974 7.43025 28.6722 7.43185 28.6466C7.43344 28.621 7.44427 28.5969 7.46232 28.5787L9.7746 26.2357C9.78529 26.2247 9.79831 26.2161 9.81273 26.2107C9.82715 26.2053 9.84259 26.2032 9.85794 26.2045L16.1685 26.6918C16.1833 26.693 16.1977 26.6973 16.2107 26.7043C16.2237 26.7113 16.2351 26.721 16.2442 26.7327L18.1711 29.2253C18.1797 29.2366 18.186 29.2496 18.1896 29.2634C18.1931 29.2772 18.1939 29.2915 18.1918 29.3056L17.3324 34.9561C17.3288 34.977 17.3189 34.9963 17.3042 35.0115C17.2895 35.0267 17.2705 35.0372 17.2498 35.0416C17.229 35.0459 17.2074 35.0439 17.1878 35.0359C17.1682 35.0279 17.1514 35.0142 17.1397 34.9965L16.6146 34.1628C16.5997 34.139 16.5948 34.1102 16.6011 34.0829C16.6074 34.0555 16.6243 34.0317 16.6481 34.0168C16.6719 34.0019 16.7007 33.997 16.7281 34.0033C16.7556 34.0095 16.7794 34.0264 16.7943 34.0502L17.1672 34.6429L17.9731 29.3181L16.1054 26.8987L9.89118 26.4176L7.67957 28.6595L12.6307 35.0658L13.0845 34.2961C13.0987 34.2718 13.122 34.2542 13.1492 34.2471C13.1763 34.2399 13.2053 34.2439 13.2295 34.2581C13.2538 34.2722 13.2715 34.2954 13.2786 34.3226C13.2857 34.3497 13.2818 34.3786 13.2676 34.4029L12.7343 35.3107C12.7255 35.3256 12.7132 35.3381 12.6984 35.3472C12.6836 35.3562 12.6668 35.3615 12.6495 35.3627L12.6413 35.3622Z" fill="#252B4A"/>
<path id="Vector_23" d="M18.4532 24.4776L15.4441 31.1032L10.3926 26.4009L13.2403 20.3545C13.2403 20.3545 16.8225 21.9498 18.4532 24.4776Z" fill="white"/>
<path id="Vector_24" d="M15.4425 31.2287C15.4107 31.2287 15.38 31.2166 15.3567 31.1949L10.3057 26.492C10.2862 26.4738 10.2729 26.4499 10.2679 26.4236C10.2628 26.3974 10.2663 26.3702 10.2777 26.3461L13.1254 20.3003C13.1394 20.2703 13.1645 20.2471 13.1955 20.2355C13.2264 20.2239 13.2607 20.225 13.2909 20.2385C13.3269 20.2551 16.9257 21.879 18.557 24.4085C18.5684 24.4263 18.5752 24.4466 18.5768 24.4677C18.5784 24.4888 18.5748 24.5099 18.5662 24.5292L15.557 31.1549C15.5487 31.173 15.5363 31.189 15.5206 31.2014C15.505 31.2138 15.4867 31.2224 15.4672 31.2264C15.459 31.2278 15.4508 31.2285 15.4425 31.2287ZM10.545 26.3701L15.4002 30.8921L18.3092 24.4886C16.8633 22.3008 13.9102 20.8126 13.3 20.5212L10.545 26.3701Z" fill="#252B4A"/>
<path id="Vector_25" d="M10.1838 17.8723C9.66408 17.0005 9.19756 16.0406 9.22905 15.0252C9.26053 14.0097 9.94513 12.9525 10.9509 12.8185C10.6744 11.6502 11.1409 10.3388 12.0957 9.60844C13.0505 8.87805 14.4357 8.76757 15.4924 9.33827C16.648 8.01257 18.7116 7.64679 20.3218 8.35315C21.932 9.0595 23.0356 10.7183 23.2319 12.4659C23.316 13.2163 23.2405 14.008 22.8673 14.6651C22.3447 15.5844 21.3046 16.115 20.2594 16.2793C19.6641 16.3726 18.9875 16.3938 18.5834 16.8414C18.3321 17.119 18.2462 17.5025 18.1254 17.8569C17.9097 18.484 17.5674 19.0602 17.1196 19.5495C16.6719 20.0388 16.1283 20.4308 15.5227 20.7012C14.5364 21.1345 12.8324 21.3921 11.8593 20.767C11.4815 20.5249 11.4111 20.0635 11.2268 19.6748C10.928 19.0486 10.5393 18.4693 10.1838 17.8723Z" fill="#4F56B2"/>
<path id="Vector_26" d="M21.798 18.5622C22.2777 20.2222 22.4472 22.1112 21.5416 23.5788C20.7534 24.8576 19.1718 25.5966 17.6847 25.3813C16.1976 25.1661 14.8908 24.0076 14.4975 22.5588C13.0888 22.545 11.7454 21.5422 11.331 20.1959C11.1753 19.6899 11.1833 19.0511 11.6097 18.7351C12.0968 18.3756 12.7734 18.6607 13.3315 18.8954C13.8896 19.1301 14.3092 19.5473 14.6057 19.019C14.3951 17.6847 13.371 15.4128 15.3315 14.7546C16.0614 14.5078 20.1438 13.8066 20.1438 13.8066C20.1438 13.8066 21.5399 17.6693 21.798 18.5622Z" fill="white"/>
<path id="Vector_27" d="M18.1998 25.5414C18.0217 25.5415 17.8438 25.5287 17.6675 25.5031C16.1661 25.2861 14.8369 24.1293 14.4048 22.6794C12.9692 22.6222 11.6372 21.6056 11.2136 20.2301C11.0487 19.6943 11.047 18.9925 11.5376 18.6307C12.0825 18.2301 12.8032 18.5323 13.3824 18.7761C13.5129 18.8334 13.632 18.8935 13.7471 18.9536C14.1661 19.1728 14.3269 19.2289 14.4763 18.9914C14.438 18.7624 14.3756 18.4997 14.3097 18.2255C14.0046 16.9519 13.5868 15.2077 15.2943 14.6319C16.0247 14.3858 19.9583 13.708 20.1254 13.6794C20.1545 13.6746 20.1844 13.6802 20.2098 13.695C20.2353 13.7098 20.2548 13.733 20.2651 13.7607C20.3223 13.9187 21.6652 17.637 21.9216 18.5243C22.5335 20.637 22.4425 22.3594 21.652 23.6416C20.9308 24.8093 19.5656 25.5414 18.1998 25.5414ZM12.1661 18.6886C11.9939 18.6835 11.8248 18.735 11.6847 18.8351C11.3 19.1213 11.3189 19.7252 11.4517 20.1574C11.8524 21.4619 13.1352 22.4178 14.4992 22.4315C14.5267 22.4319 14.5532 22.4413 14.5749 22.4581C14.5966 22.4749 14.6122 22.4984 14.6194 22.5248C14.9995 23.925 16.2674 25.048 17.7036 25.2558C19.1397 25.4636 20.6738 24.7458 21.4351 23.5111C22.1872 22.2919 22.2685 20.6376 21.6778 18.5958C21.4488 17.7945 20.2817 14.558 20.0619 13.9473C19.4208 14.0618 16.0201 14.6536 15.3721 14.8723C13.8839 15.3749 14.2388 16.8591 14.5519 18.1682C14.6234 18.4659 14.691 18.7464 14.7305 18.9982C14.7348 19.0262 14.7296 19.0549 14.7156 19.0795C14.4259 19.5947 14.0024 19.3743 13.628 19.1785C13.5175 19.1213 13.403 19.0641 13.2846 19.0103C12.9171 18.8563 12.5187 18.6886 12.1661 18.6886Z" fill="#252B4A"/>
<path id="Vector_28" d="M13.943 20.892C13.9249 20.8921 13.907 20.8884 13.8905 20.8809C13.874 20.8735 13.8593 20.8627 13.8474 20.8491C13.6938 20.6748 13.5017 20.5387 13.2865 20.4514C13.0712 20.364 12.8386 20.328 12.607 20.346C12.5904 20.3479 12.5736 20.3464 12.5576 20.3416C12.5416 20.3368 12.5268 20.3288 12.514 20.3181C12.5012 20.3074 12.4907 20.2942 12.4832 20.2793C12.4756 20.2644 12.4712 20.2481 12.4701 20.2315C12.4674 20.1983 12.4779 20.1653 12.4994 20.1398C12.5208 20.1143 12.5514 20.0983 12.5846 20.0953C12.8559 20.0739 13.1285 20.116 13.3807 20.2181C13.6329 20.3202 13.858 20.4796 14.038 20.6837C14.0597 20.7091 14.0705 20.742 14.0682 20.7753C14.0658 20.8086 14.0505 20.8396 14.0254 20.8617C14.0024 20.8814 13.9732 20.8922 13.943 20.892Z" fill="#252B4A"/>
<path id="Vector_29" d="M20.2083 18.312C20.3634 19.0968 21.0268 19.6286 21.6897 19.4964C22.3525 19.3641 22.7641 18.6229 22.609 17.8364C22.4538 17.0499 21.791 16.5198 21.1281 16.6521C20.4653 16.7843 20.0537 17.5296 20.2083 18.312Z" fill="white"/>
<path id="Vector_30" d="M21.4907 19.6409C20.8416 19.6409 20.2383 19.0989 20.0877 18.3353C19.9195 17.4829 20.374 16.6753 21.1061 16.5287C21.2879 16.495 21.4749 16.5021 21.6537 16.5494C21.8324 16.5967 21.9985 16.6831 22.1398 16.8023C22.451 17.0583 22.6619 17.4159 22.7351 17.8121C22.9034 18.6638 22.4489 19.4721 21.7163 19.6186C21.642 19.6334 21.5664 19.6409 21.4907 19.6409ZM21.3339 16.7583C21.2737 16.7583 21.2138 16.764 21.1547 16.7754C20.5611 16.8928 20.1931 17.5705 20.3345 18.286C20.4758 19.0015 21.0729 19.4881 21.6676 19.3736C22.2623 19.2591 22.6292 18.5791 22.4879 17.863C22.4256 17.5264 22.2469 17.2224 21.983 17.0044C21.8012 16.8504 21.5721 16.7635 21.3339 16.7583Z" fill="#252B4A"/>
<path id="Vector_31" d="M17.7291 20.3818C17.0353 20.3818 16.4034 19.8512 16.254 19.0944C16.0857 18.2427 16.5923 17.4224 17.3827 17.2662C18.1732 17.1099 18.9534 17.676 19.1217 18.5255C19.2046 18.9273 19.1326 19.3456 18.9202 19.6966C18.8202 19.8649 18.686 20.0104 18.5263 20.1236C18.3666 20.2367 18.1849 20.3152 17.9929 20.3537C17.9061 20.3718 17.8177 20.3812 17.7291 20.3818ZM17.6472 17.4923C17.5748 17.4923 17.5025 17.4994 17.4314 17.5135C16.7771 17.6451 16.3593 18.332 16.5012 19.0458C16.6432 19.7596 17.2894 20.2381 17.9443 20.1093C18.102 20.0772 18.2513 20.0124 18.3824 19.919C18.5136 19.8257 18.6236 19.7058 18.7056 19.5673C18.8855 19.2706 18.9469 18.9169 18.8773 18.577C18.7491 17.9399 18.2225 17.4923 17.6472 17.4923Z" fill="#252B4A"/>
<path id="Vector_32" d="M18.997 18.6764C18.9742 18.6764 18.9518 18.6701 18.9323 18.6581C18.9042 18.6408 18.8839 18.6131 18.8758 18.581C18.8678 18.5489 18.8727 18.5149 18.8894 18.4864C19.0795 18.1721 19.3096 17.9953 19.5763 17.9609C19.973 17.91 20.2861 18.2093 20.2993 18.2219C20.3232 18.2452 20.337 18.2771 20.3375 18.3105C20.338 18.344 20.3251 18.3762 20.3018 18.4002C20.2785 18.4242 20.2467 18.438 20.2132 18.4384C20.1798 18.4389 20.1475 18.4261 20.1235 18.4028C20.1184 18.3982 19.8814 18.1738 19.6084 18.2111C19.4252 18.2357 19.2575 18.3719 19.1098 18.6169C19.098 18.6359 19.0813 18.6515 19.0615 18.662C19.0417 18.6724 19.0194 18.6774 18.997 18.6764Z" fill="#252B4A"/>
<path id="Vector_33" d="M16.3793 19.1939H16.3655L13.9328 18.9301C13.9008 18.9251 13.8719 18.908 13.8522 18.8823C13.8325 18.8566 13.8234 18.8243 13.8269 18.7921C13.8304 18.76 13.8461 18.7303 13.8708 18.7094C13.8956 18.6885 13.9274 18.678 13.9597 18.6799L16.393 18.9438C16.4244 18.948 16.4531 18.9639 16.4733 18.9883C16.4935 19.0127 16.5038 19.0439 16.5021 19.0755C16.5003 19.1072 16.4867 19.137 16.464 19.1591C16.4412 19.1811 16.411 19.1938 16.3793 19.1945V19.1939Z" fill="#252B4A"/>
</g>
</g>
</g>
</svg>
