<svg width="187" height="46" viewBox="0 0 187 46" fill="none" xmlns="http://www.w3.org/2000/svg">
<rect x="9.5" y="10.3574" width="25.7619" height="25.7619" rx="12.881" fill="#FFEBE3" stroke="#EE8253"/>
<mask id="mask0_3847_4441" style="mask-type:alpha" maskUnits="userSpaceOnUse" x="10" y="10" width="25" height="26">
<rect x="10.1327" y="10.9901" width="24.4966" height="24.4966" rx="12.2483" fill="#FFEBE3" stroke="#EE8253" stroke-width="0.265306"/>
</mask>
<g mask="url(#mask0_3847_4441)">
<path d="M6.64482 59.9488C9.95049 60.0913 17.0054 61.1617 22.1508 61.0736C25.429 61.0163 27.567 60.1406 27.9894 56.8916C28.7 51.5646 29.9727 46.3278 31.7862 41.2688C35.1205 42.0541 42.9024 42.3564 48.1749 38.0524C51.595 35.2619 55.4988 30.7771 58.2836 24.9763C55.5303 24.4674 52.8944 22.6615 50.3672 19.6426C50.3672 19.6426 45.1668 24.7553 42.0277 27.5355C41.4502 28.0468 40.7748 28.4356 40.0426 28.6782C39.3104 28.9209 38.5365 29.0123 37.7679 28.9471C33.9791 28.6283 26.8852 28.0358 25.4754 27.9505C21.6975 27.7216 15.0501 27.543 9.20063 28.5275C8.20591 28.6955 7.26744 29.1044 6.4672 29.7187C5.66696 30.3329 5.02929 31.1338 4.6099 32.0513C3.04894 35.4623 0.419867 41.3358 -1.36033 45.9912C-2.5538 49.1137 -1.80166 52.0873 2.6929 54.4056C2.6929 54.4056 4.45993 55.2762 4.66199 58.0118C4.80338 59.9402 4.71752 59.8658 6.64482 59.9488Z" fill="#F7F7FF"/>
<path d="M21.5417 61.2039C18.3574 61.2039 14.5263 60.8112 11.4101 60.4924C9.48849 60.2955 7.8285 60.1255 6.63903 60.074L6.44098 60.066C4.72718 59.9944 4.67395 59.9435 4.55203 58.2486L4.536 58.0265C4.34138 55.3985 2.65335 54.5285 2.63617 54.5205C-1.46113 52.4025 -2.84522 49.5199 -1.47831 45.9458C0.331652 41.2119 3.04373 35.1753 4.49479 31.9979C4.92277 31.061 5.57393 30.2434 6.39123 29.6166C7.20853 28.9898 8.16704 28.5729 9.18282 28.4025C15.1313 27.4014 21.9504 27.6103 25.4862 27.8244C26.8771 27.9086 33.7861 28.485 37.7815 28.821C38.5331 28.8832 39.2895 28.7931 40.0053 28.556C40.7212 28.3188 41.3818 27.9395 41.9475 27.4409C45.0477 24.6933 50.2297 19.6029 50.2818 19.5519C50.2942 19.5397 50.309 19.5302 50.3252 19.524C50.3414 19.5177 50.3588 19.515 50.3762 19.5158C50.3935 19.5166 50.4105 19.521 50.4261 19.5287C50.4417 19.5364 50.4555 19.5472 50.4667 19.5605C52.9899 22.576 55.6287 24.3562 58.3087 24.8519C58.3278 24.8553 58.3457 24.8631 58.3612 24.8747C58.3767 24.8862 58.3894 24.9012 58.3981 24.9185C58.4069 24.9357 58.4115 24.9547 58.4117 24.9741C58.4119 24.9934 58.4076 25.0125 58.3992 25.0299C55.0729 31.9561 50.6144 36.2234 48.2566 38.149C45.9424 40.0379 42.8354 41.2623 39.2698 41.6928C35.6064 42.1347 32.7953 41.6241 31.868 41.4157C30.0801 46.4344 28.8223 51.6263 28.1153 56.9068C27.9069 58.4981 27.283 59.6034 26.2069 60.284C25.2738 60.8759 23.9853 61.1661 22.1513 61.1999C21.9521 61.2026 21.7489 61.2039 21.5417 61.2039ZM19.647 27.8982C16.4227 27.8982 12.6757 28.07 9.22518 28.651C8.24992 28.8144 7.32963 29.2146 6.54495 29.8163C5.76027 30.4181 5.13513 31.2031 4.72432 32.1026C3.27155 35.2772 0.564622 41.3087 -1.24247 46.0356C-2.57447 49.5187 -1.26823 52.2176 2.75066 54.2955C2.82335 54.3316 4.58237 55.2291 4.78729 58.0076L4.80389 58.2302C4.86113 59.0127 4.8886 59.406 5.07464 59.5851C5.26067 59.7643 5.65964 59.7809 6.45185 59.8141L6.65048 59.8227C7.84739 59.8742 9.51253 60.0442 11.4364 60.2417C14.7478 60.5811 18.8703 61.0036 22.149 60.9469C25.8405 60.8839 27.4976 59.7036 27.868 56.8742C28.5823 51.5389 29.8568 46.2938 31.6705 41.2257C31.6811 41.1966 31.702 41.1725 31.7292 41.1577C31.7564 41.143 31.788 41.1386 31.8182 41.1455C35.6762 42.0539 43.1965 41.9543 48.0987 37.9538C50.4261 36.0551 54.805 31.8656 58.1021 25.0677C55.4495 24.5273 52.8468 22.7655 50.362 19.8267C49.6333 20.5411 44.9847 25.0866 42.1147 27.6292C41.5235 28.1504 40.8331 28.5469 40.085 28.7947C39.3369 29.0426 38.5464 29.1368 37.7609 29.0717C33.7672 28.7357 26.8594 28.1593 25.4713 28.0757C24.0002 27.9864 21.9573 27.8982 19.647 27.8982Z" fill="#252B4A"/>
<path d="M26.7369 33.4442L26.41 29.2862L16.5886 27.1729L-1.26367 66.8534L16.0391 66.8254L26.7369 33.4442Z" fill="#F7F7FF"/>
<path d="M14.7564 27.1719C7.12335 27.1719 0.15026 28.9275 -3.76044 35.987C-6.50801 40.9452 -9.69175 47.0614 -12.0947 51.8645V66.7826H1.07069L17.2728 27.3161C17.1125 27.272 14.9201 27.1719 14.7564 27.1719Z" fill="#F7F7FF"/>
<path d="M2.30906 66.9055C2.28876 66.9051 2.26884 66.8999 2.25101 66.8902C2.23319 66.8805 2.218 66.8666 2.20673 66.8497C2.19547 66.8328 2.18848 66.8134 2.18636 66.7932C2.18424 66.773 2.18706 66.7526 2.19458 66.7337L18.3337 27.4201C17.8145 27.376 16.1722 27.3005 15.9977 27.3005C6.74695 27.3005 0.898067 30.0806 -2.40932 36.0497C-4.93078 40.601 -8.04698 46.5374 -10.7442 51.9295C-10.7517 51.9443 -10.7621 51.9575 -10.7747 51.9683C-10.7873 51.9791 -10.8019 51.9873 -10.8177 51.9925C-10.8335 51.9976 -10.8501 51.9996 -10.8667 51.9984C-10.8832 51.9971 -10.8994 51.9926 -10.9142 51.985C-10.929 51.9775 -10.9422 51.9672 -10.953 51.9546C-10.9638 51.9419 -10.972 51.9273 -10.9771 51.9115C-10.9823 51.8958 -10.9843 51.8791 -10.983 51.8625C-10.9817 51.846 -10.9772 51.8298 -10.9697 51.815C-8.27022 46.4201 -5.15288 40.4813 -2.62969 35.9261C-0.779094 32.5861 1.81335 30.2592 5.29532 28.8168C8.1671 27.6256 11.668 27.0469 15.9994 27.0469C16.1242 27.0469 18.3646 27.1436 18.5466 27.1917C18.5639 27.1961 18.5801 27.2043 18.5941 27.2155C18.608 27.2268 18.6193 27.2409 18.6273 27.257C18.6353 27.273 18.6398 27.2907 18.6405 27.3086C18.6412 27.3266 18.6381 27.3445 18.6313 27.3611L2.42583 66.8276C2.41629 66.8507 2.40009 66.8705 2.37929 66.8843C2.3585 66.8982 2.33405 66.9055 2.30906 66.9055Z" fill="#252B4A"/>
<path d="M20.413 44.7469L22.1141 48.0004L23.909 45.7399C23.9748 44.266 24.0175 42.7548 24.0372 41.2065C24.0749 38.041 24.0034 39.2846 23.8494 36.4007C24.2488 35.7599 24.6479 35.119 25.0467 34.4782L23.0234 31.3242L20.4102 33.8399L21.7733 36.4988C21.5303 40.6934 21.0763 40.5988 20.413 44.7469Z" fill="#EE8253"/>
<path d="M25.2205 35.9325L22.9489 32.3258L20.6427 36.2479L15.5459 29.6569L17.854 27.3184L24.1569 27.8048L26.0782 30.2926L25.2205 35.9325Z" fill="#F7F7FF"/>
<path d="M20.6404 36.3622C20.6242 36.3622 20.6082 36.3585 20.5937 36.3514C20.5792 36.3443 20.5665 36.334 20.5565 36.3213L15.4527 29.7177C15.437 29.6974 15.4293 29.6722 15.4309 29.6466C15.4325 29.621 15.4433 29.5969 15.4613 29.5787L17.7736 27.2357C17.7843 27.2247 17.7973 27.2161 17.8118 27.2107C17.8262 27.2053 17.8416 27.2032 17.857 27.2045L24.1676 27.6918C24.1823 27.693 24.1967 27.6973 24.2097 27.7043C24.2227 27.7113 24.2341 27.721 24.2432 27.7327L26.1701 30.2253C26.1787 30.2366 26.185 30.2496 26.1886 30.2634C26.1921 30.2772 26.1929 30.2915 26.1908 30.3056L25.3314 35.9561C25.3278 35.977 25.318 35.9963 25.3032 36.0115C25.2885 36.0267 25.2695 36.0372 25.2488 36.0416C25.228 36.0459 25.2065 36.0439 25.1868 36.0359C25.1672 36.0279 25.1505 36.0142 25.1387 35.9965L24.6136 35.1628C24.5987 35.139 24.5938 35.1102 24.6001 35.0829C24.6064 35.0555 24.6233 35.0317 24.6471 35.0168C24.671 35.0019 24.6997 34.997 24.7272 35.0033C24.7546 35.0095 24.7784 35.0264 24.7933 35.0502L25.1662 35.6429L25.9721 30.3181L24.1045 27.8987L17.8902 27.4176L15.6786 29.6595L20.6298 36.0658L21.0836 35.2961C21.0977 35.2718 21.121 35.2542 21.1482 35.2471C21.1754 35.2399 21.2043 35.2439 21.2286 35.2581C21.2528 35.2722 21.2705 35.2954 21.2776 35.3226C21.2848 35.3497 21.2808 35.3786 21.2666 35.4029L20.7333 36.3107C20.7245 36.3256 20.7122 36.3381 20.6974 36.3472C20.6826 36.3562 20.6659 36.3615 20.6486 36.3627L20.6404 36.3622Z" fill="#252B4A"/>
<path d="M26.4532 25.4785L23.4441 32.1042L18.3926 27.4018L21.2403 21.3555C21.2403 21.3555 24.8225 22.9508 26.4532 25.4785Z" fill="#F7F7FF"/>
<path d="M23.4425 32.2297C23.4107 32.2296 23.38 32.2176 23.3567 32.1959L18.3057 27.493C18.2862 27.4748 18.2729 27.4508 18.2679 27.4246C18.2628 27.3984 18.2663 27.3712 18.2777 27.347L21.1254 21.3013C21.1394 21.2713 21.1645 21.248 21.1955 21.2365C21.2264 21.2249 21.2607 21.226 21.2909 21.2394C21.3269 21.256 24.9257 22.88 26.557 25.4094C26.5684 25.4272 26.5752 25.4476 26.5768 25.4687C26.5784 25.4898 26.5748 25.5109 26.5662 25.5302L23.557 32.1559C23.5487 32.174 23.5363 32.1899 23.5206 32.2024C23.505 32.2148 23.4867 32.2234 23.4672 32.2274C23.459 32.2287 23.4508 32.2295 23.4425 32.2297ZM18.545 27.3711L23.4002 31.8931L26.3092 25.4896C24.8633 23.3018 21.9102 21.8136 21.3 21.5222L18.545 27.3711Z" fill="#252B4A"/>
<path d="M18.1828 18.8723C17.6631 18.0005 17.1966 17.0406 17.2281 16.0252C17.2596 15.0097 17.9442 13.9525 18.9499 13.8185C18.6734 12.6502 19.1399 11.3388 20.0947 10.6084C21.0495 9.87805 22.4347 9.76757 23.4914 10.3383C24.6471 9.01257 26.7106 8.64679 28.3208 9.35315C29.931 10.0595 31.0346 11.7183 31.2309 13.4659C31.3151 14.2163 31.2395 15.008 30.8663 15.6651C30.3437 16.5844 29.3036 17.115 28.2584 17.2793C27.6631 17.3726 26.9865 17.3938 26.5824 17.8414C26.3311 18.119 26.2452 18.5025 26.1245 18.8569C25.9088 19.484 25.5664 20.0602 25.1187 20.5495C24.6709 21.0388 24.1273 21.4308 23.5217 21.7012C22.5355 22.1345 20.8314 22.3921 19.8583 21.767C19.4805 21.5249 19.4101 21.0635 19.2258 20.6748C18.927 20.0486 18.5383 19.4693 18.1828 18.8723Z" fill="#252B4A"/>
<path d="M29.7971 19.5632C30.2768 21.2232 30.4462 23.1121 29.5406 24.5798C28.7524 25.8586 27.1709 26.5975 25.6837 26.3823C24.1966 26.1671 22.8898 25.0085 22.4966 23.5598C21.0879 23.546 19.7444 22.5432 19.33 21.1969C19.1743 20.6908 19.1823 20.052 19.6088 19.7361C20.0959 19.3766 20.7725 19.6617 21.3306 19.8963C21.8887 20.131 22.3082 20.5483 22.6047 20.02C22.3941 18.6857 21.3701 16.4138 23.3306 15.7555C24.0604 15.5088 28.1428 14.8076 28.1428 14.8076C28.1428 14.8076 29.5389 18.6702 29.7971 19.5632Z" fill="#F7F7FF"/>
<path d="M26.1998 26.5414C26.0217 26.5415 25.8438 26.5287 25.6675 26.5031C24.1661 26.2861 22.8369 25.1293 22.4048 23.6794C20.9692 23.6222 19.6372 22.6056 19.2136 21.2301C19.0487 20.6943 19.047 19.9925 19.5376 19.6307C20.0825 19.2301 20.8032 19.5323 21.3824 19.7761C21.5129 19.8334 21.632 19.8935 21.7471 19.9536C22.1661 20.1728 22.3269 20.2289 22.4763 19.9914C22.438 19.7624 22.3756 19.4997 22.3097 19.2255C22.0046 17.9519 21.5868 16.2077 23.2943 15.6319C24.0247 15.3858 27.9583 14.708 28.1254 14.6794C28.1545 14.6746 28.1844 14.6802 28.2098 14.695C28.2353 14.7098 28.2548 14.733 28.2651 14.7607C28.3223 14.9187 29.6652 18.637 29.9216 19.5243C30.5335 21.637 30.4425 23.3594 29.652 24.6416C28.9308 25.8093 27.5656 26.5414 26.1998 26.5414ZM20.1661 19.6886C19.9939 19.6835 19.8248 19.735 19.6847 19.8351C19.3 20.1213 19.3189 20.7252 19.4517 21.1574C19.8524 22.4619 21.1352 23.4178 22.4992 23.4315C22.5267 23.4319 22.5532 23.4413 22.5749 23.4581C22.5966 23.4749 22.6122 23.4984 22.6194 23.5248C22.9995 24.925 24.2674 26.048 25.7036 26.2558C27.1397 26.4636 28.6738 25.7458 29.4351 24.5111C30.1872 23.2919 30.2685 21.6376 29.6778 19.5958C29.4488 18.7945 28.2817 15.558 28.0619 14.9473C27.4208 15.0618 24.0201 15.6536 23.3721 15.8723C21.8839 16.3749 22.2388 17.8591 22.5519 19.1682C22.6234 19.4659 22.691 19.7464 22.7305 19.9982C22.7348 20.0262 22.7296 20.0549 22.7156 20.0795C22.4259 20.5947 22.0024 20.3743 21.628 20.1785C21.5175 20.1213 21.403 20.0641 21.2846 20.0103C20.9171 19.8563 20.5187 19.6886 20.1661 19.6886Z" fill="#252B4A"/>
<path d="M21.943 21.892C21.9249 21.8921 21.907 21.8884 21.8905 21.8809C21.874 21.8735 21.8593 21.8627 21.8474 21.8491C21.6938 21.6748 21.5017 21.5387 21.2865 21.4514C21.0712 21.364 20.8386 21.328 20.607 21.346C20.5904 21.3479 20.5736 21.3464 20.5576 21.3416C20.5416 21.3368 20.5268 21.3288 20.514 21.3181C20.5012 21.3074 20.4907 21.2942 20.4832 21.2793C20.4756 21.2644 20.4712 21.2481 20.4701 21.2315C20.4674 21.1983 20.4779 21.1653 20.4994 21.1398C20.5208 21.1143 20.5514 21.0983 20.5846 21.0953C20.8559 21.0739 21.1285 21.116 21.3807 21.2181C21.6329 21.3202 21.858 21.4796 22.038 21.6837C22.0597 21.7091 22.0705 21.742 22.0682 21.7753C22.0658 21.8086 22.0505 21.8396 22.0254 21.8617C22.0024 21.8814 21.9732 21.8922 21.943 21.892Z" fill="#252B4A"/>
<path d="M28.2073 19.312C28.3624 20.0968 29.0258 20.6286 29.6887 20.4964C30.3515 20.3641 30.7631 19.6229 30.608 18.8364C30.4529 18.0499 29.79 17.5198 29.1272 17.6521C28.4643 17.7843 28.0527 18.5296 28.2073 19.312Z" fill="#F7F7FF"/>
<path d="M29.4907 20.6409C28.8416 20.6409 28.2383 20.0989 28.0877 19.3353C27.9195 18.4829 28.374 17.6753 29.1061 17.5287C29.2879 17.495 29.4749 17.5021 29.6537 17.5494C29.8324 17.5967 29.9985 17.6831 30.1398 17.8023C30.451 18.0583 30.6619 18.4159 30.7351 18.8121C30.9034 19.6638 30.4489 20.4721 29.7163 20.6186C29.642 20.6334 29.5664 20.6409 29.4907 20.6409ZM29.3339 17.7583C29.2737 17.7583 29.2138 17.764 29.1547 17.7754C28.5611 17.8928 28.1931 18.5705 28.3345 19.286C28.4758 20.0015 29.0729 20.4881 29.6676 20.3736C30.2623 20.2591 30.6292 19.5791 30.4879 18.863C30.4256 18.5264 30.2469 18.2224 29.983 18.0044C29.8012 17.8504 29.5721 17.7635 29.3339 17.7583Z" fill="#252B4A"/>
<path d="M25.7281 21.3818C25.0343 21.3818 24.4024 20.8512 24.253 20.0944C24.0847 19.2427 24.5913 18.4224 25.3818 18.2662C26.1723 18.1099 26.9525 18.676 27.1208 19.5255C27.2036 19.9273 27.1317 20.3456 26.9193 20.6966C26.8193 20.8649 26.685 21.0104 26.5253 21.1236C26.3656 21.2367 26.1839 21.3152 25.992 21.3537C25.9051 21.3718 25.8168 21.3812 25.7281 21.3818ZM25.6462 18.4923C25.5738 18.4923 25.5015 18.4994 25.4304 18.5135C24.7762 18.6451 24.3583 19.332 24.5003 20.0458C24.6422 20.7596 25.2885 21.2381 25.9433 21.1093C26.1011 21.0772 26.2503 21.0124 26.3814 20.919C26.5126 20.8257 26.6227 20.7058 26.7046 20.5673C26.8846 20.2706 26.9459 19.9169 26.8763 19.577C26.7481 18.9399 26.2215 18.4923 25.6462 18.4923Z" fill="#252B4A"/>
<path d="M26.9961 19.6764C26.9732 19.6764 26.9508 19.6701 26.9314 19.6581C26.9032 19.6408 26.8829 19.6131 26.8749 19.581C26.8668 19.5489 26.8717 19.5149 26.8884 19.4864C27.0785 19.1721 27.3086 18.9953 27.5753 18.9609C27.972 18.91 28.2851 19.2093 28.2983 19.2219C28.3223 19.2452 28.336 19.2771 28.3365 19.3105C28.337 19.344 28.3242 19.3762 28.3009 19.4002C28.2776 19.4242 28.2457 19.438 28.2122 19.4384C28.1788 19.4389 28.1465 19.4261 28.1226 19.4028C28.1174 19.3982 27.8804 19.1738 27.6074 19.2111C27.4242 19.2357 27.2565 19.3719 27.1088 19.6169C27.097 19.6359 27.0804 19.6515 27.0605 19.662C27.0407 19.6724 27.0184 19.6774 26.9961 19.6764Z" fill="#252B4A"/>
<path d="M24.3793 20.1939H24.3655L21.9328 19.9301C21.9008 19.9251 21.8719 19.908 21.8522 19.8823C21.8325 19.8566 21.8234 19.8243 21.8269 19.7921C21.8304 19.76 21.8461 19.7303 21.8708 19.7094C21.8956 19.6885 21.9274 19.678 21.9597 19.6799L24.393 19.9438C24.4244 19.948 24.4531 19.9639 24.4733 19.9883C24.4935 20.0127 24.5038 20.0439 24.5021 20.0755C24.5003 20.1072 24.4867 20.137 24.464 20.1591C24.4412 20.1811 24.411 20.1938 24.3793 20.1945V20.1939Z" fill="#252B4A"/>
</g>
<path d="M20.413 42.7469L22.1141 46.0004L23.909 43.7399C23.9748 42.266 24 41.5489 24 40.0005C24 39.0005 23.909 37.5992 23.8494 36.4007C24.2488 35.7599 24.6479 35.119 25.0467 34.4782L23.0234 31.3242L20.4102 33.8399L21.7733 36.4988C21.7733 37.7641 21.0763 38.5988 20.413 42.7469Z" fill="#4F56B2"/>
<path d="M25.2215 35.9325L22.9499 32.3258L20.6437 36.2479L15.5469 29.6569L17.855 27.3184L24.1579 27.8048L26.0792 30.2926L25.2215 35.9325Z" fill="#F7F7FF"/>
<path d="M20.6413 36.3622C20.6252 36.3622 20.6092 36.3585 20.5947 36.3514C20.5802 36.3443 20.5674 36.334 20.5575 36.3213L15.4536 29.7177C15.438 29.6974 15.4303 29.6722 15.4318 29.6466C15.4334 29.621 15.4443 29.5969 15.4623 29.5787L17.7746 27.2357C17.7853 27.2247 17.7983 27.2161 17.8127 27.2107C17.8271 27.2053 17.8426 27.2032 17.8579 27.2045L24.1685 27.6918C24.1833 27.693 24.1977 27.6973 24.2107 27.7043C24.2237 27.7113 24.2351 27.721 24.2442 27.7327L26.1711 30.2253C26.1797 30.2366 26.186 30.2496 26.1896 30.2634C26.1931 30.2772 26.1939 30.2915 26.1918 30.3056L25.3324 35.9561C25.3288 35.977 25.3189 35.9963 25.3042 36.0115C25.2895 36.0267 25.2705 36.0372 25.2498 36.0416C25.229 36.0459 25.2074 36.0439 25.1878 36.0359C25.1682 36.0279 25.1514 36.0142 25.1397 35.9965L24.6146 35.1628C24.5997 35.139 24.5948 35.1102 24.6011 35.0829C24.6074 35.0555 24.6243 35.0317 24.6481 35.0168C24.6719 35.0019 24.7007 34.997 24.7281 35.0033C24.7556 35.0095 24.7794 35.0264 24.7943 35.0502L25.1672 35.6429L25.9731 30.3181L24.1054 27.8987L17.8912 27.4176L15.6796 29.6595L20.6307 36.0658L21.0845 35.2961C21.0987 35.2718 21.122 35.2542 21.1492 35.2471C21.1763 35.2399 21.2053 35.2439 21.2295 35.2581C21.2538 35.2722 21.2715 35.2954 21.2786 35.3226C21.2857 35.3497 21.2818 35.3786 21.2676 35.4029L20.7343 36.3107C20.7255 36.3256 20.7132 36.3381 20.6984 36.3472C20.6836 36.3562 20.6668 36.3615 20.6495 36.3627L20.6413 36.3622Z" fill="#252B4A"/>
<path d="M26.4532 25.4776L23.4441 32.1032L18.3926 27.4009L21.2403 21.3545C21.2403 21.3545 24.8225 22.9498 26.4532 25.4776Z" fill="white"/>
<path d="M23.4425 32.2287C23.4107 32.2287 23.38 32.2166 23.3567 32.1949L18.3057 27.492C18.2862 27.4738 18.2729 27.4499 18.2679 27.4236C18.2628 27.3974 18.2663 27.3702 18.2777 27.3461L21.1254 21.3003C21.1394 21.2703 21.1645 21.2471 21.1955 21.2355C21.2264 21.2239 21.2607 21.225 21.2909 21.2385C21.3269 21.2551 24.9257 22.879 26.557 25.4085C26.5684 25.4263 26.5752 25.4466 26.5768 25.4677C26.5784 25.4888 26.5748 25.5099 26.5662 25.5292L23.557 32.1549C23.5487 32.173 23.5363 32.189 23.5206 32.2014C23.505 32.2138 23.4867 32.2224 23.4672 32.2264C23.459 32.2278 23.4508 32.2285 23.4425 32.2287ZM18.545 27.3701L23.4002 31.8921L26.3092 25.4886C24.8633 23.3008 21.9102 21.8126 21.3 21.5212L18.545 27.3701Z" fill="#252B4A"/>
<path d="M18.1838 18.8723C17.6641 18.0005 17.1976 17.0406 17.229 16.0252C17.2605 15.0097 17.9451 13.9525 18.9509 13.8185C18.6744 12.6502 19.1409 11.3388 20.0957 10.6084C21.0505 9.87805 22.4357 9.76757 23.4924 10.3383C24.648 9.01257 26.7116 8.64679 28.3218 9.35315C29.932 10.0595 31.0356 11.7183 31.2319 13.4659C31.316 14.2163 31.2405 15.008 30.8673 15.6651C30.3447 16.5844 29.3046 17.115 28.2594 17.2793C27.6641 17.3726 26.9875 17.3938 26.5834 17.8414C26.3321 18.119 26.2462 18.5025 26.1254 18.8569C25.9097 19.484 25.5674 20.0602 25.1196 20.5495C24.6719 21.0388 24.1283 21.4308 23.5227 21.7012C22.5364 22.1345 20.8324 22.3921 19.8593 21.767C19.4815 21.5249 19.4111 21.0635 19.2268 20.6748C18.928 20.0486 18.5393 19.4693 18.1838 18.8723Z" fill="#4F56B2"/>
<path d="M29.798 19.5622C30.2777 21.2222 30.4472 23.1112 29.5416 24.5788C28.7534 25.8576 27.1718 26.5966 25.6847 26.3813C24.1976 26.1661 22.8908 25.0076 22.4975 23.5588C21.0888 23.545 19.7454 22.5422 19.331 21.1959C19.1753 20.6899 19.1833 20.0511 19.6097 19.7351C20.0968 19.3756 20.7734 19.6607 21.3315 19.8954C21.8896 20.1301 22.3092 20.5473 22.6057 20.019C22.3951 18.6847 21.371 16.4128 23.3315 15.7546C24.0614 15.5078 28.1438 14.8066 28.1438 14.8066C28.1438 14.8066 29.5399 18.6693 29.798 19.5622Z" fill="white"/>
<path d="M26.1998 26.5414C26.0217 26.5415 25.8438 26.5287 25.6675 26.5031C24.1661 26.2861 22.8369 25.1293 22.4048 23.6794C20.9692 23.6222 19.6372 22.6056 19.2136 21.2301C19.0487 20.6943 19.047 19.9925 19.5376 19.6307C20.0825 19.2301 20.8032 19.5323 21.3824 19.7761C21.5129 19.8334 21.632 19.8935 21.7471 19.9536C22.1661 20.1728 22.3269 20.2289 22.4763 19.9914C22.438 19.7624 22.3756 19.4997 22.3097 19.2255C22.0046 17.9519 21.5868 16.2077 23.2943 15.6319C24.0247 15.3858 27.9583 14.708 28.1254 14.6794C28.1545 14.6746 28.1844 14.6802 28.2098 14.695C28.2353 14.7098 28.2548 14.733 28.2651 14.7607C28.3223 14.9187 29.6652 18.637 29.9216 19.5243C30.5335 21.637 30.4425 23.3594 29.652 24.6416C28.9308 25.8093 27.5656 26.5414 26.1998 26.5414ZM20.1661 19.6886C19.9939 19.6835 19.8248 19.735 19.6847 19.8351C19.3 20.1213 19.3189 20.7252 19.4517 21.1574C19.8524 22.4619 21.1352 23.4178 22.4992 23.4315C22.5267 23.4319 22.5532 23.4413 22.5749 23.4581C22.5966 23.4749 22.6122 23.4984 22.6194 23.5248C22.9995 24.925 24.2674 26.048 25.7036 26.2558C27.1397 26.4636 28.6738 25.7458 29.4351 24.5111C30.1872 23.2919 30.2685 21.6376 29.6778 19.5958C29.4488 18.7945 28.2817 15.558 28.0619 14.9473C27.4208 15.0618 24.0201 15.6536 23.3721 15.8723C21.8839 16.3749 22.2388 17.8591 22.5519 19.1682C22.6234 19.4659 22.691 19.7464 22.7305 19.9982C22.7348 20.0262 22.7296 20.0549 22.7156 20.0795C22.4259 20.5947 22.0024 20.3743 21.628 20.1785C21.5175 20.1213 21.403 20.0641 21.2846 20.0103C20.9171 19.8563 20.5187 19.6886 20.1661 19.6886Z" fill="#252B4A"/>
<path d="M21.943 21.892C21.9249 21.8921 21.907 21.8884 21.8905 21.8809C21.874 21.8735 21.8593 21.8627 21.8474 21.8491C21.6938 21.6748 21.5017 21.5387 21.2865 21.4514C21.0712 21.364 20.8386 21.328 20.607 21.346C20.5904 21.3479 20.5736 21.3464 20.5576 21.3416C20.5416 21.3368 20.5268 21.3288 20.514 21.3181C20.5012 21.3074 20.4907 21.2942 20.4832 21.2793C20.4756 21.2644 20.4712 21.2481 20.4701 21.2315C20.4674 21.1983 20.4779 21.1653 20.4994 21.1398C20.5208 21.1143 20.5514 21.0983 20.5846 21.0953C20.8559 21.0739 21.1285 21.116 21.3807 21.2181C21.6329 21.3202 21.858 21.4796 22.038 21.6837C22.0597 21.7091 22.0705 21.742 22.0682 21.7753C22.0658 21.8086 22.0505 21.8396 22.0254 21.8617C22.0024 21.8814 21.9732 21.8922 21.943 21.892Z" fill="#252B4A"/>
<path d="M28.2083 19.312C28.3634 20.0968 29.0268 20.6286 29.6897 20.4964C30.3525 20.3641 30.7641 19.6229 30.609 18.8364C30.4538 18.0499 29.791 17.5198 29.1281 17.6521C28.4653 17.7843 28.0537 18.5296 28.2083 19.312Z" fill="white"/>
<path d="M29.4907 20.6409C28.8416 20.6409 28.2383 20.0989 28.0877 19.3353C27.9195 18.4829 28.374 17.6753 29.1061 17.5287C29.2879 17.495 29.4749 17.5021 29.6537 17.5494C29.8324 17.5967 29.9985 17.6831 30.1398 17.8023C30.451 18.0583 30.6619 18.4159 30.7351 18.8121C30.9034 19.6638 30.4489 20.4721 29.7163 20.6186C29.642 20.6334 29.5664 20.6409 29.4907 20.6409ZM29.3339 17.7583C29.2737 17.7583 29.2138 17.764 29.1547 17.7754C28.5611 17.8928 28.1931 18.5705 28.3345 19.286C28.4758 20.0015 29.0729 20.4881 29.6676 20.3736C30.2623 20.2591 30.6292 19.5791 30.4879 18.863C30.4256 18.5264 30.2469 18.2224 29.983 18.0044C29.8012 17.8504 29.5721 17.7635 29.3339 17.7583Z" fill="#252B4A"/>
<path d="M25.7291 21.3818C25.0353 21.3818 24.4034 20.8512 24.254 20.0944C24.0857 19.2427 24.5923 18.4224 25.3827 18.2662C26.1732 18.1099 26.9534 18.676 27.1217 19.5255C27.2046 19.9273 27.1326 20.3456 26.9202 20.6966C26.8202 20.8649 26.686 21.0104 26.5263 21.1236C26.3666 21.2367 26.1849 21.3152 25.9929 21.3537C25.9061 21.3718 25.8177 21.3812 25.7291 21.3818ZM25.6472 18.4923C25.5748 18.4923 25.5025 18.4994 25.4314 18.5135C24.7771 18.6451 24.3593 19.332 24.5012 20.0458C24.6432 20.7596 25.2894 21.2381 25.9443 21.1093C26.102 21.0772 26.2513 21.0124 26.3824 20.919C26.5136 20.8257 26.6236 20.7058 26.7056 20.5673C26.8855 20.2706 26.9469 19.9169 26.8773 19.577C26.7491 18.9399 26.2225 18.4923 25.6472 18.4923Z" fill="#252B4A"/>
<path d="M26.997 19.6764C26.9742 19.6764 26.9518 19.6701 26.9323 19.6581C26.9042 19.6408 26.8839 19.6131 26.8758 19.581C26.8678 19.5489 26.8727 19.5149 26.8894 19.4864C27.0795 19.1721 27.3096 18.9953 27.5763 18.9609C27.973 18.91 28.2861 19.2093 28.2993 19.2219C28.3232 19.2452 28.337 19.2771 28.3375 19.3105C28.338 19.344 28.3251 19.3762 28.3018 19.4002C28.2785 19.4242 28.2467 19.438 28.2132 19.4384C28.1798 19.4389 28.1475 19.4261 28.1235 19.4028C28.1184 19.3982 27.8814 19.1738 27.6084 19.2111C27.4252 19.2357 27.2575 19.3719 27.1098 19.6169C27.098 19.6359 27.0813 19.6515 27.0615 19.662C27.0417 19.6724 27.0194 19.6774 26.997 19.6764Z" fill="#252B4A"/>
<path d="M24.3793 20.1939H24.3655L21.9328 19.9301C21.9008 19.9251 21.8719 19.908 21.8522 19.8823C21.8325 19.8566 21.8234 19.8243 21.8269 19.7921C21.8304 19.76 21.8461 19.7303 21.8708 19.7094C21.8956 19.6885 21.9274 19.678 21.9597 19.6799L24.393 19.9438C24.4244 19.948 24.4531 19.9639 24.4733 19.9883C24.4935 20.0127 24.5038 20.0439 24.5021 20.0755C24.5003 20.1072 24.4867 20.137 24.464 20.1591C24.4412 20.1811 24.411 20.1938 24.3793 20.1945V20.1939Z" fill="#252B4A"/>
<path d="M60.569 16.566V28.5H57.662V21.343L54.993 28.5H52.647L49.961 21.326V28.5H47.054V16.566H50.488L53.837 24.828L57.152 16.566H60.569ZM72.3495 19.014L66.3995 33.005H63.2715L65.4475 28.177L61.5885 19.014H64.8355L67.0285 24.947L69.2045 19.014H72.3495ZM141.254 16.566L138.143 28.5H134.624L132.72 20.646L130.748 28.5H127.229L124.203 16.566H127.314L129.031 25.253L131.156 16.566H134.352L136.392 25.253L138.126 16.566H141.254ZM145.619 20.595C145.959 20.0737 146.384 19.6657 146.894 19.371C147.404 19.065 147.971 18.912 148.594 18.912V21.989H147.795C147.07 21.989 146.526 22.1477 146.163 22.465C145.801 22.771 145.619 23.315 145.619 24.097V28.5H142.712V19.014H145.619V20.595ZM151.446 18.028C150.936 18.028 150.516 17.8807 150.188 17.586C149.87 17.28 149.712 16.906 149.712 16.464C149.712 16.0107 149.87 15.6367 150.188 15.342C150.516 15.036 150.936 14.883 151.446 14.883C151.944 14.883 152.352 15.036 152.67 15.342C152.998 15.6367 153.163 16.0107 153.163 16.464C153.163 16.906 152.998 17.28 152.67 17.586C152.352 17.8807 151.944 18.028 151.446 18.028ZM152.891 19.014V28.5H149.984V19.014H152.891ZM160.284 26.035V28.5H158.805C157.751 28.5 156.93 28.245 156.34 27.735C155.751 27.2137 155.456 26.3693 155.456 25.202V21.428H154.3V19.014H155.456V16.702H158.363V19.014H160.267V21.428H158.363V25.236C158.363 25.5193 158.431 25.7233 158.567 25.848C158.703 25.9727 158.93 26.035 159.247 26.035H160.284ZM170.846 23.604C170.846 23.876 170.829 24.1593 170.795 24.454H164.216C164.261 25.0433 164.448 25.4967 164.777 25.814C165.117 26.12 165.53 26.273 166.018 26.273C166.743 26.273 167.247 25.967 167.531 25.355H170.625C170.466 25.9783 170.177 26.5393 169.758 27.038C169.35 27.5367 168.834 27.9277 168.211 28.211C167.587 28.4943 166.89 28.636 166.12 28.636C165.19 28.636 164.363 28.4377 163.638 28.041C162.912 27.6443 162.346 27.0777 161.938 26.341C161.53 25.6043 161.326 24.743 161.326 23.757C161.326 22.771 161.524 21.9097 161.921 21.173C162.329 20.4363 162.895 19.8697 163.621 19.473C164.346 19.0763 165.179 18.878 166.12 18.878C167.038 18.878 167.854 19.0707 168.568 19.456C169.282 19.8413 169.837 20.391 170.234 21.105C170.642 21.819 170.846 22.652 170.846 23.604ZM167.871 22.839C167.871 22.3403 167.701 21.9437 167.361 21.649C167.021 21.3543 166.596 21.207 166.086 21.207C165.598 21.207 165.185 21.3487 164.845 21.632C164.516 21.9153 164.312 22.3177 164.233 22.839H167.871ZM175.286 20.595C175.626 20.0737 176.051 19.6657 176.561 19.371C177.071 19.065 177.638 18.912 178.261 18.912V21.989H177.462C176.737 21.989 176.193 22.1477 175.83 22.465C175.468 22.771 175.286 23.315 175.286 24.097V28.5H172.379V19.014H175.286V20.595Z" fill="#252B4A"/>
<path d="M82.4957 20.408C82.4957 21.0993 82.337 21.734 82.0197 22.312C81.7023 22.8787 81.215 23.3377 80.5577 23.689C79.9003 24.0403 79.0843 24.216 78.1097 24.216H76.3077V28.5H73.4007V16.566H78.1097C79.0617 16.566 79.8663 16.7303 80.5237 17.059C81.181 17.3877 81.674 17.841 82.0027 18.419C82.3313 18.997 82.4957 19.66 82.4957 20.408ZM77.8887 21.904C78.444 21.904 78.8577 21.7737 79.1297 21.513C79.4017 21.2523 79.5377 20.884 79.5377 20.408C79.5377 19.932 79.4017 19.5637 79.1297 19.303C78.8577 19.0423 78.444 18.912 77.8887 18.912H76.3077V21.904H77.8887ZM83.4311 23.74C83.4311 22.7653 83.6124 21.9097 83.9751 21.173C84.3491 20.4363 84.8534 19.8697 85.4881 19.473C86.1227 19.0763 86.8311 18.878 87.6131 18.878C88.2817 18.878 88.8654 19.014 89.3641 19.286C89.8741 19.558 90.2651 19.915 90.5371 20.357V19.014H93.4441V28.5H90.5371V27.157C90.2537 27.599 89.8571 27.956 89.3471 28.228C88.8484 28.5 88.2647 28.636 87.5961 28.636C86.8254 28.636 86.1227 28.4377 85.4881 28.041C84.8534 27.633 84.3491 27.0607 83.9751 26.324C83.6124 25.576 83.4311 24.7147 83.4311 23.74ZM90.5371 23.757C90.5371 23.0317 90.3331 22.4593 89.9251 22.04C89.5284 21.6207 89.0411 21.411 88.4631 21.411C87.8851 21.411 87.3921 21.6207 86.9841 22.04C86.5874 22.448 86.3891 23.0147 86.3891 23.74C86.3891 24.4653 86.5874 25.0433 86.9841 25.474C87.3921 25.8933 87.8851 26.103 88.4631 26.103C89.0411 26.103 89.5284 25.8933 89.9251 25.474C90.3331 25.0547 90.5371 24.4823 90.5371 23.757ZM98.4542 20.357C98.7375 19.915 99.1285 19.558 99.6272 19.286C100.126 19.014 100.709 18.878 101.378 18.878C102.16 18.878 102.868 19.0763 103.503 19.473C104.138 19.8697 104.636 20.4363 104.999 21.173C105.373 21.9097 105.56 22.7653 105.56 23.74C105.56 24.7147 105.373 25.576 104.999 26.324C104.636 27.0607 104.138 27.633 103.503 28.041C102.868 28.4377 102.16 28.636 101.378 28.636C100.721 28.636 100.137 28.5 99.6272 28.228C99.1285 27.956 98.7375 27.6047 98.4542 27.174V33.022H95.5472V19.014H98.4542V20.357ZM102.602 23.74C102.602 23.0147 102.398 22.448 101.99 22.04C101.593 21.6207 101.1 21.411 100.511 21.411C99.9332 21.411 99.4402 21.6207 99.0322 22.04C98.6355 22.4593 98.4372 23.0317 98.4372 23.757C98.4372 24.4823 98.6355 25.0547 99.0322 25.474C99.4402 25.8933 99.9332 26.103 100.511 26.103C101.089 26.103 101.582 25.8933 101.99 25.474C102.398 25.0433 102.602 24.4653 102.602 23.74ZM116.027 23.604C116.027 23.876 116.01 24.1593 115.976 24.454H109.397C109.443 25.0433 109.63 25.4967 109.958 25.814C110.298 26.12 110.712 26.273 111.199 26.273C111.925 26.273 112.429 25.967 112.712 25.355H115.806C115.648 25.9783 115.359 26.5393 114.939 27.038C114.531 27.5367 114.016 27.9277 113.392 28.211C112.769 28.4943 112.072 28.636 111.301 28.636C110.372 28.636 109.545 28.4377 108.819 28.041C108.094 27.6443 107.527 27.0777 107.119 26.341C106.711 25.6043 106.507 24.743 106.507 23.757C106.507 22.771 106.706 21.9097 107.102 21.173C107.51 20.4363 108.077 19.8697 108.802 19.473C109.528 19.0763 110.361 18.878 111.301 18.878C112.219 18.878 113.035 19.0707 113.749 19.456C114.463 19.8413 115.019 20.391 115.415 21.105C115.823 21.819 116.027 22.652 116.027 23.604ZM113.052 22.839C113.052 22.3403 112.882 21.9437 112.542 21.649C112.202 21.3543 111.777 21.207 111.267 21.207C110.78 21.207 110.366 21.3487 110.026 21.632C109.698 21.9153 109.494 22.3177 109.414 22.839H113.052ZM120.468 20.595C120.808 20.0737 121.233 19.6657 121.743 19.371C122.253 19.065 122.82 18.912 123.443 18.912V21.989H122.644C121.919 21.989 121.375 22.1477 121.012 22.465C120.649 22.771 120.468 23.315 120.468 24.097V28.5H117.561V19.014H120.468V20.595Z" fill="#EE8253"/>
</svg>
