<svg width="171" height="46" viewBox="0 0 171 46" fill="none" xmlns="http://www.w3.org/2000/svg">
<rect x="1.5" y="10.3574" width="25.7619" height="25.7619" rx="12.881" fill="#FFEBE3" stroke="#EE8253"/>
<mask id="mask0_3742_135812" style="mask-type:alpha" maskUnits="userSpaceOnUse" x="2" y="10" width="25" height="26">
<rect x="2.13265" y="10.9901" width="24.4966" height="24.4966" rx="12.2483" fill="#FFEBE3" stroke="#EE8253" stroke-width="0.265306"/>
</mask>
<g mask="url(#mask0_3742_135812)">
<path d="M-1.35518 59.9488C1.95049 60.0913 9.00543 61.1617 14.1508 61.0736C17.429 61.0163 19.567 60.1406 19.9894 56.8916C20.7 51.5646 21.9727 46.3278 23.7862 41.2688C27.1205 42.0541 34.9024 42.3564 40.1749 38.0524C43.595 35.2619 47.4988 30.7771 50.2836 24.9763C47.5303 24.4674 44.8944 22.6615 42.3672 19.6426C42.3672 19.6426 37.1668 24.7553 34.0277 27.5355C33.4502 28.0468 32.7748 28.4356 32.0426 28.6782C31.3104 28.9209 30.5365 29.0123 29.7679 28.9471C25.9791 28.6283 18.8852 28.0358 17.4754 27.9505C13.6975 27.7216 7.05008 27.543 1.20063 28.5275C0.205906 28.6955 -0.732565 29.1044 -1.5328 29.7187C-2.33304 30.3329 -2.97071 31.1338 -3.3901 32.0513C-4.95106 35.4623 -7.58013 41.3358 -9.36033 45.9912C-10.5538 49.1137 -9.80166 52.0873 -5.3071 54.4056C-5.3071 54.4056 -3.54007 55.2762 -3.33801 58.0118C-3.19662 59.9402 -3.28248 59.8658 -1.35518 59.9488Z" fill="#F7F7FF"/>
<path d="M13.5417 61.2039C10.3574 61.2039 6.52626 60.8112 3.41006 60.4924C1.48849 60.2955 -0.1715 60.1255 -1.36097 60.074L-1.55902 60.066C-3.27282 59.9944 -3.32605 59.9435 -3.44797 58.2486L-3.464 58.0265C-3.65862 55.3985 -5.34665 54.5285 -5.36383 54.5205C-9.46113 52.4025 -10.8452 49.5199 -9.47831 45.9458C-7.66835 41.2119 -4.95627 35.1753 -3.50521 31.9979C-3.07723 31.061 -2.42607 30.2434 -1.60877 29.6166C-0.791474 28.9898 0.167039 28.5729 1.18282 28.4025C7.1313 27.4014 13.9504 27.6103 17.4862 27.8244C18.8771 27.9086 25.7861 28.485 29.7815 28.821C30.5331 28.8832 31.2895 28.7931 32.0053 28.556C32.7212 28.3188 33.3818 27.9395 33.9475 27.4409C37.0477 24.6933 42.2297 19.6029 42.2818 19.5519C42.2942 19.5397 42.309 19.5302 42.3252 19.524C42.3414 19.5177 42.3588 19.515 42.3762 19.5158C42.3935 19.5166 42.4105 19.521 42.4261 19.5287C42.4417 19.5364 42.4555 19.5472 42.4667 19.5605C44.9899 22.576 47.6287 24.3562 50.3087 24.8519C50.3278 24.8553 50.3457 24.8631 50.3612 24.8747C50.3767 24.8862 50.3894 24.9012 50.3981 24.9185C50.4069 24.9357 50.4115 24.9547 50.4117 24.9741C50.4119 24.9934 50.4076 25.0125 50.3992 25.0299C47.0729 31.9561 42.6144 36.2234 40.2566 38.149C37.9424 40.0379 34.8354 41.2623 31.2698 41.6928C27.6064 42.1347 24.7953 41.6241 23.868 41.4157C22.0801 46.4344 20.8223 51.6263 20.1153 56.9068C19.9069 58.4981 19.283 59.6034 18.2069 60.284C17.2738 60.8759 15.9853 61.1661 14.1513 61.1999C13.9521 61.2026 13.7489 61.2039 13.5417 61.2039ZM11.647 27.8982C8.42266 27.8982 4.67566 28.07 1.22518 28.651C0.249922 28.8144 -0.670365 29.2146 -1.45505 29.8163C-2.23973 30.4181 -2.86487 31.2031 -3.27568 32.1026C-4.72845 35.2772 -7.43538 41.3087 -9.24247 46.0356C-10.5745 49.5187 -9.26823 52.2176 -5.24934 54.2955C-5.17665 54.3316 -3.41763 55.2291 -3.21271 58.0076L-3.19611 58.2302C-3.13887 59.0127 -3.1114 59.406 -2.92536 59.5851C-2.73933 59.7643 -2.34036 59.7809 -1.54815 59.8141L-1.34952 59.8227C-0.15261 59.8742 1.51253 60.0442 3.4364 60.2417C6.74779 60.5811 10.8703 61.0036 14.149 60.9469C17.8405 60.8839 19.4976 59.7036 19.868 56.8742C20.5823 51.5389 21.8568 46.2938 23.6705 41.2257C23.6811 41.1966 23.702 41.1725 23.7292 41.1577C23.7564 41.143 23.788 41.1386 23.8182 41.1455C27.6762 42.0539 35.1965 41.9543 40.0987 37.9538C42.4261 36.0551 46.805 31.8656 50.1021 25.0677C47.4495 24.5273 44.8468 22.7655 42.362 19.8267C41.6333 20.5411 36.9847 25.0866 34.1147 27.6292C33.5235 28.1504 32.8331 28.5469 32.085 28.7947C31.3369 29.0426 30.5464 29.1368 29.7609 29.0717C25.7672 28.7357 18.8594 28.1593 17.4713 28.0757C16.0002 27.9864 13.9573 27.8982 11.647 27.8982Z" fill="#252B4A"/>
<path d="M18.7369 33.4451L18.41 29.2872L8.58864 27.1738L-9.26367 66.8544L8.03913 66.8264L18.7369 33.4451Z" fill="#F7F7FF"/>
<path d="M6.75643 27.1719C-0.876648 27.1719 -7.84974 28.9275 -11.7604 35.987C-14.508 40.9452 -17.6918 47.0614 -20.0947 51.8645V66.7826H-6.92931L9.27275 27.3161C9.11248 27.272 6.92014 27.1719 6.75643 27.1719Z" fill="#F7F7FF"/>
<path d="M-5.69094 66.9055C-5.71124 66.9051 -5.73116 66.8999 -5.74899 66.8902C-5.76681 66.8805 -5.782 66.8666 -5.79327 66.8497C-5.80453 66.8328 -5.81152 66.8134 -5.81364 66.7932C-5.81576 66.773 -5.81294 66.7526 -5.80542 66.7337L10.3337 27.4201C9.81449 27.376 8.17225 27.3005 7.99766 27.3005C-1.25305 27.3005 -7.10193 30.0806 -10.4093 36.0497C-12.9308 40.601 -16.047 46.5374 -18.7442 51.9295C-18.7517 51.9443 -18.7621 51.9575 -18.7747 51.9683C-18.7873 51.9791 -18.8019 51.9873 -18.8177 51.9925C-18.8335 51.9976 -18.8501 51.9996 -18.8667 51.9984C-18.8832 51.9971 -18.8994 51.9926 -18.9142 51.985C-18.929 51.9775 -18.9422 51.9672 -18.953 51.9546C-18.9638 51.9419 -18.972 51.9273 -18.9771 51.9115C-18.9823 51.8958 -18.9843 51.8791 -18.983 51.8625C-18.9817 51.846 -18.9772 51.8298 -18.9697 51.815C-16.2702 46.4201 -13.1529 40.4813 -10.6297 35.9261C-8.77909 32.5861 -6.18665 30.2592 -2.70468 28.8168C0.167099 27.6256 3.66796 27.0469 7.99938 27.0469C8.12416 27.0469 10.3646 27.1436 10.5466 27.1917C10.5639 27.1961 10.5801 27.2043 10.5941 27.2155C10.608 27.2268 10.6193 27.2409 10.6273 27.257C10.6353 27.273 10.6398 27.2907 10.6405 27.3086C10.6412 27.3266 10.6381 27.3445 10.6313 27.3611L-5.57417 66.8276C-5.58371 66.8507 -5.59991 66.8705 -5.62071 66.8843C-5.6415 66.8982 -5.66595 66.9055 -5.69094 66.9055Z" fill="#252B4A"/>
<path d="M12.413 44.7469L14.1141 48.0004L15.909 45.7399C15.9748 44.266 16.0175 42.7548 16.0372 41.2065C16.0749 38.041 16.0034 39.2846 15.8494 36.4007C16.2488 35.7599 16.6479 35.119 17.0467 34.4782L15.0234 31.3242L12.4102 33.8399L13.7733 36.4988C13.5303 40.6934 13.0763 40.5988 12.413 44.7469Z" fill="#EE8253"/>
<path d="M17.2205 35.9325L14.9489 32.3258L12.6427 36.2479L7.5459 29.6569L9.85403 27.3184L16.1569 27.8048L18.0782 30.2926L17.2205 35.9325Z" fill="#F7F7FF"/>
<path d="M12.6404 36.3612C12.6242 36.3612 12.6082 36.3575 12.5937 36.3505C12.5792 36.3434 12.5665 36.3331 12.5565 36.3203L7.45267 29.7168C7.43702 29.6965 7.42927 29.6712 7.43087 29.6456C7.43246 29.62 7.44329 29.5959 7.46134 29.5777L9.77362 27.2348C9.78431 27.2237 9.79734 27.2151 9.81175 27.2097C9.82617 27.2043 9.84161 27.2022 9.85696 27.2035L16.1676 27.6908C16.1823 27.692 16.1967 27.6963 16.2097 27.7033C16.2227 27.7104 16.2341 27.72 16.2432 27.7317L18.1701 30.2243C18.1787 30.2356 18.185 30.2486 18.1886 30.2624C18.1921 30.2762 18.1929 30.2906 18.1908 30.3047L17.3314 35.9551C17.3278 35.976 17.318 35.9953 17.3032 36.0105C17.2885 36.0258 17.2695 36.0362 17.2488 36.0406C17.228 36.0449 17.2065 36.043 17.1868 36.0349C17.1672 36.0269 17.1505 36.0132 17.1387 35.9956L16.6136 35.1618C16.5987 35.138 16.5938 35.1093 16.6001 35.0819C16.6064 35.0545 16.6233 35.0307 16.6471 35.0158C16.671 35.0009 16.6997 34.996 16.7272 35.0023C16.7546 35.0086 16.7784 35.0254 16.7933 35.0492L17.1662 35.642L17.9721 30.3172L16.1045 27.8977L9.8902 27.4166L7.67859 29.6585L12.6298 36.0648L13.0836 35.2951C13.0977 35.2708 13.121 35.2532 13.1482 35.2461C13.1754 35.239 13.2043 35.2429 13.2286 35.2571C13.2528 35.2712 13.2705 35.2945 13.2776 35.3216C13.2848 35.3488 13.2808 35.3776 13.2666 35.4019L12.7333 36.3097C12.7245 36.3246 12.7122 36.3371 12.6974 36.3462C12.6826 36.3553 12.6659 36.3606 12.6486 36.3617L12.6404 36.3612Z" fill="#252B4A"/>
<path d="M18.4532 25.4785L15.4441 32.1042L10.3926 27.4018L13.2403 21.3555C13.2403 21.3555 16.8225 22.9508 18.4532 25.4785Z" fill="#F7F7FF"/>
<path d="M15.4425 32.2297C15.4107 32.2296 15.38 32.2176 15.3567 32.1959L10.3057 27.493C10.2862 27.4748 10.2729 27.4508 10.2679 27.4246C10.2628 27.3984 10.2663 27.3712 10.2777 27.347L13.1254 21.3013C13.1394 21.2713 13.1645 21.248 13.1955 21.2365C13.2264 21.2249 13.2607 21.226 13.2909 21.2394C13.3269 21.256 16.9257 22.88 18.557 25.4094C18.5684 25.4272 18.5752 25.4476 18.5768 25.4687C18.5784 25.4898 18.5748 25.5109 18.5662 25.5302L15.557 32.1559C15.5487 32.174 15.5363 32.1899 15.5206 32.2024C15.505 32.2148 15.4867 32.2234 15.4672 32.2274C15.459 32.2287 15.4508 32.2295 15.4425 32.2297ZM10.545 27.3711L15.4002 31.8931L18.3092 25.4896C16.8633 23.3018 13.9102 21.8136 13.3 21.5222L10.545 27.3711Z" fill="#252B4A"/>
<path d="M10.1828 18.8723C9.6631 18.0005 9.19659 17.0406 9.22807 16.0252C9.25955 15.0097 9.94415 13.9525 10.9499 13.8185C10.6734 12.6502 11.1399 11.3388 12.0947 10.6084C13.0495 9.87805 14.4347 9.76757 15.4914 10.3383C16.6471 9.01257 18.7106 8.64679 20.3208 9.35315C21.931 10.0595 23.0346 11.7183 23.2309 13.4659C23.3151 14.2163 23.2395 15.008 22.8663 15.6651C22.3437 16.5844 21.3036 17.115 20.2584 17.2793C19.6631 17.3726 18.9865 17.3938 18.5824 17.8414C18.3311 18.119 18.2452 18.5025 18.1245 18.8569C17.9088 19.484 17.5664 20.0602 17.1187 20.5495C16.6709 21.0388 16.1273 21.4308 15.5217 21.7012C14.5355 22.1345 12.8314 22.3921 11.8583 21.767C11.4805 21.5249 11.4101 21.0635 11.2258 20.6748C10.927 20.0486 10.5383 19.4693 10.1828 18.8723Z" fill="#252B4A"/>
<path d="M21.7971 19.5622C22.2768 21.2222 22.4462 23.1112 21.5406 24.5788C20.7524 25.8576 19.1709 26.5966 17.6837 26.3813C16.1966 26.1661 14.8898 25.0076 14.4966 23.5588C13.0879 23.545 11.7444 22.5422 11.33 21.1959C11.1743 20.6899 11.1823 20.0511 11.6088 19.7351C12.0959 19.3756 12.7725 19.6607 13.3306 19.8954C13.8887 20.1301 14.3082 20.5473 14.6047 20.019C14.3941 18.6847 13.3701 16.4128 15.3306 15.7546C16.0604 15.5078 20.1428 14.8066 20.1428 14.8066C20.1428 14.8066 21.5389 18.6693 21.7971 19.5622Z" fill="#F7F7FF"/>
<path d="M18.1998 26.5414C18.0217 26.5415 17.8438 26.5287 17.6675 26.5031C16.1661 26.2861 14.8369 25.1293 14.4048 23.6794C12.9692 23.6222 11.6372 22.6056 11.2136 21.2301C11.0487 20.6943 11.047 19.9925 11.5376 19.6307C12.0825 19.2301 12.8032 19.5323 13.3824 19.7761C13.5129 19.8334 13.632 19.8935 13.7471 19.9536C14.1661 20.1728 14.3269 20.2289 14.4763 19.9914C14.438 19.7624 14.3756 19.4997 14.3097 19.2255C14.0046 17.9519 13.5868 16.2077 15.2943 15.6319C16.0247 15.3858 19.9583 14.708 20.1254 14.6794C20.1545 14.6746 20.1844 14.6802 20.2098 14.695C20.2353 14.7098 20.2548 14.733 20.2651 14.7607C20.3223 14.9187 21.6652 18.637 21.9216 19.5243C22.5335 21.637 22.4425 23.3594 21.652 24.6416C20.9308 25.8093 19.5656 26.5414 18.1998 26.5414ZM12.1661 19.6886C11.9939 19.6835 11.8248 19.735 11.6847 19.8351C11.3 20.1213 11.3189 20.7252 11.4517 21.1574C11.8524 22.4619 13.1352 23.4178 14.4992 23.4315C14.5267 23.4319 14.5532 23.4413 14.5749 23.4581C14.5966 23.4749 14.6122 23.4984 14.6194 23.5248C14.9995 24.925 16.2674 26.048 17.7036 26.2558C19.1397 26.4636 20.6738 25.7458 21.4351 24.5111C22.1872 23.2919 22.2685 21.6376 21.6778 19.5958C21.4488 18.7945 20.2817 15.558 20.0619 14.9473C19.4208 15.0618 16.0201 15.6536 15.3721 15.8723C13.8839 16.3749 14.2388 17.8591 14.5519 19.1682C14.6234 19.4659 14.691 19.7464 14.7305 19.9982C14.7348 20.0262 14.7296 20.0549 14.7156 20.0795C14.4259 20.5947 14.0024 20.3743 13.628 20.1785C13.5175 20.1213 13.403 20.0641 13.2846 20.0103C12.9171 19.8563 12.5187 19.6886 12.1661 19.6886Z" fill="#252B4A"/>
<path d="M13.943 21.892C13.9249 21.8921 13.907 21.8884 13.8905 21.8809C13.874 21.8735 13.8593 21.8627 13.8474 21.8491C13.6938 21.6748 13.5017 21.5387 13.2865 21.4514C13.0712 21.364 12.8386 21.328 12.607 21.346C12.5904 21.3479 12.5736 21.3464 12.5576 21.3416C12.5416 21.3368 12.5268 21.3288 12.514 21.3181C12.5012 21.3074 12.4907 21.2942 12.4832 21.2793C12.4756 21.2644 12.4712 21.2481 12.4701 21.2315C12.4674 21.1983 12.4779 21.1653 12.4994 21.1398C12.5208 21.1143 12.5514 21.0983 12.5846 21.0953C12.8559 21.0739 13.1285 21.116 13.3807 21.2181C13.6329 21.3202 13.858 21.4796 14.038 21.6837C14.0597 21.7091 14.0705 21.742 14.0682 21.7753C14.0658 21.8086 14.0505 21.8396 14.0254 21.8617C14.0024 21.8814 13.9732 21.8922 13.943 21.892Z" fill="#252B4A"/>
<path d="M20.2073 19.3111C20.3624 20.0958 21.0258 20.6276 21.6887 20.4954C22.3515 20.3632 22.7631 19.6219 22.608 18.8354C22.4529 18.0489 21.79 17.5189 21.1272 17.6511C20.4643 17.7833 20.0527 18.5286 20.2073 19.3111Z" fill="#F7F7FF"/>
<path d="M21.4907 20.6409C20.8416 20.6409 20.2383 20.0989 20.0877 19.3353C19.9195 18.4829 20.374 17.6753 21.1061 17.5287C21.2879 17.495 21.4749 17.5021 21.6537 17.5494C21.8324 17.5967 21.9985 17.6831 22.1398 17.8023C22.451 18.0583 22.6619 18.4159 22.7351 18.8121C22.9034 19.6638 22.4489 20.4721 21.7163 20.6186C21.642 20.6334 21.5664 20.6409 21.4907 20.6409ZM21.3339 17.7583C21.2737 17.7583 21.2138 17.764 21.1547 17.7754C20.5611 17.8928 20.1931 18.5705 20.3345 19.286C20.4758 20.0015 21.0729 20.4881 21.6676 20.3736C22.2623 20.2591 22.6292 19.5791 22.4879 18.863C22.4256 18.5264 22.2469 18.2224 21.983 18.0044C21.8012 17.8504 21.5721 17.7635 21.3339 17.7583Z" fill="#252B4A"/>
<path d="M17.7281 21.3818C17.0343 21.3818 16.4024 20.8512 16.253 20.0944C16.0847 19.2427 16.5913 18.4224 17.3818 18.2662C18.1723 18.1099 18.9525 18.676 19.1208 19.5255C19.2036 19.9273 19.1317 20.3456 18.9193 20.6966C18.8193 20.8649 18.685 21.0104 18.5253 21.1236C18.3656 21.2367 18.1839 21.3152 17.992 21.3537C17.9051 21.3718 17.8168 21.3812 17.7281 21.3818ZM17.6462 18.4923C17.5738 18.4923 17.5015 18.4994 17.4304 18.5135C16.7762 18.6451 16.3583 19.332 16.5003 20.0458C16.6422 20.7596 17.2885 21.2381 17.9433 21.1093C18.1011 21.0772 18.2503 21.0124 18.3814 20.919C18.5126 20.8257 18.6227 20.7058 18.7046 20.5673C18.8846 20.2706 18.9459 19.9169 18.8763 19.577C18.7481 18.9399 18.2215 18.4923 17.6462 18.4923Z" fill="#252B4A"/>
<path d="M18.9961 19.6764C18.9732 19.6764 18.9508 19.6701 18.9314 19.6581C18.9032 19.6408 18.8829 19.6131 18.8749 19.581C18.8668 19.5489 18.8717 19.5149 18.8884 19.4864C19.0785 19.1721 19.3086 18.9953 19.5753 18.9609C19.972 18.91 20.2851 19.2093 20.2983 19.2219C20.3223 19.2452 20.336 19.2771 20.3365 19.3105C20.337 19.344 20.3242 19.3762 20.3009 19.4002C20.2776 19.4242 20.2457 19.438 20.2122 19.4384C20.1788 19.4389 20.1465 19.4261 20.1226 19.4028C20.1174 19.3982 19.8804 19.1738 19.6074 19.2111C19.4242 19.2357 19.2565 19.3719 19.1088 19.6169C19.097 19.6359 19.0804 19.6515 19.0605 19.662C19.0407 19.6724 19.0184 19.6774 18.9961 19.6764Z" fill="#252B4A"/>
<path d="M16.3793 20.1939H16.3655L13.9328 19.9301C13.9008 19.9251 13.8719 19.908 13.8522 19.8823C13.8325 19.8566 13.8234 19.8243 13.8269 19.7921C13.8304 19.76 13.8461 19.7303 13.8708 19.7094C13.8956 19.6885 13.9274 19.678 13.9597 19.6799L16.393 19.9438C16.4244 19.948 16.4531 19.9639 16.4733 19.9883C16.4935 20.0127 16.5038 20.0439 16.5021 20.0755C16.5003 20.1072 16.4867 20.137 16.464 20.1591C16.4412 20.1811 16.411 20.1938 16.3793 20.1945V20.1939Z" fill="#252B4A"/>
</g>
<path d="M12.413 42.7469L14.1141 46.0004L15.909 43.7399C15.9748 42.266 16 41.5489 16 40.0005C16 39.0005 15.909 37.5992 15.8494 36.4007C16.2488 35.7599 16.6479 35.119 17.0467 34.4782L15.0234 31.3242L12.4102 33.8399L13.7733 36.4988C13.7733 37.7641 13.0763 38.5988 12.413 42.7469Z" fill="#4F56B2"/>
<path d="M17.2215 35.9325L14.9499 32.3258L12.6437 36.2479L7.54688 29.6569L9.855 27.3184L16.1579 27.8048L18.0792 30.2926L17.2215 35.9325Z" fill="#F7F7FF"/>
<path d="M12.6413 36.3612C12.6252 36.3612 12.6092 36.3575 12.5947 36.3505C12.5802 36.3434 12.5674 36.3331 12.5575 36.3203L7.45364 29.7168C7.43799 29.6965 7.43025 29.6712 7.43185 29.6456C7.43344 29.62 7.44427 29.5959 7.46232 29.5777L9.7746 27.2348C9.78529 27.2237 9.79831 27.2151 9.81273 27.2097C9.82715 27.2043 9.84259 27.2022 9.85794 27.2035L16.1685 27.6908C16.1833 27.692 16.1977 27.6963 16.2107 27.7033C16.2237 27.7104 16.2351 27.72 16.2442 27.7317L18.1711 30.2243C18.1797 30.2356 18.186 30.2486 18.1896 30.2624C18.1931 30.2762 18.1939 30.2906 18.1918 30.3047L17.3324 35.9551C17.3288 35.976 17.3189 35.9953 17.3042 36.0105C17.2895 36.0258 17.2705 36.0362 17.2498 36.0406C17.229 36.0449 17.2074 36.043 17.1878 36.0349C17.1682 36.0269 17.1514 36.0132 17.1397 35.9956L16.6146 35.1618C16.5997 35.138 16.5948 35.1093 16.6011 35.0819C16.6074 35.0545 16.6243 35.0307 16.6481 35.0158C16.6719 35.0009 16.7007 34.996 16.7281 35.0023C16.7556 35.0086 16.7794 35.0254 16.7943 35.0492L17.1672 35.642L17.9731 30.3172L16.1054 27.8977L9.89118 27.4166L7.67957 29.6585L12.6307 36.0648L13.0845 35.2951C13.0987 35.2708 13.122 35.2532 13.1492 35.2461C13.1763 35.239 13.2053 35.2429 13.2295 35.2571C13.2538 35.2712 13.2715 35.2945 13.2786 35.3216C13.2857 35.3488 13.2818 35.3776 13.2676 35.4019L12.7343 36.3097C12.7255 36.3246 12.7132 36.3371 12.6984 36.3462C12.6836 36.3553 12.6668 36.3606 12.6495 36.3617L12.6413 36.3612Z" fill="#252B4A"/>
<path d="M18.4532 25.4785L15.4441 32.1042L10.3926 27.4018L13.2403 21.3555C13.2403 21.3555 16.8225 22.9508 18.4532 25.4785Z" fill="white"/>
<path d="M15.4425 32.2297C15.4107 32.2296 15.38 32.2176 15.3567 32.1959L10.3057 27.493C10.2862 27.4748 10.2729 27.4508 10.2679 27.4246C10.2628 27.3984 10.2663 27.3712 10.2777 27.347L13.1254 21.3013C13.1394 21.2713 13.1645 21.248 13.1955 21.2365C13.2264 21.2249 13.2607 21.226 13.2909 21.2394C13.3269 21.256 16.9257 22.88 18.557 25.4094C18.5684 25.4272 18.5752 25.4476 18.5768 25.4687C18.5784 25.4898 18.5748 25.5109 18.5662 25.5302L15.557 32.1559C15.5487 32.174 15.5363 32.1899 15.5206 32.2024C15.505 32.2148 15.4867 32.2234 15.4672 32.2274C15.459 32.2287 15.4508 32.2295 15.4425 32.2297ZM10.545 27.3711L15.4002 31.8931L18.3092 25.4896C16.8633 23.3018 13.9102 21.8136 13.3 21.5222L10.545 27.3711Z" fill="#252B4A"/>
<path d="M10.1838 18.8723C9.66408 18.0005 9.19756 17.0406 9.22905 16.0252C9.26053 15.0097 9.94513 13.9525 10.9509 13.8185C10.6744 12.6502 11.1409 11.3388 12.0957 10.6084C13.0505 9.87805 14.4357 9.76757 15.4924 10.3383C16.648 9.01257 18.7116 8.64679 20.3218 9.35315C21.932 10.0595 23.0356 11.7183 23.2319 13.4659C23.316 14.2163 23.2405 15.008 22.8673 15.6651C22.3447 16.5844 21.3046 17.115 20.2594 17.2793C19.6641 17.3726 18.9875 17.3938 18.5834 17.8414C18.3321 18.119 18.2462 18.5025 18.1254 18.8569C17.9097 19.484 17.5674 20.0602 17.1196 20.5495C16.6719 21.0388 16.1283 21.4308 15.5227 21.7012C14.5364 22.1345 12.8324 22.3921 11.8593 21.767C11.4815 21.5249 11.4111 21.0635 11.2268 20.6748C10.928 20.0486 10.5393 19.4693 10.1838 18.8723Z" fill="#4F56B2"/>
<path d="M21.798 19.5622C22.2777 21.2222 22.4472 23.1112 21.5416 24.5788C20.7534 25.8576 19.1718 26.5966 17.6847 26.3813C16.1976 26.1661 14.8908 25.0076 14.4975 23.5588C13.0888 23.545 11.7454 22.5422 11.331 21.1959C11.1753 20.6899 11.1833 20.0511 11.6097 19.7351C12.0968 19.3756 12.7734 19.6607 13.3315 19.8954C13.8896 20.1301 14.3092 20.5473 14.6057 20.019C14.3951 18.6847 13.371 16.4128 15.3315 15.7546C16.0614 15.5078 20.1438 14.8066 20.1438 14.8066C20.1438 14.8066 21.5399 18.6693 21.798 19.5622Z" fill="white"/>
<path d="M18.1998 26.5414C18.0217 26.5415 17.8438 26.5287 17.6675 26.5031C16.1661 26.2861 14.8369 25.1293 14.4048 23.6794C12.9692 23.6222 11.6372 22.6056 11.2136 21.2301C11.0487 20.6943 11.047 19.9925 11.5376 19.6307C12.0825 19.2301 12.8032 19.5323 13.3824 19.7761C13.5129 19.8334 13.632 19.8935 13.7471 19.9536C14.1661 20.1728 14.3269 20.2289 14.4763 19.9914C14.438 19.7624 14.3756 19.4997 14.3097 19.2255C14.0046 17.9519 13.5868 16.2077 15.2943 15.6319C16.0247 15.3858 19.9583 14.708 20.1254 14.6794C20.1545 14.6746 20.1844 14.6802 20.2098 14.695C20.2353 14.7098 20.2548 14.733 20.2651 14.7607C20.3223 14.9187 21.6652 18.637 21.9216 19.5243C22.5335 21.637 22.4425 23.3594 21.652 24.6416C20.9308 25.8093 19.5656 26.5414 18.1998 26.5414ZM12.1661 19.6886C11.9939 19.6835 11.8248 19.735 11.6847 19.8351C11.3 20.1213 11.3189 20.7252 11.4517 21.1574C11.8524 22.4619 13.1352 23.4178 14.4992 23.4315C14.5267 23.4319 14.5532 23.4413 14.5749 23.4581C14.5966 23.4749 14.6122 23.4984 14.6194 23.5248C14.9995 24.925 16.2674 26.048 17.7036 26.2558C19.1397 26.4636 20.6738 25.7458 21.4351 24.5111C22.1872 23.2919 22.2685 21.6376 21.6778 19.5958C21.4488 18.7945 20.2817 15.558 20.0619 14.9473C19.4208 15.0618 16.0201 15.6536 15.3721 15.8723C13.8839 16.3749 14.2388 17.8591 14.5519 19.1682C14.6234 19.4659 14.691 19.7464 14.7305 19.9982C14.7348 20.0262 14.7296 20.0549 14.7156 20.0795C14.4259 20.5947 14.0024 20.3743 13.628 20.1785C13.5175 20.1213 13.403 20.0641 13.2846 20.0103C12.9171 19.8563 12.5187 19.6886 12.1661 19.6886Z" fill="#252B4A"/>
<path d="M13.943 21.892C13.9249 21.8921 13.907 21.8884 13.8905 21.8809C13.874 21.8735 13.8593 21.8627 13.8474 21.8491C13.6938 21.6748 13.5017 21.5387 13.2865 21.4514C13.0712 21.364 12.8386 21.328 12.607 21.346C12.5904 21.3479 12.5736 21.3464 12.5576 21.3416C12.5416 21.3368 12.5268 21.3288 12.514 21.3181C12.5012 21.3074 12.4907 21.2942 12.4832 21.2793C12.4756 21.2644 12.4712 21.2481 12.4701 21.2315C12.4674 21.1983 12.4779 21.1653 12.4994 21.1398C12.5208 21.1143 12.5514 21.0983 12.5846 21.0953C12.8559 21.0739 13.1285 21.116 13.3807 21.2181C13.6329 21.3202 13.858 21.4796 14.038 21.6837C14.0597 21.7091 14.0705 21.742 14.0682 21.7753C14.0658 21.8086 14.0505 21.8396 14.0254 21.8617C14.0024 21.8814 13.9732 21.8922 13.943 21.892Z" fill="#252B4A"/>
<path d="M20.2083 19.313C20.3634 20.0978 21.0268 20.6296 21.6897 20.4973C22.3525 20.3651 22.7641 19.6238 22.609 18.8373C22.4538 18.0509 21.791 17.5208 21.1281 17.653C20.4653 17.7853 20.0537 18.5305 20.2083 19.313Z" fill="white"/>
<path d="M21.4907 20.6409C20.8416 20.6409 20.2383 20.0989 20.0877 19.3353C19.9195 18.4829 20.374 17.6753 21.1061 17.5287C21.2879 17.495 21.4749 17.5021 21.6537 17.5494C21.8324 17.5967 21.9985 17.6831 22.1398 17.8023C22.451 18.0583 22.6619 18.4159 22.7351 18.8121C22.9034 19.6638 22.4489 20.4721 21.7163 20.6186C21.642 20.6334 21.5664 20.6409 21.4907 20.6409ZM21.3339 17.7583C21.2737 17.7583 21.2138 17.764 21.1547 17.7754C20.5611 17.8928 20.1931 18.5705 20.3345 19.286C20.4758 20.0015 21.0729 20.4881 21.6676 20.3736C22.2623 20.2591 22.6292 19.5791 22.4879 18.863C22.4256 18.5264 22.2469 18.2224 21.983 18.0044C21.8012 17.8504 21.5721 17.7635 21.3339 17.7583Z" fill="#252B4A"/>
<path d="M17.7291 21.3818C17.0353 21.3818 16.4034 20.8512 16.254 20.0944C16.0857 19.2427 16.5923 18.4224 17.3827 18.2662C18.1732 18.1099 18.9534 18.676 19.1217 19.5255C19.2046 19.9273 19.1326 20.3456 18.9202 20.6966C18.8202 20.8649 18.686 21.0104 18.5263 21.1236C18.3666 21.2367 18.1849 21.3152 17.9929 21.3537C17.9061 21.3718 17.8177 21.3812 17.7291 21.3818ZM17.6472 18.4923C17.5748 18.4923 17.5025 18.4994 17.4314 18.5135C16.7771 18.6451 16.3593 19.332 16.5012 20.0458C16.6432 20.7596 17.2894 21.2381 17.9443 21.1093C18.102 21.0772 18.2513 21.0124 18.3824 20.919C18.5136 20.8257 18.6236 20.7058 18.7056 20.5673C18.8855 20.2706 18.9469 19.9169 18.8773 19.577C18.7491 18.9399 18.2225 18.4923 17.6472 18.4923Z" fill="#252B4A"/>
<path d="M18.997 19.6764C18.9742 19.6764 18.9518 19.6701 18.9323 19.6581C18.9042 19.6408 18.8839 19.6131 18.8758 19.581C18.8678 19.5489 18.8727 19.5149 18.8894 19.4864C19.0795 19.1721 19.3096 18.9953 19.5763 18.9609C19.973 18.91 20.2861 19.2093 20.2993 19.2219C20.3232 19.2452 20.337 19.2771 20.3375 19.3105C20.338 19.344 20.3251 19.3762 20.3018 19.4002C20.2785 19.4242 20.2467 19.438 20.2132 19.4384C20.1798 19.4389 20.1475 19.4261 20.1235 19.4028C20.1184 19.3982 19.8814 19.1738 19.6084 19.2111C19.4252 19.2357 19.2575 19.3719 19.1098 19.6169C19.098 19.6359 19.0813 19.6515 19.0615 19.662C19.0417 19.6724 19.0194 19.6774 18.997 19.6764Z" fill="#252B4A"/>
<path d="M16.3793 20.1939H16.3655L13.9328 19.9301C13.9008 19.9251 13.8719 19.908 13.8522 19.8823C13.8325 19.8566 13.8234 19.8243 13.8269 19.7921C13.8304 19.76 13.8461 19.7303 13.8708 19.7094C13.8956 19.6885 13.9274 19.678 13.9597 19.6799L16.393 19.9438C16.4244 19.948 16.4531 19.9639 16.4733 19.9883C16.4935 20.0127 16.5038 20.0439 16.5021 20.0755C16.5003 20.1072 16.4867 20.137 16.464 20.1591C16.4412 20.1811 16.411 20.1938 16.3793 20.1945V20.1939Z" fill="#252B4A"/>
<path d="M52.569 16.566V28.5H49.662V21.343L46.993 28.5H44.647L41.961 21.326V28.5H39.054V16.566H42.488L45.837 24.828L49.152 16.566H52.569ZM64.3495 19.014L58.3995 33.005H55.2715L57.4475 28.177L53.5885 19.014H56.8355L59.0285 24.947L61.2045 19.014H64.3495ZM133.254 16.566L130.143 28.5H126.624L124.72 20.646L122.748 28.5H119.229L116.203 16.566H119.314L121.031 25.253L123.156 16.566H126.352L128.392 25.253L130.126 16.566H133.254ZM137.619 20.595C137.959 20.0737 138.384 19.6657 138.894 19.371C139.404 19.065 139.971 18.912 140.594 18.912V21.989H139.795C139.07 21.989 138.526 22.1477 138.163 22.465C137.801 22.771 137.619 23.315 137.619 24.097V28.5H134.712V19.014H137.619V20.595ZM143.446 18.028C142.936 18.028 142.516 17.8807 142.188 17.586C141.87 17.28 141.712 16.906 141.712 16.464C141.712 16.0107 141.87 15.6367 142.188 15.342C142.516 15.036 142.936 14.883 143.446 14.883C143.944 14.883 144.352 15.036 144.67 15.342C144.998 15.6367 145.163 16.0107 145.163 16.464C145.163 16.906 144.998 17.28 144.67 17.586C144.352 17.8807 143.944 18.028 143.446 18.028ZM144.891 19.014V28.5H141.984V19.014H144.891ZM152.284 26.035V28.5H150.805C149.751 28.5 148.93 28.245 148.34 27.735C147.751 27.2137 147.456 26.3693 147.456 25.202V21.428H146.3V19.014H147.456V16.702H150.363V19.014H152.267V21.428H150.363V25.236C150.363 25.5193 150.431 25.7233 150.567 25.848C150.703 25.9727 150.93 26.035 151.247 26.035H152.284ZM162.846 23.604C162.846 23.876 162.829 24.1593 162.795 24.454H156.216C156.261 25.0433 156.448 25.4967 156.777 25.814C157.117 26.12 157.53 26.273 158.018 26.273C158.743 26.273 159.247 25.967 159.531 25.355H162.625C162.466 25.9783 162.177 26.5393 161.758 27.038C161.35 27.5367 160.834 27.9277 160.211 28.211C159.587 28.4943 158.89 28.636 158.12 28.636C157.19 28.636 156.363 28.4377 155.638 28.041C154.912 27.6443 154.346 27.0777 153.938 26.341C153.53 25.6043 153.326 24.743 153.326 23.757C153.326 22.771 153.524 21.9097 153.921 21.173C154.329 20.4363 154.895 19.8697 155.621 19.473C156.346 19.0763 157.179 18.878 158.12 18.878C159.038 18.878 159.854 19.0707 160.568 19.456C161.282 19.8413 161.837 20.391 162.234 21.105C162.642 21.819 162.846 22.652 162.846 23.604ZM159.871 22.839C159.871 22.3403 159.701 21.9437 159.361 21.649C159.021 21.3543 158.596 21.207 158.086 21.207C157.598 21.207 157.185 21.3487 156.845 21.632C156.516 21.9153 156.312 22.3177 156.233 22.839H159.871ZM167.286 20.595C167.626 20.0737 168.051 19.6657 168.561 19.371C169.071 19.065 169.638 18.912 170.261 18.912V21.989H169.462C168.737 21.989 168.193 22.1477 167.83 22.465C167.468 22.771 167.286 23.315 167.286 24.097V28.5H164.379V19.014H167.286V20.595Z" fill="white"/>
<path d="M74.4957 20.408C74.4957 21.0993 74.337 21.734 74.0197 22.312C73.7023 22.8787 73.215 23.3377 72.5577 23.689C71.9003 24.0403 71.0843 24.216 70.1097 24.216H68.3077V28.5H65.4007V16.566H70.1097C71.0617 16.566 71.8663 16.7303 72.5237 17.059C73.181 17.3877 73.674 17.841 74.0027 18.419C74.3313 18.997 74.4957 19.66 74.4957 20.408ZM69.8887 21.904C70.444 21.904 70.8577 21.7737 71.1297 21.513C71.4017 21.2523 71.5377 20.884 71.5377 20.408C71.5377 19.932 71.4017 19.5637 71.1297 19.303C70.8577 19.0423 70.444 18.912 69.8887 18.912H68.3077V21.904H69.8887ZM75.4311 23.74C75.4311 22.7653 75.6124 21.9097 75.9751 21.173C76.3491 20.4363 76.8534 19.8697 77.4881 19.473C78.1227 19.0763 78.8311 18.878 79.6131 18.878C80.2817 18.878 80.8654 19.014 81.3641 19.286C81.8741 19.558 82.2651 19.915 82.5371 20.357V19.014H85.4441V28.5H82.5371V27.157C82.2537 27.599 81.8571 27.956 81.3471 28.228C80.8484 28.5 80.2647 28.636 79.5961 28.636C78.8254 28.636 78.1227 28.4377 77.4881 28.041C76.8534 27.633 76.3491 27.0607 75.9751 26.324C75.6124 25.576 75.4311 24.7147 75.4311 23.74ZM82.5371 23.757C82.5371 23.0317 82.3331 22.4593 81.9251 22.04C81.5284 21.6207 81.0411 21.411 80.4631 21.411C79.8851 21.411 79.3921 21.6207 78.9841 22.04C78.5874 22.448 78.3891 23.0147 78.3891 23.74C78.3891 24.4653 78.5874 25.0433 78.9841 25.474C79.3921 25.8933 79.8851 26.103 80.4631 26.103C81.0411 26.103 81.5284 25.8933 81.9251 25.474C82.3331 25.0547 82.5371 24.4823 82.5371 23.757ZM90.4542 20.357C90.7375 19.915 91.1285 19.558 91.6272 19.286C92.1258 19.014 92.7095 18.878 93.3782 18.878C94.1602 18.878 94.8685 19.0763 95.5032 19.473C96.1378 19.8697 96.6365 20.4363 96.9992 21.173C97.3732 21.9097 97.5602 22.7653 97.5602 23.74C97.5602 24.7147 97.3732 25.576 96.9992 26.324C96.6365 27.0607 96.1378 27.633 95.5032 28.041C94.8685 28.4377 94.1602 28.636 93.3782 28.636C92.7208 28.636 92.1372 28.5 91.6272 28.228C91.1285 27.956 90.7375 27.6047 90.4542 27.174V33.022H87.5472V19.014H90.4542V20.357ZM94.6022 23.74C94.6022 23.0147 94.3982 22.448 93.9902 22.04C93.5935 21.6207 93.1005 21.411 92.5112 21.411C91.9332 21.411 91.4402 21.6207 91.0322 22.04C90.6355 22.4593 90.4372 23.0317 90.4372 23.757C90.4372 24.4823 90.6355 25.0547 91.0322 25.474C91.4402 25.8933 91.9332 26.103 92.5112 26.103C93.0892 26.103 93.5822 25.8933 93.9902 25.474C94.3982 25.0433 94.6022 24.4653 94.6022 23.74ZM108.027 23.604C108.027 23.876 108.01 24.1593 107.976 24.454H101.397C101.443 25.0433 101.63 25.4967 101.958 25.814C102.298 26.12 102.712 26.273 103.199 26.273C103.925 26.273 104.429 25.967 104.712 25.355H107.806C107.648 25.9783 107.359 26.5393 106.939 27.038C106.531 27.5367 106.016 27.9277 105.392 28.211C104.769 28.4943 104.072 28.636 103.301 28.636C102.372 28.636 101.545 28.4377 100.819 28.041C100.094 27.6443 99.5273 27.0777 99.1193 26.341C98.7113 25.6043 98.5073 24.743 98.5073 23.757C98.5073 22.771 98.7056 21.9097 99.1023 21.173C99.5103 20.4363 100.077 19.8697 100.802 19.473C101.528 19.0763 102.361 18.878 103.301 18.878C104.219 18.878 105.035 19.0707 105.749 19.456C106.463 19.8413 107.019 20.391 107.415 21.105C107.823 21.819 108.027 22.652 108.027 23.604ZM105.052 22.839C105.052 22.3403 104.882 21.9437 104.542 21.649C104.202 21.3543 103.777 21.207 103.267 21.207C102.78 21.207 102.366 21.3487 102.026 21.632C101.698 21.9153 101.494 22.3177 101.414 22.839H105.052ZM112.468 20.595C112.808 20.0737 113.233 19.6657 113.743 19.371C114.253 19.065 114.82 18.912 115.443 18.912V21.989H114.644C113.919 21.989 113.375 22.1477 113.012 22.465C112.649 22.771 112.468 23.315 112.468 24.097V28.5H109.561V19.014H112.468V20.595Z" fill="#EE8253"/>
</svg>
