<svg width="100" height="100" viewBox="0 0 100 100" fill="none" xmlns="http://www.w3.org/2000/svg">
<path d="M13.2188 30.9126C13.2188 28.8634 14.8845 27.2021 16.9394 27.2021H89.2787C91.3336 27.2021 92.9994 28.8634 92.9994 30.9126V74.2893C92.9994 76.3385 91.3336 77.9998 89.2787 77.9998H16.9394C14.8845 77.9998 13.2188 76.3385 13.2188 74.2893V30.9126Z" fill="#252B4A"/>
<path d="M8.85938 26.5659C8.85938 24.5167 10.5252 22.8555 12.58 22.8555H84.9194C86.9742 22.8555 88.64 24.5167 88.64 26.5659V69.9426C88.64 71.9919 86.9742 73.6531 84.9194 73.6531H12.58C10.5252 73.6531 8.85938 71.9919 8.85938 69.9426V26.5659Z" fill="white"/>
<path fill-rule="evenodd" clip-rule="evenodd" d="M12.581 21H84.9203C88.0026 21 90.5013 23.4919 90.5013 26.5657V69.9424C90.5013 73.0163 88.0026 75.5081 84.9203 75.5081H12.581C9.49868 75.5081 7 73.0162 7 69.9424V26.5657C7 23.4919 9.49869 21 12.581 21ZM12.581 22.8552C10.5261 22.8552 8.86032 24.5165 8.86032 26.5657V69.9424C8.86032 71.9916 10.5261 73.6529 12.581 73.6529H84.9203C86.9752 73.6529 88.641 71.9916 88.641 69.9424V26.5657C88.641 24.5165 86.9752 22.8552 84.9203 22.8552H12.581Z" fill="#252B4A"/>
<path fill-rule="evenodd" clip-rule="evenodd" d="M24.0617 40.8771C24.7392 39.4811 26.7331 39.4811 27.4106 40.8771L28.824 43.7891L31.7726 44.1229C33.3312 44.2994 33.9846 46.202 32.8618 47.2944L30.3889 49.7L30.9816 52.1237C31.3731 53.7248 29.6332 55.0022 28.2165 54.1537L25.7361 52.6683L23.2558 54.1537C21.8391 55.0022 20.0992 53.7248 20.4907 52.1237L21.0834 49.7L18.6105 47.2944C17.4877 46.202 18.1411 44.2994 19.6997 44.1229L22.6483 43.7891L24.0617 40.8771ZM27.1495 44.5973L25.7361 41.6853L24.3228 44.5973C24.0449 45.17 23.4921 45.5607 22.8582 45.6325L19.9095 45.9663L22.3824 48.372C22.8533 48.8301 23.0466 49.5022 22.8907 50.1396L22.2981 52.5632L24.7784 51.0778C25.3678 50.7248 26.1045 50.7248 26.6939 51.0778L29.1742 52.5632L28.5816 50.1396C28.4257 49.5022 28.619 48.8301 29.0899 48.372L31.5628 45.9663L28.6141 45.6325C27.9802 45.5607 27.4274 45.17 27.1495 44.5973Z" fill="#252B4A"/>
<path fill-rule="evenodd" clip-rule="evenodd" d="M46.5734 40.8771C47.2509 39.4811 49.2448 39.4811 49.9224 40.8771L51.3357 43.7891L54.2843 44.1229C55.8429 44.2994 56.4963 46.202 55.3735 47.2944L52.9007 49.7L53.4933 52.1237C53.8848 53.7248 52.1449 55.0022 50.7282 54.1537L48.2479 52.6683L45.7675 54.1537C44.3508 55.0022 42.6109 53.7248 43.0024 52.1237L43.5951 49.7L41.1222 47.2944C39.9994 46.202 40.6528 44.2994 42.2114 44.1229L45.1601 43.7891L46.5734 40.8771ZM49.6612 44.5973L48.2479 41.6853L46.8346 44.5973C46.5566 45.17 46.0038 45.5607 45.3699 45.6325L42.4213 45.9663L44.8941 48.372C45.365 48.8301 45.5583 49.5022 45.4024 50.1396L44.8098 52.5632L47.2901 51.0778C47.8796 50.7248 48.6162 50.7248 49.2056 51.0778L51.686 52.5632L51.0933 50.1396C50.9374 49.5022 51.1307 48.8301 51.6016 48.372L54.0745 45.9663L51.1258 45.6325C50.4919 45.5607 49.9391 45.17 49.6612 44.5973Z" fill="#252B4A"/>
<path fill-rule="evenodd" clip-rule="evenodd" d="M69.0812 40.8771C69.7587 39.4811 71.7527 39.4811 72.4302 40.8771L73.8435 43.7891L76.7921 44.1229C78.3507 44.2994 79.0041 46.202 77.8813 47.2944L75.4085 49.7L76.0011 52.1237C76.3926 53.7248 74.6527 55.0022 73.236 54.1537L70.7557 52.6683L68.2753 54.1537C66.8586 55.0022 65.1187 53.7248 65.5102 52.1237L66.1029 49.7L63.63 47.2944C62.5072 46.202 63.1607 44.2994 64.7192 44.1229L67.6679 43.7891L69.0812 40.8771ZM72.169 44.5973L70.7557 41.6853L69.3424 44.5973C69.0644 45.17 68.5116 45.5607 67.8777 45.6325L64.9291 45.9663L67.4019 48.372C67.8728 48.8301 68.0661 49.5022 67.9103 50.1396L67.3176 52.5632L69.7979 51.0778C70.3874 50.7248 71.124 50.7248 71.7134 51.0778L74.1938 52.5632L73.6011 50.1396C73.4452 49.5022 73.6385 48.8301 74.1094 48.372L76.5823 45.9663L73.6336 45.6325C72.9997 45.5607 72.4469 45.17 72.169 44.5973Z" fill="#252B4A"/>
<path d="M25.6246 50.9912L28.8668 52.9521C29.4605 53.3115 30.1871 52.7803 30.0308 52.1084L29.1715 48.4209L32.0386 45.9365C32.5621 45.4834 32.2808 44.624 31.5933 44.5693L27.8199 44.249L26.3433 40.7646C26.0777 40.1318 25.1715 40.1318 24.9058 40.7646L23.4293 44.2412L19.6558 44.5615C18.9683 44.6162 18.6871 45.4756 19.2105 45.9287L22.0777 48.4131L21.2183 52.1006C21.0621 52.7725 21.7886 53.3037 22.3824 52.9443L25.6246 50.9912Z" fill="#FFB800"/>
</svg>
