<svg width="480" height="462" viewBox="0 0 480 462" fill="none" xmlns="http://www.w3.org/2000/svg">
<path d="M133.229 275.128L200.567 285.166C203.816 270.617 205.542 263.366 206.678 258.157C211.428 236.518 230.228 229.093 235.434 227.449C236.088 231.372 258.938 244.962 269.308 238.75C307.272 288.323 330.685 320.72 380.856 368.213C388.571 375.368 366.1 399.938 358.347 392.896C310.065 349.626 284.396 325.945 247.98 281.614L255.019 258.24L224.832 310.112C222.687 313.79 219.465 316.722 215.601 318.512C211.737 320.3 207.417 320.859 203.224 320.113L127.572 306.478C120.791 305.372 126.285 273.874 133.229 275.128Z" fill="#F7F7FF"/>
<path d="M302.058 111.328L313.368 58.7783L330.784 62.5241C331.687 62.7345 332.512 63.1971 333.163 63.8581C333.813 64.519 334.263 65.3512 334.459 66.2577C334.655 67.1642 334.59 68.1078 334.271 68.9787C333.952 69.8496 333.392 70.6119 332.656 71.177C330.98 72.4691 329.707 74.2136 328.989 76.2049C328.27 78.1962 328.136 80.3514 328.601 82.4167C329.066 84.482 330.112 86.3712 331.615 87.862C333.117 89.3527 335.015 90.3829 337.084 90.831C339.153 91.2792 341.306 91.1268 343.291 90.3917C345.276 89.6565 347.01 88.3694 348.288 86.6818C349.566 84.9942 350.335 82.9764 350.505 80.8662C350.675 78.756 350.238 76.6413 349.246 74.771C348.813 73.9537 348.62 73.0301 348.691 72.1077C348.762 71.1853 349.093 70.302 349.647 69.5606C350.2 68.8192 350.952 68.2501 351.816 67.9195C352.68 67.589 353.62 67.5105 354.527 67.6934L370.781 71.177L359.465 123.727C359.196 124.969 358.446 126.053 357.378 126.741C356.311 127.43 355.013 127.666 353.772 127.398L327.07 121.667C326.82 118.958 326.333 113.418 325.048 111.703C323.587 109.757 322.538 116.237 321.827 120.506L305.722 117.022C304.482 116.752 303.399 116.001 302.712 114.934C302.025 113.866 301.789 112.569 302.058 111.328Z" fill="#F7F7FF"/>
<path d="M254.756 163.993L258.342 168.076C258.477 167.138 258.726 166.22 259.083 165.342C257.602 165.028 256.153 164.576 254.756 163.993Z" fill="#4F56B2"/>
<path d="M228.691 199.615C229.819 202.66 230.745 205.776 231.463 208.942C226.819 209.128 226.519 209.24 222.1 209.24L228.691 199.615Z" fill="#4F56B2"/>
<path d="M244.15 276.851C245.423 278.462 246.734 280.035 247.97 281.608L255.009 258.234L244.15 276.851Z" fill="#4F56B2"/>
<path d="M240.525 141.108C252.427 127.473 259.699 133.766 263.663 141.558C259.468 133.617 252.841 136.014 251.343 144.779C251.193 145.79 250.632 145.716 250.519 145.641C249.919 145.482 249.358 145.201 248.871 144.817C245.388 142.382 242.991 148.487 248.197 150.248C248.874 154.033 249.262 157.864 249.358 161.708C249.358 161.708 227.754 155.687 240.525 141.108Z" fill="#4F56B2"/>
<path d="M226.744 137.774C231.164 142.381 238.082 142.933 242.212 138.973C246.342 135.012 246.107 128.072 241.688 123.465C237.268 118.858 230.349 118.306 226.22 122.266C222.09 126.227 222.325 133.167 226.744 137.774Z" fill="#4F56B2"/>
<path d="M381.935 375.361C404.694 393.251 418.599 400.659 418.23 403.64C417.442 410.046 393.923 399.557 382.128 400.531C379.335 400.825 376.51 400.571 373.813 399.782C370.78 398.846 368.491 396.299 365.574 393.339C373.064 389.578 378.893 383.172 381.935 375.361Z" fill="#4F56B2"/>
<path d="M109.517 280.184C117.814 274.431 121.344 276.438 128.953 278.424C125.391 285.788 123.927 293.991 124.721 302.133C115.098 300.786 103.712 299.398 96.671 298.978C86.4464 298.387 77.4972 297.482 76.7836 295.794C74.2329 289.886 99.8584 287 109.517 280.184Z" fill="#4F56B2"/>
<path d="M143.305 174.552L151.243 175.341C149.445 170.173 146.039 169.795 143.305 174.552Z" fill="#4F56B2"/>
<path d="M141.805 197.331C143.566 201.227 146.375 201.377 148.771 197.893L141.805 197.331Z" fill="#4F56B2"/>
<path d="M193.188 101.404C193.356 101.44 193.528 101.442 193.696 101.41C193.864 101.378 194.025 101.313 194.167 101.219C194.31 101.125 194.433 101.004 194.529 100.862C194.624 100.72 194.69 100.56 194.724 100.392L197.907 84.8178C197.976 84.4851 197.91 84.1389 197.724 83.8545C197.538 83.5702 197.248 83.3708 196.916 83.2997C196.583 83.2314 196.236 83.2975 195.952 83.4837C195.668 83.6698 195.469 83.9609 195.398 84.2933L192.214 99.8681C192.172 100.033 192.163 100.206 192.189 100.375C192.215 100.543 192.275 100.705 192.366 100.85C192.457 100.995 192.577 101.119 192.719 101.214C192.86 101.309 193.02 101.374 193.188 101.404Z" fill="#4F56B2"/>
<path d="M278.951 194.146L284.864 208.566C283.516 208.678 282.13 208.753 280.782 208.828C281.531 203.86 280.9 198.779 278.951 194.146Z" fill="#4F56B2"/>
<path d="M424.261 248.383C424.588 248.696 425.023 248.87 425.476 248.869C425.929 248.868 426.363 248.693 426.69 248.379C427.015 248.064 427.206 247.634 427.221 247.181C427.236 246.728 427.074 246.286 426.77 245.95C426.443 245.637 426.008 245.463 425.555 245.464C425.103 245.465 424.668 245.64 424.342 245.954C424.016 246.269 423.826 246.699 423.811 247.152C423.796 247.605 423.957 248.047 424.261 248.383Z" fill="#4F56B2"/>
<path d="M254.869 188.191C254.84 188.458 254.865 188.729 254.942 188.987C255.019 189.245 255.146 189.485 255.316 189.693C255.487 189.902 255.697 190.074 255.934 190.2C256.172 190.327 256.432 190.405 256.7 190.43C256.968 190.454 257.239 190.426 257.495 190.345C257.752 190.265 257.99 190.134 258.196 189.96C258.402 189.787 258.571 189.574 258.694 189.335C258.817 189.095 258.891 188.834 258.912 188.565C258.953 188.034 258.784 187.507 258.44 187.099C258.096 186.691 257.606 186.435 257.075 186.386C256.544 186.336 256.015 186.498 255.602 186.836C255.189 187.174 254.926 187.66 254.869 188.191Z" fill="#4F56B2"/>
<path d="M258.165 201.864C258.141 202.129 258.169 202.397 258.248 202.652C258.327 202.907 258.455 203.143 258.626 203.348C258.796 203.554 259.006 203.723 259.242 203.847C259.478 203.972 259.736 204.048 260.001 204.073C260.267 204.097 260.535 204.069 260.79 203.99C261.044 203.911 261.281 203.782 261.486 203.612C261.691 203.441 261.861 203.232 261.985 202.996C262.109 202.76 262.186 202.502 262.21 202.236C262.26 201.7 262.094 201.166 261.75 200.751C261.405 200.337 260.91 200.077 260.374 200.027C259.838 199.978 259.304 200.143 258.889 200.488C258.475 200.832 258.215 201.327 258.165 201.864Z" fill="#4F56B2"/>
<path d="M258.165 217.144C258.141 217.409 258.169 217.677 258.248 217.932C258.327 218.187 258.455 218.424 258.626 218.629C258.796 218.834 259.006 219.003 259.242 219.128C259.478 219.252 259.736 219.328 260.001 219.353C260.267 219.377 260.535 219.349 260.79 219.27C261.044 219.191 261.281 219.063 261.486 218.892C261.691 218.722 261.861 218.512 261.985 218.276C262.109 218.04 262.186 217.782 262.21 217.516C262.26 216.98 262.094 216.446 261.75 216.032C261.405 215.617 260.91 215.357 260.374 215.307C259.838 215.258 259.304 215.424 258.889 215.768C258.475 216.113 258.215 216.607 258.165 217.144Z" fill="#4F56B2"/>
<path d="M354.931 389.856L305.06 409.259L291.316 373.863C290.516 371.914 289.181 370.231 287.465 369.01C285.748 367.788 283.721 367.077 281.618 366.959C279.514 366.842 277.421 367.322 275.579 368.345C273.737 369.368 272.222 370.892 271.21 372.74C268.901 376.98 265.429 380.472 261.203 382.806C256.976 385.139 252.171 386.216 247.353 385.911C242.536 385.604 237.906 383.927 234.009 381.078C230.111 378.229 227.108 374.327 225.353 369.83C223.597 365.331 223.163 360.425 224.102 355.688C225.041 350.952 227.314 346.582 230.653 343.094C233.991 339.605 238.257 337.144 242.948 335.999C247.638 334.854 252.558 335.074 257.128 336.632C259.125 337.319 261.275 337.426 263.33 336.938C265.384 336.451 267.258 335.39 268.733 333.879C270.209 332.369 271.225 330.47 271.663 328.404C272.102 326.338 271.945 324.19 271.21 322.21L261.922 298.355" stroke="#252B4A" stroke-linecap="round" stroke-linejoin="round"/>
<path d="M385.35 378.021L420.291 364.418C422.99 363.366 425.162 361.286 426.329 358.634C426.907 357.32 427.22 355.906 427.25 354.471C427.281 353.037 427.029 351.61 426.508 350.273L385.837 245.725C385.317 244.386 384.537 243.163 383.544 242.126C382.551 241.089 381.362 240.257 380.047 239.68C378.733 239.102 377.317 238.79 375.881 238.76C374.445 238.73 373.017 238.984 371.68 239.507L293.226 269.996" stroke="#252B4A" stroke-linecap="round" stroke-linejoin="round"/>
<path d="M107.987 178.603C107.755 179.496 107.403 180.353 106.94 181.15" stroke="#252B4A" stroke-linecap="round" stroke-linejoin="round"/>
<path d="M108.092 173.397C107.76 171.819 107.09 170.332 106.128 169.039C105.166 167.745 103.935 166.676 102.519 165.905C99.3499 164.178 96.586 161.793 94.4128 158.911C92.2395 156.028 90.707 152.715 89.9179 149.192C89.1288 145.669 89.1014 142.019 89.8373 138.485C90.5732 134.95 92.0555 131.614 94.1851 128.699C97.0341 124.802 100.937 121.8 105.434 120.047C109.931 118.293 114.836 117.86 119.57 118.8C124.305 119.74 128.673 122.013 132.159 125.351C135.646 128.689 138.107 132.954 139.252 137.644C140.396 142.334 140.179 147.253 138.622 151.823C137.933 153.82 137.826 155.972 138.313 158.027C138.799 160.083 139.859 161.958 141.369 163.435C142.881 164.91 144.78 165.926 146.847 166.363C148.913 166.801 151.061 166.642 153.041 165.905L190.941 151.186L200.797 176.543" stroke="#252B4A" stroke-linecap="round" stroke-linejoin="round"/>
<path d="M150.683 310.646L125.254 320.504C123.916 321.026 122.489 321.279 121.053 321.249C119.617 321.22 118.202 320.907 116.887 320.33C115.572 319.753 114.384 318.921 113.391 317.884C112.398 316.847 111.619 315.624 111.099 314.286L105.359 299.515M104.17 184.424C103.315 185.09 102.369 185.634 101.361 186.035L76.6802 195.586C74.6639 196.369 72.9256 197.733 71.6859 199.506C70.4463 201.279 69.7613 203.38 69.718 205.542C69.6886 206.978 69.9425 208.406 70.4651 209.744L99.617 284.745" stroke="#252B4A" stroke-linecap="round" stroke-linejoin="round"/>
<path d="M234.49 223.175C231.963 223.367 229.572 224.396 227.695 226.099C225.817 227.801 224.56 230.08 224.122 232.577" stroke="#252B4A" stroke-linecap="round" stroke-linejoin="round"/>
<path d="M276.329 176.654C271.602 171.883 265.18 169.177 258.464 169.125" stroke="#252B4A" stroke-linecap="round" stroke-linejoin="round"/>
<path d="M244.834 129.234L303.068 106.611" stroke="#252B4A" stroke-linecap="round" stroke-linejoin="round"/>
<path d="M214.497 177.141L202.252 145.828L225.62 136.726" stroke="#252B4A" stroke-linecap="round" stroke-linejoin="round"/>
<path d="M283.932 257.897L366.099 225.947C368.798 224.89 370.968 222.806 372.133 220.152C373.298 217.498 373.364 214.49 372.317 211.788L361.38 183.434C360.675 181.452 360.538 179.313 360.985 177.257C361.433 175.202 362.447 173.313 363.912 171.804C365.378 170.295 367.237 169.227 369.278 168.721C371.319 168.214 373.462 168.289 375.463 168.937C380.021 170.477 384.924 170.684 389.596 169.534C394.268 168.383 398.515 165.923 401.838 162.443C405.161 158.962 407.422 154.606 408.355 149.885C409.288 145.164 408.855 140.275 407.107 135.792C405.358 131.308 402.367 127.417 398.484 124.575C394.601 121.733 389.988 120.058 385.187 119.747C380.385 119.436 375.595 120.502 371.378 122.819C367.161 125.137 363.692 128.609 361.38 132.83C357.026 140.828 344.736 140.716 341.274 131.743L339.776 127.885" stroke="#252B4A" stroke-linecap="round" stroke-linejoin="round"/>
<path d="M259.093 165.348C257.601 165.048 256.147 164.585 254.756 163.968L258.342 168.039" stroke="#252B4A" stroke-linecap="round" stroke-linejoin="round"/>
<path d="M232.361 176.841C236.549 176.752 240.68 175.862 244.533 174.219C247.037 172.861 249.475 170.398 249.365 161.708C249.266 157.864 248.878 154.033 248.204 150.248C242.998 148.525 245.347 142.449 248.878 144.816C250.177 145.688 251.119 146.23 251.35 144.816C252.777 136.002 259.475 133.654 263.67 141.595L264.981 144.629C268.016 153.174 268.47 166.818 259.093 165.342C258.726 166.203 258.478 167.11 258.351 168.039C258.302 168.975 259.327 173.992 260.449 174.631C262.737 175.936 266.703 177.178 273.819 176.841" stroke="#252B4A" stroke-linecap="round" stroke-linejoin="round"/>
<path d="M148.83 197.986C128.351 196.194 124.374 194.958 111.18 192.986C109.598 192.752 108.024 192.465 106.461 192.125C99.8283 190.721 99.3453 188.576 107.098 188.678C111.034 188.73 114.957 188.213 118.746 187.143" stroke="#252B4A" stroke-linecap="round" stroke-linejoin="round"/>
<path d="M115.928 187.823C115.89 188.01 110.982 186.514 105.029 184.668C98.3623 182.61 97.9523 179.899 106.04 181.035C110.117 181.81 114.297 181.886 118.399 181.26" stroke="#252B4A" stroke-linecap="round" stroke-linejoin="round"/>
<path d="M119.821 176.654C119.821 176.654 105.181 172.601 104.28 172.317C97.3813 170.083 96.3405 172.581 102.221 175.726C107.614 178.61 114.805 181.64 114.805 181.64" stroke="#252B4A" stroke-linecap="round" stroke-linejoin="round"/>
<path d="M151.435 174.62C151.533 174.628 151.628 174.655 151.715 174.701C151.802 174.746 151.88 174.808 151.943 174.884C152.005 174.96 152.052 175.047 152.081 175.141C152.11 175.235 152.119 175.334 152.109 175.432C152.1 175.529 152.07 175.624 152.023 175.71C151.976 175.797 151.912 175.873 151.836 175.934C151.759 175.996 151.671 176.041 151.576 176.068C151.482 176.095 151.383 176.102 151.285 176.091L151.435 174.62ZM141.918 174.407V175.146H141.867L141.918 174.407ZM112.332 167.14L112.642 166.47H112.644L112.332 167.14ZM110.085 170.174L109.703 170.805L109.687 170.797L110.085 170.174ZM117.692 175.41C117.809 175.556 117.867 175.741 117.854 175.928C117.841 176.114 117.757 176.289 117.621 176.417C117.484 176.545 117.304 176.616 117.117 176.617C116.93 176.617 116.749 176.547 116.612 176.42L117.692 175.41ZM151.36 175.355L151.285 176.091H151.279L151.259 176.089L151.181 176.081L150.883 176.049C149.453 175.906 148.023 175.762 146.594 175.615L143.351 175.29L142.273 175.184L141.965 175.154L141.884 175.146C141.839 175.142 141.877 175.146 141.918 175.146V173.668H141.971L141.987 173.67L142.018 173.673L142.107 173.681L142.417 173.711L143.499 173.819L146.741 174.145L149.97 174.472L151.031 174.578L151.328 174.608L151.407 174.616L151.427 174.62H151.435L151.36 175.355ZM141.867 175.146C140.353 175.044 138.673 174.419 137.317 173.508C135.981 172.615 134.81 171.339 134.559 169.847L136.018 169.602C136.17 170.509 136.947 171.481 138.139 172.282C139.314 173.066 140.749 173.587 141.969 173.67L141.867 175.146ZM134.559 169.847C134.384 168.802 134.236 167.633 134.081 166.495C133.944 165.413 133.771 164.335 133.562 163.264C133.359 162.278 133.126 161.509 132.856 161.022C132.58 160.526 132.417 160.559 132.37 160.565L132.139 159.106C133.123 158.948 133.769 159.623 134.148 160.307C134.532 160.999 134.8 161.953 135.011 162.964C135.227 164.069 135.406 165.18 135.547 166.296C135.703 167.453 135.849 168.589 136.018 169.602L134.559 169.847ZM132.37 160.565C131.977 160.628 131.605 160.951 131.272 161.827C130.944 162.684 130.745 163.854 130.574 165.182C130.406 166.476 130.262 167.923 130.034 169.198C129.807 170.462 129.474 171.71 128.851 172.589L127.645 171.732C128.064 171.142 128.354 170.18 128.579 168.938C128.8 167.708 128.932 166.351 129.107 164.993C129.279 163.67 129.494 162.339 129.89 161.298C130.28 160.273 130.942 159.295 132.139 159.106L132.37 160.565ZM128.851 172.589C128.474 173.121 127.828 173.269 127.327 173.313C126.785 173.358 126.166 173.299 125.569 173.194C124.479 172.998 123.412 172.691 122.383 172.28L122.951 170.915C123.878 171.285 124.839 171.56 125.821 171.738C126.275 171.827 126.739 171.862 127.201 171.84C127.601 171.805 127.664 171.704 127.645 171.732L128.851 172.589ZM122.383 172.28C118.92 170.812 115.465 169.322 112.021 167.81L112.644 166.47C113.344 166.793 120.738 169.987 122.951 170.915L122.383 172.28ZM112.023 167.812C110.397 167.061 109.175 166.69 108.347 166.584C108.065 166.535 107.778 166.537 107.497 166.588C107.341 166.627 107.367 166.663 107.4 166.602C107.432 166.543 107.389 166.547 107.44 166.7C107.539 166.952 107.681 167.184 107.86 167.386C108.347 167.986 109.208 168.737 110.483 169.551L109.687 170.797C108.337 169.934 107.335 169.084 106.712 168.321C106.403 167.94 106.163 167.552 106.036 167.164C105.908 166.777 105.873 166.32 106.099 165.9C106.328 165.476 106.732 165.253 107.142 165.151C107.601 165.054 108.074 165.043 108.538 165.117C109.575 165.251 110.949 165.689 112.642 166.47L112.023 167.812ZM110.468 169.541C113.134 171.157 115.565 173.132 117.692 175.41L116.612 176.42C114.577 174.241 112.252 172.35 109.703 170.805L110.468 169.541Z" fill="#252B4A"/>
<path d="M121.095 173.732C118.627 178.438 117.899 183.863 119.037 189.053" stroke="#252B4A" stroke-linecap="round" stroke-linejoin="round"/>
<path d="M124.652 176.691C125.139 182.76 127.806 186.955 133.491 188.079" stroke="#252B4A" stroke-linecap="round" stroke-linejoin="round"/>
<path d="M231.463 208.943C230.745 205.777 229.819 202.661 228.691 199.616L222.151 209.168" stroke="#252B4A" stroke-linecap="round" stroke-linejoin="round"/>
<path d="M247.993 281.559L255.019 258.234L244.159 276.851" stroke="#252B4A" stroke-linecap="round" stroke-linejoin="round"/>
<path d="M269.288 238.72C307.937 289.137 329.804 320.635 380.857 368.207C388.545 375.378 366.162 399.911 358.386 392.89L344.982 380.793C308.607 347.907 285.131 326.106 256.371 291.759C256.371 291.759 245.437 278.461 244.163 276.851L224.8 310.074C222.662 313.759 219.441 316.696 215.575 318.486C211.709 320.275 207.385 320.83 203.192 320.075L127.499 306.472C120.72 305.342 126.334 273.915 133.229 275.125L200.567 285.164C200.567 285.164 205.804 262.098 206.677 258.119C208.236 250.88 211.726 244.197 216.777 238.782C221.828 233.367 228.251 229.422 235.364 227.364" stroke="#252B4A" stroke-linecap="round" stroke-linejoin="round"/>
<path d="M263.663 141.558C259.693 133.767 252.427 127.476 240.519 141.108C227.787 155.68 249.358 161.746 249.358 161.746" stroke="#252B4A" stroke-linecap="round" stroke-linejoin="round"/>
<path d="M226.743 137.774C231.163 142.381 238.081 142.933 242.211 138.973C246.341 135.012 246.106 128.072 241.687 123.465C237.267 118.858 230.348 118.306 226.219 122.266C222.089 126.227 222.324 133.167 226.743 137.774Z" stroke="#252B4A" stroke-linecap="round" stroke-linejoin="round"/>
<path d="M365.574 393.34C368.495 396.298 370.786 398.829 373.814 399.783C376.51 400.57 379.333 400.824 382.128 400.532C393.928 399.592 417.436 410.045 418.23 403.641C418.453 401.843 411.227 396.524 402.688 390.827C397.294 387.231 389.13 381.015 381.941 375.358" stroke="#252B4A" stroke-linecap="round" stroke-linejoin="round"/>
<path d="M128.959 278.424C124.203 277.188 120.534 275.808 117.051 276.626C114.337 277.316 111.782 278.521 109.523 280.175C99.8327 286.953 74.2644 289.867 76.7895 295.793C77.507 297.477 86.4483 298.38 96.6768 298.977C103.718 299.391 115.104 300.775 124.727 302.131" stroke="#252B4A" stroke-linecap="round" stroke-linejoin="round"/>
<path d="M147.581 171.224C146.178 171.108 144.656 172.21 143.306 174.552" stroke="#252B4A" stroke-linecap="round" stroke-linejoin="round"/>
<path d="M141.805 197.331C142.629 199.129 143.753 200.253 145.026 200.365" stroke="#252B4A" stroke-linecap="round" stroke-linejoin="round"/>
<path d="M192.177 99.8684C192.138 100.116 192.171 100.369 192.271 100.598C192.372 100.827 192.536 101.022 192.745 101.161C192.953 101.299 193.197 101.375 193.447 101.379C193.697 101.383 193.943 101.315 194.156 101.183C194.44 101.003 194.644 100.72 194.724 100.393L197.907 84.8181C197.976 84.4851 197.91 84.1387 197.723 83.8543C197.537 83.5699 197.246 83.3707 196.914 83.3C196.581 83.2312 196.235 83.2972 195.951 83.4834C195.666 83.6697 195.468 83.9611 195.398 84.2937L192.177 99.8684Z" stroke="#252B4A" stroke-linecap="round" stroke-linejoin="round"/>
<path d="M198.506 75.4834L196.634 84.5483" stroke="#252B4A" stroke-linecap="round" stroke-linejoin="round"/>
<path d="M203.113 52.9729C204.777 53.313 206.345 54.0181 207.703 55.0374C209.062 56.0567 210.178 57.3647 210.97 58.8673C211.762 60.3699 212.212 62.0296 212.285 63.7267C212.359 65.4238 212.055 67.1161 211.396 68.6817C210.552 70.6876 209.156 72.4126 207.37 73.6558C205.584 74.899 203.482 75.6093 201.308 75.7041C199.134 75.7988 196.978 75.2741 195.091 74.1909C193.204 73.1078 191.663 71.5108 190.648 69.5858C189.633 67.6609 189.186 65.4873 189.358 63.3179C189.53 61.1485 190.315 59.0727 191.621 57.3321C192.927 55.5915 194.7 54.2576 196.735 53.4859C198.769 52.7142 200.981 52.5362 203.113 52.9729Z" stroke="#252B4A" stroke-linecap="round" stroke-linejoin="round"/>
<path d="M65.331 263.178L69.7129 261.867" stroke="#252B4A" stroke-linecap="round" stroke-linejoin="round"/>
<path d="M60.0117 260.257L58.7388 255.874" stroke="#252B4A" stroke-linecap="round" stroke-linejoin="round"/>
<path d="M63.7207 272.842L62.4103 268.497" stroke="#252B4A" stroke-linecap="round" stroke-linejoin="round"/>
<path d="M57.0908 265.575L52.7463 266.848" stroke="#252B4A" stroke-linecap="round" stroke-linejoin="round"/>
<path d="M57.0826 265.576C58.1743 265.255 59.0945 264.515 59.6419 263.518C60.1894 262.52 60.3196 261.346 60.004 260.253C60.3247 261.345 61.0647 262.265 62.0621 262.813C63.0594 263.36 64.2331 263.49 65.3262 263.175C64.2345 263.495 63.3144 264.236 62.7669 265.233C62.2194 266.231 62.0893 267.404 62.4049 268.498C62.0841 267.406 61.3442 266.486 60.3468 265.938C59.3494 265.39 58.1758 265.26 57.0826 265.576Z" stroke="#252B4A" stroke-linecap="round" stroke-linejoin="round"/>
<path d="M335.465 141.296C337.715 135.897 339.372 130.271 340.409 124.515" stroke="#252B4A" stroke-linecap="round" stroke-linejoin="round"/>
<path d="M327.151 121.629L353.815 127.36C355.057 127.629 356.354 127.392 357.422 126.704C358.489 126.016 359.24 124.931 359.508 123.689L370.781 71.1376L354.527 67.6539C353.62 67.4669 352.679 67.5432 351.814 67.8737C350.949 68.2042 350.196 68.7752 349.645 69.5194C349.094 70.2635 348.767 71.1498 348.703 72.0737C348.639 72.9975 348.84 73.9204 349.283 74.7336C350.275 76.6012 350.712 78.7132 350.545 80.8211C350.377 82.929 349.612 84.9452 348.338 86.6328C347.064 88.3203 345.334 89.609 343.353 90.3474C341.372 91.0857 339.221 91.243 337.154 90.8008C335.086 90.3585 333.188 89.3351 331.682 87.8509C330.176 86.3667 329.126 84.4833 328.653 82.4222C328.181 80.3611 328.307 78.2079 329.016 76.2159C329.725 74.2239 330.988 72.4757 332.656 71.177C333.388 70.6135 333.945 69.8538 334.262 68.9862C334.578 68.1187 334.643 67.1791 334.446 66.2766C334.25 65.3741 333.802 64.5458 333.153 63.8882C332.505 63.2305 331.683 62.7705 330.784 62.5616L313.368 58.7783L302.058 111.328C301.79 112.57 302.026 113.868 302.714 114.935C303.402 116.003 304.486 116.754 305.728 117.022L321.87 120.506" stroke="#252B4A" stroke-linecap="round" stroke-linejoin="round"/>
<path d="M328.273 136.501C330.408 133.879 331.12 127.548 327.374 124.672C327.374 124.672 326.876 114.081 325.052 111.676C323.229 109.27 322.208 119.234 321.419 123.016C320.901 125.49 319.547 131.219 318.198 135.939" stroke="#252B4A" stroke-linecap="round" stroke-linejoin="round"/>
<path d="M284.853 208.523L278.913 194.131C280.859 198.764 281.506 203.839 280.786 208.813" stroke="#252B4A" stroke-linecap="round" stroke-linejoin="round"/>
<path d="M147.581 171.225C180.385 175.493 213.9 178.302 232.362 176.841C247.193 180.512 261.123 180.924 273.82 176.841C280.374 176.542 289.55 174.819 302.469 170.511L313.068 136.726C314.192 133.055 340.184 140.996 339.06 144.667L321.87 197.93C309.111 204.458 295.102 208.175 280.786 208.829C279.887 215.271 276.779 224.374 269.288 238.72C261.236 243.515 243.86 236.66 235.581 228.045C234.12 221.302 232.809 214.597 231.461 208.943C202.408 209.929 173.354 207.043 145.062 200.365C152.781 201.031 155.446 171.889 147.581 171.225Z" stroke="#252B4A" stroke-linecap="round" stroke-linejoin="round"/>
<path d="M371.685 359.442C377.565 364.568 355.325 390 349.476 384.912" stroke="#252B4A" stroke-linecap="round" stroke-linejoin="round"/>
<path d="M146.936 277.187C141.767 276.251 135.999 308.013 141.168 308.95" stroke="#252B4A" stroke-linecap="round" stroke-linejoin="round"/>
<path d="M169.743 366.072L183.9 402.517" stroke="#252B4A" stroke-linecap="round" stroke-linejoin="round"/>
<path d="M158.584 391.355L195.061 377.235" stroke="#252B4A" stroke-linecap="round" stroke-linejoin="round"/>
<path d="M423.1 240.032C422.351 237.897 421.002 236.623 417.107 233.963C408.862 228.333 410.405 221.876 415.272 219.954C416.132 219.622 417.055 219.483 417.975 219.546C418.895 219.609 419.79 219.873 420.597 220.32C421.404 220.766 422.103 221.384 422.645 222.13C423.188 222.875 423.56 223.731 423.736 224.636" stroke="#252B4A" stroke-linecap="round" stroke-linejoin="round"/>
<path d="M361.081 380.042C322.919 344.286 286.619 306.592 252.325 267.109" stroke="#252B4A" stroke-linecap="round" stroke-linejoin="round"/>
<path d="M244.148 234.6C244.148 234.6 224.117 243.44 222.239 259.507C221.194 268.46 215.272 286.964 212.126 296.402C211.583 298.04 210.486 299.438 209.023 300.354C207.561 301.27 205.824 301.647 204.114 301.421L140.034 293.03" stroke="#252B4A" stroke-linecap="round" stroke-linejoin="round"/>
</svg>
