<svg width="480" height="462" viewBox="0 0 480 462" fill="none" xmlns="http://www.w3.org/2000/svg">
<g clip-path="url(#clip0_649_32412)">
<path d="M434.057 179.286C428.311 179.286 426.148 151.408 431.896 150.962C400.819 154.258 368.911 159.325 347.22 155.89C339.605 165.25 333.392 175.661 328.776 186.798C325.845 176.315 324.779 165.401 325.625 154.55C321.499 154.216 276.47 124.458 257.511 113.406C253.4 116.176 249.897 119.751 247.215 123.912C244.533 128.074 242.728 132.735 241.909 137.613L308.359 177.904L313.591 170.392C312.368 173.392 311.684 176.582 311.57 179.818C311.378 186.325 313.49 195.843 321.36 212.554C329.041 214.85 341.573 211.31 351.124 205.808C350.692 199.827 353.62 192.507 355.828 186.385C354.132 185.147 352.352 184.028 350.5 183.036C378.661 184.884 405.16 182.792 434.057 179.286Z" fill="#F7F7FF"/>
<path d="M199.948 223.254C185.353 222.116 170.71 221.716 156.074 222.058C156.989 218.958 157.535 215.763 157.706 212.537C145.705 215.647 134.088 215.743 118.633 213.544V213.353C111.452 218.087 105.183 234.873 109.686 247.212L97.2222 273.446L61.7008 250.858C50.9956 257.509 45.619 266.025 41.6826 279.087L86.469 309.658C89.473 311.713 92.88 313.111 96.4655 313.759C100.051 314.407 103.733 314.291 107.27 313.417C110.807 312.545 114.119 310.936 116.987 308.697C119.855 306.457 122.215 303.638 123.911 300.423L138.216 273.298L120.161 259.554C122.809 261.094 125.652 262.273 128.615 263.059C143.353 267.126 164.905 265.499 179.4 263.729C175.137 280.63 171.804 297.752 169.417 315.016C178.557 321.145 189.702 323.558 200.57 321.762C208.689 299.084 215.549 275.976 221.119 252.546C222.371 247.52 221.935 242.223 219.877 237.467C217.818 232.712 214.252 228.761 209.724 226.221C206.72 224.536 203.384 223.524 199.948 223.254Z" fill="#F7F7FF"/>
<path d="M410.154 74.8438C409.61 74.2955 408.915 73.9216 408.157 73.7704C407.398 73.6192 406.612 73.6975 405.899 73.9952C405.425 74.1917 404.994 74.4801 404.633 74.8438L403.622 75.851L402.612 74.8438C401.872 74.1479 400.89 73.7667 399.873 73.7813C398.857 73.7958 397.886 74.205 397.167 74.9218C396.448 75.6385 396.038 76.6064 396.024 77.6198C396.01 78.6331 396.393 79.612 397.091 80.3485L403.66 86.8554L410.141 80.3485C410.691 79.8069 411.067 79.1144 411.22 78.3591C411.374 77.6038 411.298 76.8201 411.003 76.1079C410.806 75.6349 410.517 75.2053 410.154 74.8438Z" fill="#F7F7FF"/>
<path d="M135.288 354.726L128.615 353.721L125.639 347.74L122.662 353.721L115.992 354.726L120.841 359.367L119.689 365.969L125.639 362.859L131.591 365.969L130.439 359.367L135.288 354.726Z" fill="#F7F7FF"/>
<path d="M335.796 145.02L330.743 149.804C331.211 148.477 331.501 147.092 331.607 145.689C333.024 145.622 334.429 145.397 335.796 145.02Z" fill="#4F56B2"/>
<path d="M356.822 183.355C356.486 184.312 356.15 185.316 355.766 186.377C354.07 185.138 352.289 184.019 350.438 183.027C352.598 183.115 354.71 183.259 356.822 183.355Z" fill="#4F56B2"/>
<path d="M395.897 103.934C388.034 97.4269 366.712 115.704 366.712 115.704C370.646 96.3743 341.846 112.934 332.148 122.354C337.141 118.383 341.125 126.993 340.693 131.873C340.693 133.024 341.317 133.263 343.094 132.019C346.79 129.34 349.43 135.703 342.47 138.667C342.002 139.17 341.659 139.775 341.459 140.43C340.183 144.041 340.099 147.963 341.219 151.625C373.526 145.033 403.722 110.393 395.897 103.934Z" fill="#4F56B2"/>
<path d="M340.405 250.715L336.564 254.017L333.204 239.807L340.405 250.715Z" fill="#4F56B2"/>
<path d="M119.879 259.375L138.217 273.298L142.489 265.26C134.599 265.058 126.861 263.044 119.879 259.375Z" fill="#4F56B2"/>
<path d="M135.721 153.93L129.96 150.057C131.615 150.256 133.285 150.319 134.953 150.248C135.084 151.497 135.342 152.731 135.721 153.93Z" fill="#4F56B2"/>
<path d="M313.524 170.389C312.301 173.388 311.616 176.579 311.502 179.814L308.286 177.853L313.524 170.389Z" fill="#4F56B2"/>
<path d="M160.299 170.723C160.728 172.808 161.032 174.918 161.211 177.038C162.123 176.608 163.131 176.081 164.139 175.555L160.299 170.723Z" fill="#4F56B2"/>
<path d="M173.402 318.939C172.301 322.097 170.906 325.255 169.948 328.027C170.694 331.211 171.855 334.283 173.402 337.166C178.251 346.113 183.099 363.672 186.94 368.074C189.052 361.806 191.308 346.068 192.796 337.214C185.303 332.307 178.738 326.12 173.402 318.939Z" fill="#4F56B2"/>
<path d="M45.6194 247.079C42.3446 246.936 39.0656 247.242 35.8743 247.988C25.8892 250.285 7.60172 250.285 2.36914 252.82C7.84174 256.552 22.4808 262.916 30.6417 266.648C37.3879 260.717 45.1425 256.034 53.5402 252.82C50.7079 250.907 48.0196 248.754 45.6194 247.079Z" fill="#4F56B2"/>
<path d="M130.919 123.364C129.335 120.78 125.866 120.924 126.215 122.886C124.057 120.972 120.312 121.878 120.742 124.082C118.152 121.976 115.128 123.651 115.749 125.661C113.496 123.938 111.047 125.661 111.816 127.718C108.599 126.33 105.911 128.725 109.703 132.502C111.335 134.129 118.438 139.39 122.422 146.04C122.667 145.083 122.644 144.078 122.356 143.134C122.069 142.189 121.527 141.341 120.79 140.681C116.854 137.715 119.542 134.177 122.038 136.615C124.246 138.768 123.529 135.607 121.942 132.787C122.271 133.07 122.665 133.266 123.09 133.357C123.515 133.448 123.956 133.431 124.372 133.307C124.788 133.184 125.166 132.957 125.472 132.649C125.777 132.341 125.999 131.962 126.119 131.545C126.433 131.783 126.796 131.948 127.182 132.031C127.567 132.114 127.967 132.112 128.351 132.026C128.736 131.939 129.098 131.77 129.41 131.53C129.723 131.29 129.979 130.985 130.161 130.636C131.93 131.878 134.338 131.115 134.434 129.249C133.367 127.426 132.167 125.416 130.919 123.364Z" fill="#4F56B2"/>
<path d="M118.446 187.275L114.944 191.772C114.464 189.909 113.984 188.088 113.456 186.32C115.081 186.607 118.446 187.275 118.446 187.275Z" fill="#4F56B2"/>
<path d="M69.4747 175.459C69.4581 175.879 69.279 176.277 68.975 176.568C68.671 176.859 68.2656 177.022 67.8438 177.022C67.422 177.022 67.0167 176.859 66.7126 176.568C66.4086 176.277 66.2295 175.879 66.2129 175.459C66.2295 175.039 66.4086 174.642 66.7126 174.351C67.0167 174.059 67.422 173.896 67.8438 173.896C68.2656 173.896 68.671 174.059 68.975 174.351C69.279 174.642 69.4581 175.039 69.4747 175.459Z" fill="#4F56B2"/>
<path d="M91.3659 161.105C91.3659 161.537 91.194 161.95 90.8879 162.256C90.5818 162.561 90.1666 162.732 89.7337 162.732C89.3009 162.732 88.8857 162.561 88.5796 162.256C88.2735 161.95 88.1016 161.537 88.1016 161.105C88.1016 160.674 88.2735 160.26 88.5796 159.955C88.8857 159.65 89.3009 159.479 89.7337 159.479C90.1666 159.479 90.5818 159.65 90.8879 159.955C91.194 160.26 91.3659 160.674 91.3659 161.105Z" fill="#4F56B2"/>
<path d="M112.344 177.087C112.344 177.519 112.172 177.933 111.866 178.238C111.559 178.543 111.144 178.715 110.711 178.715C110.277 178.715 109.862 178.543 109.556 178.238C109.249 177.933 109.077 177.519 109.077 177.087C109.077 176.655 109.249 176.241 109.556 175.936C109.862 175.631 110.277 175.459 110.711 175.459C111.144 175.459 111.559 175.631 111.866 175.936C112.172 176.241 112.344 176.655 112.344 177.087Z" fill="#4F56B2"/>
<path d="M140.953 181.632C140.953 182.064 140.781 182.478 140.475 182.783C140.169 183.088 139.753 183.26 139.32 183.26C138.887 183.26 138.471 183.088 138.165 182.783C137.859 182.478 137.687 182.064 137.687 181.632C137.687 181.2 137.859 180.786 138.165 180.481C138.471 180.175 138.887 180.004 139.32 180.004C139.753 180.004 140.169 180.175 140.475 180.481C140.781 180.786 140.953 181.2 140.953 181.632Z" fill="#4F56B2"/>
<path d="M155.84 156.751C155.84 157.183 155.668 157.597 155.362 157.902C155.055 158.208 154.64 158.379 154.207 158.379C153.773 158.379 153.358 158.208 153.052 157.902C152.745 157.597 152.573 157.183 152.573 156.751C152.573 156.319 152.745 155.905 153.052 155.6C153.358 155.295 153.773 155.123 154.207 155.123C154.64 155.123 155.055 155.295 155.362 155.6C155.668 155.905 155.84 156.319 155.84 156.751Z" fill="#4F56B2"/>
<path d="M183.675 156.418C183.675 156.849 183.503 157.263 183.196 157.568C182.89 157.873 182.475 158.044 182.042 158.044C181.609 158.044 181.194 157.873 180.888 157.568C180.582 157.263 180.41 156.849 180.41 156.418C180.41 155.986 180.582 155.573 180.888 155.267C181.194 154.962 181.609 154.791 182.042 154.791C182.475 154.791 182.89 154.962 183.196 155.267C183.503 155.573 183.675 155.986 183.675 156.418Z" fill="#4F56B2"/>
<path d="M193.085 134.363C193.085 134.794 192.913 135.208 192.607 135.513C192.301 135.818 191.885 135.99 191.452 135.99C191.02 135.99 190.604 135.818 190.298 135.513C189.992 135.208 189.82 134.794 189.82 134.363C189.82 133.932 189.992 133.518 190.298 133.213C190.604 132.908 191.02 132.736 191.452 132.736C191.885 132.736 192.301 132.908 192.607 133.213C192.913 133.518 193.085 133.932 193.085 134.363Z" fill="#4F56B2"/>
<path d="M128.904 203.972C128.904 204.404 128.732 204.818 128.426 205.123C128.12 205.428 127.705 205.599 127.272 205.599C126.839 205.599 126.424 205.428 126.118 205.123C125.812 204.818 125.64 204.404 125.64 203.972C125.64 203.541 125.812 203.127 126.118 202.822C126.424 202.517 126.839 202.346 127.272 202.346C127.705 202.346 128.12 202.517 128.426 202.822C128.732 203.127 128.904 203.541 128.904 203.972Z" fill="#4F56B2"/>
<path d="M154.202 202.347C154.202 202.779 154.03 203.193 153.724 203.498C153.418 203.803 153.002 203.975 152.569 203.975C152.136 203.975 151.72 203.803 151.414 203.498C151.108 203.193 150.936 202.779 150.936 202.347C150.936 201.915 151.108 201.501 151.414 201.196C151.72 200.89 152.136 200.719 152.569 200.719C153.002 200.719 153.418 200.89 153.724 201.196C154.03 201.501 154.202 201.915 154.202 202.347Z" fill="#4F56B2"/>
<path d="M434.875 153.738C433.194 153.833 430.218 153.977 429.546 154.025C430.794 150.056 433.007 150.006 434.875 153.738Z" fill="#4F56B2"/>
<path d="M436.41 176.703C435.21 179.957 433.242 180.1 431.562 177.086C432.954 177 434.634 176.847 436.41 176.703Z" fill="#4F56B2"/>
<path d="M259.809 122.358C259.818 122.577 259.782 122.796 259.704 123.001C259.626 123.206 259.507 123.393 259.354 123.551C259.202 123.71 259.019 123.835 258.816 123.921C258.614 124.007 258.396 124.051 258.176 124.051C257.956 124.051 257.738 124.007 257.535 123.921C257.333 123.835 257.15 123.71 256.997 123.551C256.845 123.393 256.726 123.206 256.648 123.001C256.569 122.796 256.534 122.577 256.542 122.358C256.559 121.937 256.738 121.54 257.043 121.248C257.347 120.956 257.753 120.793 258.176 120.793C258.598 120.793 259.004 120.956 259.309 121.248C259.613 121.54 259.793 121.937 259.809 122.358Z" fill="#4F56B2"/>
<path d="M423.641 160.006C423.641 160.437 423.469 160.851 423.163 161.156C422.857 161.461 422.442 161.632 422.01 161.632C421.577 161.632 421.162 161.461 420.857 161.156C420.551 160.851 420.379 160.437 420.379 160.006C420.379 159.575 420.551 159.162 420.857 158.857C421.162 158.552 421.577 158.381 422.01 158.381C422.442 158.381 422.857 158.552 423.163 158.857C423.469 159.162 423.641 159.575 423.641 160.006Z" fill="#4F56B2"/>
<path d="M385.287 267.269C385.272 264.519 385.112 261.772 384.807 259.039L398.68 246.217L385.287 267.269Z" fill="#4F56B2"/>
<path d="M250.304 332.336C231.551 334.67 212.511 332.656 194.668 326.451" stroke="#252B4A" stroke-linecap="round" stroke-linejoin="round"/>
<path d="M346.452 259.848C334.883 286.852 313.867 308.75 287.312 321.47" stroke="#252B4A" stroke-linecap="round" stroke-linejoin="round"/>
<path d="M354.134 190.863C355.197 196.58 355.822 202.371 356.006 208.183" stroke="#252B4A" stroke-linecap="round" stroke-linejoin="round"/>
<path d="M253.904 93.2656C281.922 97.6546 307.496 111.73 326.147 133.025" stroke="#252B4A" stroke-linecap="round" stroke-linejoin="round"/>
<path d="M224.765 92.2124C230.228 91.7743 235.714 91.6943 241.188 91.9729C242.148 92.0233 243.156 92.0687 244.116 92.1645" stroke="#252B4A" stroke-linecap="round" stroke-linejoin="round"/>
<path d="M139.128 138.571C157.003 115.572 182.604 99.7732 211.229 94.0781" stroke="#252B4A" stroke-linecap="round" stroke-linejoin="round"/>
<path d="M113.928 218.47C113.732 214.421 113.748 210.365 113.976 206.318C114.206 202.006 114.656 197.713 115.32 193.447" stroke="#252B4A" stroke-linecap="round" stroke-linejoin="round"/>
<path d="M169.658 314.299C155.761 305.418 143.822 293.812 134.568 280.188" stroke="#252B4A" stroke-linecap="round" stroke-linejoin="round"/>
<path d="M331.619 145.653C333.015 145.611 334.401 145.402 335.747 145.031L330.755 149.768" stroke="#252B4A" stroke-linecap="round" stroke-linejoin="round"/>
<path d="M456.716 158.619L466.173 154.313C472.171 151.586 472.237 148.677 465.069 150.964C464.634 151.102 453.98 154.26 452.299 154.504C451.003 154.693 448.762 154.884 448.509 154.026C447.547 150.752 451.541 141.908 448.749 141.012C446.928 140.43 443.815 146.136 441.837 150.246C440.452 153.122 438.047 153.595 434.876 153.739" stroke="#252B4A" stroke-linecap="round" stroke-linejoin="round"/>
<path d="M454.988 158.81C454.988 158.81 469.39 157.047 470.35 156.896C477.834 155.811 477.311 158.626 470.926 160.389C464.829 162.071 457.485 164.166 457.485 164.166" stroke="#252B4A" stroke-linecap="round" stroke-linejoin="round"/>
<path d="M454.988 164.121C459.713 164.262 464.44 164.133 469.15 163.738C476.684 163.151 475.868 165.652 469.486 167.231C465.548 168.303 461.537 169.086 457.485 169.575" stroke="#252B4A" stroke-linecap="round" stroke-linejoin="round"/>
<path d="M436.41 176.703C436.41 176.703 446.827 176.023 448.844 175.842C452.729 175.489 456.721 174.872 460.605 174.358C462.195 174.144 463.779 173.893 465.357 173.603C472.083 172.344 473.084 169.856 465.453 170.062C461.358 170.16 457.265 169.774 453.26 168.914" stroke="#252B4A" stroke-linecap="round" stroke-linejoin="round"/>
<path d="M454.7 156.514C455.43 162.473 454.128 168.504 451.004 173.637" stroke="#252B4A" stroke-linecap="round" stroke-linejoin="round"/>
<path d="M449.035 156.418C447.909 159.388 446.175 162.091 443.944 164.357C441.712 166.622 439.032 168.399 436.073 169.575" stroke="#252B4A" stroke-linecap="round" stroke-linejoin="round"/>
<path d="M356.852 183.374C356.516 184.331 356.18 185.336 355.796 186.396C353.3 184.721 351.183 183.639 350.468 183.047C352.628 183.135 354.74 183.279 356.852 183.374Z" stroke="#252B4A" stroke-linecap="round" stroke-linejoin="round"/>
<path d="M308.292 177.9L313.525 170.389C312.165 173.348 311.458 176.564 311.453 179.819" stroke="#252B4A" stroke-linecap="round" stroke-linejoin="round"/>
<path d="M325.626 154.551C327.362 154.551 329.606 153.066 330.763 149.767C331.228 148.438 331.518 147.055 331.627 145.652C327.114 145.7 321.318 143.386 327.882 128.67C329.295 125.507 332.036 120.67 335.442 121.41C338.754 122.133 341.028 127.977 340.748 131.734C340.634 133.349 341.759 132.953 343.09 132.009C346.809 129.36 349.427 135.69 342.466 138.657C342.004 139.163 341.657 139.765 341.455 140.42C339.659 147.974 339.596 154.196 347.216 155.921" stroke="#252B4A" stroke-linecap="round" stroke-linejoin="round"/>
<path d="M332.195 122.357C341.892 112.932 370.696 96.3774 366.759 115.707C366.759 115.707 388.068 97.4325 395.944 103.937C403.776 110.398 373.621 145.033 341.316 151.636" stroke="#252B4A" stroke-linecap="round" stroke-linejoin="round"/>
<path d="M434.058 179.288C428.375 179.288 426.147 151.41 431.897 150.964C401.073 154.238 369.106 159.362 347.221 155.892C339.606 165.252 333.393 175.663 328.777 186.8C325.846 176.316 324.78 165.402 325.626 154.552C321.5 154.218 276.471 124.46 257.512 113.408C253.401 116.178 249.898 119.753 247.216 123.914C244.534 128.076 242.729 132.737 241.91 137.615L311.46 179.82C311.442 180.593 311.46 181.404 311.503 182.27C311.859 188.686 314.322 197.824 321.258 212.538C329.836 215.089 343.131 210.393 351.117 205.792C350.612 198.799 354.7 189.978 356.86 183.38C382.684 184.556 407.346 182.517 434.058 179.288Z" stroke="#252B4A" stroke-linecap="round" stroke-linejoin="round"/>
<path d="M321.299 212.537L279.825 256.791C272.334 264.765 266.869 274.412 263.889 284.924L248.384 338.936C252.663 342.703 257.794 345.381 263.338 346.74C268.882 348.1 274.674 348.101 280.219 346.743L296.136 289.273C343.24 248.182 335.17 255.205 340.395 250.712L366.078 289.704C367.587 291.989 369.576 293.921 371.906 295.367C374.236 296.814 376.853 297.74 379.577 298.082C382.301 298.424 385.067 298.174 387.684 297.347C390.301 296.52 392.706 295.136 394.734 293.292L443.265 249.134C441.99 243.65 439.436 238.543 435.81 234.226C432.185 229.91 427.59 226.506 422.398 224.289L384.797 259.04C384.797 259.04 378.316 216.413 351.052 205.791" stroke="#252B4A" stroke-linecap="round" stroke-linejoin="round"/>
<path d="M336.564 254.017L333.204 239.807L340.405 250.715" stroke="#252B4A" stroke-linecap="round" stroke-linejoin="round"/>
<path d="M251.408 341.232C249.515 351.38 246.62 361.316 242.767 370.896C239.111 379.121 236.246 386.486 237.294 387.738C240.968 392.117 253.464 373.2 262.737 368.361C264.946 367.268 266.92 365.757 268.548 363.911C271.805 360.078 269.986 355.634 273.778 347.644" stroke="#252B4A" stroke-linecap="round" stroke-linejoin="round"/>
<path d="M441.307 243.251C449.255 236.508 457.59 230.23 466.27 224.451C473.804 219.472 480.189 214.786 479.997 213.207C479.317 207.561 458.495 216.71 448.124 215.839C445.658 215.582 443.166 215.793 440.779 216.46C435.978 217.906 435.354 222.441 427.817 227.178" stroke="#252B4A" stroke-linecap="round" stroke-linejoin="round"/>
<path d="M240.895 107.954C240.895 97.3778 249.146 77.6606 252.368 76.0439C252.496 75.986 252.642 75.9805 252.774 76.0285C252.906 76.0765 253.014 76.1742 253.075 76.3008C253.116 76.3839 253.133 76.477 253.126 76.5702C252.022 87.8667 244.669 107.161 254.917 115.287" stroke="#252B4A" stroke-linecap="round" stroke-linejoin="round"/>
<path d="M243.15 132.785C239.454 130.297 234.239 125.986 234.413 121.781C234.896 110.157 234.823 104.7 234.845 100.107C234.863 96.7099 237.544 96.6117 239.358 102.499C240.95 107.664 242.622 114.939 242.622 114.939" stroke="#252B4A" stroke-linecap="round" stroke-linejoin="round"/>
<path d="M250.879 89.9628C251.89 88.2883 252.984 86.5633 253.423 85.8507C256.632 80.6482 257.921 81.9223 257.648 82.8843C256.579 86.6464 253.999 92.3072 253.135 95.7999C251.847 100.939 249.653 108.114 253.742 114.218" stroke="#252B4A" stroke-linecap="round" stroke-linejoin="round"/>
<path d="M201.868 260.1C201.868 260.1 192.315 262.157 179.401 263.736" stroke="#252B4A" stroke-linecap="round" stroke-linejoin="round"/>
<path d="M113.783 218.709C115.03 216.637 116.677 214.831 118.629 213.398V213.589C134.087 215.79 145.704 215.694 157.705 212.582C157.534 215.808 156.987 219.003 156.073 222.103C170.709 221.769 185.352 222.168 199.947 223.299C203.38 223.563 206.713 224.57 209.715 226.251C212.716 227.933 215.312 230.247 217.323 233.032C219.334 235.817 220.711 239.006 221.357 242.376C222.004 245.747 221.905 249.217 221.067 252.545C215.508 275.982 208.649 299.094 200.524 321.774C189.655 323.571 178.509 321.157 169.368 315.028C171.757 297.764 175.09 280.643 179.353 263.741C164.858 265.504 143.309 267.123 128.569 263.071C119.834 260.671 112.714 255.66 109.619 247.139C106.085 237.469 109.268 225.739 113.783 218.709Z" stroke="#252B4A" stroke-linecap="round" stroke-linejoin="round"/>
<path d="M156.122 222.154C153.722 222.202 151.37 222.298 149.018 222.394" stroke="#252B4A" stroke-linecap="round" stroke-linejoin="round"/>
<path d="M142.449 265.259L123.904 300.425C121.349 305.269 117.309 309.175 112.372 311.573C107.436 313.971 101.861 314.736 96.4576 313.758C92.8728 313.111 89.4662 311.714 86.4624 309.659L41.6836 279.088C45.6251 266.011 51.0092 257.49 61.7397 250.837L97.1752 273.448L109.657 247.133" stroke="#252B4A" stroke-linecap="round" stroke-linejoin="round"/>
<path d="M119.927 259.375L138.217 273.298" stroke="#252B4A" stroke-linecap="round" stroke-linejoin="round"/>
<path d="M135.72 153.929L129.959 150.006C131.618 150.191 133.29 150.239 134.957 150.149" stroke="#252B4A" stroke-linecap="round" stroke-linejoin="round"/>
<path d="M146.472 155.127C145.608 155.653 144.744 156.134 143.88 156.658C142.942 157.393 141.78 157.788 140.587 157.779C139.394 157.771 138.238 157.358 137.311 156.61C135.839 154.771 135.015 152.502 134.964 150.151C142.685 149.7 143.157 144.525 134.431 129.197C134.339 129.643 134.13 130.057 133.826 130.396C133.522 130.735 133.133 130.989 132.699 131.13C132.265 131.27 131.801 131.294 131.355 131.199C130.909 131.103 130.496 130.891 130.158 130.585C129.986 130.943 129.734 131.257 129.422 131.505C129.11 131.752 128.746 131.926 128.357 132.014C127.969 132.101 127.565 132.1 127.177 132.01C126.788 131.92 126.426 131.743 126.116 131.494C125.996 131.91 125.773 132.289 125.468 132.597C125.163 132.905 124.785 133.131 124.369 133.255C123.953 133.379 123.512 133.397 123.088 133.306C122.663 133.216 122.268 133.02 121.939 132.738C123.571 135.558 124.243 138.716 122.035 136.563C119.539 134.125 116.851 137.711 120.789 140.632C121.527 141.291 122.069 142.139 122.356 143.083C122.644 144.027 122.667 145.032 122.422 145.988C124.699 149.299 125.609 153.358 124.963 157.32C124.531 159.335 121.651 160.908 118.142 159.999C122.328 167.496 130.944 174.403 139.322 171.452C148.542 168.216 146.472 155.127 146.472 155.127Z" stroke="#252B4A" stroke-linecap="round" stroke-linejoin="round"/>
<path d="M206.118 115.81C217.975 106.873 218.443 87.9764 218.443 74.4262C218.443 73.9956 219.064 73.4189 219.4 73.6708C222.4 75.6148 226.389 95.7626 225.429 106.364" stroke="#252B4A" stroke-linecap="round" stroke-linejoin="round"/>
<path d="M219.725 131.876C223.126 130.511 225.944 128.007 227.693 124.795C231.349 116.686 232.628 107.713 231.385 98.9106C230.733 95.088 228.742 95.4179 227.016 101.207C225.478 106.374 223.08 113.312 223.08 113.312" stroke="#252B4A" stroke-linecap="round" stroke-linejoin="round"/>
<path d="M205.919 115.683C209.224 111.654 212.334 104.502 212.19 100.728C211.802 96.4957 211.063 92.3029 209.982 88.1923C209.764 87.1851 211.025 85.8454 214.686 92.725" stroke="#252B4A" stroke-linecap="round" stroke-linejoin="round"/>
<path d="M161.21 177.038C161.03 174.917 160.726 172.808 160.298 170.723L164.083 175.49" stroke="#252B4A" stroke-linecap="round" stroke-linejoin="round"/>
<path d="M157.754 212.584H157.802C159.866 200.431 162.122 188.135 161.21 177.037C180.379 167.015 204.743 147.588 219.827 134.362C221.538 132.657 215.547 125.108 213.9 123.171C212.209 121.185 205.6 113.869 203.268 115.033C185.647 130.13 166.649 143.552 146.521 155.124" stroke="#252B4A" stroke-linecap="round" stroke-linejoin="round"/>
<path d="M195.677 322.384C194.439 327.268 193.494 332.221 192.844 337.216C185.332 332.313 178.764 326.106 173.45 318.891C173.642 318.473 173.804 318.043 173.93 317.6" stroke="#252B4A" stroke-linecap="round" stroke-linejoin="round"/>
<path d="M173.402 337.156C171.854 334.273 170.693 331.201 169.948 328.018C169.131 329.942 168.702 332.007 168.685 334.096C169.288 337.075 170.34 339.945 171.805 342.61C176.749 351.797 181.694 371.03 185.246 370.791C185.774 370.743 186.351 369.738 186.927 368.064C183.147 363.672 178.298 346.113 173.402 337.156Z" stroke="#252B4A" stroke-linecap="round" stroke-linejoin="round"/>
<path d="M173.402 318.939C172.301 322.097 170.906 325.255 169.948 328.027C170.694 331.211 171.855 334.283 173.402 337.166C178.251 346.113 183.099 363.672 186.94 368.074C189.052 361.806 191.308 346.068 192.796 337.214C185.303 332.307 178.738 326.12 173.402 318.939Z" stroke="#252B4A" stroke-linecap="round" stroke-linejoin="round"/>
<path d="M43.747 273.012C39.5111 270.63 35.1347 268.505 30.6416 266.649C37.3692 260.729 45.1089 256.062 53.4921 252.869C54.7883 253.73 54.9803 254.065 56.2284 254.783" stroke="#252B4A" stroke-linecap="round" stroke-linejoin="round"/>
<path d="M40.0994 244.305C37.0559 244.078 33.9954 244.321 31.0264 245.025C20.8493 247.367 0.881612 246.984 0.201958 250.477C0.105948 251.003 0.922038 251.817 2.3622 252.822C7.59477 250.286 25.8823 250.286 35.9154 248.037C39.1062 247.288 42.3857 246.983 45.6604 247.13C44.0177 245.823 42.1259 244.862 40.0994 244.305Z" stroke="#252B4A" stroke-linecap="round" stroke-linejoin="round"/>
<path d="M45.6194 247.079C42.3446 246.936 39.0656 247.242 35.8743 247.988C25.8892 250.285 7.60172 250.285 2.36914 252.82C7.84174 256.552 22.4808 262.916 30.6417 266.648C37.3879 260.717 45.1425 256.034 53.5402 252.82C50.7079 250.907 48.0196 248.754 45.6194 247.079Z" stroke="#252B4A" stroke-linecap="round" stroke-linejoin="round"/>
<path d="M15.1381 178.617C12.9595 179.338 10.7696 180.024 8.56896 180.675C4.14994 182.004 2.52029 181.201 6.93678 178.187C11.1125 175.361 15.7201 173.228 20.5804 171.871" stroke="#252B4A" stroke-linecap="round" stroke-linejoin="round"/>
<path d="M24.9768 166.322C23.6437 167.62 22.4373 169.04 21.3739 170.565C19.4653 173.415 18.1745 176.631 17.584 180.006" stroke="#252B4A" stroke-linecap="round" stroke-linejoin="round"/>
<path d="M13.4581 174.503C-2.52769 180.101 -4.53381 177.49 8.84956 171.393C14.0133 169.19 19.3891 167.518 24.8934 166.402" stroke="#252B4A" stroke-linecap="round" stroke-linejoin="round"/>
<path d="M44.765 178.712C38.0771 178.339 23.8069 180.824 13.458 184.252C8.94548 185.735 6.53259 184.755 11.5378 180.998C13.6465 179.427 15.9062 178.068 18.2838 176.941" stroke="#252B4A" stroke-linecap="round" stroke-linejoin="round"/>
<path d="M17.0556 168.33C11.6815 169.574 -0.567413 170.032 18.4957 163.88C21.4721 162.921 25.0649 162.118 28.4328 161.393C28.623 160.145 28.4042 158.87 27.8088 157.756C25.7875 154.382 26.4697 153.012 29.777 155.029C33.9745 157.876 38.9584 159.348 44.0346 159.239" stroke="#252B4A" stroke-linecap="round" stroke-linejoin="round"/>
<path d="M28.4339 161.389C28.413 162.652 28.6538 163.906 29.1414 165.072C29.629 166.238 30.3527 167.291 31.2674 168.166C32.1821 169.04 33.2681 169.717 34.4573 170.154C35.6466 170.591 36.9135 170.779 38.1789 170.706" stroke="#252B4A" stroke-linecap="round" stroke-linejoin="round"/>
<path d="M134.424 129.243C134.328 131.109 131.927 131.874 130.151 130.63C129.969 130.98 129.713 131.285 129.401 131.525C129.088 131.765 128.727 131.934 128.342 132.021C127.957 132.108 127.558 132.109 127.172 132.026C126.786 131.943 126.423 131.777 126.109 131.539C125.988 131.955 125.765 132.334 125.46 132.641C125.154 132.948 124.776 133.174 124.361 133.297C123.945 133.421 123.505 133.438 123.08 133.348C122.656 133.258 122.261 133.063 121.932 132.781C123.516 135.604 124.236 138.764 122.028 136.609C119.532 134.171 116.854 137.699 120.78 140.675C121.518 141.334 122.061 142.182 122.349 143.127C122.636 144.072 122.658 145.078 122.412 146.034C118.43 139.386 111.326 134.123 109.693 132.496C105.903 128.719 108.589 126.324 111.806 127.712C111.048 125.655 113.486 123.935 115.74 125.655C115.115 123.64 118.142 121.97 120.732 124.076C120.3 121.875 124.044 120.966 126.205 122.88C125.869 120.918 129.333 120.769 130.909 123.358C132.172 125.41 134.424 129.243 134.424 129.243Z" stroke="#252B4A" stroke-linecap="round" stroke-linejoin="round"/>
<path d="M114.936 191.772L118.445 187.275C116.719 186.942 115.087 186.605 113.455 186.32" stroke="#252B4A" stroke-linecap="round" stroke-linejoin="round"/>
<path d="M118.153 160.006C117.529 159.767 87.3281 151.92 44.899 155.977C42.598 164.54 42.8615 173.588 45.657 182.004C68.3444 180.166 91.1794 181.619 113.448 186.318C116.153 195.131 117.89 204.21 118.63 213.396" stroke="#252B4A" stroke-linecap="round" stroke-linejoin="round"/>
<path d="M88.4373 105.177C88.5497 106.474 88.274 107.774 87.6451 108.914C87.0161 110.054 86.0622 110.983 84.9037 111.583C83.7453 112.183 82.4344 112.427 81.1368 112.285C79.8392 112.142 78.6131 111.619 77.6135 110.782C76.6139 109.946 75.8857 108.832 75.5208 107.583C75.156 106.334 75.171 105.005 75.5639 103.764C75.9568 102.523 76.71 101.426 77.7282 100.612C78.7464 99.7977 79.984 99.3026 81.2845 99.1892C83.0286 99.0432 84.7599 99.591 86.1001 100.713C87.4403 101.835 88.2805 103.44 88.4373 105.177Z" stroke="#252B4A" stroke-linecap="round" stroke-linejoin="round"/>
<path d="M351.589 333.293H330.803" stroke="#252B4A" stroke-linecap="round" stroke-linejoin="round"/>
<path d="M341.198 343.672V322.91" stroke="#252B4A" stroke-linecap="round" stroke-linejoin="round"/>
<path d="M60.0817 154.982C57.7319 163.718 58.1716 172.962 61.3298 181.441" stroke="#252B4A" stroke-linecap="round" stroke-linejoin="round"/>
<path d="M194.243 122.594C201.459 127.403 207.333 133.957 211.315 141.644" stroke="#252B4A" stroke-linecap="round" stroke-linejoin="round"/>
<path d="M434.874 153.738C433.193 153.833 430.217 153.977 429.545 154.025C430.793 150.056 433.006 150.006 434.874 153.738Z" stroke="#252B4A" stroke-linecap="round" stroke-linejoin="round"/>
<path d="M436.41 176.703C435.21 179.957 433.242 180.1 431.562 177.086C432.954 177 434.634 176.847 436.41 176.703Z" stroke="#252B4A" stroke-linecap="round" stroke-linejoin="round"/>
<path d="M344.053 209.232C363.495 222.83 368.813 239.617 376.982 269.416C377.269 270.456 377.817 271.406 378.576 272.175C379.334 272.944 380.277 273.507 381.315 273.811C382.354 274.112 383.452 274.144 384.507 273.904C385.561 273.664 386.537 273.159 387.341 272.438L433.007 231.196" stroke="#252B4A" stroke-linecap="round" stroke-linejoin="round"/>
<path d="M268.545 347.595L285.104 284.349L333.779 242.197" stroke="#252B4A" stroke-linecap="round" stroke-linejoin="round"/>
<path d="M144.408 220.193C142.57 223.293 140.092 225.966 137.137 228.037C134.182 230.108 130.819 231.528 127.271 232.202" stroke="#252B4A" stroke-linecap="round" stroke-linejoin="round"/>
<path d="M172.01 298.701C176.869 302.195 182.404 304.642 188.264 305.887C194.124 307.131 200.18 307.146 206.046 305.931" stroke="#252B4A" stroke-linecap="round" stroke-linejoin="round"/>
<path d="M74.6601 259.094C65.2536 265.409 59.2478 275.648 55.6045 288.556" stroke="#252B4A" stroke-linecap="round" stroke-linejoin="round"/>
<path d="M398.68 246.217L385.289 267.269C385.274 264.519 385.114 261.772 384.809 259.039" stroke="#252B4A" stroke-linecap="round" stroke-linejoin="round"/>
<path d="M206.134 115.81C213.011 110.643 214.686 102.967 214.926 95.9844C214.434 91.1007 213.6 86.2574 212.43 81.4898C212.278 80.5329 213.63 79.3847 216.366 84.8868L217.951 88.3216" stroke="#252B4A" stroke-linecap="round" stroke-linejoin="round"/>
</g>
<defs>
<clipPath id="clip0_649_32412">
<rect width="480" height="462" fill="white"/>
</clipPath>
</defs>
</svg>
