<svg width="480" height="462" viewBox="0 0 480 462" fill="none" xmlns="http://www.w3.org/2000/svg">
<path d="M281.738 40L281.318 78.3524L305.345 120.066L305.765 81.714L281.738 40Z" fill="#F7F7FF"/>
<path d="M291.281 95.795L278.695 108.324L275.225 150.459L305.392 120.241L291.281 95.795Z" fill="#F7F7FF"/>
<path fill-rule="evenodd" clip-rule="evenodd" d="M291.19 211.67C316.738 188.684 340.959 164.259 363.735 138.515C357.48 127.659 349.547 120.019 339.517 116.283C310.244 149.486 278.485 180.404 244.515 208.767C238.814 220.381 234.673 225.91 221.293 226.463C221.026 234.148 220.069 241.793 218.433 249.306C218.433 249.306 224.147 259.347 239.862 260.851C254.848 262.286 298.137 244.463 298.137 244.463C318.952 249.934 339.146 257.547 358.395 267.182C365.375 258.625 370.943 249.648 371.324 238.303C350.764 227.282 329.045 218.583 306.566 212.367C301.569 210.915 296.298 210.676 291.19 211.67ZM238.108 247.463C238.108 247.709 238.06 247.952 237.966 248.179C237.872 248.407 237.735 248.613 237.561 248.787C237.388 248.961 237.181 249.099 236.955 249.193C236.728 249.287 236.485 249.335 236.239 249.335C235.869 249.335 235.508 249.226 235.2 249.02C234.892 248.815 234.652 248.522 234.511 248.18C234.369 247.838 234.332 247.461 234.405 247.098C234.478 246.735 234.656 246.401 234.918 246.14C235.179 245.877 235.512 245.698 235.875 245.626C236.238 245.553 236.614 245.59 236.955 245.732C237.297 245.873 237.589 246.114 237.794 246.422C237.999 246.73 238.109 247.092 238.108 247.463ZM265.439 228.122C265.612 227.948 265.75 227.742 265.844 227.515C265.938 227.288 265.987 227.044 265.987 226.798C265.987 226.553 265.939 226.309 265.845 226.082C265.751 225.855 265.613 225.649 265.44 225.475C265.266 225.301 265.06 225.163 264.834 225.069C264.607 224.975 264.364 224.926 264.119 224.926C263.873 224.926 263.63 224.974 263.404 225.068C263.177 225.162 262.971 225.3 262.797 225.474C262.624 225.648 262.486 225.854 262.392 226.081C262.299 226.308 262.25 226.551 262.25 226.797C262.25 227.042 262.299 227.286 262.392 227.513C262.486 227.74 262.624 227.946 262.797 228.12C262.971 228.293 263.177 228.431 263.403 228.525C263.63 228.619 263.873 228.668 264.118 228.668C264.363 228.668 264.606 228.619 264.833 228.525C265.059 228.431 265.265 228.295 265.439 228.122ZM299.281 238.6C299.282 238.846 299.233 239.09 299.139 239.317C299.045 239.544 298.907 239.75 298.733 239.923C298.56 240.098 298.355 240.236 298.128 240.33C297.901 240.425 297.658 240.473 297.413 240.473C297.167 240.473 296.924 240.425 296.697 240.33C296.471 240.236 296.265 240.098 296.092 239.923C295.918 239.75 295.78 239.544 295.685 239.317C295.591 239.09 295.543 238.846 295.543 238.6C295.543 238.355 295.591 238.111 295.685 237.884C295.78 237.657 295.918 237.451 296.092 237.278C296.265 237.103 296.471 236.965 296.697 236.87C296.924 236.776 297.167 236.727 297.413 236.727C297.658 236.727 297.901 236.776 298.128 236.87C298.355 236.965 298.56 237.103 298.733 237.278C298.907 237.451 299.045 237.657 299.139 237.884C299.233 238.111 299.282 238.355 299.281 238.6ZM334.087 229.991C334.261 229.818 334.398 229.611 334.492 229.385C334.586 229.158 334.635 228.914 334.635 228.669C334.635 228.423 334.586 228.18 334.492 227.953C334.398 227.726 334.261 227.519 334.087 227.346C333.914 227.172 333.708 227.034 333.481 226.94C333.255 226.846 333.012 226.798 332.767 226.798C332.521 226.798 332.278 226.846 332.052 226.94C331.825 227.034 331.619 227.172 331.446 227.346C331.272 227.519 331.135 227.726 331.041 227.953C330.947 228.18 330.899 228.423 330.899 228.669C330.899 228.914 330.947 229.158 331.041 229.385C331.135 229.611 331.272 229.818 331.446 229.991C331.619 230.165 331.825 230.303 332.052 230.397C332.278 230.491 332.521 230.539 332.767 230.539C333.012 230.539 333.255 230.491 333.481 230.397C333.708 230.303 333.914 230.165 334.087 229.991ZM354.315 256.096C354.315 256.342 354.267 256.585 354.173 256.812C354.078 257.039 353.941 257.245 353.767 257.419C353.594 257.593 353.388 257.731 353.161 257.826C352.934 257.92 352.691 257.969 352.446 257.969C352.2 257.969 351.957 257.92 351.731 257.826C351.504 257.731 351.298 257.593 351.125 257.419C350.951 257.245 350.813 257.039 350.719 256.812C350.624 256.585 350.576 256.342 350.576 256.096C350.576 255.85 350.624 255.607 350.719 255.38C350.813 255.152 350.951 254.946 351.125 254.773C351.298 254.599 351.504 254.46 351.731 254.366C351.957 254.271 352.2 254.223 352.446 254.223C352.691 254.223 352.934 254.271 353.161 254.366C353.388 254.46 353.594 254.599 353.767 254.773C353.941 254.946 354.078 255.153 354.173 255.38C354.267 255.607 354.315 255.85 354.315 256.096ZM257.735 209.633C257.909 209.459 258.046 209.253 258.14 209.026C258.234 208.799 258.283 208.556 258.283 208.31C258.283 208.064 258.235 207.821 258.141 207.594C258.047 207.366 257.909 207.16 257.736 206.986C257.563 206.812 257.357 206.674 257.13 206.58C256.903 206.486 256.66 206.438 256.415 206.438C256.169 206.437 255.926 206.486 255.7 206.58C255.473 206.674 255.267 206.812 255.093 206.985C254.92 207.159 254.782 207.365 254.688 207.592C254.595 207.819 254.546 208.062 254.546 208.308C254.546 208.554 254.595 208.797 254.688 209.024C254.782 209.251 254.92 209.457 255.093 209.631C255.267 209.805 255.473 209.943 255.699 210.037C255.926 210.131 256.169 210.179 256.414 210.179C256.659 210.179 256.902 210.131 257.129 210.037C257.356 209.943 257.562 209.807 257.735 209.633ZM292.226 200.363C292.227 200.733 292.117 201.095 291.912 201.404C291.707 201.712 291.415 201.952 291.073 202.094C290.732 202.235 290.356 202.272 289.993 202.2C289.63 202.127 289.297 201.948 289.036 201.686C288.863 201.512 288.725 201.306 288.631 201.079C288.538 200.852 288.489 200.608 288.489 200.363C288.489 200.117 288.538 199.874 288.631 199.647C288.725 199.42 288.863 199.213 289.036 199.04C289.21 198.866 289.416 198.728 289.642 198.634C289.869 198.54 290.112 198.492 290.357 198.492C290.602 198.492 290.845 198.54 291.072 198.634C291.299 198.728 291.504 198.866 291.678 199.04C291.852 199.213 291.989 199.42 292.083 199.647C292.177 199.874 292.226 200.117 292.226 200.363ZM298.733 170.858C298.907 170.685 299.044 170.478 299.138 170.251C299.232 170.024 299.281 169.781 299.281 169.536C299.281 169.29 299.232 169.047 299.138 168.82C299.044 168.593 298.907 168.386 298.733 168.213C298.56 168.039 298.354 167.901 298.127 167.807C297.901 167.713 297.658 167.665 297.413 167.665C297.167 167.665 296.924 167.713 296.698 167.807C296.471 167.901 296.265 168.039 296.092 168.213C295.918 168.386 295.781 168.593 295.687 168.82C295.593 169.047 295.545 169.29 295.545 169.536C295.545 169.781 295.593 170.024 295.687 170.251C295.781 170.478 295.918 170.685 296.092 170.858C296.265 171.032 296.471 171.17 296.698 171.264C296.924 171.358 297.167 171.406 297.413 171.406C297.658 171.406 297.901 171.358 298.127 171.264C298.354 171.17 298.56 171.032 298.733 170.858ZM334.635 159.909C334.636 160.28 334.527 160.642 334.322 160.95C334.117 161.258 333.825 161.499 333.483 161.64C333.141 161.782 332.765 161.819 332.402 161.746C332.04 161.674 331.707 161.495 331.446 161.232C331.272 161.058 331.135 160.852 331.041 160.625C330.947 160.398 330.899 160.155 330.899 159.909C330.899 159.664 330.947 159.42 331.041 159.193C331.135 158.966 331.272 158.76 331.446 158.586C331.619 158.413 331.825 158.275 332.052 158.181C332.278 158.087 332.521 158.038 332.767 158.038C333.012 158.038 333.255 158.087 333.481 158.181C333.708 158.275 333.914 158.413 334.087 158.586C334.261 158.76 334.399 158.966 334.493 159.193C334.587 159.42 334.635 159.663 334.635 159.909ZM342.831 128.579C343.181 128.229 343.378 127.753 343.378 127.257C343.378 126.76 343.181 126.284 342.831 125.934C342.658 125.76 342.452 125.622 342.225 125.528C341.999 125.434 341.756 125.386 341.51 125.386C341.015 125.386 340.54 125.583 340.19 125.934C339.839 126.284 339.642 126.76 339.642 127.257C339.642 127.753 339.839 128.229 340.19 128.579C340.54 128.93 341.015 129.127 341.51 129.127C342.006 129.127 342.481 128.93 342.831 128.579Z" fill="#F7F7FF"/>
<path d="M239.853 175.533C239.509 176.182 238.032 178.818 236.545 181.564C232.693 177.786 234.399 174.998 239.853 175.533Z" fill="#4F56B2"/>
<path d="M252.485 181.188L250.241 187.643C252.248 187.758 254.796 187.326 254.904 185.349C254.802 184.528 254.534 183.736 254.119 183.021C253.703 182.306 253.148 181.682 252.485 181.188Z" fill="#4F56B2"/>
<path d="M228.688 149.672C229.26 152.422 229.792 154.791 230.093 156.089C231.771 155.211 232.831 154.141 232.8 152.995C232.778 151.503 231.245 150.359 228.688 149.672Z" fill="#4F56B2"/>
<path d="M215.645 157.502C209.467 156.013 209.276 152.307 215.264 150.168C215.559 152.601 215.685 155.053 215.645 157.502Z" fill="#4F56B2"/>
<path d="M410.53 263.24C410.378 261.865 404.085 259.076 396.763 256.288C389.898 253.652 377.732 247.844 370.638 244.293C369.205 250.629 366.449 256.59 362.553 261.784C368.121 264.458 373.46 267.629 376.702 267.896C378.846 268.023 380.995 267.738 383.033 267.056C391.652 264.31 411.024 268.168 410.53 263.24Z" fill="#4F56B2"/>
<path d="M375.094 83.2062C373.721 83.0534 369.675 88.6687 365.407 95.2391C361.67 101.007 352.784 112.467 346.796 119.916C351.939 123.264 356.393 127.569 359.915 132.598C364.187 126.639 371.395 121.177 372.539 117.318C373.101 115.242 373.268 113.076 373.035 110.939C372.202 101.926 380.02 83.741 375.094 83.2062Z" fill="#4F56B2"/>
<path d="M187.308 173.433C188.388 172.717 189.198 171.659 189.607 170.428C190.017 169.198 190.004 167.865 189.569 166.643C189.135 165.421 188.304 164.38 187.21 163.685C186.116 162.991 184.821 162.684 183.532 162.813C184.246 161.761 184.593 160.502 184.52 159.232C184.447 157.962 183.956 156.752 183.126 155.789C182.295 154.826 181.171 154.165 179.927 153.909C178.683 153.652 177.389 153.814 176.246 154.369C178.139 148.699 170.298 144.212 166.179 149.212C166.147 147.81 165.626 146.463 164.705 145.406C163.785 144.349 162.524 143.648 161.141 143.426C159.759 143.203 158.342 143.473 157.137 144.188C155.932 144.903 155.016 146.019 154.547 147.34C152.279 141.367 143.373 142.992 143.373 149.097C142.464 148.201 141.283 147.633 140.017 147.481C138.751 147.328 137.47 147.601 136.375 148.256C135.28 148.912 134.433 149.912 133.967 151.101C133.5 152.291 133.441 153.601 133.798 154.827C132.619 154.299 131.297 154.182 130.043 154.495C128.79 154.808 127.677 155.532 126.883 156.552C126.088 157.572 125.658 158.829 125.661 160.123C125.663 161.417 126.099 162.673 126.897 163.69C125.541 163.536 124.174 163.867 123.039 164.625C121.904 165.384 121.073 166.52 120.694 167.833C120.315 169.146 120.412 170.551 120.968 171.799C121.524 173.048 122.503 174.059 123.732 174.653C122.381 174.839 121.14 175.498 120.228 176.513C119.317 177.528 118.794 178.834 118.753 180.199C118.711 181.564 119.155 182.9 120.003 183.968C120.852 185.037 122.051 185.77 123.388 186.037C118.222 189.438 121.594 197.513 127.202 196.58C126.497 197.641 126.159 198.905 126.242 200.177C126.325 201.449 126.823 202.659 127.66 203.619C128.498 204.58 129.627 205.238 130.874 205.492C132.122 205.745 133.418 205.581 134.563 205.024C132.656 210.744 140.715 215.129 144.631 210.104C144.638 211.475 145.131 212.799 146.022 213.839C146.913 214.88 148.144 215.569 149.496 215.785C150.847 216.001 152.231 215.729 153.401 215.017C154.571 214.305 155.45 213.2 155.882 211.9C156.199 212.781 156.727 213.572 157.419 214.203C158.111 214.833 158.946 215.285 159.852 215.519C160.758 215.752 161.708 215.76 162.618 215.542C163.528 215.324 164.371 214.887 165.073 214.268C163.222 208.646 161.707 202.919 160.535 197.116C157.014 181.74 157.871 187.361 156.187 180.614C151.382 179.583 152.869 173.891 156.225 175.686C157.831 176.565 158.399 176.45 158.399 175.419C158.857 166.939 165.188 164.303 169.879 172.669C173.54 179.201 175.981 191.043 169.307 192.723C168.612 192.918 167.892 193.008 167.171 192.991C167.171 194.758 171.077 200.301 171.824 201.234C174.116 200.857 176.459 200.922 178.727 201.425L184.407 199.706C184.596 199.033 184.621 198.326 184.481 197.641C184.342 196.957 184.041 196.316 183.604 195.771C184.958 195.935 186.326 195.612 187.464 194.861C188.603 194.111 189.439 192.98 189.824 191.67C190.209 190.36 190.119 188.955 189.568 187.706C189.017 186.457 188.042 185.444 186.816 184.846C188.168 184.67 189.414 184.022 190.335 183.016C191.256 182.01 191.793 180.71 191.852 179.347C191.911 177.983 191.487 176.642 190.656 175.56C189.825 174.478 188.639 173.725 187.308 173.433Z" fill="#4F56B2"/>
<path d="M167.322 193.028C165.617 192.899 163.944 192.5 162.364 191.844L168.926 196.733C168.151 195.617 167.604 194.358 167.322 193.028Z" fill="#4F56B2"/>
<path d="M221.289 226.529C213.831 227.146 206.343 227.325 198.864 227.064L221.099 231.992C221.257 230.176 221.32 228.353 221.289 226.529Z" fill="#4F56B2"/>
<path d="M150.696 95.2007C150.693 97.8971 149.826 100.521 148.22 102.686C146.615 104.851 144.357 106.441 141.781 107.222C139.204 108.003 136.445 107.933 133.911 107.023C131.376 106.113 129.202 104.411 127.707 102.168C126.213 99.9249 125.479 97.2601 125.612 94.567C125.746 91.8739 126.74 89.2951 128.449 87.2116C130.158 85.1281 132.491 83.6503 135.103 82.9964C137.714 82.3424 140.467 82.547 142.954 83.58C145.248 84.531 147.209 86.1433 148.587 88.2122C149.966 90.2811 150.699 92.7135 150.696 95.2007Z" fill="#4F56B2"/>
<path d="M230.671 281.727C230.148 274.253 231.161 266.752 233.645 259.686" stroke="#252B4A" stroke-linecap="round" stroke-linejoin="round"/>
<path d="M234.217 178.13L232.806 152.994" stroke="#252B4A" stroke-linecap="round" stroke-linejoin="round"/>
<path d="M213.318 196.16L210.877 154.141" stroke="#252B4A" stroke-linecap="round" stroke-linejoin="round"/>
<path d="M169.001 196.886L162.213 191.768" stroke="#252B4A" stroke-linecap="round" stroke-linejoin="round"/>
<path d="M162.212 191.767C177.315 197.612 174.603 180.921 169.992 172.706C165.297 164.342 158.97 166.976 158.513 175.456C158.513 176.487 157.945 176.594 156.339 175.723C152.993 173.914 151.495 179.62 156.301 180.651C156.949 183.287 157.491 184.736 158.131 186.839C158.828 189.129 160.139 194.825 160.648 197.153C163.037 208.129 165.297 217.172 169.882 224.237C182.419 243.574 198.409 250.06 218.432 249.368C220.068 241.855 221.025 234.21 221.292 226.525C235.479 225.341 238.992 222.271 250.735 195.239C251.913 192.525 253.143 189.624 254.51 186.415" stroke="#252B4A" stroke-linecap="round" stroke-linejoin="round"/>
<path d="M171.976 201.278C169.922 198.847 168.344 196.051 167.323 193.035" stroke="#252B4A" stroke-linecap="round" stroke-linejoin="round"/>
<path d="M234.217 178.121C231.395 184.997 224.936 199.264 219.382 203.065C212.386 207.854 181.015 201.843 181.015 201.843C175.904 200.773 171.366 200.2 167.323 203.333" stroke="#252B4A" stroke-linecap="round" stroke-linejoin="round"/>
<path d="M178.843 201.432L213.013 191.004" stroke="#252B4A" stroke-linecap="round" stroke-linejoin="round"/>
<path d="M247.413 154.827C250.121 152.383 255.844 145.629 259.083 141.992C260.575 140.315 261.291 144.819 252.447 155.247" stroke="#252B4A" stroke-linecap="round" stroke-linejoin="round"/>
<path d="M250.24 156.811C253.329 154.748 257.314 151.475 261.033 148.598C262.778 147.249 264.123 149.82 255.012 158.377" stroke="#252B4A" stroke-linecap="round" stroke-linejoin="round"/>
<path d="M252.485 181.185C255.495 184 255.01 185.578 254.506 186.412C251.716 190.14 237.053 184.936 234.698 179.02C233.745 176.627 235.734 175.125 239.851 175.525" stroke="#252B4A" stroke-linecap="round" stroke-linejoin="round"/>
<path d="M250.24 187.641L252.49 181.186C254.474 175.112 254.931 173.622 253.863 169.84C253.024 166.861 252.189 165.453 254.054 164.34C264.179 158.296 264.43 155.519 262.444 156.203C258.213 157.663 255.58 158.228 252.757 158.953" stroke="#252B4A" stroke-linecap="round" stroke-linejoin="round"/>
<path d="M240.586 168.082C239.439 164.207 237.676 160.541 235.367 157.225C233.994 155.315 235.367 153.444 241.241 159.899" stroke="#252B4A" stroke-linecap="round" stroke-linejoin="round"/>
<path d="M215.263 150.176C209.288 152.285 209.412 156.057 215.645 157.51C220.488 158.598 225.553 158.106 230.097 156.103C234.373 153.865 233.309 150.988 228.692 149.686" stroke="#252B4A" stroke-linecap="round" stroke-linejoin="round"/>
<path d="M221.477 143.864C220.907 142.489 220.45 141.343 219.992 140.312C217.424 134.814 214.224 129.634 210.457 124.879C205.869 119.734 204.897 121.244 207.748 126.903C212.405 136.152 216.038 147.196 215.644 157.501" stroke="#252B4A" stroke-linecap="round" stroke-linejoin="round"/>
<path d="M211.792 126.483C211.52 123.935 211.623 121.361 212.097 118.843C212.288 118.156 213.273 117.508 214.156 121.785C214.345 122.701 215.226 126.636 215.606 128.017C216.255 130.843 217.083 133.624 218.085 136.345" stroke="#252B4A" stroke-linecap="round" stroke-linejoin="round"/>
<path d="M219.992 140.313C221.861 142.911 223.491 136.031 224.531 133.208C225.476 130.645 227.542 128.168 227.086 135.653C226.769 140.924 228.742 150.309 230.097 156.09" stroke="#252B4A" stroke-linecap="round" stroke-linejoin="round"/>
<path d="M244.934 223.206L289.517 212.1C295.125 210.691 301.004 210.784 306.565 212.367C329.044 218.583 350.763 227.281 371.324 238.303C370.942 249.648 365.374 258.625 358.395 267.181C339.145 257.547 318.951 249.933 298.137 244.463C298.137 244.463 254.848 262.286 239.862 260.85C224.147 259.347 218.384 249.276 218.384 249.276" stroke="#252B4A" stroke-linecap="round" stroke-linejoin="round"/>
<path d="M291.19 211.67C316.738 188.684 340.959 164.259 363.734 138.515C357.48 127.659 349.547 120.019 339.517 116.283C310.244 149.486 278.484 180.404 244.515 208.767" stroke="#252B4A" stroke-linecap="round" stroke-linejoin="round"/>
<path d="M410.529 263.24C410.377 261.865 404.084 259.076 396.762 256.288C389.897 253.652 377.731 247.844 370.637 244.293C369.204 250.629 366.449 256.59 362.552 261.784C368.12 264.458 373.459 267.629 376.701 267.896C378.845 268.023 380.994 267.738 383.032 267.056C391.651 264.31 411.023 268.168 410.529 263.24Z" stroke="#252B4A" stroke-linecap="round" stroke-linejoin="round"/>
<path d="M375.094 83.2042C373.721 83.0514 369.675 88.6668 365.407 95.2371C361.67 101.005 352.784 112.465 346.796 119.914C351.939 123.262 356.393 127.567 359.915 132.596C364.187 126.637 371.395 121.175 372.539 117.317C373.101 115.24 373.268 113.074 373.035 110.937C372.202 101.924 380.02 83.739 375.094 83.2042Z" stroke="#252B4A" stroke-linecap="round" stroke-linejoin="round"/>
<path d="M184.524 199.713C184.648 198.716 184.584 197.707 184.333 196.734C184.169 196.394 183.967 196.074 183.731 195.779C185.087 195.948 186.459 195.63 187.602 194.879C188.745 194.129 189.585 192.996 189.971 191.683C190.357 190.37 190.264 188.962 189.709 187.711C189.155 186.46 188.174 185.447 186.943 184.854C188.306 184.683 189.565 184.03 190.491 183.013C191.418 181.996 191.952 180.682 191.998 179.306C192.044 177.93 191.598 176.583 190.742 175.506C189.885 174.43 188.673 173.694 187.324 173.432C188.31 172.786 189.076 171.853 189.519 170.759C189.961 169.665 190.06 168.462 189.801 167.31C189.542 166.159 188.938 165.114 188.07 164.315C187.202 163.517 186.111 163.003 184.943 162.843C184.478 162.776 184.007 162.763 183.538 162.805C184.046 162.077 184.373 161.239 184.492 160.36C184.596 159.607 184.552 158.842 184.361 158.107C184.17 157.372 183.836 156.681 183.378 156.075C182.921 155.47 182.349 154.96 181.695 154.576C181.041 154.191 180.317 153.94 179.566 153.836C178.431 153.675 177.275 153.861 176.248 154.37C176.594 153.089 176.489 151.728 175.952 150.515C175.415 149.302 174.478 148.31 173.298 147.707C172.118 147.103 170.767 146.924 169.471 147.2C168.175 147.476 167.013 148.19 166.18 149.222C166.186 147.823 165.688 146.469 164.777 145.409C163.866 144.349 162.603 143.655 161.222 143.453L160.84 143.377C159.492 143.194 158.123 143.491 156.973 144.218C155.822 144.944 154.964 146.053 154.547 147.35C154.098 146.144 153.26 145.122 152.166 144.447C151.071 143.772 149.784 143.481 148.506 143.621C147.229 143.76 146.034 144.323 145.111 145.219C144.188 146.115 143.59 147.293 143.411 148.568C143.379 148.745 143.367 148.924 143.373 149.103C142.496 148.228 141.358 147.663 140.131 147.495C139.38 147.388 138.616 147.431 137.881 147.621C137.147 147.811 136.458 148.144 135.852 148.602C135.247 149.06 134.739 149.634 134.355 150.289C133.972 150.945 133.722 151.67 133.62 152.422C133.509 153.231 133.579 154.055 133.82 154.835C133.325 154.604 132.798 154.45 132.257 154.377C131.311 154.243 130.346 154.347 129.45 154.68C128.554 155.012 127.755 155.562 127.123 156.28C126.492 156.998 126.048 157.862 125.832 158.794C125.616 159.726 125.634 160.697 125.886 161.62C126.086 162.374 126.44 163.08 126.917 163.697C125.558 163.534 124.184 163.86 123.043 164.618C121.901 165.375 121.065 166.514 120.685 167.832C120.304 169.15 120.404 170.56 120.966 171.811C121.528 173.062 122.515 174.072 123.752 174.661C122.395 174.838 121.146 175.494 120.228 176.51C119.31 177.526 118.783 178.836 118.742 180.206C118.701 181.576 119.148 182.915 120.003 183.985C120.858 185.055 122.065 185.785 123.409 186.044C122.725 186.494 122.146 187.085 121.712 187.779C121.278 188.473 120.998 189.253 120.892 190.065C120.686 191.579 121.086 193.112 122.003 194.333C122.921 195.553 124.282 196.361 125.791 196.581C126.257 196.655 126.731 196.655 127.196 196.581C126.717 197.319 126.404 198.154 126.281 199.026C126.137 200.068 126.279 201.129 126.692 202.097C127.104 203.064 127.772 203.901 128.623 204.517C129.474 205.133 130.476 205.506 131.523 205.595C132.569 205.684 133.62 205.487 134.563 205.023C134.493 205.248 134.442 205.478 134.41 205.711C134.302 206.464 134.343 207.231 134.531 207.968C134.72 208.705 135.053 209.397 135.51 210.004C135.968 210.612 136.541 211.122 137.197 211.507C137.852 211.891 138.577 212.141 139.33 212.243C140.324 212.389 141.338 212.267 142.27 211.891C143.201 211.516 144.016 210.899 144.631 210.104C144.63 211.48 145.118 212.811 146.009 213.858C146.9 214.905 148.135 215.6 149.491 215.816C150.847 216.033 152.237 215.757 153.408 215.039C154.58 214.321 155.457 213.207 155.882 211.899C156.199 212.781 156.727 213.571 157.419 214.202C158.111 214.833 158.946 215.284 159.853 215.518C160.759 215.751 161.708 215.76 162.618 215.542C163.528 215.324 164.371 214.886 165.073 214.268" stroke="#252B4A" stroke-linecap="round" stroke-linejoin="round"/>
<path d="M160.915 198.3L169 196.887" stroke="#252B4A" stroke-linecap="round" stroke-linejoin="round"/>
<path d="M380.171 372.068C377.283 371.082 374.637 369.492 372.408 367.405C370.179 365.317 368.418 362.779 367.242 359.959L362.398 348.423L381.01 340.936L382.764 345.061C384.646 349.558 388.183 353.157 392.642 355.114L413.389 364.282C413.67 364.401 413.924 364.576 414.136 364.795C414.348 365.015 414.514 365.275 414.625 365.559C414.735 365.844 414.787 366.148 414.778 366.454C414.769 366.759 414.698 367.06 414.571 367.338C412.809 371.274 409.641 374.408 405.689 376.126C401.738 377.843 397.288 378.019 393.214 376.62L380.171 372.068Z" stroke="#252B4A" stroke-linecap="round" stroke-linejoin="round"/>
<path d="M362.4 348.424L381.012 340.937L375.062 326.879C374.892 326.492 374.579 326.184 374.188 326.021C373.798 325.857 373.36 325.85 372.964 326.001L357.404 332.233C357.106 332.358 356.851 332.568 356.672 332.838C356.493 333.107 356.398 333.424 356.398 333.747C356.4 333.962 356.443 334.175 356.527 334.373L362.4 348.424Z" stroke="#252B4A" stroke-linecap="round" stroke-linejoin="round"/>
<path d="M230.557 186.381C233.053 189.262 236.159 191.549 239.649 193.077C243.139 194.604 246.925 195.333 250.732 195.211" stroke="#252B4A" stroke-linecap="round" stroke-linejoin="round"/>
<path d="M211.373 162.544C214.869 163.999 218.637 164.682 222.421 164.547C226.204 164.413 229.915 163.462 233.298 161.762" stroke="#252B4A" stroke-linecap="round" stroke-linejoin="round"/>
<path d="M110.269 289.367L282.31 373.101" stroke="#252B4A" stroke-linecap="round" stroke-linejoin="round"/>
<path d="M317.664 376.234C318.676 374.141 318.819 371.731 318.061 369.533C317.304 367.335 315.707 365.528 313.621 364.506L299.51 357.671C297.421 356.656 295.015 356.513 292.821 357.272C290.626 358.031 288.821 359.63 287.802 361.72L268.008 402.517C266.996 404.61 266.853 407.019 267.61 409.217C268.368 411.415 269.965 413.223 272.051 414.244L286.162 421.12C288.251 422.134 290.657 422.277 292.851 421.518C295.046 420.759 296.851 419.16 297.87 417.071L317.664 376.234Z" stroke="#252B4A" stroke-linecap="round" stroke-linejoin="round"/>
<path d="M104.662 262.818L110.497 250.823C113.364 244.92 118.452 240.398 124.644 238.25C130.836 236.101 137.627 236.502 143.525 239.363L300.959 315.964C306.852 318.835 311.367 323.931 313.512 330.133C315.657 336.336 315.257 343.137 312.4 349.044L306.565 361.077" stroke="#252B4A" stroke-linecap="round" stroke-linejoin="round"/>
<path d="M84.2598 322.869L272.088 414.243" stroke="#252B4A" stroke-linecap="round" stroke-linejoin="round"/>
<path d="M378.531 165.295L381.582 184.853" stroke="#252B4A" stroke-linecap="round" stroke-linejoin="round"/>
<path d="M389.821 173.545L370.294 176.601" stroke="#252B4A" stroke-linecap="round" stroke-linejoin="round"/>
<path d="M150.695 95.1987C150.692 97.8952 149.825 100.519 148.219 102.684C146.614 104.849 144.356 106.439 141.78 107.22C139.203 108.001 136.444 107.931 133.91 107.021C131.376 106.111 129.201 104.409 127.706 102.166C126.212 99.9229 125.478 97.2581 125.611 94.565C125.745 91.8719 126.739 89.2932 128.448 87.2097C130.157 85.1262 132.49 83.6484 135.102 82.9944C137.713 82.3405 140.466 82.5451 142.953 83.578C145.247 84.5291 147.208 86.1413 148.586 88.2102C149.965 90.2792 150.698 92.7115 150.695 95.1987Z" stroke="#252B4A" stroke-linecap="round" stroke-linejoin="round"/>
<path d="M135.827 73.7291C137.417 76.4168 138.221 79.4982 138.147 82.6216C135.299 81.3746 132.855 79.3552 131.092 76.7911C129.498 74.1017 128.692 71.0173 128.765 67.8906C131.617 69.1389 134.063 71.1613 135.827 73.7291Z" stroke="#252B4A" stroke-linecap="round" stroke-linejoin="round"/>
<path d="M221.068 231.985L198.863 227.025" stroke="#252B4A" stroke-linecap="round" stroke-linejoin="round"/>
<path d="M221.288 226.529C207.863 227.731 194.343 227.32 181.015 225.307" stroke="#252B4A" stroke-linecap="round" stroke-linejoin="round"/>
<path d="M82.4658 206.359L83.3439 211.249" stroke="#252B4A" stroke-linecap="round" stroke-linejoin="round"/>
<path d="M79.5291 216.674L74.6475 217.552" stroke="#252B4A" stroke-linecap="round" stroke-linejoin="round"/>
<path d="M93.6405 214.229L88.7588 215.068" stroke="#252B4A" stroke-linecap="round" stroke-linejoin="round"/>
<path d="M85.7852 225.384L84.9453 220.494" stroke="#252B4A" stroke-linecap="round" stroke-linejoin="round"/>
<path d="M88.7588 215.068C88.1524 215.175 87.5307 215.162 86.9296 215.028C86.3284 214.894 85.7597 214.642 85.256 214.287C84.7524 213.932 84.3237 213.481 83.9948 212.959C83.6658 212.438 83.443 211.856 83.3392 211.248C83.4464 211.855 83.4327 212.478 83.2989 213.08C83.165 213.682 82.9136 214.252 82.5592 214.757C82.2048 215.261 81.7543 215.69 81.2336 216.02C80.713 216.349 80.1324 216.572 79.5254 216.676C80.1318 216.569 80.7535 216.583 81.3547 216.717C81.9558 216.851 82.5245 217.103 83.0282 217.458C83.5319 217.813 83.9605 218.264 84.2894 218.785C84.6184 219.307 84.8412 219.888 84.945 220.496C84.8378 219.889 84.8515 219.266 84.9854 218.664C85.1192 218.062 85.3706 217.492 85.725 216.988C86.0794 216.483 86.5299 216.054 87.0506 215.725C87.5712 215.395 88.1518 215.172 88.7588 215.068Z" stroke="#252B4A" stroke-linecap="round" stroke-linejoin="round"/>
<path d="M350.882 263.545C354.233 277.699 352.41 292.588 345.742 305.511C339.074 318.435 328.003 328.536 314.536 333.985" stroke="#252B4A" stroke-linecap="round" stroke-linejoin="round"/>
<path d="M236.543 181.568C238.03 178.817 239.823 175.57 239.823 175.57C240.662 173.852 240.461 160.21 241.768 157.275C242.109 156.511 248.486 149.032 251.493 145.395C254.052 142.305 256.413 141.957 250.044 152.156" stroke="#252B4A" stroke-linecap="round" stroke-linejoin="round"/>
<path d="M115.754 277.982C116.767 275.89 116.911 273.48 116.153 271.282C115.395 269.084 113.798 267.276 111.712 266.255L97.6387 259.419C95.5495 258.405 93.1438 258.261 90.949 259.02C88.7543 259.779 86.9495 261.379 85.9303 263.468L66.0985 304.266C65.0856 306.358 64.9423 308.768 65.7001 310.966C66.4579 313.164 68.0549 314.972 70.1412 315.993L84.2523 322.869C86.3415 323.883 88.7472 324.027 90.9419 323.268C93.1367 322.509 94.9415 320.909 95.9607 318.82L115.754 277.982Z" stroke="#252B4A" stroke-linecap="round" stroke-linejoin="round"/>
<path d="M281.737 40L281.317 78.3524L305.344 120.066L305.764 81.714L281.737 40Z" stroke="#252B4A" stroke-linejoin="round"/>
<path d="M291.281 95.795L278.695 108.324L275.225 150.459L305.392 120.241L291.281 95.795Z" stroke="#252B4A" stroke-linejoin="round"/>
</svg>
