<svg width="480" height="400" viewBox="0 0 480 400" fill="none" xmlns="http://www.w3.org/2000/svg">
<path d="M122.747 108.898L118 107.48" stroke="#252B4A" stroke-linecap="round" stroke-linejoin="round"/>
<path d="M128.509 105.739L129.888 101" stroke="#252B4A" stroke-linecap="round" stroke-linejoin="round"/>
<path d="M124.492 119.35L125.911 114.651" stroke="#252B4A" stroke-linecap="round" stroke-linejoin="round"/>
<path d="M131.674 111.49L136.381 112.867" stroke="#252B4A" stroke-linecap="round" stroke-linejoin="round"/>
<path d="M131.683 111.492C130.5 111.144 129.503 110.344 128.911 109.265C128.318 108.187 128.177 106.917 128.518 105.734C128.171 106.915 127.37 107.911 126.289 108.503C125.208 109.095 123.937 109.236 122.753 108.895C123.935 109.241 124.932 110.041 125.525 111.12C126.118 112.199 126.259 113.469 125.918 114.651C126.265 113.47 127.066 112.475 128.147 111.882C129.228 111.29 130.499 111.15 131.683 111.492Z" stroke="#252B4A" stroke-linecap="round" stroke-linejoin="round"/>
<path d="M450.201 87.5232C454.219 87.5232 457.477 84.2726 457.477 80.2616C457.477 76.2515 454.219 73 450.201 73C446.183 73 442.926 76.2515 442.926 80.2616C442.926 84.2726 446.183 87.5232 450.201 87.5232Z" fill="#F7F7FF" stroke="#252B4A" stroke-linecap="round" stroke-linejoin="round"/>
<path d="M58.2147 13.8444L47.7804 0.919922L34.8311 11.3343L45.2654 24.2588L58.2147 13.8444Z" fill="#F7F7FF" stroke="#252B4A" stroke-linecap="round" stroke-linejoin="round"/>
<path d="M150.809 286.324V196.972C150.809 192.815 154.207 194.619 160.065 194.619C160.188 194.619 160.31 194.619 160.433 194.619C169.658 194.832 176.588 203.103 175.384 212.231L165.607 286.313C165.75 295.715 150.942 297.029 150.799 286.313L150.809 286.324Z" fill="#F7F7FF" stroke="#252B4A" stroke-linecap="round" stroke-linejoin="round"/>
<path d="M308.995 286.324V196.972C308.995 192.815 305.597 194.619 299.739 194.619C299.616 194.619 299.494 194.619 299.371 194.619C290.145 194.832 283.216 203.103 284.42 212.231L294.197 286.313C294.054 295.715 308.863 297.029 309.005 286.313L308.995 286.324Z" fill="#F7F7FF" stroke="#252B4A" stroke-linecap="round" stroke-linejoin="round"/>
<path d="M293.88 214.954C304.155 213.288 311.133 203.625 309.466 193.368C307.798 183.113 298.115 176.147 287.839 177.812C277.564 179.477 270.585 189.141 272.253 199.398C273.921 209.653 283.604 216.618 293.88 214.954Z" fill="#4F56B2"/>
<path d="M276.388 184.331C278.603 189.271 282.838 192.775 287.614 193.518C292.656 194.292 298.494 192.011 301.749 187.244C302.79 185.726 303.413 184.167 303.791 182.721C307.423 186.154 309.7 191.002 309.7 196.391C309.7 206.78 301.26 215.204 290.85 215.204C280.44 215.204 272 206.78 272 196.391C272 191.797 273.643 187.601 276.388 184.331Z" fill="#4F56B2"/>
<path d="M168.342 215.204C178.753 215.204 187.192 206.781 187.192 196.39C187.192 186 178.753 177.576 168.342 177.576C157.932 177.576 149.493 186 149.493 196.39C149.493 206.781 157.932 215.204 168.342 215.204Z" fill="#4F56B2"/>
<path d="M182.814 184.331C180.599 189.271 176.364 192.775 171.588 193.518C166.546 194.292 160.709 192.011 157.453 187.244C156.412 185.726 155.789 184.167 155.411 182.721C151.779 186.154 149.503 191.002 149.503 196.391C149.503 206.78 157.943 215.204 168.352 215.204C178.762 215.204 187.202 206.78 187.202 196.391C187.202 191.797 185.559 187.601 182.814 184.331Z" fill="#4F56B2"/>
<path d="M249.62 158.773H209.573V179.939H249.62V158.773Z" fill="#F7F7FF" stroke="#252B4A" stroke-linecap="round" stroke-linejoin="round"/>
<path d="M249.619 158.773H234.311V179.939H249.619V158.773Z" fill="#F7F7FF" stroke="#252B4A" stroke-linecap="round" stroke-linejoin="round"/>
<path d="M229.596 330.419C205.102 330.419 184.61 311.85 182.252 287.516L175.639 219.147C172.996 191.828 194.509 168.176 222.013 168.176H237.189C264.692 168.176 286.207 191.828 283.562 219.147L276.949 287.516C274.593 311.85 254.099 330.419 229.606 330.419H229.596Z" fill="#F7F7FF" stroke="#252B4A" stroke-linecap="round" stroke-linejoin="round"/>
<path d="M239.026 196.391H220.176C212.369 196.391 206.041 202.707 206.041 210.498C206.041 218.29 212.369 224.606 220.176 224.606H239.026C246.832 224.606 253.16 218.29 253.16 210.498C253.16 202.707 246.832 196.391 239.026 196.391Z" fill="#4F56B2"/>
<path d="M228.382 89.783H224.065L226.045 73.4141H228.076L228.382 89.783Z" fill="#4F56B2"/>
<path d="M224.494 89.7939H229.995C254.774 89.7939 274.889 109.87 274.889 134.602C274.889 148.262 263.776 159.354 250.09 159.354H204.399C190.713 159.354 179.6 148.262 179.6 134.602C179.6 109.87 199.714 89.7939 224.494 89.7939Z" fill="#F7F7FF" stroke="#252B4A" stroke-linecap="round" stroke-linejoin="round"/>
<path d="M208.552 151.175C202.112 151.175 196.877 145.949 196.877 139.523C196.877 133.96 199.235 128.379 203.868 122.908C208.113 117.907 217.042 114.801 227.177 114.801C237.311 114.801 246.17 117.918 250.63 122.93C255.192 128.052 257.6 133.787 257.6 139.512C257.6 145.939 252.364 151.165 245.924 151.165H208.552V151.175Z" fill="#4F56B2"/>
<path d="M218.116 130.885C218.539 128.548 216.985 126.312 214.644 125.89C212.304 125.467 210.063 127.019 209.64 129.355C209.217 131.691 210.771 133.927 213.111 134.35C215.452 134.772 217.693 133.22 218.116 130.885Z" fill="white"/>
<path d="M242.067 134.277C244.366 133.668 245.736 131.315 245.126 129.02C244.517 126.726 242.158 125.358 239.86 125.967C237.56 126.575 236.191 128.929 236.8 131.223C237.41 133.518 239.767 134.885 242.067 134.277Z" fill="white"/>
<path d="M227.239 79.3328C229.922 79.3328 232.097 77.1621 232.097 74.4843C232.097 71.8065 229.922 69.6357 227.239 69.6357C224.556 69.6357 222.381 71.8065 222.381 74.4843C222.381 77.1621 224.556 79.3328 227.239 79.3328Z" fill="#4F56B2"/>
<path d="M218.443 237.079C218.834 235.437 217.817 233.789 216.172 233.399C214.527 233.009 212.876 234.023 212.485 235.665C212.094 237.307 213.11 238.955 214.756 239.345C216.401 239.735 218.051 238.72 218.443 237.079Z" fill="#4F56B2"/>
<path d="M238.959 239.334C240.614 238.984 241.669 237.362 241.318 235.71C240.966 234.06 239.341 233.006 237.688 233.356C236.033 233.707 234.977 235.33 235.328 236.98C235.68 238.631 237.305 239.685 238.959 239.334Z" fill="#4F56B2"/>
<path d="M230.219 237.082C230.61 235.439 229.593 233.793 227.948 233.402C226.303 233.012 224.652 234.026 224.262 235.668C223.87 237.31 224.887 238.958 226.533 239.347C228.177 239.738 229.828 238.723 230.219 237.082Z" fill="#4F56B2"/>
<path d="M252.122 237.06C252.511 235.418 251.491 233.772 249.846 233.384C248.2 232.997 246.551 234.014 246.162 235.656C245.775 237.298 246.794 238.944 248.439 239.332C250.085 239.72 251.734 238.703 252.122 237.06Z" fill="#4F56B2"/>
<path d="M226.381 212.067L225.289 215.368H223.891L227.463 204.887H229.096L232.678 215.368H231.229L230.106 212.067H226.381ZM229.82 211.008L228.789 207.993C228.555 207.311 228.402 206.689 228.248 206.078H228.218C228.065 206.7 227.892 207.341 227.687 207.973L226.656 211.008H229.82Z" fill="white"/>
<path d="M235.577 204.886V215.367H234.22V204.886H235.577Z" fill="white"/>
<path d="M347.438 222.399C347.285 222.338 347.142 222.256 347.02 222.134C346.897 222.022 346.806 221.879 346.734 221.737C346.662 221.584 346.632 221.421 346.632 221.258C346.632 221.095 346.663 220.932 346.724 220.779L352.296 206.468C352.419 206.162 352.653 205.918 352.949 205.785C353.245 205.653 353.592 205.643 353.898 205.755C354.205 205.877 354.449 206.112 354.582 206.407C354.714 206.702 354.725 207.049 354.613 207.354L349.041 221.666C348.989 221.818 348.908 221.971 348.796 222.093C348.684 222.216 348.551 222.318 348.398 222.388C348.244 222.46 348.081 222.501 347.918 222.501C347.755 222.501 347.592 222.47 347.438 222.409V222.399Z" fill="#4F56B2"/>
<path d="M349.061 221.676C348.958 221.901 348.806 222.084 348.601 222.216C348.397 222.348 348.162 222.42 347.917 222.43C347.672 222.43 347.437 222.369 347.234 222.236C347.029 222.104 346.866 221.921 346.764 221.707C346.631 221.411 346.611 221.075 346.713 220.77L352.285 206.458C352.408 206.153 352.643 205.908 352.938 205.775C353.234 205.643 353.582 205.633 353.887 205.745C354.194 205.867 354.438 206.102 354.571 206.397C354.704 206.692 354.715 207.039 354.592 207.344L349.051 221.676H349.061Z" stroke="#252B4A" stroke-linecap="round" stroke-linejoin="round"/>
<path d="M356.684 198.564L353.459 206.907" stroke="#252B4A" stroke-linecap="round" stroke-linejoin="round"/>
<path d="M364.726 177.886C363.196 177.295 361.552 177.04 359.909 177.163C358.266 177.285 356.674 177.764 355.246 178.569C353.817 179.373 352.581 180.483 351.632 181.828C350.683 183.173 350.04 184.7 349.765 186.32C349.397 188.388 349.632 190.516 350.438 192.462C351.234 194.408 352.581 196.079 354.296 197.291C356.01 198.503 358.042 199.205 360.144 199.307C362.247 199.419 364.338 198.92 366.165 197.891C368.002 196.862 369.503 195.325 370.502 193.481C371.503 191.627 371.952 189.539 371.799 187.44C371.646 185.342 370.9 183.336 369.656 181.645C368.4 179.954 366.696 178.65 364.736 177.897L364.726 177.886Z" stroke="#252B4A" stroke-linecap="round" stroke-linejoin="round"/>
<path d="M85.1057 209.079C89.0517 209.079 92.2495 205.887 92.2495 201.948C92.2495 198.011 89.0517 194.818 85.1057 194.818C81.1607 194.818 77.9619 198.011 77.9619 201.948C77.9619 205.887 81.1607 209.079 85.1057 209.079Z" fill="#F7F7FF" stroke="#252B4A" stroke-linecap="round" stroke-linejoin="round"/>
<path d="M473.328 361H457V377.297H473.328V361Z" fill="#F7F7FF" stroke="#252B4A" stroke-linecap="round" stroke-linejoin="round"/>
<path d="M309.506 335.944C313.452 335.944 316.65 332.751 316.65 328.814C316.65 324.875 313.452 321.684 309.506 321.684C305.561 321.684 302.362 324.875 302.362 328.814C302.362 332.751 305.561 335.944 309.506 335.944Z" fill="#F7F7FF" stroke="#252B4A" stroke-linecap="round" stroke-linejoin="round"/>
<path d="M232.498 15C126.186 15 40 101.021 40 207.129C40 313.237 126.186 399.258 232.498 399.258C338.81 399.258 424.996 313.237 424.996 207.129C424.996 101.021 338.82 15 232.498 15ZM232.498 35.2396C285.72 35.2396 333.288 59.3399 364.885 97.1913L90.5484 304.467C71.4639 276.791 60.2785 243.27 60.2785 207.129C60.2785 112.206 137.392 35.2396 232.498 35.2396ZM232.498 379.018C181.297 379.018 135.31 356.701 103.765 321.294L377.561 114.447C394.747 141.195 404.717 172.995 404.717 207.14C404.717 302.073 327.614 379.029 232.498 379.029V379.018Z" fill="#FFEBE3" stroke="#252B4A" stroke-linecap="round" stroke-linejoin="round"/>
<path d="M23.4458 322.539L10.6436 355.439" stroke="#252B4A" stroke-linecap="round" stroke-linejoin="round"/>
<path d="M33.9069 344.862L0.920898 332.115" stroke="#252B4A" stroke-linecap="round" stroke-linejoin="round"/>
</svg>
