<svg width="360" height="301" viewBox="0 0 360 301" fill="none" xmlns="http://www.w3.org/2000/svg">
<mask id="mask0_3773_64267" style="mask-type:luminance" maskUnits="userSpaceOnUse" x="78" y="-22" width="204" height="323">
<path d="M281.893 -21.875H78.75V300.02H281.893V-21.875Z" fill="white"/>
</mask>
<g mask="url(#mask0_3773_64267)">
<path d="M199.758 295.692H228.541C228.541 295.692 219.987 291.008 215.634 290.039C210.982 291.059 206.061 291.059 201.409 290.039C200.586 291.875 200.032 293.768 199.758 295.699V295.692Z" fill="#4F56B2"/>
<path d="M201.369 290.321L205.831 282.035" stroke="#252B4A" stroke-width="0.637352" stroke-linecap="round" stroke-linejoin="round"/>
<path d="M214.602 286.848L215.653 290.041" stroke="#252B4A" stroke-width="0.637352" stroke-linecap="round" stroke-linejoin="round"/>
<path d="M199.758 295.693H228.541" stroke="#252B4A" stroke-width="0.637352" stroke-linecap="round" stroke-linejoin="round"/>
<path d="M199.68 298.172C210.375 298.172 218.928 298.274 232.535 298.281C230.26 296.528 222.051 291.474 215.633 290.033C210.987 291.053 206.06 291.053 201.407 290.033C200.171 292.64 199.584 295.4 199.68 298.172Z" stroke="#252B4A" stroke-width="0.637352" stroke-linecap="round" stroke-linejoin="round"/>
<path d="M163.626 291.454C158.98 292.48 154.053 292.48 149.401 291.454C145.047 292.429 136.494 297.113 136.494 297.113H165.277C165.003 295.176 164.448 293.283 163.626 291.447V291.454Z" fill="#4F56B2"/>
<path d="M159.203 283.455L163.665 291.741" stroke="#252B4A" stroke-width="0.637352" stroke-linecap="round" stroke-linejoin="round"/>
<path d="M149.381 291.455L150.432 288.262" stroke="#252B4A" stroke-width="0.637352" stroke-linecap="round" stroke-linejoin="round"/>
<path d="M136.494 297.121H165.277" stroke="#252B4A" stroke-width="0.637352" stroke-linecap="round" stroke-linejoin="round"/>
<path d="M163.624 291.453C158.978 292.479 154.051 292.479 149.399 291.453C142.981 292.887 134.771 297.948 132.496 299.7C146.104 299.7 154.657 299.598 165.352 299.592C165.447 296.82 164.861 294.06 163.624 291.453Z" stroke="#252B4A" stroke-width="0.637352" stroke-linecap="round" stroke-linejoin="round"/>
<path d="M190.321 3.02999C203.418 1.00958 215.024 0.372233 226.688 1.97199C232.277 2.74318 237.727 4.02426 242.908 6.2996C246.044 7.67629 248.989 9.37165 251.557 11.6661C257.663 17.1346 259.486 23.8013 257.026 31.6089C255.668 35.9046 253.272 39.6204 250.416 43.0557C245.133 49.3973 238.702 54.3687 231.729 58.6963C222.596 64.3624 212.832 68.6517 202.634 71.985C193.514 74.9678 184.202 77.1157 174.686 78.2884C162.449 79.799 150.231 79.9455 138.115 77.1603C133.405 76.0768 128.848 74.5408 124.699 72.0233C122.908 70.9398 121.155 69.7097 119.613 68.2948C113.94 63.0813 112.219 56.695 114.393 49.2954C115.362 45.9939 116.98 43.0047 118.956 40.2067C122.385 35.3437 126.624 31.2838 131.289 27.6318C139.734 21.0288 149.103 16.0511 158.995 12.0167C166.203 9.07846 173.596 6.67564 181.206 4.97391C184.737 4.1836 188.287 3.45702 190.327 3.02362L190.321 3.02999ZM177.452 52.2782C177.733 54.6746 178.778 56.6886 180.142 58.5178C181.27 60.0284 183.055 60.4172 184.635 59.6906C186.031 59.0532 186.892 57.3133 186.535 55.6179C186.369 54.8403 186.082 54.0564 185.674 53.3744C184.527 51.4496 184.546 49.5376 185.324 47.4853C186.229 45.0825 187.605 42.9537 189.052 40.8823C190.901 38.2373 192.328 35.4202 193.163 32.3163C194.17 28.5814 194.228 24.8593 192.602 21.2519C189.677 14.7445 182.742 11.8573 176.095 12.8835C174.151 13.183 172.245 13.8968 170.384 14.5852C166.745 15.9236 163.87 18.3647 161.359 21.2391C160.696 21.9976 160.206 22.9409 159.811 23.8778C159.116 25.5221 159.798 27.4342 161.296 28.4221C162.71 29.3526 164.387 29.1869 165.732 27.9058C166.197 27.4661 166.547 26.9052 166.93 26.3826C168.268 24.5725 169.868 23.0556 171.92 22.1123C173.138 21.5514 174.463 21.2455 175.706 20.742C178.185 19.7414 180.563 20.06 182.87 21.2328C185.158 22.3927 186.242 24.4386 186.375 26.8606C186.484 28.8427 186.165 30.8568 185.152 32.6541C184.145 34.4323 183.176 36.2424 182.041 37.9441C180.575 40.1557 179.231 42.4247 178.306 44.9104C177.414 47.3132 176.904 49.7861 177.452 52.2909V52.2782ZM191.079 65.3502C190.779 63.4063 188.95 62.0488 187.013 62.3483C185.215 62.6224 183.794 64.5153 184.03 66.3317C184.285 68.3203 186.184 69.6842 188.236 69.3591C190.117 69.0596 191.372 67.2941 191.079 65.3566V65.3502Z" fill="#F7F7FF" stroke="#252B4A" stroke-width="0.637352" stroke-linecap="round" stroke-linejoin="round"/>
<path d="M242.596 79.7731C242.711 81.1052 242.431 82.4372 241.781 83.6036C241.137 84.7763 240.155 85.726 238.97 86.3442C237.784 86.9624 236.44 87.211 235.108 87.0644C233.776 86.9178 232.52 86.3824 231.494 85.522C230.468 84.6616 229.722 83.5207 229.346 82.2397C228.97 80.9586 228.989 79.5946 229.391 78.3199C229.792 77.0452 230.563 75.9235 231.609 75.0886C232.654 74.2536 233.922 73.7438 235.254 73.629C237.045 73.4761 238.817 74.0433 240.194 75.1905C241.57 76.3442 242.431 77.9885 242.59 79.7731H242.596Z" stroke="#252B4A" stroke-width="0.637352" stroke-linecap="round" stroke-linejoin="round"/>
<path d="M238.726 122.205C238.784 122.899 238.637 123.594 238.299 124.206C237.961 124.818 237.452 125.315 236.833 125.634C236.215 125.952 235.508 126.086 234.813 126.01C234.118 125.933 233.462 125.653 232.926 125.207C232.391 124.76 232.002 124.161 231.805 123.492C231.607 122.823 231.62 122.109 231.83 121.446C232.04 120.783 232.442 120.197 232.99 119.757C233.538 119.317 234.201 119.056 234.896 118.992C235.833 118.916 236.757 119.209 237.477 119.808C238.197 120.407 238.643 121.268 238.726 122.198V122.205Z" stroke="#252B4A" stroke-width="0.637352" stroke-linecap="round" stroke-linejoin="round"/>
<path d="M119.426 289.236C118.068 292.569 116.315 295.839 115.022 299.191C113.428 299.172 113.039 299.791 112.453 299.045C112.581 297.432 112.995 295.82 113.186 294.214C113.212 294.023 113.161 293.819 113.186 293.627C113.881 288.267 114.926 282.805 116.303 277.521C118.686 277.568 121.07 277.617 123.454 277.668C122.504 281.601 120.968 285.437 119.419 289.236H119.426Z" fill="#4F56B2"/>
<path d="M250.025 289.822C250.458 293.035 250.745 296.272 251.128 299.485C250.261 299.357 249.407 299.306 248.559 299.191C247.208 295.782 245.793 292.372 244.525 288.943C243.142 285.208 241.542 281.55 240.854 277.668C243.237 277.622 245.621 277.572 248.005 277.521C248.942 281.581 249.471 285.718 250.025 289.822Z" fill="#4F56B2"/>
<path d="M239.018 288.945C238.98 289.13 239.056 289.34 239.018 289.531C236.564 302.151 234.257 278.486 234.984 277.67C235.2 277.428 239.904 277.428 240.121 277.67C240.529 278.129 239.267 287.625 239.018 288.945Z" fill="#4F56B2"/>
<path d="M118.871 163.812L180.318 164.361C180.127 165.546 180.656 169.389 180.133 170.046C178.775 171.773 160.35 171.097 153.536 182.704C152.102 185.145 143.893 208.657 143.632 210.951C142.568 220.288 148.775 223.424 148.399 224.527C133.836 231.034 139.387 240.454 138.31 241.219H120.7C116.328 227.854 117.341 215.094 103.275 207.65C104.894 190.479 96.5316 168.127 118.864 163.812H118.871Z" fill="#F7F7FF" stroke="#252B4A" stroke-width="0.637352" stroke-linecap="round" stroke-linejoin="round"/>
<path d="M192.241 163.813C205.307 164.584 236.92 162.787 246.168 163.813C270.757 166.534 262.019 193.768 263.593 210.588C254.861 219.365 254.09 232.258 252.038 243.788C245.607 239.62 221.859 246.407 223.758 243.724C228.494 237.019 226.869 230.442 219.934 226.516C224.249 223.138 230.202 217.599 229.482 211.691C229.227 209.619 217.538 180.951 209.488 175.553C199.08 168.58 188.29 174.603 192.248 163.813H192.241Z" fill="#F7F7FF" stroke="#252B4A" stroke-width="0.637352" stroke-linecap="round" stroke-linejoin="round"/>
<path d="M108.603 246.355C111.522 245.73 132.574 246.82 139.049 246.355C140.09 252.163 141.129 257.972 142.166 263.78C133.211 263.194 115.04 267.439 108.782 260.109C106.334 257.241 103.345 247.477 108.597 246.355H108.603Z" fill="#F7F7FF" stroke="#252B4A" stroke-width="0.637352" stroke-linecap="round" stroke-linejoin="round"/>
<path d="M227.462 246.72C232.261 247.096 251.873 246.223 253.511 246.72C257.239 247.861 255.531 258.645 250.209 262.131C245.257 265.375 229.011 263.903 222.325 264.33C220.827 263.623 226.544 248.849 227.462 246.72Z" fill="#F7F7FF" stroke="#252B4A" stroke-width="0.637352" stroke-linecap="round" stroke-linejoin="round"/>
<path d="M124.377 277.522C124.581 277.407 129.138 277.49 129.329 277.668C128.297 279.854 129.342 292.92 126.576 293.041C124.74 293.124 123.555 277.987 124.377 277.522Z" fill="#4F56B2"/>
<path d="M254.793 263.967L254.06 259.562C247.539 269.582 231.414 264.617 221.223 265.802C220.771 267.402 217.354 275.891 218.655 276.44C225.474 275.949 240.962 277.096 245.436 276.44C246.819 276.236 250.975 274.247 252.587 273.508C251.395 273.571 253.951 266.083 254.786 263.967H254.793Z" fill="#F7F7FF" stroke="#252B4A" stroke-width="0.637352" stroke-linecap="round" stroke-linejoin="round"/>
<path d="M281.211 210.218C280.369 205.578 277.234 205.986 273.875 206.732C272.951 206.936 272.53 207.146 271.676 207.465C270.248 213.182 267.482 218.517 265.806 224.157C264.926 227.121 259.751 247.357 259.203 250.021C258.954 251.213 258.483 252.513 259.203 253.692C258.33 255.872 257.909 258.313 257.004 260.48C256.52 261.64 255.066 263.291 254.805 263.966C253.97 266.082 251.414 273.571 252.606 273.507C272.523 264.368 283.805 224.489 281.223 210.225L281.211 210.218Z" fill="#F7F7FF" stroke="#252B4A" stroke-width="0.637352" stroke-linecap="round" stroke-linejoin="round"/>
<path d="M259.196 250.02C259.751 247.356 264.92 227.12 265.799 224.156C267.476 218.516 270.242 213.181 271.669 207.464C264.582 210.128 260.407 214.921 257.731 221.957C256.558 225.042 252.893 241.556 253.326 243.971C253.556 245.24 256.386 246.056 256.628 250.759C257.852 250.727 258.502 251.11 259.196 250.026V250.02Z" fill="#F7F7FF" stroke="#252B4A" stroke-width="0.637352" stroke-linecap="round" stroke-linejoin="round"/>
<path d="M256.997 260.478C257.902 258.311 258.329 255.87 259.196 253.691C258.475 252.518 258.947 251.211 259.196 250.02C258.501 251.103 257.851 250.721 256.627 250.752C256.786 253.831 255.735 256.979 254.059 259.554L254.792 263.958C255.059 263.289 256.506 261.632 256.99 260.472L256.997 260.478Z" fill="#F7F7FF" stroke="#252B4A" stroke-width="0.637352" stroke-linecap="round" stroke-linejoin="round"/>
<path d="M106.952 259.377C105.391 256.827 104.199 251.977 104.753 249.102C105.422 245.623 107.672 247.828 107.322 242.315C105.856 244.01 102.21 250.084 101.082 250.753C100.164 251.301 99.2466 251.83 98.1503 251.301C96.5187 244.992 89.0681 219.421 89.7118 214.985C90.0559 212.62 91.2924 211.881 93.3829 211.499C94.1414 211.359 94.8042 211.206 95.5818 211.129C90.1069 206.017 79.119 201.231 79.0744 213.149C79.0234 226.821 91.0693 255.527 100.349 265.98C107.118 273.596 109.4 272.353 117.041 276.432H144.186C144.945 275.897 142.861 267.006 142.351 265.795C131.93 264.475 113.389 269.874 106.946 259.377H106.952Z" fill="#F7F7FF" stroke="#252B4A" stroke-width="0.637352" stroke-linecap="round" stroke-linejoin="round"/>
<path d="M98.5137 212.601C104.288 219.842 107.226 234.756 108.418 243.965C111.7 243.341 115.117 240.976 118.871 241.582C117.271 230.951 115.818 217.056 105.85 210.766C105.263 212.792 98.6029 209.816 98.5137 212.601Z" fill="#F7F7FF" stroke="#252B4A" stroke-width="0.637352" stroke-linecap="round" stroke-linejoin="round"/>
<path d="M98.5138 212.601C98.6031 209.823 105.263 212.793 105.85 210.766C101.49 208.013 97.6916 207.018 92.459 206.731C94.2563 209 96.6719 210.294 98.5138 212.601Z" fill="#F7F7FF" stroke="#252B4A" stroke-width="0.637352" stroke-linecap="round" stroke-linejoin="round"/>
<path d="M89.7061 214.985C89.056 219.421 96.513 244.991 98.1446 251.301C99.2472 251.83 100.159 251.301 101.076 250.753C102.205 250.084 105.85 244.01 107.316 242.315C106.742 233.302 102.307 217.413 95.5761 211.129C94.7985 211.205 94.1293 211.358 93.3772 211.499C91.2867 211.881 90.0566 212.614 89.7061 214.985Z" fill="#F7F7FF" stroke="#252B4A" stroke-width="0.637352" stroke-linecap="round" stroke-linejoin="round"/>
<path d="M214.556 146.948C215.843 146.476 216.94 145.584 217.66 144.411C218.38 143.239 218.699 141.868 218.546 140.498C218.399 139.134 217.8 137.853 216.838 136.871C215.882 135.89 214.62 135.253 213.262 135.074C214.256 134.163 214.919 132.952 215.155 131.626C215.391 130.3 215.181 128.93 214.562 127.732C213.944 126.534 212.943 125.578 211.726 125.01C210.509 124.443 209.132 124.29 207.819 124.583C211.159 119.204 204.18 112.658 198.705 116.801C199.017 115.348 198.807 113.831 198.119 112.518C197.43 111.205 196.302 110.173 194.932 109.605C193.562 109.038 192.032 108.968 190.617 109.408C189.202 109.848 187.985 110.778 187.175 112.021C186.302 105.31 176.723 104.8 175.225 111.097C174.505 109.95 173.428 109.076 172.159 108.605C170.891 108.14 169.502 108.108 168.214 108.516C166.927 108.924 165.805 109.746 165.034 110.861C164.263 111.97 163.88 113.308 163.95 114.66C162.867 113.825 161.528 113.385 160.164 113.398C158.794 113.41 157.468 113.888 156.404 114.743C155.333 115.603 154.581 116.788 154.269 118.127C153.957 119.459 154.097 120.861 154.67 122.104C153.313 121.613 151.821 121.62 150.464 122.123C149.106 122.627 147.972 123.595 147.258 124.857C146.544 126.119 146.302 127.592 146.57 129.013C146.837 130.434 147.596 131.715 148.718 132.633C147.277 132.493 145.837 132.869 144.651 133.691C143.466 134.513 142.605 135.731 142.229 137.133C141.853 138.528 141.981 140.014 142.599 141.326C143.211 142.639 144.269 143.685 145.582 144.29C139.425 146.534 140.923 155.68 146.933 156.094C145.945 157.018 145.289 158.235 145.059 159.567C144.83 160.9 145.053 162.27 145.677 163.462C146.302 164.66 147.309 165.61 148.533 166.177C149.756 166.744 151.133 166.891 152.452 166.597C149.087 172.028 156.321 178.522 161.586 174.303C161.254 175.718 161.439 177.203 162.102 178.497C162.765 179.791 163.867 180.798 165.206 181.352C166.544 181.907 168.042 181.964 169.419 181.518C170.802 181.072 171.975 180.148 172.739 178.911C172.848 179.899 173.198 180.842 173.759 181.664C174.32 182.487 175.072 183.156 175.945 183.615C176.818 184.074 177.8 184.316 178.788 184.316C179.782 184.316 180.757 184.067 181.63 183.602C181.101 177.356 180.942 171.078 181.152 164.807C181.293 148.089 180.795 154.099 180.713 146.731C176.009 144.488 178.941 138.987 181.962 141.658C183.402 142.958 184.014 142.977 184.269 141.913C186.818 133.283 193.989 132.117 196.774 141.887C198.947 149.516 198.565 162.327 191.274 162.423C190.509 162.455 189.744 162.372 189.005 162.174C188.571 163.997 191.242 170.67 191.783 171.811C194.237 171.983 196.64 172.627 198.852 173.698L205.13 173.315C205.486 172.665 205.69 171.945 205.71 171.206C205.735 170.466 205.582 169.733 205.263 169.064C206.621 169.561 208.106 169.568 209.464 169.07C210.821 168.573 211.962 167.611 212.676 166.355C213.396 165.1 213.645 163.627 213.383 162.206C213.122 160.785 212.364 159.497 211.248 158.586C212.682 158.733 214.129 158.376 215.327 157.56C216.525 156.75 217.392 155.539 217.787 154.15C218.183 152.761 218.074 151.269 217.481 149.956C216.889 148.643 215.85 147.573 214.55 146.942L214.556 146.948Z" fill="#4F56B2"/>
<path d="M157.208 276.687C160.981 277.184 203.48 276.438 203.48 276.438H214.436L221.224 265.801H150.49L150.783 276.859L157.202 276.687H157.208Z" fill="#F7F7FF" stroke="#252B4A" stroke-width="0.637352" stroke-linecap="round" stroke-linejoin="round"/>
<path d="M211.319 246.559L150.496 250.019V265.794L213.282 263.965L211.319 246.559Z" fill="#F7F7FF" stroke="#252B4A" stroke-width="0.637352" stroke-linecap="round" stroke-linejoin="round"/>
<path d="M225.398 231.193L222.511 224.156L193.805 232.882L148.553 224.596C124.429 236.502 146.163 270.81 149.974 288.535H161.166C161.166 288.535 160.885 259.771 161.873 252.824C162.817 246.158 182.339 244.354 182.339 244.354C212.536 240.409 201.612 273.691 203.441 287.076H214.633C217.559 273.608 232.951 244.908 225.411 231.193H225.398Z" fill="#F7F7FF" stroke="#252B4A" stroke-width="0.637352" stroke-linecap="round" stroke-linejoin="round"/>
<path d="M201.452 226.508C192.988 220.747 149.967 219.969 166.398 200.377" stroke="#252B4A" stroke-width="0.637352" stroke-linecap="round" stroke-linejoin="round"/>
<path d="M184.881 221.41C195.378 216.808 221.121 218.401 210.375 200.377" stroke="#252B4A" stroke-width="0.637352" stroke-linecap="round" stroke-linejoin="round"/>
<path d="M187.137 184.061C187.156 184.22 187.137 184.386 187.092 184.545C187.048 184.698 186.971 184.845 186.863 184.972C186.761 185.1 186.633 185.202 186.487 185.278C186.346 185.355 186.187 185.399 186.021 185.418C185.862 185.431 185.696 185.418 185.543 185.367C185.39 185.317 185.244 185.24 185.123 185.138C185.002 185.036 184.9 184.902 184.823 184.762C184.747 184.615 184.702 184.456 184.689 184.297C184.664 183.978 184.766 183.659 184.976 183.411C185.187 183.162 185.48 183.009 185.798 182.977C186.117 182.946 186.442 183.048 186.691 183.251C186.939 183.455 187.099 183.749 187.137 184.067V184.061Z" fill="#4F56B2"/>
<path d="M187.06 192.32C187.073 192.48 187.06 192.645 187.009 192.798C186.964 192.951 186.882 193.098 186.78 193.219C186.678 193.34 186.55 193.448 186.41 193.519C186.27 193.595 186.11 193.64 185.951 193.652C185.792 193.665 185.626 193.652 185.473 193.601C185.32 193.557 185.174 193.474 185.052 193.372C184.931 193.27 184.829 193.143 184.753 193.002C184.676 192.862 184.632 192.703 184.619 192.543C184.587 192.218 184.689 191.9 184.899 191.645C185.11 191.396 185.403 191.237 185.728 191.205C186.053 191.173 186.372 191.275 186.627 191.485C186.875 191.696 187.035 191.989 187.066 192.314L187.06 192.32Z" fill="#4F56B2"/>
<path d="M187.06 200.919C187.073 201.078 187.06 201.238 187.009 201.397C186.964 201.55 186.882 201.697 186.78 201.818C186.678 201.939 186.55 202.047 186.41 202.117C186.27 202.194 186.11 202.238 185.951 202.251C185.792 202.264 185.626 202.251 185.473 202.2C185.32 202.155 185.174 202.073 185.052 201.971C184.931 201.869 184.829 201.741 184.753 201.601C184.676 201.461 184.632 201.301 184.619 201.142C184.587 200.817 184.689 200.498 184.899 200.243C185.11 199.995 185.403 199.835 185.728 199.804C186.053 199.772 186.372 199.874 186.627 200.084C186.875 200.294 187.035 200.594 187.066 200.919H187.06Z" fill="#4F56B2"/>
<path d="M246.159 103.641C246.242 104.578 246.038 105.522 245.585 106.35C245.127 107.179 244.438 107.848 243.597 108.288C242.756 108.721 241.806 108.9 240.863 108.798C239.919 108.696 239.033 108.313 238.307 107.708C237.58 107.102 237.051 106.293 236.79 105.388C236.522 104.483 236.535 103.52 236.822 102.615C237.109 101.717 237.65 100.92 238.39 100.327C239.129 99.7345 240.028 99.3776 240.971 99.2947C242.233 99.1864 243.489 99.5879 244.464 100.397C245.432 101.213 246.044 102.373 246.159 103.635V103.641Z" stroke="#252B4A" stroke-width="0.637352" stroke-linecap="round" stroke-linejoin="round"/>
<path d="M206.5 226.923C209.011 226.183 211.388 225.049 213.536 223.557C214.773 222.672 215.984 223.557 211.796 227.356" stroke="#252B4A" stroke-width="0.637352" stroke-linecap="round" stroke-linejoin="round"/>
<path d="M216.8 233.06C223.396 237.196 223.173 235.666 221.178 234.003C218.827 232.053 213.995 227.916 213.498 227.693C211.599 226.846 202.765 226.96 201.656 226.412C201.656 226.412 195.589 233.844 193.811 232.875L193.83 233.136L198.004 234.602C201.937 235.89 202.899 236.189 205.347 235.501C207.278 234.959 208.189 234.424 208.909 235.628C212.81 242.187 214.607 242.352 214.168 241.071C213.224 238.331 212.867 236.622 212.396 234.8L212.765 236.259C218.291 242.167 219.961 241.301 219.088 240.166C217.227 237.757 215.117 235.176 213.785 233.168L214.792 234.596C221.535 240.332 224.448 239.873 223.365 238.904C221.013 236.801 216.647 233.092 215.066 231.339" fill="white"/>
<path d="M216.8 233.06C223.396 237.196 223.173 235.666 221.178 234.003C218.827 232.053 213.995 227.916 213.498 227.693C211.599 226.846 202.765 226.96 201.656 226.412C201.656 226.412 195.589 233.844 193.811 232.875L193.83 233.136L198.004 234.602C201.937 235.89 202.899 236.189 205.347 235.501C207.278 234.959 208.189 234.424 208.909 235.628C212.81 242.187 214.607 242.352 214.168 241.071C213.224 238.331 212.867 236.622 212.396 234.8L212.765 236.259C218.291 242.167 219.961 241.301 219.088 240.166C217.227 237.757 215.117 235.176 213.785 233.168L214.792 234.596C221.535 240.332 224.448 239.873 223.365 238.904C221.013 236.801 216.647 233.092 215.066 231.339" stroke="#252B4A" stroke-width="0.637352" stroke-linecap="round" stroke-linejoin="round"/>
<path d="M170.344 234.495C163.684 240.326 160.765 239.912 161.835 238.931C164.155 236.795 168.464 233.022 170.019 231.244" stroke="#252B4A" stroke-width="0.637352" stroke-linecap="round" stroke-linejoin="round"/>
<path d="M172.396 236.119C166.953 242.104 165.276 241.262 166.131 240.121C167.953 237.687 170.031 235.074 171.331 233.047" stroke="#252B4A" stroke-width="0.637352" stroke-linecap="round" stroke-linejoin="round"/>
<path d="M172.746 234.654C172.306 236.49 171.969 238.198 171.07 240.951C170.649 242.245 172.44 242.054 176.252 235.438C176.953 234.221 178.489 229.823 180.426 230.333" stroke="#252B4A" stroke-width="0.637352" stroke-linecap="round" stroke-linejoin="round"/>
<path d="M168.318 232.972C161.785 237.204 161.982 235.668 163.958 233.979C166.278 231.996 169.739 228.65 170.23 228.421" stroke="#252B4A" stroke-width="0.637352" stroke-linecap="round" stroke-linejoin="round"/>
</g>
</svg>
