<svg width="605" height="368" viewBox="0 0 605 368" fill="none" xmlns="http://www.w3.org/2000/svg">
<rect width="605" height="368" rx="12" fill="#F7F7FF"/>
<rect x="40.5" y="40.5" width="524" height="53" rx="7.5" fill="white"/>
<rect x="40.5" y="40.5" width="524" height="53" rx="7.5" stroke="#CCCFD3"/>
<path d="M64.8311 61.8643C66.3971 61.8643 67.5399 62.1714 68.2593 62.7856C68.9842 63.3944 69.3467 64.2687 69.3467 65.4087C69.3467 65.9233 69.2609 66.4131 69.0894 66.8779C68.9233 67.3372 68.6522 67.744 68.2759 68.0981C67.8996 68.4468 67.4043 68.7235 66.79 68.9282C66.1813 69.1274 65.4342 69.2271 64.5488 69.2271H63.0713V74H61.6602V61.8643H64.8311ZM64.6982 63.0679H63.0713V68.0151H64.3911C65.1659 68.0151 65.8105 67.9321 66.3252 67.7661C66.8454 67.6001 67.2355 67.3317 67.4956 66.9609C67.7557 66.5846 67.8857 66.0866 67.8857 65.4668C67.8857 64.6589 67.6284 64.0584 67.1138 63.6655C66.5991 63.2671 65.7939 63.0679 64.6982 63.0679ZM75.813 64.7363C75.9956 64.7363 76.1865 64.7474 76.3857 64.7695C76.585 64.7861 76.762 64.811 76.917 64.8442L76.7427 66.1226C76.5933 66.0838 76.4272 66.0534 76.2446 66.0312C76.062 66.0091 75.8905 65.998 75.73 65.998C75.3647 65.998 75.0189 66.0728 74.6924 66.2222C74.3714 66.366 74.0892 66.5763 73.8457 66.853C73.6022 67.1242 73.4113 67.4535 73.2729 67.8408C73.1346 68.2227 73.0654 68.6488 73.0654 69.1191V74H71.6792V64.9023H72.8247L72.9741 66.5791H73.0322C73.2204 66.2415 73.4473 65.9344 73.7129 65.6577C73.9785 65.3755 74.2856 65.1514 74.6343 64.9854C74.9884 64.8193 75.3813 64.7363 75.813 64.7363ZM86.4795 69.4346C86.4795 70.1816 86.3826 70.8485 86.189 71.4351C85.9953 72.0216 85.7158 72.5169 85.3506 72.9209C84.9854 73.3249 84.5426 73.6348 84.0225 73.8506C83.5078 74.0609 82.924 74.166 82.271 74.166C81.6623 74.166 81.1034 74.0609 80.5942 73.8506C80.0907 73.6348 79.6535 73.3249 79.2827 72.9209C78.9175 72.5169 78.6325 72.0216 78.4277 71.4351C78.2285 70.8485 78.1289 70.1816 78.1289 69.4346C78.1289 68.4385 78.2977 67.5918 78.6353 66.8945C78.9728 66.1917 79.4543 65.6577 80.0796 65.2925C80.7104 64.9217 81.4603 64.7363 82.3291 64.7363C83.1592 64.7363 83.8841 64.9217 84.5039 65.2925C85.1292 65.6632 85.6134 66.2 85.9565 66.9028C86.3052 67.6001 86.4795 68.444 86.4795 69.4346ZM79.5566 69.4346C79.5566 70.165 79.6535 70.7987 79.8472 71.3354C80.0409 71.8722 80.3397 72.2873 80.7437 72.5806C81.1476 72.8739 81.6678 73.0205 82.3042 73.0205C82.9351 73.0205 83.4525 72.8739 83.8564 72.5806C84.266 72.2873 84.5675 71.8722 84.7612 71.3354C84.9549 70.7987 85.0518 70.165 85.0518 69.4346C85.0518 68.7096 84.9549 68.0843 84.7612 67.5586C84.5675 67.0273 84.2687 66.6178 83.8647 66.3301C83.4608 66.0423 82.9378 65.8984 82.2959 65.8984C81.3496 65.8984 80.6551 66.2111 80.2124 66.8364C79.7752 67.4618 79.5566 68.3278 79.5566 69.4346ZM87.7661 78.084C87.4839 78.084 87.2376 78.0618 87.0273 78.0176C86.8171 77.9788 86.6344 77.9318 86.4795 77.8765V76.7559C86.651 76.8112 86.8254 76.8527 87.0024 76.8804C87.1795 76.9136 87.3787 76.9302 87.6001 76.9302C87.9764 76.9302 88.2808 76.825 88.5132 76.6147C88.7456 76.4045 88.8618 76.0226 88.8618 75.4692V64.9023H90.2397V75.436C90.2397 75.9894 90.1512 76.4626 89.9741 76.8555C89.797 77.2539 89.5259 77.5583 89.1606 77.7686C88.7954 77.9788 88.3306 78.084 87.7661 78.084ZM88.7373 62.4038C88.7373 62.0939 88.8148 61.867 88.9697 61.7231C89.1302 61.5737 89.3294 61.499 89.5674 61.499C89.7943 61.499 89.988 61.5737 90.1484 61.7231C90.3145 61.867 90.3975 62.0939 90.3975 62.4038C90.3975 62.7082 90.3145 62.9351 90.1484 63.0845C89.988 63.2339 89.7943 63.3086 89.5674 63.3086C89.3294 63.3086 89.1302 63.2339 88.9697 63.0845C88.8148 62.9351 88.7373 62.7082 88.7373 62.4038ZM96.6646 64.7363C97.4393 64.7363 98.1034 64.9079 98.6567 65.251C99.2101 65.5941 99.6335 66.0755 99.9268 66.6953C100.22 67.3096 100.367 68.029 100.367 68.8535V69.7085H94.083C94.0996 70.7765 94.3652 71.59 94.8799 72.1489C95.3945 72.7078 96.1195 72.9873 97.0547 72.9873C97.6302 72.9873 98.1393 72.9347 98.582 72.8296C99.0247 72.7244 99.484 72.5695 99.96 72.3647V73.5767C99.5007 73.7814 99.0441 73.9308 98.5903 74.0249C98.1421 74.119 97.6108 74.166 96.9966 74.166C96.1222 74.166 95.3586 73.9889 94.7056 73.6348C94.0581 73.2751 93.5545 72.7493 93.1948 72.0576C92.8351 71.3659 92.6553 70.5192 92.6553 69.5176C92.6553 68.5381 92.8185 67.6914 93.145 66.9775C93.4771 66.2581 93.9419 65.7048 94.5396 65.3174C95.1427 64.93 95.8511 64.7363 96.6646 64.7363ZM96.6479 65.8652C95.9119 65.8652 95.3254 66.106 94.8882 66.5874C94.451 67.0688 94.1909 67.7412 94.1079 68.6045H98.9224C98.9168 68.0622 98.8311 67.5863 98.665 67.1768C98.5046 66.7617 98.2583 66.4408 97.9263 66.2139C97.5942 65.9814 97.1681 65.8652 96.6479 65.8652ZM106.352 74.166C105.533 74.166 104.81 73.9972 104.185 73.6597C103.56 73.3221 103.073 72.8075 102.724 72.1157C102.375 71.424 102.201 70.5524 102.201 69.501C102.201 68.3997 102.384 67.5005 102.749 66.8032C103.12 66.1004 103.629 65.5802 104.276 65.2427C104.924 64.9051 105.66 64.7363 106.484 64.7363C106.938 64.7363 107.375 64.7834 107.796 64.8774C108.222 64.966 108.571 65.0794 108.842 65.2178L108.427 66.3716C108.15 66.2609 107.829 66.1613 107.464 66.0728C107.104 65.9842 106.767 65.9399 106.451 65.9399C105.82 65.9399 105.295 66.0755 104.874 66.3467C104.459 66.6178 104.146 67.0163 103.936 67.542C103.731 68.0677 103.629 68.7152 103.629 69.4844C103.629 70.2204 103.729 70.8485 103.928 71.3687C104.132 71.8888 104.434 72.2873 104.833 72.564C105.236 72.8351 105.74 72.9707 106.343 72.9707C106.825 72.9707 107.259 72.9209 107.646 72.8213C108.034 72.7161 108.385 72.5944 108.701 72.4561V73.6846C108.396 73.8395 108.056 73.9585 107.68 74.0415C107.309 74.1245 106.866 74.166 106.352 74.166ZM113.797 73.0371C114.024 73.0371 114.257 73.0177 114.495 72.979C114.733 72.9403 114.926 72.8932 115.076 72.8379V73.9087C114.915 73.9806 114.691 74.0415 114.403 74.0913C114.121 74.1411 113.844 74.166 113.573 74.166C113.092 74.166 112.655 74.083 112.262 73.917C111.869 73.7454 111.553 73.4577 111.315 73.0537C111.083 72.6497 110.967 72.0908 110.967 71.377V65.9814H109.672V65.3091L110.975 64.7695L111.523 62.7939H112.353V64.9023H115.018V65.9814H112.353V71.3354C112.353 71.9054 112.483 72.3315 112.743 72.6138C113.009 72.896 113.36 73.0371 113.797 73.0371ZM124.273 73.0371C124.5 73.0371 124.732 73.0177 124.97 72.979C125.208 72.9403 125.402 72.8932 125.551 72.8379V73.9087C125.391 73.9806 125.167 74.0415 124.879 74.0913C124.597 74.1411 124.32 74.166 124.049 74.166C123.567 74.166 123.13 74.083 122.737 73.917C122.344 73.7454 122.029 73.4577 121.791 73.0537C121.559 72.6497 121.442 72.0908 121.442 71.377V65.9814H120.147V65.3091L121.451 64.7695L121.999 62.7939H122.829V64.9023H125.493V65.9814H122.829V71.3354C122.829 71.9054 122.959 72.3315 123.219 72.6138C123.484 72.896 123.836 73.0371 124.273 73.0371ZM128.772 64.9023V74H127.394V64.9023H128.772ZM128.1 61.499C128.326 61.499 128.52 61.5737 128.681 61.7231C128.847 61.867 128.93 62.0939 128.93 62.4038C128.93 62.7082 128.847 62.9351 128.681 63.0845C128.52 63.2339 128.326 63.3086 128.1 63.3086C127.862 63.3086 127.662 63.2339 127.502 63.0845C127.347 62.9351 127.27 62.7082 127.27 62.4038C127.27 62.0939 127.347 61.867 127.502 61.7231C127.662 61.5737 127.862 61.499 128.1 61.499ZM134.632 73.0371C134.859 73.0371 135.092 73.0177 135.33 72.979C135.568 72.9403 135.761 72.8932 135.911 72.8379V73.9087C135.75 73.9806 135.526 74.0415 135.238 74.0913C134.956 74.1411 134.679 74.166 134.408 74.166C133.927 74.166 133.49 74.083 133.097 73.917C132.704 73.7454 132.388 73.4577 132.15 73.0537C131.918 72.6497 131.802 72.0908 131.802 71.377V65.9814H130.507V65.3091L131.81 64.7695L132.358 62.7939H133.188V64.9023H135.853V65.9814H133.188V71.3354C133.188 71.9054 133.318 72.3315 133.578 72.6138C133.844 72.896 134.195 73.0371 134.632 73.0371ZM139.14 74H137.753V61.084H139.14V74ZM145.556 64.7363C146.331 64.7363 146.995 64.9079 147.548 65.251C148.102 65.5941 148.525 66.0755 148.818 66.6953C149.112 67.3096 149.258 68.029 149.258 68.8535V69.7085H142.975C142.991 70.7765 143.257 71.59 143.771 72.1489C144.286 72.7078 145.011 72.9873 145.946 72.9873C146.522 72.9873 147.031 72.9347 147.474 72.8296C147.916 72.7244 148.376 72.5695 148.852 72.3647V73.5767C148.392 73.7814 147.936 73.9308 147.482 74.0249C147.034 74.119 146.502 74.166 145.888 74.166C145.014 74.166 144.25 73.9889 143.597 73.6348C142.95 73.2751 142.446 72.7493 142.086 72.0576C141.727 71.3659 141.547 70.5192 141.547 69.5176C141.547 68.5381 141.71 67.6914 142.037 66.9775C142.369 66.2581 142.833 65.7048 143.431 65.3174C144.034 64.93 144.743 64.7363 145.556 64.7363ZM145.54 65.8652C144.804 65.8652 144.217 66.106 143.78 66.5874C143.343 67.0688 143.083 67.7412 143 68.6045H147.814C147.808 68.0622 147.723 67.5863 147.557 67.1768C147.396 66.7617 147.15 66.4408 146.818 66.2139C146.486 65.9814 146.06 65.8652 145.54 65.8652Z" fill="#8287A1"/>
<rect x="40.5" y="118.5" width="251.5" height="53" rx="7.5" fill="white"/>
<rect x="40.5" y="118.5" width="251.5" height="53" rx="7.5" stroke="#CCCFD3"/>
<path d="M40.5 123C40.5 120.515 42.5147 118.5 45 118.5H97.5V171.5H45C42.5147 171.5 40.5 169.485 40.5 167V123Z" fill="#F7F7FF"/>
<path d="M40.5 123C40.5 120.515 42.5147 118.5 45 118.5H97.5V171.5H45C42.5147 171.5 40.5 169.485 40.5 167V123Z" stroke="#4F56B2"/>
<path d="M64 145.004L69 145L74 145.004" stroke="#4F56B2" stroke-width="2" stroke-linecap="round" stroke-linejoin="round"/>
<path d="M145.83 152H144.485V143.4C144.485 143.074 144.485 142.794 144.485 142.562C144.491 142.324 144.496 142.108 144.502 141.915C144.513 141.715 144.527 141.513 144.543 141.309C144.372 141.486 144.211 141.638 144.062 141.765C143.913 141.887 143.727 142.039 143.506 142.222L142.12 143.334L141.397 142.396L144.685 139.864H145.83V152ZM159.734 142.736C160.868 142.736 161.773 143.126 162.448 143.907C163.123 144.687 163.461 145.86 163.461 147.426C163.461 148.461 163.306 149.33 162.996 150.033C162.686 150.736 162.249 151.267 161.685 151.626C161.126 151.986 160.464 152.166 159.701 152.166C159.219 152.166 158.796 152.102 158.431 151.975C158.065 151.848 157.753 151.676 157.493 151.46C157.233 151.245 157.017 151.009 156.845 150.755H156.746C156.762 150.971 156.782 151.231 156.804 151.535C156.831 151.84 156.845 152.105 156.845 152.332V156.067H155.459V142.902H156.596L156.779 144.247H156.845C157.022 143.97 157.238 143.719 157.493 143.492C157.747 143.259 158.057 143.077 158.422 142.944C158.793 142.806 159.23 142.736 159.734 142.736ZM159.493 143.898C158.862 143.898 158.353 144.02 157.966 144.264C157.584 144.507 157.305 144.872 157.127 145.359C156.95 145.841 156.856 146.447 156.845 147.177V147.443C156.845 148.212 156.928 148.862 157.094 149.394C157.266 149.925 157.545 150.329 157.933 150.605C158.326 150.882 158.851 151.021 159.51 151.021C160.074 151.021 160.545 150.868 160.921 150.564C161.297 150.26 161.577 149.836 161.759 149.294C161.947 148.746 162.042 148.118 162.042 147.41C162.042 146.336 161.831 145.484 161.411 144.853C160.996 144.217 160.356 143.898 159.493 143.898ZM169.271 142.753C170.356 142.753 171.161 142.996 171.687 143.483C172.213 143.97 172.476 144.748 172.476 145.816V152H171.471L171.206 150.655H171.139C170.885 150.987 170.619 151.267 170.342 151.494C170.066 151.715 169.745 151.884 169.379 152C169.02 152.111 168.577 152.166 168.051 152.166C167.498 152.166 167.005 152.069 166.574 151.875C166.148 151.682 165.81 151.389 165.561 150.996C165.318 150.603 165.196 150.105 165.196 149.501C165.196 148.594 165.556 147.897 166.275 147.41C166.994 146.923 168.09 146.657 169.562 146.613L171.131 146.546V145.99C171.131 145.204 170.962 144.654 170.625 144.338C170.287 144.023 169.811 143.865 169.197 143.865C168.721 143.865 168.267 143.934 167.835 144.073C167.404 144.211 166.994 144.374 166.607 144.562L166.184 143.517C166.593 143.306 167.063 143.126 167.595 142.977C168.126 142.828 168.685 142.753 169.271 142.753ZM171.114 147.518L169.728 147.576C168.594 147.62 167.794 147.805 167.329 148.132C166.864 148.458 166.632 148.92 166.632 149.518C166.632 150.038 166.79 150.423 167.105 150.672C167.42 150.921 167.838 151.045 168.358 151.045C169.166 151.045 169.828 150.821 170.342 150.373C170.857 149.925 171.114 149.252 171.114 148.356V147.518ZM177.854 156.084C176.659 156.084 175.738 155.86 175.09 155.412C174.443 154.969 174.119 154.346 174.119 153.544C174.119 152.974 174.299 152.487 174.659 152.083C175.024 151.679 175.528 151.411 176.169 151.278C175.931 151.167 175.727 151.001 175.555 150.78C175.389 150.558 175.306 150.304 175.306 150.016C175.306 149.684 175.397 149.394 175.58 149.145C175.768 148.89 176.053 148.646 176.435 148.414C175.959 148.22 175.572 147.894 175.273 147.435C174.98 146.97 174.833 146.43 174.833 145.816C174.833 145.163 174.969 144.607 175.24 144.147C175.511 143.683 175.904 143.328 176.418 143.085C176.933 142.841 177.556 142.72 178.286 142.72C178.447 142.72 178.607 142.728 178.768 142.745C178.934 142.756 179.091 142.775 179.241 142.803C179.39 142.825 179.52 142.853 179.631 142.886H182.752V143.774L181.075 143.981C181.241 144.197 181.38 144.457 181.49 144.762C181.601 145.066 181.656 145.404 181.656 145.774C181.656 146.682 181.349 147.404 180.735 147.941C180.121 148.472 179.277 148.738 178.203 148.738C177.949 148.738 177.688 148.716 177.423 148.671C177.152 148.821 176.944 148.987 176.8 149.169C176.662 149.352 176.593 149.562 176.593 149.8C176.593 149.977 176.645 150.118 176.75 150.224C176.861 150.329 177.019 150.406 177.224 150.456C177.428 150.5 177.675 150.522 177.962 150.522H179.564C180.555 150.522 181.313 150.73 181.839 151.145C182.37 151.56 182.636 152.166 182.636 152.963C182.636 153.97 182.226 154.742 181.407 155.279C180.588 155.816 179.404 156.084 177.854 156.084ZM177.896 155.005C178.649 155.005 179.271 154.927 179.764 154.772C180.262 154.623 180.632 154.404 180.876 154.117C181.125 153.834 181.25 153.497 181.25 153.104C181.25 152.739 181.167 152.462 181 152.274C180.834 152.091 180.591 151.97 180.27 151.909C179.949 151.842 179.556 151.809 179.091 151.809H177.514C177.105 151.809 176.748 151.873 176.443 152C176.139 152.127 175.904 152.315 175.738 152.564C175.577 152.813 175.497 153.123 175.497 153.494C175.497 153.987 175.705 154.36 176.12 154.615C176.535 154.875 177.127 155.005 177.896 155.005ZM178.253 147.733C178.911 147.733 179.407 147.567 179.739 147.235C180.071 146.903 180.237 146.419 180.237 145.783C180.237 145.102 180.068 144.593 179.73 144.255C179.393 143.912 178.895 143.741 178.236 143.741C177.605 143.741 177.118 143.918 176.775 144.272C176.438 144.621 176.269 145.132 176.269 145.808C176.269 146.427 176.441 146.903 176.784 147.235C177.127 147.567 177.617 147.733 178.253 147.733ZM188.048 142.736C188.823 142.736 189.487 142.908 190.04 143.251C190.593 143.594 191.017 144.076 191.31 144.695C191.603 145.31 191.75 146.029 191.75 146.854V147.708H185.466C185.483 148.777 185.749 149.59 186.263 150.149C186.778 150.708 187.503 150.987 188.438 150.987C189.014 150.987 189.523 150.935 189.965 150.83C190.408 150.724 190.867 150.569 191.343 150.365V151.577C190.884 151.781 190.427 151.931 189.974 152.025C189.525 152.119 188.994 152.166 188.38 152.166C187.506 152.166 186.742 151.989 186.089 151.635C185.441 151.275 184.938 150.749 184.578 150.058C184.218 149.366 184.039 148.519 184.039 147.518C184.039 146.538 184.202 145.691 184.528 144.978C184.86 144.258 185.325 143.705 185.923 143.317C186.526 142.93 187.234 142.736 188.048 142.736ZM188.031 143.865C187.295 143.865 186.709 144.106 186.271 144.587C185.834 145.069 185.574 145.741 185.491 146.604H190.306C190.3 146.062 190.214 145.586 190.048 145.177C189.888 144.762 189.642 144.441 189.31 144.214C188.978 143.981 188.551 143.865 188.031 143.865Z" fill="#252B4A"/>
<path d="M235 118.5H287.5C289.985 118.5 292 120.515 292 123V167C292 169.485 289.985 171.5 287.5 171.5H235V118.5Z" fill="#F7F7FF"/>
<path d="M235 118.5H287.5C289.985 118.5 292 120.515 292 123V167C292 169.485 289.985 171.5 287.5 171.5H235V118.5Z" stroke="#4F56B2"/>
<path d="M258.5 145.004L263.5 145L268.5 145.004" stroke="#4F56B2" stroke-width="2" stroke-linecap="round" stroke-linejoin="round"/>
<path d="M263.502 150L263.498 145L263.502 140" stroke="#4F56B2" stroke-width="2" stroke-linecap="round" stroke-linejoin="round"/>
<rect x="312.5" y="118" width="252.5" height="54" rx="8" fill="white"/>
<rect x="313" y="118.5" width="251.5" height="53" rx="4.5" stroke="#CCCFD3"/>
<path d="M312.5 123C312.5 120.239 314.739 118 317.5 118H438.75V172H317.5C314.739 172 312.5 169.761 312.5 167V123Z" fill="#4F56B2"/>
<path d="M354.771 136.22L356.771 138.22C356.904 138.362 356.976 138.55 356.972 138.744C356.969 138.939 356.89 139.124 356.753 139.262C356.615 139.399 356.43 139.478 356.236 139.481C356.041 139.485 355.853 139.412 355.711 139.28L354.991 138.56V143.25C354.991 143.449 354.912 143.64 354.771 143.78C354.631 143.921 354.44 144 354.241 144C354.042 144 353.851 143.921 353.711 143.78C353.57 143.64 353.491 143.449 353.491 143.25V138.56L352.771 139.28C352.702 139.354 352.62 139.413 352.528 139.454C352.436 139.495 352.336 139.517 352.236 139.519C352.135 139.52 352.035 139.502 351.941 139.464C351.848 139.426 351.763 139.37 351.692 139.299C351.621 139.228 351.565 139.143 351.527 139.05C351.489 138.956 351.471 138.856 351.472 138.755C351.474 138.655 351.496 138.555 351.537 138.463C351.578 138.371 351.637 138.289 351.711 138.22L353.711 136.22C353.851 136.08 354.041 136 354.239 136H354.243C354.441 136 354.631 136.08 354.771 136.22ZM337.241 138.75C337.241 138.551 337.32 138.36 337.461 138.22C337.602 138.079 337.792 138 337.991 138H346.491C346.69 138 346.881 138.079 347.021 138.22C347.162 138.36 347.241 138.551 347.241 138.75C347.241 138.949 347.162 139.14 347.021 139.28C346.881 139.421 346.69 139.5 346.491 139.5H337.991C337.792 139.5 337.602 139.421 337.461 139.28C337.32 139.14 337.241 138.949 337.241 138.75ZM337.241 145.25C337.241 145.051 337.32 144.86 337.461 144.72C337.602 144.579 337.792 144.5 337.991 144.5H349.491C349.69 144.5 349.881 144.579 350.021 144.72C350.162 144.86 350.241 145.051 350.241 145.25C350.241 145.449 350.162 145.64 350.021 145.78C349.881 145.921 349.69 146 349.491 146H337.991C337.792 146 337.602 145.921 337.461 145.78C337.32 145.64 337.241 145.449 337.241 145.25ZM337.991 151C337.792 151 337.602 151.079 337.461 151.22C337.32 151.36 337.241 151.551 337.241 151.75C337.241 151.949 337.32 152.14 337.461 152.28C337.602 152.421 337.792 152.5 337.991 152.5H346.491C346.69 152.5 346.881 152.421 347.021 152.28C347.162 152.14 347.241 151.949 347.241 151.75C347.241 151.551 347.162 151.36 347.021 151.22C346.881 151.079 346.69 151 346.491 151H337.991ZM353.491 151.44V146.75C353.491 146.551 353.57 146.36 353.711 146.22C353.851 146.079 354.042 146 354.241 146C354.44 146 354.631 146.079 354.771 146.22C354.912 146.36 354.991 146.551 354.991 146.75V151.44L355.711 150.72C355.78 150.646 355.862 150.587 355.954 150.546C356.046 150.505 356.146 150.483 356.247 150.481C356.347 150.479 356.447 150.498 356.541 150.536C356.634 150.573 356.719 150.63 356.79 150.701C356.861 150.772 356.917 150.857 356.955 150.95C356.993 151.044 357.011 151.144 357.01 151.244C357.008 151.345 356.986 151.444 356.945 151.536C356.904 151.628 356.845 151.711 356.771 151.78L354.771 153.78C354.702 153.85 354.619 153.905 354.528 153.943C354.437 153.981 354.34 154 354.241 154C354.143 154 354.045 153.981 353.954 153.943C353.863 153.905 353.781 153.85 353.711 153.78L351.711 151.78C351.637 151.711 351.578 151.628 351.537 151.536C351.496 151.444 351.474 151.345 351.472 151.244C351.471 151.144 351.489 151.044 351.527 150.95C351.565 150.857 351.621 150.772 351.692 150.701C351.763 150.63 351.848 150.573 351.941 150.536C352.035 150.498 352.135 150.479 352.236 150.481C352.336 150.483 352.436 150.505 352.528 150.546C352.62 150.587 352.702 150.646 352.771 150.72L353.491 151.44Z" fill="white"/>
<path d="M371.7 148.63C371.7 149.349 371.525 149.975 371.177 150.506C370.828 151.037 370.319 151.447 369.649 151.734C368.985 152.022 368.177 152.166 367.226 152.166C366.805 152.166 366.393 152.138 365.989 152.083C365.59 152.028 365.206 151.947 364.835 151.842C364.47 151.732 364.121 151.596 363.789 151.436V149.045C364.365 149.299 364.962 149.529 365.582 149.734C366.202 149.939 366.816 150.041 367.425 150.041C367.845 150.041 368.183 149.986 368.438 149.875C368.698 149.764 368.886 149.612 369.002 149.418C369.118 149.225 369.176 149.003 369.176 148.754C369.176 148.45 369.074 148.19 368.869 147.974C368.664 147.758 368.382 147.556 368.022 147.368C367.668 147.18 367.267 146.978 366.819 146.762C366.537 146.629 366.229 146.469 365.897 146.281C365.565 146.087 365.25 145.852 364.951 145.575C364.652 145.299 364.406 144.964 364.212 144.571C364.024 144.172 363.93 143.696 363.93 143.143C363.93 142.418 364.096 141.798 364.428 141.284C364.76 140.769 365.233 140.376 365.848 140.105C366.467 139.828 367.198 139.69 368.039 139.69C368.67 139.69 369.27 139.765 369.84 139.914C370.416 140.058 371.016 140.268 371.642 140.545L370.812 142.545C370.253 142.319 369.752 142.144 369.309 142.022C368.866 141.895 368.415 141.832 367.956 141.832C367.635 141.832 367.361 141.884 367.134 141.989C366.907 142.089 366.736 142.233 366.62 142.421C366.503 142.604 366.445 142.817 366.445 143.06C366.445 143.348 366.528 143.591 366.694 143.791C366.866 143.984 367.12 144.172 367.458 144.355C367.801 144.538 368.227 144.751 368.736 144.994C369.356 145.287 369.885 145.595 370.322 145.916C370.764 146.231 371.105 146.604 371.343 147.036C371.581 147.462 371.7 147.993 371.7 148.63ZM376.232 142.72V152H373.7V142.72H376.232ZM374.97 139.084C375.347 139.084 375.67 139.173 375.941 139.35C376.213 139.521 376.348 139.845 376.348 140.321C376.348 140.791 376.213 141.118 375.941 141.3C375.67 141.477 375.347 141.566 374.97 141.566C374.588 141.566 374.262 141.477 373.991 141.3C373.725 141.118 373.592 140.791 373.592 140.321C373.592 139.845 373.725 139.521 373.991 139.35C374.262 139.173 374.588 139.084 374.97 139.084ZM384.167 142.545C385.158 142.545 385.955 142.817 386.558 143.359C387.161 143.896 387.463 144.759 387.463 145.949V152H384.931V146.58C384.931 145.916 384.809 145.415 384.566 145.077C384.328 144.74 383.952 144.571 383.437 144.571C382.662 144.571 382.134 144.834 381.852 145.359C381.569 145.885 381.428 146.643 381.428 147.634V152H378.896V142.72H380.831L381.171 143.907H381.312C381.511 143.586 381.757 143.326 382.051 143.126C382.35 142.927 382.679 142.781 383.039 142.687C383.404 142.592 383.78 142.545 384.167 142.545ZM392.784 156.084C391.489 156.084 390.498 155.857 389.812 155.403C389.131 154.955 388.791 154.324 388.791 153.511C388.791 152.952 388.965 152.484 389.314 152.108C389.663 151.732 390.174 151.463 390.85 151.303C390.59 151.192 390.363 151.012 390.169 150.763C389.975 150.509 389.878 150.24 389.878 149.958C389.878 149.604 389.981 149.311 390.186 149.078C390.39 148.84 390.686 148.608 391.074 148.381C390.587 148.171 390.199 147.833 389.912 147.368C389.629 146.903 389.488 146.355 389.488 145.725C389.488 145.049 389.635 144.477 389.928 144.006C390.227 143.53 390.659 143.168 391.223 142.919C391.793 142.67 392.485 142.545 393.298 142.545C393.47 142.545 393.669 142.556 393.896 142.579C394.123 142.601 394.33 142.626 394.519 142.653C394.712 142.681 394.842 142.703 394.909 142.72H398.146V144.006L396.693 144.38C396.826 144.585 396.926 144.803 396.992 145.036C397.059 145.268 397.092 145.514 397.092 145.774C397.092 146.771 396.743 147.548 396.046 148.107C395.354 148.66 394.391 148.937 393.157 148.937C392.864 148.92 392.587 148.898 392.327 148.871C392.2 148.97 392.103 149.075 392.037 149.186C391.97 149.297 391.937 149.413 391.937 149.535C391.937 149.656 391.987 149.759 392.086 149.842C392.192 149.919 392.347 149.98 392.551 150.024C392.762 150.063 393.022 150.083 393.332 150.083H394.909C395.927 150.083 396.702 150.301 397.233 150.738C397.77 151.175 398.038 151.817 398.038 152.664C398.038 153.749 397.584 154.59 396.677 155.188C395.775 155.785 394.477 156.084 392.784 156.084ZM392.892 154.432C393.495 154.432 394.012 154.374 394.444 154.258C394.881 154.147 395.216 153.987 395.448 153.776C395.681 153.572 395.797 153.325 395.797 153.038C395.797 152.805 395.728 152.62 395.589 152.481C395.457 152.349 395.252 152.255 394.975 152.199C394.704 152.144 394.355 152.116 393.929 152.116H392.618C392.308 152.116 392.028 152.166 391.779 152.266C391.536 152.365 391.342 152.504 391.198 152.681C391.054 152.863 390.982 153.074 390.982 153.312C390.982 153.66 391.148 153.934 391.48 154.133C391.818 154.333 392.288 154.432 392.892 154.432ZM393.298 147.393C393.774 147.393 394.123 147.246 394.344 146.953C394.566 146.66 394.676 146.261 394.676 145.758C394.676 145.199 394.56 144.781 394.328 144.504C394.101 144.222 393.758 144.081 393.298 144.081C392.833 144.081 392.485 144.222 392.252 144.504C392.02 144.781 391.904 145.199 391.904 145.758C391.904 146.261 392.017 146.66 392.244 146.953C392.477 147.246 392.828 147.393 393.298 147.393ZM402.213 152H399.682V139.084H402.213V152ZM408.705 142.545C409.562 142.545 410.301 142.711 410.921 143.043C411.541 143.37 412.019 143.846 412.357 144.471C412.694 145.097 412.863 145.86 412.863 146.762V147.991H406.878C406.906 148.705 407.119 149.266 407.518 149.676C407.922 150.08 408.48 150.282 409.194 150.282C409.786 150.282 410.329 150.221 410.821 150.099C411.314 149.977 411.82 149.795 412.34 149.551V151.51C411.881 151.737 411.4 151.903 410.896 152.008C410.398 152.113 409.792 152.166 409.078 152.166C408.148 152.166 407.324 151.994 406.604 151.651C405.891 151.308 405.329 150.785 404.919 150.083C404.515 149.38 404.313 148.494 404.313 147.426C404.313 146.342 404.496 145.44 404.861 144.72C405.232 143.995 405.747 143.453 406.405 143.093C407.064 142.728 407.83 142.545 408.705 142.545ZM408.721 144.347C408.229 144.347 407.819 144.504 407.493 144.82C407.172 145.135 406.986 145.631 406.937 146.306H410.489C410.484 145.929 410.415 145.595 410.282 145.301C410.154 145.008 409.961 144.776 409.701 144.604C409.446 144.432 409.12 144.347 408.721 144.347Z" fill="white"/>
<path d="M477.521 136.22L479.521 138.22C479.654 138.362 479.726 138.55 479.722 138.744C479.719 138.939 479.64 139.124 479.503 139.262C479.365 139.399 479.18 139.478 478.986 139.481C478.791 139.485 478.603 139.412 478.461 139.28L477.741 138.56V143.25C477.741 143.449 477.662 143.64 477.521 143.78C477.381 143.921 477.19 144 476.991 144C476.792 144 476.601 143.921 476.461 143.78C476.32 143.64 476.241 143.449 476.241 143.25V138.56L475.521 139.28C475.452 139.354 475.37 139.413 475.278 139.454C475.186 139.495 475.086 139.517 474.986 139.519C474.885 139.52 474.785 139.502 474.691 139.464C474.598 139.426 474.513 139.37 474.442 139.299C474.371 139.228 474.315 139.143 474.277 139.05C474.239 138.956 474.221 138.856 474.222 138.755C474.224 138.655 474.246 138.555 474.287 138.463C474.328 138.371 474.387 138.289 474.461 138.22L476.461 136.22C476.601 136.08 476.791 136 476.989 136H476.993C477.191 136 477.381 136.08 477.521 136.22ZM459.991 138.75C459.991 138.551 460.07 138.36 460.211 138.22C460.352 138.079 460.542 138 460.741 138H469.241C469.44 138 469.631 138.079 469.771 138.22C469.912 138.36 469.991 138.551 469.991 138.75C469.991 138.949 469.912 139.14 469.771 139.28C469.631 139.421 469.44 139.5 469.241 139.5H460.741C460.542 139.5 460.352 139.421 460.211 139.28C460.07 139.14 459.991 138.949 459.991 138.75ZM459.991 145.25C459.991 145.051 460.07 144.86 460.211 144.72C460.352 144.579 460.542 144.5 460.741 144.5H472.241C472.44 144.5 472.631 144.579 472.771 144.72C472.912 144.86 472.991 145.051 472.991 145.25C472.991 145.449 472.912 145.64 472.771 145.78C472.631 145.921 472.44 146 472.241 146H460.741C460.542 146 460.352 145.921 460.211 145.78C460.07 145.64 459.991 145.449 459.991 145.25ZM460.741 151C460.542 151 460.352 151.079 460.211 151.22C460.07 151.36 459.991 151.551 459.991 151.75C459.991 151.949 460.07 152.14 460.211 152.28C460.352 152.421 460.542 152.5 460.741 152.5H469.241C469.44 152.5 469.631 152.421 469.771 152.28C469.912 152.14 469.991 151.949 469.991 151.75C469.991 151.551 469.912 151.36 469.771 151.22C469.631 151.079 469.44 151 469.241 151H460.741ZM476.241 151.44V146.75C476.241 146.551 476.32 146.36 476.461 146.22C476.601 146.079 476.792 146 476.991 146C477.19 146 477.381 146.079 477.521 146.22C477.662 146.36 477.741 146.551 477.741 146.75V151.44L478.461 150.72C478.53 150.646 478.612 150.587 478.704 150.546C478.796 150.505 478.896 150.483 478.997 150.481C479.097 150.479 479.197 150.498 479.291 150.536C479.384 150.573 479.469 150.63 479.54 150.701C479.611 150.772 479.667 150.857 479.705 150.95C479.743 151.044 479.761 151.144 479.76 151.244C479.758 151.345 479.736 151.444 479.695 151.536C479.654 151.628 479.595 151.711 479.521 151.78L477.521 153.78C477.452 153.85 477.369 153.905 477.278 153.943C477.187 153.981 477.09 154 476.991 154C476.893 154 476.795 153.981 476.704 153.943C476.613 153.905 476.531 153.85 476.461 153.78L474.461 151.78C474.387 151.711 474.328 151.628 474.287 151.536C474.246 151.444 474.224 151.345 474.222 151.244C474.221 151.144 474.239 151.044 474.277 150.95C474.315 150.857 474.371 150.772 474.442 150.701C474.513 150.63 474.598 150.573 474.691 150.536C474.785 150.498 474.885 150.479 474.986 150.481C475.086 150.483 475.186 150.505 475.278 150.546C475.37 150.587 475.452 150.646 475.521 150.72L476.241 151.44Z" fill="#8287A1"/>
<path d="M497.056 145.816C497.056 147.183 496.807 148.326 496.309 149.244C495.811 150.157 495.089 150.846 494.143 151.311C493.202 151.77 492.059 152 490.714 152H487.419V139.864H491.08C492.314 139.864 493.376 140.091 494.267 140.545C495.158 140.993 495.844 141.66 496.326 142.545C496.813 143.425 497.056 144.515 497.056 145.816ZM495.57 145.866C495.57 144.776 495.388 143.876 495.022 143.168C494.663 142.46 494.132 141.934 493.429 141.591C492.731 141.242 491.876 141.068 490.864 141.068H488.83V150.788H490.548C492.22 150.788 493.473 150.376 494.309 149.551C495.15 148.727 495.57 147.498 495.57 145.866ZM507.391 147.435C507.391 148.182 507.294 148.848 507.1 149.435C506.906 150.022 506.627 150.517 506.262 150.921C505.896 151.325 505.454 151.635 504.934 151.851C504.419 152.061 503.835 152.166 503.182 152.166C502.573 152.166 502.014 152.061 501.505 151.851C501.002 151.635 500.565 151.325 500.194 150.921C499.829 150.517 499.544 150.022 499.339 149.435C499.14 148.848 499.04 148.182 499.04 147.435C499.04 146.438 499.209 145.592 499.546 144.895C499.884 144.192 500.365 143.658 500.991 143.292C501.622 142.922 502.371 142.736 503.24 142.736C504.07 142.736 504.795 142.922 505.415 143.292C506.04 143.663 506.525 144.2 506.868 144.903C507.216 145.6 507.391 146.444 507.391 147.435ZM500.468 147.435C500.468 148.165 500.565 148.799 500.758 149.335C500.952 149.872 501.251 150.287 501.655 150.581C502.059 150.874 502.579 151.021 503.215 151.021C503.846 151.021 504.364 150.874 504.768 150.581C505.177 150.287 505.479 149.872 505.672 149.335C505.866 148.799 505.963 148.165 505.963 147.435C505.963 146.71 505.866 146.084 505.672 145.559C505.479 145.027 505.18 144.618 504.776 144.33C504.372 144.042 503.849 143.898 503.207 143.898C502.261 143.898 501.566 144.211 501.124 144.836C500.686 145.462 500.468 146.328 500.468 147.435ZM517.285 142.902V152H516.156L515.957 150.722H515.882C515.694 151.037 515.451 151.303 515.152 151.519C514.853 151.734 514.515 151.895 514.139 152C513.768 152.111 513.373 152.166 512.952 152.166C512.233 152.166 511.63 152.05 511.143 151.817C510.656 151.585 510.288 151.225 510.039 150.738C509.795 150.251 509.673 149.626 509.673 148.862V142.902H511.068V148.763C511.068 149.521 511.239 150.088 511.583 150.464C511.926 150.835 512.449 151.021 513.151 151.021C513.826 151.021 514.363 150.893 514.762 150.639C515.166 150.384 515.456 150.011 515.633 149.518C515.81 149.02 515.899 148.411 515.899 147.692V142.902H517.285ZM521.577 139.084V142.313C521.577 142.684 521.566 143.043 521.543 143.392C521.527 143.741 521.513 144.012 521.502 144.206H521.577C521.826 143.796 522.185 143.45 522.656 143.168C523.126 142.886 523.727 142.745 524.457 142.745C525.597 142.745 526.505 143.14 527.18 143.932C527.86 144.717 528.201 145.888 528.201 147.443C528.201 148.467 528.046 149.33 527.736 150.033C527.426 150.736 526.989 151.267 526.424 151.626C525.86 151.986 525.193 152.166 524.424 152.166C523.704 152.166 523.112 152.033 522.647 151.768C522.188 151.496 521.834 151.167 521.585 150.78H521.477L521.195 152H520.199V139.084H521.577ZM524.233 143.898C523.574 143.898 523.051 144.028 522.664 144.289C522.277 144.543 521.997 144.931 521.826 145.451C521.66 145.965 521.577 146.618 521.577 147.41V147.484C521.577 148.63 521.768 149.507 522.149 150.116C522.531 150.719 523.226 151.021 524.233 151.021C525.08 151.021 525.713 150.711 526.134 150.091C526.56 149.471 526.773 148.586 526.773 147.435C526.773 146.261 526.563 145.379 526.142 144.787C525.727 144.194 525.091 143.898 524.233 143.898ZM531.994 152H530.608V139.084H531.994V152ZM538.411 142.736C539.185 142.736 539.849 142.908 540.403 143.251C540.956 143.594 541.38 144.076 541.673 144.695C541.966 145.31 542.113 146.029 542.113 146.854V147.708H535.829C535.846 148.777 536.111 149.59 536.626 150.149C537.141 150.708 537.866 150.987 538.801 150.987C539.376 150.987 539.885 150.935 540.328 150.83C540.771 150.724 541.23 150.569 541.706 150.365V151.577C541.247 151.781 540.79 151.931 540.336 152.025C539.888 152.119 539.357 152.166 538.743 152.166C537.868 152.166 537.105 151.989 536.452 151.635C535.804 151.275 535.301 150.749 534.941 150.058C534.581 149.366 534.401 148.519 534.401 147.518C534.401 146.538 534.565 145.691 534.891 144.978C535.223 144.258 535.688 143.705 536.286 143.317C536.889 142.93 537.597 142.736 538.411 142.736ZM538.394 143.865C537.658 143.865 537.071 144.106 536.634 144.587C536.197 145.069 535.937 145.741 535.854 146.604H540.668C540.663 146.062 540.577 145.586 540.411 145.177C540.251 144.762 540.004 144.441 539.672 144.214C539.34 143.981 538.914 143.865 538.394 143.865Z" fill="#8287A1"/>
<rect x="40.5" y="196.5" width="524" height="53" rx="7.5" fill="white"/>
<rect x="40.5" y="196.5" width="524" height="53" rx="7.5" stroke="#CCCFD3"/>
<path d="M68.5083 226.771C68.5083 227.49 68.3285 228.105 67.9688 228.614C67.6146 229.117 67.1165 229.502 66.4746 229.768C65.8327 230.033 65.0773 230.166 64.2085 230.166C63.7492 230.166 63.3148 230.144 62.9053 230.1C62.4958 230.055 62.1195 229.992 61.7764 229.909C61.4333 229.826 61.1317 229.723 60.8716 229.602V228.249C61.2866 228.42 61.793 228.581 62.3906 228.73C62.9883 228.874 63.6136 228.946 64.2666 228.946C64.8753 228.946 65.39 228.866 65.8105 228.705C66.2311 228.539 66.5493 228.304 66.7651 228C66.9865 227.69 67.0972 227.319 67.0972 226.887C67.0972 226.472 67.0059 226.126 66.8232 225.85C66.6406 225.567 66.3363 225.313 65.9102 225.086C65.4896 224.854 64.9141 224.607 64.1836 224.347C63.6689 224.165 63.2152 223.965 62.8223 223.75C62.4294 223.528 62.1001 223.279 61.8345 223.002C61.5688 222.726 61.3669 222.405 61.2285 222.04C61.0957 221.674 61.0293 221.257 61.0293 220.786C61.0293 220.139 61.1925 219.585 61.519 219.126C61.8511 218.661 62.3076 218.307 62.8887 218.063C63.4753 217.814 64.1476 217.69 64.9058 217.69C65.5532 217.69 66.1509 217.751 66.6987 217.873C67.2521 217.994 67.7585 218.158 68.2178 218.362L67.7778 219.574C67.3407 219.392 66.8758 219.239 66.3833 219.118C65.8963 218.996 65.3927 218.935 64.8726 218.935C64.3524 218.935 63.9124 219.013 63.5527 219.167C63.1986 219.317 62.9274 219.53 62.7393 219.807C62.5511 220.083 62.457 220.413 62.457 220.794C62.457 221.221 62.5456 221.575 62.7227 221.857C62.9053 222.139 63.193 222.391 63.5859 222.612C63.9844 222.828 64.5101 223.055 65.1631 223.293C65.877 223.553 66.4829 223.83 66.981 224.123C67.479 224.411 67.8581 224.765 68.1182 225.186C68.3783 225.601 68.5083 226.129 68.5083 226.771ZM78.2949 220.902V230H77.166L76.9668 228.722H76.8921C76.7039 229.037 76.4604 229.303 76.1616 229.519C75.8628 229.734 75.5252 229.895 75.1489 230C74.7782 230.111 74.3825 230.166 73.9619 230.166C73.2425 230.166 72.6393 230.05 72.1523 229.817C71.6654 229.585 71.2974 229.225 71.0483 228.738C70.8049 228.251 70.6831 227.626 70.6831 226.862V220.902H72.0776V226.763C72.0776 227.521 72.2492 228.088 72.5923 228.464C72.9354 228.835 73.4583 229.021 74.1611 229.021C74.8363 229.021 75.373 228.893 75.7715 228.639C76.1755 228.384 76.466 228.011 76.6431 227.518C76.8201 227.02 76.9087 226.411 76.9087 225.692V220.902H78.2949ZM82.5864 217.084V220.313C82.5864 220.684 82.5754 221.043 82.5532 221.392C82.5366 221.741 82.5228 222.012 82.5117 222.206H82.5864C82.8354 221.796 83.1951 221.45 83.6655 221.168C84.1359 220.886 84.7363 220.745 85.4668 220.745C86.6068 220.745 87.5143 221.14 88.1895 221.932C88.8701 222.717 89.2104 223.888 89.2104 225.443C89.2104 226.467 89.0555 227.33 88.7456 228.033C88.4357 228.736 87.9985 229.267 87.4341 229.626C86.8696 229.986 86.2028 230.166 85.4336 230.166C84.7142 230.166 84.1221 230.033 83.6572 229.768C83.1979 229.496 82.8438 229.167 82.5947 228.78H82.4868L82.2046 230H81.2085V217.084H82.5864ZM85.2427 221.898C84.5841 221.898 84.0612 222.028 83.6738 222.289C83.2865 222.543 83.007 222.931 82.8354 223.451C82.6694 223.965 82.5864 224.618 82.5864 225.41V225.484C82.5864 226.63 82.7773 227.507 83.1592 228.116C83.541 228.719 84.2355 229.021 85.2427 229.021C86.0894 229.021 86.723 228.711 87.1436 228.091C87.5697 227.471 87.7827 226.586 87.7827 225.435C87.7827 224.261 87.5724 223.379 87.1519 222.787C86.7368 222.194 86.1004 221.898 85.2427 221.898ZM90.522 234.084C90.2397 234.084 89.9935 234.062 89.7832 234.018C89.5729 233.979 89.3903 233.932 89.2354 233.876V232.756C89.4069 232.811 89.5812 232.853 89.7583 232.88C89.9354 232.914 90.1346 232.93 90.356 232.93C90.7323 232.93 91.0366 232.825 91.269 232.615C91.5015 232.404 91.6177 232.023 91.6177 231.469V220.902H92.9956V231.436C92.9956 231.989 92.9071 232.463 92.73 232.855C92.5529 233.254 92.2817 233.558 91.9165 233.769C91.5513 233.979 91.0864 234.084 90.522 234.084ZM91.4932 218.404C91.4932 218.094 91.5706 217.867 91.7256 217.723C91.8861 217.574 92.0853 217.499 92.3232 217.499C92.5501 217.499 92.7438 217.574 92.9043 217.723C93.0703 217.867 93.1533 218.094 93.1533 218.404C93.1533 218.708 93.0703 218.935 92.9043 219.084C92.7438 219.234 92.5501 219.309 92.3232 219.309C92.0853 219.309 91.8861 219.234 91.7256 219.084C91.5706 218.935 91.4932 218.708 91.4932 218.404ZM99.4204 220.736C100.195 220.736 100.859 220.908 101.413 221.251C101.966 221.594 102.389 222.076 102.683 222.695C102.976 223.31 103.123 224.029 103.123 224.854V225.708H96.8389C96.8555 226.777 97.1211 227.59 97.6357 228.149C98.1504 228.708 98.8753 228.987 99.8105 228.987C100.386 228.987 100.895 228.935 101.338 228.83C101.781 228.724 102.24 228.569 102.716 228.365V229.577C102.257 229.781 101.8 229.931 101.346 230.025C100.898 230.119 100.367 230.166 99.7524 230.166C98.8781 230.166 98.1144 229.989 97.4614 229.635C96.814 229.275 96.3104 228.749 95.9507 228.058C95.591 227.366 95.4111 226.519 95.4111 225.518C95.4111 224.538 95.5744 223.691 95.9009 222.978C96.2329 222.258 96.6978 221.705 97.2954 221.317C97.8986 220.93 98.6069 220.736 99.4204 220.736ZM99.4038 221.865C98.6678 221.865 98.0812 222.106 97.644 222.587C97.2069 223.069 96.9468 223.741 96.8638 224.604H101.678C101.673 224.062 101.587 223.586 101.421 223.177C101.26 222.762 101.014 222.441 100.682 222.214C100.35 221.981 99.924 221.865 99.4038 221.865ZM109.107 230.166C108.288 230.166 107.566 229.997 106.941 229.66C106.316 229.322 105.829 228.807 105.48 228.116C105.131 227.424 104.957 226.552 104.957 225.501C104.957 224.4 105.14 223.5 105.505 222.803C105.876 222.1 106.385 221.58 107.032 221.243C107.68 220.905 108.416 220.736 109.24 220.736C109.694 220.736 110.131 220.783 110.552 220.877C110.978 220.966 111.326 221.079 111.598 221.218L111.183 222.372C110.906 222.261 110.585 222.161 110.22 222.073C109.86 221.984 109.522 221.94 109.207 221.94C108.576 221.94 108.05 222.076 107.63 222.347C107.215 222.618 106.902 223.016 106.692 223.542C106.487 224.068 106.385 224.715 106.385 225.484C106.385 226.22 106.484 226.848 106.684 227.369C106.888 227.889 107.19 228.287 107.588 228.564C107.992 228.835 108.496 228.971 109.099 228.971C109.581 228.971 110.015 228.921 110.402 228.821C110.79 228.716 111.141 228.594 111.457 228.456V229.685C111.152 229.84 110.812 229.958 110.436 230.042C110.065 230.125 109.622 230.166 109.107 230.166ZM116.553 229.037C116.78 229.037 117.013 229.018 117.25 228.979C117.488 228.94 117.682 228.893 117.832 228.838V229.909C117.671 229.981 117.447 230.042 117.159 230.091C116.877 230.141 116.6 230.166 116.329 230.166C115.848 230.166 115.41 230.083 115.018 229.917C114.625 229.745 114.309 229.458 114.071 229.054C113.839 228.65 113.723 228.091 113.723 227.377V221.981H112.428V221.309L113.731 220.77L114.279 218.794H115.109V220.902H117.773V221.981H115.109V227.335C115.109 227.905 115.239 228.332 115.499 228.614C115.765 228.896 116.116 229.037 116.553 229.037Z" fill="#8287A1"/>
<path d="M534 221L539 226L544 221" stroke="#8287A1" stroke-width="2" stroke-linecap="round" stroke-linejoin="round"/>
<rect x="40.5" y="274.5" width="251.5" height="53" rx="7.5" fill="white"/>
<rect x="40.5" y="274.5" width="251.5" height="53" rx="7.5" stroke="#CCCFD3"/>
<path d="M63.0713 308H61.6602V295.864H68.417V297.109H63.0713V301.559H68.0933V302.795H63.0713V308ZM78.0791 303.435C78.0791 304.182 77.9823 304.848 77.7886 305.435C77.5949 306.022 77.3154 306.517 76.9502 306.921C76.585 307.325 76.1423 307.635 75.6221 307.851C75.1074 308.061 74.5236 308.166 73.8706 308.166C73.2619 308.166 72.703 308.061 72.1938 307.851C71.6903 307.635 71.2531 307.325 70.8823 306.921C70.5171 306.517 70.2321 306.022 70.0273 305.435C69.8281 304.848 69.7285 304.182 69.7285 303.435C69.7285 302.438 69.8973 301.592 70.2349 300.895C70.5724 300.192 71.0539 299.658 71.6792 299.292C72.3101 298.922 73.0599 298.736 73.9287 298.736C74.7588 298.736 75.4837 298.922 76.1035 299.292C76.7288 299.663 77.2131 300.2 77.5562 300.903C77.9048 301.6 78.0791 302.444 78.0791 303.435ZM71.1562 303.435C71.1562 304.165 71.2531 304.799 71.4468 305.335C71.6405 305.872 71.9393 306.287 72.3433 306.581C72.7472 306.874 73.2674 307.021 73.9038 307.021C74.5347 307.021 75.0521 306.874 75.4561 306.581C75.8656 306.287 76.1672 305.872 76.3608 305.335C76.5545 304.799 76.6514 304.165 76.6514 303.435C76.6514 302.71 76.5545 302.084 76.3608 301.559C76.1672 301.027 75.8683 300.618 75.4644 300.33C75.0604 300.042 74.5374 299.898 73.8955 299.898C72.9492 299.898 72.2547 300.211 71.812 300.836C71.3748 301.462 71.1562 302.328 71.1562 303.435ZM84.5952 298.736C84.7778 298.736 84.9688 298.747 85.168 298.77C85.3672 298.786 85.5443 298.811 85.6992 298.844L85.5249 300.123C85.3755 300.084 85.2095 300.053 85.0269 300.031C84.8442 300.009 84.6727 299.998 84.5122 299.998C84.147 299.998 83.8011 300.073 83.4746 300.222C83.1536 300.366 82.8714 300.576 82.6279 300.853C82.3844 301.124 82.1935 301.453 82.0552 301.841C81.9168 302.223 81.8477 302.649 81.8477 303.119V308H80.4614V298.902H81.6069L81.7563 300.579H81.8145C82.0026 300.242 82.2295 299.934 82.4951 299.658C82.7607 299.375 83.0679 299.151 83.4165 298.985C83.7707 298.819 84.1636 298.736 84.5952 298.736ZM97.2954 298.736C98.297 298.736 99.0524 298.999 99.5615 299.525C100.071 300.045 100.325 300.883 100.325 302.04V308H98.9639V302.106C98.9639 301.37 98.8034 300.82 98.4824 300.455C98.167 300.084 97.6966 299.898 97.0713 299.898C96.1914 299.898 95.5522 300.153 95.1538 300.662C94.7554 301.171 94.5562 301.921 94.5562 302.912V308H93.1865V302.106C93.1865 301.614 93.1146 301.204 92.9707 300.878C92.8324 300.551 92.6221 300.308 92.3398 300.147C92.0632 299.981 91.7118 299.898 91.2856 299.898C90.6825 299.898 90.1982 300.023 89.833 300.272C89.4678 300.521 89.2021 300.892 89.0361 301.384C88.8757 301.871 88.7954 302.472 88.7954 303.186V308H87.4175V298.902H88.5298L88.7373 300.189H88.812C88.9946 299.874 89.2243 299.608 89.501 299.392C89.7777 299.176 90.0876 299.013 90.4307 298.902C90.7738 298.792 91.139 298.736 91.5264 298.736C92.2181 298.736 92.7964 298.866 93.2612 299.126C93.7316 299.381 94.0719 299.771 94.2822 300.297H94.3569C94.6558 299.771 95.0653 299.381 95.5854 299.126C96.1056 298.866 96.6756 298.736 97.2954 298.736ZM106.559 298.753C107.644 298.753 108.449 298.996 108.975 299.483C109.5 299.97 109.763 300.748 109.763 301.816V308H108.759L108.493 306.655H108.427C108.172 306.987 107.907 307.267 107.63 307.494C107.353 307.715 107.032 307.884 106.667 308C106.307 308.111 105.865 308.166 105.339 308.166C104.785 308.166 104.293 308.069 103.861 307.875C103.435 307.682 103.098 307.389 102.849 306.996C102.605 306.603 102.483 306.105 102.483 305.501C102.483 304.594 102.843 303.897 103.562 303.41C104.282 302.923 105.378 302.657 106.85 302.613L108.418 302.546V301.99C108.418 301.204 108.25 300.654 107.912 300.338C107.575 300.023 107.099 299.865 106.484 299.865C106.008 299.865 105.555 299.934 105.123 300.073C104.691 300.211 104.282 300.374 103.895 300.562L103.471 299.517C103.881 299.306 104.351 299.126 104.882 298.977C105.414 298.828 105.972 298.753 106.559 298.753ZM108.402 303.518L107.016 303.576C105.881 303.62 105.082 303.805 104.617 304.132C104.152 304.458 103.919 304.92 103.919 305.518C103.919 306.038 104.077 306.423 104.393 306.672C104.708 306.921 105.126 307.045 105.646 307.045C106.454 307.045 107.115 306.821 107.63 306.373C108.145 305.925 108.402 305.252 108.402 304.356V303.518ZM115.541 307.037C115.767 307.037 116 307.018 116.238 306.979C116.476 306.94 116.669 306.893 116.819 306.838V307.909C116.658 307.981 116.434 308.042 116.146 308.091C115.864 308.141 115.588 308.166 115.316 308.166C114.835 308.166 114.398 308.083 114.005 307.917C113.612 307.745 113.297 307.458 113.059 307.054C112.826 306.65 112.71 306.091 112.71 305.377V299.981H111.415V299.309L112.718 298.77L113.266 296.794H114.096V298.902H116.761V299.981H114.096V305.335C114.096 305.905 114.226 306.332 114.486 306.614C114.752 306.896 115.103 307.037 115.541 307.037ZM121.6 307.037C121.827 307.037 122.059 307.018 122.297 306.979C122.535 306.94 122.729 306.893 122.878 306.838V307.909C122.718 307.981 122.494 308.042 122.206 308.091C121.924 308.141 121.647 308.166 121.376 308.166C120.895 308.166 120.457 308.083 120.064 307.917C119.672 307.745 119.356 307.458 119.118 307.054C118.886 306.65 118.77 306.091 118.77 305.377V299.981H117.475V299.309L118.778 298.77L119.326 296.794H120.156V298.902H122.82V299.981H120.156V305.335C120.156 305.905 120.286 306.332 120.546 306.614C120.812 306.896 121.163 307.037 121.6 307.037ZM126.099 298.902V308H124.721V298.902H126.099ZM125.427 295.499C125.654 295.499 125.847 295.574 126.008 295.723C126.174 295.867 126.257 296.094 126.257 296.404C126.257 296.708 126.174 296.935 126.008 297.084C125.847 297.234 125.654 297.309 125.427 297.309C125.189 297.309 124.99 297.234 124.829 297.084C124.674 296.935 124.597 296.708 124.597 296.404C124.597 296.094 124.674 295.867 124.829 295.723C124.99 295.574 125.189 295.499 125.427 295.499ZM133.329 298.736C134.408 298.736 135.224 299.002 135.778 299.533C136.331 300.059 136.608 300.906 136.608 302.073V308H135.247V302.165C135.247 301.406 135.072 300.839 134.724 300.463C134.381 300.087 133.852 299.898 133.138 299.898C132.131 299.898 131.423 300.183 131.013 300.753C130.604 301.323 130.399 302.151 130.399 303.235V308H129.021V298.902H130.133L130.341 300.214H130.416C130.609 299.893 130.855 299.625 131.154 299.409C131.453 299.187 131.788 299.021 132.159 298.911C132.529 298.794 132.92 298.736 133.329 298.736ZM141.987 312.084C140.792 312.084 139.87 311.86 139.223 311.412C138.575 310.969 138.251 310.346 138.251 309.544C138.251 308.974 138.431 308.487 138.791 308.083C139.156 307.679 139.66 307.411 140.302 307.278C140.064 307.167 139.859 307.001 139.688 306.78C139.521 306.558 139.438 306.304 139.438 306.016C139.438 305.684 139.53 305.394 139.712 305.145C139.901 304.89 140.186 304.646 140.567 304.414C140.091 304.22 139.704 303.894 139.405 303.435C139.112 302.97 138.965 302.43 138.965 301.816C138.965 301.163 139.101 300.607 139.372 300.147C139.643 299.683 140.036 299.328 140.551 299.085C141.065 298.841 141.688 298.72 142.418 298.72C142.579 298.72 142.739 298.728 142.9 298.745C143.066 298.756 143.224 298.775 143.373 298.803C143.522 298.825 143.653 298.853 143.763 298.886H146.884V299.774L145.208 299.981C145.374 300.197 145.512 300.457 145.623 300.762C145.733 301.066 145.789 301.404 145.789 301.774C145.789 302.682 145.481 303.404 144.867 303.941C144.253 304.472 143.409 304.738 142.335 304.738C142.081 304.738 141.821 304.716 141.555 304.671C141.284 304.821 141.076 304.987 140.933 305.169C140.794 305.352 140.725 305.562 140.725 305.8C140.725 305.977 140.778 306.118 140.883 306.224C140.993 306.329 141.151 306.406 141.356 306.456C141.561 306.5 141.807 306.522 142.095 306.522H143.697C144.687 306.522 145.445 306.73 145.971 307.145C146.502 307.56 146.768 308.166 146.768 308.963C146.768 309.97 146.359 310.742 145.54 311.279C144.721 311.816 143.536 312.084 141.987 312.084ZM142.028 311.005C142.781 311.005 143.403 310.927 143.896 310.772C144.394 310.623 144.765 310.404 145.008 310.117C145.257 309.834 145.382 309.497 145.382 309.104C145.382 308.739 145.299 308.462 145.133 308.274C144.967 308.091 144.723 307.97 144.402 307.909C144.081 307.842 143.688 307.809 143.224 307.809H141.646C141.237 307.809 140.88 307.873 140.576 308C140.271 308.127 140.036 308.315 139.87 308.564C139.71 308.813 139.629 309.123 139.629 309.494C139.629 309.987 139.837 310.36 140.252 310.615C140.667 310.875 141.259 311.005 142.028 311.005ZM142.385 303.733C143.044 303.733 143.539 303.567 143.871 303.235C144.203 302.903 144.369 302.419 144.369 301.783C144.369 301.102 144.2 300.593 143.863 300.255C143.525 299.912 143.027 299.741 142.369 299.741C141.738 299.741 141.251 299.918 140.908 300.272C140.57 300.621 140.401 301.132 140.401 301.808C140.401 302.427 140.573 302.903 140.916 303.235C141.259 303.567 141.749 303.733 142.385 303.733ZM158.979 305.51C158.979 306.091 158.832 306.581 158.539 306.979C158.251 307.372 157.836 307.668 157.293 307.867C156.757 308.066 156.115 308.166 155.368 308.166C154.731 308.166 154.181 308.116 153.716 308.017C153.251 307.917 152.844 307.776 152.496 307.593V306.323C152.866 306.506 153.309 306.672 153.824 306.821C154.338 306.971 154.864 307.045 155.401 307.045C156.187 307.045 156.757 306.918 157.111 306.664C157.465 306.409 157.642 306.063 157.642 305.626C157.642 305.377 157.57 305.158 157.426 304.97C157.288 304.777 157.053 304.591 156.721 304.414C156.389 304.231 155.929 304.032 155.343 303.816C154.762 303.595 154.258 303.376 153.832 303.161C153.411 302.939 153.085 302.671 152.853 302.355C152.626 302.04 152.512 301.631 152.512 301.127C152.512 300.358 152.822 299.768 153.442 299.359C154.067 298.944 154.886 298.736 155.899 298.736C156.447 298.736 156.959 298.792 157.435 298.902C157.916 299.007 158.364 299.151 158.779 299.334L158.314 300.438C157.938 300.278 157.537 300.142 157.111 300.031C156.685 299.921 156.25 299.865 155.808 299.865C155.171 299.865 154.681 299.97 154.338 300.181C154.001 300.391 153.832 300.679 153.832 301.044C153.832 301.326 153.91 301.559 154.064 301.741C154.225 301.924 154.479 302.095 154.828 302.256C155.177 302.416 155.636 302.604 156.206 302.82C156.776 303.031 157.269 303.249 157.684 303.476C158.099 303.697 158.417 303.969 158.638 304.29C158.865 304.605 158.979 305.012 158.979 305.51ZM164.133 307.037C164.36 307.037 164.593 307.018 164.831 306.979C165.069 306.94 165.262 306.893 165.412 306.838V307.909C165.251 307.981 165.027 308.042 164.739 308.091C164.457 308.141 164.18 308.166 163.909 308.166C163.428 308.166 162.991 308.083 162.598 307.917C162.205 307.745 161.889 307.458 161.651 307.054C161.419 306.65 161.303 306.091 161.303 305.377V299.981H160.008V299.309L161.311 298.77L161.859 296.794H162.689V298.902H165.354V299.981H162.689V305.335C162.689 305.905 162.819 306.332 163.079 306.614C163.345 306.896 163.696 307.037 164.133 307.037ZM165.818 298.902H167.296L169.305 304.182C169.421 304.492 169.529 304.79 169.628 305.078C169.728 305.36 169.817 305.632 169.894 305.892C169.972 306.152 170.032 306.403 170.077 306.647H170.135C170.212 306.37 170.323 306.008 170.467 305.56C170.611 305.106 170.766 304.644 170.932 304.173L172.833 298.902H174.318L170.359 309.336C170.149 309.895 169.902 310.382 169.62 310.797C169.343 311.212 169.006 311.531 168.607 311.752C168.209 311.979 167.728 312.092 167.163 312.092C166.903 312.092 166.673 312.076 166.474 312.042C166.275 312.015 166.103 311.982 165.959 311.943V310.839C166.081 310.867 166.228 310.891 166.399 310.914C166.576 310.936 166.759 310.947 166.947 310.947C167.29 310.947 167.586 310.88 167.835 310.748C168.09 310.62 168.309 310.432 168.491 310.183C168.674 309.934 168.832 309.638 168.964 309.295L169.462 308.017L165.818 298.902ZM177.157 308H175.771V295.084H177.157V308ZM183.574 298.736C184.348 298.736 185.013 298.908 185.566 299.251C186.119 299.594 186.543 300.076 186.836 300.695C187.129 301.31 187.276 302.029 187.276 302.854V303.708H180.992C181.009 304.777 181.274 305.59 181.789 306.149C182.304 306.708 183.029 306.987 183.964 306.987C184.539 306.987 185.049 306.935 185.491 306.83C185.934 306.724 186.393 306.569 186.869 306.365V307.577C186.41 307.781 185.953 307.931 185.5 308.025C185.051 308.119 184.52 308.166 183.906 308.166C183.031 308.166 182.268 307.989 181.615 307.635C180.967 307.275 180.464 306.749 180.104 306.058C179.744 305.366 179.564 304.519 179.564 303.518C179.564 302.538 179.728 301.691 180.054 300.978C180.386 300.258 180.851 299.705 181.449 299.317C182.052 298.93 182.76 298.736 183.574 298.736ZM183.557 299.865C182.821 299.865 182.235 300.106 181.797 300.587C181.36 301.069 181.1 301.741 181.017 302.604H185.832C185.826 302.062 185.74 301.586 185.574 301.177C185.414 300.762 185.167 300.441 184.835 300.214C184.503 299.981 184.077 299.865 183.557 299.865Z" fill="#8287A1"/>
<g clip-path="url(#clip0_3807_34487)">
<path d="M261.5 299L266.5 304L271.5 299" stroke="#8287A1" stroke-width="2" stroke-linecap="round" stroke-linejoin="round"/>
</g>
<rect x="313" y="274.5" width="251.5" height="53" rx="7.5" fill="white"/>
<rect x="313" y="274.5" width="251.5" height="53" rx="7.5" stroke="#CCCFD3"/>
<path d="M313 279C313 276.515 315.015 274.5 317.5 274.5H370V327.5H317.5C315.015 327.5 313 325.485 313 323V279Z" fill="#F7F7FF"/>
<path d="M313 279C313 276.515 315.015 274.5 317.5 274.5H370V327.5H317.5C315.015 327.5 313 325.485 313 323V279Z" stroke="#4F56B2"/>
<path d="M336.5 301.004L341.5 301L346.5 301.004" stroke="#4F56B2" stroke-width="2" stroke-linecap="round" stroke-linejoin="round"/>
<path d="M410.942 308H409.598V299.4C409.598 299.074 409.598 298.794 409.598 298.562C409.603 298.324 409.609 298.108 409.614 297.915C409.625 297.715 409.639 297.513 409.656 297.309C409.484 297.486 409.324 297.638 409.174 297.765C409.025 297.887 408.84 298.039 408.618 298.222L407.232 299.334L406.51 298.396L409.797 295.864H410.942V308ZM426.457 305.51C426.457 306.091 426.31 306.581 426.017 306.979C425.729 307.372 425.314 307.668 424.771 307.867C424.235 308.066 423.593 308.166 422.846 308.166C422.209 308.166 421.659 308.116 421.194 308.017C420.729 307.917 420.322 307.776 419.974 307.593V306.323C420.344 306.506 420.787 306.672 421.302 306.821C421.816 306.971 422.342 307.045 422.879 307.045C423.665 307.045 424.235 306.918 424.589 306.664C424.943 306.409 425.12 306.063 425.12 305.626C425.12 305.377 425.048 305.158 424.904 304.97C424.766 304.777 424.531 304.591 424.199 304.414C423.867 304.231 423.407 304.032 422.821 303.816C422.24 303.595 421.736 303.376 421.31 303.161C420.889 302.939 420.563 302.671 420.331 302.355C420.104 302.04 419.99 301.631 419.99 301.127C419.99 300.358 420.3 299.768 420.92 299.359C421.545 298.944 422.364 298.736 423.377 298.736C423.925 298.736 424.437 298.792 424.913 298.902C425.394 299.007 425.842 299.151 426.257 299.334L425.792 300.438C425.416 300.278 425.015 300.142 424.589 300.031C424.163 299.921 423.728 299.865 423.286 299.865C422.649 299.865 422.16 299.97 421.816 300.181C421.479 300.391 421.31 300.679 421.31 301.044C421.31 301.326 421.388 301.559 421.542 301.741C421.703 301.924 421.958 302.095 422.306 302.256C422.655 302.416 423.114 302.604 423.684 302.82C424.254 303.031 424.747 303.249 425.162 303.476C425.577 303.697 425.895 303.969 426.116 304.29C426.343 304.605 426.457 305.012 426.457 305.51ZM436.517 303.435C436.517 304.182 436.42 304.848 436.227 305.435C436.033 306.022 435.753 306.517 435.388 306.921C435.023 307.325 434.58 307.635 434.06 307.851C433.545 308.061 432.962 308.166 432.309 308.166C431.7 308.166 431.141 308.061 430.632 307.851C430.128 307.635 429.691 307.325 429.32 306.921C428.955 306.517 428.67 306.022 428.465 305.435C428.266 304.848 428.167 304.182 428.167 303.435C428.167 302.438 428.335 301.592 428.673 300.895C429.01 300.192 429.492 299.658 430.117 299.292C430.748 298.922 431.498 298.736 432.367 298.736C433.197 298.736 433.922 298.922 434.542 299.292C435.167 299.663 435.651 300.2 435.994 300.903C436.343 301.6 436.517 302.444 436.517 303.435ZM429.594 303.435C429.594 304.165 429.691 304.799 429.885 305.335C430.078 305.872 430.377 306.287 430.781 306.581C431.185 306.874 431.705 307.021 432.342 307.021C432.973 307.021 433.49 306.874 433.894 306.581C434.304 306.287 434.605 305.872 434.799 305.335C434.993 304.799 435.089 304.165 435.089 303.435C435.089 302.71 434.993 302.084 434.799 301.559C434.605 301.027 434.306 300.618 433.902 300.33C433.498 300.042 432.975 299.898 432.333 299.898C431.387 299.898 430.693 300.211 430.25 300.836C429.813 301.462 429.594 302.328 429.594 303.435ZM446.412 298.902V308H445.283L445.083 306.722H445.009C444.821 307.037 444.577 307.303 444.278 307.519C443.979 307.734 443.642 307.895 443.266 308C442.895 308.111 442.499 308.166 442.079 308.166C441.359 308.166 440.756 308.05 440.269 307.817C439.782 307.585 439.414 307.225 439.165 306.738C438.922 306.251 438.8 305.626 438.8 304.862V298.902H440.194V304.763C440.194 305.521 440.366 306.088 440.709 306.464C441.052 306.835 441.575 307.021 442.278 307.021C442.953 307.021 443.49 306.893 443.888 306.639C444.292 306.384 444.583 306.011 444.76 305.518C444.937 305.02 445.025 304.411 445.025 303.692V298.902H446.412ZM453.459 298.736C453.642 298.736 453.833 298.747 454.032 298.77C454.231 298.786 454.408 298.811 454.563 298.844L454.389 300.123C454.239 300.084 454.073 300.053 453.891 300.031C453.708 300.009 453.536 299.998 453.376 299.998C453.011 299.998 452.665 300.073 452.338 300.222C452.017 300.366 451.735 300.576 451.492 300.853C451.248 301.124 451.057 301.453 450.919 301.841C450.781 302.223 450.711 302.649 450.711 303.119V308H449.325V298.902H450.471L450.62 300.579H450.678C450.866 300.242 451.093 299.934 451.359 299.658C451.625 299.375 451.932 299.151 452.28 298.985C452.634 298.819 453.027 298.736 453.459 298.736ZM459.925 308.166C459.106 308.166 458.384 307.997 457.759 307.66C457.133 307.322 456.646 306.807 456.298 306.116C455.949 305.424 455.775 304.552 455.775 303.501C455.775 302.4 455.958 301.5 456.323 300.803C456.694 300.1 457.203 299.58 457.85 299.243C458.498 298.905 459.234 298.736 460.058 298.736C460.512 298.736 460.949 298.783 461.37 298.877C461.796 298.966 462.144 299.079 462.416 299.218L462 300.372C461.724 300.261 461.403 300.161 461.038 300.073C460.678 299.984 460.34 299.94 460.025 299.94C459.394 299.94 458.868 300.076 458.448 300.347C458.033 300.618 457.72 301.016 457.51 301.542C457.305 302.068 457.203 302.715 457.203 303.484C457.203 304.22 457.302 304.848 457.501 305.369C457.706 305.889 458.008 306.287 458.406 306.564C458.81 306.835 459.314 306.971 459.917 306.971C460.398 306.971 460.833 306.921 461.22 306.821C461.608 306.716 461.959 306.594 462.274 306.456V307.685C461.97 307.84 461.63 307.958 461.253 308.042C460.883 308.125 460.44 308.166 459.925 308.166ZM467.936 298.736C468.71 298.736 469.374 298.908 469.928 299.251C470.481 299.594 470.904 300.076 471.198 300.695C471.491 301.31 471.638 302.029 471.638 302.854V303.708H465.354C465.371 304.777 465.636 305.59 466.151 306.149C466.666 306.708 467.39 306.987 468.326 306.987C468.901 306.987 469.41 306.935 469.853 306.83C470.296 306.724 470.755 306.569 471.231 306.365V307.577C470.772 307.781 470.315 307.931 469.861 308.025C469.413 308.119 468.882 308.166 468.268 308.166C467.393 308.166 466.63 307.989 465.977 307.635C465.329 307.275 464.826 306.749 464.466 306.058C464.106 305.366 463.926 304.519 463.926 303.518C463.926 302.538 464.09 301.691 464.416 300.978C464.748 300.258 465.213 299.705 465.811 299.317C466.414 298.93 467.122 298.736 467.936 298.736ZM467.919 299.865C467.183 299.865 466.596 300.106 466.159 300.587C465.722 301.069 465.462 301.741 465.379 302.604H470.193C470.188 302.062 470.102 301.586 469.936 301.177C469.776 300.762 469.529 300.441 469.197 300.214C468.865 299.981 468.439 299.865 467.919 299.865Z" fill="#252B4A"/>
<path d="M507.5 274.5H560C562.485 274.5 564.5 276.515 564.5 279V323C564.5 325.485 562.485 327.5 560 327.5H507.5V274.5Z" fill="#F7F7FF"/>
<path d="M507.5 274.5H560C562.485 274.5 564.5 276.515 564.5 279V323C564.5 325.485 562.485 327.5 560 327.5H507.5V274.5Z" stroke="#4F56B2"/>
<path d="M531 301.004L536 301L541 301.004" stroke="#4F56B2" stroke-width="2" stroke-linecap="round" stroke-linejoin="round"/>
<path d="M536.002 306L535.998 301L536.002 296" stroke="#4F56B2" stroke-width="2" stroke-linecap="round" stroke-linejoin="round"/>
<defs>
<clipPath id="clip0_3807_34487">
<rect width="12" height="12" fill="white" transform="translate(260.5 295)"/>
</clipPath>
</defs>
</svg>
