<svg width="605" height="368" viewBox="0 0 605 368" fill="none" xmlns="http://www.w3.org/2000/svg">
<rect width="605" height="368" rx="12" fill="#F7F7FF"/>
<rect x="39.5" y="39.5" width="526" height="55" rx="8.5" stroke="#CCCFD3"/>
<path d="M40.5 52.8C40.5 50.5515 40.5004 48.8953 40.6073 47.5863C40.7138 46.2832 40.9234 45.3685 41.3175 44.5951C42.0365 43.1839 43.1839 42.0365 44.5951 41.3175C45.3685 40.9234 46.2832 40.7138 47.5863 40.6073C48.8953 40.5004 50.5515 40.5 52.8 40.5H166.5V93.5H52.8C50.5515 93.5 48.8953 93.4996 47.5863 93.3927C46.2832 93.2862 45.3685 93.0766 44.5951 92.6825C43.1839 91.9635 42.0365 90.8161 41.3175 89.4049C40.9234 88.6315 40.7138 87.7168 40.6073 86.4137C40.5004 85.1047 40.5 83.4485 40.5 81.2V52.8Z" fill="#4F56B2"/>
<path d="M40.5 52.8C40.5 50.5515 40.5004 48.8953 40.6073 47.5863C40.7138 46.2832 40.9234 45.3685 41.3175 44.5951C42.0365 43.1839 43.1839 42.0365 44.5951 41.3175C45.3685 40.9234 46.2832 40.7138 47.5863 40.6073C48.8953 40.5004 50.5515 40.5 52.8 40.5H166.5V93.5H52.8C50.5515 93.5 48.8953 93.4996 47.5863 93.3927C46.2832 93.2862 45.3685 93.0766 44.5951 92.6825C43.1839 91.9635 42.0365 90.8161 41.3175 89.4049C40.9234 88.6315 40.7138 87.7168 40.6073 86.4137C40.5004 85.1047 40.5 83.4485 40.5 81.2V52.8Z" stroke="#4F56B2"/>
<path d="M88.4355 61.8643L85.3477 74H82.4175L80.7739 67.625C80.7407 67.5033 80.6965 67.3179 80.6411 67.0688C80.5858 66.8198 80.5277 66.5487 80.4668 66.2554C80.4059 65.9565 80.3506 65.6771 80.3008 65.417C80.2565 65.1514 80.2261 64.9411 80.2095 64.7861C80.1929 64.9411 80.1597 65.1486 80.1099 65.4087C80.0656 65.6688 80.013 65.9455 79.9521 66.2388C79.8968 66.5321 79.8415 66.806 79.7861 67.0605C79.7308 67.3151 79.6865 67.5088 79.6533 67.6416L78.0181 74H75.0962L72 61.8643H74.5317L76.084 68.4883C76.1283 68.6875 76.1781 68.9255 76.2334 69.2021C76.2943 69.4788 76.3524 69.7694 76.4077 70.0737C76.4686 70.3726 76.5212 70.6631 76.5654 70.9453C76.6152 71.222 76.6512 71.4627 76.6733 71.6675C76.701 71.4572 76.737 71.2137 76.7812 70.937C76.8255 70.6548 76.8726 70.3698 76.9224 70.082C76.9777 69.7887 77.033 69.5176 77.0884 69.2686C77.1437 69.0195 77.1935 68.8175 77.2378 68.6626L79.0059 61.8643H81.438L83.2061 68.6626C83.2448 68.812 83.2891 69.014 83.3389 69.2686C83.3942 69.5176 83.4495 69.7887 83.5049 70.082C83.5602 70.3753 83.61 70.6631 83.6543 70.9453C83.7041 71.222 83.7401 71.4627 83.7622 71.6675C83.8009 71.3908 83.8535 71.056 83.9199 70.6631C83.9919 70.2646 84.0666 69.869 84.144 69.4761C84.2271 69.0832 84.299 68.7539 84.3599 68.4883L85.9038 61.8643H88.4355ZM94.9434 64.5454C95.0706 64.5454 95.2173 64.5537 95.3833 64.5703C95.5549 64.5814 95.6932 64.598 95.7983 64.6201L95.6074 66.9941C95.5244 66.9665 95.4054 66.9471 95.2505 66.936C95.1011 66.9194 94.971 66.9111 94.8604 66.9111C94.5339 66.9111 94.2157 66.9526 93.9058 67.0356C93.6014 67.1187 93.3275 67.2542 93.084 67.4424C92.8405 67.625 92.6468 67.8685 92.5029 68.1729C92.3646 68.4717 92.2954 68.8397 92.2954 69.2769V74H89.7637V64.7197H91.6812L92.0547 66.2803H92.1792C92.3618 65.9648 92.5887 65.6771 92.8599 65.417C93.1366 65.1514 93.4492 64.9411 93.7979 64.7861C94.152 64.6257 94.5339 64.5454 94.9434 64.5454ZM100.015 64.7197V74H97.4834V64.7197H100.015ZM98.7534 61.084C99.1297 61.084 99.4535 61.1725 99.7246 61.3496C99.9958 61.5212 100.131 61.8449 100.131 62.3208C100.131 62.7912 99.9958 63.1177 99.7246 63.3003C99.4535 63.4774 99.1297 63.5659 98.7534 63.5659C98.3716 63.5659 98.0451 63.4774 97.7739 63.3003C97.5083 63.1177 97.3755 62.7912 97.3755 62.3208C97.3755 61.8449 97.5083 61.5212 97.7739 61.3496C98.0451 61.1725 98.3716 61.084 98.7534 61.084ZM106.589 72.1489C106.866 72.1489 107.134 72.1213 107.395 72.0659C107.66 72.0106 107.923 71.9414 108.183 71.8584V73.7427C107.912 73.8644 107.574 73.964 107.17 74.0415C106.772 74.1245 106.335 74.166 105.859 74.166C105.306 74.166 104.807 74.0775 104.365 73.9004C103.928 73.7178 103.582 73.4051 103.327 72.9624C103.078 72.5142 102.954 71.8916 102.954 71.0947V66.6206H101.742V65.5498L103.136 64.7031L103.867 62.7441H105.485V64.7197H108.083V66.6206H105.485V71.0947C105.485 71.4489 105.585 71.7145 105.784 71.8916C105.989 72.0632 106.257 72.1489 106.589 72.1489ZM112.599 64.7197V74H110.067V64.7197H112.599ZM111.337 61.084C111.714 61.084 112.037 61.1725 112.309 61.3496C112.58 61.5212 112.715 61.8449 112.715 62.3208C112.715 62.7912 112.58 63.1177 112.309 63.3003C112.037 63.4774 111.714 63.5659 111.337 63.5659C110.956 63.5659 110.629 63.4774 110.358 63.3003C110.092 63.1177 109.959 62.7912 109.959 62.3208C109.959 61.8449 110.092 61.5212 110.358 61.3496C110.629 61.1725 110.956 61.084 111.337 61.084ZM120.535 64.5454C121.525 64.5454 122.322 64.8166 122.925 65.3589C123.528 65.8957 123.83 66.759 123.83 67.9487V74H121.298V68.5796C121.298 67.9155 121.177 67.4147 120.933 67.0771C120.695 66.7396 120.319 66.5708 119.804 66.5708C119.029 66.5708 118.501 66.8337 118.219 67.3594C117.937 67.8851 117.795 68.6432 117.795 69.6338V74H115.264V64.7197H117.198L117.538 65.9067H117.679C117.878 65.5858 118.125 65.3257 118.418 65.1265C118.717 64.9272 119.046 64.7806 119.406 64.6865C119.771 64.5924 120.147 64.5454 120.535 64.5454ZM129.151 78.084C127.856 78.084 126.865 77.8571 126.179 77.4033C125.499 76.9551 125.158 76.3242 125.158 75.5107C125.158 74.9518 125.333 74.4842 125.681 74.1079C126.03 73.7316 126.542 73.4632 127.217 73.3027C126.957 73.1921 126.73 73.0122 126.536 72.7632C126.342 72.5086 126.246 72.2402 126.246 71.958C126.246 71.6038 126.348 71.3105 126.553 71.0781C126.757 70.8402 127.054 70.6077 127.441 70.3809C126.954 70.1706 126.567 69.833 126.279 69.3682C125.997 68.9033 125.855 68.3555 125.855 67.7246C125.855 67.0495 126.002 66.4767 126.295 66.0063C126.594 65.5304 127.026 65.168 127.59 64.9189C128.16 64.6699 128.852 64.5454 129.666 64.5454C129.837 64.5454 130.036 64.5565 130.263 64.5786C130.49 64.6007 130.698 64.6257 130.886 64.6533C131.079 64.681 131.209 64.7031 131.276 64.7197H134.513V66.0063L133.061 66.3799C133.193 66.5846 133.293 66.8032 133.359 67.0356C133.426 67.2681 133.459 67.5143 133.459 67.7744C133.459 68.7705 133.11 69.548 132.413 70.1069C131.721 70.6603 130.758 70.937 129.524 70.937C129.231 70.9204 128.954 70.8983 128.694 70.8706C128.567 70.9702 128.47 71.0754 128.404 71.186C128.337 71.2967 128.304 71.4129 128.304 71.5347C128.304 71.6564 128.354 71.7588 128.454 71.8418C128.559 71.9193 128.714 71.9801 128.918 72.0244C129.129 72.0632 129.389 72.0825 129.699 72.0825H131.276C132.294 72.0825 133.069 72.3011 133.6 72.7383C134.137 73.1755 134.405 73.8174 134.405 74.6641C134.405 75.7487 133.951 76.5898 133.044 77.1875C132.142 77.7852 130.844 78.084 129.151 78.084ZM129.259 76.4321C129.862 76.4321 130.379 76.374 130.811 76.2578C131.248 76.1471 131.583 75.9867 131.815 75.7764C132.048 75.5716 132.164 75.3254 132.164 75.0376C132.164 74.8052 132.095 74.6198 131.957 74.4814C131.824 74.3486 131.619 74.2546 131.342 74.1992C131.071 74.1439 130.722 74.1162 130.296 74.1162H128.985C128.675 74.1162 128.396 74.166 128.146 74.2656C127.903 74.3652 127.709 74.5036 127.565 74.6807C127.422 74.8633 127.35 75.0736 127.35 75.3115C127.35 75.6602 127.516 75.9341 127.848 76.1333C128.185 76.3325 128.656 76.4321 129.259 76.4321ZM129.666 69.3931C130.141 69.3931 130.49 69.2464 130.711 68.9531C130.933 68.6598 131.043 68.2614 131.043 67.7578C131.043 67.1989 130.927 66.7811 130.695 66.5044C130.468 66.2222 130.125 66.0811 129.666 66.0811C129.201 66.0811 128.852 66.2222 128.62 66.5044C128.387 66.7811 128.271 67.1989 128.271 67.7578C128.271 68.2614 128.384 68.6598 128.611 68.9531C128.844 69.2464 129.195 69.3931 129.666 69.3931Z" fill="white"/>
<mask id="path-5-inside-1_3808_38012" fill="white">
<path d="M167 40H294V94H167V40Z"/>
</mask>
<path d="M167 40H294V94H167V40Z" fill="white"/>
<path d="M293 40V94H295V40H293Z" fill="#CCCFD3" mask="url(#path-5-inside-1_3808_38012)"/>
<path d="M211.417 74H204.66V61.8643H211.417V63.1094H206.071V67.0356H211.11V68.2642H206.071V72.7549H211.417V74ZM217.136 74.166C215.985 74.166 215.072 73.7731 214.397 72.9873C213.727 72.2015 213.393 71.0339 213.393 69.4844C213.393 67.9183 213.736 66.7368 214.422 65.9399C215.108 65.1375 216.021 64.7363 217.161 64.7363C217.643 64.7363 218.063 64.8 218.423 64.9272C218.783 65.0545 219.092 65.2261 219.353 65.4419C219.613 65.6522 219.831 65.8929 220.008 66.1641H220.108C220.086 65.9925 220.064 65.7573 220.042 65.4585C220.019 65.1597 220.008 64.9162 220.008 64.728V61.084H221.386V74H220.274L220.066 72.7051H220.008C219.837 72.9762 219.618 73.2225 219.353 73.4438C219.092 73.6652 218.78 73.8423 218.415 73.9751C218.055 74.1024 217.629 74.166 217.136 74.166ZM217.352 73.0205C218.326 73.0205 219.015 72.7438 219.419 72.1904C219.823 71.637 220.025 70.8153 220.025 69.7251V69.4761C220.025 68.3195 219.831 67.4313 219.444 66.8115C219.062 66.1917 218.365 65.8818 217.352 65.8818C216.505 65.8818 215.872 66.2083 215.451 66.8613C215.031 67.5088 214.82 68.3942 214.82 69.5176C214.82 70.6354 215.028 71.4987 215.443 72.1074C215.863 72.7161 216.5 73.0205 217.352 73.0205ZM225.686 64.9023V74H224.308V64.9023H225.686ZM225.014 61.499C225.241 61.499 225.434 61.5737 225.595 61.7231C225.761 61.867 225.844 62.0939 225.844 62.4038C225.844 62.7082 225.761 62.9351 225.595 63.0845C225.434 63.2339 225.241 63.3086 225.014 63.3086C224.776 63.3086 224.576 63.2339 224.416 63.0845C224.261 62.9351 224.184 62.7082 224.184 62.4038C224.184 62.0939 224.261 61.867 224.416 61.7231C224.576 61.5737 224.776 61.499 225.014 61.499ZM231.546 73.0371C231.773 73.0371 232.006 73.0177 232.244 72.979C232.482 72.9403 232.675 72.8932 232.825 72.8379V73.9087C232.664 73.9806 232.44 74.0415 232.152 74.0913C231.87 74.1411 231.593 74.166 231.322 74.166C230.841 74.166 230.404 74.083 230.011 73.917C229.618 73.7454 229.302 73.4577 229.064 73.0537C228.832 72.6497 228.716 72.0908 228.716 71.377V65.9814H227.421V65.3091L228.724 64.7695L229.272 62.7939H230.102V64.9023H232.767V65.9814H230.102V71.3354C230.102 71.9054 230.232 72.3315 230.492 72.6138C230.758 72.896 231.109 73.0371 231.546 73.0371ZM236.045 64.9023V74H234.667V64.9023H236.045ZM235.373 61.499C235.6 61.499 235.794 61.5737 235.954 61.7231C236.12 61.867 236.203 62.0939 236.203 62.4038C236.203 62.7082 236.12 62.9351 235.954 63.0845C235.794 63.2339 235.6 63.3086 235.373 63.3086C235.135 63.3086 234.936 63.2339 234.775 63.0845C234.62 62.9351 234.543 62.7082 234.543 62.4038C234.543 62.0939 234.62 61.867 234.775 61.7231C234.936 61.5737 235.135 61.499 235.373 61.499ZM243.275 64.7363C244.354 64.7363 245.171 65.002 245.724 65.5332C246.278 66.0589 246.554 66.9056 246.554 68.0732V74H245.193V68.1646C245.193 67.4064 245.019 66.8392 244.67 66.4629C244.327 66.0866 243.798 65.8984 243.084 65.8984C242.077 65.8984 241.369 66.1834 240.959 66.7534C240.55 67.3234 240.345 68.1507 240.345 69.2354V74H238.967V64.9023H240.08L240.287 66.2139H240.362C240.556 65.8929 240.802 65.6245 241.101 65.4087C241.399 65.1873 241.734 65.0213 242.105 64.9106C242.476 64.7944 242.866 64.7363 243.275 64.7363ZM251.933 78.084C250.738 78.084 249.816 77.8599 249.169 77.4116C248.521 76.9689 248.198 76.3464 248.198 75.5439C248.198 74.974 248.378 74.487 248.737 74.083C249.103 73.679 249.606 73.4106 250.248 73.2778C250.01 73.1672 249.805 73.0011 249.634 72.7798C249.468 72.5584 249.385 72.3039 249.385 72.0161C249.385 71.6841 249.476 71.3936 249.659 71.1445C249.847 70.89 250.132 70.6465 250.514 70.4141C250.038 70.2204 249.65 69.8939 249.352 69.4346C249.058 68.9697 248.912 68.4302 248.912 67.8159C248.912 67.1629 249.047 66.6068 249.318 66.1475C249.59 65.6826 249.982 65.3285 250.497 65.085C251.012 64.8415 251.634 64.7197 252.365 64.7197C252.525 64.7197 252.686 64.728 252.846 64.7446C253.012 64.7557 253.17 64.7751 253.319 64.8027C253.469 64.8249 253.599 64.8525 253.709 64.8857H256.831V65.7739L255.154 65.9814C255.32 66.1973 255.458 66.4574 255.569 66.7617C255.68 67.0661 255.735 67.4036 255.735 67.7744C255.735 68.682 255.428 69.4041 254.813 69.9409C254.199 70.4722 253.355 70.7378 252.282 70.7378C252.027 70.7378 251.767 70.7157 251.501 70.6714C251.23 70.8208 251.023 70.9868 250.879 71.1694C250.741 71.3521 250.671 71.5623 250.671 71.8003C250.671 71.9774 250.724 72.1185 250.829 72.2236C250.94 72.3288 251.097 72.4062 251.302 72.4561C251.507 72.5003 251.753 72.5225 252.041 72.5225H253.643C254.634 72.5225 255.392 72.73 255.917 73.145C256.449 73.5601 256.714 74.166 256.714 74.9629C256.714 75.9701 256.305 76.742 255.486 77.2788C254.667 77.8156 253.483 78.084 251.933 78.084ZM251.975 77.0049C252.727 77.0049 253.35 76.9274 253.842 76.7725C254.34 76.623 254.711 76.4045 254.955 76.1167C255.204 75.8345 255.328 75.4969 255.328 75.104C255.328 74.7388 255.245 74.4621 255.079 74.2739C254.913 74.0913 254.67 73.9696 254.349 73.9087C254.028 73.8423 253.635 73.8091 253.17 73.8091H251.593C251.183 73.8091 250.826 73.8727 250.522 74C250.218 74.1273 249.982 74.3154 249.816 74.5645C249.656 74.8135 249.576 75.1234 249.576 75.4941C249.576 75.9867 249.783 76.3602 250.198 76.6147C250.613 76.8748 251.205 77.0049 251.975 77.0049ZM252.332 69.7334C252.99 69.7334 253.485 69.5674 253.817 69.2354C254.149 68.9033 254.315 68.4191 254.315 67.7827C254.315 67.1021 254.147 66.5929 253.809 66.2554C253.472 65.9123 252.973 65.7407 252.315 65.7407C251.684 65.7407 251.197 65.9178 250.854 66.272C250.516 66.6206 250.348 67.1325 250.348 67.8076C250.348 68.4274 250.519 68.9033 250.862 69.2354C251.205 69.5674 251.695 69.7334 252.332 69.7334Z" fill="#8287A1"/>
<mask id="path-8-inside-2_3808_38012" fill="white">
<path d="M294 40H438V94H294V40Z"/>
</mask>
<path d="M294 40H438V94H294V40Z" fill="white"/>
<path d="M437 40V94H439V40H437Z" fill="#CCCFD3" mask="url(#path-8-inside-2_3808_38012)"/>
<path d="M318.831 61.8643C320.397 61.8643 321.54 62.1714 322.259 62.7856C322.984 63.3944 323.347 64.2687 323.347 65.4087C323.347 65.9233 323.261 66.4131 323.089 66.8779C322.923 67.3372 322.652 67.744 322.276 68.0981C321.9 68.4468 321.404 68.7235 320.79 68.9282C320.181 69.1274 319.434 69.2271 318.549 69.2271H317.071V74H315.66V61.8643H318.831ZM318.698 63.0679H317.071V68.0151H318.391C319.166 68.0151 319.811 67.9321 320.325 67.7661C320.845 67.6001 321.236 67.3317 321.496 66.9609C321.756 66.5846 321.886 66.0866 321.886 65.4668C321.886 64.6589 321.628 64.0584 321.114 63.6655C320.599 63.2671 319.794 63.0679 318.698 63.0679ZM329.813 64.7363C329.996 64.7363 330.187 64.7474 330.386 64.7695C330.585 64.7861 330.762 64.811 330.917 64.8442L330.743 66.1226C330.593 66.0838 330.427 66.0534 330.245 66.0312C330.062 66.0091 329.89 65.998 329.73 65.998C329.365 65.998 329.019 66.0728 328.692 66.2222C328.371 66.366 328.089 66.5763 327.846 66.853C327.602 67.1242 327.411 67.4535 327.273 67.8408C327.135 68.2227 327.065 68.6488 327.065 69.1191V74H325.679V64.9023H326.825L326.974 66.5791H327.032C327.22 66.2415 327.447 65.9344 327.713 65.6577C327.979 65.3755 328.286 65.1514 328.634 64.9854C328.988 64.8193 329.381 64.7363 329.813 64.7363ZM340.479 69.4346C340.479 70.1816 340.383 70.8485 340.189 71.4351C339.995 72.0216 339.716 72.5169 339.351 72.9209C338.985 73.3249 338.543 73.6348 338.022 73.8506C337.508 74.0609 336.924 74.166 336.271 74.166C335.662 74.166 335.103 74.0609 334.594 73.8506C334.091 73.6348 333.653 73.3249 333.283 72.9209C332.917 72.5169 332.632 72.0216 332.428 71.4351C332.229 70.8485 332.129 70.1816 332.129 69.4346C332.129 68.4385 332.298 67.5918 332.635 66.8945C332.973 66.1917 333.454 65.6577 334.08 65.2925C334.71 64.9217 335.46 64.7363 336.329 64.7363C337.159 64.7363 337.884 64.9217 338.504 65.2925C339.129 65.6632 339.613 66.2 339.957 66.9028C340.305 67.6001 340.479 68.444 340.479 69.4346ZM333.557 69.4346C333.557 70.165 333.653 70.7987 333.847 71.3354C334.041 71.8722 334.34 72.2873 334.744 72.5806C335.148 72.8739 335.668 73.0205 336.304 73.0205C336.935 73.0205 337.452 72.8739 337.856 72.5806C338.266 72.2873 338.568 71.8722 338.761 71.3354C338.955 70.7987 339.052 70.165 339.052 69.4346C339.052 68.7096 338.955 68.0843 338.761 67.5586C338.568 67.0273 338.269 66.6178 337.865 66.3301C337.461 66.0423 336.938 65.8984 336.296 65.8984C335.35 65.8984 334.655 66.2111 334.212 66.8364C333.775 67.4618 333.557 68.3278 333.557 69.4346ZM350.706 69.4346C350.706 70.1816 350.609 70.8485 350.416 71.4351C350.222 72.0216 349.942 72.5169 349.577 72.9209C349.212 73.3249 348.769 73.6348 348.249 73.8506C347.734 74.0609 347.151 74.166 346.498 74.166C345.889 74.166 345.33 74.0609 344.821 73.8506C344.317 73.6348 343.88 73.3249 343.509 72.9209C343.144 72.5169 342.859 72.0216 342.654 71.4351C342.455 70.8485 342.355 70.1816 342.355 69.4346C342.355 68.4385 342.524 67.5918 342.862 66.8945C343.199 66.1917 343.681 65.6577 344.306 65.2925C344.937 64.9217 345.687 64.7363 346.556 64.7363C347.386 64.7363 348.111 64.9217 348.73 65.2925C349.356 65.6632 349.84 66.2 350.183 66.9028C350.532 67.6001 350.706 68.444 350.706 69.4346ZM343.783 69.4346C343.783 70.165 343.88 70.7987 344.074 71.3354C344.267 71.8722 344.566 72.2873 344.97 72.5806C345.374 72.8739 345.894 73.0205 346.531 73.0205C347.162 73.0205 347.679 72.8739 348.083 72.5806C348.493 72.2873 348.794 71.8722 348.988 71.3354C349.181 70.7987 349.278 70.165 349.278 69.4346C349.278 68.7096 349.181 68.0843 348.988 67.5586C348.794 67.0273 348.495 66.6178 348.091 66.3301C347.687 66.0423 347.164 65.8984 346.522 65.8984C345.576 65.8984 344.882 66.2111 344.439 66.8364C344.002 67.4618 343.783 68.3278 343.783 69.4346ZM357.139 65.9814H354.873V74H353.495V65.9814H351.885V65.3174L353.495 64.8608V64.2549C353.495 63.4912 353.609 62.8714 353.835 62.3955C354.062 61.9141 354.392 61.5599 354.823 61.333C355.255 61.1061 355.781 60.9927 356.4 60.9927C356.749 60.9927 357.067 61.0231 357.355 61.084C357.648 61.1449 357.906 61.214 358.127 61.2915L357.77 62.3789C357.582 62.318 357.369 62.2627 357.131 62.2129C356.898 62.1576 356.66 62.1299 356.417 62.1299C355.891 62.1299 355.501 62.3014 355.247 62.6445C354.998 62.9821 354.873 63.5133 354.873 64.2383V64.9023H357.139V65.9814ZM362.95 64.7363C363.132 64.7363 363.323 64.7474 363.522 64.7695C363.722 64.7861 363.899 64.811 364.054 64.8442L363.879 66.1226C363.73 66.0838 363.564 66.0534 363.381 66.0312C363.199 66.0091 363.027 65.998 362.867 65.998C362.501 65.998 362.156 66.0728 361.829 66.2222C361.508 66.366 361.226 66.5763 360.982 66.853C360.739 67.1242 360.548 67.4535 360.41 67.8408C360.271 68.2227 360.202 68.6488 360.202 69.1191V74H358.816V64.9023H359.961L360.111 66.5791H360.169C360.357 66.2415 360.584 65.9344 360.85 65.6577C361.115 65.3755 361.422 65.1514 361.771 64.9854C362.125 64.8193 362.518 64.7363 362.95 64.7363ZM369.275 64.7363C370.05 64.7363 370.714 64.9079 371.267 65.251C371.82 65.5941 372.244 66.0755 372.537 66.6953C372.83 67.3096 372.977 68.029 372.977 68.8535V69.7085H366.693C366.71 70.7765 366.976 71.59 367.49 72.1489C368.005 72.7078 368.73 72.9873 369.665 72.9873C370.241 72.9873 370.75 72.9347 371.192 72.8296C371.635 72.7244 372.094 72.5695 372.57 72.3647V73.5767C372.111 73.7814 371.654 73.9308 371.201 74.0249C370.752 74.119 370.221 74.166 369.607 74.166C368.733 74.166 367.969 73.9889 367.316 73.6348C366.668 73.2751 366.165 72.7493 365.805 72.0576C365.445 71.3659 365.266 70.5192 365.266 69.5176C365.266 68.5381 365.429 67.6914 365.755 66.9775C366.087 66.2581 366.552 65.7048 367.15 65.3174C367.753 64.93 368.461 64.7363 369.275 64.7363ZM369.258 65.8652C368.522 65.8652 367.936 66.106 367.499 66.5874C367.061 67.0688 366.801 67.7412 366.718 68.6045H371.533C371.527 68.0622 371.441 67.5863 371.275 67.1768C371.115 66.7617 370.869 66.4408 370.537 66.2139C370.205 65.9814 369.778 65.8652 369.258 65.8652ZM378.721 64.7529C379.806 64.7529 380.611 64.9964 381.137 65.4834C381.662 65.9704 381.925 66.7479 381.925 67.8159V74H380.921L380.655 72.6553H380.589C380.334 72.9873 380.069 73.2668 379.792 73.4937C379.515 73.715 379.194 73.8838 378.829 74C378.469 74.1107 378.027 74.166 377.501 74.166C376.948 74.166 376.455 74.0692 376.023 73.8755C375.597 73.6818 375.26 73.3885 375.011 72.9956C374.767 72.6027 374.646 72.1047 374.646 71.5015C374.646 70.5939 375.005 69.8966 375.725 69.4097C376.444 68.9227 377.54 68.6571 379.012 68.6128L380.581 68.5464V67.9902C380.581 67.2044 380.412 66.6538 380.074 66.3384C379.737 66.0229 379.261 65.8652 378.646 65.8652C378.171 65.8652 377.717 65.9344 377.285 66.0728C376.854 66.2111 376.444 66.3743 376.057 66.5625L375.633 65.5166C376.043 65.3063 376.513 65.1265 377.044 64.9771C377.576 64.8276 378.135 64.7529 378.721 64.7529ZM380.564 69.5176L379.178 69.5757C378.043 69.62 377.244 69.8053 376.779 70.1318C376.314 70.4583 376.082 70.9204 376.082 71.5181C376.082 72.0382 376.239 72.4229 376.555 72.6719C376.87 72.9209 377.288 73.0454 377.808 73.0454C378.616 73.0454 379.277 72.8213 379.792 72.373C380.307 71.9248 380.564 71.2524 380.564 70.356V69.5176ZM388.001 74.166C386.85 74.166 385.937 73.7731 385.262 72.9873C384.593 72.2015 384.258 71.0339 384.258 69.4844C384.258 67.9183 384.601 66.7368 385.287 65.9399C385.973 65.1375 386.886 64.7363 388.026 64.7363C388.508 64.7363 388.928 64.8 389.288 64.9272C389.648 65.0545 389.958 65.2261 390.218 65.4419C390.478 65.6522 390.696 65.8929 390.874 66.1641H390.973C390.951 65.9925 390.929 65.7573 390.907 65.4585C390.885 65.1597 390.874 64.9162 390.874 64.728V61.084H392.251V74H391.139L390.932 72.7051H390.874C390.702 72.9762 390.483 73.2225 390.218 73.4438C389.958 73.6652 389.645 73.8423 389.28 73.9751C388.92 74.1024 388.494 74.166 388.001 74.166ZM388.217 73.0205C389.191 73.0205 389.88 72.7438 390.284 72.1904C390.688 71.637 390.89 70.8153 390.89 69.7251V69.4761C390.89 68.3195 390.696 67.4313 390.309 66.8115C389.927 66.1917 389.23 65.8818 388.217 65.8818C387.371 65.8818 386.737 66.2083 386.316 66.8613C385.896 67.5088 385.686 68.3942 385.686 69.5176C385.686 70.6354 385.893 71.4987 386.308 72.1074C386.729 72.7161 387.365 73.0205 388.217 73.0205ZM396.551 64.9023V74H395.173V64.9023H396.551ZM395.879 61.499C396.106 61.499 396.299 61.5737 396.46 61.7231C396.626 61.867 396.709 62.0939 396.709 62.4038C396.709 62.7082 396.626 62.9351 396.46 63.0845C396.299 63.2339 396.106 63.3086 395.879 63.3086C395.641 63.3086 395.442 63.2339 395.281 63.0845C395.126 62.9351 395.049 62.7082 395.049 62.4038C395.049 62.0939 395.126 61.867 395.281 61.7231C395.442 61.5737 395.641 61.499 395.879 61.499ZM403.781 64.7363C404.86 64.7363 405.677 65.002 406.23 65.5332C406.783 66.0589 407.06 66.9056 407.06 68.0732V74H405.699V68.1646C405.699 67.4064 405.524 66.8392 405.176 66.4629C404.833 66.0866 404.304 65.8984 403.59 65.8984C402.583 65.8984 401.875 66.1834 401.465 66.7534C401.056 67.3234 400.851 68.1507 400.851 69.2354V74H399.473V64.9023H400.585L400.793 66.2139H400.868C401.061 65.8929 401.308 65.6245 401.606 65.4087C401.905 65.1873 402.24 65.0213 402.611 64.9106C402.982 64.7944 403.372 64.7363 403.781 64.7363ZM412.439 78.084C411.244 78.084 410.322 77.8599 409.675 77.4116C409.027 76.9689 408.704 76.3464 408.704 75.5439C408.704 74.974 408.883 74.487 409.243 74.083C409.608 73.679 410.112 73.4106 410.754 73.2778C410.516 73.1672 410.311 73.0011 410.14 72.7798C409.974 72.5584 409.891 72.3039 409.891 72.0161C409.891 71.6841 409.982 71.3936 410.165 71.1445C410.353 70.89 410.638 70.6465 411.02 70.4141C410.544 70.2204 410.156 69.8939 409.857 69.4346C409.564 68.9697 409.417 68.4302 409.417 67.8159C409.417 67.1629 409.553 66.6068 409.824 66.1475C410.095 65.6826 410.488 65.3285 411.003 65.085C411.518 64.8415 412.14 64.7197 412.871 64.7197C413.031 64.7197 413.192 64.728 413.352 64.7446C413.518 64.7557 413.676 64.7751 413.825 64.8027C413.975 64.8249 414.105 64.8525 414.215 64.8857H417.336V65.7739L415.66 65.9814C415.826 66.1973 415.964 66.4574 416.075 66.7617C416.185 67.0661 416.241 67.4036 416.241 67.7744C416.241 68.682 415.934 69.4041 415.319 69.9409C414.705 70.4722 413.861 70.7378 412.788 70.7378C412.533 70.7378 412.273 70.7157 412.007 70.6714C411.736 70.8208 411.529 70.9868 411.385 71.1694C411.246 71.3521 411.177 71.5623 411.177 71.8003C411.177 71.9774 411.23 72.1185 411.335 72.2236C411.446 72.3288 411.603 72.4062 411.808 72.4561C412.013 72.5003 412.259 72.5225 412.547 72.5225H414.149C415.139 72.5225 415.898 72.73 416.423 73.145C416.955 73.5601 417.22 74.166 417.22 74.9629C417.22 75.9701 416.811 76.742 415.992 77.2788C415.173 77.8156 413.988 78.084 412.439 78.084ZM412.48 77.0049C413.233 77.0049 413.856 76.9274 414.348 76.7725C414.846 76.623 415.217 76.4045 415.46 76.1167C415.709 75.8345 415.834 75.4969 415.834 75.104C415.834 74.7388 415.751 74.4621 415.585 74.2739C415.419 74.0913 415.175 73.9696 414.854 73.9087C414.534 73.8423 414.141 73.8091 413.676 73.8091H412.099C411.689 73.8091 411.332 73.8727 411.028 74C410.723 74.1273 410.488 74.3154 410.322 74.5645C410.162 74.8135 410.082 75.1234 410.082 75.4941C410.082 75.9867 410.289 76.3602 410.704 76.6147C411.119 76.8748 411.711 77.0049 412.48 77.0049ZM412.837 69.7334C413.496 69.7334 413.991 69.5674 414.323 69.2354C414.655 68.9033 414.821 68.4191 414.821 67.7827C414.821 67.1021 414.653 66.5929 414.315 66.2554C413.977 65.9123 413.479 65.7407 412.821 65.7407C412.19 65.7407 411.703 65.9178 411.36 66.272C411.022 66.6206 410.854 67.1325 410.854 67.8076C410.854 68.4274 411.025 68.9033 411.368 69.2354C411.711 69.5674 412.201 69.7334 412.837 69.7334Z" fill="#8287A1"/>
<path d="M438 40H550.765C555.748 40 558.239 40 560.142 40.9697C561.816 41.8227 563.177 43.1838 564.03 44.8579C565 46.7611 565 49.2525 565 54.2353V81.2C565 85.6804 565 87.9206 564.128 89.6319C563.361 91.1372 562.137 92.3611 560.632 93.1281C558.921 94 556.68 94 552.2 94H438V40Z" fill="white"/>
<path d="M490.186 67.9155C490.186 68.8507 490.067 69.703 489.829 70.4722C489.591 71.2358 489.236 71.8944 488.766 72.4478C488.301 72.9956 487.723 73.4189 487.031 73.7178C486.34 74.0166 485.537 74.166 484.624 74.166C483.683 74.166 482.861 74.0166 482.159 73.7178C481.461 73.4189 480.88 72.9928 480.416 72.4395C479.956 71.8861 479.61 71.2248 479.378 70.4556C479.151 69.6864 479.038 68.8341 479.038 67.8989C479.038 66.6593 479.242 65.5719 479.652 64.6367C480.061 63.7015 480.681 62.9738 481.511 62.4536C482.347 61.9334 483.393 61.6733 484.649 61.6733C485.85 61.6733 486.86 61.9307 487.679 62.4453C488.503 62.96 489.126 63.6849 489.546 64.6201C489.972 65.5498 490.186 66.6483 490.186 67.9155ZM480.523 67.9155C480.523 68.9448 480.67 69.8358 480.963 70.5884C481.257 71.341 481.705 71.922 482.308 72.3315C482.917 72.741 483.689 72.9458 484.624 72.9458C485.565 72.9458 486.334 72.741 486.932 72.3315C487.535 71.922 487.98 71.341 488.268 70.5884C488.556 69.8358 488.7 68.9448 488.7 67.9155C488.7 66.3494 488.37 65.1265 487.712 64.2466C487.059 63.3612 486.038 62.9185 484.649 62.9185C483.708 62.9185 482.933 63.1204 482.325 63.5244C481.716 63.9284 481.262 64.5039 480.963 65.251C480.67 65.9925 480.523 66.8807 480.523 67.9155ZM495.623 73.0371C495.849 73.0371 496.082 73.0177 496.32 72.979C496.558 72.9403 496.751 72.8932 496.901 72.8379V73.9087C496.74 73.9806 496.516 74.0415 496.229 74.0913C495.946 74.1411 495.67 74.166 495.398 74.166C494.917 74.166 494.48 74.083 494.087 73.917C493.694 73.7454 493.379 73.4577 493.141 73.0537C492.908 72.6497 492.792 72.0908 492.792 71.377V65.9814H491.497V65.3091L492.8 64.7695L493.348 62.7939H494.178V64.9023H496.843V65.9814H494.178V71.3354C494.178 71.9054 494.308 72.3315 494.568 72.6138C494.834 72.896 495.185 73.0371 495.623 73.0371ZM500.122 61.084V64.9438C500.122 65.1652 500.116 65.3893 500.105 65.6162C500.094 65.8376 500.075 66.0423 500.047 66.2305H500.138C500.326 65.9095 500.564 65.6411 500.852 65.4253C501.145 65.2039 501.477 65.0379 501.848 64.9272C502.219 64.811 502.612 64.7529 503.027 64.7529C503.757 64.7529 504.366 64.8691 504.853 65.1016C505.346 65.334 505.714 65.6937 505.957 66.1807C506.206 66.6676 506.331 67.2985 506.331 68.0732V74H504.969V68.1646C504.969 67.4064 504.795 66.8392 504.446 66.4629C504.103 66.0866 503.575 65.8984 502.861 65.8984C502.186 65.8984 501.646 66.0285 501.242 66.2886C500.844 66.5431 500.556 66.9194 500.379 67.4175C500.207 67.9155 500.122 68.5243 500.122 69.2437V74H498.744V61.084H500.122ZM512.672 64.7363C513.447 64.7363 514.111 64.9079 514.665 65.251C515.218 65.5941 515.641 66.0755 515.935 66.6953C516.228 67.3096 516.375 68.029 516.375 68.8535V69.7085H510.091C510.107 70.7765 510.373 71.59 510.888 72.1489C511.402 72.7078 512.127 72.9873 513.062 72.9873C513.638 72.9873 514.147 72.9347 514.59 72.8296C515.033 72.7244 515.492 72.5695 515.968 72.3647V73.5767C515.508 73.7814 515.052 73.9308 514.598 74.0249C514.15 74.119 513.619 74.166 513.004 74.166C512.13 74.166 511.366 73.9889 510.713 73.6348C510.066 73.2751 509.562 72.7493 509.203 72.0576C508.843 71.3659 508.663 70.5192 508.663 69.5176C508.663 68.5381 508.826 67.6914 509.153 66.9775C509.485 66.2581 509.95 65.7048 510.547 65.3174C511.151 64.93 511.859 64.7363 512.672 64.7363ZM512.656 65.8652C511.92 65.8652 511.333 66.106 510.896 66.5874C510.459 67.0688 510.199 67.7412 510.116 68.6045H514.93C514.925 68.0622 514.839 67.5863 514.673 67.1768C514.512 66.7617 514.266 66.4408 513.934 66.2139C513.602 65.9814 513.176 65.8652 512.656 65.8652ZM522.849 64.7363C523.032 64.7363 523.223 64.7474 523.422 64.7695C523.621 64.7861 523.798 64.811 523.953 64.8442L523.779 66.1226C523.629 66.0838 523.463 66.0534 523.281 66.0312C523.098 66.0091 522.927 65.998 522.766 65.998C522.401 65.998 522.055 66.0728 521.729 66.2222C521.408 66.366 521.125 66.5763 520.882 66.853C520.638 67.1242 520.447 67.4535 520.309 67.8408C520.171 68.2227 520.102 68.6488 520.102 69.1191V74H518.715V64.9023H519.861L520.01 66.5791H520.068C520.257 66.2415 520.483 65.9344 520.749 65.6577C521.015 65.3755 521.322 65.1514 521.67 64.9854C522.025 64.8193 522.417 64.7363 522.849 64.7363Z" fill="#8287A1"/>
<rect x="40.5" y="118.5" width="251.5" height="53" rx="7.5" fill="white"/>
<rect x="40.5" y="118.5" width="251.5" height="53" rx="7.5" stroke="#CCCFD3"/>
<path d="M66.9976 152L62.9219 141.259H62.8555C62.8776 141.486 62.897 141.762 62.9136 142.089C62.9302 142.415 62.944 142.772 62.9551 143.16C62.9661 143.542 62.9717 143.932 62.9717 144.33V152H61.6602V139.864H63.752L67.5952 149.958H67.6533L71.5547 139.864H73.6299V152H72.2354V144.23C72.2354 143.871 72.2409 143.511 72.252 143.151C72.263 142.786 72.2769 142.443 72.2935 142.122C72.3101 141.796 72.3267 141.513 72.3433 141.275H72.2769L68.1514 152H66.9976ZM82.2876 152L78.2119 141.259H78.1455C78.1676 141.486 78.187 141.762 78.2036 142.089C78.2202 142.415 78.234 142.772 78.2451 143.16C78.2562 143.542 78.2617 143.932 78.2617 144.33V152H76.9502V139.864H79.042L82.8853 149.958H82.9434L86.8447 139.864H88.9199V152H87.5254V144.23C87.5254 143.871 87.5309 143.511 87.542 143.151C87.5531 142.786 87.5669 142.443 87.5835 142.122C87.6001 141.796 87.6167 141.513 87.6333 141.275H87.5669L83.4414 152H82.2876ZM96.6313 139.864L92.1157 152H90.7544L95.2783 139.864H96.6313ZM108.12 145.816C108.12 147.183 107.871 148.326 107.373 149.244C106.875 150.157 106.152 150.846 105.206 151.311C104.265 151.77 103.123 152 101.778 152H98.4824V139.864H102.143C103.377 139.864 104.44 140.091 105.331 140.545C106.222 140.993 106.908 141.66 107.389 142.545C107.876 143.425 108.12 144.515 108.12 145.816ZM106.634 145.866C106.634 144.776 106.451 143.876 106.086 143.168C105.726 142.46 105.195 141.934 104.492 141.591C103.795 141.242 102.94 141.068 101.927 141.068H99.8936V150.788H101.612C103.283 150.788 104.536 150.376 105.372 149.551C106.213 148.727 106.634 147.498 106.634 145.866ZM120.455 145.816C120.455 147.183 120.206 148.326 119.708 149.244C119.209 150.157 118.487 150.846 117.541 151.311C116.6 151.77 115.458 152 114.113 152H110.817V139.864H114.478C115.712 139.864 116.775 140.091 117.666 140.545C118.556 140.993 119.243 141.66 119.724 142.545C120.211 143.425 120.455 144.515 120.455 145.816ZM118.969 145.866C118.969 144.776 118.786 143.876 118.421 143.168C118.061 142.46 117.53 141.934 116.827 141.591C116.13 141.242 115.275 141.068 114.262 141.068H112.229V150.788H113.947C115.618 150.788 116.871 150.376 117.707 149.551C118.548 148.727 118.969 147.498 118.969 145.866ZM127.543 139.864L123.028 152H121.667L126.19 139.864H127.543ZM132.491 145.949L135.72 139.864H137.239L133.196 147.293V152H131.785V147.36L127.734 139.864H129.278L132.491 145.949ZM142.003 145.949L145.232 139.864H146.751L142.709 147.293V152H141.298V147.36L137.247 139.864H138.791L142.003 145.949Z" fill="#8287A1"/>
<path fill-rule="evenodd" clip-rule="evenodd" d="M257.027 136.245C257.027 135.555 257.587 134.995 258.277 134.995C258.968 134.995 259.527 135.555 259.527 136.245V137.182H257.027V136.245ZM267.95 137.182H268.33C269.941 137.182 271.247 138.324 271.247 139.734V149.942C271.247 151.352 269.941 152.494 268.33 152.494H256.664C255.053 152.494 253.747 151.352 253.747 149.942V139.734C253.747 138.324 255.053 137.182 256.664 137.182H257.027V137.808C257.027 138.498 257.587 139.058 258.277 139.058C258.968 139.058 259.527 138.498 259.527 137.808V137.182H265.45V137.808C265.45 138.498 266.01 139.058 266.7 139.058C267.391 139.058 267.95 138.498 267.95 137.808V137.182ZM267.95 137.182H265.45V136.245C265.45 135.555 266.01 134.995 266.7 134.995C267.391 134.995 267.95 135.555 267.95 136.245V137.182ZM255.692 149.942V140.584H269.303V149.942C269.303 150.412 268.867 150.793 268.33 150.793H256.664C256.127 150.793 255.692 150.412 255.692 149.942ZM260.309 143.964C260.309 144.568 259.819 145.058 259.215 145.058C258.611 145.058 258.121 144.568 258.121 143.964C258.121 143.36 258.611 142.87 259.215 142.87C259.819 142.87 260.309 143.36 260.309 143.964ZM263.589 143.964C263.589 144.568 263.099 145.058 262.495 145.058C261.891 145.058 261.401 144.568 261.401 143.964C261.401 143.36 261.891 142.87 262.495 142.87C263.099 142.87 263.589 143.36 263.589 143.964ZM265.776 145.058C266.38 145.058 266.87 144.568 266.87 143.964C266.87 143.36 266.38 142.87 265.776 142.87C265.172 142.87 264.683 143.36 264.683 143.964C264.683 144.568 265.172 145.058 265.776 145.058ZM259.215 148.667C259.819 148.667 260.308 148.177 260.308 147.573C260.308 146.969 259.819 146.48 259.215 146.48C258.611 146.48 258.121 146.969 258.121 147.573C258.121 148.177 258.611 148.667 259.215 148.667ZM262.495 148.667C263.099 148.667 263.589 148.177 263.589 147.573C263.589 146.969 263.099 146.48 262.495 146.48C261.891 146.48 261.401 146.969 261.401 147.573C261.401 148.177 261.891 148.667 262.495 148.667ZM266.872 147.573C266.872 148.177 266.382 148.667 265.778 148.667C265.174 148.667 264.684 148.177 264.684 147.573C264.684 146.969 265.174 146.48 265.778 146.48C266.382 146.48 266.872 146.969 266.872 147.573Z" fill="#8287A1"/>
<rect x="313" y="118.5" width="251.5" height="53" rx="7.5" fill="white"/>
<rect x="313" y="118.5" width="251.5" height="53" rx="7.5" stroke="#CCCFD3"/>
<path d="M337.887 152H336.468V141.109H332.649V139.864H341.689V141.109H337.887V152ZM344.694 142.902V152H343.316V142.902H344.694ZM344.021 139.499C344.248 139.499 344.442 139.574 344.603 139.723C344.769 139.867 344.852 140.094 344.852 140.404C344.852 140.708 344.769 140.935 344.603 141.084C344.442 141.234 344.248 141.309 344.021 141.309C343.784 141.309 343.584 141.234 343.424 141.084C343.269 140.935 343.191 140.708 343.191 140.404C343.191 140.094 343.269 139.867 343.424 139.723C343.584 139.574 343.784 139.499 344.021 139.499ZM357.494 142.736C358.495 142.736 359.251 142.999 359.76 143.525C360.269 144.045 360.523 144.883 360.523 146.04V152H359.162V146.106C359.162 145.37 359.002 144.82 358.681 144.455C358.365 144.084 357.895 143.898 357.27 143.898C356.39 143.898 355.75 144.153 355.352 144.662C354.954 145.171 354.754 145.921 354.754 146.912V152H353.385V146.106C353.385 145.614 353.313 145.204 353.169 144.878C353.031 144.551 352.82 144.308 352.538 144.147C352.261 143.981 351.91 143.898 351.484 143.898C350.881 143.898 350.396 144.023 350.031 144.272C349.666 144.521 349.4 144.892 349.234 145.384C349.074 145.871 348.994 146.472 348.994 147.186V152H347.616V142.902H348.728L348.936 144.189H349.01C349.193 143.874 349.423 143.608 349.699 143.392C349.976 143.176 350.286 143.013 350.629 142.902C350.972 142.792 351.337 142.736 351.725 142.736C352.416 142.736 352.995 142.866 353.459 143.126C353.93 143.381 354.27 143.771 354.48 144.297H354.555C354.854 143.771 355.264 143.381 355.784 143.126C356.304 142.866 356.874 142.736 357.494 142.736ZM366.857 142.736C367.632 142.736 368.296 142.908 368.849 143.251C369.403 143.594 369.826 144.076 370.119 144.695C370.412 145.31 370.559 146.029 370.559 146.854V147.708H364.275C364.292 148.777 364.558 149.59 365.072 150.149C365.587 150.708 366.312 150.987 367.247 150.987C367.823 150.987 368.332 150.935 368.774 150.83C369.217 150.724 369.676 150.569 370.152 150.365V151.577C369.693 151.781 369.236 151.931 368.783 152.025C368.334 152.119 367.803 152.166 367.189 152.166C366.315 152.166 365.551 151.989 364.898 151.635C364.25 151.275 363.747 150.749 363.387 150.058C363.028 149.366 362.848 148.519 362.848 147.518C362.848 146.538 363.011 145.691 363.337 144.978C363.669 144.258 364.134 143.705 364.732 143.317C365.335 142.93 366.043 142.736 366.857 142.736ZM366.84 143.865C366.104 143.865 365.518 144.106 365.081 144.587C364.643 145.069 364.383 145.741 364.3 146.604H369.115C369.109 146.062 369.023 145.586 368.857 145.177C368.697 144.762 368.451 144.441 368.119 144.214C367.787 143.981 367.361 143.865 366.84 143.865Z" fill="#8287A1"/>
<path d="M534.991 136.501C530.161 136.501 526.25 140.421 526.25 145.251C526.25 150.081 530.161 154.001 534.991 154.001C539.83 154.001 543.75 150.081 543.75 145.251C543.75 140.421 539.83 136.501 534.991 136.501ZM535 152.251C531.132 152.251 528 149.118 528 145.251C528 141.383 531.132 138.251 535 138.251C538.868 138.251 542 141.383 542 145.251C542 149.118 538.868 152.251 535 152.251ZM535.438 140.876H534.125V146.126L538.719 148.882L539.375 147.806L535.438 145.47V140.876Z" fill="#8287A1"/>
<rect x="40.5" y="196.5" width="524" height="53" rx="7.5" fill="white"/>
<rect x="40.5" y="196.5" width="524" height="53" rx="7.5" stroke="#CCCFD3"/>
<path d="M64.8311 217.864C66.3971 217.864 67.5399 218.171 68.2593 218.786C68.9842 219.394 69.3467 220.269 69.3467 221.409C69.3467 221.923 69.2609 222.413 69.0894 222.878C68.9233 223.337 68.6522 223.744 68.2759 224.098C67.8996 224.447 67.4043 224.723 66.79 224.928C66.1813 225.127 65.4342 225.227 64.5488 225.227H63.0713V230H61.6602V217.864H64.8311ZM64.6982 219.068H63.0713V224.015H64.3911C65.1659 224.015 65.8105 223.932 66.3252 223.766C66.8454 223.6 67.2355 223.332 67.4956 222.961C67.7557 222.585 67.8857 222.087 67.8857 221.467C67.8857 220.659 67.6284 220.058 67.1138 219.666C66.5991 219.267 65.7939 219.068 64.6982 219.068ZM75.813 220.736C75.9956 220.736 76.1865 220.747 76.3857 220.77C76.585 220.786 76.762 220.811 76.917 220.844L76.7427 222.123C76.5933 222.084 76.4272 222.053 76.2446 222.031C76.062 222.009 75.8905 221.998 75.73 221.998C75.3647 221.998 75.0189 222.073 74.6924 222.222C74.3714 222.366 74.0892 222.576 73.8457 222.853C73.6022 223.124 73.4113 223.453 73.2729 223.841C73.1346 224.223 73.0654 224.649 73.0654 225.119V230H71.6792V220.902H72.8247L72.9741 222.579H73.0322C73.2204 222.242 73.4473 221.934 73.7129 221.658C73.9785 221.375 74.2856 221.151 74.6343 220.985C74.9884 220.819 75.3813 220.736 75.813 220.736ZM86.4795 225.435C86.4795 226.182 86.3826 226.848 86.189 227.435C85.9953 228.022 85.7158 228.517 85.3506 228.921C84.9854 229.325 84.5426 229.635 84.0225 229.851C83.5078 230.061 82.924 230.166 82.271 230.166C81.6623 230.166 81.1034 230.061 80.5942 229.851C80.0907 229.635 79.6535 229.325 79.2827 228.921C78.9175 228.517 78.6325 228.022 78.4277 227.435C78.2285 226.848 78.1289 226.182 78.1289 225.435C78.1289 224.438 78.2977 223.592 78.6353 222.895C78.9728 222.192 79.4543 221.658 80.0796 221.292C80.7104 220.922 81.4603 220.736 82.3291 220.736C83.1592 220.736 83.8841 220.922 84.5039 221.292C85.1292 221.663 85.6134 222.2 85.9565 222.903C86.3052 223.6 86.4795 224.444 86.4795 225.435ZM79.5566 225.435C79.5566 226.165 79.6535 226.799 79.8472 227.335C80.0409 227.872 80.3397 228.287 80.7437 228.581C81.1476 228.874 81.6678 229.021 82.3042 229.021C82.9351 229.021 83.4525 228.874 83.8564 228.581C84.266 228.287 84.5675 227.872 84.7612 227.335C84.9549 226.799 85.0518 226.165 85.0518 225.435C85.0518 224.71 84.9549 224.084 84.7612 223.559C84.5675 223.027 84.2687 222.618 83.8647 222.33C83.4608 222.042 82.9378 221.898 82.2959 221.898C81.3496 221.898 80.6551 222.211 80.2124 222.836C79.7752 223.462 79.5566 224.328 79.5566 225.435ZM87.7661 234.084C87.4839 234.084 87.2376 234.062 87.0273 234.018C86.8171 233.979 86.6344 233.932 86.4795 233.876V232.756C86.651 232.811 86.8254 232.853 87.0024 232.88C87.1795 232.914 87.3787 232.93 87.6001 232.93C87.9764 232.93 88.2808 232.825 88.5132 232.615C88.7456 232.404 88.8618 232.023 88.8618 231.469V220.902H90.2397V231.436C90.2397 231.989 90.1512 232.463 89.9741 232.855C89.797 233.254 89.5259 233.558 89.1606 233.769C88.7954 233.979 88.3306 234.084 87.7661 234.084ZM88.7373 218.404C88.7373 218.094 88.8148 217.867 88.9697 217.723C89.1302 217.574 89.3294 217.499 89.5674 217.499C89.7943 217.499 89.988 217.574 90.1484 217.723C90.3145 217.867 90.3975 218.094 90.3975 218.404C90.3975 218.708 90.3145 218.935 90.1484 219.084C89.988 219.234 89.7943 219.309 89.5674 219.309C89.3294 219.309 89.1302 219.234 88.9697 219.084C88.8148 218.935 88.7373 218.708 88.7373 218.404ZM96.6646 220.736C97.4393 220.736 98.1034 220.908 98.6567 221.251C99.2101 221.594 99.6335 222.076 99.9268 222.695C100.22 223.31 100.367 224.029 100.367 224.854V225.708H94.083C94.0996 226.777 94.3652 227.59 94.8799 228.149C95.3945 228.708 96.1195 228.987 97.0547 228.987C97.6302 228.987 98.1393 228.935 98.582 228.83C99.0247 228.724 99.484 228.569 99.96 228.365V229.577C99.5007 229.781 99.0441 229.931 98.5903 230.025C98.1421 230.119 97.6108 230.166 96.9966 230.166C96.1222 230.166 95.3586 229.989 94.7056 229.635C94.0581 229.275 93.5545 228.749 93.1948 228.058C92.8351 227.366 92.6553 226.519 92.6553 225.518C92.6553 224.538 92.8185 223.691 93.145 222.978C93.4771 222.258 93.9419 221.705 94.5396 221.317C95.1427 220.93 95.8511 220.736 96.6646 220.736ZM96.6479 221.865C95.9119 221.865 95.3254 222.106 94.8882 222.587C94.451 223.069 94.1909 223.741 94.1079 224.604H98.9224C98.9168 224.062 98.8311 223.586 98.665 223.177C98.5046 222.762 98.2583 222.441 97.9263 222.214C97.5942 221.981 97.1681 221.865 96.6479 221.865ZM106.352 230.166C105.533 230.166 104.81 229.997 104.185 229.66C103.56 229.322 103.073 228.807 102.724 228.116C102.375 227.424 102.201 226.552 102.201 225.501C102.201 224.4 102.384 223.5 102.749 222.803C103.12 222.1 103.629 221.58 104.276 221.243C104.924 220.905 105.66 220.736 106.484 220.736C106.938 220.736 107.375 220.783 107.796 220.877C108.222 220.966 108.571 221.079 108.842 221.218L108.427 222.372C108.15 222.261 107.829 222.161 107.464 222.073C107.104 221.984 106.767 221.94 106.451 221.94C105.82 221.94 105.295 222.076 104.874 222.347C104.459 222.618 104.146 223.016 103.936 223.542C103.731 224.068 103.629 224.715 103.629 225.484C103.629 226.22 103.729 226.848 103.928 227.369C104.132 227.889 104.434 228.287 104.833 228.564C105.236 228.835 105.74 228.971 106.343 228.971C106.825 228.971 107.259 228.921 107.646 228.821C108.034 228.716 108.385 228.594 108.701 228.456V229.685C108.396 229.84 108.056 229.958 107.68 230.042C107.309 230.125 106.866 230.166 106.352 230.166ZM113.797 229.037C114.024 229.037 114.257 229.018 114.495 228.979C114.733 228.94 114.926 228.893 115.076 228.838V229.909C114.915 229.981 114.691 230.042 114.403 230.091C114.121 230.141 113.844 230.166 113.573 230.166C113.092 230.166 112.655 230.083 112.262 229.917C111.869 229.745 111.553 229.458 111.315 229.054C111.083 228.65 110.967 228.091 110.967 227.377V221.981H109.672V221.309L110.975 220.77L111.523 218.794H112.353V220.902H115.018V221.981H112.353V227.335C112.353 227.905 112.483 228.332 112.743 228.614C113.009 228.896 113.36 229.037 113.797 229.037ZM125.609 220.736C126.744 220.736 127.649 221.126 128.324 221.907C128.999 222.687 129.336 223.86 129.336 225.426C129.336 226.461 129.181 227.33 128.872 228.033C128.562 228.736 128.125 229.267 127.56 229.626C127.001 229.986 126.34 230.166 125.576 230.166C125.095 230.166 124.671 230.102 124.306 229.975C123.941 229.848 123.628 229.676 123.368 229.46C123.108 229.245 122.892 229.009 122.721 228.755H122.621C122.638 228.971 122.657 229.231 122.679 229.535C122.707 229.84 122.721 230.105 122.721 230.332V234.067H121.334V220.902H122.472L122.654 222.247H122.721C122.898 221.97 123.114 221.719 123.368 221.492C123.623 221.259 123.933 221.077 124.298 220.944C124.669 220.806 125.106 220.736 125.609 220.736ZM125.369 221.898C124.738 221.898 124.229 222.02 123.841 222.264C123.459 222.507 123.18 222.872 123.003 223.359C122.826 223.841 122.732 224.447 122.721 225.177V225.443C122.721 226.212 122.804 226.862 122.97 227.394C123.141 227.925 123.421 228.329 123.808 228.605C124.201 228.882 124.727 229.021 125.385 229.021C125.95 229.021 126.42 228.868 126.796 228.564C127.173 228.26 127.452 227.836 127.635 227.294C127.823 226.746 127.917 226.118 127.917 225.41C127.917 224.336 127.707 223.484 127.286 222.853C126.871 222.217 126.232 221.898 125.369 221.898ZM139.256 220.902V230H138.127L137.928 228.722H137.853C137.665 229.037 137.421 229.303 137.123 229.519C136.824 229.734 136.486 229.895 136.11 230C135.739 230.111 135.343 230.166 134.923 230.166C134.203 230.166 133.6 230.05 133.113 229.817C132.626 229.585 132.258 229.225 132.009 228.738C131.766 228.251 131.644 227.626 131.644 226.862V220.902H133.039V226.763C133.039 227.521 133.21 228.088 133.553 228.464C133.896 228.835 134.419 229.021 135.122 229.021C135.797 229.021 136.334 228.893 136.732 228.639C137.136 228.384 137.427 228.011 137.604 227.518C137.781 227.02 137.87 226.411 137.87 225.692V220.902H139.256ZM146.303 220.736C146.486 220.736 146.677 220.747 146.876 220.77C147.075 220.786 147.252 220.811 147.407 220.844L147.233 222.123C147.083 222.084 146.917 222.053 146.735 222.031C146.552 222.009 146.381 221.998 146.22 221.998C145.855 221.998 145.509 222.073 145.183 222.222C144.862 222.366 144.579 222.576 144.336 222.853C144.092 223.124 143.902 223.453 143.763 223.841C143.625 224.223 143.556 224.649 143.556 225.119V230H142.169V220.902H143.315L143.464 222.579H143.522C143.711 222.242 143.938 221.934 144.203 221.658C144.469 221.375 144.776 221.151 145.125 220.985C145.479 220.819 145.872 220.736 146.303 220.736ZM153.4 220.736C154.535 220.736 155.44 221.126 156.115 221.907C156.79 222.687 157.127 223.86 157.127 225.426C157.127 226.461 156.972 227.33 156.663 228.033C156.353 228.736 155.916 229.267 155.351 229.626C154.792 229.986 154.131 230.166 153.367 230.166C152.886 230.166 152.462 230.102 152.097 229.975C151.732 229.848 151.419 229.676 151.159 229.46C150.899 229.245 150.683 229.009 150.512 228.755H150.412C150.429 228.971 150.448 229.231 150.47 229.535C150.498 229.84 150.512 230.105 150.512 230.332V234.067H149.125V220.902H150.263L150.445 222.247H150.512C150.689 221.97 150.905 221.719 151.159 221.492C151.414 221.259 151.724 221.077 152.089 220.944C152.46 220.806 152.897 220.736 153.4 220.736ZM153.16 221.898C152.529 221.898 152.02 222.02 151.632 222.264C151.25 222.507 150.971 222.872 150.794 223.359C150.617 223.841 150.523 224.447 150.512 225.177V225.443C150.512 226.212 150.595 226.862 150.761 227.394C150.932 227.925 151.212 228.329 151.599 228.605C151.992 228.882 152.518 229.021 153.176 229.021C153.741 229.021 154.211 228.868 154.587 228.564C154.964 228.26 155.243 227.836 155.426 227.294C155.614 226.746 155.708 226.118 155.708 225.41C155.708 224.336 155.498 223.484 155.077 222.853C154.662 222.217 154.023 221.898 153.16 221.898ZM167.379 225.435C167.379 226.182 167.282 226.848 167.088 227.435C166.895 228.022 166.615 228.517 166.25 228.921C165.885 229.325 165.442 229.635 164.922 229.851C164.407 230.061 163.823 230.166 163.17 230.166C162.562 230.166 162.003 230.061 161.494 229.851C160.99 229.635 160.553 229.325 160.182 228.921C159.817 228.517 159.532 228.022 159.327 227.435C159.128 226.848 159.028 226.182 159.028 225.435C159.028 224.438 159.197 223.592 159.535 222.895C159.872 222.192 160.354 221.658 160.979 221.292C161.61 220.922 162.36 220.736 163.229 220.736C164.059 220.736 164.784 220.922 165.403 221.292C166.029 221.663 166.513 222.2 166.856 222.903C167.205 223.6 167.379 224.444 167.379 225.435ZM160.456 225.435C160.456 226.165 160.553 226.799 160.747 227.335C160.94 227.872 161.239 228.287 161.643 228.581C162.047 228.874 162.567 229.021 163.204 229.021C163.834 229.021 164.352 228.874 164.756 228.581C165.165 228.287 165.467 227.872 165.661 227.335C165.854 226.799 165.951 226.165 165.951 225.435C165.951 224.71 165.854 224.084 165.661 223.559C165.467 223.027 165.168 222.618 164.764 222.33C164.36 222.042 163.837 221.898 163.195 221.898C162.249 221.898 161.555 222.211 161.112 222.836C160.675 223.462 160.456 224.328 160.456 225.435ZM175.646 227.51C175.646 228.091 175.5 228.581 175.207 228.979C174.919 229.372 174.504 229.668 173.961 229.867C173.425 230.066 172.783 230.166 172.036 230.166C171.399 230.166 170.849 230.116 170.384 230.017C169.919 229.917 169.512 229.776 169.164 229.593V228.323C169.534 228.506 169.977 228.672 170.492 228.821C171.006 228.971 171.532 229.045 172.069 229.045C172.855 229.045 173.425 228.918 173.779 228.664C174.133 228.409 174.31 228.063 174.31 227.626C174.31 227.377 174.238 227.158 174.094 226.97C173.956 226.777 173.721 226.591 173.389 226.414C173.057 226.231 172.597 226.032 172.011 225.816C171.43 225.595 170.926 225.376 170.5 225.161C170.079 224.939 169.753 224.671 169.521 224.355C169.294 224.04 169.18 223.631 169.18 223.127C169.18 222.358 169.49 221.768 170.11 221.359C170.735 220.944 171.554 220.736 172.567 220.736C173.115 220.736 173.627 220.792 174.103 220.902C174.584 221.007 175.032 221.151 175.447 221.334L174.982 222.438C174.606 222.278 174.205 222.142 173.779 222.031C173.353 221.921 172.918 221.865 172.476 221.865C171.839 221.865 171.349 221.97 171.006 222.181C170.669 222.391 170.5 222.679 170.5 223.044C170.5 223.326 170.577 223.559 170.732 223.741C170.893 223.924 171.147 224.095 171.496 224.256C171.845 224.416 172.304 224.604 172.874 224.82C173.444 225.031 173.937 225.249 174.352 225.476C174.767 225.697 175.085 225.969 175.306 226.29C175.533 226.605 175.646 227.012 175.646 227.51ZM181.366 220.736C182.14 220.736 182.805 220.908 183.358 221.251C183.911 221.594 184.335 222.076 184.628 222.695C184.921 223.31 185.068 224.029 185.068 224.854V225.708H178.784C178.801 226.777 179.066 227.59 179.581 228.149C180.096 228.708 180.821 228.987 181.756 228.987C182.331 228.987 182.84 228.935 183.283 228.83C183.726 228.724 184.185 228.569 184.661 228.365V229.577C184.202 229.781 183.745 229.931 183.292 230.025C182.843 230.119 182.312 230.166 181.698 230.166C180.823 230.166 180.06 229.989 179.407 229.635C178.759 229.275 178.256 228.749 177.896 228.058C177.536 227.366 177.356 226.519 177.356 225.518C177.356 224.538 177.52 223.691 177.846 222.978C178.178 222.258 178.643 221.705 179.241 221.317C179.844 220.93 180.552 220.736 181.366 220.736ZM181.349 221.865C180.613 221.865 180.027 222.106 179.589 222.587C179.152 223.069 178.892 223.741 178.809 224.604H183.624C183.618 224.062 183.532 223.586 183.366 223.177C183.206 222.762 182.959 222.441 182.627 222.214C182.295 221.981 181.869 221.865 181.349 221.865Z" fill="#8287A1"/>
<g clip-path="url(#clip0_3808_38012)">
<path d="M535.213 221.219L539.661 225.667L544.11 221.219" stroke="#4F56B2" stroke-width="1.77941" stroke-linecap="round" stroke-linejoin="round"/>
</g>
<rect x="40.5" y="274.5" width="524" height="53" rx="7.5" fill="white"/>
<rect x="40.5" y="274.5" width="524" height="53" rx="7.5" stroke="#CCCFD3"/>
<path d="M64.8311 295.864C66.3971 295.864 67.5399 296.171 68.2593 296.786C68.9842 297.394 69.3467 298.269 69.3467 299.409C69.3467 299.923 69.2609 300.413 69.0894 300.878C68.9233 301.337 68.6522 301.744 68.2759 302.098C67.8996 302.447 67.4043 302.723 66.79 302.928C66.1813 303.127 65.4342 303.227 64.5488 303.227H63.0713V308H61.6602V295.864H64.8311ZM64.6982 297.068H63.0713V302.015H64.3911C65.1659 302.015 65.8105 301.932 66.3252 301.766C66.8454 301.6 67.2355 301.332 67.4956 300.961C67.7557 300.585 67.8857 300.087 67.8857 299.467C67.8857 298.659 67.6284 298.058 67.1138 297.666C66.5991 297.267 65.7939 297.068 64.6982 297.068ZM75.813 298.736C75.9956 298.736 76.1865 298.747 76.3857 298.77C76.585 298.786 76.762 298.811 76.917 298.844L76.7427 300.123C76.5933 300.084 76.4272 300.053 76.2446 300.031C76.062 300.009 75.8905 299.998 75.73 299.998C75.3647 299.998 75.0189 300.073 74.6924 300.222C74.3714 300.366 74.0892 300.576 73.8457 300.853C73.6022 301.124 73.4113 301.453 73.2729 301.841C73.1346 302.223 73.0654 302.649 73.0654 303.119V308H71.6792V298.902H72.8247L72.9741 300.579H73.0322C73.2204 300.242 73.4473 299.934 73.7129 299.658C73.9785 299.375 74.2856 299.151 74.6343 298.985C74.9884 298.819 75.3813 298.736 75.813 298.736ZM86.4795 303.435C86.4795 304.182 86.3826 304.848 86.189 305.435C85.9953 306.022 85.7158 306.517 85.3506 306.921C84.9854 307.325 84.5426 307.635 84.0225 307.851C83.5078 308.061 82.924 308.166 82.271 308.166C81.6623 308.166 81.1034 308.061 80.5942 307.851C80.0907 307.635 79.6535 307.325 79.2827 306.921C78.9175 306.517 78.6325 306.022 78.4277 305.435C78.2285 304.848 78.1289 304.182 78.1289 303.435C78.1289 302.438 78.2977 301.592 78.6353 300.895C78.9728 300.192 79.4543 299.658 80.0796 299.292C80.7104 298.922 81.4603 298.736 82.3291 298.736C83.1592 298.736 83.8841 298.922 84.5039 299.292C85.1292 299.663 85.6134 300.2 85.9565 300.903C86.3052 301.6 86.4795 302.444 86.4795 303.435ZM79.5566 303.435C79.5566 304.165 79.6535 304.799 79.8472 305.335C80.0409 305.872 80.3397 306.287 80.7437 306.581C81.1476 306.874 81.6678 307.021 82.3042 307.021C82.9351 307.021 83.4525 306.874 83.8564 306.581C84.266 306.287 84.5675 305.872 84.7612 305.335C84.9549 304.799 85.0518 304.165 85.0518 303.435C85.0518 302.71 84.9549 302.084 84.7612 301.559C84.5675 301.027 84.2687 300.618 83.8647 300.33C83.4608 300.042 82.9378 299.898 82.2959 299.898C81.3496 299.898 80.6551 300.211 80.2124 300.836C79.7752 301.462 79.5566 302.328 79.5566 303.435ZM87.7661 312.084C87.4839 312.084 87.2376 312.062 87.0273 312.018C86.8171 311.979 86.6344 311.932 86.4795 311.876V310.756C86.651 310.811 86.8254 310.853 87.0024 310.88C87.1795 310.914 87.3787 310.93 87.6001 310.93C87.9764 310.93 88.2808 310.825 88.5132 310.615C88.7456 310.404 88.8618 310.023 88.8618 309.469V298.902H90.2397V309.436C90.2397 309.989 90.1512 310.463 89.9741 310.855C89.797 311.254 89.5259 311.558 89.1606 311.769C88.7954 311.979 88.3306 312.084 87.7661 312.084ZM88.7373 296.404C88.7373 296.094 88.8148 295.867 88.9697 295.723C89.1302 295.574 89.3294 295.499 89.5674 295.499C89.7943 295.499 89.988 295.574 90.1484 295.723C90.3145 295.867 90.3975 296.094 90.3975 296.404C90.3975 296.708 90.3145 296.935 90.1484 297.084C89.988 297.234 89.7943 297.309 89.5674 297.309C89.3294 297.309 89.1302 297.234 88.9697 297.084C88.8148 296.935 88.7373 296.708 88.7373 296.404ZM96.6646 298.736C97.4393 298.736 98.1034 298.908 98.6567 299.251C99.2101 299.594 99.6335 300.076 99.9268 300.695C100.22 301.31 100.367 302.029 100.367 302.854V303.708H94.083C94.0996 304.777 94.3652 305.59 94.8799 306.149C95.3945 306.708 96.1195 306.987 97.0547 306.987C97.6302 306.987 98.1393 306.935 98.582 306.83C99.0247 306.724 99.484 306.569 99.96 306.365V307.577C99.5007 307.781 99.0441 307.931 98.5903 308.025C98.1421 308.119 97.6108 308.166 96.9966 308.166C96.1222 308.166 95.3586 307.989 94.7056 307.635C94.0581 307.275 93.5545 306.749 93.1948 306.058C92.8351 305.366 92.6553 304.519 92.6553 303.518C92.6553 302.538 92.8185 301.691 93.145 300.978C93.4771 300.258 93.9419 299.705 94.5396 299.317C95.1427 298.93 95.8511 298.736 96.6646 298.736ZM96.6479 299.865C95.9119 299.865 95.3254 300.106 94.8882 300.587C94.451 301.069 94.1909 301.741 94.1079 302.604H98.9224C98.9168 302.062 98.8311 301.586 98.665 301.177C98.5046 300.762 98.2583 300.441 97.9263 300.214C97.5942 299.981 97.1681 299.865 96.6479 299.865ZM106.352 308.166C105.533 308.166 104.81 307.997 104.185 307.66C103.56 307.322 103.073 306.807 102.724 306.116C102.375 305.424 102.201 304.552 102.201 303.501C102.201 302.4 102.384 301.5 102.749 300.803C103.12 300.1 103.629 299.58 104.276 299.243C104.924 298.905 105.66 298.736 106.484 298.736C106.938 298.736 107.375 298.783 107.796 298.877C108.222 298.966 108.571 299.079 108.842 299.218L108.427 300.372C108.15 300.261 107.829 300.161 107.464 300.073C107.104 299.984 106.767 299.94 106.451 299.94C105.82 299.94 105.295 300.076 104.874 300.347C104.459 300.618 104.146 301.016 103.936 301.542C103.731 302.068 103.629 302.715 103.629 303.484C103.629 304.22 103.729 304.848 103.928 305.369C104.132 305.889 104.434 306.287 104.833 306.564C105.236 306.835 105.74 306.971 106.343 306.971C106.825 306.971 107.259 306.921 107.646 306.821C108.034 306.716 108.385 306.594 108.701 306.456V307.685C108.396 307.84 108.056 307.958 107.68 308.042C107.309 308.125 106.866 308.166 106.352 308.166ZM113.797 307.037C114.024 307.037 114.257 307.018 114.495 306.979C114.733 306.94 114.926 306.893 115.076 306.838V307.909C114.915 307.981 114.691 308.042 114.403 308.091C114.121 308.141 113.844 308.166 113.573 308.166C113.092 308.166 112.655 308.083 112.262 307.917C111.869 307.745 111.553 307.458 111.315 307.054C111.083 306.65 110.967 306.091 110.967 305.377V299.981H109.672V299.309L110.975 298.77L111.523 296.794H112.353V298.902H115.018V299.981H112.353V305.335C112.353 305.905 112.483 306.332 112.743 306.614C113.009 306.896 113.36 307.037 113.797 307.037ZM124.273 307.037C124.5 307.037 124.732 307.018 124.97 306.979C125.208 306.94 125.402 306.893 125.551 306.838V307.909C125.391 307.981 125.167 308.042 124.879 308.091C124.597 308.141 124.32 308.166 124.049 308.166C123.567 308.166 123.13 308.083 122.737 307.917C122.344 307.745 122.029 307.458 121.791 307.054C121.559 306.65 121.442 306.091 121.442 305.377V299.981H120.147V299.309L121.451 298.77L121.999 296.794H122.829V298.902H125.493V299.981H122.829V305.335C122.829 305.905 122.959 306.332 123.219 306.614C123.484 306.896 123.836 307.037 124.273 307.037ZM125.958 298.902H127.436L129.444 304.182C129.561 304.492 129.668 304.79 129.768 305.078C129.868 305.36 129.956 305.632 130.034 305.892C130.111 306.152 130.172 306.403 130.216 306.647H130.274C130.352 306.37 130.463 306.008 130.606 305.56C130.75 305.106 130.905 304.644 131.071 304.173L132.972 298.902H134.458L130.499 309.336C130.288 309.895 130.042 310.382 129.76 310.797C129.483 311.212 129.146 311.531 128.747 311.752C128.349 311.979 127.867 312.092 127.303 312.092C127.043 312.092 126.813 312.076 126.614 312.042C126.415 312.015 126.243 311.982 126.099 311.943V310.839C126.221 310.867 126.368 310.891 126.539 310.914C126.716 310.936 126.899 310.947 127.087 310.947C127.43 310.947 127.726 310.88 127.975 310.748C128.23 310.62 128.448 310.432 128.631 310.183C128.813 309.934 128.971 309.638 129.104 309.295L129.602 308.017L125.958 298.902ZM140.186 298.736C141.32 298.736 142.225 299.126 142.9 299.907C143.575 300.687 143.913 301.86 143.913 303.426C143.913 304.461 143.758 305.33 143.448 306.033C143.138 306.736 142.701 307.267 142.136 307.626C141.577 307.986 140.916 308.166 140.152 308.166C139.671 308.166 139.248 308.102 138.882 307.975C138.517 307.848 138.204 307.676 137.944 307.46C137.684 307.245 137.468 307.009 137.297 306.755H137.197C137.214 306.971 137.233 307.231 137.255 307.535C137.283 307.84 137.297 308.105 137.297 308.332V312.067H135.911V298.902H137.048L137.23 300.247H137.297C137.474 299.97 137.69 299.719 137.944 299.492C138.199 299.259 138.509 299.077 138.874 298.944C139.245 298.806 139.682 298.736 140.186 298.736ZM139.945 299.898C139.314 299.898 138.805 300.02 138.417 300.264C138.036 300.507 137.756 300.872 137.579 301.359C137.402 301.841 137.308 302.447 137.297 303.177V303.443C137.297 304.212 137.38 304.862 137.546 305.394C137.717 305.925 137.997 306.329 138.384 306.605C138.777 306.882 139.303 307.021 139.961 307.021C140.526 307.021 140.996 306.868 141.373 306.564C141.749 306.26 142.028 305.836 142.211 305.294C142.399 304.746 142.493 304.118 142.493 303.41C142.493 302.336 142.283 301.484 141.862 300.853C141.447 300.217 140.808 299.898 139.945 299.898ZM149.823 298.736C150.597 298.736 151.262 298.908 151.815 299.251C152.368 299.594 152.792 300.076 153.085 300.695C153.378 301.31 153.525 302.029 153.525 302.854V303.708H147.241C147.258 304.777 147.523 305.59 148.038 306.149C148.553 306.708 149.278 306.987 150.213 306.987C150.788 306.987 151.298 306.935 151.74 306.83C152.183 306.724 152.642 306.569 153.118 306.365V307.577C152.659 307.781 152.202 307.931 151.749 308.025C151.3 308.119 150.769 308.166 150.155 308.166C149.28 308.166 148.517 307.989 147.864 307.635C147.216 307.275 146.713 306.749 146.353 306.058C145.993 305.366 145.813 304.519 145.813 303.518C145.813 302.538 145.977 301.691 146.303 300.978C146.635 300.258 147.1 299.705 147.698 299.317C148.301 298.93 149.009 298.736 149.823 298.736ZM149.806 299.865C149.07 299.865 148.484 300.106 148.046 300.587C147.609 301.069 147.349 301.741 147.266 302.604H152.081C152.075 302.062 151.989 301.586 151.823 301.177C151.663 300.762 151.417 300.441 151.084 300.214C150.752 299.981 150.326 299.865 149.806 299.865Z" fill="#8287A1"/>
<g clip-path="url(#clip1_3808_38012)">
<path d="M535.213 299.221L539.661 303.669L544.11 299.221" stroke="#4F56B2" stroke-width="1.77941" stroke-linecap="round" stroke-linejoin="round"/>
</g>
<defs>
<clipPath id="clip0_3808_38012">
<rect width="10.6765" height="10.6765" fill="white" transform="translate(534.323 217.662)"/>
</clipPath>
<clipPath id="clip1_3808_38012">
<rect width="10.6765" height="10.6765" fill="white" transform="translate(534.323 295.662)"/>
</clipPath>
</defs>
</svg>
