<svg width="37" height="14" viewBox="0 0 37 14" fill="none" xmlns="http://www.w3.org/2000/svg">
<g id="visa">
<g id="Vector">
<path d="M24.1717 0.875C25.3233 0.875 26.2546 1.13992 26.8418 1.37986L26.4369 3.94052L26.1677 3.8146C25.629 3.57483 24.9179 3.33523 23.9501 3.36055C22.7747 3.36055 22.2476 3.87747 22.2354 4.38216C22.2354 4.93732 22.873 5.30317 23.9143 5.84576C25.6295 6.69098 26.425 7.72534 26.4132 9.07526C26.3891 11.5353 24.3554 13.125 21.2318 13.125C19.8962 13.1123 18.6098 12.8215 17.9116 12.4939L18.3282 9.83195L18.7202 10.0214C19.688 10.4634 20.3248 10.6522 21.5134 10.6522C22.3705 10.6522 23.2895 10.286 23.3012 9.49158C23.3012 8.97432 22.9097 8.59555 21.7579 8.01524C20.631 7.44734 19.1244 6.50135 19.1488 4.79815C19.1615 2.48967 21.2318 0.875 24.1717 0.875Z" fill="#00579F"/>
<path d="M13.0729 12.9483H16.0499L17.9117 1.08996H14.9349L13.0729 12.9483Z" fill="#00579F"/>
<path fill-rule="evenodd" clip-rule="evenodd" d="M34.4732 1.08996H32.1705C31.4604 1.08996 30.9209 1.30424 30.6145 2.07385L26.1925 12.9481H29.3162C29.3162 12.9481 29.8305 11.4845 29.941 11.1693H33.7632C33.8487 11.5856 34.1185 12.9481 34.1185 12.9481H36.8749L34.4732 1.08996ZM30.7985 8.74729C31.0436 8.06605 31.987 5.42943 31.987 5.42943C31.982 5.43966 32.021 5.32844 32.0789 5.16313C32.1643 4.91914 32.2911 4.55728 32.3787 4.29414L32.5867 5.31592C32.5867 5.31592 33.1505 8.15441 33.2729 8.74729H30.7985Z" fill="#00579F"/>
<path d="M7.67083 9.1762L10.5863 1.08996H13.7342L9.0549 12.9357H5.9068L3.23633 2.56563C5.12278 3.58791 6.81323 5.64389 7.35224 7.53622L7.67083 9.1762Z" fill="#00579F"/>
</g>
<path id="Vector_2" d="M4.96372 1.08984H0.174001L0.125 1.32944C3.86128 2.3135 6.33574 4.68554 7.35239 7.5366L6.31116 2.08664C6.13974 1.32928 5.61294 1.11483 4.96372 1.08984Z" fill="#FAA61A"/>
</g>
</svg>
