<svg width="47" height="16" viewBox="0 0 47 16" fill="none" xmlns="http://www.w3.org/2000/svg">
<g id="amex">
<path id="Vector" d="M34.6848 1.87076L33.7754 3.91815H35.5991L34.6848 1.87076ZM24.1909 3.13949C24.3623 3.0564 24.4633 2.87567 24.4633 2.65123C24.4633 2.43129 24.3572 2.27201 24.1858 2.19716C24.0297 2.11418 23.7895 2.1046 23.5592 2.1046H21.9322V3.24537H23.5374C23.7945 3.24542 24.0093 3.24192 24.1909 3.13949ZM3.34352 1.87076L2.44441 3.91815H4.24805L3.34352 1.87076ZM45.2046 14.987H42.653V13.8854H45.1943C45.4462 13.8854 45.6226 13.8547 45.7289 13.7581C45.8293 13.6721 45.8861 13.5504 45.8851 13.4232C45.8851 13.2735 45.8211 13.1547 45.7236 13.0835C45.6279 13.0051 45.4881 12.9694 45.258 12.9694C44.0174 12.9303 42.4697 13.005 42.4697 11.3794C42.4697 10.6344 42.9789 9.85016 44.3655 9.85016H46.9974V8.82807H44.5521C43.8142 8.82807 43.278 8.99226 42.8984 9.24767V8.82807H39.2817C38.7034 8.82807 38.0245 8.96124 37.7034 9.24767V8.82807H31.2444V9.24767C30.7305 8.9031 29.863 8.82807 29.4629 8.82807H25.2026V9.24767C24.796 8.88177 23.8915 8.82807 23.3405 8.82807H18.5725L17.4816 9.92513L16.4596 8.82807H9.33717V15.9965H16.3253L17.4494 14.8818L18.5084 15.9965L22.8159 16V14.3137H23.2395C23.811 14.3222 24.485 14.3007 25.0799 14.0618V15.9963H28.6328V14.1278H28.8042C29.0228 14.1278 29.0445 14.1364 29.0445 14.3394V15.9959H39.8378C40.5231 15.9959 41.2394 15.8331 41.636 15.537V15.9959H45.0596C45.772 15.9959 46.4678 15.9031 46.9972 15.6655V14.3302C46.6764 14.7662 46.0508 14.987 45.2046 14.987ZM23.2961 13.2944H21.6474V15.0174H19.0793L17.4524 13.3169L15.7617 15.0174H10.528V9.88043H15.8422L17.4677 11.5643L19.1483 9.88043H23.3702C24.4187 9.88043 25.5968 10.1502 25.5968 11.5728C25.5968 12.9998 24.451 13.2944 23.2961 13.2944ZM31.2236 13.0615C31.4102 13.3122 31.4371 13.5463 31.4425 13.9991V15.0175H30.1159V14.3748C30.1159 14.0658 30.148 13.6081 29.9024 13.3693C29.7095 13.1853 29.4151 13.1414 28.9329 13.1414H27.521V15.0175H26.1934V9.88049H29.2437C29.9128 9.88049 30.3999 9.90812 30.8335 10.1229C31.2505 10.3569 31.5129 10.6776 31.5129 11.2636C31.5128 12.0835 30.9243 12.5017 30.5765 12.6303C30.8704 12.7311 31.1107 12.9118 31.2236 13.0615ZM36.6814 10.9428H33.5874V11.8767H36.6058V12.9248H33.5874V13.9469L36.6814 13.9515V15.0174H32.2716V9.88043H36.6814V10.9428ZM40.0766 15.0174H37.5033V13.9158H40.0663C40.317 13.9158 40.4947 13.885 40.6061 13.7885C40.6969 13.7091 40.7622 13.5936 40.7622 13.4537C40.7622 13.3039 40.6914 13.185 40.6009 13.1138C40.4998 13.0355 40.3603 13 40.1304 13C38.8947 12.9606 37.3473 13.0353 37.3473 11.4099C37.3473 10.6648 37.8513 9.88049 39.2364 9.88049H41.8853V10.9737H39.4615C39.2212 10.9737 39.065 10.9822 38.9322 11.0667C38.7873 11.1499 38.7337 11.2733 38.7337 11.4361C38.7337 11.6299 38.8566 11.7618 39.0227 11.8188C39.1622 11.8638 39.3118 11.877 39.5369 11.877L40.2482 11.895C40.9653 11.911 41.4578 12.0265 41.7571 12.308C42.0142 12.5553 42.1523 12.8677 42.1523 13.3963C42.1522 14.5015 41.409 15.0174 40.0766 15.0174ZM29.8291 11.0257C29.6695 10.9376 29.4339 10.9329 29.1988 10.9329H27.5718V12.0866H29.177C29.434 12.0866 29.6526 12.0781 29.8291 11.9807C30.0004 11.8845 30.1029 11.7074 30.1029 11.4877C30.1029 11.268 30.0004 11.1089 29.8291 11.0257ZM44.5917 10.9328C44.3514 10.9328 44.1915 10.9413 44.057 11.0256C43.9176 11.1089 43.8641 11.2322 43.8641 11.3952C43.8641 11.5889 43.9818 11.7208 44.1529 11.7779C44.2924 11.8229 44.4419 11.8361 44.662 11.8361L45.3783 11.8538C46.1008 11.8704 46.5833 11.986 46.8774 12.2675C46.931 12.3065 46.9632 12.3505 47 12.3945V10.9329L44.5917 10.9328ZM23.3418 10.9328H21.619V12.2411H23.3265C23.8341 12.2411 24.1498 12.0071 24.15 11.5627C24.1498 11.1135 23.8188 10.9328 23.3418 10.9328ZM11.844 10.9328V11.8668H14.7446V12.9149H11.844V13.9369H15.0925L16.6017 12.4299L15.1566 10.9328H11.844ZM20.3265 14.5251V10.4067L18.298 12.4328L20.3265 14.5251ZM11.9549 6.27746V7.16258H22.9935L22.9884 5.29007H23.202C23.3516 5.29492 23.3951 5.30772 23.3951 5.53718V7.16264H29.1044V6.72668C29.5649 6.95597 30.2811 7.16264 31.2236 7.16264H33.6254L34.1395 6.02193H35.2792L35.7818 7.16264H40.4103V6.07908L41.111 7.16258H44.8202V0H41.1496V0.845919L40.6356 0H36.8691V0.845919L36.3971 0H31.3093C30.4575 0 29.7091 0.110436 29.1044 0.418255V0H25.5933V0.418255C25.2084 0.10097 24.684 0 24.1012 0H11.2741L10.4135 1.85007L9.52964 0H5.48954V0.845919L5.04562 0H1.60008L6.02577e-05 3.40565V6.1298L2.36602 0.993985H4.32916L6.57617 5.85651V0.993985H8.73273L10.4618 4.47799L12.0503 0.993985H14.2502V6.1298H12.8959L12.8909 2.10752L10.975 6.1298H9.8149L7.89406 2.10396V6.1298H5.20657L4.6989 4.98424H1.94789L1.43498 6.1298H6.02577e-05L0 7.16299H2.25762L2.76661 6.02223H3.90633L4.414 7.16299H8.85578V6.29078L9.25221 7.16662H11.558L11.9549 6.27746ZM29.3495 1.59262C29.7764 1.18272 30.4455 0.993693 31.356 0.993693H32.635V2.09414H31.3828C30.9008 2.09414 30.6283 2.16075 30.3662 2.39846C30.1408 2.61465 29.9863 3.02344 29.9863 3.56172C29.9863 4.11197 30.1041 4.50866 30.3495 4.76781C30.553 4.97104 30.9228 5.03268 31.2704 5.03268H31.864L33.7261 0.993868H35.7058L37.9428 5.85155V0.993927H39.9545L42.2771 4.57072V0.993927H43.6305V6.12957H41.7581L39.2537 2.27493V6.12957H36.5628L36.0487 4.98401H33.304L32.8051 6.12957H31.2589C30.6168 6.12957 29.8036 5.99763 29.3432 5.56149C28.8788 5.12547 28.6374 4.53478 28.6374 3.60092C28.6371 2.83915 28.7813 2.14287 29.3495 1.59262ZM26.6318 0.993751H27.9799V6.12957H26.6318V0.993751ZM20.5536 0.993751H23.5925C24.2676 0.993751 24.7654 1.0104 25.1926 1.23975C25.6105 1.46915 25.8611 1.80408 25.8611 2.37683C25.8611 3.19576 25.2728 3.61875 24.9302 3.74584C25.2192 3.84809 25.4663 4.0287 25.584 4.17829C25.7705 4.43375 25.8027 4.66193 25.8027 5.12056V6.12951H24.4701L24.4651 5.48185C24.4651 5.17274 24.4969 4.72831 24.2565 4.48138C24.0635 4.30082 23.7691 4.2615 23.2934 4.2615H21.8751V6.12957H20.5538L20.5536 0.993751ZM15.2272 0.993751H19.6411V2.06323H16.5486V2.98897H19.5668V4.04174H16.5486V5.06739H19.6411V6.12951H15.2272V0.993751Z" fill="#016FD0"/>
</g>
</svg>
