<svg width="35" height="15" viewBox="0 0 35 15" fill="none" xmlns="http://www.w3.org/2000/svg">
<g id="google-pay">
<g id="Vector">
<path fill-rule="evenodd" clip-rule="evenodd" d="M16.142 11.2727V7.04342H18.3248C19.2193 7.04342 19.9743 6.7437 20.5897 6.1526L20.7374 6.00274C21.8617 4.7789 21.7878 2.87237 20.5897 1.74011C19.9907 1.14068 19.1701 0.815991 18.3248 0.832641H14.8208V11.2727H16.142ZM16.142 5.76124V2.1147H18.358C18.8341 2.1147 19.2855 2.29785 19.622 2.63087C20.336 3.33021 20.3524 4.49577 19.663 5.22008C19.3265 5.57808 18.8505 5.77789 18.358 5.76124H16.142Z" fill="#3C4043"/>
<path fill-rule="evenodd" clip-rule="evenodd" d="M26.9004 4.68728C26.3342 4.16278 25.5628 3.89636 24.5863 3.89636C23.3307 3.89636 22.387 4.36259 21.7633 5.28671L22.9286 6.02768C23.3553 5.39494 23.938 5.07858 24.6765 5.07858C25.1443 5.07858 25.5956 5.25341 25.9485 5.56978C26.2931 5.86949 26.4901 6.30242 26.4901 6.76032V7.06836C25.9813 6.78529 25.3412 6.63543 24.5534 6.63543C23.6343 6.63543 22.8958 6.8519 22.346 7.29314C21.7962 7.73439 21.5172 8.31717 21.5172 9.05814C21.5007 9.7325 21.788 10.3736 22.2967 10.8065C22.8137 11.2727 23.4702 11.5058 24.2416 11.5058C25.1525 11.5058 25.8746 11.0979 26.4244 10.282H26.4819V11.2727H27.7456V6.86855C27.7456 5.94442 27.4666 5.21178 26.9004 4.68728ZM23.3146 9.95731C23.0437 9.7575 22.8796 9.43281 22.8796 9.08314C22.8796 8.69184 23.0601 8.36715 23.4131 8.10906C23.7742 7.85097 24.2256 7.71777 24.7591 7.71777C25.4978 7.70944 26.0723 7.87595 26.4826 8.20897C26.4826 8.7751 26.261 9.2663 25.826 9.68257C25.4321 10.0822 24.8986 10.307 24.3405 10.307C23.9712 10.3153 23.61 10.1904 23.3146 9.95731Z" fill="#3C4043"/>
<path d="M30.585 14.4114L34.9999 4.12946H33.5639L31.5205 9.25793H31.4959L29.4033 4.12946H27.9673L30.864 10.8148L29.2228 14.4114H30.585Z" fill="#3C4043"/>
</g>
<g id="Vector_2">
<path d="M11.5808 6.12788C11.5808 5.71993 11.548 5.31198 11.4823 4.91236H5.91034V7.21851H9.10252C8.97122 7.95948 8.54451 8.62551 7.92084 9.04178V10.5404H9.82466C10.9407 9.49968 11.5808 7.95948 11.5808 6.12788Z" fill="#4285F4"/>
<path d="M5.91057 11.989C7.50256 11.989 8.84813 11.4562 9.82466 10.5404L7.92084 9.04178C7.38744 9.4081 6.70657 9.61626 5.91057 9.61626C4.36782 9.61626 3.06304 8.55893 2.5953 7.14361H0.634029V8.69214C1.63518 10.7152 3.6785 11.989 5.91057 11.989Z" fill="#34A853"/>
<path d="M2.5953 7.14361C2.34907 6.40264 2.34938 5.59506 2.5956 4.84577V3.30556H0.634025C-0.211342 4.99563 -0.211342 6.99373 0.634025 8.6838L2.5953 7.14361Z" fill="#FBBC04"/>
<path d="M5.91057 2.37311C6.7558 2.35646 7.56821 2.68115 8.17547 3.27226L9.86593 1.55722C8.79093 0.541516 7.37947 -0.0162886 5.91057 0.000362331C3.6785 0.000362331 1.63517 1.28248 0.634025 3.30556L2.5953 4.85409C3.06304 3.43044 4.36782 2.37311 5.91057 2.37311Z" fill="#EA4335"/>
</g>
</g>
</svg>
