<svg width="27" height="16" viewBox="0 0 27 16" fill="none" xmlns="http://www.w3.org/2000/svg">
<g id="mastercard">
<path id="Vector" d="M13.5145 13.9937C12.1228 15.1668 10.3175 15.875 8.34484 15.875C3.94322 15.875 0.375 12.3492 0.375 8C0.375 3.65076 3.94322 0.125 8.34484 0.125C10.3175 0.125 12.1228 0.833172 13.5145 2.00626C14.9062 0.833172 16.7115 0.125 18.6842 0.125C23.0858 0.125 26.654 3.65076 26.654 8C26.654 12.3492 23.0858 15.875 18.6842 15.875C16.7115 15.875 14.9062 15.1668 13.5145 13.9937Z" fill="#ED0006"/>
<path id="Vector_2" d="M13.5146 13.9937C15.2282 12.5493 16.3148 10.4 16.3148 8C16.3148 5.59998 15.2282 3.45071 13.5146 2.00629C14.9064 0.833185 16.7117 0.125 18.6843 0.125C23.086 0.125 26.6542 3.65076 26.6542 8C26.6542 12.3492 23.086 15.875 18.6843 15.875C16.7117 15.875 14.9064 15.1668 13.5146 13.9937Z" fill="#F9A000"/>
<path id="Vector_3" d="M13.5145 13.9933C15.2281 12.5489 16.3147 10.3996 16.3147 7.99959C16.3147 5.59955 15.2281 3.45028 13.5145 2.00586C11.8009 3.45028 10.7144 5.59955 10.7144 7.99959C10.7144 10.3996 11.8009 12.5489 13.5145 13.9933Z" fill="#FF5E00"/>
</g>
</svg>
