<svg width="35" height="15" viewBox="0 0 35 15" fill="none" xmlns="http://www.w3.org/2000/svg">
<g id="apple-pay">
<path id="Vector" fill-rule="evenodd" clip-rule="evenodd" d="M6.39533 1.93063C5.98512 2.43644 5.3288 2.83539 4.67247 2.7784C4.59043 2.09449 4.91176 1.36783 5.28778 0.91901C5.69798 0.39895 6.41584 0.0284964 6.99696 0C7.06533 0.712411 6.79869 1.41057 6.39533 1.93063ZM6.98996 2.91374C6.41175 2.87906 5.88415 3.09494 5.458 3.26931C5.18377 3.38152 4.95154 3.47654 4.77486 3.47654C4.57659 3.47654 4.33478 3.37644 4.06327 3.26404C3.70751 3.11677 3.30078 2.9484 2.87425 2.95648C1.8966 2.97073 0.987315 3.54778 0.488234 4.46679C-0.537274 6.30481 0.221602 9.02622 1.21293 10.5223C1.69833 11.2632 2.27946 12.0753 3.04517 12.0468C3.38204 12.0336 3.62436 11.9264 3.87514 11.8156C4.16386 11.6879 4.46379 11.5553 4.9321 11.5553C5.38419 11.5553 5.671 11.6844 5.94632 11.8084C6.20811 11.9263 6.45951 12.0395 6.83271 12.0326C7.62577 12.0183 8.12486 11.2917 8.61026 10.5508C9.1341 9.75558 9.3643 8.9795 9.39923 8.86173L9.40332 8.84811C9.40332 8.84811 9.39601 8.84415 9.38459 8.83871C9.20948 8.75517 7.87106 8.11668 7.85822 6.40455C7.84533 4.96746 8.91983 4.23934 9.08897 4.12472C9.09926 4.11774 9.1062 4.11304 9.10934 4.11059C8.42567 3.05622 7.35914 2.94223 6.98996 2.91374ZM12.48 11.9542V0.847748H16.4795C18.5441 0.847748 19.9867 2.32956 19.9867 4.49529C19.9867 6.66101 18.5168 8.15708 16.4248 8.15708H14.1345V11.9542H12.48ZM14.1342 2.30109H16.0416C17.4773 2.30109 18.2977 3.09899 18.2977 4.50244C18.2977 5.90589 17.4773 6.71091 16.0348 6.71091H14.1342V2.30109ZM25.4491 10.622C25.0115 11.4912 24.0476 12.0397 23.0084 12.0397C21.4701 12.0397 20.3967 11.0851 20.3967 9.64603C20.3967 8.22121 21.4359 7.40194 23.357 7.28083L25.4217 7.15259V6.53992C25.4217 5.63516 24.8543 5.1436 23.8424 5.1436C23.0084 5.1436 22.3999 5.59242 22.2768 6.27633H20.7864C20.8343 4.83726 22.1333 3.79002 23.8903 3.79002C25.7841 3.79002 27.0147 4.82301 27.0147 6.42594V11.9542H25.4833V10.622H25.4491ZM23.4528 10.7218C22.5709 10.7218 22.0103 10.2801 22.0103 9.60328C22.0103 8.90512 22.5504 8.49905 23.5827 8.43493L25.4218 8.31382V8.94074C25.4218 9.98086 24.5741 10.7218 23.4528 10.7218ZM32.0944 12.3888C31.4312 14.3337 30.6723 14.9749 29.0589 14.9749C28.9358 14.9749 28.5256 14.9606 28.4299 14.9321V13.5999C28.5325 13.6141 28.7854 13.6284 28.9153 13.6284C29.6468 13.6284 30.057 13.3078 30.31 12.4743L30.4604 11.9827L27.6574 3.89688H29.387L31.3355 10.4582H31.3697L33.3182 3.89688H35L32.0944 12.3888Z" fill="#252B4A"/>
</g>
</svg>
