<svg width="100" height="20" viewBox="0 0 100 20" fill="none" xmlns="http://www.w3.org/2000/svg">
<path d="M9.99994 14.3921L13.4583 16.4838C14.0916 16.8671 14.8666 16.3005 14.6999 15.5838L13.7833 11.6505L16.8416 9.00045C17.3999 8.51712 17.0999 7.60045 16.3666 7.54212L12.3416 7.20046L10.7666 3.48379C10.4833 2.80879 9.5166 2.80879 9.23327 3.48379L7.65827 7.19212L3.63327 7.53379C2.89994 7.59212 2.59994 8.50879 3.15827 8.99212L6.2166 11.6421L5.29994 15.5755C5.13327 16.2921 5.90827 16.8588 6.5416 16.4755L9.99994 14.3921Z" fill="#FFB800"/>
<path d="M29.9999 14.3921L33.4583 16.4838C34.0916 16.8671 34.8666 16.3005 34.6999 15.5838L33.7833 11.6505L36.8416 9.00045C37.3999 8.51712 37.0999 7.60045 36.3666 7.54212L32.3416 7.20046L30.7666 3.48379C30.4833 2.80879 29.5166 2.80879 29.2333 3.48379L27.6583 7.19212L23.6333 7.53379C22.8999 7.59212 22.5999 8.50879 23.1583 8.99212L26.2166 11.6421L25.2999 15.5755C25.1333 16.2921 25.9083 16.8588 26.5416 16.4755L29.9999 14.3921Z" fill="#FFB800"/>
<path d="M49.9999 14.3921L53.4583 16.4838C54.0916 16.8671 54.8666 16.3005 54.6999 15.5838L53.7833 11.6505L56.8416 9.00045C57.3999 8.51712 57.0999 7.60045 56.3666 7.54212L52.3416 7.20046L50.7666 3.48379C50.4833 2.80879 49.5166 2.80879 49.2333 3.48379L47.6583 7.19212L43.6333 7.53379C42.8999 7.59212 42.5999 8.50879 43.1583 8.99212L46.2166 11.6421L45.2999 15.5755C45.1333 16.2921 45.9083 16.8588 46.5416 16.4755L49.9999 14.3921Z" fill="#FFB800"/>
<path d="M69.9999 14.3921L73.4583 16.4838C74.0916 16.8671 74.8666 16.3005 74.6999 15.5838L73.7833 11.6505L76.8416 9.00045C77.3999 8.51712 77.0999 7.60045 76.3666 7.54212L72.3416 7.20046L70.7666 3.48379C70.4833 2.80879 69.5166 2.80879 69.2333 3.48379L67.6583 7.19212L63.6333 7.53379C62.8999 7.59212 62.5999 8.50879 63.1583 8.99212L66.2166 11.6421L65.2999 15.5755C65.1333 16.2921 65.9083 16.8588 66.5416 16.4755L69.9999 14.3921Z" fill="#FFB800"/>
<path d="M89.9999 14.3921L93.4583 16.4838C94.0916 16.8671 94.8666 16.3005 94.6999 15.5838L93.7833 11.6505L96.8416 9.00045C97.3999 8.51712 97.0999 7.60045 96.3666 7.54212L92.3416 7.20046L90.7666 3.48379C90.4833 2.80879 89.5166 2.80879 89.2333 3.48379L87.6583 7.19212L83.6333 7.53379C82.8999 7.59212 82.5999 8.50879 83.1583 8.99212L86.2166 11.6421L85.2999 15.5755C85.1333 16.2921 85.9083 16.8588 86.5416 16.4755L89.9999 14.3921Z" fill="#FFB800"/>
</svg>
