<svg width="294" height="284" viewBox="0 0 294 284" fill="none" xmlns="http://www.w3.org/2000/svg">
<path d="M208.302 192.211C197.773 191.667 179.547 191.29 175.947 190.97C174.095 182.825 171.112 169.928 169.93 163.876C169.95 163.864 169.97 163.851 169.988 163.838C177.295 159.311 183.847 146.919 173.359 129.458C159.382 129.571 146.561 132.58 134.748 139.547C135.045 142.108 135.288 144.281 135.423 145.704C101.854 160.272 95.3832 164.562 94.143 171.779C92.7026 180.208 100.359 192.243 122.75 227.707C131.265 229.614 144.234 224.944 147.232 217.515C143.806 210.875 131.92 187.897 128.17 181.48C138.278 177.94 150.023 173.549 159.713 169.075C155.751 172.732 147.876 180.428 145.021 183.679C149.173 195.837 154.027 209.956 159.284 212.29C165.425 215.013 168.254 215.808 208.275 215.808C212.869 211.855 211.84 197.937 208.302 192.211Z" fill="#F7F7FF"/>
<path d="M81.8484 43.7246C80.8003 45.575 79.7935 47.4466 78.8286 49.3381C71.5757 63.6953 70.1467 73.1891 70.1722 80.2771C70.1992 83.7694 70.5497 86.6667 70.7398 89.3053V89.3312C71.2521 89.6157 71.7332 89.9003 72.3306 90.2366C73.4091 88.6028 74.2989 88.9173 76.9412 90.159C80.5811 91.8663 80.9317 92.0215 81.1984 94.4791C81.2254 94.7895 81.2524 95.074 81.3063 95.3586C83.8408 93.9875 86.7258 92.6165 90.0152 90.5933C96.2435 86.7389 103.739 80.4269 112.286 66.7423C113.365 65.0091 114.47 63.2024 115.576 61.2323L81.8484 43.7246ZM92.7412 72.0509L91.0156 79.915L87.2735 72.7235L78.9691 73.6289L84.9292 67.9636L81.478 60.6428L88.9197 64.3188L95.0941 58.9381L93.7459 66.8798L101.026 70.8378L92.7412 72.0509Z" fill="#F7F7FF"/>
<path d="M221.245 33.0664C221.218 34.2735 221.218 35.481 221.245 36.688C223.051 36.1707 223.887 35.5498 224.022 34.929C224.269 33.8125 222.005 32.9207 221.245 33.0664Z" fill="#4F56B2"/>
<path d="M211.996 194.332C211.142 194.311 210.288 194.355 209.441 194.462C211.814 200.101 211.949 208.845 210.009 213.398C213.131 217.407 222.355 223.46 229.53 225.297C229.009 214.484 216.957 198.73 211.996 194.332Z" fill="#4F56B2"/>
<path d="M205.39 33.6361C204.928 33.6225 203.119 33.9683 203.119 35.161C203.119 35.8091 203.955 36.5334 206.004 37.0249C206.225 35.8607 206.008 34.6603 205.39 33.6361Z" fill="#4F56B2"/>
<path d="M174.625 105.784C175.002 111.139 175.596 117.528 175.596 121.952C177.645 115.045 180.152 106.689 181.608 102.059L174.625 105.784Z" fill="#4F56B2"/>
<path d="M163.921 54.0465C163.921 52.2874 161.549 51.6924 160.281 53.6067C160.173 51.9511 157.369 51.5645 155.994 53.8137C155.698 52.0287 152.543 52.4168 151.438 54.4345C151.114 52.8565 148.418 53.7361 147.959 56.0901C147.474 58.5735 147.043 60.8241 146.746 62.8419C150.23 61.8591 153.846 61.371 157.477 61.3932C156.722 64.1353 157.051 67.8345 158.286 65.3253C159.499 62.816 162.6 64.7044 160.415 67.9897C160.063 68.6701 159.919 69.4321 160 70.1875C160.082 70.9429 160.384 71.6608 160.873 72.2581C161.197 66.8515 165.564 59.8411 166.913 56.9955C168.747 53.1411 165.97 52.1063 163.921 54.0465Z" fill="#4F56B2"/>
<path d="M142.459 176.249C143.268 178.552 144.131 181.061 145.013 183.674C148.195 180.052 157.389 171.49 160.705 168.618C154.916 171.334 148.577 173.947 142.459 176.249Z" fill="#4F56B2"/>
<path d="M152.55 77.1728C152.528 78.3524 152.411 79.5287 152.199 80.6909C154.065 79.4292 155.516 77.6811 156.378 75.6533C155.145 76.2551 153.865 76.763 152.55 77.1728Z" fill="#4F56B2"/>
<path d="M145.964 219.812C147.249 220.768 148.424 221.852 149.47 223.046C143.214 237.274 129.814 249.251 124.529 252.433C125.057 244.078 126.856 235.842 129.868 227.987C135.934 227.211 142.759 224.262 145.964 219.812Z" fill="#4F56B2"/>
<path d="M131.703 114.634C128.926 117.842 121.214 125.783 113.988 130.362C120.394 128.376 126.655 125.982 132.727 123.194C132.375 120.342 132.033 117.488 131.703 114.634Z" fill="#4F56B2"/>
<path d="M84.9743 98.1777C84.3811 97.8414 83.3565 98.2553 82.6016 99.316C83.2225 100.386 84.2262 101.204 85.4269 101.618C85.864 99.6005 85.5689 98.514 84.9743 98.1777Z" fill="#4F56B2"/>
<path d="M78.4229 114.708C77.1826 116.053 76.2375 116.444 75.6188 116.26C74.7546 116.004 74.6482 114.449 75.1605 112.819C76.2659 113.44 77.3714 114.061 78.4229 114.708Z" fill="#4F56B2"/>
<path d="M58.0137 210.888C59.0886 210.902 60.1556 210.711 61.1528 210.326C62.15 209.94 63.0575 209.369 63.8226 208.644C64.5878 207.92 65.1953 207.057 65.61 206.105C66.0246 205.154 66.2382 204.133 66.2382 203.101C66.2382 202.07 66.0246 201.049 65.61 200.097C65.1953 199.146 64.5878 198.283 63.8226 197.558C63.0575 196.834 62.15 196.262 61.1528 195.877C60.1556 195.492 59.0886 195.301 58.0137 195.314C55.8797 195.341 53.8426 196.174 52.3435 197.631C50.8444 199.088 50.0039 201.054 50.0039 203.101C50.0039 205.149 50.8444 207.114 52.3435 208.572C53.8426 210.029 55.8797 210.861 58.0137 210.888Z" fill="#4F56B2"/>
<path d="M70.7391 110.363C70.7931 108.007 71.9525 105.499 73.8611 102.085C73.4642 100.822 73.3636 99.4913 73.5665 98.1871C73.7694 96.883 74.2708 95.6381 75.0347 94.542C74.551 95.2595 73.9876 95.9247 73.3545 96.5257C74.1634 98.1037 72.8422 100.51 70.4965 99.3713L70.82 99.8614C73.6781 101.414 71.7907 104.933 68.7439 103.538L69.3116 104.03C72.1157 105.453 70.3631 108.894 67.3433 107.625C66.0221 107.057 64.9436 106.643 64.0539 106.281C61.7351 108.065 58.8501 108.48 54.0508 107.833L74.8658 118.646C71.8985 115.406 70.6583 112.976 70.7391 110.363Z" fill="#4F56B2"/>
<path d="M53.3541 107.479L48.2852 113.844L72.7941 126.597L75.5982 119.042L53.3541 107.479Z" fill="#4F56B2"/>
<path d="M78.4242 114.708C75.8698 113.104 72.9238 111.682 70.7129 110.311" stroke="#252B4A" stroke-linecap="round" stroke-linejoin="round"/>
<path d="M146.64 63.6694L141.571 12.6562L102.367 106.974" stroke="#252B4A" stroke-linecap="round" stroke-linejoin="round"/>
<path d="M149.04 88.0371L147.961 76.9395" stroke="#252B4A" stroke-linecap="round" stroke-linejoin="round"/>
<path d="M205.743 192.082L242.6 103.404L177.863 114.373" stroke="#252B4A" stroke-linecap="round" stroke-linejoin="round"/>
<path d="M167.184 214.64L172.819 271.344L195.926 215.752" stroke="#252B4A" stroke-linecap="round" stroke-linejoin="round"/>
<path d="M94.1695 126.686L71.7637 180.596L94.1965 176.793" stroke="#252B4A" stroke-linecap="round" stroke-linejoin="round"/>
<path d="M78.8563 49.3902L64.8358 42.1211C53.6251 61.9883 63.8652 77.0439 70.2013 80.3292" stroke="#252B4A" stroke-linecap="round" stroke-linejoin="round"/>
<path d="M87.2947 72.7494L78.9902 73.629L84.922 67.9896L81.4708 60.6688L88.9124 64.3421L95.0868 58.9355L93.7387 66.8514L101.019 70.8352L92.7411 72.051L91.0694 79.9151L87.2947 72.7494Z" stroke="#252B4A" stroke-linecap="round" stroke-linejoin="round"/>
<path d="M112.383 66.7764L126.309 74.0428C115.087 93.9099 96.3556 93.9099 90.0449 90.6246" stroke="#252B4A" stroke-linecap="round" stroke-linejoin="round"/>
<path d="M69.1564 232.725C77.9405 232.725 85.0629 225.893 85.0629 217.464C85.0629 209.035 77.9405 202.203 69.1564 202.203C60.3724 202.203 53.25 209.035 53.25 217.464C53.25 225.893 60.3709 232.725 69.1564 232.725Z" stroke="#252B4A" stroke-linecap="round" stroke-linejoin="round"/>
<path d="M242.653 65.9201C243.955 65.9201 245.203 65.4241 246.123 64.5411C247.043 63.6582 247.56 62.4607 247.56 61.212C247.56 59.9633 247.043 58.7658 246.123 57.8829C245.203 56.9999 243.955 56.5039 242.653 56.5039C241.352 56.5039 240.104 56.9999 239.183 57.8829C238.263 58.7658 237.746 59.9633 237.746 61.212C237.746 62.4607 238.263 63.6582 239.183 64.5411C240.104 65.4241 241.352 65.9201 242.653 65.9201Z" stroke="#252B4A" stroke-linecap="round" stroke-linejoin="round"/>
<path d="M52.0817 144.328C52.7468 144.328 53.3846 144.075 53.8548 143.624C54.3251 143.172 54.5892 142.56 54.5892 141.922C54.5892 141.284 54.3251 140.672 53.8548 140.221C53.3846 139.77 52.7468 139.517 52.0817 139.517C51.4167 139.517 50.7789 139.77 50.3087 140.221C49.8384 140.672 49.5742 141.284 49.5742 141.922C49.5742 142.56 49.8384 143.172 50.3087 143.624C50.7789 144.075 51.4167 144.328 52.0817 144.328Z" stroke="#252B4A" stroke-linecap="round" stroke-linejoin="round"/>
<path d="M180.316 26.1602L177.809 35.7833L185.412 34.4899L182.905 44.1131" stroke="#252B4A" stroke-linecap="round" stroke-linejoin="round"/>
<path d="M68.7168 103.508C71.7678 104.896 73.6481 101.39 70.7929 99.8315C68.6643 98.6701 67.126 97.9417 65.4004 97.0894C64.8863 96.8046 64.2775 96.721 63.7008 96.856C63.124 96.9911 62.6238 97.3343 62.3042 97.8143C61.9845 98.2942 61.8702 98.874 61.9849 99.4329C62.0995 99.9917 62.4345 100.487 62.9199 100.814C64.2935 101.646 65.917 102.233 68.7168 103.508Z" stroke="#252B4A" stroke-linecap="round" stroke-linejoin="round"/>
<path d="M72.3582 90.2627C71.2797 89.6418 70.5006 89.2225 69.4463 88.6289C68.9493 88.2961 68.3349 88.1664 67.7382 88.2683C67.1416 88.3702 66.6115 88.6953 66.2647 89.1721C65.9179 89.6489 65.7827 90.2384 65.8889 90.8109C65.9951 91.3833 66.3339 91.8919 66.8309 92.2246C67.9841 92.963 69.1916 93.6201 70.4439 94.1907" stroke="#252B4A" stroke-linecap="round" stroke-linejoin="round"/>
<path d="M67.3697 107.62C70.3626 108.887 72.1137 105.451 69.311 104.024C67.2335 102.966 65.6938 102.299 64.0264 101.541C63.5233 101.269 62.9301 101.196 62.3717 101.336C61.8134 101.476 61.3334 101.818 61.0329 102.291C60.7324 102.764 60.6348 103.33 60.7607 103.87C60.8865 104.411 61.226 104.883 61.7076 105.188C63.0557 105.937 64.6195 106.456 67.3697 107.62Z" stroke="#252B4A" stroke-linecap="round" stroke-linejoin="round"/>
<path d="M70.3881 94.2981C69.2826 93.729 68.3063 93.3001 67.2334 92.746C66.7186 92.4393 66.0996 92.3368 65.5074 92.4601C64.9152 92.5834 64.3962 92.9228 64.06 93.4065C63.7239 93.8903 63.597 94.4805 63.7062 95.0524C63.8153 95.6243 64.152 96.133 64.645 96.4711C66.0457 97.3533 67.6436 97.9864 70.4633 99.3425C72.8133 100.471 74.1302 98.0749 73.3213 96.4969" stroke="#252B4A" stroke-linecap="round" stroke-linejoin="round"/>
<path d="M82.575 99.317C83.3569 98.2563 84.3758 97.852 84.9746 98.1787C86.0432 98.7642 86.1326 101.749 82.8176 108.035C79.2841 114.735 76.8036 116.629 75.5917 116.261C74.7544 116.006 74.621 114.424 75.1333 112.82" stroke="#252B4A" stroke-linecap="round" stroke-linejoin="round"/>
<path d="M85.4298 101.619C83.5964 100.895 81.7402 99.6039 81.2237 94.4792C80.9725 92.0284 80.605 91.8651 76.9664 90.1591C72.7092 88.1645 72.949 88.5253 69.7405 95.7726C68.9515 97.5548 71.8436 99.3942 75.1869 94.2205C72.5716 98.1784 73.0583 102.117 75.4565 104.62" stroke="#252B4A" stroke-linecap="round" stroke-linejoin="round"/>
<path d="M215.984 23.1847C215.717 26.4183 211.628 26.5218 211.643 23.3917C211.653 21.0635 211.756 19.4079 211.858 17.5454C212.029 14.4411 216.344 14.467 216.442 17.028C216.504 18.5801 216.232 20.2098 215.984 23.1847Z" stroke="#252B4A" stroke-linecap="round" stroke-linejoin="round"/>
<path d="M202.262 20.8078C202.235 19.6696 202.253 18.8391 202.235 17.7526C202.185 14.8036 206.564 14.6701 206.764 17.1318C206.857 18.3884 206.857 19.6506 206.764 20.9086" stroke="#252B4A" stroke-linecap="round" stroke-linejoin="round"/>
<path d="M220.623 23.9349C220.286 27.0922 216.322 27.0909 216.444 24.0383C216.535 21.7878 216.683 20.1839 216.822 18.399C217.056 15.4036 221.243 15.5275 221.243 17.9905C221.243 19.4855 220.931 21.0648 220.623 23.9349Z" stroke="#252B4A" stroke-linecap="round" stroke-linejoin="round"/>
<path d="M206.873 20.8822C206.9 19.6663 207.006 18.6316 207.035 17.4675C207.111 14.3115 211.504 14.2598 211.672 16.8466C211.776 18.426 211.538 20.0802 211.376 23.1096C211.386 23.5614 211.244 24.0043 210.971 24.3728C210.698 24.7412 210.309 25.0158 209.862 25.1559C209.414 25.2955 208.931 25.2928 208.485 25.148C208.039 25.0033 207.653 24.7244 207.385 24.3527" stroke="#252B4A" stroke-linecap="round" stroke-linejoin="round"/>
<path d="M205.363 33.6355C204.015 33.8424 203.152 34.4633 203.152 35.11C203.152 36.2741 205.768 37.6669 213.075 37.5417C220.84 37.4055 223.781 36.093 224.048 34.9031C224.24 34.0494 223.105 33.2693 221.406 33.0146" stroke="#252B4A" stroke-linecap="round" stroke-linejoin="round"/>
<path d="M206.038 36.9986C206.28 35.1102 206.028 32.9767 201.697 30.2986C199.616 29.012 199.646 28.6171 199.917 24.7627C200.238 20.2098 200.431 20.5937 208.545 20.9859C210.54 21.0825 210.756 24.3747 204.447 24.9955C209.3 24.4781 212.616 26.5994 213.671 29.7295" stroke="#252B4A" stroke-linecap="round" stroke-linejoin="round"/>
<path d="M221.271 36.6628C221.11 31.3339 221.696 22.7454 221.271 18.6064" stroke="#252B4A" stroke-linecap="round" stroke-linejoin="round"/>
<path d="M203.153 35.1357C203.207 41.6029 203.153 58.1589 202.695 65.8937C200.566 67.2388 183.769 75.2881 176.568 78.4917C170.05 81.3931 164.54 80.7927 161.973 76.8498C158.425 71.4037 164.483 62.2448 166.94 56.9948C168.746 53.1404 165.996 52.1056 163.947 54.0458C163.947 52.3126 161.574 51.6917 160.307 53.606C160.172 51.9504 157.368 51.5637 156.02 53.813C155.696 52.0539 152.569 52.4419 151.463 54.4338C151.14 52.8817 148.462 53.7531 147.985 56.0894C143.704 77.0036 146.282 80.4605 156.424 75.6462C155.561 77.6739 154.111 79.4221 152.245 80.6838" stroke="#252B4A" stroke-linecap="round" stroke-linejoin="round"/>
<path d="M224.047 34.9297C224.047 71.3787 224.46 73.1678 222.456 76.7594C219.799 81.5247 214.556 84.4942 174.625 105.784C175.029 111.139 175.596 117.529 175.596 121.952" stroke="#252B4A" stroke-linecap="round" stroke-linejoin="round"/>
<path d="M84.9766 98.1778C93.8742 103.3 105.953 108.577 107.463 109.25C114.204 106.611 136.499 96.9578 145.636 91.1932C150.974 87.8275 152.512 80.8716 152.539 77.1465" stroke="#252B4A" stroke-linecap="round" stroke-linejoin="round"/>
<path d="M145.641 91.2158C149.173 94.7857 162.843 92.305 166.375 80.0146" stroke="#252B4A" stroke-linecap="round" stroke-linejoin="round"/>
<path d="M146.748 62.8417C150.233 61.8639 153.848 61.376 157.479 61.393C156.724 64.161 157.053 67.8861 158.288 65.3251C159.523 62.764 162.615 64.7382 160.417 67.9895C160.059 68.6684 159.912 69.4316 159.994 70.1882C160.075 70.9448 160.381 71.6632 160.875 72.2579" stroke="#252B4A" stroke-linecap="round" stroke-linejoin="round"/>
<path d="M124.045 182.898C136.232 178.707 156.19 171.627 169.423 164.195C176.921 159.984 184.144 147.38 173.386 129.453C175.408 122.646 179.561 108.603 181.617 102.06" stroke="#252B4A" stroke-linecap="round" stroke-linejoin="round"/>
<path d="M148.661 139.982C103.472 159.28 95.5546 163.68 94.1426 171.775C92.9378 178.683 96.003 185.615 122.75 227.733C130.191 229.673 144.158 225.353 147.232 217.522C139.197 201.865 130.839 186.071 128.169 181.487" stroke="#252B4A" stroke-linecap="round" stroke-linejoin="round"/>
<path d="M142.488 176.25C147.126 189.237 152.923 209.44 159.313 212.286C165.703 215.131 168.184 215.7 208.271 215.804C212.288 212.855 212.423 198.549 208.271 192.186C197.628 191.617 179.772 191.28 175.97 190.944C174.11 182.666 171.145 169.704 170.01 163.808" stroke="#252B4A" stroke-linecap="round" stroke-linejoin="round"/>
<path d="M145.966 219.812C147.874 221.331 149.61 223.039 151.143 224.909C147.907 233.575 135.107 249.975 124.584 256.21C123.964 249.51 126.553 235.955 129.842 227.987" stroke="#252B4A" stroke-linecap="round" stroke-linejoin="round"/>
<path d="M199.918 191.849C203.477 195.677 205.23 208.741 199.379 215.777" stroke="#252B4A" stroke-linecap="round" stroke-linejoin="round"/>
<path d="M117.898 220.072C126.095 221.805 139.043 218.649 143.189 209.673" stroke="#252B4A" stroke-linecap="round" stroke-linejoin="round"/>
<path d="M124.477 252.434C129.707 249.278 143.189 237.275 149.444 223.025" stroke="#252B4A" stroke-linecap="round" stroke-linejoin="round"/>
<path d="M209.434 194.436C211.055 194.255 212.693 194.255 214.314 194.436C218.87 197.976 231.597 212.621 231.759 225.737C224.425 224.784 213.505 217.847 210 213.372" stroke="#252B4A" stroke-linecap="round" stroke-linejoin="round"/>
<path d="M211.996 194.332C216.963 198.73 228.982 214.482 229.522 225.297" stroke="#252B4A" stroke-linecap="round" stroke-linejoin="round"/>
<path d="M131.137 109.25C131.838 117.295 134.826 139.103 135.394 145.673" stroke="#252B4A" stroke-linecap="round" stroke-linejoin="round"/>
<path d="M173.387 129.454C158.126 129.558 145.562 133.179 134.75 139.543" stroke="#252B4A" stroke-linecap="round" stroke-linejoin="round"/>
<path d="M134.184 218.028C128.306 207.085 116.119 182.122 113.504 176.897C125.691 170.999 156.671 158.633 162.009 155.451C167.348 152.27 169.451 148.182 163.789 130.022" stroke="#252B4A" stroke-linecap="round" stroke-linejoin="round"/>
<path d="M75.6211 116.268C101.155 131.084 105.254 132.69 111.643 131.006C118.876 128.943 125.927 126.331 132.728 123.194" stroke="#252B4A" stroke-linecap="round" stroke-linejoin="round"/>
<path d="M113.988 130.359C121.19 125.78 128.926 117.813 131.703 114.634" stroke="#252B4A" stroke-linecap="round" stroke-linejoin="round"/>
<path d="M145.049 183.674C148.23 180.052 157.425 171.515 160.741 168.618" stroke="#252B4A" stroke-linecap="round" stroke-linejoin="round"/>
<path d="M42.4824 70.0332L43.4179 75.1048" stroke="#252B4A" stroke-linecap="round" stroke-linejoin="round"/>
<path d="M54.5888 78.1572L49.3027 79.0543" stroke="#252B4A" stroke-linecap="round" stroke-linejoin="round"/>
<path d="M46.1211 89.7722L45.1855 84.6992" stroke="#252B4A" stroke-linecap="round" stroke-linejoin="round"/>
<path d="M34.0156 81.6465L39.3045 80.748" stroke="#252B4A" stroke-linecap="round" stroke-linejoin="round"/>
<path d="M49.3017 79.0542C48.6454 79.1661 47.9725 79.1525 47.3216 79.0145C46.6707 78.8764 46.0546 78.6164 45.5086 78.2495C44.9626 77.8826 44.4974 77.416 44.1397 76.8763C43.782 76.3366 43.5387 75.7345 43.4239 75.1045C43.5409 75.7345 43.5272 76.3804 43.3836 77.0053C43.24 77.6302 42.9693 78.2218 42.587 78.7462C42.2047 79.2705 41.7184 79.7174 41.1558 80.0611C40.5932 80.4048 39.9655 80.6387 39.3086 80.7493C39.965 80.6373 40.638 80.6506 41.2891 80.7885C41.9402 80.9264 42.5565 81.1861 43.1028 81.5529C43.649 81.9197 44.1145 82.3862 44.4725 82.9259C44.8306 83.4655 45.0741 84.0676 45.1893 84.6977C45.0726 84.068 45.0865 83.4225 45.2301 82.798C45.3737 82.1734 45.6442 81.5822 46.0262 81.0581C46.4081 80.5339 46.894 80.0872 47.4561 79.7433C48.0181 79.3995 48.6453 79.1653 49.3017 79.0542Z" stroke="#252B4A" stroke-linecap="round" stroke-linejoin="round"/>
<path d="M242.625 146.812L243.965 154.085" stroke="#252B4A" stroke-linecap="round" stroke-linejoin="round"/>
<path d="M259.983 158.462L252.402 159.747" stroke="#252B4A" stroke-linecap="round" stroke-linejoin="round"/>
<path d="M247.841 175.114L246.5 167.841" stroke="#252B4A" stroke-linecap="round" stroke-linejoin="round"/>
<path d="M230.482 163.464L238.067 162.179" stroke="#252B4A" stroke-linecap="round" stroke-linejoin="round"/>
<path d="M252.401 159.747C251.459 159.908 250.494 159.889 249.56 159.691C248.626 159.493 247.742 159.121 246.958 158.596C246.174 158.07 245.506 157.401 244.992 156.627C244.478 155.853 244.129 154.989 243.964 154.085C244.132 154.988 244.112 155.914 243.907 156.81C243.701 157.706 243.314 158.554 242.766 159.306C242.218 160.058 241.521 160.698 240.714 161.191C239.908 161.684 239.008 162.02 238.066 162.179C239.484 161.938 240.944 162.105 242.263 162.661C243.581 163.216 244.697 164.135 245.471 165.3C245.985 166.074 246.334 166.938 246.499 167.842C246.331 166.938 246.351 166.012 246.557 165.116C246.763 164.22 247.151 163.372 247.699 162.62C248.247 161.868 248.944 161.227 249.751 160.734C250.558 160.241 251.458 159.906 252.401 159.747Z" stroke="#252B4A" stroke-linecap="round" stroke-linejoin="round"/>
<path d="M81.8484 43.7246C80.8003 45.575 79.7935 47.4466 78.8286 49.3381C71.5757 63.6953 70.1467 73.1891 70.1722 80.2771C70.1992 83.7694 70.5497 86.6667 70.7398 89.3053V89.3312C71.2521 89.6157 71.7332 89.9003 72.3306 90.2366C73.4091 88.6028 74.2989 88.9173 76.9412 90.159C80.5811 91.8663 80.9317 92.0215 81.1984 94.4791C81.2254 94.7895 81.2524 95.074 81.3063 95.3586C83.8408 93.9875 86.7258 92.6165 90.0152 90.5933C96.2435 86.7389 103.739 80.4269 112.286 66.7423C113.365 65.0091 114.47 63.2024 115.576 61.2323L81.8484 43.7246ZM92.7412 72.0509L91.0156 79.915L87.2735 72.7235L78.9691 73.6289L84.9292 67.9636L81.478 60.6428L88.9197 64.3188L95.0941 58.9381L93.7459 66.8798L101.026 70.8378L92.7412 72.0509Z" stroke="#252B4A" stroke-linejoin="round"/>
<path d="M70.7391 110.363C70.7931 108.007 71.9525 105.499 73.8611 102.085C73.4642 100.822 73.3636 99.4913 73.5665 98.1871C73.7694 96.883 74.2708 95.6381 75.0347 94.542C74.551 95.2595 73.9876 95.9247 73.3545 96.5257C74.1634 98.1037 72.8422 100.51 70.4965 99.3713L70.82 99.8614C73.6781 101.414 71.7907 104.933 68.7439 103.538L69.3116 104.03C72.1157 105.453 70.3631 108.894 67.3433 107.625C66.0221 107.057 64.9436 106.643 64.0539 106.281C61.7351 108.065 58.8501 108.48 54.0508 107.833L74.8658 118.646C71.8985 115.406 70.6583 112.976 70.7391 110.363Z" stroke="#252B4A" stroke-linejoin="round"/>
<path d="M53.3775 107.479L48.3086 113.844L72.8175 126.597L75.6216 119.042L53.3775 107.479Z" stroke="#252B4A" stroke-linejoin="round"/>
</svg>
