<svg width="294" height="283" viewBox="0 0 294 283" fill="none" xmlns="http://www.w3.org/2000/svg">
<path d="M170.365 134.469C152.92 129.031 148.737 112.011 148.737 112.011C149.323 111.203 149.895 110.385 150.453 109.557L151.017 100.777C141.904 98.342 147.077 87.6175 147.077 87.6175C142.898 81.7145 139.41 75.3813 136.678 68.7344C131.618 69.2108 126.771 70.9413 122.606 73.7585C126.089 84.997 131.972 98.8723 144.471 117.359C139.093 123.848 130.313 134.109 126.084 139.446L92.3689 124.857L84.6836 140.22L122.526 158.948C125.14 160.13 128.098 160.393 130.891 159.694C133.685 158.994 136.138 157.374 137.829 155.114L146.111 144.079C149.434 149 151.98 153.042 161.205 156.772C171.017 152.504 175.266 147.336 178.946 140.22C175.762 138.8 172.858 136.854 170.365 134.469Z" fill="#F7F7FF"/>
<path d="M170.822 200.859L169.455 193.631L201.401 187.934L202.768 195.16L170.822 200.859Z" fill="#F7F7FF"/>
<path d="M198.776 194.772L193.764 189.281L220.752 166.279L225.763 171.77L198.776 194.772Z" fill="#F7F7FF"/>
<path d="M76.0809 84.9167C74.9473 84.8856 73.8473 85.291 73.023 86.0438C72.1987 86.7965 71.7175 87.8349 71.6853 88.9306C71.6531 90.0262 72.0726 91.0893 72.8514 91.886C73.6303 92.6827 74.7047 93.1478 75.8383 93.1789C76.9719 93.21 78.0719 92.8046 78.8962 92.0519C79.7205 91.2991 80.2017 90.2607 80.2339 89.1651C80.2661 88.0694 79.8466 87.0063 79.0678 86.2096C78.2889 85.4129 77.2145 84.9478 76.0809 84.9167Z" fill="#F7F7FF"/>
<path d="M79.5648 65.9041C80.7086 64.2253 81.4083 62.3006 81.6021 60.2993C81.796 58.2979 81.4782 56.2812 80.6767 54.4264C79.8752 52.5716 78.6145 50.9355 77.0054 49.6619C75.3964 48.3883 73.4882 47.5163 71.4488 47.1225C69.4093 46.7287 67.301 46.8252 65.3091 47.4035C63.3173 47.9818 61.5029 49.0241 60.0256 50.4389C58.5482 51.8537 57.4531 53.5976 56.8365 55.5173C56.2198 57.4371 56.1006 59.4738 56.4893 61.4485C56.5217 61.6584 56.5655 61.8657 56.6233 62.0702L62.7865 60.9576C62.5315 60.1456 62.4509 59.2918 62.5493 58.4486C62.6478 57.6054 62.9234 56.7904 63.3592 56.0538C63.795 55.3171 64.3819 54.6742 65.0838 54.1644C65.7857 53.6547 66.588 53.2888 67.4413 53.0892C68.2947 52.8896 69.1813 52.8606 70.0467 53.0038C70.9121 53.147 71.7381 53.4595 72.4742 53.9221C73.2102 54.3847 73.8408 54.9877 74.3272 55.6942C74.8137 56.4006 75.1458 57.1956 75.3032 58.0304C75.8675 61.004 74.1958 63.2863 72.1137 65.8018C70.7467 67.377 69.9976 69.3672 69.9977 71.4231C70.0062 74.4935 70.3842 77.5543 71.1262 80.5402L77.4742 79.3745C76.7931 76.6279 76.4956 73.8056 76.5897 70.9827C76.9918 69.0126 78.4659 67.5102 79.5648 65.9041Z" fill="#F7F7FF"/>
<path fill-rule="evenodd" clip-rule="evenodd" d="M63.2781 15.4081C73.5703 14.1919 84.0108 15.7062 93.4803 19.7887C111.7 27.6337 122.892 42.9338 126.231 59.6477C126.231 59.6477 126.313 61.9001 126.49 63.6357C125.377 64.2847 123.186 62.4809 121.272 60.9034C119.545 59.4814 118.043 58.2448 117.76 59.1624C117.49 60.0445 118.141 60.9893 119.177 62.4891C120.566 64.5014 122.644 67.5118 124.108 72.7105L122.698 73.8189C123.125 75.4714 124.137 78.25 125.326 81.5221L125.814 82.8678C123.447 92.7607 118.206 102.182 109.926 109.886C102.853 116.498 94.1334 121.232 84.6115 123.629C84.3999 123.684 82.9582 122.779 81.2442 121.703C78.9011 120.23 76.0488 118.44 75.1319 118.342C73.6775 118.185 77.1166 122.473 78.6021 124.327C78.7375 124.494 78.856 124.641 78.9519 124.764C71.4581 125.895 63.806 125.573 56.4423 123.816C49.0787 122.059 42.1507 118.903 36.0628 114.53C29.975 110.158 24.849 104.657 20.9841 98.3496C17.1191 92.042 14.5926 85.0536 13.5519 77.7923C12.5113 70.5309 12.9773 63.1419 14.9228 56.0565C16.8683 48.971 20.2543 42.331 24.8833 36.5239C29.5123 30.7167 35.2916 25.8587 41.8839 22.2333C48.4762 18.6079 55.7481 16.2877 63.2781 15.4081ZM64.7819 27.2247C72.8333 26.273 81.001 27.4574 88.4089 30.6509C117.598 43.2188 123.725 80.246 101.274 101.132C96.1804 105.895 89.9877 109.418 83.2072 111.411C76.4267 113.404 69.2529 113.81 62.2781 112.595C55.3034 111.379 48.7278 108.578 43.0941 104.422C37.4605 100.266 32.9305 94.8746 29.8782 88.6927C26.8258 82.5108 25.3386 75.7158 25.5394 68.8688C25.7402 62.0218 27.6233 55.3192 31.0331 49.3143C34.4428 43.3095 39.2815 38.1746 45.1497 34.3337C51.0178 30.4928 57.7471 28.0561 64.7819 27.2247Z" fill="#4F56B2"/>
<path d="M225.843 181.795L229.113 177.003L224.074 173.169L221.422 175.474L225.843 181.795Z" fill="#4F56B2"/>
<path d="M243.158 187.604L238.926 197.011C237.65 199.877 235.45 202.268 232.654 203.828L253.775 219.743L266.211 204.927L243.158 187.604Z" fill="#4F56B2"/>
<path d="M220.887 115.898C224.406 116.373 227.979 115.51 230.854 113.49C233.728 111.471 235.679 108.452 236.297 105.07C231.96 103.721 227.387 103.226 222.848 103.613C218.31 104 213.897 105.262 209.871 107.323C210.737 109.58 212.218 111.568 214.157 113.077C216.096 114.586 218.422 115.561 220.887 115.898Z" fill="#4F56B2"/>
<path d="M140.134 110.716L120.623 96.0557C117.819 101.802 113.759 106.894 108.725 110.979L133.834 130.122L144.502 117.352L140.134 110.716Z" fill="#4F56B2"/>
<path d="M155.785 131.335L146.141 144.184C146.82 145.389 147.609 146.533 148.499 147.602L155.785 131.335Z" fill="#4F56B2"/>
<path d="M150.855 103.463L154.687 100.848C153.472 100.925 152.253 100.899 151.043 100.771L150.855 103.463Z" fill="#4F56B2"/>
<path d="M176.343 116.96C176.626 114.871 176.135 112.754 174.958 110.981C173.781 109.208 171.994 107.894 169.912 107.272C170.179 106.532 170.261 105.742 170.154 104.966C168.385 92.4815 165.704 84.7878 161.282 80.3854C158.28 77.3532 152.144 77.8467 148.499 82.2751C144.879 86.7102 145.789 92.5605 145.765 93.0459C146.132 88.6879 148.236 84.6382 151.634 81.7515C152.585 80.9968 153.704 80.4649 154.903 80.1972C154.715 84.1361 157.958 90.3777 161.872 88.8235C164.488 87.7914 164.803 92.3683 159.647 92.3683C158.253 103.169 158.682 115.546 163.828 125.628L164.659 127.155C167.188 131.608 170.804 135.396 175.192 138.191C178.107 138.338 180.962 137.36 183.131 135.473C185.3 133.585 186.604 130.943 186.757 128.126C186.909 125.31 185.897 122.55 183.944 120.455C181.991 118.359 179.258 117.098 176.343 116.95V116.96Z" fill="#4F56B2"/>
<path d="M225.843 181.795L229.113 177.003L224.074 173.169L221.422 175.474L225.843 181.795Z" stroke="#252B4A" stroke-linejoin="round"/>
<path d="M243.158 187.604L238.926 197.011C237.65 199.877 235.45 202.268 232.654 203.828L253.775 219.743L266.211 204.927L243.158 187.604Z" stroke="#252B4A"/>
<path d="M140.134 110.716L120.623 96.0557C117.819 101.802 113.759 106.894 108.725 110.979L133.834 130.122L144.502 117.352L140.134 110.716Z" stroke="#252B4A"/>
<path d="M146.675 87.0666C142.628 81.3475 139.282 75.1932 136.705 68.7275C131.644 69.2021 126.797 70.9354 122.635 73.7585C126.119 84.9997 131.987 98.8587 144.5 117.353" stroke="#252B4A" stroke-linecap="round" stroke-linejoin="round"/>
<path d="M126.922 65.93C126.171 62.151 125.883 58.2996 126.064 54.4556C125.985 52.4692 126.126 50.4804 126.488 48.5234C127.475 43.1557 128.828 43.6793 129.275 48.8602C130.368 61.5507 133.507 65.7486 134.661 69.0126" stroke="#252B4A" stroke-linecap="round" stroke-linejoin="round"/>
<path d="M126.252 50.1558C125.353 48.324 124.189 46.6254 122.794 45.1113C122.371 44.7186 121.384 44.6791 122.607 47.9608C122.869 48.6615 123.917 51.691 124.242 52.779C124.994 54.9495 125.603 57.1641 126.064 59.4092" stroke="#252B4A" stroke-linecap="round" stroke-linejoin="round"/>
<path d="M126.44 62.8996C126.253 65.4642 122.155 61.498 120.222 59.9983C118.483 58.6485 115.99 57.7909 119.498 62.6924C121.577 65.8194 123.15 69.2351 124.162 72.8211" stroke="#252B4A" stroke-linecap="round" stroke-linejoin="round"/>
<path d="M227.746 184.489L221.422 175.475" stroke="#252B4A" stroke-linecap="round" stroke-linejoin="round"/>
<path d="M151.079 100.704C151.079 100.704 150.783 104.293 150.488 109.551C149.897 110.362 149.316 111.18 148.746 112.005" stroke="#252B4A" stroke-linecap="round" stroke-linejoin="round"/>
<path d="M154.689 100.926L150.867 103.432" stroke="#252B4A" stroke-linecap="round" stroke-linejoin="round"/>
<path d="M195.103 188.116L173.689 165.295" stroke="#252B4A" stroke-linecap="round" stroke-linejoin="round"/>
<path d="M155.758 131.31L148.496 147.576" stroke="#252B4A" stroke-linecap="round" stroke-linejoin="round"/>
<path d="M210.97 174.593C202.649 161.669 190.567 151.406 176.236 145.091" stroke="#252B4A" stroke-linecap="round" stroke-linejoin="round"/>
<path d="M171.685 193.235L161.281 156.746" stroke="#252B4A" stroke-linecap="round" stroke-linejoin="round"/>
<path d="M202.124 191.923L202.768 195.161L170.822 200.86L169.455 193.632L193.763 189.308" stroke="#252B4A" stroke-linecap="round" stroke-linejoin="round"/>
<path d="M175.164 138.226C178.035 138.3 180.822 137.288 182.933 135.405C185.043 133.522 186.31 130.918 186.464 128.146C186.617 125.374 185.645 122.654 183.755 120.564C181.864 118.474 179.205 117.18 176.342 116.957C176.624 114.869 176.133 112.751 174.956 110.978C173.78 109.205 171.992 107.892 169.911 107.269C170.778 104.838 168.095 89.561 163.264 82.7412C158.73 76.3414 152.103 77.8398 148.47 82.2722C144.838 86.7046 145.76 92.5564 145.736 93.0431" stroke="#252B4A" stroke-linecap="round" stroke-linejoin="round"/>
<path d="M225.843 181.795L244.095 154.96C247.578 149.546 247.444 147.836 248.999 144.107C256.289 140.273 272.825 135.766 280.999 134.729C274.996 143.796 260.926 149.157 255.378 160.4L238.896 196.974C237.922 199.141 236.419 201.047 234.517 202.529C232.614 204.012 230.368 205.027 227.972 205.487C225.574 205.948 223.098 205.84 220.753 205.174C218.408 204.508 216.265 203.304 214.507 201.663L203.143 191.069" stroke="#252B4A" stroke-linecap="round" stroke-linejoin="round"/>
<path d="M198.776 194.772L193.764 189.281L220.752 166.279L225.763 171.77L198.776 194.772Z" stroke="#252B4A" stroke-linecap="round" stroke-linejoin="round"/>
<path d="M78.5717 126.906C81.4932 126.621 76.6363 122.143 75.8378 120.77C74.7587 118.909 73.6146 116.754 78.6521 120.175C82.7331 122.664 86.9663 124.913 91.3282 126.908" stroke="#252B4A" stroke-linecap="round" stroke-linejoin="round"/>
<path d="M175.969 199.927L178.192 207.647C179.642 212.607 183.036 216.826 187.653 219.406C192.263 221.997 234.367 241.527 234.367 241.527C245.597 247.663 250.179 261.576 259.131 268C258.622 260.048 255.084 243.781 251.626 236.506C247.938 234.774 246.142 234.767 241.014 231.223L200.785 203.895L198.481 195.916" stroke="#252B4A" stroke-linecap="round" stroke-linejoin="round"/>
<path d="M155.758 131.31C154.232 133.227 145.078 145.469 137.829 155.141C136.136 157.398 133.682 159.016 130.89 159.715C128.097 160.414 125.14 160.151 122.526 158.972L84.6836 140.247L92.3477 124.887L126.062 139.444" stroke="#252B4A" stroke-linecap="round" stroke-linejoin="round"/>
<path d="M170.366 134.47C172.876 136.846 175.779 138.801 178.955 140.252C175.401 148.16 169.318 153.279 161.226 156.798C151.977 153.056 149.444 149.053 146.105 144.109" stroke="#252B4A" stroke-linecap="round" stroke-linejoin="round"/>
<path d="M219.197 167.574C202.593 146.065 185 142.661 178.955 140.252" stroke="#252B4A" stroke-linecap="round" stroke-linejoin="round"/>
<path d="M148.738 112.012C148.738 112.012 152.919 129.03 170.366 134.47C167.676 131.906 165.456 128.919 163.8 125.637C158.641 115.568 158.225 103.179 159.619 92.3777H160.315C164.547 92.1446 164.468 87.7899 161.843 88.8329C157.929 90.3831 154.688 84.1441 154.876 80.208C153.678 80.4777 152.559 81.0089 151.606 81.7609C149.624 83.4381 148.07 85.5352 147.064 87.8886C146.059 90.2419 145.629 92.788 145.81 95.3281C146.309 98.6207 148.655 101.252 154.688 100.93" stroke="#252B4A" stroke-linecap="round" stroke-linejoin="round"/>
<path d="M148.738 112.012C146.219 115.693 126.574 138.2 123.947 142.319" stroke="#252B4A" stroke-linecap="round" stroke-linejoin="round"/>
<path d="M68.5774 129.859C67.2909 130.015 64.6388 130.534 63.8602 130.688C60.3236 131.392 60.7793 132.294 61.3421 132.346C63.6189 132.555 67.3177 132.529 69.4351 132.787C72.839 133.202 79.4056 133.797 81.9786 135.273" stroke="#252B4A" stroke-linecap="round" stroke-linejoin="round"/>
<path d="M69.2465 132.76C68.6822 132.967 68.1744 133.148 67.9331 133.252C64.556 134.495 65.1739 135.331 65.7353 135.297C68.015 135.168 71.6601 134.521 73.8029 134.442C76.3799 134.396 78.9556 134.586 81.4952 135.012" stroke="#252B4A" stroke-linecap="round" stroke-linejoin="round"/>
<path d="M167.151 58.3409C167.109 59.0074 166.864 59.6469 166.446 60.1783C166.028 60.7097 165.455 61.109 164.802 61.3254C164.314 61.4875 163.794 61.5431 163.281 61.4879C162.768 61.4328 162.274 61.2685 161.835 61.0067C161.396 60.7449 161.022 60.3922 160.74 59.9739C160.459 59.5557 160.277 59.0824 160.208 58.588C160.138 58.0937 160.183 57.5906 160.339 57.115C160.495 56.6394 160.758 56.2032 161.109 55.8376C161.46 55.4721 161.891 55.1864 162.37 55.0011C162.85 54.8158 163.366 54.7356 163.881 54.7661C164.803 54.8247 165.665 55.2332 166.277 55.9028C166.89 56.5724 167.204 57.4487 167.151 58.3409Z" stroke="#252B4A" stroke-linecap="round" stroke-linejoin="round"/>
<path d="M259.8 139.832C260.579 132.533 258.817 125.191 254.792 118.969C250.767 112.747 244.71 108 237.58 105.48C231.654 103.387 225.244 102.923 219.062 104.14C212.879 105.357 207.167 108.206 202.56 112.373C197.954 116.539 194.632 121.858 192.966 127.739C191.299 133.62 191.353 139.833 193.12 145.687" stroke="#252B4A" stroke-linecap="round" stroke-linejoin="round"/>
<path d="M223.539 169.334C227.375 169.597 231.227 169.219 234.93 168.22" stroke="#252B4A" stroke-linecap="round" stroke-linejoin="round"/>
<path d="M224.69 89.6057C222.682 89.3381 220.637 89.504 218.703 90.0915C216.768 90.6789 214.993 91.6734 213.504 93.0033C212.014 94.3332 210.849 95.9655 210.09 97.7828C209.332 99.6002 208.999 101.557 209.117 103.514C209.276 106.13 210.234 108.642 211.87 110.733C213.506 112.824 215.746 114.399 218.307 115.26C220.869 116.121 223.637 116.229 226.262 115.571C228.887 114.912 231.251 113.517 233.056 111.561C234.86 109.603 236.023 107.173 236.399 104.577C236.896 101.092 235.943 97.5582 233.748 94.7514C231.553 91.9447 228.295 90.0941 224.69 89.6057Z" stroke="#252B4A" stroke-linecap="round" stroke-linejoin="round"/>
<path d="M123.359 50.0783C119.941 41.6529 114.434 34.1682 107.321 28.2824C100.209 22.3965 91.7089 18.2899 82.5691 16.3235C73.4293 14.3572 63.9296 14.5914 54.9055 17.0056C45.8813 19.4197 37.6091 23.9399 30.8162 30.1685C24.0233 36.3972 18.918 44.1435 15.949 52.7264C12.9801 61.3093 12.2385 70.4657 13.7895 79.3905C15.3406 88.3153 19.1367 96.7351 24.844 103.909C30.5514 111.084 37.9952 116.793 46.5208 120.535C56.6797 124.915 67.9245 126.389 78.9236 124.783" stroke="#252B4A" stroke-linecap="round" stroke-linejoin="round"/>
<path d="M125.771 82.7666C124.035 90.0238 120.792 96.8649 116.241 102.876C111.689 108.887 105.922 113.942 99.2904 117.736C94.7076 120.351 89.763 122.323 84.6055 123.591" stroke="#252B4A" stroke-linecap="round" stroke-linejoin="round"/>
<path d="M88.4085 30.6503C81.0008 27.4567 72.8333 26.2721 64.782 27.2236C56.7307 28.1751 49.0992 31.2268 42.7059 36.0514C36.3127 40.8761 31.3987 47.2917 28.4911 54.6102C25.5835 61.9288 24.7918 69.8742 26.201 77.5946C27.6103 85.3149 31.1672 92.5189 36.4904 98.434C41.8137 104.349 48.7024 108.752 56.4179 111.171C64.1333 113.59 72.3846 113.934 80.2867 112.165C88.1889 110.396 95.4438 106.582 101.274 101.131C123.724 80.2453 117.598 43.2181 88.4085 30.6503Z" stroke="#252B4A" stroke-linecap="round" stroke-linejoin="round"/>
<path d="M47.7266 160.709L59.6269 169.827L71.767 151.824" stroke="#252B4A" stroke-linecap="round" stroke-linejoin="round"/>
<path d="M151.926 168.715L140.348 170.138" stroke="#252B4A" stroke-linecap="round" stroke-linejoin="round"/>
<path d="M146.861 175.034L145.387 163.818" stroke="#252B4A" stroke-linecap="round" stroke-linejoin="round"/>
<path d="M80.2361 89.165C80.2123 89.9824 79.9383 90.7745 79.4487 91.4413C78.9591 92.1081 78.276 92.6195 77.4856 92.911C76.6952 93.2026 75.8331 93.261 75.0084 93.0789C74.1837 92.8969 73.4333 92.4826 72.8522 91.8883C72.2712 91.2941 71.8855 90.5467 71.7439 89.7406C71.6023 88.9345 71.7113 88.1059 72.057 87.3597C72.4027 86.6134 72.9696 85.983 73.686 85.5482C74.4024 85.1133 75.2361 84.8936 76.0817 84.9167C77.2145 84.9506 78.2873 85.4164 79.0658 86.2125C79.8442 87.0086 80.265 88.0701 80.2361 89.165Z" stroke="#252B4A" stroke-linecap="round" stroke-linejoin="round"/>
<path d="M79.5374 65.9041C80.6813 64.2253 81.3809 62.3006 81.5748 60.2993C81.7687 58.2979 81.4509 56.2812 80.6494 54.4264C79.8478 52.5716 78.5871 50.9355 76.9781 49.6619C75.369 48.3883 73.4609 47.5163 71.4214 47.1225C69.382 46.7287 67.2736 46.8252 65.2818 47.4035C63.2899 47.9818 61.4756 49.0241 59.9982 50.4389C58.5209 51.8537 57.4257 53.5976 56.8091 55.5173C56.1925 57.4371 56.0733 59.4738 56.4619 61.4485C56.493 61.6584 56.5381 61.8657 56.596 62.0702L62.7605 60.9576C62.5038 60.1452 62.4215 59.2905 62.5189 58.4462C62.6163 57.6019 62.8912 56.7857 63.3268 56.0478C63.7624 55.3099 64.3494 54.6658 65.0519 54.1552C65.7544 53.6445 66.5574 53.278 67.4118 53.0782C68.2661 52.8784 69.1537 52.8494 70.02 52.9932C70.8863 53.1369 71.7131 53.4503 72.4495 53.9141C73.186 54.3778 73.8166 54.9822 74.3026 55.6901C74.7887 56.3979 75.1198 57.1944 75.2759 58.0304C75.8401 61.004 74.1685 63.2863 72.0864 65.8018C70.7194 67.377 69.9702 69.3672 69.9704 71.4231C69.9393 72.5275 69.9901 73.6332 70.1199 74.7321C70.2765 76.1773 71.1229 80.5402 71.1229 80.5402L77.4708 79.3745C77.3904 79.3745 76.6132 74.5058 76.5596 73.9618C76.4121 72.9739 76.4121 71.9706 76.5596 70.9827C76.9644 69.0126 78.4385 67.5102 79.5374 65.9041Z" stroke="#252B4A" stroke-linecap="round" stroke-linejoin="round"/>
<path d="M85.9956 137.604C82.2428 135.209 78.2684 133.155 74.1235 131.469C70.7959 130.293 67.3413 129.485 63.8257 129.06C58.6529 128.446 58.0618 127.1 63.6917 126.366C65.7633 126.123 67.8512 126.036 69.9367 126.107C73.8908 126.156 77.8279 126.625 81.6762 127.505" stroke="#252B4A" stroke-linecap="round" stroke-linejoin="round"/>
</svg>
