<svg width="100" height="120" viewBox="0 0 100 120" fill="none" xmlns="http://www.w3.org/2000/svg">
<rect x="7.14368" y="16.6338" width="88.4354" height="88.4354" rx="12" fill="#F7F7FF"/>
<mask id="mask0_3763_57833" style="mask-type:alpha" maskUnits="userSpaceOnUse" x="7" y="16" width="89" height="90">
<rect x="7.14355" y="16.6338" width="88.4354" height="88.4354" rx="12" fill="#F7F7FF"/>
</mask>
<g mask="url(#mask0_3763_57833)">
<path d="M59 54L50 48C52.5855 48.3082 55.1947 48.4057 57.8 48.2965C58.0053 50.2315 58.4079 52.143 59 54Z" fill="#4F56B2"/>
<path d="M51.5801 6.0824C49.137 1.99007 43.7872 2.21741 44.3249 5.32455C40.9973 2.29319 35.2228 3.7291 35.8852 7.21915C31.8914 3.88465 27.2273 6.53709 28.1859 9.72001C24.7103 6.99179 20.9346 9.72002 22.1191 12.9787C17.159 10.781 13.0132 14.5742 18.8617 20.5571C21.3788 23.1338 32.3317 31.466 38.4763 42C38.8538 40.4848 38.8187 38.8927 38.375 37.3965C37.9313 35.9002 37.0958 34.5569 35.9593 33.5122C29.8886 28.8136 34.0344 23.2095 37.8841 27.0705C41.2896 30.4808 40.183 25.4751 37.736 21.0078C38.2426 21.4564 38.8515 21.7671 39.5064 21.9111C40.1613 22.0552 40.8411 22.028 41.483 21.832C42.1249 21.636 42.7082 21.2776 43.1791 20.7899C43.6499 20.3022 43.993 19.7008 44.1768 19.0415C44.6623 19.4169 45.2219 19.6794 45.8166 19.8108C46.4113 19.9421 47.0268 19.9392 47.6203 19.8021C48.2138 19.665 48.771 19.3971 49.2529 19.0171C49.7349 18.637 50.1302 18.154 50.4111 17.6016C53.1386 19.568 56.8519 18.3594 57 15.4038C55.3557 12.5161 53.5049 9.33313 51.5801 6.0824Z" fill="#4F56B2"/>
<path d="M32 105.4L27.0876 112C26.4142 109.266 25.7408 106.594 25 104C27.279 104.421 32 105.4 32 105.4Z" fill="#4F56B2"/>
<path d="M23 89.5C23 90.163 22.7366 90.7989 22.2678 91.2677C21.7989 91.7366 21.163 92 20.5 92C19.837 92 19.2011 91.7366 18.7322 91.2677C18.2634 90.7989 18 90.163 18 89.5C18 88.837 18.2634 88.2011 18.7322 87.7322C19.2011 87.2634 19.837 87 20.5 87C21.163 87 21.7989 87.2634 22.2678 87.7322C22.7366 88.2011 23 88.837 23 89.5Z" fill="#4F56B2"/>
<path d="M67 96.5C67 97.163 66.7366 97.7989 66.2678 98.2677C65.7989 98.7366 65.163 99 64.5 99C63.837 99 63.2011 98.7366 62.7322 98.2677C62.2634 97.7989 62 97.163 62 96.5C62 95.837 62.2634 95.2011 62.7322 94.7322C63.2011 94.2634 63.837 94 64.5 94C65.163 94 65.7989 94.2634 66.2678 94.7322C66.7366 95.2011 67 95.837 67 96.5Z" fill="#4F56B2"/>
<path d="M90 58.5C90 59.163 89.7366 59.7989 89.2678 60.2678C88.7989 60.7366 88.163 61 87.5 61C86.837 61 86.2011 60.7366 85.7323 60.2678C85.2634 59.7989 85 59.163 85 58.5C85 57.837 85.2634 57.2011 85.7323 56.7322C86.2011 56.2634 86.837 56 87.5 56C88.163 56 88.7989 56.2634 89.2678 56.7322C89.7366 57.2011 90 57.837 90 58.5Z" fill="#4F56B2"/>
<path d="M59 54L50 48C52.592 48.2829 55.2035 48.3563 57.8079 48.2195" stroke="#252B4A" stroke-linecap="round" stroke-linejoin="round"/>
<path d="M75.6937 55.4467C74.361 56.2676 73.0283 57.0179 71.6957 57.8349C70.2483 58.9812 68.4576 59.598 66.617 59.5845C64.7764 59.5709 62.9949 58.9277 61.5642 57.7603C59.2948 54.8925 58.0229 51.3525 57.9442 47.6849C69.8525 46.9818 70.5812 38.9098 57.122 15C56.9807 15.6954 56.6591 16.3406 56.1901 16.87C55.7211 17.3994 55.1213 17.7942 54.4518 18.0141C53.7823 18.234 53.067 18.2712 52.3786 18.1219C51.6902 17.9727 51.0533 17.6423 50.5327 17.1643C50.2665 17.723 49.8785 18.2137 49.3975 18.5997C48.9166 18.9858 48.3553 19.2571 47.7556 19.3935C47.1559 19.5299 46.5334 19.5278 45.9346 19.3873C45.3358 19.2468 44.7763 18.9717 44.298 18.5823C44.1138 19.2314 43.7705 19.8232 43.2997 20.3034C42.829 20.7835 42.2459 21.1365 41.6042 21.3298C40.9626 21.5231 40.283 21.5505 39.6281 21.4094C38.9732 21.2684 38.364 20.9635 37.8567 20.5228C40.374 24.9222 41.4105 29.8479 38.0048 26.4894C34.1549 22.6871 30.0088 28.2806 36.0837 32.8371C37.2208 33.8648 38.0566 35.187 38.5004 36.66C38.9442 38.133 38.979 39.7004 38.601 41.1919C42.1135 46.3568 43.5174 52.687 42.5211 58.8679C41.8548 62.0103 37.4125 64.4654 32 63.0473C38.4568 74.741 51.7446 85.5155 64.666 80.9119C78.8851 75.8644 75.6937 55.4467 75.6937 55.4467Z" stroke="#252B4A" stroke-linecap="round" stroke-linejoin="round"/>
<path d="M93.3968 145H93.4711C96.668 126.088 100.162 106.953 98.7496 89.6838C128.437 74.0874 166.169 43.8547 189.529 23.2738C192.178 20.6208 182.901 8.87257 180.349 5.8591C177.732 2.76726 167.496 -8.61653 163.884 -6.80609C136.595 16.688 107.172 37.5754 76 55.5834" stroke="#252B4A" stroke-linecap="round" stroke-linejoin="round"/>
<path d="M57 15.4058C56.8519 18.3611 53.1502 19.5736 50.4109 17.6033C50.1304 18.1562 49.7354 18.6398 49.2534 19.0202C48.7714 19.4006 48.2141 19.6687 47.6204 19.8059C47.0267 19.943 46.4109 19.9458 45.816 19.814C45.2211 19.6823 44.6615 19.4192 44.1763 19.0431C43.9907 19.7011 43.6466 20.3009 43.1756 20.7873C42.7046 21.2737 42.1217 21.6312 41.4804 21.827C40.8392 22.0227 40.1603 22.0504 39.5059 21.9076C38.8515 21.7647 38.2426 21.4559 37.7352 21.0094C40.1784 25.4803 41.2889 30.4857 37.8833 27.0717C34.0335 23.2109 29.9031 28.7986 35.9584 33.5128C37.0968 34.5561 37.9335 35.8993 38.3774 37.3959C38.8213 38.8924 38.8552 40.485 38.4756 42C32.3345 31.4708 21.3773 23.1352 18.8601 20.5587C13.0152 14.5762 17.1573 10.7833 22.1176 12.9809C20.9487 9.72241 24.7089 6.99837 28.1846 9.72241C27.2222 6.53174 31.8903 3.88748 35.8843 7.22172C35.218 3.73592 40.9928 2.29614 44.3244 5.32727C43.8061 2.22036 49.1484 1.98503 51.5798 6.08504C53.5281 9.33553 57 15.4058 57 15.4058Z" stroke="#252B4A" stroke-linecap="round" stroke-linejoin="round"/>
<path d="M32.2579 63.0637C31.288 62.6921 -15.6479 110.503 -81.5889 116.805C-85.165 130.108 -84.7555 144.162 -80.4109 157.236C-45.1514 154.381 24.9464 103.937 24.9464 103.937C29.1495 117.627 31.8498 131.73 33 145.999" stroke="#252B4A" stroke-linecap="round" stroke-linejoin="round"/>
</g>
<path d="M59 54L50 48C52.5855 48.3082 55.1947 48.4057 57.8 48.2965C58.0053 50.2315 58.4079 52.143 59 54Z" fill="#4F56B2"/>
<path d="M51.5801 6.0824C49.137 1.99007 43.7872 2.21741 44.3249 5.32455C40.9973 2.29319 35.2228 3.7291 35.8852 7.21915C31.8914 3.88465 27.2273 6.53709 28.1859 9.72001C24.7103 6.99179 20.9346 9.72002 22.1191 12.9787C17.159 10.781 13.0132 14.5742 18.8617 20.5571C21.3788 23.1338 32.3317 31.466 38.4763 42C38.8538 40.4848 38.8187 38.8927 38.375 37.3965C37.9313 35.9002 37.0958 34.5569 35.9593 33.5122C29.8886 28.8136 34.0344 23.2095 37.8841 27.0705C41.2896 30.4808 40.183 25.4751 37.736 21.0078C38.2426 21.4564 38.8515 21.7671 39.5064 21.9111C40.1613 22.0552 40.8411 22.028 41.483 21.832C42.1249 21.636 42.7082 21.2776 43.1791 20.7899C43.6499 20.3022 43.993 19.7008 44.1768 19.0415C44.6623 19.4169 45.2219 19.6794 45.8166 19.8108C46.4113 19.9421 47.0268 19.9392 47.6203 19.8021C48.2138 19.665 48.771 19.3971 49.2529 19.0171C49.7349 18.637 50.1302 18.154 50.4111 17.6016C53.1386 19.568 56.8519 18.3594 57 15.4038C55.3557 12.5161 53.5049 9.33313 51.5801 6.0824Z" fill="#4F56B2"/>
<path d="M23 89.5C23 90.163 22.7366 90.7989 22.2678 91.2677C21.7989 91.7366 21.163 92 20.5 92C19.837 92 19.2011 91.7366 18.7322 91.2677C18.2634 90.7989 18 90.163 18 89.5C18 88.837 18.2634 88.2011 18.7322 87.7322C19.2011 87.2634 19.837 87 20.5 87C21.163 87 21.7989 87.2634 22.2678 87.7322C22.7366 88.2011 23 88.837 23 89.5Z" fill="#4F56B2"/>
<path d="M67 96.5C67 97.163 66.7366 97.7989 66.2678 98.2677C65.7989 98.7366 65.163 99 64.5 99C63.837 99 63.2011 98.7366 62.7322 98.2677C62.2634 97.7989 62 97.163 62 96.5C62 95.837 62.2634 95.2011 62.7322 94.7322C63.2011 94.2634 63.837 94 64.5 94C65.163 94 65.7989 94.2634 66.2678 94.7322C66.7366 95.2011 67 95.837 67 96.5Z" fill="#4F56B2"/>
<path d="M90 58.5C90 59.163 89.7366 59.7989 89.2678 60.2678C88.7989 60.7366 88.163 61 87.5 61C86.837 61 86.2011 60.7366 85.7323 60.2678C85.2634 59.7989 85 59.163 85 58.5C85 57.837 85.2634 57.2011 85.7323 56.7322C86.2011 56.2634 86.837 56 87.5 56C88.163 56 88.7989 56.2634 89.2678 56.7322C89.7366 57.2011 90 57.837 90 58.5Z" fill="#4F56B2"/>
<path d="M59 54L50 48C52.592 48.2829 55.2035 48.3563 57.8079 48.2195" stroke="#252B4A" stroke-linecap="round" stroke-linejoin="round"/>
<path d="M75.6937 55.4467C74.361 56.2676 73.0283 57.0179 71.6957 57.8349C70.2483 58.9812 68.4576 59.598 66.617 59.5845C64.7764 59.5709 62.9949 58.9277 61.5642 57.7603C59.2948 54.8925 58.0229 51.3525 57.9442 47.6849C69.8525 46.9818 70.5812 38.9098 57.122 15C56.9807 15.6954 56.6591 16.3406 56.1901 16.87C55.7211 17.3994 55.1213 17.7942 54.4518 18.0141C53.7823 18.234 53.067 18.2712 52.3786 18.1219C51.6902 17.9727 51.0533 17.6423 50.5327 17.1643C50.2665 17.723 49.8785 18.2137 49.3975 18.5997C48.9166 18.9858 48.3553 19.2571 47.7556 19.3935C47.1559 19.5299 46.5334 19.5278 45.9346 19.3873C45.3358 19.2468 44.7763 18.9717 44.298 18.5823C44.1138 19.2314 43.7705 19.8232 43.2997 20.3034C42.829 20.7835 42.2459 21.1365 41.6042 21.3298C40.9626 21.5231 40.283 21.5505 39.6281 21.4094C38.9732 21.2684 38.364 20.9635 37.8567 20.5228C40.374 24.9222 41.4105 29.8479 38.0048 26.4894C34.1549 22.6871 30.0088 28.2806 36.0837 32.8371C37.2208 33.8648 38.0566 35.187 38.5004 36.66C38.9442 38.133 38.979 39.7004 38.601 41.1919C42.1135 46.3568 43.5174 52.687 42.5211 58.8679C41.8548 62.0103 37.4125 64.4654 32 63.0473C38.4568 74.741 51.7446 85.5155 64.666 80.9119C78.8851 75.8644 75.6937 55.4467 75.6937 55.4467Z" stroke="#252B4A" stroke-linecap="round" stroke-linejoin="round"/>
<path d="M57 15.4058C56.8519 18.3611 53.1502 19.5736 50.4109 17.6033C50.1304 18.1562 49.7354 18.6398 49.2534 19.0202C48.7714 19.4006 48.2141 19.6687 47.6204 19.8059C47.0267 19.943 46.4109 19.9458 45.816 19.814C45.2211 19.6823 44.6615 19.4192 44.1763 19.0431C43.9907 19.7011 43.6466 20.3009 43.1756 20.7873C42.7046 21.2737 42.1217 21.6312 41.4804 21.827C40.8392 22.0227 40.1603 22.0504 39.5059 21.9076C38.8515 21.7647 38.2426 21.4559 37.7352 21.0094C40.1784 25.4803 41.2889 30.4857 37.8833 27.0717C34.0335 23.2109 29.9031 28.7986 35.9584 33.5128C37.0968 34.5561 37.9335 35.8993 38.3774 37.3959C38.8213 38.8924 38.8552 40.485 38.4756 42C32.3345 31.4708 21.3773 23.1352 18.8601 20.5587C13.0152 14.5762 17.1573 10.7833 22.1176 12.9809C20.9487 9.72241 24.7089 6.99837 28.1846 9.72241C27.2222 6.53174 31.8903 3.88748 35.8843 7.22172C35.218 3.73592 40.9928 2.29614 44.3244 5.32727C43.8061 2.22036 49.1484 1.98503 51.5798 6.08504C53.5281 9.33553 57 15.4058 57 15.4058Z" stroke="#252B4A" stroke-linecap="round" stroke-linejoin="round"/>
</svg>
