<svg width="100" height="120" viewBox="0 0 100 120" fill="none" xmlns="http://www.w3.org/2000/svg">
<rect x="7.14368" y="16.6338" width="88.4354" height="88.4354" rx="12" fill="#F7F7FF"/>
<mask id="mask0_3763_57893" style="mask-type:alpha" maskUnits="userSpaceOnUse" x="7" y="16" width="89" height="90">
<rect x="7.14355" y="16.6338" width="88.4354" height="88.4354" rx="12" fill="#F7F7FF"/>
</mask>
<g mask="url(#mask0_3763_57893)">
<path d="M60.4632 60.8266C59.4607 60.5713 58.5673 61.8832 59.2499 62.6605L59.2985 62.7158C59.8578 63.3527 60.9425 63.0447 61.1919 62.2345C61.1966 62.2195 61.2012 62.2044 61.2059 62.1894C61.3868 61.609 61.0523 60.9766 60.4632 60.8266Z" fill="#4F56B2"/>
<path d="M39.5888 32.3491C53.7058 16.1769 62.3307 23.641 67.0325 32.8822C62.0572 23.4633 54.1967 26.3067 52.4199 36.7031C52.2603 37.7804 50.8611 37.6519 49.9413 37.0689C49.785 36.9698 49.6337 36.8626 49.488 36.7475C46.4723 34.6395 44.143 37.9291 45.5067 40.6717C46.6495 42.97 48.9913 44.7573 49.3257 47.3022C49.9422 51.9929 45.403 55.4186 41.4599 52.8043C35.7537 49.021 30.7846 42.3996 39.5888 32.3491Z" fill="#4F56B2"/>
<path d="M23.2419 28.3938C28.4838 33.8585 36.6902 34.5133 41.5884 29.8155C46.4865 25.1177 46.2083 16.8867 40.9665 11.4219C35.7246 5.95711 27.5182 5.30236 22.62 10.0001C17.7219 14.6979 18.0001 22.929 23.2419 28.3938Z" fill="#4F56B2"/>
<path d="M85.1644 95.2568L91.2099 109.998C91.6897 111.168 90.8927 112.463 89.6307 112.54C88.4467 112.612 87.5051 111.569 87.5986 110.386C88.006 105.233 87.1786 100.044 85.1644 95.2568Z" fill="#4F56B2"/>
<path d="M56.6013 88.1935C56.5672 88.5109 56.5965 88.8319 56.6876 89.1379C56.7787 89.4438 56.9297 89.7286 57.1319 89.9757C57.334 90.2228 57.5832 90.4272 57.865 90.5771C58.1469 90.727 58.4557 90.8193 58.7735 90.8488C59.0914 90.8782 59.4119 90.8442 59.7164 90.7486C60.021 90.6531 60.3035 90.4979 60.5476 90.2922C60.7917 90.0865 60.9924 89.8342 61.1381 89.5502C61.2839 89.2662 61.3717 88.956 61.3965 88.6377C61.4457 88.007 61.2447 87.3821 60.837 86.8983C60.4294 86.4145 59.8477 86.1106 59.2178 86.0523C58.5879 85.9939 57.9603 86.1858 57.4707 86.5864C56.9811 86.9871 56.6688 87.5644 56.6013 88.1935Z" fill="#4F56B2"/>
<path d="M60.5111 104.41C60.4821 104.725 60.5154 105.043 60.6091 105.345C60.7029 105.647 60.8552 105.928 61.0574 106.171C61.2597 106.415 61.5078 106.616 61.7878 106.763C62.0677 106.91 62.3739 107.001 62.6889 107.03C63.004 107.059 63.3216 107.026 63.6237 106.932C63.9259 106.838 64.2066 106.686 64.4499 106.484C64.6931 106.281 64.8942 106.033 65.0415 105.753C65.1889 105.473 65.2797 105.167 65.3087 104.852C65.3673 104.216 65.1707 103.582 64.7623 103.091C64.3539 102.599 63.767 102.29 63.1308 102.232C62.4946 102.173 61.8612 102.37 61.3699 102.778C60.8786 103.187 60.5697 103.774 60.5111 104.41Z" fill="#4F56B2"/>
<path d="M61.6116 61.0988V61.0988C60.3659 60.8481 59.2029 62.5672 60.0427 63.5207L60.7208 64.2907" stroke="#252B4A" stroke-linecap="round" stroke-linejoin="round"/>
<path d="M29.9049 74.7316C34.8716 74.6254 39.7721 73.5698 44.3422 71.6216C47.3115 70.0104 50.2036 67.0898 50.0727 56.7823C50.0169 54.6072 49.8829 52.4359 49.6713 50.2723C49.2423 45.887 43.7217 41.8962 45.3255 37.7922C45.9094 36.2979 47.5514 35.4435 49.4952 36.7471C51.0359 37.7807 52.1535 38.4237 52.427 36.7471C54.1198 26.2923 62.0644 23.5073 67.0397 32.9262L68.5944 36.525C71.7913 45.5232 72.5736 59.2902 64.9243 61.0384C63.0174 61.4742 60.995 62.3526 60.7317 64.2908V64.2908C60.6732 65.4015 61.889 71.3527 63.2193 72.1103C65.9338 73.6583 70.6379 75.1315 79.0781 74.7316" stroke="#252B4A" stroke-linecap="round" stroke-linejoin="round"/>
<path d="M67.0319 32.8822C62.3231 23.641 53.7052 16.1792 39.5812 32.3491C24.4799 49.632 50.0648 56.8271 50.0648 56.8271" stroke="#252B4A" stroke-linecap="round" stroke-linejoin="round"/>
<path d="M23.2413 28.3938C28.4832 33.8585 36.6896 34.5133 41.5878 29.8155C46.4859 25.1177 46.2077 16.8867 40.9659 11.4219C35.724 5.95711 27.5176 5.30236 22.6194 10.0001C17.7213 14.6979 17.9995 22.929 23.2413 28.3938Z" stroke="#252B4A" stroke-linecap="round" stroke-linejoin="round"/>
<path d="M92.1653 112.308L85.1208 95.2383C87.4287 100.733 88.1966 106.753 87.3419 112.652" stroke="#252B4A" stroke-linecap="round" stroke-linejoin="round"/>
<path d="M-70.6526 101.07C-32.8604 105.987 5.72587 78.1394 27.9758 74.9486C29.2519 74.7656 30.5433 74.8943 31.7989 75.1864C48.0916 78.9765 63.4473 79.3759 77.5479 75.2043C78.5676 74.9026 79.6193 74.6769 80.6778 74.7782C87.2179 75.4036 95.795 80.9656 107.085 79.582C110.908 79.1135 113.742 76.0466 114.895 72.3714L125.631 38.1506C126.964 33.7966 157.793 43.2155 156.46 47.5696L137.598 106.013C136.62 109.043 134.508 111.662 131.485 112.661C120.64 116.242 109.116 113.806 97.3029 112.904C91.5402 112.464 86.7911 116.85 85.0315 122.355C83.1253 128.318 80.0343 135.703 75.2622 145.1C74.2551 147.084 72.7187 148.846 70.5693 149.419C61.0779 151.948 45.5483 145.889 36.1906 137.796C34.5093 136.343 33.4726 134.314 33.0118 132.139C32.0259 127.488 31.0901 122.908 30.1601 118.64C29.4192 115.24 26.3313 112.857 22.8772 113.28C3.80664 115.619 -15.248 125.496 -34.1337 131.737C-37.5878 132.878 -67.0277 101.376 -70.6526 101.07V101.07Z" stroke="#252B4A" stroke-linecap="round" stroke-linejoin="round"/>
</g>
<path d="M56.4626 59.4922L60.7154 64.335C60.8756 63.2221 61.1708 62.133 61.5945 61.0916C59.8379 60.7191 58.1198 60.1836 56.4626 59.4922Z" fill="#4F56B2"/>
<path d="M39.5839 32.3481C53.7009 16.1759 62.3258 23.64 67.0276 32.8812C62.0523 23.4623 54.1919 26.3057 52.415 36.7021C52.2373 37.9017 51.5709 37.8129 51.4377 37.724C50.7261 37.5354 50.0609 37.2027 49.4831 36.7466C45.3518 33.8587 42.5088 41.1006 48.6835 43.1888C49.4859 47.6784 49.9463 52.2224 50.0606 56.7817C50.0606 56.7817 24.4359 49.6403 39.5839 32.3481Z" fill="#4F56B2"/>
<path d="M23.237 28.3938C28.4788 33.8585 36.6853 34.5133 41.5834 29.8155C46.4816 25.1177 46.2034 16.8867 40.9615 11.4219C35.7197 5.95711 27.5132 5.30236 22.6151 10.0001C17.7169 14.6979 17.9952 22.929 23.237 28.3938Z" fill="#4F56B2"/>
<path d="M56.5964 88.1925C56.5623 88.5099 56.5917 88.8309 56.6828 89.1369C56.7738 89.4429 56.9249 89.7277 57.127 89.9747C57.3291 90.2218 57.5783 90.4262 57.8602 90.5761C58.142 90.726 58.4508 90.8183 58.7686 90.8478C59.0865 90.8772 59.407 90.8432 59.7115 90.7476C60.0161 90.6521 60.2986 90.4969 60.5427 90.2912C60.7868 90.0855 60.9875 89.8333 61.1333 89.5492C61.279 89.2652 61.3668 88.955 61.3916 88.6368C61.4408 88.006 61.2398 87.3812 60.8322 86.8974C60.4245 86.4136 59.8428 86.1097 59.2129 86.0513C58.583 85.9929 57.9554 86.1848 57.4658 86.5855C56.9762 86.9861 56.6639 87.5634 56.5964 88.1925Z" fill="#4F56B2"/>
<path d="M61.6067 61.0988C59.8375 60.7428 58.1127 60.1939 56.4631 59.4619L60.7159 64.2907" stroke="#252B4A" stroke-linecap="round" stroke-linejoin="round"/>
<path d="M29.9 74.7316C34.8667 74.6254 39.7673 73.5698 44.3373 71.6216C47.3066 70.0104 50.1987 67.0898 50.0678 56.7823C49.9509 52.2224 49.4903 47.679 48.6907 43.1893C42.516 41.1456 45.3029 33.9387 49.4903 36.7471C51.031 37.7807 52.1486 38.4237 52.4222 36.7471C54.1149 26.2923 62.0595 23.5073 67.0348 32.9262L68.5896 36.525C72.1901 46.6595 72.7279 62.8433 61.6059 61.0919C61.171 62.1138 60.8764 63.1894 60.7268 64.2908C60.6684 65.4015 61.8841 71.3527 63.2145 72.1103C65.9289 73.6583 70.633 75.1315 79.0732 74.7316" stroke="#252B4A" stroke-linecap="round" stroke-linejoin="round"/>
<path d="M67.0269 32.8822C62.3181 23.641 53.7002 16.1792 39.5762 32.3491C24.4749 49.632 50.0598 56.8271 50.0598 56.8271" stroke="#252B4A" stroke-linecap="round" stroke-linejoin="round"/>
<path d="M23.2365 28.3938C28.4783 33.8585 36.6847 34.5133 41.5829 29.8155C46.481 25.1177 46.2028 16.8867 40.961 11.4219C35.7191 5.95711 27.5127 5.30236 22.6145 10.0001C17.7164 14.6979 17.9946 22.929 23.2365 28.3938Z" stroke="#252B4A" stroke-linecap="round" stroke-linejoin="round"/>
</svg>
