<svg width="100" height="120" viewBox="0 0 100 120" fill="none" xmlns="http://www.w3.org/2000/svg">
<g id="team">
<g id="Group">
<rect id="Rectangle" x="7.14368" y="16.6338" width="88.4354" height="88.4354" rx="12" fill="#F7F7FF"/>
<g id="Mask group">
<mask id="mask0_3763_57785" style="mask-type:alpha" maskUnits="userSpaceOnUse" x="7" y="16" width="89" height="90">
<rect id="Rectangle_2" x="7.14355" y="16.6338" width="88.4354" height="88.4354" rx="12" fill="#F7F7FF"/>
</mask>
<g mask="url(#mask0_3763_57785)">
<g id="Group_2">
<path id="Vector_8" d="M59.5431 64.1484C59.3282 65.1917 59.2217 66.2543 59.2252 67.3194L56.7303 62.5176C57.6193 63.1399 58.5609 63.6858 59.5431 64.1484Z" fill="#4F56B2"/>
<path id="Vector_12" d="M65.6271 59.573C65.6271 60.1801 65.3854 60.7623 64.9551 61.1915C64.5249 61.6207 63.9414 61.8619 63.3329 61.8619C62.7245 61.8619 62.1409 61.6207 61.7107 61.1915C61.2804 60.7623 61.0387 60.1801 61.0387 59.573C61.0387 58.966 61.2804 58.3838 61.7107 57.9546C62.1409 57.5253 62.7245 57.2842 63.3329 57.2842C63.9414 57.2842 64.5249 57.5253 64.9551 57.9546C65.3854 58.3838 65.6271 58.966 65.6271 59.573Z" fill="#4F56B2"/>
<path id="Vector_16" d="M25.8665 22.8347C25.8665 13.231 32.5832 1 42.2533 1C51.8804 1 60.2315 10.3318 61.4142 19.709C61.7181 22.1518 61.3523 24.6312 60.3557 26.8831C63.226 27.1906 65.9208 28.4125 68.0408 30.3677C70.1608 32.3229 71.5933 34.9074 72.1261 37.7384L70.9481 37.6931C71.2822 40.8975 71.4369 44.1181 71.4116 47.3397C69.4643 30.0541 59.5314 36.5702 56.4657 43.3103C55.7489 39.7769 53.9233 37.2854 51.7872 37.2854H45.3882C44.6953 37.3093 44.0287 37.5477 43.4767 37.9649C43.5399 37.676 43.6084 37.3883 43.6822 37.1018C34.1316 37.0065 25.8665 32.3406 25.8665 22.8347Z" fill="#4F56B2"/>
<path id="Vector_17" d="M25.8641 22.8347C25.8641 13.231 32.5808 1 42.2509 1C51.8779 1 60.229 10.3318 61.4118 19.709C61.7157 22.1518 61.3499 24.6312 60.3533 26.8831C63.2236 27.1906 65.9183 28.4125 68.0383 30.3677C70.1583 32.3229 71.5908 34.9074 72.1237 37.7384L70.9457 37.6931C71.2797 40.8975 71.4345 44.1181 71.4092 47.3397C69.4618 30.0541 59.5289 36.5702 56.4633 43.3103C55.7464 39.7769 53.9209 37.2854 51.7847 37.2854H45.3858C44.6929 37.3093 44.0262 37.5477 43.4743 37.9649C43.5375 37.676 43.606 37.3883 43.6798 37.1018C34.1292 37.0065 25.8641 32.3406 25.8641 22.8347Z" stroke="#252B4A" stroke-width="0.98479" stroke-linejoin="round"/>
<path id="Vector_44" d="M59.5436 64.1484C58.5542 63.699 57.612 63.1527 56.7308 62.5176L59.2257 67.3194" stroke="#252B4A" stroke-width="0.98479" stroke-linecap="round" stroke-linejoin="round"/>
<path id="Vector_45" d="M51.1456 55.8584C50.9382 59.7336 50.0307 63.5396 48.467 67.0928C46.9708 70.5895 44.4559 73.5567 41.2485 75.6093C37.4852 77.8814 24.1306 77.6907 18.8212 87.3873C14.0065 96.1731 8.60876 124.805 6.15719 141.566C5.65891 144.972 6.35336 148.444 8.12335 151.398C9.89334 154.352 12.6305 156.605 15.8727 157.779C32.8148 163.731 50.38 167.741 68.2301 169.733" stroke="#252B4A" stroke-width="0.98479" stroke-linecap="round" stroke-linejoin="round"/>
<path id="Vector_46" d="M56.4503 43.3101C59.5804 36.4245 69.3724 28.9476 70.9757 47.659C71.4717 51.6348 71.2875 55.6658 70.4309 59.5801C68.4357 66.9187 62.8946 65.7409 59.535 64.1554C59.32 65.1997 59.2149 66.2606 59.2172 67.3264C59.06 69.3343 59.5832 71.3367 60.7028 73.0124C61.8224 74.6881 63.4736 75.9402 65.3916 76.5676C68.3927 77.6 81.4008 78.7778 87.7734 94.3706C89.869 99.4871 91.133 105.65 93.4938 110.497" stroke="#252B4A" stroke-width="0.98479" stroke-linecap="round" stroke-linejoin="round"/>
<path id="Vector_52" d="M77.1569 161.635L74.2967 170.602L115.973 159.234L138.945 92.8691L95.5436 104.058L88.1435 127.252" stroke="#252B4A" stroke-width="0.98479" stroke-linecap="round" stroke-linejoin="round"/>
<path id="Vector_54" d="M54.5013 54.4082C56.4186 56.2364 58.6688 57.6818 61.1305 58.6664" stroke="#252B4A" stroke-width="0.98479" stroke-linecap="round" stroke-linejoin="round"/>
<path id="Vector_62" d="M72.4811 78.6895C72.9955 79.017 73.3911 79.5005 73.6099 80.0688C73.8286 80.6372 73.8589 81.2606 73.6963 81.8475C73.5338 82.4343 73.1869 82.9537 72.7067 83.3294C72.2265 83.7051 71.6381 83.9172 71.0281 83.9347C70.5217 83.9323 70.0255 83.7918 69.5933 83.5283C69.1612 83.2648 68.8094 82.8884 68.5763 82.4398C70.2163 81.5959 71.5735 80.2924 72.4811 78.6895Z" stroke="#252B4A" stroke-width="0.98479" stroke-linecap="round" stroke-linejoin="round"/>
<path id="Vector_63" d="M68.7142 83.5823C68.7164 84.2309 68.4892 84.8595 68.0727 85.3574C67.6562 85.8554 67.0769 86.1909 66.4369 86.3048C65.7969 86.4187 65.1371 86.3038 64.5737 85.9803C64.0102 85.6567 63.5792 85.1453 63.3564 84.536C65.1057 83.9447 66.8216 83.2485 68.4872 82.4521C68.6497 82.8074 68.7262 83.1913 68.7142 83.5823Z" stroke="#252B4A" stroke-width="0.98479" stroke-linecap="round" stroke-linejoin="round"/>
<path id="Vector_64" d="M63.4922 85.3541C63.4942 86.0369 63.244 86.6965 62.7895 87.2069C62.3349 87.7173 61.7079 88.0428 61.028 88.1213C60.3482 88.1997 59.6632 88.0256 59.1039 87.6321C58.5446 87.2387 58.1501 86.6535 57.9958 85.9883C59.8106 85.6378 61.6004 85.1686 63.3536 84.584C63.4474 84.8298 63.4944 85.091 63.4922 85.3541Z" stroke="#252B4A" stroke-width="0.98479" stroke-linecap="round" stroke-linejoin="round"/>
<path id="Vector_65" d="M58.182 86.3905C58.2078 87.1151 57.9451 87.8204 57.4513 88.3524C56.9575 88.8844 56.2727 89.1998 55.5466 89.2297C54.8205 89.2596 54.112 89.0016 53.5759 88.5121C53.0399 88.0226 52.7197 87.3413 52.6855 86.617C54.5155 86.5273 56.3361 86.3002 58.1318 85.9375C58.1246 86.0686 58.182 86.2546 58.182 86.3905Z" stroke="#252B4A" stroke-width="0.98479" stroke-linecap="round" stroke-linejoin="round"/>
<path id="Vector_66" d="M52.6417 86.6177C52.6418 87.3308 52.361 88.0154 51.8599 88.5238C51.3588 89.0322 50.6774 89.3238 49.9628 89.3357C49.5903 89.3388 49.2213 89.2642 48.8793 89.1169C48.5374 88.9695 48.23 88.7525 47.9769 88.4798C47.7257 88.2058 47.5343 87.8826 47.415 87.5309C47.2957 87.1791 47.2511 86.8064 47.2839 86.4365C49.0626 86.6325 50.8538 86.6931 52.6417 86.6177Z" stroke="#252B4A" stroke-width="0.98479" stroke-linecap="round" stroke-linejoin="round"/>
<path id="Vector_67" d="M44.4257 88.6916C43.9961 88.6897 43.5727 88.5889 43.1885 88.3971C42.8043 88.2053 42.4696 87.9277 42.2104 87.5859C41.9512 87.244 41.7745 86.8472 41.6941 86.4261C41.6137 86.0051 41.6318 85.5712 41.7468 85.1582C43.5009 85.7519 45.3123 86.1596 47.15 86.3813C47.0414 87.0248 46.7085 87.6095 46.2101 88.0321C45.7118 88.4548 45.0798 88.6883 44.4257 88.6916Z" stroke="#252B4A" stroke-width="0.98479" stroke-linecap="round" stroke-linejoin="round"/>
<path id="Vector_68" d="M39.206 86.9338C38.7216 86.9352 38.2455 86.8093 37.8255 86.5686C37.4056 86.3279 37.0566 85.981 36.8138 85.5629C36.5701 85.1457 36.4404 84.672 36.4379 84.1891C36.4354 83.7063 36.5601 83.2312 36.7995 82.8115C38.3767 83.7843 40.0495 84.5878 41.7941 85.2124C41.5761 85.7186 41.2155 86.1507 40.756 86.4563C40.2966 86.7619 39.7581 86.9278 39.206 86.9338Z" stroke="#252B4A" stroke-width="0.98479" stroke-linecap="round" stroke-linejoin="round"/>
<path id="Vector_69" d="M33.4394 78.2373C32.7996 78.432 32.2507 78.8485 31.8917 79.4117C31.5328 79.9749 31.3876 80.6475 31.4822 81.3082C31.5735 81.9692 31.8988 82.5758 32.3993 83.0184C32.8999 83.4609 33.5426 83.7102 34.2113 83.721C34.6823 83.7598 35.1562 83.6991 35.6021 83.543C36.048 83.3869 36.456 83.1389 36.7994 82.815C35.2845 81.6209 34.1232 80.0387 33.4394 78.2373Z" stroke="#252B4A" stroke-width="0.98479" stroke-linecap="round" stroke-linejoin="round"/>
<path id="Vector_72" d="M48.5135 53.7301C45.2662 58.6988 40.3416 54.5455 40.3416 46.5775C40.3416 38.6499 45.2973 34.4609 48.5135 39.4248C49.694 41.6249 50.3116 44.0819 50.3116 46.5775C50.3116 49.0731 49.694 51.53 48.5135 53.7301Z" stroke="#252B4A" stroke-width="0.98479" stroke-linecap="round" stroke-linejoin="round"/>
<path id="Vector_73" d="M45.3358 37.2393H51.7347C54.5136 37.2393 56.7358 41.4307 56.7286 46.5711C56.7215 51.7115 54.504 55.8695 51.7347 55.8695H45.7396" stroke="#252B4A" stroke-width="0.98479" stroke-linecap="round" stroke-linejoin="round"/>
<path id="Vector_74" d="M72.1625 37.7836C74.342 37.8742 76.3852 42.1777 76.1152 47.2966C75.8404 52.189 73.5701 56.1182 70.9844 56.3113C71.706 50.1394 71.6763 43.9031 70.896 37.7383L72.1625 37.7836Z" stroke="#252B4A" stroke-width="0.98479" stroke-linecap="round" stroke-linejoin="round"/>
<path id="Vector_75" d="M71.3912 37.4661C70.9425 34.9024 69.5671 32.592 67.5255 30.9723C65.484 29.3527 62.9181 28.5363 60.3138 28.6779C57.6897 28.5968 55.1142 29.3964 52.9994 30.9486C50.8845 32.5008 49.3525 34.7159 48.6485 37.2396" stroke="#252B4A" stroke-width="0.98479" stroke-linecap="round" stroke-linejoin="round"/>
</g>
</g>
</g>
<g id="Group_3">
<path id="Vector_8_2" d="M59.5432 64.1484C59.3283 65.1917 59.2218 66.2543 59.2254 67.3194L56.7305 62.5176C57.6195 63.1399 58.561 63.6858 59.5432 64.1484Z" fill="#4F56B2"/>
<path id="Vector_12_2" d="M65.6272 59.573C65.6272 60.1801 65.3855 60.7623 64.9553 61.1915C64.525 61.6207 63.9415 61.8619 63.333 61.8619C62.7246 61.8619 62.141 61.6207 61.7108 61.1915C61.2806 60.7623 61.0389 60.1801 61.0389 59.573C61.0389 58.966 61.2806 58.3838 61.7108 57.9546C62.141 57.5253 62.7246 57.2842 63.333 57.2842C63.9415 57.2842 64.525 57.5253 64.9553 57.9546C65.3855 58.3838 65.6272 58.966 65.6272 59.573Z" fill="#4F56B2"/>
<path id="Vector_16_2" d="M25.8666 22.8347C25.8666 13.231 32.5834 1 42.2534 1C51.8805 1 60.2316 10.3318 61.4144 19.709C61.7183 22.1518 61.3524 24.6312 60.3558 26.8831C63.2262 27.1906 65.9209 28.4125 68.0409 30.3677C70.1609 32.3229 71.5934 34.9074 72.1262 37.7384L70.9482 37.6931C71.2823 40.8975 71.4371 44.1181 71.4118 47.3397C69.4644 30.0541 59.5315 36.5702 56.4658 43.3103C55.749 39.7769 53.9235 37.2854 51.7873 37.2854H45.3884C44.6954 37.3093 44.0288 37.5477 43.4768 37.9649C43.54 37.676 43.6085 37.3883 43.6823 37.1018C34.1317 37.0065 25.8666 32.3406 25.8666 22.8347Z" fill="#4F56B2"/>
<path id="Vector_17_2" d="M25.8642 22.8347C25.8642 13.231 32.5809 1 42.251 1C51.878 1 60.2291 10.3318 61.4119 19.709C61.7158 22.1518 61.35 24.6312 60.3534 26.8831C63.2237 27.1906 65.9185 28.4125 68.0385 30.3677C70.1584 32.3229 71.5909 34.9074 72.1238 37.7384L70.9458 37.6931C71.2799 40.8975 71.4346 44.1181 71.4093 47.3397C69.4619 30.0541 59.529 36.5702 56.4634 43.3103C55.7465 39.7769 53.921 37.2854 51.7849 37.2854H45.3859C44.693 37.3093 44.0263 37.5477 43.4744 37.9649C43.5376 37.676 43.6061 37.3883 43.6799 37.1018C34.1293 37.0065 25.8642 32.3406 25.8642 22.8347Z" stroke="#252B4A" stroke-width="0.98479" stroke-linejoin="round"/>
<path id="Vector_44_2" d="M59.5437 64.1484C58.5543 63.699 57.6121 63.1527 56.731 62.5176L59.2259 67.3194" stroke="#252B4A" stroke-width="0.98479" stroke-linecap="round" stroke-linejoin="round"/>
<path id="Vector_54_2" d="M54.5014 54.4082C56.4187 56.2364 58.6689 57.6818 61.1306 58.6664" stroke="#252B4A" stroke-width="0.98479" stroke-linecap="round" stroke-linejoin="round"/>
<path id="Vector_62_2" d="M72.4812 78.6895C72.9957 79.017 73.3913 79.5005 73.61 80.0688C73.8287 80.6372 73.859 81.2606 73.6965 81.8475C73.5339 82.4343 73.187 82.9537 72.7068 83.3294C72.2266 83.7051 71.6383 83.9172 71.0283 83.9347C70.5218 83.9323 70.0256 83.7918 69.5934 83.5283C69.1613 83.2648 68.8096 82.8884 68.5764 82.4398C70.2164 81.5959 71.5736 80.2924 72.4812 78.6895Z" stroke="#252B4A" stroke-width="0.98479" stroke-linecap="round" stroke-linejoin="round"/>
<path id="Vector_63_2" d="M68.7144 83.5823C68.7165 84.2309 68.4894 84.8595 68.0728 85.3574C67.6563 85.8554 67.077 86.1909 66.437 86.3048C65.797 86.4187 65.1373 86.3038 64.5738 85.9803C64.0104 85.6567 63.5793 85.1453 63.3565 84.536C65.1058 83.9447 66.8217 83.2485 68.4873 82.4521C68.6498 82.8074 68.7263 83.1913 68.7144 83.5823Z" stroke="#252B4A" stroke-width="0.98479" stroke-linecap="round" stroke-linejoin="round"/>
<path id="Vector_64_2" d="M63.4924 85.3541C63.4943 86.0369 63.2441 86.6965 62.7896 87.2069C62.335 87.7173 61.708 88.0428 61.0282 88.1213C60.3483 88.1997 59.6633 88.0256 59.104 87.6321C58.5447 87.2387 58.1502 86.6535 57.9959 85.9883C59.8108 85.6378 61.6006 85.1686 63.3538 84.584C63.4476 84.8298 63.4946 85.091 63.4924 85.3541Z" stroke="#252B4A" stroke-width="0.98479" stroke-linecap="round" stroke-linejoin="round"/>
<path id="Vector_65_2" d="M58.1821 86.3905C58.2079 87.1151 57.9452 87.8204 57.4514 88.3524C56.9576 88.8844 56.2729 89.1998 55.5467 89.2297C54.8206 89.2596 54.1121 89.0016 53.5761 88.5121C53.04 88.0226 52.7199 87.3413 52.6857 86.617C54.5156 86.5273 56.3362 86.3002 58.1319 85.9375C58.1247 86.0686 58.1821 86.2546 58.1821 86.3905Z" stroke="#252B4A" stroke-width="0.98479" stroke-linecap="round" stroke-linejoin="round"/>
<path id="Vector_66_2" d="M52.6418 86.6177C52.6419 87.3308 52.3612 88.0154 51.86 88.5238C51.3589 89.0322 50.6776 89.3238 49.9629 89.3357C49.5904 89.3388 49.2214 89.2642 48.8794 89.1169C48.5375 88.9695 48.2301 88.7525 47.977 88.4798C47.7258 88.2058 47.5345 87.8826 47.4151 87.5309C47.2958 87.1791 47.2512 86.8064 47.284 86.4365C49.0627 86.6325 50.8539 86.6931 52.6418 86.6177Z" stroke="#252B4A" stroke-width="0.98479" stroke-linecap="round" stroke-linejoin="round"/>
<path id="Vector_67_2" d="M44.4258 88.6916C43.9962 88.6897 43.5728 88.5889 43.1886 88.3971C42.8044 88.2053 42.4697 87.9277 42.2105 87.5859C41.9513 87.244 41.7747 86.8472 41.6943 86.4261C41.6139 86.0051 41.6319 85.5712 41.7469 85.1582C43.501 85.7519 45.3124 86.1596 47.1501 86.3813C47.0415 87.0248 46.7087 87.6095 46.2103 88.0321C45.7119 88.4548 45.0799 88.6883 44.4258 88.6916Z" stroke="#252B4A" stroke-width="0.98479" stroke-linecap="round" stroke-linejoin="round"/>
<path id="Vector_68_2" d="M39.2061 86.9338C38.7218 86.9352 38.2456 86.8093 37.8257 86.5686C37.4057 86.3279 37.0567 85.981 36.8139 85.5629C36.5702 85.1457 36.4405 84.672 36.438 84.1891C36.4355 83.7063 36.5602 83.2312 36.7996 82.8115C38.3768 83.7843 40.0497 84.5878 41.7942 85.2124C41.5762 85.7186 41.2156 86.1507 40.7562 86.4563C40.2967 86.7619 39.7582 86.9278 39.2061 86.9338Z" stroke="#252B4A" stroke-width="0.98479" stroke-linecap="round" stroke-linejoin="round"/>
<path id="Vector_69_2" d="M33.4396 78.2373C32.7997 78.432 32.2508 78.8485 31.8919 79.4117C31.5329 79.9749 31.3877 80.6475 31.4824 81.3082C31.5736 81.9692 31.8989 82.5758 32.3994 83.0184C32.9 83.4609 33.5427 83.7102 34.2115 83.721C34.6824 83.7598 35.1563 83.6991 35.6022 83.543C36.0482 83.3869 36.4561 83.1389 36.7996 82.815C35.2847 81.6209 34.1233 80.0387 33.4396 78.2373Z" stroke="#252B4A" stroke-width="0.98479" stroke-linecap="round" stroke-linejoin="round"/>
<path id="Vector_72_2" d="M48.5136 53.7301C45.2663 58.6988 40.3417 54.5455 40.3417 46.5775C40.3417 38.6499 45.2974 34.4609 48.5136 39.4248C49.6941 41.6249 50.3118 44.0819 50.3118 46.5775C50.3118 49.0731 49.6941 51.53 48.5136 53.7301Z" stroke="#252B4A" stroke-width="0.98479" stroke-linecap="round" stroke-linejoin="round"/>
<path id="Vector_73_2" d="M45.3359 37.2393H51.7348C54.5137 37.2393 56.7359 41.4307 56.7287 46.5711C56.7216 51.7115 54.5042 55.8695 51.7348 55.8695H45.7397" stroke="#252B4A" stroke-width="0.98479" stroke-linecap="round" stroke-linejoin="round"/>
<path id="Vector_74_2" d="M72.1627 37.7836C74.3421 37.8742 76.3854 42.1777 76.1153 47.2966C75.8405 52.189 73.5702 56.1182 70.9845 56.3113C71.7061 50.1394 71.6764 43.9031 70.8961 37.7383L72.1627 37.7836Z" stroke="#252B4A" stroke-width="0.98479" stroke-linecap="round" stroke-linejoin="round"/>
<path id="Vector_75_2" d="M71.3914 37.4661C70.9426 34.9024 69.5672 32.592 67.5257 30.9723C65.4841 29.3527 62.9182 28.5363 60.3139 28.6779C57.6898 28.5968 55.1143 29.3964 52.9995 30.9486C50.8846 32.5008 49.3527 34.7159 48.6487 37.2396" stroke="#252B4A" stroke-width="0.98479" stroke-linecap="round" stroke-linejoin="round"/>
</g>
</g>
</g>
</svg>
