<svg width="100" height="120" viewBox="0 0 100 120" fill="none" xmlns="http://www.w3.org/2000/svg">
<g id="team">
<g id="Group">
<rect id="Rectangle" x="7.1438" y="16.6338" width="88.4354" height="88.4354" rx="12" fill="#F7F7FF"/>
<g id="Mask group">
<mask id="mask0_3763_57866" style="mask-type:alpha" maskUnits="userSpaceOnUse" x="7" y="16" width="89" height="90">
<rect id="Rectangle_2" x="7.14355" y="16.6338" width="88.4354" height="88.4354" rx="12" fill="#F7F7FF"/>
</mask>
<g mask="url(#mask0_3763_57866)">
<g id="Group_2">
<path id="Vector" d="M-40.4404 74.65C-34.7334 75.3137 -29.3646 47.8716 -35.0226 46.7649C-4.53434 53.6292 26.5751 62.3479 48.5174 61.4419C55.0006 71.6185 59.969 82.6775 63.2676 94.2736C67.3898 84.1988 69.7098 73.4811 70.1225 62.6059C74.2595 62.7498 122.425 38.3938 142.534 29.6059C146.297 32.8324 149.364 36.7876 151.548 41.2309C153.731 45.6743 154.985 50.5131 155.235 55.4532L84.5757 87.7976L80.246 79.7318C81.1144 82.8524 81.4255 86.1005 81.1649 89.3276C80.6039 95.8132 77.4062 105.024 67.6581 120.714C59.7634 122.107 47.7244 117.143 38.8734 110.574C39.9935 104.684 37.9304 97.074 36.4441 90.7382C38.2721 89.7045 40.1699 88.7986 42.124 88.0271C13.9376 86.6098 -12.1422 81.47 -40.4404 74.65Z" fill="#F7F7FF"/>
<path id="Vector_5" d="M61.1219 51.9651L65.5886 57.3013C65.2776 55.9291 65.149 54.5198 65.2056 53.1144C63.8059 52.8834 62.4363 52.498 61.1219 51.9651Z" fill="#4F56B2"/>
<path id="Vector_7" d="M9.4971 1.57645C18.0589 -3.97859 33.8003 19.2724 33.8003 19.2724C32.1257 -0.38208 58.8205 19.3936 67.3644 29.8712C62.864 25.3499 57.9116 33.4415 57.777 38.339C57.6441 39.4821 56.9965 39.6476 55.3759 38.2068C52.0138 35.1184 48.6561 41.1341 55.2279 44.8823C55.634 45.4365 55.9055 46.0766 56.0281 46.75C56.8779 50.4841 56.5083 54.3903 54.9732 57.8985C23.6435 47.6178 0.978458 7.08835 9.4971 1.57645Z" fill="#4F56B2"/>
<path id="Vector_12" d="M80.3148 79.7358C81.1833 82.8564 81.4943 86.1045 81.2337 89.3316L84.6552 87.7547L80.3148 79.7358Z" fill="#4F56B2"/>
<path id="Vector_40" d="M65.1979 53.0746C63.8159 52.8717 62.4632 52.5041 61.1689 51.9799L65.5809 57.2616" stroke="#252B4A" stroke-linecap="round" stroke-linejoin="round"/>
<path id="Vector_48" d="M84.6433 87.8022L80.3136 79.7363C81.3223 82.8331 81.6526 86.1092 81.2821 89.3431" stroke="#252B4A" stroke-linecap="round" stroke-linejoin="round"/>
<path id="Vector_49" d="M70.1229 62.6071C68.3988 62.4066 66.3418 60.6716 65.5735 57.2613C65.2651 55.8878 65.1363 54.4804 65.1905 53.0743C69.6673 53.6431 75.6918 52.014 70.8717 36.6381C69.8341 33.3333 67.67 28.2116 64.2014 28.5535C60.8277 28.8888 57.8938 34.4316 57.7384 38.1959C57.6648 39.8124 56.5937 39.2898 55.3802 38.198C51.992 35.137 48.6606 41.1229 55.2321 44.8735C55.6329 45.4297 55.9072 46.0675 56.0323 46.7412C56.944 54.4526 56.2879 60.6406 48.5194 61.4737" stroke="#252B4A" stroke-linecap="round" stroke-linejoin="round"/>
<path id="Vector_50" d="M67.3166 29.8685C58.7733 19.3859 32.0754 -0.385075 33.7525 19.2697C33.7525 19.2697 18.0234 -3.97733 9.44934 1.57375C0.922885 7.08727 23.5483 47.6071 54.8743 57.8974" stroke="#252B4A" stroke-linecap="round" stroke-linejoin="round"/>
<path id="Vector_51" d="M-49.4512 152.129C-43.807 152.785 -38.3728 125.351 -44.0334 124.244C-13.7935 131.056 26.3777 62.3614 48.5174 61.4429C55.0005 71.6195 59.969 82.6785 63.2675 94.2746C67.3897 84.1998 69.7097 73.4821 70.1224 62.6069C74.2594 62.7508 122.424 38.3948 142.534 29.6068C146.297 32.8334 149.364 36.7886 151.547 41.2319C153.731 45.6753 154.985 50.5141 155.235 55.4542L81.2752 89.3415C81.2035 90.1114 81.0923 90.9148 80.9495 91.7703C79.8544 98.1025 76.3518 106.895 67.763 120.709C58.9479 122.252 46.0813 116.182 38.6796 110.69C39.9894 103.802 35.9081 103.508 34.5245 96.7046C18.378 109.928 -23.2918 158.421 -49.4512 152.129Z" stroke="#252B4A" stroke-linecap="round" stroke-linejoin="round"/>
</g>
</g>
</g>
<g id="Group_3">
<path id="Vector_5_2" d="M61.1178 51.967L65.5844 57.3033C65.2734 55.9311 65.1448 54.5218 65.2015 53.1163C63.8018 52.8854 62.4321 52.4999 61.1178 51.967Z" fill="#4F56B2"/>
<path id="Vector_6" d="M34.7647 96.5554C34.9879 97.5447 35.2056 98.5815 35.4646 99.6789C37.2924 98.645 39.1903 97.7391 41.1444 96.9678C38.9885 96.8058 36.8738 96.7043 34.7647 96.5554Z" fill="#4F56B2"/>
<path id="Vector_7_2" d="M9.49295 1.57938C18.0548 -3.97566 33.7961 19.2753 33.7961 19.2753C32.1215 -0.379151 58.8163 19.3965 67.3602 29.8741C62.8598 25.3528 57.9075 33.4445 57.7728 38.3419C57.6399 39.485 56.9924 39.6505 55.3718 38.2097C52.0097 35.1213 48.6519 41.1371 55.2237 44.8852C55.6298 45.4395 55.9013 46.0795 56.0239 46.7529C56.8738 50.487 56.5042 54.3933 54.969 57.9014C23.6393 47.6208 0.974308 7.09128 9.49295 1.57938Z" fill="#4F56B2"/>
<path id="Vector_12_2" d="M80.3107 79.7387C81.1792 82.8593 81.4902 86.1074 81.2296 89.3346L84.651 87.7576L80.3107 79.7387Z" fill="#4F56B2"/>
<path id="Vector_40_2" d="M65.1937 53.0776C63.8117 52.8746 62.4591 52.507 61.1647 51.9828L65.5767 57.2645" stroke="#252B4A" stroke-linecap="round" stroke-linejoin="round"/>
<path id="Vector_47" d="M34.7317 96.572C34.955 97.5613 35.1727 98.5981 35.4317 99.6955C38.1047 98.3205 40.3329 97.4896 41.1115 96.9844C38.9556 96.8224 36.8409 96.7209 34.7317 96.572Z" stroke="#252B4A" stroke-linecap="round" stroke-linejoin="round"/>
<path id="Vector_48_2" d="M84.6392 87.8042L80.3094 79.7383C81.3182 82.8351 81.6485 86.1111 81.2779 89.345" stroke="#252B4A" stroke-linecap="round" stroke-linejoin="round"/>
<path id="Vector_49_2" d="M70.1188 62.6091C68.3946 62.4085 66.3377 60.6736 65.5693 57.2632C65.2609 55.8897 65.1322 54.4824 65.1863 53.0763C69.6631 53.6451 75.6876 52.0159 70.8675 36.64C69.83 33.3352 67.6658 28.2136 64.1972 28.5555C60.8236 28.8907 57.8897 34.4335 57.7342 38.1979C57.6607 39.8144 56.5896 39.2918 55.376 38.2C51.9878 35.1389 48.6565 41.1248 55.2279 44.8755C55.6287 45.4317 55.9031 46.0695 56.0282 46.7431C56.9399 54.4546 56.2838 60.6426 48.5153 61.4757" stroke="#252B4A" stroke-linecap="round" stroke-linejoin="round"/>
<path id="Vector_50_2" d="M67.3124 29.8714C58.7691 19.3888 32.0712 -0.382145 33.7483 19.2726C33.7483 19.2726 18.0193 -3.9744 9.44519 1.57668C0.918735 7.0902 23.5442 47.61 54.8702 57.9004" stroke="#252B4A" stroke-linecap="round" stroke-linejoin="round"/>
</g>
</g>
</g>
</svg>
