<svg width="605" height="580" viewBox="0 0 605 580" fill="none" xmlns="http://www.w3.org/2000/svg">
<path d="M328.616 513.267C341.568 514.176 343.175 494.325 330.264 492.973L206.466 475.655C205.151 475.371 203.793 475.356 202.472 475.613C201.151 475.869 199.894 476.39 198.774 477.147C197.653 477.902 196.693 478.877 195.949 480.014C195.205 481.152 194.693 482.429 194.442 483.77C194.192 485.112 194.208 486.49 194.491 487.825C194.774 489.16 195.316 490.424 196.088 491.542C196.857 492.663 197.84 493.615 198.978 494.343C200.116 495.072 201.386 495.561 202.714 495.783C201.332 495.705 199.949 495.913 198.648 496.393C197.347 496.873 196.156 497.615 195.146 498.575C194.136 499.535 193.328 500.693 192.77 501.978C192.213 503.264 191.918 504.651 191.904 506.055C191.904 508.556 192.809 510.969 194.446 512.837C196.083 514.706 198.338 515.901 200.785 516.194C198.775 515.98 196.747 516.383 194.965 517.352C193.183 518.32 191.728 519.808 190.788 521.624C189.851 523.442 189.473 525.503 189.703 527.541C189.933 529.579 190.76 531.501 192.077 533.057C192.951 534.091 194.02 534.937 195.221 535.546C196.422 536.154 197.731 536.513 199.071 536.6L322.748 553.931C336.846 555.526 338.629 536.137 326.594 533.762C339.085 534.052 340.566 515.282 328.616 513.267Z" fill="#F7F7FF"/>
<path fill-rule="evenodd" clip-rule="evenodd" d="M160.451 214.042C192.138 207.756 224.298 204.243 256.577 203.541C254.456 217.542 253.656 231.717 254.187 245.872L250.67 245.827H250.635C222.526 245.457 194.211 245.086 163.061 250.374C157.853 238.992 156.925 226.071 160.451 214.042ZM173.561 220.298C173.803 220.052 173.996 219.76 174.127 219.438C174.258 219.117 174.325 218.772 174.325 218.424C174.325 218.077 174.258 217.732 174.127 217.411C173.996 217.089 173.803 216.797 173.561 216.551C173.318 216.305 173.031 216.11 172.714 215.977C172.397 215.844 172.058 215.775 171.715 215.775C171.372 215.775 171.032 215.844 170.716 215.977C170.399 216.11 170.111 216.305 169.869 216.551C169.379 217.048 169.104 217.722 169.104 218.424C169.104 219.127 169.379 219.801 169.869 220.298C170.358 220.795 171.022 221.074 171.715 221.074C172.407 221.074 173.071 220.795 173.561 220.298ZM210.024 236.854C210.024 237.556 209.749 238.23 209.259 238.727C208.77 239.223 208.106 239.502 207.414 239.502C206.722 239.502 206.058 239.223 205.568 238.727C205.079 238.23 204.804 237.556 204.804 236.854C204.804 236.152 205.079 235.478 205.568 234.981C206.058 234.485 206.722 234.206 207.414 234.206C208.106 234.206 208.77 234.485 209.259 234.981C209.749 235.478 210.024 236.152 210.024 236.854ZM248.297 214.154C248.539 213.908 248.732 213.616 248.863 213.294C248.994 212.973 249.062 212.628 249.062 212.28C249.062 211.932 248.994 211.588 248.863 211.267C248.732 210.945 248.539 210.653 248.297 210.407C248.055 210.161 247.767 209.966 247.45 209.833C247.133 209.7 246.794 209.631 246.451 209.631C246.108 209.631 245.769 209.7 245.452 209.833C245.135 209.966 244.847 210.161 244.605 210.407C244.115 210.904 243.84 211.578 243.84 212.28C243.84 212.983 244.115 213.657 244.605 214.154C245.094 214.651 245.758 214.93 246.451 214.93C247.143 214.93 247.807 214.651 248.297 214.154Z" fill="#F7F7FF"/>
<path fill-rule="evenodd" clip-rule="evenodd" d="M304.122 199.569C304.122 202.218 305.691 203.754 309.916 203.86C313.798 203.941 317.678 204.083 321.555 204.286C313.363 216.691 306.851 230.157 302.194 244.323L266.547 243.528C265.217 232.537 266.961 213.731 268.06 203.436L281.367 203.754C283.051 203.851 284.733 203.525 286.263 202.804C287.792 202.083 289.123 200.99 290.136 199.622V199.569H304.122ZM286.881 236.08C287.123 235.834 287.316 235.542 287.447 235.22C287.578 234.899 287.646 234.554 287.646 234.206C287.646 233.858 287.578 233.514 287.447 233.193C287.316 232.871 287.123 232.579 286.881 232.333C286.639 232.087 286.351 231.892 286.034 231.759C285.717 231.626 285.378 231.557 285.035 231.557C284.692 231.557 284.353 231.626 284.036 231.759C283.719 231.892 283.431 232.087 283.189 232.333C282.699 232.83 282.424 233.504 282.424 234.206C282.424 234.909 282.699 235.583 283.189 236.08C283.678 236.577 284.342 236.856 285.035 236.856C285.727 236.856 286.391 236.577 286.881 236.08Z" fill="#F7F7FF"/>
<path fill-rule="evenodd" clip-rule="evenodd" d="M332.044 204.874C355.95 206.463 414.247 211.866 437.837 221.291C440.557 233.805 439.466 246.859 434.705 258.729C390.031 249.416 359.238 245.912 319.52 246.071L315.866 258.894C307.567 252.697 323.904 218.431 332.044 204.874ZM345.945 216.803C346.434 216.305 346.709 215.631 346.709 214.928C346.709 214.225 346.433 213.551 345.943 213.055C345.701 212.808 345.413 212.613 345.096 212.48C344.779 212.347 344.439 212.279 344.096 212.279C343.404 212.279 342.74 212.559 342.25 213.056C341.76 213.553 341.485 214.227 341.486 214.93C341.486 215.633 341.761 216.307 342.251 216.804C342.741 217.301 343.406 217.58 344.098 217.58C344.791 217.579 345.455 217.3 345.945 216.803ZM385.281 241.568C385.281 242.271 385.006 242.945 384.517 243.442C384.027 243.939 383.363 244.218 382.67 244.218C381.978 244.218 381.313 243.939 380.824 243.442C380.334 242.945 380.059 242.271 380.059 241.568C380.059 240.866 380.334 240.192 380.824 239.695C381.313 239.198 381.978 238.919 382.67 238.919C383.363 238.919 384.027 239.198 384.517 239.695C385.006 240.192 385.281 240.866 385.281 241.568ZM428.67 228.876C428.912 228.63 429.104 228.338 429.236 228.016C429.367 227.694 429.434 227.35 429.434 227.002C429.434 226.654 429.366 226.309 429.235 225.988C429.103 225.666 428.911 225.374 428.668 225.128C428.426 224.882 428.138 224.687 427.821 224.554C427.504 224.421 427.164 224.352 426.821 224.352C426.478 224.353 426.139 224.421 425.822 224.555C425.505 224.688 425.217 224.883 424.975 225.129C424.485 225.627 424.21 226.301 424.211 227.004C424.211 227.707 424.486 228.381 424.976 228.877C425.466 229.374 426.131 229.653 426.823 229.653C427.516 229.653 428.18 229.373 428.67 228.876Z" fill="#F7F7FF"/>
<path d="M299.897 190.987L292.224 195.966C292.951 194.37 293.511 192.702 293.894 190.987C295.894 191.104 297.897 191.104 299.897 190.987Z" fill="#4F56B2"/>
<path d="M375.99 173.249C392.536 135.169 331.627 167.116 331.627 167.116C341.335 148.475 314.3 152.712 302.608 161.713C314.509 153.506 316.597 165.421 313.309 172.201C312.734 173.631 313.413 174.319 316.284 173.578C322.286 172.042 322.448 181.662 312.212 181.84C311.37 182.239 310.636 182.838 310.072 183.588C306.941 190.524 304.07 196.086 304.07 199.634C304.07 202.336 305.636 203.872 309.864 203.925C344.397 205.007 378.81 208.6 412.838 214.677C417.694 212.91 422.118 210.104 425.811 206.448C429.503 202.793 432.376 198.373 434.235 193.49C454.693 143.961 375.99 173.249 375.99 173.249Z" fill="#4F56B2"/>
<path d="M259.5 411.045C253.384 418.36 245.176 423.562 236.015 425.928C239.721 432.705 241.547 444.57 243.157 452.303C245.898 467.281 250.183 481.926 255.942 495.994C267.426 469.79 268.783 447.324 272.541 431.752C268.784 424.485 264.421 417.557 259.5 411.045Z" fill="#4F56B2"/>
<path d="M426.353 319.05C418.687 323.186 411.388 327.989 404.538 333.404C411.169 340.019 415.959 348.296 418.422 357.394C434.218 349.38 461.025 349.419 489.452 336.952C463.775 325.035 441.647 323.075 426.353 319.05Z" fill="#4F56B2"/>
<path d="M355.324 351.834L331.89 371.588L324.009 364.599C334.879 361.529 345.381 357.248 355.324 351.834Z" fill="#4F56B2"/>
<path d="M256.838 345.529C257.569 348.654 258.456 351.832 259.5 355.007C273.73 352.517 287.621 348.337 300.889 342.555C287.37 348.063 271.162 347.829 256.838 345.529Z" fill="#4F56B2"/>
<path d="M260.868 483.266L330.226 492.875C343.549 494.272 341.159 514.834 328.028 513.161C341.145 514.692 338.78 534.905 325.794 533.628C338.945 535.315 336.47 555.414 323.63 554.098L198.684 536.569C196.693 536.362 194.809 535.558 193.27 534.259C191.731 532.961 190.608 531.228 190.044 529.28C189.669 527.986 189.55 526.629 189.695 525.289C189.84 523.948 190.245 522.65 190.886 521.469C191.528 520.288 192.394 519.248 193.435 518.408C194.475 517.569 195.669 516.947 196.948 516.579C198.225 516.211 199.562 516.102 200.882 516.258C199.214 516.09 197.614 515.505 196.225 514.556C194.835 513.606 193.699 512.322 192.919 510.817C192.139 509.312 191.739 507.635 191.755 505.935C191.771 504.235 192.203 502.566 193.011 501.076C193.656 499.887 194.528 498.839 195.576 497.995C196.624 497.15 197.827 496.525 199.115 496.156C200.403 495.786 201.75 495.679 203.079 495.841C201.727 495.68 200.422 495.241 199.242 494.552C198.062 493.864 197.032 492.939 196.214 491.834C195.397 490.73 194.809 489.468 194.487 488.126C194.164 486.784 194.113 485.389 194.338 484.027C194.56 482.664 195.053 481.362 195.786 480.198C196.52 479.035 197.478 478.035 198.604 477.258C199.729 476.48 200.998 475.943 202.334 475.678C203.67 475.413 205.045 475.426 206.376 475.717L250.443 481.822" stroke="#252B4A" stroke-width="1.89062" stroke-linecap="round" stroke-linejoin="round"/>
<path d="M423.17 165.04C415.173 140.64 400.597 119.003 381.095 102.584C361.593 86.1655 337.947 75.6223 312.839 72.151C241.234 62.1823 177.113 111.664 169.418 182.624C168.37 192.468 168.44 202.402 169.627 212.23" stroke="#252B4A" stroke-width="1.89062" stroke-linecap="round" stroke-linejoin="round"/>
<path d="M428.703 218.317C429.275 212.907 429.5 207.465 429.379 202.023" stroke="#252B4A" stroke-width="1.89062" stroke-linecap="round" stroke-linejoin="round"/>
<path d="M418.958 255.58C418.258 257.247 417.42 258.85 416.453 260.375C393.597 298.566 380.389 320.868 371.098 342.891" stroke="#252B4A" stroke-width="1.89062" stroke-linecap="round" stroke-linejoin="round"/>
<path d="M268.81 451.275L344.206 461.74C346.346 449.984 351.348 414.552 353.235 405.283" stroke="#252B4A" stroke-width="1.89062" stroke-linecap="round" stroke-linejoin="round"/>
<path d="M202.758 392.614C202.654 399.907 199.379 432.785 199.107 441.549L242.163 447.323" stroke="#252B4A" stroke-width="1.89062" stroke-linecap="round" stroke-linejoin="round"/>
<path d="M179.44 248.03C185.179 265.718 189.668 279.645 193.06 291.934" stroke="#252B4A" stroke-width="1.89062" stroke-linecap="round" stroke-linejoin="round"/>
<path d="M287.683 176.851L256.89 172.561C252.973 171.935 248.971 172.119 245.125 173.101C241.279 174.083 237.669 175.844 234.51 178.278C231.351 180.711 228.71 183.767 226.744 187.263C224.778 190.758 223.529 194.62 223.07 198.617C222.85 200.836 222.861 203.072 223.111 205.288" stroke="#252B4A" stroke-width="1.89062" stroke-linecap="round" stroke-linejoin="round"/>
<path d="M271.662 451.667L278.758 389.649" stroke="#252B4A" stroke-width="1.89062" stroke-linecap="round" stroke-linejoin="round"/>
<path d="M256.577 203.489C256.577 203.489 249.434 245.753 259.082 277.901C257.561 281.753 256.476 285.768 255.846 289.869" stroke="#252B4A" stroke-width="1.89062" stroke-linecap="round" stroke-linejoin="round"/>
<path d="M254.072 245.858C224.793 245.488 195.461 244.852 162.946 250.358C157.767 238.972 156.857 226.06 160.388 214.043C200.183 206.105 240.723 202.677 281.263 203.82C286.587 204.046 290.079 200.639 292.224 195.981C292.949 194.385 293.509 192.716 293.894 191.002C286.477 190.367 276.313 186.244 297.391 166.058C299.026 164.485 300.771 163.034 302.611 161.715" stroke="#252B4A" stroke-width="1.89062" stroke-linecap="round" stroke-linejoin="round"/>
<path d="M437.837 221.336C414.371 212.053 357.288 206.561 331.992 204.919C323.852 218.478 307.515 252.745 315.814 258.939L319.52 246.068C359.238 245.909 390.031 249.413 434.705 258.727C439.529 246.89 440.623 233.829 437.837 221.336Z" stroke="#252B4A" stroke-width="1.89062" stroke-linecap="round" stroke-linejoin="round"/>
<path d="M313.418 171.948C316.547 165.132 314.372 153.58 302.608 161.695C314.3 152.693 341.343 148.456 331.627 167.097C331.627 167.097 392.534 135.162 375.99 173.23C461.701 141.353 442.117 203.794 412.838 214.647C378.814 208.535 344.4 204.923 309.864 203.842C305.636 203.783 304.07 202.253 304.07 199.552C304.07 196.003 307.026 190.48 310.072 183.506C310.638 182.759 311.372 182.159 312.212 181.758C322.448 181.571 322.283 171.953 316.284 173.495C313.451 174.239 312.836 173.225 313.418 171.948Z" stroke="#252B4A" stroke-width="1.89062" stroke-linecap="round" stroke-linejoin="round"/>
<path d="M462.105 233.411C466.385 234.938 470.583 236.688 474.685 238.655C499.134 250.62 482.981 247.818 475.99 245.066" stroke="#252B4A" stroke-width="1.89062" stroke-linecap="round" stroke-linejoin="round"/>
<path d="M472.545 256.501C475.492 258.499 478.251 260.768 480.786 263.281C486.789 269.372 483.399 270.216 477.605 267.306C472.855 264.92 467.221 262.584 461.268 260.315C453.313 256.991 444.955 254.767 436.417 253.702" stroke="#252B4A" stroke-width="1.89062" stroke-linecap="round" stroke-linejoin="round"/>
<path d="M472.858 260.688C472.729 253.359 470.132 246.294 465.498 240.67" stroke="#252B4A" stroke-width="1.89062" stroke-linecap="round" stroke-linejoin="round"/>
<path d="M476.406 259.363C478.755 260.581 481.728 261.961 484.807 263.441C490.441 266.148 492.843 265.298 487.469 260.375C482.396 255.734 476.637 251.929 470.404 249.096" stroke="#252B4A" stroke-width="1.89062" stroke-linecap="round" stroke-linejoin="round"/>
<path d="M479.434 254.066C499.84 264.818 503.008 261.612 486.217 250.721C479.655 246.695 472.715 243.343 465.498 240.713" stroke="#252B4A" stroke-width="1.89062" stroke-linecap="round" stroke-linejoin="round"/>
<path d="M447.023 244.216C449.779 244.855 452.669 244.476 455.175 243.147C457.68 241.819 459.638 239.628 460.695 236.968C462.668 233.096 461.217 231.248 463.41 228.546C466.802 224.365 466.138 222.327 461.27 224.468C458.094 225.862 450.674 229.659 444.987 227.964C442.603 227.289 440.207 226.64 438.74 226.26" stroke="#252B4A" stroke-width="1.89062" stroke-linecap="round" stroke-linejoin="round"/>
<path d="M135.812 224.555C131.392 225.889 127.053 227.485 122.816 229.333C97.9183 240.297 114.151 238.125 121.25 235.689" stroke="#252B4A" stroke-width="1.89062" stroke-linecap="round" stroke-linejoin="round"/>
<path d="M124.17 247.236C121.146 249.116 118.301 251.278 115.673 253.696C109.459 259.575 112.748 260.525 118.648 257.877C123.5 255.703 129.247 253.656 135.244 251.627C153.1 245.586 161.342 246.015 161.342 246.015" stroke="#252B4A" stroke-width="1.89062" stroke-linecap="round" stroke-linejoin="round"/>
<path d="M123.7 251.419C124.138 244.099 127.024 237.149 131.881 231.719" stroke="#252B4A" stroke-width="1.89062" stroke-linecap="round" stroke-linejoin="round"/>
<path d="M120.255 249.936C117.854 251.051 114.827 252.319 111.695 253.643C105.953 256.077 103.599 255.174 109.137 250.465C114.374 246.019 120.294 242.473 126.661 239.97" stroke="#252B4A" stroke-width="1.89062" stroke-linecap="round" stroke-linejoin="round"/>
<path d="M117.384 244.484C96.5059 254.332 93.5198 250.923 110.755 240.829C117.488 237.102 124.564 234.051 131.881 231.719" stroke="#252B4A" stroke-width="1.89062" stroke-linecap="round" stroke-linejoin="round"/>
<path d="M159.136 219.379C153.345 220.806 139.936 217.249 136.851 215.724C132.109 213.377 131.326 215.345 134.554 219.694C136.595 222.445 135.189 224.034 136.329 227.427C137.486 230.867 140.45 236.166 147.29 234.842" stroke="#252B4A" stroke-width="1.89062" stroke-linecap="round" stroke-linejoin="round"/>
<path d="M259.5 410.99L262.58 415.228" stroke="#252B4A" stroke-width="1.89062" stroke-linecap="round" stroke-linejoin="round"/>
<path d="M262.58 415.227C266.317 420.465 269.65 425.989 272.549 431.749C268.791 447.321 267.434 469.776 255.951 495.992C250.192 481.922 245.907 467.278 243.166 452.3C241.339 443.658 239.982 433.815 236.023 425.979" stroke="#252B4A" stroke-width="1.89062" stroke-linecap="round" stroke-linejoin="round"/>
<path d="M404.538 333.458C411.394 328.052 418.692 323.25 426.353 319.104C441.647 323.077 463.775 325.037 489.452 336.946C475.539 342.65 461.072 346.855 446.292 349.49C434.573 351.904 428.436 352.311 418.395 357.393" stroke="#252B4A" stroke-width="1.89062" stroke-linecap="round" stroke-linejoin="round"/>
<path d="M163.363 409.932L129.334 354.588" stroke="#252B4A" stroke-width="1.89062" stroke-linecap="round" stroke-linejoin="round"/>
<path d="M125.42 371.587L129.335 354.588L146.09 358.56" stroke="#252B4A" stroke-width="1.89062" stroke-linecap="round" stroke-linejoin="round"/>
<path d="M519.88 208.838C519.884 210.527 519.393 212.178 518.471 213.583C517.548 214.988 516.235 216.083 514.697 216.729C513.16 217.375 511.469 217.543 509.837 217.212C508.206 216.881 506.708 216.065 505.534 214.868C504.655 213.977 503.982 212.899 503.563 211.712C503.144 210.524 502.99 209.257 503.112 208.003C503.234 206.748 503.629 205.536 504.268 204.454C504.907 203.373 505.775 202.449 506.809 201.749C508.074 200.891 509.545 200.397 511.065 200.321C512.585 200.245 514.097 200.589 515.439 201.317C516.781 202.045 517.903 203.129 518.686 204.454C519.468 205.779 519.881 207.294 519.88 208.838Z" stroke="#252B4A" stroke-width="1.89062" stroke-linecap="round" stroke-linejoin="round"/>
<path d="M388.569 514.795C388.568 515.906 388.244 516.991 387.636 517.914C387.028 518.837 386.165 519.557 385.154 519.983C384.143 520.406 383.032 520.516 381.959 520.298C380.887 520.08 379.902 519.546 379.128 518.761C378.355 517.976 377.828 516.977 377.614 515.889C377.399 514.8 377.507 513.672 377.924 512.646C378.344 511.621 379.053 510.745 379.963 510.128C380.873 509.511 381.942 509.182 383.036 509.181C383.765 509.174 384.487 509.315 385.16 509.596C385.834 509.877 386.446 510.291 386.959 510.814C387.475 511.336 387.884 511.956 388.16 512.64C388.437 513.324 388.576 514.056 388.569 514.795Z" stroke="#252B4A" stroke-width="1.89062" stroke-linecap="round" stroke-linejoin="round"/>
<path d="M156.004 101.38L174.743 112.556" stroke="#252B4A" stroke-width="1.89062" stroke-linecap="round" stroke-linejoin="round"/>
<path d="M252.401 24.4805L258.926 45.3463" stroke="#252B4A" stroke-width="1.89062" stroke-linecap="round" stroke-linejoin="round"/>
<path d="M371.605 52.0203L381.992 32.9023" stroke="#252B4A" stroke-width="1.89062" stroke-linecap="round" stroke-linejoin="round"/>
<path d="M451.875 128.603L471.396 119.017" stroke="#252B4A" stroke-width="1.89062" stroke-linecap="round" stroke-linejoin="round"/>
<path d="M96.2451 148.727L94.0557 169.116" stroke="#252B4A" stroke-width="1.89062" stroke-linecap="round" stroke-linejoin="round"/>
<path d="M105.171 160.059L85.0781 157.837" stroke="#252B4A" stroke-width="1.89062" stroke-linecap="round" stroke-linejoin="round"/>
<path d="M321.503 204.286C313.311 216.692 306.798 230.159 302.141 244.325L266.547 243.528C264.876 229.969 268.008 203.436 268.008 203.436" stroke="#252B4A" stroke-width="1.89062" stroke-linecap="round" stroke-linejoin="round"/>
<path d="M267.695 252.742L269.679 273.929L282.099 282.718L295.252 273.717L299.897 253.219L267.695 252.742Z" stroke="#252B4A" stroke-width="1.89062" stroke-linecap="round" stroke-linejoin="round"/>
<path d="M290.032 199.623H304.017" stroke="#252B4A" stroke-width="1.89062" stroke-linecap="round" stroke-linejoin="round"/>
<path d="M355.323 351.836L331.89 371.59L324.05 364.59" stroke="#252B4A" stroke-width="1.89062" stroke-linecap="round" stroke-linejoin="round"/>
<path d="M315.814 258.938L310.751 276.629C310.751 276.629 341.489 320.63 306.631 339.91C298.342 344.495 286.535 347.612 270.918 346.974C255.945 346.138 241.194 342.917 227.208 337.429C238.649 359.616 251.535 381.006 265.778 401.456C261.825 409.523 255.665 416.264 248.037 420.873C241.156 424.81 233.515 427.188 225.642 427.842C205.975 398.923 187.97 368.877 171.715 337.852C169.304 333.292 168.033 328.199 168.016 323.023C167.999 317.847 169.236 312.747 171.617 308.169C173.999 303.592 177.452 299.679 181.674 296.774C185.895 293.869 190.755 292.061 195.827 291.51C222.288 288.644 252.819 288.12 276.044 292.145" stroke="#252B4A" stroke-width="1.89062" stroke-linecap="round" stroke-linejoin="round"/>
<path d="M227.207 337.428C224.284 331.973 221.988 326.782 221.988 326.782" stroke="#252B4A" stroke-width="1.89062" stroke-linecap="round" stroke-linejoin="round"/>
<path d="M256.838 345.529C262.308 369.679 276.097 391.053 295.721 405.799C301.066 409.915 307.308 412.665 313.921 413.817C320.534 414.97 327.322 414.49 333.714 412.42C364.901 402.234 394.212 386.88 420.458 366.981C417.749 349.664 411.077 337.384 396.709 326.782C374.91 340.79 348.788 358.08 324.05 364.586C316.996 357.353 311.233 348.933 307.017 339.7" stroke="#252B4A" stroke-width="1.89062" stroke-linecap="round" stroke-linejoin="round"/>
<path d="M300.889 342.555C287.621 348.336 273.729 352.513 259.5 355.002" stroke="#252B4A" stroke-width="1.89062" stroke-linecap="round" stroke-linejoin="round"/>
<path d="M293.894 190.989C295.894 191.106 297.897 191.106 299.897 190.989L292.224 195.968" stroke="#252B4A" stroke-width="1.89062" stroke-linecap="round" stroke-linejoin="round"/>
</svg>
