<svg width="24" height="24" viewBox="0 0 24 24" fill="none" xmlns="http://www.w3.org/2000/svg">
<g id="material-symbols:check-circle">
<path id="Vector" d="M10.74 16.14L17.085 9.795L15.825 8.535L10.74 13.62L8.175 11.055L6.915 12.315L10.74 16.14ZM12 21C10.755 21 9.585 20.7636 8.49 20.2908C7.395 19.818 6.4425 19.1769 5.6325 18.3675C4.8225 17.5575 4.1814 16.605 3.7092 15.51C3.237 14.415 3.0006 13.245 3 12C3 10.755 3.2364 9.585 3.7092 8.49C4.182 7.395 4.8231 6.4425 5.6325 5.6325C6.4425 4.8225 7.395 4.1814 8.49 3.7092C9.585 3.237 10.755 3.0006 12 3C13.245 3 14.415 3.2364 15.51 3.7092C16.605 4.182 17.5575 4.8231 18.3675 5.6325C19.1775 6.4425 19.8189 7.395 20.2917 8.49C20.7645 9.585 21.0006 10.755 21 12C21 13.245 20.7636 14.415 20.2908 15.51C19.818 16.605 19.1769 17.5575 18.3675 18.3675C17.5575 19.1775 16.605 19.8189 15.51 20.2917C14.415 20.7645 13.245 21.0006 12 21Z" fill="#4F56B2"/>
</g>
</svg>
