<svg width="480" height="462" viewBox="0 0 480 462" fill="none" xmlns="http://www.w3.org/2000/svg">
<path d="M121.525 208.079L169.283 254.695C181.724 217.547 195.934 207.357 202.2 204.591C208.505 209.374 239.592 216.171 255.632 218.229L291.407 288.577C293.288 292.297 294.355 296.374 294.535 300.538C294.715 304.701 294.005 308.854 292.451 312.722C281.201 339.905 267.479 366.002 251.455 390.686C231.845 387.968 215.275 379.995 205.468 363.008C222.584 339.225 236.93 316.666 246.916 296.145L230.756 269.647L231.434 243.642C221.54 264.029 204.286 284.684 190.895 298.908C186.683 303.364 180.945 306.075 174.821 306.502C168.7 306.931 162.638 305.045 157.844 301.218C134.554 282.691 112.263 263.347 90.1085 243.997C91.9211 235.868 95.746 228.322 101.234 222.047C106.722 215.773 113.698 210.971 121.525 208.079Z" fill="#F7F7FF"/>
<path fill-rule="evenodd" clip-rule="evenodd" d="M318.46 82.147L336.525 75.0182C341.126 78.0638 346.253 80.2349 351.645 81.4222C378.022 87.3113 404.387 69.4702 404.626 43.959C404.839 22.3961 385.838 4.73863 362.139 4.50021C338.484 4.27609 319.118 21.5354 318.867 43.1555C318.805 50.7048 321.107 58.085 325.452 64.2654L318.46 82.147ZM354.601 35.2733C353.655 35.6631 352.847 36.3244 352.278 37.1734C351.71 38.0224 351.407 39.0208 351.408 40.0417C351.408 40.7189 351.542 41.3894 351.802 42.0149C352.062 42.6405 352.443 43.2087 352.923 43.6872L361.549 52.2489L370.175 43.6872C371.144 42.7201 371.689 41.4083 371.689 40.0406C371.689 38.6728 371.144 37.361 370.175 36.3939C369.206 35.4267 367.891 34.8834 366.52 34.8834C365.15 34.8834 363.835 35.4267 362.866 36.3939L361.552 37.7076L360.233 36.3939C359.51 35.6723 358.589 35.1807 357.587 34.9813C356.585 34.7818 355.545 34.8834 354.601 35.2733Z" fill="#F7F7FF"/>
<path d="M418.707 203.687L416.71 207.718L412.26 208.352L415.484 211.478L414.712 215.915L418.707 213.831L422.657 215.915L421.93 211.478L425.108 208.352L420.659 207.718L418.707 203.687Z" fill="#F7F7FF"/>
<path d="M401.365 203.687L399.367 207.718L394.918 208.352L398.141 211.478L397.37 215.915L401.365 213.831L405.315 215.915L404.588 211.478L407.812 208.352L403.362 207.718L401.365 203.687Z" fill="#F7F7FF"/>
<path d="M384.023 203.687L382.025 207.718L377.576 208.352L380.802 211.478L380.027 215.915L384.023 213.831L388.018 215.915L387.246 211.478L390.472 208.352L386.02 207.718L384.023 203.687Z" fill="#F7F7FF"/>
<path d="M366.68 203.687L364.682 207.718L360.233 208.352L363.456 211.478L362.73 215.915L366.68 213.831L370.675 215.915L369.903 211.478L373.126 208.352L368.677 207.718L366.68 203.687Z" fill="#F7F7FF"/>
<path d="M349.337 203.687L347.385 207.718L342.936 208.352L346.159 211.478L345.387 215.915L349.337 213.831L353.332 215.915L352.56 211.478L355.784 208.352L351.335 207.718L349.337 203.687Z" fill="#F7F7FF"/>
<path d="M75.3088 372.428L92.0158 370.027L99.4613 354.942L106.907 370.027L123.614 372.428L111.538 384.206L114.398 400.786L99.4613 392.949L84.5249 400.786L87.3851 384.206L75.3088 372.428Z" fill="#F7F7FF"/>
<path d="M249.778 112.996C249.564 114.039 249.457 115.102 249.461 116.167L246.966 111.365C247.855 111.988 248.796 112.534 249.778 112.996Z" fill="#4F56B2"/>
<path d="M256.268 215.056C257.497 221.126 260.857 218.815 263.399 212.383C261.081 213.42 258.699 214.314 256.268 215.056Z" fill="#4F56B2"/>
<path d="M259.811 190.688C260.932 190.967 262.098 191.015 263.238 190.827C264.379 190.64 265.468 190.222 266.44 189.598C265.396 183.793 262.399 184.935 259.811 190.688Z" fill="#4F56B2"/>
<path d="M288.868 127.401L301.625 148.239C301.732 148.401 301.771 148.599 301.732 148.79C301.693 148.98 301.58 149.147 301.418 149.255C301.256 149.362 301.058 149.401 300.867 149.364C300.676 149.326 300.508 149.214 300.399 149.052L286.008 129.304C285.871 129.117 285.773 128.904 285.72 128.678C285.668 128.452 285.661 128.218 285.702 127.99C285.743 127.762 285.829 127.544 285.956 127.35C286.083 127.156 286.248 126.99 286.442 126.862C286.635 126.733 286.852 126.645 287.081 126.602C287.309 126.56 287.544 126.564 287.77 126.614C287.997 126.665 288.211 126.761 288.4 126.896C288.588 127.031 288.748 127.203 288.868 127.401Z" fill="#252B4A"/>
<path d="M255.862 108.421C255.862 109.028 255.621 109.61 255.19 110.039C254.76 110.468 254.177 110.71 253.568 110.71C252.96 110.71 252.376 110.468 251.946 110.039C251.516 109.61 251.274 109.028 251.274 108.421C251.274 107.814 251.516 107.231 251.946 106.802C252.376 106.373 252.96 106.132 253.568 106.132C254.177 106.132 254.76 106.373 255.19 106.802C255.621 107.231 255.862 107.814 255.862 108.421Z" fill="#4F56B2"/>
<path d="M223.54 257.727L230.805 269.596L231.486 243.594C229.083 248.438 226.431 253.156 223.54 257.727Z" fill="#4F56B2"/>
<path d="M113.356 203.594L118.441 209.395C108.9 213.575 100.958 220.705 95.7866 229.732C92.3186 227.249 88.4487 225.38 84.346 224.205C70.6745 218.85 57.6777 211.917 45.6203 203.549C58.8769 199.157 99.691 202.416 113.356 203.594Z" fill="#4F56B2"/>
<path d="M217.5 377.229C225.66 383.566 235.244 387.826 245.423 389.641L243.786 392.223C240.835 396.798 240.472 401.826 240.021 407.263C238.341 421.828 234.974 436.149 229.985 449.94C222.267 438.257 214.958 398.071 212.597 384.572L217.5 377.229Z" fill="#4F56B2"/>
<path d="M216.102 71.6823C216.102 62.0787 222.819 49.8477 232.489 49.8477C242.116 49.8477 250.467 59.1795 251.65 68.5566C251.954 70.9995 251.588 73.4789 250.591 75.7307C253.462 76.0383 256.156 77.2602 258.276 79.2153C260.396 81.1705 261.829 83.755 262.362 86.5861L261.184 86.5408C261.518 89.7452 261.672 92.9657 261.647 96.1873C259.7 78.9017 249.767 85.4178 246.701 92.158C245.984 88.6246 244.159 86.1331 242.023 86.1331H235.624C234.931 86.1569 234.264 86.3953 233.712 86.8126C233.775 86.5237 233.844 86.2359 233.918 85.9495C224.367 85.8541 216.102 81.1882 216.102 71.6823Z" fill="#4F56B2"/>
<path d="M216.1 71.6823C216.1 62.0787 222.816 49.8477 232.486 49.8477C242.113 49.8477 250.464 59.1795 251.647 68.5566C251.951 70.9995 251.585 73.4789 250.589 75.7307C253.459 76.0383 256.154 77.2602 258.274 79.2153C260.394 81.1705 261.826 83.755 262.359 86.5861L261.181 86.5408C261.515 89.7452 261.67 92.9657 261.645 96.1873C259.697 78.9017 249.764 85.4178 246.699 92.158C245.982 88.6246 244.156 86.1331 242.02 86.1331H235.621C234.928 86.1569 234.262 86.3953 233.71 86.8126C233.773 86.5237 233.841 86.2359 233.915 85.9495C224.365 85.8541 216.1 81.1882 216.1 71.6823Z" stroke="#252B4A" stroke-width="0.98479" stroke-linejoin="round"/>
<path d="M260.674 375.825C291.199 371.483 319.474 357.329 341.212 335.508" stroke="#252B4A" stroke-width="0.98479" stroke-linecap="round" stroke-linejoin="round"/>
<path d="M99.4621 252.11C103.052 282.209 116.206 310.37 136.997 332.47C157.789 354.569 185.125 369.445 215.004 374.919" stroke="#252B4A" stroke-width="0.98479" stroke-linecap="round" stroke-linejoin="round"/>
<path d="M114.128 170.709C109.85 179 106.413 187.696 103.868 196.668" stroke="#252B4A" stroke-width="0.98479" stroke-linecap="round" stroke-linejoin="round"/>
<path d="M378.803 275.032V228.418H341.939C340.228 228.418 338.587 227.74 337.377 226.533C336.167 225.326 335.487 223.688 335.487 221.981V197.571C335.487 196.727 335.655 195.892 335.979 195.112C336.304 194.333 336.78 193.625 337.379 193.029C337.978 192.434 338.69 191.962 339.472 191.641C340.254 191.321 341.093 191.157 341.939 191.16H426.109C426.958 191.161 427.798 191.329 428.582 191.654C429.366 191.979 430.077 192.456 430.676 193.056C431.275 193.656 431.749 194.368 432.072 195.152C432.394 195.935 432.559 196.774 432.556 197.621V221.986C432.556 223.693 431.876 225.33 430.666 226.538C429.456 227.745 427.815 228.423 426.104 228.423H389.245V278.923" stroke="#252B4A" stroke-width="0.98479" stroke-linecap="round" stroke-linejoin="round"/>
<path d="M378.803 303.481V292.519" stroke="#252B4A" stroke-width="0.98479" stroke-linecap="round" stroke-linejoin="round"/>
<path d="M389.244 309.031V335.598H378.802V305.7" stroke="#252B4A" stroke-width="0.98479" stroke-linecap="round" stroke-linejoin="round"/>
<path d="M378.803 250.79H342.665C338.524 250.792 334.552 252.434 331.624 255.356C328.695 258.278 327.049 262.241 327.048 266.373V319.963C327.047 324.098 328.691 328.065 331.62 330.991C334.548 333.918 338.521 335.565 342.665 335.57H425.383C427.432 335.573 429.462 335.173 431.357 334.392C433.251 333.611 434.972 332.465 436.422 331.019C437.873 329.574 439.024 327.858 439.809 325.968C440.595 324.079 440.999 322.054 441 320.008V266.364C440.999 262.231 439.353 258.268 436.424 255.346C433.496 252.424 429.524 250.782 425.383 250.78H389.245" stroke="#252B4A" stroke-width="0.98479" stroke-linecap="round" stroke-linejoin="round"/>
<path d="M383.752 300.858C378.352 300.434 378.213 293.875 383.434 293.927C387.338 293.968 390.062 294.111 393.149 294.244C398.325 294.483 398.277 301.356 394.012 301.538C390.583 301.486 387.158 301.26 383.752 300.858Z" stroke="#252B4A" stroke-width="0.98479" stroke-linecap="round" stroke-linejoin="round"/>
<path d="M387.777 278.974C389.646 278.929 391.039 278.929 392.795 278.929C397.742 278.884 397.926 285.769 393.84 286.177C391.784 286.313 389.72 286.313 387.662 286.177" stroke="#252B4A" stroke-width="0.98479" stroke-linecap="round" stroke-linejoin="round"/>
<path d="M382.526 308.249C377.307 307.682 377.305 301.364 382.344 301.545C386.112 301.681 388.746 301.912 391.742 302.134C396.736 302.503 396.554 309.141 392.423 309.201C389.109 309.058 385.806 308.74 382.526 308.249Z" stroke="#252B4A" stroke-width="0.98479" stroke-linecap="round" stroke-linejoin="round"/>
<path d="M387.646 286.314C389.61 286.362 391.314 286.541 393.237 286.584C398.494 286.72 398.595 293.706 394.239 293.975C391.61 294.135 388.836 293.794 383.797 293.522C383.234 293.539 382.676 293.419 382.17 293.173C381.664 292.927 381.226 292.561 380.893 292.109C380.56 291.656 380.342 291.129 380.259 290.574C380.175 290.018 380.228 289.451 380.413 288.92C380.659 288.211 381.129 287.601 381.751 287.18" stroke="#252B4A" stroke-width="0.98479" stroke-linecap="round" stroke-linejoin="round"/>
<path d="M327.047 283.368C329.635 283.685 354.923 284.322 368.361 284.138C371.403 284.095 371.14 279.253 371.945 278.023C374.095 274.735 374.76 274.754 381.206 275.162C388.788 275.638 388.088 275.977 387.515 288.933C387.376 292.104 381.842 292.466 380.798 282.41C381.658 290.156 378.119 295.456 372.898 297.132" stroke="#252B4A" stroke-width="0.98479" stroke-linecap="round" stroke-linejoin="round"/>
<path d="M327.048 310.457C333.586 310.276 361.733 310.095 378.803 309.778" stroke="#252B4A" stroke-width="0.98479" stroke-linecap="round" stroke-linejoin="round"/>
<path d="M418.71 203.687L416.712 207.718L412.263 208.352L415.486 211.478L414.714 215.915L418.71 213.831L422.659 215.915L421.933 211.478L425.111 208.352L420.662 207.718L418.71 203.687Z" stroke="#252B4A" stroke-width="0.98479" stroke-linecap="round" stroke-linejoin="round"/>
<path d="M401.365 203.687L399.367 207.718L394.918 208.352L398.142 211.478L397.37 215.915L401.365 213.831L405.315 215.915L404.588 211.478L407.812 208.352L403.363 207.718L401.365 203.687Z" stroke="#252B4A" stroke-width="0.98479" stroke-linecap="round" stroke-linejoin="round"/>
<path d="M384.024 203.687L382.026 207.718L377.577 208.352L380.8 211.478L380.029 215.915L384.024 213.831L388.019 215.915L387.247 211.478L390.47 208.352L386.021 207.718L384.024 203.687Z" stroke="#252B4A" stroke-width="0.98479" stroke-linecap="round" stroke-linejoin="round"/>
<path d="M366.681 203.687L364.683 207.718L360.234 208.352L363.457 211.478L362.731 215.915L366.681 213.831L370.676 215.915L369.904 211.478L373.128 208.352L368.678 207.718L366.681 203.687Z" stroke="#252B4A" stroke-width="0.98479" stroke-linecap="round" stroke-linejoin="round"/>
<path d="M349.338 203.687L347.386 207.718L342.937 208.352L346.16 211.478L345.388 215.915L349.338 213.831L353.333 215.915L352.562 211.478L355.785 208.352L351.336 207.718L349.338 203.687Z" stroke="#252B4A" stroke-width="0.98479" stroke-linecap="round" stroke-linejoin="round"/>
<path d="M101.55 148.467C106.952 148.279 107.406 141.762 102.185 141.581C98.281 141.445 95.557 141.491 92.4245 141.491C87.2489 141.491 86.9789 148.405 91.2441 148.739C93.8318 148.946 96.5558 148.641 101.55 148.467Z" stroke="#252B4A" stroke-width="0.98479" stroke-linecap="round" stroke-linejoin="round"/>
<path d="M101.098 155.488C106.316 154.918 106.319 148.602 101.28 148.783C97.5114 148.919 97.0574 148.878 94.1112 149.1C89.1173 149.472 89.2989 156.105 93.4302 156.167C95.9992 156.126 98.5619 155.899 101.098 155.488Z" stroke="#252B4A" stroke-width="0.98479" stroke-linecap="round" stroke-linejoin="round"/>
<path d="M119.121 145.114C111.585 146.067 106.273 136.144 109.451 129.123C109.451 129.123 109.814 123.188 111.086 114.128C112.357 105.068 117.351 104.434 117.215 106.609C117.078 108.783 118.758 120.785 120.574 124.321C122.526 128.124 128.474 128.2 131.652 128.217C140.822 128.262 170.332 126.45 170.332 126.45" stroke="#252B4A" stroke-width="0.98479" stroke-linecap="round" stroke-linejoin="round"/>
<path d="M170.058 158.204C160.933 157.932 100.733 156.891 94.0598 156.212" stroke="#252B4A" stroke-width="0.98479" stroke-linecap="round" stroke-linejoin="round"/>
<path d="M100.962 134.242C106.183 134.688 107.413 128.498 102.415 127.719C98.6895 127.137 96.0587 126.853 93.0624 126.495C88.0684 125.899 86.9884 132.423 91.0648 133.29C94.3453 133.777 97.6487 134.094 100.962 134.242Z" stroke="#252B4A" stroke-width="0.98479" stroke-linecap="round" stroke-linejoin="round"/>
<path d="M101.822 141.49C107.079 141.537 107.815 135.241 102.73 134.876C98.9618 134.604 93.4112 134.43 90.4267 134.332C85.4328 134.165 84.8402 140.789 88.974 141.263C91.4685 141.549 97.0097 141.444 101.822 141.49Z" stroke="#252B4A" stroke-width="0.98479" stroke-linecap="round" stroke-linejoin="round"/>
<path d="M110.223 121.014C109.632 127.945 109.315 127.451 93.0616 126.497" stroke="#252B4A" stroke-width="0.98479" stroke-linecap="round" stroke-linejoin="round"/>
<path d="M71.9969 97.8652C67.8553 97.8665 63.8837 99.5087 60.9552 102.431C58.0266 105.353 56.3808 109.316 56.3796 113.448V155.079C56.3783 159.215 58.0226 163.181 60.9511 166.107C63.8796 169.033 67.8526 170.68 71.9969 170.684H154.715C158.856 170.689 162.83 169.054 165.763 166.137C168.696 163.219 170.347 159.257 170.354 155.125V113.458C170.356 109.329 168.716 105.367 165.794 102.443C164.346 100.995 162.626 99.8467 160.733 99.0628C158.84 98.279 156.81 97.8753 154.76 97.8748L71.9969 97.8652Z" stroke="#252B4A" stroke-width="0.98479" stroke-linecap="round" stroke-linejoin="round"/>
<path d="M249.779 112.996C248.789 112.547 247.847 112 246.966 111.365L249.461 116.167" stroke="#252B4A" stroke-width="0.98479" stroke-linecap="round" stroke-linejoin="round"/>
<path d="M241.381 104.706C241.173 108.581 240.266 112.387 238.702 115.94C237.206 119.437 234.691 122.404 231.484 124.457C227.72 126.729 214.366 126.538 209.056 136.235C204.242 145.021 198.844 173.653 196.392 190.414C195.894 193.819 196.589 197.292 198.359 200.245C200.129 203.199 202.866 205.453 206.108 206.627C223.05 212.578 240.615 216.589 258.465 218.581" stroke="#252B4A" stroke-width="0.98479" stroke-linecap="round" stroke-linejoin="round"/>
<path d="M246.686 92.1588C249.816 85.2732 259.608 77.7963 261.211 96.5076C261.707 100.483 261.523 104.514 260.666 108.429C258.671 115.767 253.13 114.59 249.77 113.004C249.555 114.048 249.45 115.109 249.453 116.175C249.295 118.183 249.819 120.185 250.938 121.861C252.058 123.537 253.709 124.789 255.627 125.416C258.628 126.449 271.636 127.626 278.009 143.219C280.104 148.336 281.368 154.499 283.729 159.346" stroke="#252B4A" stroke-width="0.98479" stroke-linecap="round" stroke-linejoin="round"/>
<path d="M232.392 161.287L228.669 179.996L264.214 185.794" stroke="#252B4A" stroke-width="0.98479" stroke-linecap="round" stroke-linejoin="round"/>
<path d="M259.811 190.688C261.83 191.11 263.932 190.871 265.804 190.006C268.982 187.967 271.3 182.798 273.794 175.963C277.378 166.216 277.88 170.346 278.289 174.056C278.659 175.901 277.486 186.725 281.966 184.203C287.718 178.946 293.967 174.257 300.625 170.203C309.132 165.794 309.657 168.205 303.168 174.144C301.173 175.957 299.278 177.878 297.493 179.897C295.318 182.333 293.301 184.905 291.454 187.598C288.707 192.004 283.646 200.325 277.471 204.54C270.931 209.013 263.794 212.55 256.27 215.047" stroke="#252B4A" stroke-width="0.98479" stroke-linecap="round" stroke-linejoin="round"/>
<path d="M284.371 197.98C287.095 193.36 295.32 188.563 299.253 184.986C301.936 182.545 307.026 179.026 309.967 176.47C310.696 175.838 310.421 174.114 304.837 176.561C303.594 177.109 299.329 179.007 297.411 179.994" stroke="#252B4A" stroke-width="0.98479" stroke-linecap="round" stroke-linejoin="round"/>
<path d="M299.58 184.695C300.562 184.428 301.405 184.218 301.852 184.118C307.754 182.623 307.756 184.392 306.937 184.888C303.63 186.891 297.984 189.583 294.951 191.547C290.5 194.111 286.277 197.051 282.33 200.336" stroke="#252B4A" stroke-width="0.98479" stroke-linecap="round" stroke-linejoin="round"/>
<path d="M266.432 189.553C265.587 184.923 263.482 184.763 261.348 187.884C257.142 194.014 254.179 210.625 256.808 216.919C258.304 220.512 261.166 218.042 263.398 212.389" stroke="#252B4A" stroke-width="0.98479" stroke-linecap="round" stroke-linejoin="round"/>
<path d="M267.392 210.482L264.532 219.449L306.209 208.082L329.181 141.717L285.779 152.906L278.379 176.1" stroke="#252B4A" stroke-width="0.98479" stroke-linecap="round" stroke-linejoin="round"/>
<path d="M310.112 146.654L312.428 138.273L305.844 139.859L304.346 148.149" stroke="#252B4A" stroke-width="0.98479" stroke-linecap="round" stroke-linejoin="round"/>
<path d="M244.737 103.256C246.654 105.084 248.904 106.529 251.366 107.514" stroke="#252B4A" stroke-width="0.98479" stroke-linecap="round" stroke-linejoin="round"/>
<path d="M269.663 154.718C269.663 154.718 270.564 167.285 265.485 176.414L260.582 185.202" stroke="#252B4A" stroke-width="0.98479" stroke-linecap="round" stroke-linejoin="round"/>
<path d="M255.709 218.281L291.455 288.532C293.339 292.251 294.406 296.329 294.586 300.492C294.766 304.656 294.055 308.81 292.499 312.677C281.265 339.867 267.542 365.966 251.504 390.641C231.894 387.923 215.323 379.95 205.517 362.963C222.632 339.18 236.978 316.62 246.964 296.1L223.547 257.73C213.97 272.436 203.042 286.222 190.905 298.908C186.693 303.364 180.955 306.075 174.832 306.503C168.708 306.931 162.648 305.044 157.854 301.218C134.574 282.679 112.273 263.348 90.1185 243.997C91.9216 235.865 95.7423 228.315 101.23 222.039C106.718 215.764 113.697 210.963 121.528 208.079L169.343 254.659C181.768 217.542 195.983 207.354 202.248 204.591" stroke="#252B4A" stroke-width="0.98479" stroke-linecap="round" stroke-linejoin="round"/>
<path d="M230.804 269.596L231.439 243.594C229.07 248.447 226.432 253.166 223.539 257.727" stroke="#252B4A" stroke-width="0.98479" stroke-linecap="round" stroke-linejoin="round"/>
<path d="M113.355 203.593C99.7355 202.42 59.1915 199.182 45.7342 203.543" stroke="#252B4A" stroke-width="0.98479" stroke-linecap="round" stroke-linejoin="round"/>
<path d="M118.485 209.395L107.816 197.299C86.1149 193.63 51.0212 192.86 38.9999 198.794C52.1705 208.4 69.1068 218.803 84.3539 224.205C88.4563 225.381 92.3261 227.25 95.7945 229.732" stroke="#252B4A" stroke-width="0.98479" stroke-linecap="round" stroke-linejoin="round"/>
<path d="M217.591 377.184L207.921 391.544C209.918 413.424 218.181 447.489 227.036 457.501C233.645 441.426 238.014 424.522 240.021 407.263C240.467 401.827 240.835 396.799 243.786 392.223L245.459 389.601" stroke="#252B4A" stroke-width="0.98479" stroke-linecap="round" stroke-linejoin="round"/>
<path d="M304.848 145.296C304.848 145.296 297.584 143.212 291.636 151.412" stroke="#252B4A" stroke-width="0.98479" stroke-linecap="round" stroke-linejoin="round"/>
<path d="M262.716 127.538C263.231 127.866 263.626 128.349 263.845 128.917C264.064 129.486 264.094 130.109 263.932 130.696C263.769 131.283 263.422 131.802 262.942 132.178C262.462 132.554 261.873 132.766 261.263 132.783C260.757 132.781 260.261 132.64 259.829 132.377C259.396 132.113 259.045 131.737 258.811 131.288C260.452 130.445 261.809 129.141 262.716 127.538Z" stroke="#252B4A" stroke-width="0.98479" stroke-linecap="round" stroke-linejoin="round"/>
<path d="M258.949 132.431C258.952 133.08 258.724 133.708 258.308 134.206C257.891 134.704 257.312 135.039 256.672 135.153C256.032 135.267 255.372 135.152 254.809 134.829C254.245 134.505 253.814 133.994 253.592 133.385C255.341 132.793 257.057 132.097 258.722 131.301C258.885 131.656 258.961 132.04 258.949 132.431Z" stroke="#252B4A" stroke-width="0.98479" stroke-linecap="round" stroke-linejoin="round"/>
<path d="M253.728 134.202C253.73 134.885 253.479 135.544 253.025 136.055C252.57 136.565 251.943 136.89 251.263 136.969C250.584 137.047 249.899 136.873 249.339 136.48C248.78 136.086 248.385 135.501 248.231 134.836C250.046 134.485 251.836 134.016 253.589 133.432C253.683 133.678 253.73 133.939 253.728 134.202Z" stroke="#252B4A" stroke-width="0.98479" stroke-linecap="round" stroke-linejoin="round"/>
<path d="M248.417 135.239C248.443 135.964 248.18 136.669 247.686 137.201C247.192 137.733 246.508 138.048 245.782 138.078C245.055 138.108 244.347 137.85 243.811 137.361C243.275 136.871 242.955 136.19 242.921 135.466C244.75 135.376 246.571 135.149 248.367 134.786C248.36 134.917 248.417 135.103 248.417 135.239Z" stroke="#252B4A" stroke-width="0.98479" stroke-linecap="round" stroke-linejoin="round"/>
<path d="M242.877 135.466C242.877 136.179 242.596 136.864 242.095 137.372C241.594 137.881 240.912 138.172 240.198 138.184C239.825 138.187 239.456 138.113 239.114 137.965C238.772 137.818 238.465 137.601 238.212 137.328C237.961 137.054 237.769 136.731 237.65 136.38C237.531 136.028 237.486 135.655 237.519 135.285C239.298 135.481 241.089 135.542 242.877 135.466Z" stroke="#252B4A" stroke-width="0.98479" stroke-linecap="round" stroke-linejoin="round"/>
<path d="M234.661 137.539C234.231 137.537 233.808 137.437 233.424 137.245C233.04 137.053 232.705 136.775 232.446 136.434C232.187 136.092 232.01 135.695 231.929 135.274C231.849 134.853 231.867 134.419 231.982 134.006C233.736 134.6 235.548 135.007 237.385 135.229C237.277 135.872 236.944 136.457 236.445 136.88C235.947 137.302 235.315 137.536 234.661 137.539Z" stroke="#252B4A" stroke-width="0.98479" stroke-linecap="round" stroke-linejoin="round"/>
<path d="M229.441 135.782C228.957 135.784 228.481 135.658 228.061 135.417C227.641 135.177 227.292 134.83 227.049 134.412C226.805 133.994 226.676 133.521 226.673 133.038C226.67 132.555 226.795 132.08 227.035 131.66C228.612 132.633 230.285 133.436 232.029 134.061C231.811 134.567 231.451 134.999 230.991 135.305C230.532 135.611 229.993 135.776 229.441 135.782Z" stroke="#252B4A" stroke-width="0.98479" stroke-linecap="round" stroke-linejoin="round"/>
<path d="M223.675 127.085C223.035 127.28 222.486 127.696 222.127 128.259C221.768 128.823 221.623 129.495 221.718 130.156C221.809 130.817 222.134 131.423 222.635 131.866C223.135 132.309 223.778 132.558 224.447 132.569C224.918 132.607 225.392 132.547 225.837 132.391C226.283 132.235 226.691 131.987 227.035 131.663C225.52 130.469 224.359 128.886 223.675 127.085Z" stroke="#252B4A" stroke-width="0.98479" stroke-linecap="round" stroke-linejoin="round"/>
<path d="M139.459 56.7344V80.6982" stroke="#252B4A" stroke-width="0.98479" stroke-linecap="round" stroke-linejoin="round"/>
<path d="M127.43 68.6924H151.446" stroke="#252B4A" stroke-width="0.98479" stroke-linecap="round" stroke-linejoin="round"/>
<path d="M238.748 102.578C235.501 107.546 230.577 103.393 230.577 95.4251C230.577 87.4976 235.532 83.3085 238.748 88.2725C239.929 90.4726 240.547 92.9295 240.547 95.4251C240.547 97.9207 239.929 100.378 238.748 102.578Z" stroke="#252B4A" stroke-width="0.98479" stroke-linecap="round" stroke-linejoin="round"/>
<path d="M235.571 86.0879H241.97C244.749 86.0879 246.971 90.2793 246.964 95.4197C246.957 100.56 244.739 104.718 241.97 104.718H235.975" stroke="#252B4A" stroke-width="0.98479" stroke-linecap="round" stroke-linejoin="round"/>
<path d="M262.398 86.6312C264.577 86.7218 266.621 91.0253 266.351 96.1443C266.076 101.037 263.805 104.966 261.22 105.159C261.941 98.9871 261.912 92.7507 261.131 86.5859L262.398 86.6312Z" stroke="#252B4A" stroke-width="0.98479" stroke-linecap="round" stroke-linejoin="round"/>
<path d="M261.627 86.3147C261.178 83.751 259.803 81.4406 257.761 79.821C255.719 78.2013 253.154 77.385 250.549 77.5265C247.925 77.4455 245.35 78.245 243.235 79.7972C241.12 81.3494 239.588 83.5645 238.884 86.0882" stroke="#252B4A" stroke-width="0.98479" stroke-linecap="round" stroke-linejoin="round"/>
<path d="M352.925 36.3484C353.405 35.8695 353.975 35.4896 354.602 35.2305C355.229 34.9713 355.901 34.8379 356.58 34.8379C357.259 34.8379 357.931 34.9713 358.558 35.2305C359.185 35.4896 359.755 35.8695 360.235 36.3484L361.549 37.7074L362.868 36.3484C363.348 35.8695 363.917 35.4897 364.544 35.2305C365.172 34.9713 365.844 34.8379 366.522 34.8379C367.201 34.8379 367.873 34.9713 368.5 35.2305C369.127 35.4897 369.697 35.8695 370.177 36.3484C370.657 36.8273 371.038 37.3958 371.297 38.0215C371.557 38.6472 371.691 39.3178 371.691 39.9951C371.691 40.6723 371.557 41.343 371.297 41.9686C371.038 42.5943 370.657 43.1629 370.177 43.6418L361.551 52.2488L352.925 43.6418C352.445 43.1629 352.065 42.5944 351.805 41.9687C351.545 41.343 351.411 40.6723 351.411 39.9951C351.411 39.3178 351.545 38.6472 351.805 38.0215C352.065 37.3958 352.445 36.8273 352.925 36.3484Z" stroke="#252B4A" stroke-width="0.98479" stroke-linecap="round" stroke-linejoin="round"/>
<path d="M336.529 75.0182L318.462 82.147L325.454 64.2654C321.11 58.0847 318.808 50.7046 318.871 43.1555C319.119 21.5354 338.488 4.27609 362.141 4.50021C385.84 4.73863 404.841 22.3961 404.626 43.959C404.387 69.4702 378.024 87.3113 351.647 81.4222C346.255 80.2347 341.13 78.0636 336.529 75.0182Z" stroke="#252B4A" stroke-width="0.98479" stroke-linecap="round" stroke-linejoin="round"/>
<path d="M75.3113 372.428L92.0182 370.027L99.4637 354.942L106.909 370.027L123.616 372.428L111.54 384.206L114.4 400.786L99.4637 392.949L84.5273 400.786L87.3875 384.206L75.3113 372.428Z" stroke="#252B4A" stroke-width="0.98479" stroke-linecap="round" stroke-linejoin="round"/>
<path d="M230.577 94.0166C209.379 95.461 188.784 101.671 170.332 112.182" stroke="#252B4A" stroke-width="0.98479" stroke-linecap="round" stroke-linejoin="round"/>
<path d="M375.579 191.185C367.6 167.01 353.254 145.42 334.043 128.676C314.832 111.932 291.462 100.649 266.382 96.0098" stroke="#252B4A" stroke-width="0.98479" stroke-linecap="round" stroke-linejoin="round"/>
<path d="M106.183 217.185L132.061 241.33" stroke="#252B4A" stroke-width="0.98479" stroke-linecap="round" stroke-linejoin="round"/>
<path d="M220.361 378.951L239.61 349.234" stroke="#252B4A" stroke-width="0.98479" stroke-linecap="round" stroke-linejoin="round"/>
<path d="M218.136 218.227C214.641 220.762 210.664 222.56 206.449 223.51C202.234 224.461 197.869 224.543 193.621 223.753" stroke="#252B4A" stroke-width="0.98479" stroke-linecap="round" stroke-linejoin="round"/>
<path d="M366.681 357.344V362.618" stroke="#252B4A" stroke-width="0.98479" stroke-linecap="round" stroke-linejoin="round"/>
<path d="M356.398 367.605H361.684" stroke="#252B4A" stroke-width="0.98479" stroke-linecap="round" stroke-linejoin="round"/>
<path d="M366.681 377.865V372.591" stroke="#252B4A" stroke-width="0.98479" stroke-linecap="round" stroke-linejoin="round"/>
<path d="M376.966 367.605H371.678" stroke="#252B4A" stroke-width="0.98479" stroke-linecap="round" stroke-linejoin="round"/>
<path d="M361.685 367.605C362.674 367.604 363.64 367.312 364.462 366.764C365.284 366.216 365.925 365.438 366.304 364.527C366.555 363.921 366.683 363.272 366.682 362.617C366.68 363.272 366.809 363.921 367.059 364.527C367.31 365.132 367.678 365.683 368.142 366.146C368.606 366.609 369.157 366.977 369.764 367.227C370.371 367.478 371.021 367.606 371.678 367.605C370.352 367.605 369.08 368.129 368.141 369.064C367.677 369.527 367.309 370.076 367.058 370.682C366.808 371.287 366.68 371.936 366.682 372.59C366.681 371.268 366.155 370 365.219 369.064C364.282 368.13 363.01 367.605 361.685 367.605Z" stroke="#252B4A" stroke-width="0.98479" stroke-linecap="round" stroke-linejoin="round"/>
<path d="M212.599 384.567C214.95 398.017 222.214 437.948 229.899 449.804" stroke="#252B4A" stroke-width="0.98479" stroke-linecap="round" stroke-linejoin="round"/>
</svg>
